<svg width="19" height="24" viewBox="0 0 19 24" fill="none" xmlns="http://www.w3.org/2000/svg">
<path d="M15.8173 0.789204C16.0737 0.928985 16.1468 1.14534 16.1455 1.43247C16.1361 3.32796 16.1401 5.22391 16.1397 7.11941V7.4052C16.2257 7.41054 16.2962 7.41944 16.3666 7.41944C17.0636 7.41944 17.7608 7.41751 18.4581 7.41366C18.7933 7.41366 18.998 7.61932 18.9975 7.94785C18.9934 11.3094 18.9926 14.671 18.9953 18.0325C18.9953 18.3753 18.9061 18.6264 18.6529 18.8721C17.2124 20.2824 15.7794 21.6998 14.3688 23.1399C14.0754 23.4395 13.7856 23.5472 13.3781 23.5459C9.13541 23.534 4.89288 23.5315 0.650495 23.5383C0.144012 23.5383 0.00357026 23.3981 0.00357026 22.8933C0.00357026 19.5459 0.00237785 16.1991 0 12.8526C0 12.5562 0.0860541 12.3554 0.317895 12.1488C0.84221 11.681 1.32639 11.1668 1.81593 10.6616C1.87568 10.5997 1.89129 10.4741 1.89174 10.3784C1.89619 8.65358 1.89753 6.92828 1.89574 5.20254C1.89574 4.74179 2.06339 4.57441 2.52484 4.57441H3.79907C3.79907 4.2628 3.80754 3.95965 3.79907 3.65916C3.76742 2.72878 3.87887 2.65666 4.78617 2.68515C5.08088 2.6945 5.37603 2.68515 5.70373 2.68515C5.70373 2.25201 5.71799 1.83934 5.69882 1.4289C5.68544 1.14044 5.7715 0.926316 6.02652 0.785645L15.8173 0.789204ZM13.276 13.1255H0.962587V22.5816H13.2782L13.276 13.1255ZM2.86145 12.1511H11.3825V5.55199H2.86367L2.86145 12.1511ZM14.2466 21.8894C14.3219 21.824 14.3514 21.8004 14.3772 21.7755C15.5647 20.5949 16.7502 19.4125 17.9337 18.2284C18.0015 18.1462 18.0378 18.0428 18.0363 17.9364C18.0416 15.0419 18.0428 12.1475 18.0399 9.25306C18.0399 9.19964 18.0296 9.14622 18.018 9.03048C17.9346 9.12975 17.8914 9.19029 17.8397 9.24238C16.7696 10.3108 15.7121 11.3898 14.6242 12.4386C14.3429 12.7102 14.2386 12.9822 14.2404 13.3624C14.2528 16.1086 14.247 18.8548 14.247 21.6014L14.2466 21.8894ZM14.2466 11.4255L14.3032 11.4446C14.5895 11.1548 14.8775 10.8659 15.1601 10.573C15.1954 10.5311 15.2148 10.4781 15.215 10.4234C15.215 10.2983 15.1931 10.1737 15.1931 10.049C15.1931 7.36854 15.1931 4.68837 15.1931 2.0085V1.75164H6.66274V2.68648H6.85134H10.3445C11.4639 2.68648 12.5837 2.68648 13.704 2.68648C14.0607 2.68648 14.239 2.86054 14.2488 3.21311C14.2488 3.26475 14.2488 3.31683 14.2488 3.36847C14.2488 5.95219 14.2488 8.53606 14.2488 11.1201L14.2466 11.4255ZM4.75407 4.5762H5.00241H11.679C12.1957 4.5762 12.3442 4.72354 12.3442 5.23192C12.3442 7.46129 12.3442 9.69051 12.3442 11.9196V12.1479H13.2773V3.65026H4.7563L4.75407 4.5762ZM16.1459 9.50814L17.207 8.39791H16.1459V9.50814Z" fill="#A5B0C9"/>
</svg>
