<svg width="35" height="35" viewBox="0 0 35 35" fill="none" xmlns="http://www.w3.org/2000/svg">
<circle cx="17.5" cy="17.5" r="16.5" stroke="white" stroke-width="2"/>
<path d="M18.0146 15.5977L18.0147 25.8694" stroke="white" stroke-width="2" stroke-linecap="round" stroke-linejoin="round"/>
<path d="M18.0147 9.13037L18.0146 11.7934" stroke="white" stroke-width="2" stroke-linecap="round" stroke-linejoin="round"/>
<path d="M18.0148 15.5978C19.0654 15.5978 19.917 14.7462 19.917 13.6956C19.917 12.6451 19.0654 11.7935 18.0148 11.7935C16.9643 11.7935 16.1127 12.6451 16.1127 13.6956C16.1127 14.7462 16.9643 15.5978 18.0148 15.5978Z" stroke="white" stroke-width="2" stroke-linecap="round" stroke-linejoin="round"/>
<path d="M24.8627 23.2065L24.8628 25.8696" stroke="white" stroke-width="2" stroke-linecap="round" stroke-linejoin="round"/>
<path d="M24.8628 9.13037L24.8627 19.4021" stroke="white" stroke-width="2" stroke-linecap="round" stroke-linejoin="round"/>
<path d="M24.8624 23.2067C25.9129 23.2067 26.7646 22.3551 26.7646 21.3045C26.7646 20.254 25.9129 19.4023 24.8624 19.4023C23.8118 19.4023 22.9602 20.254 22.9602 21.3045C22.9602 22.3551 23.8118 23.2067 24.8624 23.2067Z" stroke="white" stroke-width="2" stroke-linecap="round" stroke-linejoin="round"/>
<path d="M11.1668 20.1631L11.1667 25.8696" stroke="white" stroke-width="2" stroke-linecap="round" stroke-linejoin="round"/>
<path d="M11.1667 9.13037L11.1668 16.3586" stroke="white" stroke-width="2" stroke-linecap="round" stroke-linejoin="round"/>
<path d="M11.1668 20.1632C12.2174 20.1632 13.069 19.3116 13.069 18.2611C13.069 17.2105 12.2174 16.3589 11.1668 16.3589C10.1163 16.3589 9.26465 17.2105 9.26465 18.2611C9.26465 19.3116 10.1163 20.1632 11.1668 20.1632Z" stroke="white" stroke-width="2" stroke-linecap="round" stroke-linejoin="round"/>
</svg>
