<svg width="31" height="32" viewBox="0 0 31 32" fill="none" xmlns="http://www.w3.org/2000/svg">
<path d="M15.5 30.5C23.5081 30.5 30 24.0081 30 16C30 7.99187 23.5081 1.5 15.5 1.5C7.49187 1.5 1 7.99187 1 16C1 24.0081 7.49187 30.5 15.5 30.5Z" stroke="white" stroke-width="2" stroke-miterlimit="10"/>
<path d="M28.5145 22.4001L20.315 17.3571C20.1713 17.2687 20.0106 17.2114 19.8434 17.1888L16.3969 16.7242C16.138 16.6893 15.8749 16.7392 15.6468 16.8664C15.4188 16.9936 15.238 17.1913 15.1317 17.4298L13.0627 22.0726C12.9664 22.2885 12.9356 22.5279 12.9741 22.7611C13.0126 22.9944 13.1186 23.2112 13.2791 23.3848L16.1187 26.4561C16.2474 26.5954 16.3416 26.763 16.3935 26.9453C16.4455 27.1277 16.4538 27.3197 16.4178 27.5059L15.8394 30.496" stroke="white" stroke-width="2" stroke-linecap="round" stroke-linejoin="round"/>
<path d="M5.97696 5.06543L4.62601 8.25992C4.50555 8.54475 4.49889 8.86493 4.6074 9.15453L6.34299 13.7867C6.41407 13.9764 6.53169 14.1452 6.68504 14.2775C6.8384 14.4099 7.02256 14.5015 7.2206 14.5441L10.4574 15.2398C10.637 15.2784 10.8055 15.3574 10.9499 15.4709C11.0944 15.5844 11.2111 15.7293 11.2911 15.8947L11.8659 17.0822C11.9649 17.2865 12.1193 17.4589 12.3117 17.5795C12.5041 17.7001 12.7265 17.764 12.9535 17.764H14.9824" stroke="white" stroke-width="2" stroke-linecap="round" stroke-linejoin="round"/>
<path d="M19.1945 1.97559L20.6043 4.50076C20.7375 4.73948 20.7859 5.01633 20.7415 5.2861C20.6971 5.55586 20.5625 5.80259 20.3597 5.98597L16.295 9.66196C16.2261 9.72434 16.1501 9.77856 16.0687 9.82352L14.2197 10.8446C14.0408 10.9434 13.8398 10.9952 13.6355 10.9952H10.4115C10.1737 10.9952 9.94126 11.0653 9.74318 11.1968C9.5451 11.3283 9.39021 11.5153 9.29792 11.7344L8.04016 14.7203" stroke="white" stroke-width="2" stroke-linecap="round" stroke-linejoin="round"/>
</svg>
