<svg class='policy' id="Layer_5" data-name="Layer 5" xmlns="http://www.w3.org/2000/svg" viewBox="0 0 130.84 130.84"><defs><style>.cls-1,.cls-4{fill:#fff;}.cls-2{fill:currentColor;}.cls-3{fill:none;}.cls-3,.cls-4{stroke:currentColor;stroke-miterlimit:10;stroke-width:3px;}</style></defs><path class="cls-1" d="M125.37,26.22V69.8c0,.72-.89,1.36-1.37,1.93L92.79,102.61a2.79,2.79,0,0,1-.89.62,2.55,2.55,0,0,1-1.05.23H63.41A8.9,8.9,0,0,1,57,100.77a8.78,8.78,0,0,1-1.91-3,8.68,8.68,0,0,1-.58-3.5v-68c0-5.08,3.62-9.62,8.93-9.62h52a10,10,0,0,1,9.94,9.62Z"/><path class="cls-2" d="M78.9,34.09H68a1.4,1.4,0,0,1-1-.39,1.39,1.39,0,0,1-.4-1A1.37,1.37,0,0,1,68,31.38H78.9a1.37,1.37,0,0,1,1.36,1.36,1.35,1.35,0,0,1-.4,1A1.36,1.36,0,0,1,78.9,34.09Z"/><path class="cls-2" d="M98,34.09H84.35a1.36,1.36,0,0,1-1-.39,1.35,1.35,0,0,1-.4-1,1.37,1.37,0,0,1,1.36-1.36H98a1.37,1.37,0,0,1,1.37,1.36,1.39,1.39,0,0,1-.4,1A1.4,1.4,0,0,1,98,34.09Z"/><path class="cls-2" d="M108.9,34.09h-5.45a1.4,1.4,0,0,1-1-.39,1.39,1.39,0,0,1-.4-1,1.37,1.37,0,0,1,1.37-1.36h5.45a1.37,1.37,0,0,1,1.37,1.36,1.39,1.39,0,0,1-.4,1A1.4,1.4,0,0,1,108.9,34.09Z"/><path class="cls-2" d="M73.44,40.88H68a1.37,1.37,0,0,1-1.37-1.36,1.39,1.39,0,0,1,.4-1,1.41,1.41,0,0,1,1-.4h5.45a1.41,1.41,0,0,1,1,.4,1.39,1.39,0,0,1,.4,1,1.37,1.37,0,0,1-1.37,1.36Z"/><path class="cls-2" d="M89.81,40.88H78.9a1.37,1.37,0,0,1-1.37-1.36,1.39,1.39,0,0,1,.4-1,1.41,1.41,0,0,1,1-.4H89.81a1.37,1.37,0,0,1,1,.4,1.35,1.35,0,0,1,.4,1,1.37,1.37,0,0,1-1.36,1.36Z"/><path class="cls-2" d="M108.9,40.88H95.26a1.35,1.35,0,0,1-1-.4,1.33,1.33,0,0,1-.4-1,1.35,1.35,0,0,1,.4-1,1.39,1.39,0,0,1,1-.4H108.9a1.37,1.37,0,0,1,1.37,1.36,1.37,1.37,0,0,1-.4,1A1.35,1.35,0,0,1,108.9,40.88Z"/><path class="cls-2" d="M81.63,49H68a1.4,1.4,0,0,1-1-.39,1.39,1.39,0,0,1-.4-1A1.37,1.37,0,0,1,68,46.31H81.63a1.35,1.35,0,0,1,1,.4,1.33,1.33,0,0,1,.4,1,1.35,1.35,0,0,1-.4,1A1.38,1.38,0,0,1,81.63,49Z"/><path class="cls-2" d="M100.72,49H87.08a1.36,1.36,0,0,1-1-.39,1.35,1.35,0,0,1-.4-1,1.37,1.37,0,0,1,1.36-1.36h13.64a1.37,1.37,0,0,1,1.36,1.36,1.35,1.35,0,0,1-.4,1A1.36,1.36,0,0,1,100.72,49Z"/><path class="cls-2" d="M108.9,49h-2.72a1.35,1.35,0,0,1-1.37-1.35,1.37,1.37,0,0,1,.4-1,1.35,1.35,0,0,1,1-.4h2.72a1.35,1.35,0,0,1,1,.4,1.37,1.37,0,0,1,.4,1A1.35,1.35,0,0,1,108.9,49Z"/><path class="cls-2" d="M73.44,55.81H68a1.37,1.37,0,0,1-1.37-1.36,1.39,1.39,0,0,1,.4-1,1.41,1.41,0,0,1,1-.4h5.45a1.41,1.41,0,0,1,1,.4,1.39,1.39,0,0,1,.4,1,1.37,1.37,0,0,1-1.37,1.36Z"/><path class="cls-2" d="M88.45,55.81H78.9a1.37,1.37,0,0,1-1.37-1.36,1.39,1.39,0,0,1,.4-1,1.41,1.41,0,0,1,1-.4h9.55a1.39,1.39,0,0,1,1,.4,1.35,1.35,0,0,1,.4,1,1.33,1.33,0,0,1-.4,1A1.35,1.35,0,0,1,88.45,55.81Z"/><path class="cls-2" d="M125.11,26.22V69.8c0,.72-.89,1.36-1.37,1.93L92.52,102.61a2.87,2.87,0,0,1-.88.62,2.55,2.55,0,0,1-1,.23H63.15a9,9,0,0,1-3.5-.69,8.87,8.87,0,0,1-4.86-5,8.86,8.86,0,0,1-.58-3.5v-68c0-5.08,3.63-9.62,8.94-9.62h52a10,10,0,0,1,10,9.62ZM89.41,98l30.24-29.34V26.22A4.71,4.71,0,0,0,115.14,22h-52c-2.32,0-3.48,2.07-3.48,4.19V94.27a3.32,3.32,0,0,0,.17,1.43,3.4,3.4,0,0,0,1.9,2,3.38,3.38,0,0,0,1.41.28Z"/><path class="cls-2" d="M123.2,69a1.33,1.33,0,0,1,.11.76,1.25,1.25,0,0,1-.33.68l-31.9,31.52a.92.92,0,0,1-.54.36.87.87,0,0,1-.65-.08c-.52-.2-.24-.7-.24-1.24V76.53c0-4.32,3.09-8.33,7.63-8.33h24.55a1.36,1.36,0,0,1,.81.17A1.41,1.41,0,0,1,123.2,69Zm-4.65,1.92H97.28c-3.08,0-4.91,2.71-4.91,5.62V97.72Z"/><path class="cls-3" d="M69,92.18H80a2,2,0,0,0,2-2V72.45a2,2,0,0,0-2-2H69a2,2,0,0,0-2,2V90.2A2,2,0,0,0,69,92.18Z"/><path class="cls-4" d="M9.33,113.33H47.19a3.85,3.85,0,0,0,3.86-3.84v-1.77a3.85,3.85,0,0,0-3.86-3.84H9.33a3.85,3.85,0,0,0-3.86,3.84v1.77A3.85,3.85,0,0,0,9.33,113.33Z"/><path class="cls-4" d="M66.55,61.45l1.22-1.21a3.55,3.55,0,0,0,0-5l-16.1-16a3.58,3.58,0,0,0-5.05,0L45.4,40.4a3.55,3.55,0,0,0,0,5l16.1,16A3.58,3.58,0,0,0,66.55,61.45Z"/><path class="cls-4" d="M36.92,90.94l1.2-1.2a3.54,3.54,0,0,0,0-5L22,68.7a3.59,3.59,0,0,0-5.06,0l-1.2,1.2a3.53,3.53,0,0,0,0,5l16.09,16A3.59,3.59,0,0,0,36.92,90.94Z"/><path class="cls-4" d="M90.38,111.62l-1.84,1.82a2.72,2.72,0,0,1-3.85,0L47.83,76.76l5.69-5.66,36.86,36.68a2.7,2.7,0,0,1,0,3.84Z"/><path class="cls-4" d="M45.29,45.33,21.92,68.59,38.25,84.83,61.61,61.58Z"/></svg>