<?xml version="1.0" encoding="UTF-8"?><svg xmlns="http://www.w3.org/2000/svg" viewBox="0 0 43.04 43.06"><defs><style>.c{fill:#fff;}</style></defs><g id="a"><g><path class="c" d="M8.05,15.18H24.06c1.11,0,2.01-.9,2.01-2.01V7.17c0-1.11-.9-2.01-2.01-2.01H8.05c-1.11,0-2.01,.9-2.01,2.01v6c0,1.11,.9,2.01,2.01,2.01Zm-.51-8.01c0-.28,.23-.51,.51-.51H24.06c.28,0,.51,.23,.51,.51v6c0,.28-.23,.51-.51,.51H8.05c-.28,0-.51-.23-.51-.51V7.17Z"/><path class="c" d="M35.04,5.16h-5.44c-1.08,0-1.96,.88-1.96,1.96v6.09c0,1.08,.88,1.96,1.96,1.96h5.44c1.08,0,1.96-.88,1.96-1.96V7.12c0-1.08-.88-1.96-1.96-1.96Zm.46,8.06c0,.26-.21,.46-.46,.46h-5.44c-.26,0-.46-.21-.46-.46V7.12c0-.26,.21-.46,.46-.46h5.44c.26,0,.46,.21,.46,.46v6.09Z"/><path class="c" d="M34.99,28.02H8.05c-1.11,0-2.01,.9-2.01,2.01v3.91c0,1.11,.9,2.01,2.01,2.01h26.94c1.11,0,2.01-.9,2.01-2.01v-3.91c0-1.11-.9-2.01-2.01-2.01Zm.51,5.92c0,.28-.23,.51-.51,.51H8.05c-.28,0-.51-.23-.51-.51v-3.91c0-.28,.23-.51,.51-.51h26.94c.28,0,.51,.23,.51,.51v3.91Z"/><path class="c" d="M8.05,26.42h11.16c1.11,0,2.01-.9,2.01-2.01v-5.81c0-1.11-.9-2.01-2.01-2.01H8.05c-1.11,0-2.01,.9-2.01,2.01v5.81c0,1.11,.9,2.01,2.01,2.01Zm-.51-7.82c0-.28,.23-.51,.51-.51h11.16c.28,0,.51,.23,.51,.51v5.81c0,.28-.23,.51-.51,.51H8.05c-.28,0-.51-.23-.51-.51v-5.81Z"/><path class="c" d="M34.99,16.6h-10.49c-1.11,0-2.01,.9-2.01,2.01v5.81c0,1.11,.9,2.01,2.01,2.01h10.49c1.11,0,2.01-.9,2.01-2.01v-5.81c0-1.11-.9-2.01-2.01-2.01Zm.51,7.82c0,.28-.23,.51-.51,.51h-10.49c-.28,0-.51-.23-.51-.51v-5.81c0-.28,.23-.51,.51-.51h10.49c.28,0,.51,.23,.51,.51v5.81Z"/></g></g><g id="b"/></svg>