<?xml version="1.0" encoding="UTF-8"?><svg id="a" xmlns="http://www.w3.org/2000/svg" viewBox="0 0 43.04 43.06"><defs><style>.b{fill:#231e20;}</style></defs><path class="b" d="M30.69,12.11c.1-.1,.16-.24,.16-.38s-.06-.28-.16-.38c-.1-.1-.24-.16-.38-.16h-4.95c-.14,0-.28,.06-.38,.16-.1,.1-.16,.24-.16,.38s.06,.28,.16,.38c.1,.1,.24,.16,.38,.16h4.95c.14,0,.28-.06,.38-.16Z"/><path class="b" d="M32.29,12.26h1.98c.14,0,.28-.06,.38-.16,.1-.1,.16-.23,.16-.38s-.06-.28-.16-.38c-.1-.1-.24-.16-.38-.16h-1.98c-.14,0-.28,.06-.38,.16-.1,.1-.16,.24-.16,.38s.06,.28,.16,.38c.1,.1,.24,.16,.38,.16Z"/><path class="b" d="M34.27,13.67h-4.95c-.14,0-.28,.06-.38,.16-.1,.1-.16,.24-.16,.38s.06,.28,.16,.38c.1,.1,.24,.16,.38,.16h4.95c.14,0,.28-.06,.38-.16,.1-.1,.16-.23,.16-.38s-.06-.28-.16-.38c-.1-.1-.24-.16-.38-.16Z"/><path class="b" d="M31.68,17.55c.1-.1,.16-.23,.16-.38s-.06-.28-.16-.38c-.1-.1-.24-.16-.38-.16h-4.95c-.14,0-.28,.06-.38,.16-.1,.1-.16,.24-.16,.38s.06,.28,.16,.38c.1,.1,.24,.16,.38,.16h4.95c.14,0,.28-.06,.38-.16Z"/><path class="b" d="M34.27,16.64h-.99c-.14,0-.28,.06-.38,.16-.1,.1-.16,.24-.16,.38s.06,.28,.16,.38c.1,.1,.24,.16,.38,.16h.99c.14,0,.28-.06,.38-.16,.1-.1,.16-.23,.16-.38s-.06-.28-.16-.38c-.1-.1-.24-.16-.38-.16Z"/><path class="b" d="M19.79,33.8h3.97c.62,0,1.12-.5,1.12-1.12v-6.47c0-.62-.5-1.12-1.12-1.12h-3.97c-.62,0-1.12,.5-1.12,1.12v6.47c0,.62,.5,1.12,1.12,1.12Zm-.33-7.59c0-.18,.15-.33,.33-.33h3.97c.18,0,.33,.15,.33,.33v6.47c0,.18-.15,.33-.33,.33h-3.97c-.18,0-.33-.15-.33-.33v-6.47Z"/><path class="b" d="M39.08,6.84c-.68-.66-1.59-1.03-2.54-1.04H17.66c-1.65,0-2.97,1.25-3.23,2.94-.68,.09-1.35,.25-1.99,.52-1.46,.6-2.7,1.62-3.58,2.93-.88,1.31-1.34,2.84-1.34,4.42s.42,2.95,1.21,4.2c-.1,.07-.2,.14-.28,.23l-5.21,5.21c-.36,.36-.57,.86-.58,1.37h-.01v.03c0,.39,.11,.77,.33,1.1,.22,.33,.52,.58,.89,.73,.24,.1,.5,.15,.76,.15,.13,0,.26-.01,.38-.04,.39-.08,.73-.26,1.01-.54l5.2-5.21c.11-.1,.19-.23,.26-.36,.89,.52,1.87,.86,2.89,1v9.68c-.02,.44,.06,.88,.21,1.29,.16,.42,.4,.79,.7,1.11,.31,.32,.67,.57,1.08,.74,.4,.17,.83,.25,1.26,.25h9.97c.14,0,.27-.03,.4-.09,.13-.06,.24-.14,.33-.24l11.33-11.26s.09-.1,.15-.16c.17-.17,.36-.36,.36-.57V9.35c-.03-.95-.43-1.84-1.11-2.51ZM10.4,22.82v.02s-.05,.07-.08,.1l-5.2,5.2c-.06,.06-.14,.11-.22,.15-.08,.03-.17,.05-.26,.05h0c-.09,0-.17-.02-.26-.05-.08-.04-.16-.09-.22-.15-.13-.13-.2-.3-.2-.48s.07-.35,.2-.48l5.2-5.2s.05-.05,.08-.07h.06s.03,.02,.11,.07c.05,.06,.1,.11,.15,.17-.21-.18-.28-.2-.28-.2h-.02s-.05,.03-.07,.05l-5.2,5.2c-.12,.12-.18,.29-.18,.46s.07,.33,.18,.46c.06,.06,.13,.11,.21,.14,.08,.03,.16,.05,.25,.05,.08,0,.17-.02,.25-.05,.08-.03,.15-.08,.21-.14l5.2-5.2s.05-.05,.06-.08c0,0,0-.08-.17-.27,.05,.05,.1,.1,.16,.14,.05,.08,.05,.12,.05,.13Zm-.45-.47c.31,.29,.36,.43,.37,.46-.01,.02-.03,.04-.05,.06l-5.2,5.2c-.06,.06-.12,.1-.2,.13-.07,.03-.15,.04-.23,.04h0c-.08,0-.15-.01-.22-.04-.08-.03-.14-.08-.2-.13-.11-.12-.17-.27-.17-.43s.06-.31,.17-.43l5.2-5.2s.03-.03,.05-.05h0s.12,.04,.48,.38Zm6.54,12.32c-.05-.16-.08-.33-.06-.51v-9.67c1.23-.15,2.41-.57,3.46-1.26,1.32-.87,2.33-2.11,2.94-3.57,.01-.03,.02-.06,.03-.1,0,.02-.01,.04-.01,.07,0,.14,.06,.28,.16,.38,.1,.1,.24,.16,.38,.16h3.46c.14,0,.28-.06,.38-.16,.1-.1,.16-.24,.16-.38s-.06-.28-.16-.38c-.1-.1-.24-.16-.38-.16h-3.46c-.14,0-.28,.06-.38,.16-.03,.03-.06,.08-.08,.12,.2-.55,.35-1.11,.42-1.68h1.02c.14,0,.28-.06,.38-.16,.1-.1,.16-.24,.16-.38s-.06-.28-.16-.38c-.1-.1-.24-.16-.38-.16h-.95c0-.52-.03-1.04-.13-1.56-.03-.13-.06-.25-.09-.38,.06,.02,.12,.04,.18,.04h3.96c.14,0,.28-.06,.38-.16,.1-.1,.16-.24,.16-.38s-.06-.28-.16-.38c-.1-.1-.24-.16-.38-.16h-3.96c-.14,0-.28,.06-.38,.16-.02,.02-.04,.05-.05,.08-.22-.58-.49-1.13-.83-1.64h1.26c.14,0,.28-.06,.38-.16,.1-.1,.16-.23,.16-.38s-.06-.28-.16-.38c-.1-.1-.24-.16-.38-.16h-2.09c-.06-.06-.11-.14-.17-.2-1.12-1.12-2.53-1.87-4.08-2.18-.17-.03-.34-.04-.52-.06,.16-.49,.53-.88,1.13-.88h18.88c.4,.02,.78,.18,1.07,.45,.29,.27,.48,.64,.52,1.04v15.27h-8.07c-1.76,0-2.82,1.57-2.82,3.08v7.75l-.06,.05h-9.54c-.17,0-.33-.03-.48-.1-.15-.07-.3-.17-.41-.29-.12-.13-.2-.27-.26-.43Zm-7.1-15.55c-.5-1.21-.63-2.52-.37-3.8,.26-1.28,.88-2.44,1.8-3.37,.92-.92,2.09-1.54,3.37-1.8,.06-.01,.13-.02,.2-.03h.08c.34-.06,.67-.1,1.01-.1,.3,0,.59,.03,.89,.07h.08c.53,.09,1.05,.23,1.55,.43,.44,.18,.85,.43,1.24,.7l.04,.03,.04,.03c.36,.26,.71,.55,1.02,.89,.01,.01,.02,.03,.03,.04,.01,.01,.02,.03,.03,.04,.19,.22,.38,.45,.54,.7,.15,.23,.28,.47,.4,.71,0,.01,.02,.03,.02,.04,0,.01,.02,.03,.02,.04,.13,.26,.23,.53,.32,.8,0,.01,.01,.02,.01,.04,0,.01,.01,.02,.01,.04,.2,.64,.31,1.31,.31,1.99v.02s0,.03,0,.04v.04c0,.31-.04,.61-.08,.91v.08c-.09,.49-.23,.97-.42,1.43,0,.01-.01,.02-.02,.04,0,.01-.01,.02-.02,.04-.13,.31-.29,.61-.47,.89,0,.01-.02,.03-.02,.04,0,.01-.02,.03-.02,.04-.25,.38-.54,.74-.87,1.07-1.01,1.01-2.29,1.64-3.67,1.85h-.08c-.29,.05-.59,.08-.89,.08-.34,0-.67-.03-1.01-.08-.01,0-.03,0-.04,0-.01,0-.03,0-.04,0-.91-.15-1.79-.49-2.57-1.01-1.09-.73-1.92-1.75-2.42-2.95Zm18.92,15.28v-6.71c0-.97,.61-2.01,1.75-2.01h7.19l-8.94,8.72Z"/><path class="b" d="M13.37,18.61c.31-.2,.65-.34,1-.44h.04s.03-.02,.04-.02c.62-.16,1.27-.17,1.9-.03h.04l.04,.02c.41,.1,.81,.25,1.17,.48,.64,.4,1.15,.97,1.49,1.65l.32-.16,.07-.04,.32-.16c-.4-.81-1.02-1.49-1.78-1.97-.29-.18-.6-.32-.92-.43,.76-.52,1.26-1.39,1.26-2.38,0-1.25-.81-2.31-1.93-2.7-.01,0-.03,0-.04-.01h-.04c-.28-.1-.56-.16-.87-.16-.36,0-.71,.07-1.03,.2-.01,0-.03,0-.04,.01-.01,0-.03,0-.04,.01-1.03,.43-1.76,1.46-1.76,2.65,0,.99,.5,1.86,1.26,2.38-.32,.11-.63,.25-.92,.43-.76,.48-1.38,1.16-1.78,1.97l.32,.16h0l.04,.02,.04,.02,.32,.16c.34-.68,.86-1.25,1.49-1.65Zm.03-3.48c0-.74,.39-1.38,.97-1.75,.01,0,.03-.01,.04-.02,.01,0,.03-.01,.04-.02,.3-.18,.65-.28,1.03-.28,.31,0,.6,.07,.87,.19,.01,0,.03,.01,.04,.02,.01,0,.03,.01,.04,.02,.67,.35,1.13,1.04,1.13,1.84s-.46,1.5-1.13,1.84c-.01,0-.03,.01-.04,.02-.01,0-.03,.02-.04,.02-.26,.12-.56,.19-.87,.19-.38,0-.73-.11-1.03-.28-.01,0-.03-.01-.04-.02-.01,0-.03-.01-.04-.02-.58-.37-.97-1.01-.97-1.75Z"/></svg>