<svg width="52" height="31" viewBox="0 0 52 31" fill="none" xmlns="http://www.w3.org/2000/svg">
<path d="M26.221 19.3823L11.29 14.1611V23.4411C11.29 24.8811 11.8444 26.2622 12.8313 27.2805C13.8182 28.2988 14.3868 28.8708 16.1653 29.2579C16.1653 29.2579 19.972 30.2534 25.9997 30.2534C32.0275 30.2534 36.2212 29.2579 36.2212 29.2579C37.6126 28.8708 38.9554 28.2988 39.9423 27.2805C40.9291 26.2622 41.4836 24.8811 41.4836 23.4411V14.2244L26.221 19.3823Z" stroke="currentColor" stroke-width="1.2" stroke-miterlimit="10"/>
<path d="M39.5509 12.1951L50 8.87603L25.9532 1L2 8.68348L12.6854 12.1493L26.0468 16.4839L39.5509 12.1951Z" stroke="currentColor" stroke-width="1.2" stroke-miterlimit="10"/>
<line x1="46.7289" y1="11.0645" x2="46.7289" y2="20.3548" stroke="currentColor" stroke-width="1.2"/>
<rect x="48.2777" y="21.0104" width="3.52258" height="3.52258" transform="rotate(90 48.2777 21.0104)" stroke="currentColor" stroke-width="1.2"/>
</svg>
