<?xml version="1.0" encoding="UTF-8"?><svg id="a" xmlns="http://www.w3.org/2000/svg" viewBox="0 0 43.04 43.06"><defs><style>.b{fill:#231e20;}</style></defs><path class="b" d="M21.51,33.39c-4.67,0-7.61-.75-7.73-.79-1.53-.33-2.08-.9-2.84-1.68-.87-.9-1.35-2.09-1.35-3.36v-7.16c0-.19,.09-.36,.24-.47,.15-.11,.35-.14,.53-.07l11.33,3.96,11.58-3.91c.18-.06,.37-.03,.52,.08,.15,.11,.24,.28,.24,.47v7.11c0,1.27-.48,2.46-1.35,3.36-.73,.76-1.73,1.29-3.13,1.68-.16,.04-3.37,.79-8.04,.79Zm-10.77-12.17v6.34c0,.95,.37,1.89,1.03,2.56,.73,.75,1.06,1.1,2.28,1.36,.05,.01,2.95,.75,7.46,.75s7.72-.74,7.75-.75c1.18-.33,2-.76,2.59-1.37,.65-.67,1.03-1.6,1.03-2.56v-6.3l-11.01,3.72c-.12,.04-.25,.04-.38,0l-10.74-3.76Z"/><path class="b" d="M21.55,22.77c-.06,0-.12,0-.18-.03L2.82,16.73c-.24-.08-.4-.3-.4-.55s.16-.47,.4-.55l18.47-5.93c.12-.04,.24-.04,.36,0l18.55,6.07c.24,.08,.4,.3,.4,.55,0,.25-.16,.47-.4,.55l-8.06,2.56h0l-10.42,3.31c-.06,.02-.12,.03-.18,.03ZM4.89,16.18l16.66,5.41,16.59-5.27-16.66-5.46L4.89,16.18Zm27.08,2.71h0Z"/><path class="b" d="M37.5,25.76c-.32,0-.58-.26-.58-.58v-7.17c0-.32,.26-.58,.58-.58s.58,.26,.58,.58v7.17c0,.32-.26,.58-.58,.58Z"/><path class="b" d="M38.69,28.98h-2.72c-.32,0-.58-.26-.58-.58v-2.72c0-.32,.26-.58,.58-.58h2.72c.32,0,.58,.26,.58,.58v2.72c0,.32-.26,.58-.58,.58Zm-2.14-1.16h1.56v-1.56h-1.56v1.56Z"/></svg>