<svg width="48" height="40" viewBox="0 0 48 40" fill="none" xmlns="http://www.w3.org/2000/svg">
<g opacity="1">
<path d="M26.3213 8.05663H21.3213C21.1555 8.05663 20.9965 7.99078 20.8793 7.87357C20.7621 7.75636 20.6963 7.5974 20.6963 7.43164C20.6963 7.26588 20.7621 7.10692 20.8793 6.98971C20.9965 6.8725 21.1555 6.80664 21.3213 6.80664H26.3213C26.487 6.80664 26.646 6.8725 26.7632 6.98971C26.8804 7.10692 26.9463 7.26588 26.9463 7.43164C26.9463 7.5974 26.8804 7.75636 26.7632 7.87357C26.646 7.99078 26.487 8.05663 26.3213 8.05663Z" fill="currentColor"/>
<path d="M35.0712 8.05663H28.8213C28.6555 8.05663 28.4965 7.99078 28.3793 7.87357C28.2621 7.75636 28.1963 7.5974 28.1963 7.43164C28.1963 7.26588 28.2621 7.10692 28.3793 6.98971C28.4965 6.8725 28.6555 6.80664 28.8213 6.80664H35.0712C35.237 6.80664 35.396 6.8725 35.5132 6.98971C35.6304 7.10692 35.6962 7.26588 35.6962 7.43164C35.6962 7.5974 35.6304 7.75636 35.5132 7.87357C35.396 7.99078 35.237 8.05663 35.0712 8.05663Z" fill="currentColor"/>
<path d="M40.0713 8.05663H37.5713C37.4055 8.05663 37.2465 7.99078 37.1293 7.87357C37.0121 7.75636 36.9463 7.5974 36.9463 7.43164C36.9463 7.26588 37.0121 7.10692 37.1293 6.98971C37.2465 6.8725 37.4055 6.80664 37.5713 6.80664H40.0713C40.237 6.80664 40.396 6.8725 40.5132 6.98971C40.6304 7.10692 40.6963 7.26588 40.6963 7.43164C40.6963 7.5974 40.6304 7.75636 40.5132 7.87357C40.396 7.99078 40.237 8.05663 40.0713 8.05663Z" fill="currentColor"/>
<path d="M23.8213 11.1807H21.3213C21.1555 11.1807 20.9965 11.1148 20.8793 10.9976C20.7621 10.8804 20.6963 10.7214 20.6963 10.5557C20.6963 10.3899 20.7621 10.2309 20.8793 10.1137C20.9965 9.99652 21.1555 9.93066 21.3213 9.93066H23.8213C23.987 9.93066 24.146 9.99652 24.2632 10.1137C24.3804 10.2309 24.4463 10.3899 24.4463 10.5557C24.4463 10.7214 24.3804 10.8804 24.2632 10.9976C24.146 11.1148 23.987 11.1807 23.8213 11.1807Z" fill="currentColor"/>
<path d="M31.3213 11.1807H26.3213C26.1555 11.1807 25.9965 11.1148 25.8793 10.9976C25.7621 10.8804 25.6963 10.7214 25.6963 10.5557C25.6963 10.3899 25.7621 10.2309 25.8793 10.1137C25.9965 9.99652 26.1555 9.93066 26.3213 9.93066H31.3213C31.487 9.93066 31.646 9.99652 31.7632 10.1137C31.8804 10.2309 31.9463 10.3899 31.9463 10.5557C31.9463 10.7214 31.8804 10.8804 31.7632 10.9976C31.646 11.1148 31.487 11.1807 31.3213 11.1807Z" fill="currentColor"/>
<path d="M40.0712 11.1807H33.8213C33.6555 11.1807 33.4965 11.1148 33.3793 10.9976C33.2621 10.8804 33.1963 10.7214 33.1963 10.5557C33.1963 10.3899 33.2621 10.2309 33.3793 10.1137C33.4965 9.99652 33.6555 9.93066 33.8213 9.93066H40.0712C40.237 9.93066 40.396 9.99652 40.5132 10.1137C40.6304 10.2309 40.6962 10.3899 40.6962 10.5557C40.6962 10.7214 40.6304 10.8804 40.5132 10.9976C40.396 11.1148 40.237 11.1807 40.0712 11.1807Z" fill="currentColor"/>
<path d="M27.5712 14.9307H21.3213C21.1555 14.9307 20.9965 14.8648 20.8793 14.7476C20.7621 14.6304 20.6963 14.4714 20.6963 14.3057C20.6963 14.1399 20.7621 13.9809 20.8793 13.8637C20.9965 13.7465 21.1555 13.6807 21.3213 13.6807H27.5712C27.737 13.6807 27.896 13.7465 28.0132 13.8637C28.1304 13.9809 28.1962 14.1399 28.1962 14.3057C28.1962 14.4714 28.1304 14.6304 28.0132 14.7476C27.896 14.8648 27.737 14.9307 27.5712 14.9307Z" fill="currentColor"/>
<path d="M36.3212 14.9307H30.0713C29.9055 14.9307 29.7465 14.8648 29.6293 14.7476C29.5121 14.6304 29.4463 14.4714 29.4463 14.3057C29.4463 14.1399 29.5121 13.9809 29.6293 13.8637C29.7465 13.7465 29.9055 13.6807 30.0713 13.6807H36.3212C36.487 13.6807 36.646 13.7465 36.7632 13.8637C36.8804 13.9809 36.9462 14.1399 36.9462 14.3057C36.9462 14.4714 36.8804 14.6304 36.7632 14.7476C36.646 14.8648 36.487 14.9307 36.3212 14.9307Z" fill="currentColor"/>
<path d="M40.0713 14.9307H38.8213C38.6555 14.9307 38.4965 14.8648 38.3793 14.7476C38.2621 14.6304 38.1963 14.4714 38.1963 14.3057C38.1963 14.1399 38.2621 13.9809 38.3793 13.8637C38.4965 13.7465 38.6555 13.6807 38.8213 13.6807H40.0713C40.237 13.6807 40.396 13.7465 40.5132 13.8637C40.6305 13.9809 40.6963 14.1399 40.6963 14.3057C40.6963 14.4714 40.6305 14.6304 40.5132 14.7476C40.396 14.8648 40.237 14.9307 40.0713 14.9307Z" fill="currentColor"/>
<path d="M23.8213 18.0557H21.3213C21.1555 18.0557 20.9965 17.9898 20.8793 17.8726C20.7621 17.7554 20.6963 17.5964 20.6963 17.4307C20.6963 17.2649 20.7621 17.1059 20.8793 16.9887C20.9965 16.8715 21.1555 16.8057 21.3213 16.8057H23.8213C23.987 16.8057 24.146 16.8715 24.2632 16.9887C24.3804 17.1059 24.4463 17.2649 24.4463 17.4307C24.4463 17.5964 24.3804 17.7554 24.2632 17.8726C24.146 17.9898 23.987 18.0557 23.8213 18.0557Z" fill="currentColor"/>
<path d="M30.6963 18.0557H26.3213C26.1555 18.0557 25.9965 17.9898 25.8793 17.8726C25.7621 17.7554 25.6963 17.5964 25.6963 17.4307C25.6963 17.2649 25.7621 17.1059 25.8793 16.9887C25.9965 16.8715 26.1555 16.8057 26.3213 16.8057H30.6963C30.862 16.8057 31.021 16.8715 31.1382 16.9887C31.2554 17.1059 31.3213 17.2649 31.3213 17.4307C31.3213 17.5964 31.2554 17.7554 31.1382 17.8726C31.021 17.9898 30.862 18.0557 30.6963 18.0557Z" fill="currentColor"/>
<path d="M47.49 4.43124V24.4999C47.49 24.8311 47.09 25.1248 46.865 25.3873L32.5588 39.606C32.4439 39.7283 32.3055 39.8261 32.152 39.8938C31.9984 39.9614 31.8329 39.9975 31.6651 39.9998H19.0963C18.5457 40.0035 18.0001 39.8957 17.4923 39.6827C16.9845 39.4697 16.5251 39.156 16.1419 38.7606C15.7587 38.3651 15.4596 37.8961 15.2627 37.3819C15.0659 36.8676 14.9753 36.3188 14.9964 35.7685V4.43124C14.9964 2.09375 16.6651 0 19.0963 0H42.9337C44.1188 0.00583244 45.2556 0.470733 46.1052 1.29703C46.9548 2.12332 47.4512 3.24672 47.49 4.43124ZM31.14 37.4998L44.99 23.9874V4.43124C44.9337 3.91598 44.6947 3.4379 44.3164 3.08363C43.938 2.72936 43.4453 2.52231 42.9275 2.49998H19.0902C18.0277 2.49998 17.4901 3.45625 17.4901 4.43124V35.7685C17.47 35.9898 17.4965 36.2129 17.568 36.4233C17.6395 36.6337 17.7544 36.8267 17.9053 36.9899C18.0561 37.153 18.2395 37.2828 18.4436 37.3706C18.6477 37.4584 18.868 37.5024 19.0902 37.4998H31.14Z" fill="currentColor"/>
<path d="M46.6211 24.1192C46.6731 24.2273 46.6908 24.3487 46.6718 24.4671C46.6528 24.5856 46.598 24.6954 46.5148 24.7817L31.8962 39.2941C31.8368 39.3781 31.7489 39.4377 31.6489 39.4618C31.549 39.4859 31.4436 39.473 31.3525 39.4254C31.1212 39.3316 31.2399 39.1004 31.2399 38.8504V27.6004C31.2399 25.6067 32.6649 23.763 34.7462 23.763H45.9961C46.1236 23.7551 46.2507 23.7845 46.3618 23.8478C46.4728 23.9111 46.5629 24.0054 46.6211 24.1192ZM44.4836 25.0005H34.7462C33.3337 25.0005 32.4899 26.2505 32.4899 27.588V37.3566L44.4836 25.0005Z" fill="none"/>
<path d="M21.7838 34.8057H26.7963C27.3002 34.8057 27.7087 34.3972 27.7087 33.8932V25.7182C27.7087 25.2143 27.3002 24.8057 26.7963 24.8057H21.7838C21.2798 24.8057 20.8713 25.2143 20.8713 25.7182V33.8932C20.8713 34.3972 21.2798 34.8057 21.7838 34.8057Z" stroke="currentColor" stroke-miterlimit="10"/>
<path d="M6.34644 13.5995C6.34645 11.6204 6.9337 9.68578 8.03389 8.04063C9.13409 6.39547 10.6977 5.11377 12.5268 4.35783C14.3559 3.60188 16.3681 3.40567 18.3088 3.79405C20.2494 4.18244 22.0311 5.13798 23.4284 6.53963C24.8257 7.94127 25.7756 9.72599 26.1579 11.6678C26.5403 13.6097 26.3377 15.6213 25.5761 17.448C24.8144 19.2747 23.5278 20.8343 21.8793 21.9294C20.2307 23.0244 18.2942 23.6056 16.3151 23.5995C13.6684 23.5912 11.1329 22.534 9.26428 20.6595C7.39568 18.7851 6.34642 16.2463 6.34644 13.5995ZM24.665 13.5995C24.6663 11.9478 24.1776 10.3328 23.2609 8.95882C22.3441 7.58485 21.0405 6.51367 19.5148 5.88072C17.9892 5.24777 16.3101 5.08153 14.69 5.40301C13.0698 5.72449 11.5814 6.51923 10.413 7.68674C9.24464 8.85425 8.44875 10.3421 8.12606 11.962C7.80337 13.5819 7.96834 15.2611 8.60014 16.7872C9.23195 18.3133 10.3022 19.6178 11.6755 20.5356C13.0487 21.4533 14.6634 21.9432 16.3151 21.9432C18.528 21.9416 20.65 21.0622 22.2154 19.498C23.7808 17.9337 24.6617 15.8125 24.665 13.5995Z" fill="currentColor"/>
<path d="M0.208954 27.5373C0.208882 26.8907 0.465096 26.2704 0.921458 25.8123L7.49643 19.2374C7.71548 18.9963 7.99963 18.8237 8.3146 18.7405C8.62957 18.6573 8.96186 18.6671 9.2714 18.7686C9.75132 18.9605 10.1795 19.2623 10.5214 19.6499C10.7943 19.8706 11.0204 20.1434 11.1867 20.4524C11.3531 20.7615 11.4562 21.1006 11.4902 21.4499C11.4857 21.6854 11.4336 21.9176 11.3369 22.1325C11.2402 22.3473 11.101 22.5403 10.9277 22.6999L4.35894 29.2748C4.01682 29.6158 3.58133 29.8477 3.1075 29.9412C2.63366 30.0348 2.14273 29.9859 1.69668 29.8007C1.25062 29.6154 0.869458 29.3022 0.601331 28.9005C0.333204 28.4987 0.190132 28.0266 0.190186 27.5436L0.208954 27.5373ZM8.74017 20.3124C8.70657 20.3366 8.67519 20.3638 8.6464 20.3936L2.07769 26.9623C1.92802 27.1163 1.8443 27.3226 1.8443 27.5373C1.8443 27.7521 1.92802 27.9583 2.07769 28.1123C2.15238 28.1889 2.24189 28.2494 2.34075 28.2903C2.4396 28.3311 2.54576 28.3513 2.65271 28.3498C2.75951 28.3503 2.86536 28.3295 2.96406 28.2888C3.06277 28.248 3.1524 28.188 3.22773 28.1123L9.79637 21.5436C9.83003 21.5137 9.85762 21.4777 9.87763 21.4374C9.87763 21.4374 9.87768 21.2624 9.39019 20.8124C8.90269 20.3624 8.76519 20.3249 8.76519 20.3249L8.74017 20.3124Z" fill="currentColor"/>
</g>
<circle class="case-study-svg" cx="16.4401" cy="13.7499" r="8.74995" fill="#005B70"/>
<path d="M16.4402 15C18.166 15 19.5651 13.6009 19.5651 11.875C19.5651 10.1491 18.166 8.75 16.4402 8.75C14.7143 8.75 13.3152 10.1491 13.3152 11.875C13.3152 13.6009 14.7143 15 16.4402 15Z" fill="none" stroke="currentColor" stroke-width="1.1" stroke-miterlimit="10" stroke-linecap="round"/>
<path d="M11.4402 18.125C11.9095 17.1847 12.625 16.395 13.5075 15.8435C14.3899 15.2919 15.4049 15 16.4401 15C17.4754 15 18.4904 15.2919 19.3728 15.8435C20.2553 16.395 20.9708 17.1846 21.4401 18.125" fill="none"/>
<path d="M11.4402 18.125C11.9095 17.1847 12.625 16.395 13.5075 15.8435C14.3899 15.2919 15.4049 15 16.4401 15C17.4754 15 18.4904 15.2919 19.3728 15.8435C20.2553 16.395 20.9708 17.1846 21.4401 18.125" stroke="currentColor" stroke-width="1.1" stroke-linecap="round" stroke-linejoin="round"/>
</svg>
