<?xml version="1.0" encoding="UTF-8"?><svg id="a" xmlns="http://www.w3.org/2000/svg" viewBox="0 0 43.04 43.06"><defs><style>.b{fill:#231e20;}</style></defs><path class="b" d="M5.51,23.92c0,.42,.17,.82,.47,1.12,.3,.3,.7,.47,1.12,.47h.45v8.2c0,.72,.28,1.4,.79,1.9s1.18,.79,1.9,.79h23.07c.71,0,1.4-.29,1.9-.79,.51-.51,.79-1.19,.79-1.91v-8.2h.41c.42,0,.82-.16,1.12-.47s.47-.7,.47-1.12v-2.43H5.51v2.43Zm27.57,.62v.97h1.95v8.2c0,.46-.18,.89-.51,1.22-.32,.32-.77,.51-1.22,.51H10.24c-.45,0-.9-.18-1.22-.51-.32-.33-.5-.76-.51-1.22v-8.2h2.31v-.97h-3.73c-.16,0-.32-.07-.44-.18-.12-.12-.18-.27-.18-.44v-1.46h5.49v2.99c0,.42,.17,.82,.47,1.12,.3,.3,.7,.47,1.12,.47h1.43c.42,0,.83-.17,1.12-.47,.28-.28,.44-.66,.46-1.06h10.68c.02,.4,.17,.77,.46,1.06,.3,.3,.71,.47,1.12,.47h1.43c.42,0,.82-.17,1.12-.47,.3-.3,.47-.7,.47-1.12v-2.99h5.2v1.46c0,.17-.06,.32-.18,.44-.12,.12-.27,.18-.44,.18h-3.34Zm-4.87-2.07h2.66v2.98c0,.16-.07,.32-.18,.44-.12,.12-.27,.18-.44,.18h-1.43c-.16,0-.32-.07-.44-.18-.12-.12-.18-.27-.18-.44v-2.98Zm-15.27,0h2.66v2.98c0,.17-.06,.32-.18,.44s-.27,.18-.44,.18h-1.43c-.16,0-.32-.06-.44-.18-.12-.12-.18-.27-.18-.44v-2.98Zm14.3,2.08h-10.66v-2.09h10.66v2.09Z"/><path class="b" d="M15.72,9.89l2.01,3.11,2.9,8.31,.02,.07h1.15l-3.16-8.73s-.03-.08-.05-.12l-1.99-3.08-.37-3.02,1.68-.54,1.53,2.65,.16,3.66s0,.08,.02,.13l3.27,8.97,.02,.06h1.16l-3.5-9.28-.17-3.71c0-.08-.03-.15-.06-.22l-1.78-3.1c-.06-.1-.14-.17-.25-.21-.1-.04-.22-.04-.33,0l-2.45,.78c-.11,.04-.2,.11-.27,.2-.06,.1-.09,.21-.07,.33l.43,3.53c0,.07,.03,.14,.07,.21Z"/><path class="b" d="M39.18,13.16c-.06-.26-.24-.49-.55-.68-.13-.06-.28-.16-.45-.26-.54-.34-1.26-.8-1.71-.32-.07-.06-.1-.15-.14-.28-.02-.08-.04-.16-.08-.23-.18-.48-.53-.89-.98-1.15-.19-.11-.39-.23-.59-.35-.92-.55-1.96-1.17-3.04-1.23-1.05-.19-2.43,.13-3.69,.86-.14,.11-.35,.24-.57,.37-.71,.44-1.52,.93-1.31,1.49,.21,.39,.74,.23,.94,.17,.95-.29,1.97-.46,2.96,.18,.38,.15,.61,.39,.7,.72,.15,.57-.18,1.25-.52,1.67-.71,1.44-1.45,2.89-2.16,4.3-.48,.94-.95,1.88-1.42,2.82l-.07,.14h1.16l.03-.05c1.14-2.28,2.31-4.6,3.48-6.9l1.13,.65c-.65,1.29-1.29,2.57-1.93,3.85-.38,.77-.77,1.54-1.15,2.31l-.07,.14h1.11l.03-.05c.41-.82,.9-1.79,1.4-2.77,.3-.58,.59-1.17,.87-1.74,.22-.44,.43-.89,.66-1.33l.02-.03c.25,.09,.52,.03,.77-.02,.17-.03,.34-.07,.5-.06-.13,.62,.48,.92,.97,1.16,.2,.1,.4,.2,.54,.31,.31,.21,.61,.28,.89,.21,.58-.15,.93-.87,1.22-1.45l.06-.11c.09-.2,.24-.43,.39-.67,.35-.53,.74-1.13,.62-1.67Zm-.99,.3c-.48,.84-.97,1.69-1.45,2.53,0,.01-.02,.02-.03,.02-.14,.03-.52-.21-.77-.38-.15-.1-.28-.18-.38-.23,.04-.31-.06-.59-.3-.8-.33-.29-.85-.38-1.3-.22-.57,.17-.94-.06-1.4-.35l-.09-.05c-.19-.11-.4-.23-.58-.32-.05-.04-.11-.07-.18-.1-.04-.02-.13-.05-.14-.07v-.03c.25-.62,.19-1.23-.17-1.76-.56-.84-1.71-1.33-2.68-1.44,2.21-1.18,4.02-.52,6.19,.94,.25,.12,.35,.41,.46,.72,.08,.22,.16,.45,.3,.63,.21,.26,.51,.42,.8,.44,.23,.01,.43-.06,.61-.2,.1,.08,.26,.15,.44,.24,.25,.12,.71,.35,.67,.45Z"/><path class="b" d="M6.76,20.21c.07,.03,.15,.05,.23,.05h3.03l.99,1.16,.07-.06h.97l.05,.07,.08-.06h0l.08-.06-1.57-1.92c-.05-.06-.12-.11-.19-.15-.07-.03-.15-.05-.23-.05h-3.03l-1.22-1.43,2.59,.2c.14,0,.29-.04,.4-.13l1.99-1.69c.06-.05,.11-.11,.14-.18,.03-.07,.05-.15,.06-.22l.07-2.73c0-.14-.04-.27-.13-.37l-1.83-2.14c-.05-.06-.11-.11-.19-.14-.07-.03-.15-.05-.23-.05l-2.83-.03,1.46-1.24,2.8,.25,3.19,3.74-.64,4.02c-.01,.08,0,.16,.01,.24,.02,.08,.06,.15,.11,.21l3.3,3.87,.03,.03h.05q1.22,0,1.25-.06l.02-.05-3.66-4.3,.64-4.02c.01-.08,0-.16-.01-.24-.02-.08-.06-.15-.11-.21l-3.49-4.09c-.09-.11-.23-.18-.37-.19l-3.24-.29c-.07,0-.14,0-.21,.03-.07,.02-.13,.06-.19,.11l-2.73,2.32c-.1,.09-.17,.21-.19,.34-.02,.13,.02,.27,.09,.38,.05,.07,.12,.13,.2,.17,.08,.04,.16,.06,.25,.06h0l4.01,.04,1.53,1.8-.06,2.3-1.63,1.39-3.68-.29c-.13-.01-.26,.03-.37,.1-.11,.08-.18,.19-.21,.32-.02,.08-.01,.17,.01,.26s.07,.16,.12,.22l2.21,2.59c.05,.06,.12,.11,.19,.14Z"/></svg>