<svg width="45" height="41" viewBox="0 0 45 41" fill="none" xmlns="http://www.w3.org/2000/svg">
<g opacity="1">
<path d="M37.0388 40.1886H7.71118C6.83683 40.1878 5.99848 39.8402 5.38022 39.2219C4.76196 38.6036 4.41432 37.7653 4.41357 36.891V25.4476H5.39584V36.8868C5.39658 37.5006 5.64073 38.0891 6.07478 38.5231C6.50883 38.9572 7.09734 39.2014 7.71118 39.2021H37.0388C37.6527 39.2014 38.2412 38.9572 38.6752 38.5231C39.1093 38.0891 39.3534 37.5006 39.3542 36.8868V25.4434H40.3364V36.8868C40.3368 37.7618 39.9896 38.6012 39.3712 39.2204C38.7529 39.8396 37.9139 40.1878 37.0388 40.1886Z" fill="currentColor"/>
<path d="M40.9871 26.342H36.8714V25.3597H40.9885C41.2303 25.3593 41.4621 25.2631 41.6331 25.0921C41.804 24.9212 41.9002 24.6894 41.9006 24.4476V22.4676H2.80648V24.4476C2.80686 24.6894 2.903 24.9212 3.07398 25.0921C3.24495 25.2631 3.4768 25.3593 3.71859 25.3597H8.33522V26.342H3.71859C3.2164 26.3412 2.73493 26.1414 2.37983 25.7863C2.02472 25.4312 1.82496 24.9498 1.82422 24.4476V21.4854H42.8829V24.4476C42.8821 24.95 42.6821 25.4316 42.3267 25.7868C41.9713 26.1419 41.4896 26.3416 40.9871 26.342Z" fill="currentColor"/>
<path d="M13.7452 28.2907H11.9322C11.4299 28.2903 10.9483 28.0906 10.5931 27.7354C10.2379 27.3802 10.0382 26.8986 10.0378 26.3963V21.499H15.6396V26.3963C15.6392 26.8986 15.4395 27.3802 15.0843 27.7354C14.7291 28.0906 14.2475 28.2903 13.7452 28.2907ZM11.0201 22.4813V26.3963C11.0205 26.6381 11.1167 26.8699 11.2877 27.0409C11.4586 27.2118 11.6904 27.3081 11.9322 27.3084H13.7452C13.987 27.3081 14.2188 27.2118 14.3897 27.0409C14.5607 26.8699 14.6569 26.6381 14.6573 26.3963V22.4813H11.0201Z" fill="currentColor"/>
<path d="M33.1506 28.2907H31.339C30.8366 28.2903 30.355 28.0906 29.9998 27.7354C29.6447 27.3802 29.445 26.8986 29.4446 26.3963V21.499H35.0449V26.3963C35.0445 26.8986 34.8448 27.3802 34.4897 27.7354C34.1345 28.0906 33.6529 28.2903 33.1506 28.2907ZM30.4268 22.4813V26.3963C30.4272 26.6381 30.5234 26.8699 30.6944 27.0409C30.8654 27.2118 31.0972 27.3081 31.339 27.3084H33.1506C33.3925 27.3084 33.6245 27.2123 33.7955 27.0413C33.9666 26.8702 34.0627 26.6382 34.0627 26.3963V22.4813H30.4268Z" fill="currentColor"/>
<path d="M29.937 25.373H15.1455V26.3553H29.937V25.373Z" fill="currentColor"/>
<path d="M25.1452 21.0986H23.9356L19.7792 9.69451C19.7656 9.65271 19.7576 9.60931 19.7554 9.56542L19.5449 4.88562L17.534 1.39718L15.2018 2.14089L15.6873 6.10644L18.2287 10.0495C18.2524 10.0867 18.2712 10.1268 18.2848 10.1688L22.2405 21.0986H21.0421L17.36 10.5365L14.7921 6.55267C14.7511 6.48923 14.7251 6.41722 14.7163 6.34218L14.1663 1.85183C14.1522 1.73589 14.179 1.61867 14.242 1.52033C14.305 1.42199 14.4002 1.34867 14.5114 1.31298L17.6252 0.320889C17.7342 0.285808 17.852 0.289252 17.9588 0.330636C18.0655 0.37202 18.1549 0.44883 18.2118 0.548213L20.4738 4.49411C20.5132 4.56372 20.5358 4.64157 20.5397 4.72145L20.753 9.45597L25.1452 21.0986Z" fill="currentColor"/>
<path d="M33.0746 21.0986C33.6626 19.9185 34.2548 18.7398 34.861 17.5695C35.5331 16.2785 36.1463 14.9637 36.8045 13.6671C36.8676 13.5338 36.8802 13.5268 36.9448 13.5464C37.4977 13.7611 38.1319 13.3626 38.7058 13.4791C38.3494 14.5778 39.8916 14.8346 40.53 15.351C41.887 16.2827 42.5914 14.6957 43.0966 13.6896C43.5821 12.5978 45.3333 10.9995 43.7477 10.0257C43.0166 9.6791 41.7214 8.48213 41.0815 9.3353C40.7546 9.19498 40.8009 8.84417 40.6606 8.57616C40.4371 7.98719 40.0193 7.49214 39.4762 7.17292C38.1418 6.41938 36.5645 5.27294 34.8947 5.17611C33.3974 4.90529 31.6419 5.47079 30.2976 6.24959C29.568 6.81088 27.6511 7.65283 27.9528 8.44706C28.1591 8.82593 28.6825 8.69683 29.0066 8.5986C30.2906 8.21271 31.6041 8.01907 32.8459 8.83575C34.36 9.42792 33.9418 11.0543 33.1448 12.0407C31.6405 15.0675 30.0984 18.0747 28.5829 21.0916H29.7799C31.2645 18.1252 32.7584 15.1629 34.2618 12.2049L35.9162 13.1563C34.5691 15.8127 33.2683 18.4535 31.9451 21.0916L33.0746 21.0986ZM37.8807 12.4337C37.0486 12.6862 36.5196 12.3032 35.8909 11.906C35.6482 11.7657 35.3802 11.617 35.1332 11.4851C34.9929 11.3602 34.5845 11.3223 34.7122 11.0922C35.6201 8.73472 32.7617 7.19958 30.7663 7.16309C33.8618 5.31363 36.3596 6.29449 39.1142 8.14536C39.7204 8.43723 39.7189 9.38302 40.1301 9.8938C40.5412 10.4046 41.2793 10.6319 41.814 10.1099C42.1059 10.4032 43.4796 10.8115 43.3421 11.2114C42.7275 12.2835 42.1106 13.3551 41.4913 14.4263C41.2471 14.8178 40.1133 13.806 39.7372 13.6896C39.9477 12.6568 38.7956 12.1193 37.8807 12.4337Z" fill="currentColor"/>
<path d="M8.79173 21.1929L7.50073 19.676C7.4985 19.6751 7.49615 19.6746 7.49374 19.6746C7.49133 19.6746 7.4889 19.6751 7.48668 19.676H3.58852C3.50453 19.6759 3.42151 19.6578 3.34521 19.6226C3.26892 19.5875 3.20116 19.5363 3.14651 19.4725L0.340038 16.1763C0.279461 16.1088 0.235221 16.0282 0.210883 15.9408C0.186544 15.8535 0.182762 15.7617 0.199714 15.6725C0.228535 15.5394 0.304775 15.4213 0.414242 15.3402C0.52371 15.2592 0.658899 15.2207 0.794651 15.2319L5.50673 15.6094C5.51086 15.6106 5.51522 15.6106 5.51934 15.6094L7.66914 13.7782C7.67118 13.7767 7.67286 13.7748 7.67408 13.7727C7.67529 13.7705 7.67597 13.768 7.67613 13.7655L7.75328 10.7612C7.75469 10.7576 7.75469 10.7536 7.75328 10.75L5.73688 8.38273C5.7349 8.38184 5.73269 8.38138 5.73051 8.38138C5.72833 8.38138 5.72619 8.38184 5.72421 8.38273L0.584166 8.3252C0.490063 8.32655 0.396993 8.30534 0.312768 8.26335C0.228543 8.22136 0.155583 8.1598 0.100021 8.08384C0.0205618 7.96925 -0.0133759 7.82918 0.00478213 7.69092C0.0229401 7.55266 0.091921 7.4261 0.198275 7.33591L3.66711 4.3821C3.72453 4.33207 3.79129 4.29392 3.86355 4.26983C3.9358 4.24575 4.01212 4.23621 4.08808 4.24178L8.20234 4.61223C8.35349 4.62569 8.4932 4.69832 8.59104 4.8143L13.0238 10.0175C13.0779 10.0814 13.1176 10.1563 13.1401 10.2369C13.1626 10.3175 13.1675 10.4021 13.1544 10.4848L12.3321 15.6361C12.3307 15.6406 12.3307 15.6455 12.3321 15.6501L16.9754 21.1031C16.9824 21.1101 15.5005 21.1031 15.5005 21.1031L11.3105 16.1805C11.2558 16.1172 11.2156 16.0427 11.1929 15.9622C11.1701 15.8817 11.1652 15.7972 11.1786 15.7146L12.0009 10.5634C12.0022 10.561 12.003 10.5583 12.003 10.5556C12.003 10.5529 12.0022 10.5503 12.0009 10.5479L7.88525 5.71658C7.8841 5.71458 7.88241 5.71289 7.88045 5.71166C7.87849 5.71044 7.87631 5.70972 7.87401 5.70956L4.22559 5.3798C4.22102 5.37839 4.21612 5.37839 4.21155 5.3798L2.10669 7.17875C2.10348 7.18082 2.10106 7.18392 2.09984 7.18754C2.09862 7.19116 2.09867 7.19508 2.09998 7.19867C2.10128 7.20226 2.10377 7.20531 2.10703 7.2073C2.1103 7.20929 2.11414 7.21011 2.11793 7.20963L5.99506 7.25313C6.0777 7.2539 6.15922 7.27248 6.23404 7.30759C6.30887 7.3427 6.37522 7.39353 6.42863 7.4566L8.74959 10.1817C8.84346 10.2896 8.89352 10.4288 8.88992 10.5718L8.80153 14.0406C8.79871 14.121 8.77914 14.2 8.74411 14.2725C8.70908 14.345 8.65933 14.4094 8.59803 14.4616L6.0694 16.6099C5.95309 16.7104 5.80177 16.7608 5.64843 16.7502L2.09826 16.4696C2.09476 16.4694 2.09125 16.4702 2.08819 16.4719C2.08513 16.4736 2.08263 16.4762 2.081 16.4793C2.07937 16.4824 2.07869 16.486 2.07901 16.4895C2.07933 16.493 2.08068 16.4963 2.08285 16.4991L3.83265 18.5534C3.83438 18.5555 3.83653 18.5572 3.83895 18.5584C3.84136 18.5596 3.844 18.5603 3.84669 18.5604L7.74492 18.5534C7.82905 18.5534 7.91217 18.5717 7.9885 18.6071C8.06483 18.6425 8.13254 18.6941 8.18693 18.7583L10.1851 21.1999" fill="currentColor"/>
</g>
</svg>
