<svg width="77" height="72" viewBox="0 0 77 72" fill="none" xmlns="http://www.w3.org/2000/svg">
<g filter="url(#filter0_d_1_13532)">
<path d="M4.51953 55.1005V7C4.51953 3.13401 7.65354 0 11.5195 0H59.62C65.8564 0 68.9796 7.53998 64.5698 11.9497L16.4693 60.0503C12.0595 64.46 4.51953 61.3368 4.51953 55.1005Z" fill="#C4C4C4"/>
<path fill-rule="evenodd" clip-rule="evenodd" d="M28.518 15.7138C29.1008 15.5452 29.7115 15.5069 30.3094 15.6012C30.9074 15.6954 31.4802 15.9203 31.9892 16.2622C32.4982 16.6041 32.932 17.0554 33.2599 17.5871C33.5879 18.1188 33.8019 18.718 33.8862 19.3444C33.9706 19.9708 33.9232 20.6084 33.7474 21.2137C33.5717 21.819 33.2721 22.3768 32.8705 22.8501C32.4689 23.3233 31.9748 23.7008 31.4225 23.9589C30.8703 24.2168 30.2718 24.3499 29.6672 24.35C29.1149 24.35 28.6672 24.7978 28.6673 25.3501C28.6673 25.7224 28.8708 26.0471 29.1726 26.2192C29.3187 26.3026 29.4879 26.3502 29.6682 26.35C30.9313 26.3491 32.1772 26.6605 33.3007 27.2595C34.4244 27.8585 35.3936 28.728 36.1245 29.7967C36.4363 30.2526 37.0586 30.3694 37.5145 30.0576C37.9703 29.7459 38.0871 29.1236 37.7754 28.6677C36.8648 27.3363 35.6532 26.2471 34.2416 25.4946C33.9643 25.3468 33.681 25.2129 33.3927 25.0931C33.759 24.8157 34.0954 24.4977 34.3953 24.1442C34.981 23.4541 35.4145 22.6448 35.6681 21.7713C35.9217 20.898 35.9898 19.9795 35.8683 19.0775C35.7469 18.1754 35.4383 17.3092 34.9622 16.5372C34.4861 15.7652 33.8531 15.1048 33.1043 14.6019C32.3554 14.0989 31.5087 13.7655 30.6209 13.6256C29.733 13.4856 28.8263 13.5426 27.9624 13.7925C27.4318 13.9459 27.1261 14.5004 27.2796 15.031C27.433 15.5615 27.9875 15.8672 28.518 15.7138ZM17.162 19.9511C17.162 17.4968 19.0935 15.5521 21.4215 15.5521C23.7495 15.5521 25.6811 17.4968 25.6811 19.9511C25.6811 22.4054 23.7495 24.35 21.4215 24.35C19.0935 24.35 17.162 22.4054 17.162 19.9511ZM21.4215 13.5521C17.94 13.5521 15.162 16.4418 15.162 19.9511C15.162 22.0484 16.1543 23.9245 17.6961 25.0946C17.4078 25.2145 17.1245 25.3485 16.8472 25.4963C15.4359 26.2487 14.2244 27.3372 13.3132 28.6677C13.0011 29.1234 13.1175 29.7458 13.5732 30.0578C14.0288 30.3699 14.6512 30.2535 14.9633 29.7978C15.6949 28.7296 16.6644 27.8602 17.7882 27.2611C18.9117 26.6621 20.1576 26.3501 21.4208 26.35C22.684 26.35 23.9299 26.6619 25.0536 27.2608C26.1773 27.8599 27.1469 28.7291 27.8786 29.7973C28.1907 30.253 28.8131 30.3693 29.2687 30.0572C29.7244 29.7451 29.8407 29.1227 29.5286 28.6671C28.6173 27.3367 27.4057 26.2482 25.9944 25.4959C25.7175 25.3483 25.4346 25.2146 25.1466 25.0949C26.6886 23.9248 27.6811 22.0486 27.6811 19.9511C27.6811 16.4418 24.9031 13.5521 21.4215 13.5521Z" fill="white"/>
<path d="M39.6932 21.5C39.6932 29.533 33.356 36 25.5934 36C17.8308 36 11.4937 29.533 11.4937 21.5C11.4937 13.467 17.8308 7 25.5934 7C33.356 7 39.6932 13.467 39.6932 21.5Z" stroke="white" stroke-width="2"/>
</g>
<defs>
<filter id="filter0_d_1_13532" x="0.519531" y="0" width="70.1145" height="70.1152" filterUnits="userSpaceOnUse" color-interpolation-filters="sRGB">
<feFlood flood-opacity="0" result="BackgroundImageFix"/>
<feColorMatrix in="SourceAlpha" type="matrix" values="0 0 0 0 0 0 0 0 0 0 0 0 0 0 0 0 0 0 127 0" result="hardAlpha"/>
<feOffset dy="4"/>
<feGaussianBlur stdDeviation="2"/>
<feComposite in2="hardAlpha" operator="out"/>
<feColorMatrix type="matrix" values="0 0 0 0 0 0 0 0 0 0 0 0 0 0 0 0 0 0 0.25 0"/>
<feBlend mode="normal" in2="BackgroundImageFix" result="effect1_dropShadow_1_13532"/>
<feBlend mode="normal" in="SourceGraphic" in2="effect1_dropShadow_1_13532" result="shape"/>
</filter>
</defs>
</svg>
