<svg width="32" height="38" viewBox="0 0 45 38" fill="none" xmlns="http://www.w3.org/2000/svg">
<path d="M29.8531 6.35701C25.7233 6.35701 21.9964 8.07438 19.2641 10.8683H18.1561L14.6936 0.000183105L11.2185 10.8683H0L9.07807 17.584L5.60296 28.4521L14.681 21.7364H14.7062C14.7062 21.8902 14.681 22.0312 14.681 22.185C14.681 26.5297 16.3682 30.4643 19.0879 33.3351C19.0879 33.6427 19.2641 33.9375 19.5537 34.0784C19.6796 34.1425 19.8055 34.1681 19.944 34.1681C22.6007 36.552 26.0506 38.0002 29.8405 38.0002C38.2261 38.0002 45 30.9 45 22.185C45 13.47 38.2387 6.36983 29.8405 6.36983L29.8531 6.35701ZM14.6936 19.6218L8.78847 23.9793L11.0423 16.9176L5.14969 12.56H12.4398L14.6936 5.49833L16.9474 12.56H24.2375L18.3324 16.9176L20.5862 23.9793L16.4186 20.9034L14.8825 19.7627L14.6936 19.6218ZM19.8811 31.669C17.8665 29.3493 16.5823 26.3246 16.406 22.9924L23.3688 28.1445C21.9712 29.0545 20.7876 30.2592 19.8811 31.669ZM29.8531 36.2828C26.5165 36.2828 23.4569 35.014 21.1024 32.9122C21.9082 31.5408 23.0162 30.3874 24.3383 29.5415C25.887 28.5418 27.6623 28.0164 29.4754 28.0164H29.5131C31.3262 28.0164 33.1016 28.5418 34.6503 29.5415C36.0982 30.4771 37.2943 31.7843 38.1128 33.3351C35.8338 35.1934 32.9631 36.2828 29.8531 36.2828ZM24.4516 21.0187C24.4516 18.071 26.7305 15.7256 29.488 15.7256C32.2454 15.7256 34.5243 18.071 34.5243 21.0187C34.5243 23.9665 32.258 26.299 29.5006 26.3118H29.4628C26.7054 26.3118 24.439 23.9536 24.439 21.0187H24.4516ZM39.3844 32.156C38.4401 30.5027 37.1181 29.1057 35.5316 28.0933C34.7636 27.5934 33.9452 27.209 33.1016 26.9142C34.965 25.671 36.1989 23.4923 36.1989 21.0187C36.1989 17.1739 33.2149 14.0339 29.488 14.0339C25.761 14.0339 22.777 17.1867 22.777 21.0187C22.777 23.4794 24.0109 25.671 25.8744 26.9142C25.0937 27.1833 24.3509 27.555 23.6332 27.9907L20.3092 17.584L29.3872 10.8683H21.8075C24.0613 9.11249 26.8313 8.06157 29.8531 8.06157C37.2818 8.06157 43.338 14.3543 43.338 22.1722C43.338 26.0811 41.8271 29.6056 39.3844 32.156Z" fill="white"/>
</svg>
