<svg width="31" height="31" viewBox="0 0 31 31" fill="none" xmlns="http://www.w3.org/2000/svg">
<path d="M28.7127 1.46546L3.25855 1.31606C2.55565 1.31194 1.9825 1.8784 1.97837 2.5813L1.82897 28.0354C1.82484 28.7383 2.39131 29.3115 3.09421 29.3156L28.5483 29.465C29.2512 29.4691 29.8244 28.9026 29.8285 28.1997L29.9779 2.74564C29.982 2.04274 29.4155 1.46959 28.7127 1.46546Z" stroke="#34A6FF" stroke-width="2" stroke-linecap="round" stroke-linejoin="round"/>
<path d="M14.6455 12.8379L14.5857 23.0195" stroke="#34A6FF" stroke-width="2" stroke-linecap="round" stroke-linejoin="round"/>
<path d="M9.55469 12.8086L9.49493 22.9902" stroke="#34A6FF" stroke-width="2" stroke-linecap="round" stroke-linejoin="round"/>
<path d="M14.6194 17.2924C14.6263 16.111 15.1023 14.9807 15.9425 14.1502C16.7828 13.3198 17.9186 12.8571 19.1 12.864C20.2814 12.871 21.4116 13.3469 22.2421 14.1872C23.0726 15.0275 23.5352 16.1633 23.5283 17.3447L23.4947 23.0718" stroke="#34A6FF" stroke-width="2" stroke-linecap="round" stroke-linejoin="round"/>
<path d="M9.57366 9.6262C10.628 9.63238 11.4877 8.78269 11.4939 7.72834C11.5001 6.674 10.6504 5.81427 9.59607 5.80808C8.54173 5.80189 7.682 6.65159 7.67581 7.70593C7.66962 8.76028 8.51932 9.62001 9.57366 9.6262Z" fill="#34A6FF"/>
</svg>
