<svg width="14" height="19" viewBox="0 0 14 19" fill="none" xmlns="http://www.w3.org/2000/svg">
<path d="M6.90222 9.56477C8.20056 9.57239 9.25984 8.42732 9.26817 7.00718C9.27651 5.58705 8.23075 4.42962 6.9324 4.422C5.63406 4.41438 4.57479 5.55945 4.56645 6.97959C4.55812 8.39972 5.60387 9.55715 6.90222 9.56477Z" stroke="#D3DEE7" stroke-linecap="round" stroke-linejoin="round"/>
<path d="M12.7942 7.0287C12.7603 12.8143 6.85669 17.2797 6.85669 17.2797C6.85669 17.2797 1.00595 12.7453 1.03991 6.95971C1.04991 5.25478 1.67871 3.62331 2.78796 2.42421C3.89722 1.2251 5.39607 0.556597 6.95479 0.565745C8.51351 0.574894 10.0044 1.26095 11.0995 2.47299C12.1946 3.68503 12.8042 5.32377 12.7942 7.0287Z" stroke="#D3DEE7" stroke-linecap="round" stroke-linejoin="round"/>
<line x1="1.47509" y1="18.0342" x2="12.2294" y2="18.0973" stroke="#D3DEE7" stroke-linecap="round"/>
</svg>
