<svg width="30" height="37" viewBox="0 0 30 37" fill="none" xmlns="http://www.w3.org/2000/svg">
<path d="M15.4115 8L16.8677 12.4914H21.5804L17.7678 15.2672L19.2241 19.7586L15.4115 16.9828L11.5988 19.7586L13.0551 15.2672L9.24252 12.4914H13.9552L15.4115 8Z" fill="currentColor"/>
<path d="M15.4115 28C22.8517 28 28.8832 21.9558 28.8832 14.5C28.8832 7.04416 22.8517 1 15.4115 1C7.97121 1 1.9397 7.04416 1.9397 14.5C1.9397 21.9558 7.97121 28 15.4115 28Z" stroke="currentColor" stroke-width="2" stroke-linecap="round" stroke-linejoin="round"/>
<path d="M15.4114 23C20.096 23 23.8936 19.1944 23.8936 14.5C23.8936 9.80558 20.096 6 15.4114 6C10.7268 6 6.9292 9.80558 6.9292 14.5C6.9292 19.1944 10.7268 23 15.4114 23Z" stroke="currentColor" stroke-width="2" stroke-linecap="round" stroke-linejoin="round"/>
<path d="M23.8936 25V36L15.4102 30.7002L6.9292 36V25.001" stroke="currentColor" stroke-width="2" stroke-linecap="round" stroke-linejoin="round"/>
</svg>
