<svg width="73" height="53" viewBox="0 0 73 53" fill="none" xmlns="http://www.w3.org/2000/svg">
<path d="M52.3107 19.0195C55.4628 19.8233 57.1518 21.7055 57.1849 24.3783C57.2195 27.1428 55.5981 29.0104 52.3107 29.9348V30.7778C52.3107 35.4535 52.3107 40.1277 52.3107 44.8034C52.3107 46.8891 51.1832 48.437 49.3804 48.8353C47.507 49.2495 45.8611 48.3396 44.9785 46.4109C44.9122 46.2641 44.8215 46.1144 44.7034 46.0098C44.0454 45.4197 43.324 44.895 42.7192 44.2555C36.4583 37.6438 28.8539 33.782 19.8354 32.785C19.6957 32.769 19.5532 32.7835 19.2522 32.7835C19.2522 34.7791 19.2119 36.7601 19.2609 38.7368C19.3415 41.9605 19.5863 45.1595 20.5626 48.2713C21.0147 49.7117 20.5194 51.4355 18.466 51.9122C15.7906 52.5328 13.1195 53.088 10.3548 52.6709C7.5123 52.2421 6.03346 50.6462 5.76275 47.7655C5.46468 44.5956 5.93843 41.4838 6.43233 38.3749C6.73904 36.4462 7.13935 34.532 7.50222 32.5844C6.47697 32.2748 5.67492 31.7153 5.14357 30.7749C5.05574 30.6194 4.75479 30.522 4.54743 30.5133C3.7569 30.4827 2.96348 30.5133 2.17151 30.4973C0.776192 30.4697 0.0259763 29.74 0.0144566 28.3404C-0.00570271 25.8463 -0.00426275 23.3507 0.0115767 20.8552C0.0202165 19.489 0.812191 18.6998 2.16863 18.6721C3.08012 18.6532 3.99305 18.6852 4.9031 18.6547C5.13781 18.6474 5.433 18.5515 5.58852 18.3887C6.37473 17.5603 7.33662 17.2521 8.44395 17.2507C11.2749 17.2478 14.113 17.3408 16.9382 17.1925C27.4024 16.6446 36.14 12.4558 43.0043 4.39651C43.4651 3.85583 44.0756 3.44741 44.6026 2.96051C44.7682 2.8079 44.9281 2.62186 45.0202 2.41838C45.8381 0.611765 47.5286 -0.305352 49.3487 0.0885285C51.117 0.470782 52.3064 2.00997 52.3093 3.94885C52.315 8.55188 52.3107 13.1534 52.3107 17.7565C52.3107 18.1663 52.3107 18.5762 52.3107 19.0195ZM44.7121 43.3078V5.44298C44.463 5.73803 44.3118 5.92261 44.1562 6.09993C37.3654 13.8787 28.8179 18.1983 18.6158 19.066C15.278 19.3494 11.9042 19.2012 8.54762 19.2419C7.19839 19.2579 6.73616 19.7113 6.73472 21.0776C6.73184 23.6196 6.73328 26.1631 6.7376 28.7052C6.73904 30.1252 7.23727 30.6354 8.6369 30.6383C10.9394 30.6426 13.2433 30.6615 15.5458 30.6339C24.6362 30.5234 32.7691 33.2879 39.8983 38.9708C41.5845 40.3138 43.1137 41.8588 44.7121 43.3078ZM9.44759 32.6585C8.94505 35.6802 8.33163 38.6699 7.98316 41.6902C7.73693 43.8136 7.78733 45.9807 7.82765 48.1274C7.85069 49.3672 8.6297 50.1681 9.82054 50.4951C10.3029 50.6273 10.8026 50.732 11.2994 50.7727C13.5284 50.9558 15.6956 50.5532 17.8411 50.0009C18.7367 49.7713 18.8548 49.5227 18.6143 48.5954C18.3537 47.5911 18.0614 46.5897 17.8814 45.5694C17.1773 41.5899 17.2277 37.5682 17.3141 33.548C17.3198 33.2661 17.3141 32.9827 17.3141 32.66H9.44759V32.6585ZM46.7798 24.3798C46.7798 31.2807 46.777 38.1801 46.7827 45.081C46.7827 46.142 47.4998 46.9036 48.4934 46.9371C49.4596 46.9705 50.253 46.2162 50.3308 45.1842C50.3466 44.9677 50.3394 44.7482 50.3394 44.5302C50.3423 36.9273 50.3452 29.3244 50.3466 21.7229C50.3466 15.8641 50.348 10.0039 50.3308 4.14506C50.3308 3.72357 50.253 3.26283 50.0687 2.8922C49.7044 2.15677 48.8203 1.84864 48.0268 2.07973C47.2421 2.30792 46.7827 2.96342 46.7827 3.89653C46.7798 10.7248 46.7813 17.553 46.7813 24.3798H46.7798ZM4.70007 28.4799V20.6997H2.02463V28.4799H4.70007ZM52.3366 27.7561C53.8716 27.714 55.182 26.2096 55.1949 24.5033C55.2079 22.7606 53.9292 21.2549 52.3366 21.1691V27.7561Z" fill="#67BEA1"/>
<path d="M70.4383 8.79898C70.1992 9.14781 70.0668 9.47628 69.8277 9.67104C67.7196 11.3861 65.5957 13.0823 63.4675 14.7711C62.9419 15.1883 62.3501 15.1301 62.0001 14.6825C61.6459 14.2276 61.7208 13.6447 62.2449 13.2203C64.3588 11.5125 66.4726 9.8033 68.621 8.14058C68.8889 7.93273 69.4015 7.88332 69.737 7.98215C70.0063 8.06064 70.1776 8.47487 70.4397 8.79753L70.4383 8.79898Z" fill="#67BEA1"/>
<path d="M62.7072 33.4318C63.083 33.6425 63.3509 33.7471 63.5668 33.9187C65.6188 35.5494 67.6621 37.1874 69.7054 38.8298C70.3433 39.3429 70.4685 39.8777 70.0927 40.3777C69.7212 40.8719 69.1236 40.901 68.516 40.4155C66.4295 38.7528 64.3516 37.077 62.2666 35.4113C61.8691 35.093 61.6301 34.673 61.8648 34.2152C62.0261 33.8998 62.4062 33.6992 62.7072 33.4303V33.4318Z" fill="#67BEA1"/>
<path d="M63.5481 28.6049C63.731 28.6572 63.9182 28.6979 64.0967 28.7633C66.3906 29.6107 68.6859 30.4551 70.9754 31.3156C71.7645 31.6121 72.0885 32.3824 71.5845 32.8853C71.3354 33.1338 70.7752 33.3155 70.4642 33.2079C68.0393 32.3708 65.6404 31.4595 63.2371 30.5598C62.7288 30.3694 62.4005 29.9537 62.5848 29.4319C62.7129 29.0686 63.1075 28.7997 63.3825 28.4886L63.5481 28.6064V28.6049Z" fill="#67BEA1"/>
<path d="M71.7919 16.5458C71.668 16.6824 71.4765 17.0778 71.177 17.194C68.7636 18.1359 66.3359 19.0355 63.9009 19.9207C63.3393 20.1242 62.8497 19.9468 62.6078 19.3408C62.399 18.819 62.6309 18.2928 63.2284 18.0661C65.6274 17.1562 68.0321 16.2595 70.4441 15.3831C71.1583 15.1229 71.8063 15.5982 71.7919 16.5458Z" fill="#67BEA1"/>
<path d="M68.0307 23.3072C69.2042 23.3072 70.3792 23.2999 71.5528 23.3087C72.2757 23.3145 72.7307 23.6953 72.7451 24.2796C72.7595 24.8696 72.3117 25.3028 71.6018 25.3071C69.1812 25.3217 66.7621 25.3202 64.3415 25.3071C63.6604 25.3042 63.2443 24.9103 63.2313 24.3319C63.2169 23.72 63.6431 23.3174 64.3646 23.3101C65.5871 23.297 66.8082 23.3072 68.0307 23.3058V23.3072Z" fill="#67BEA1"/>
</svg>
