<svg width="31" height="25" viewBox="0 0 31 25" fill="none" xmlns="http://www.w3.org/2000/svg">
<path d="M29.3372 4.34611C28.2394 5.89826 26.8733 7.24189 25.3031 8.31371L25.3031 8.31369C25.1881 11.0469 24.3745 13.7051 22.9398 16.0343C21.5052 18.3636 19.4975 20.2863 17.1083 21.6189C14.7192 22.9515 12.0284 23.6494 9.29272 23.6461C6.55707 23.6428 3.86794 22.9383 1.48202 21.5999L1.48284 21.5985C4.60885 21.5735 7.65834 20.6289 10.251 18.8823L10.2509 18.8825C7.49769 16.9822 5.40815 14.2679 4.27529 11.1202C3.14243 7.97243 3.02304 4.5491 3.93387 1.3301L3.93382 1.33013C5.19971 3.30491 6.88437 4.97717 8.86846 6.22842C10.8526 7.47968 13.0875 8.27932 15.415 8.5707L15.4147 8.57077C15.1763 7.40011 15.3648 6.18277 15.9462 5.13908C16.5275 4.09538 17.4633 3.29428 18.5842 2.88076C19.705 2.46723 20.9369 2.46861 22.0568 2.88464C23.1767 3.30067 24.1107 4.10386 24.6897 5.14885L24.6897 5.14941C26.2699 5.11153 27.8359 4.84085 29.3372 4.34611" stroke="#34A6FF" stroke-width="2" stroke-linecap="round" stroke-linejoin="round"/>
</svg>
