<svg width="73" height="73" viewBox="0 0 73 73" fill="none" xmlns="http://www.w3.org/2000/svg">
<!-- <path d="M0.634608 55.5019L0.916923 7.40222C0.939613 3.5363 4.09196 0.420738 7.95789 0.443429L56.0576 0.725744C62.2938 0.762347 65.3727 8.32053 60.9371 12.7043L12.5551 60.5217C8.11954 64.9055 0.598005 61.7381 0.634608 55.5019Z" fill="#C4C4C4"/> -->
<path fill-rule="evenodd" clip-rule="evenodd" d="M24.864 16.2571C25.4478 16.092 26.0587 16.0573 26.656 16.155C27.2534 16.2528 27.8249 16.4811 28.3319 16.8259C28.8389 17.1708 29.2701 17.6246 29.5948 18.1582C29.9197 18.6919 30.1301 19.2924 30.2108 19.9192C30.2915 20.5461 30.2403 21.1834 30.061 21.7877C29.8817 22.3919 29.5789 22.948 29.1745 23.4189C28.7701 23.8897 28.2738 24.2643 27.72 24.5191C27.1663 24.7739 26.5671 24.9034 25.9624 24.8999C25.4102 24.8967 24.9599 25.3419 24.9567 25.8941C24.9546 26.2664 25.1561 26.5924 25.4569 26.7662C25.6025 26.8505 25.7714 26.899 25.9517 26.9C27.2148 26.9064 28.4589 27.2252 29.5789 27.8307C30.699 28.4363 31.6631 29.3115 32.3877 30.3845C32.6968 30.8422 33.3184 30.9626 33.7761 30.6536C34.2338 30.3445 34.3542 29.7229 34.0451 29.2652C33.1424 27.9284 31.9373 26.8322 30.53 26.0714C30.2537 25.9219 29.9712 25.7864 29.6835 25.6649C30.0515 25.3896 30.3897 25.0736 30.6917 24.7219C31.2815 24.0352 31.7197 23.2285 31.9784 22.3566C32.2371 21.4847 32.3106 20.5667 32.1945 19.6639C32.0783 18.7611 31.7748 17.8931 31.3033 17.1184C30.8317 16.3436 30.2025 15.6795 29.4567 15.1722C28.7108 14.6648 27.866 14.3264 26.9791 14.1813C26.0921 14.0361 25.1851 14.0878 24.3196 14.3326C23.7882 14.483 23.4792 15.0356 23.6296 15.5671C23.7799 16.0985 24.3326 16.4074 24.864 16.2571ZM13.4833 20.4277C13.4977 17.9734 15.4406 16.0401 17.7686 16.0538C20.0965 16.0675 22.0166 18.0234 22.0022 20.4777C21.9878 22.932 20.0449 24.8652 17.7169 24.8516C15.389 24.8379 13.4689 22.8819 13.4833 20.4277ZM17.7803 14.0538C14.2988 14.0334 11.5039 16.9068 11.4833 20.4159C11.471 22.5133 12.4523 24.3952 13.9872 25.5743C13.6982 25.6925 13.4141 25.8248 13.136 25.971C11.7203 26.7151 10.5024 27.7965 9.58338 29.1216C9.26864 29.5755 9.38139 30.1985 9.83522 30.5132C10.289 30.828 10.9121 30.7152 11.2268 30.2614C11.9647 29.1974 12.9393 28.3338 14.0665 27.7413C15.1936 27.1488 16.4413 26.8442 17.7045 26.8515C18.9677 26.8589 20.2117 27.1781 21.3318 27.7836C22.452 28.3893 23.4165 29.2642 24.1419 30.3367C24.4514 30.7942 25.073 30.9142 25.5305 30.6047C25.988 30.2953 26.108 29.6736 25.7986 29.2162C24.8951 27.8804 23.6899 26.7849 22.283 26.0243C22.007 25.8751 21.7249 25.7397 21.4376 25.6183C22.9864 24.4572 23.9899 22.5869 24.0022 20.4894C24.0228 16.9803 21.2618 14.0743 17.7803 14.0538Z" fill="#C4C4C4" />
<path d="M36.005 22.1086C35.9579 30.1414 29.5829 36.5712 21.8204 36.5256C14.0579 36.48 7.75883 29.9759 7.80598 21.9431C7.85313 13.9103 14.2282 7.48055 21.9906 7.52611C29.7531 7.57167 36.0522 14.0758 36.005 22.1086Z" stroke="#c4c4c4" stroke-width="2"/>
</svg>
