<svg width="73" height="74" viewBox="0 0 73 74" fill="none" xmlns="http://www.w3.org/2000/svg">
<!-- <path d="M0.382166 55.9843L0.664481 7.88465C0.687172 4.01872 3.83952 0.90316 7.70544 0.925851L55.8051 1.20817C62.0413 1.24477 65.1202 8.80295 60.6847 13.1867L12.3027 61.0041C7.8671 65.3879 0.345563 62.2205 0.382166 55.9843Z" fill="#18162F" fill-opacity="0.1"/> -->
<path fill-rule="evenodd" clip-rule="evenodd" d="M21.9453 9.00961C14.6318 8.96668 8.62287 15.025 8.57843 22.597C8.55804 26.0709 9.79675 29.241 11.8498 31.659C12.773 30.3112 13.9608 29.1667 15.3448 28.3038C16.0316 27.8756 16.7565 27.523 17.5075 27.2498C15.7576 25.9642 14.6305 23.8589 14.6443 21.5045C14.6669 17.6542 17.7329 14.5059 21.5467 14.5282C25.3605 14.5506 28.3893 17.7347 28.3667 21.585C28.3529 23.9395 27.201 26.0315 25.436 27.2965C26.1836 27.5785 26.9043 27.9394 27.5858 28.3756C29.1176 29.3558 30.4014 30.6833 31.3437 32.2483C33.6783 29.8051 35.13 26.4604 35.1518 22.7529C35.1962 15.181 29.2588 9.05254 21.9453 9.00961ZM29.8236 33.6154C29.0234 32.163 27.8834 30.9405 26.5078 30.0602C24.9995 29.095 23.2651 28.5775 21.4944 28.5614C21.4844 28.5614 21.4743 28.5614 21.4643 28.5613C21.4542 28.5612 21.4441 28.5612 21.4341 28.5611C19.6631 28.5563 17.9226 29.0534 16.403 30.0009C15.1483 30.7832 14.0835 31.8482 13.2868 33.1135C15.5846 35.1118 18.5501 36.3213 21.7849 36.3403C24.7933 36.358 27.581 35.3432 29.8236 33.6154ZM11.8573 34.5207C14.5124 36.8796 17.9727 38.318 21.7731 38.3403C30.2402 38.39 37.1011 31.3916 37.1517 22.7647C37.2024 14.1378 30.4241 7.05934 21.957 7.00964C13.49 6.95995 6.6291 13.9583 6.57846 22.5852C6.55336 26.863 8.20735 30.76 10.9137 33.6082C10.943 33.9426 11.14 34.2544 11.4621 34.4159C11.5894 34.4796 11.7237 34.5137 11.8573 34.5207ZM21.5037 26.5614C24.1517 26.5616 26.3504 24.359 26.3667 21.5733C26.3831 18.7779 24.1952 16.5438 21.535 16.5282C18.8747 16.5126 16.6607 18.7208 16.6443 21.5162C16.628 24.3019 18.8006 26.5301 21.4482 26.5611C21.4574 26.5611 21.4666 26.5612 21.4757 26.5612C21.4851 26.5613 21.4944 26.5613 21.5037 26.5614Z" fill="#18162F" fill-opacity="0.2"/>
</svg>
