<svg width="26" height="26" viewBox="0 0 26 26" fill="none" xmlns="http://www.w3.org/2000/svg">
<path d="M10.7845 13.2133V12.1622C11.4157 12.1071 12.0054 11.8263 12.4446 11.3719C12.8502 10.9155 13.0635 10.3212 13.0404 9.7124C13.0634 9.19004 12.8971 8.67681 12.5717 8.26622C12.0764 7.7968 11.4561 7.47865 10.7845 7.34952V5.21581C10.9587 5.2945 11.1112 5.41377 11.2293 5.56352C11.3417 5.71703 11.4128 5.89657 11.4358 6.0851L12.8259 5.90334C12.7646 5.39939 12.526 4.93329 12.1523 4.5876C11.7787 4.24191 11.2941 4.03893 10.7845 4.01461V3.47723H9.99016V4.01461C9.41921 4.04869 8.88259 4.29726 8.48888 4.71004C8.11042 5.1177 7.90791 5.65686 7.9249 6.21154C7.9073 6.75527 8.08468 7.28749 8.42533 7.71304C8.84488 8.17868 9.4004 8.50199 10.014 8.63764V10.9136C9.8041 10.8062 9.62197 10.6521 9.48179 10.4631C9.31002 10.2301 9.19821 9.9588 9.15611 9.67288L7.72632 9.82304C7.80653 10.4463 8.08484 11.0278 8.52065 11.4826C8.93805 11.88 9.47839 12.1251 10.0537 12.178V13.2133H10.7845ZM9.99016 7.08083C9.78262 6.99885 9.6014 6.86226 9.4659 6.68569C9.3477 6.52373 9.28405 6.32871 9.28405 6.12856C9.28405 5.92841 9.3477 5.7334 9.4659 5.57143C9.59027 5.39594 9.76874 5.26555 9.97427 5.2L9.99016 7.08083ZM10.7845 8.87472C11.0568 8.93196 11.3041 9.07295 11.4914 9.27775C11.6364 9.45326 11.7125 9.67502 11.7059 9.90206C11.7076 10.1615 11.6176 10.4132 11.4517 10.6133C11.2836 10.8168 11.0461 10.9518 10.7845 10.9926V8.87472Z" fill="#EDF2F7"/>
<path d="M20.1258 24.2295H1.85631V1.90459L14.3908 1.76234L14.5497 1.92039V8.06863C14.5486 8.12948 14.5597 8.18994 14.5824 8.24646C14.6051 8.30299 14.6389 8.35445 14.6818 8.39785C14.7246 8.44126 14.7758 8.47573 14.8322 8.49925C14.8886 8.52278 14.9492 8.5349 15.0104 8.53489H20.1338V11.8935L21.0631 11.0479V7.43642L15.5029 1.54107L15.3996 1.42253L15.3361 1.37511L14.8197 0.829834L0.974609 0.987884V25.1541H21.0949V17.9548L20.1656 18.9742L20.1258 24.2295ZM15.4711 7.63399V2.98725L19.4427 7.61028L15.4711 7.63399Z" fill="#EDF2F7"/>
<path d="M3.85022 17.6388V19.1798H11.3566L9.95065 17.6388H3.85022Z" fill="#EDF2F7"/>
<path d="M3.85022 21.3846H13.3663L11.9603 19.8436H3.85022V21.3846Z" fill="#EDF2F7"/>
<path d="M23.4223 10.1471L21.0393 12.3045L20.1099 13.1501L15.6379 17.2199L12.8021 13.8218L10.2603 16.6114L11.2134 17.6388L12.6194 19.2193L13.231 19.8831L14.637 21.4636L15.6537 22.5779L16.6625 21.4636L16.8611 21.2503L18.6801 19.2588L18.7993 19.1245L20.1417 17.6546L21.0711 16.6351L25.1618 12.1465L23.4223 10.1471ZM20.515 16.0741L19.5857 17.0935L18.2512 18.5634L18.1241 18.6977L16.313 20.6813L16.1144 20.9026L15.6379 21.4241L15.1533 20.9026L13.7474 19.322L13.1437 18.6582L11.7377 17.0777L11.2134 16.6114L12.8021 14.9203L15.1136 17.6783L15.5981 18.2552L16.1621 17.7494L20.6262 13.6796L21.5397 12.834L23.3667 11.1665L24.161 12.0674L20.515 16.0741Z" fill="#EDF2F7"/>
</svg>
