<svg width="20" height="19" viewBox="0 0 20 19" fill="none" xmlns="http://www.w3.org/2000/svg">
<path d="M10.0148 7.59863L10.0148 17.8704" stroke="white" stroke-width="2" stroke-linecap="round" stroke-linejoin="round"/>
<path d="M10.0148 1.13086L10.0148 3.7939" stroke="white" stroke-width="2" stroke-linecap="round" stroke-linejoin="round"/>
<path d="M10.0149 7.59829C11.0655 7.59829 11.9171 6.74666 11.9171 5.69612C11.9171 4.64558 11.0655 3.79395 10.0149 3.79395C8.9644 3.79395 8.11276 4.64558 8.11276 5.69612C8.11276 6.74666 8.9644 7.59829 10.0149 7.59829Z" stroke="white" stroke-width="2" stroke-linecap="round" stroke-linejoin="round"/>
<path d="M16.8628 15.207L16.8628 17.8701" stroke="white" stroke-width="2" stroke-linecap="round" stroke-linejoin="round"/>
<path d="M16.8628 1.13086L16.8628 11.4026" stroke="white" stroke-width="2" stroke-linecap="round" stroke-linejoin="round"/>
<path d="M16.8624 15.2067C17.913 15.2067 18.7646 14.3551 18.7646 13.3045C18.7646 12.254 17.913 11.4023 16.8624 11.4023C15.8119 11.4023 14.9603 12.254 14.9603 13.3045C14.9603 14.3551 15.8119 15.2067 16.8624 15.2067Z" stroke="white" stroke-width="2" stroke-linecap="round" stroke-linejoin="round"/>
<path d="M3.16682 12.1631L3.16676 17.8696" stroke="white" stroke-width="2" stroke-linecap="round" stroke-linejoin="round"/>
<path d="M3.16676 1.13086L3.16682 8.35912" stroke="white" stroke-width="2" stroke-linecap="round" stroke-linejoin="round"/>
<path d="M3.16694 12.1637C4.21748 12.1637 5.06911 11.3121 5.06911 10.2615C5.06911 9.21101 4.21748 8.35938 3.16694 8.35938C2.1164 8.35938 1.26476 9.21101 1.26476 10.2615C1.26476 11.3121 2.1164 12.1637 3.16694 12.1637Z" stroke="white" stroke-width="2" stroke-linecap="round" stroke-linejoin="round"/>
</svg>
