<svg width="47" height="47" viewBox="0 0 47 47" fill="none" xmlns="http://www.w3.org/2000/svg">
<path d="M23.5 41.125C33.234 41.125 41.125 33.234 41.125 23.5C41.125 13.766 33.234 5.875 23.5 5.875C13.766 5.875 5.875 13.766 5.875 23.5C5.875 33.234 13.766 41.125 23.5 41.125Z" stroke="#4DFFA5" stroke-width="2" stroke-miterlimit="10"/>
<path d="M39.3194 31.2795L29.3527 25.1496C29.178 25.0422 28.9828 24.9725 28.7795 24.9451L24.5901 24.3804C24.2755 24.3379 23.9557 24.3986 23.6785 24.5532C23.4012 24.7078 23.1816 24.9481 23.0524 25.2381L20.5374 30.8814C20.4204 31.1439 20.383 31.4349 20.4297 31.7183C20.4765 32.0018 20.6054 32.2654 20.8004 32.4764L24.252 36.2097C24.4085 36.3789 24.5229 36.5826 24.5861 36.8043C24.6492 37.026 24.6593 37.2594 24.6156 37.4857L23.9125 41.1202" stroke="#4DFFA5" stroke-width="2" stroke-linecap="round" stroke-linejoin="round"/>
<path d="M11.9251 10.209L10.283 14.0919C10.1366 14.4382 10.1285 14.8273 10.2604 15.1794L12.37 20.8098C12.4564 21.0404 12.5994 21.2456 12.7858 21.4064C12.9722 21.5673 13.196 21.6787 13.4368 21.7305L17.3712 22.5761C17.5895 22.623 17.7942 22.7191 17.9698 22.857C18.1454 22.995 18.2873 23.1711 18.3845 23.3721L19.0832 24.8155C19.2035 25.0639 19.3913 25.2734 19.6251 25.42C19.8589 25.5666 20.1293 25.6443 20.4053 25.6443H22.8714" stroke="#4DFFA5" stroke-width="2" stroke-linecap="round" stroke-linejoin="round"/>
<path d="M27.9899 6.45312L29.7035 9.52252C29.8655 9.81268 29.9243 10.1492 29.8703 10.4771C29.8163 10.805 29.6527 11.1049 29.4063 11.3278L24.4656 15.796C24.3817 15.8719 24.2894 15.9378 24.1904 15.9924L21.9429 17.2336C21.7255 17.3536 21.4812 17.4166 21.2329 17.4166H17.314C17.025 17.4166 16.7425 17.5019 16.5017 17.6617C16.2609 17.8215 16.0727 18.0489 15.9605 18.3152L14.4316 21.9445" stroke="#4DFFA5" stroke-width="2" stroke-linecap="round" stroke-linejoin="round"/>
</svg>
