<svg id="Layer_1" data-name="Layer 1" xmlns="http://www.w3.org/2000/svg" viewBox="0 0 41 41"><defs><style>.cls-1,.cls-2{fill:none;stroke:#fff;stroke-width:2px;}.cls-1{stroke-linecap:round;stroke-linejoin:round;}</style></defs><path class="cls-1" d="M10.89,13H30.11a.83.83,0,0,1,.48.15.84.84,0,0,1,.33.39.9.9,0,0,1,.07.51,1,1,0,0,1-.22.46l-7.35,8.17a.94.94,0,0,0-.24.61v6.4a.88.88,0,0,1-.4.75l-3.57,2.41a.93.93,0,0,1-.46.15.83.83,0,0,1-.46-.11.87.87,0,0,1-.47-.79V23.29a.94.94,0,0,0-.24-.61l-7.35-8.17a1,1,0,0,1-.22-.46.9.9,0,0,1,.07-.51.84.84,0,0,1,.33-.39.83.83,0,0,1,.48-.15Z"/><circle class="cls-2" cx="20.5" cy="20.5" r="19.5"/></svg>