<svg width="120" height="113" viewBox="0 0 120 113" fill="none" xmlns="http://www.w3.org/2000/svg">
<path d="M42.7515 66.701C42.7515 49.1194 59.454 23.6542 80.0567 23.6542C100.659 23.6542 117.358 49.1194 117.358 66.701C117.358 84.2826 100.659 98.5336 80.0567 98.5336C59.454 98.5336 42.7515 84.2826 42.7515 66.701Z" stroke="#C4C4C4" stroke-width="4" stroke-miterlimit="10"/>
<path d="M43.0621 103.619C53.2699 105.676 64.7877 108.798 79.1594 106.792C93.5312 104.786 111.331 91.2462 111.331 91.2462C111.331 91.2462 114.223 89.1806 112.314 85.3431C110.404 81.5057 106.899 83.2136 106.899 83.2136L87.1938 92.2514L65.9275 95.4542L86.5175 92.3536C86.5175 92.3536 90.9877 91.8383 90.2604 86.8764C89.6309 82.2212 85.3139 82.9325 85.3139 82.9325C85.3139 82.9325 71.5121 84.9939 65.8255 85.7477C62.1336 83.3115 62.0613 80.2109 42.7473 83.1412L43.0621 103.619Z" fill="white" stroke="#C4C4C4" stroke-width="4" stroke-miterlimit="10"/>
<path d="M0 80.0278H32.6883V108.939H13" fill="white"/>
<path d="M0 80.0278H32.6883V108.939H13" stroke="#C4C4C4" stroke-width="4" stroke-miterlimit="10"/>
<path d="M44.9461 78.239H34.4108C33.4595 78.239 32.6882 79.0112 32.6882 79.9639V108.632C32.6882 109.585 33.4595 110.357 34.4108 110.357H44.9461C45.8974 110.357 46.6687 109.585 46.6687 108.632V79.9639C46.6687 79.0112 45.8974 78.239 44.9461 78.239Z" fill="white" stroke="#C4C4C4" stroke-width="4" stroke-miterlimit="10"/>
<path d="M39.6764 106.788C41.0059 106.788 42.0837 105.708 42.0837 104.377C42.0837 103.046 41.0059 101.966 39.6764 101.966C38.3468 101.966 37.269 103.046 37.269 104.377C37.269 105.708 38.3468 106.788 39.6764 106.788Z" fill="white" stroke="#C4C4C4" stroke-width="3" stroke-miterlimit="10"/>
<path d="M92.523 16.9887H67.5904C66.7636 16.9887 66.0933 17.6599 66.0933 18.4879V26.0947C66.0933 26.9227 66.7636 27.5939 67.5904 27.5939H92.523C93.3498 27.5939 94.0201 26.9227 94.0201 26.0947V18.4879C94.0201 17.6599 93.3498 16.9887 92.523 16.9887Z" fill="white" stroke="#C4C4C4" stroke-width="3" stroke-miterlimit="10"/>
<path d="M61.0533 1.63885H65.1151C65.3268 1.6393 65.5344 1.69792 65.7151 1.80831C65.8959 1.91871 66.0428 2.07665 66.1401 2.26494L68.3178 6.48998C68.4169 6.68216 68.5679 6.8426 68.7535 6.95302C68.9392 7.06345 69.1522 7.11942 69.3681 7.11454C69.584 7.10965 69.7942 7.04411 69.9747 6.9254C70.1552 6.8067 70.2988 6.63959 70.3891 6.44312L72.2903 2.31179C72.3813 2.11055 72.5285 1.93995 72.7142 1.82056C72.8998 1.70116 73.116 1.63805 73.3366 1.63885H75.5228C75.7299 1.63868 75.9331 1.69436 76.1112 1.80003C76.2893 1.90571 76.4357 2.05747 76.535 2.23938L78.9679 6.71145C79.0701 6.89836 79.2221 7.05329 79.4068 7.15907C79.5916 7.26484 79.802 7.31731 80.0147 7.3107C80.2274 7.30408 80.4341 7.23863 80.612 7.12158C80.7898 7.00453 80.9318 6.84047 81.0222 6.64756L83.0596 2.30327C83.1531 2.10458 83.3012 1.93662 83.4865 1.81898C83.6717 1.70134 83.8865 1.63887 84.1059 1.63885H86.3983C86.6339 1.63839 86.8639 1.71048 87.0572 1.84533C87.2504 1.98018 87.3975 2.17128 87.4787 2.39272L89.2183 7.07774C89.2937 7.28051 89.4246 7.45796 89.5959 7.58984C89.7673 7.72172 89.9721 7.80272 90.1872 7.82359C90.4023 7.84446 90.6189 7.80437 90.8123 7.70788C91.0057 7.6114 91.1682 7.46241 91.2811 7.27792L94.4072 2.16699C94.511 1.99952 94.6557 1.86123 94.8276 1.76512C94.9994 1.66901 95.1929 1.61823 95.3897 1.61756H99.3155C99.5154 1.61706 99.7119 1.66862 99.8859 1.76719C100.06 1.86575 100.205 2.00792 100.308 2.17975C100.41 2.35158 100.466 2.54715 100.471 2.74727C100.475 2.94739 100.427 3.14517 100.332 3.3212L92.9399 16.9503H67.1864L60.0324 3.29138C59.949 3.11688 59.9107 2.92417 59.9211 2.73097C59.9315 2.53777 59.9902 2.35029 60.0918 2.18574C60.1934 2.0212 60.3348 1.88487 60.5028 1.78931C60.6708 1.69375 60.8601 1.64201 61.0533 1.63885Z" fill="white" stroke="#C4C4C4" stroke-width="3" stroke-miterlimit="10"/>
</svg>
