<?xml version="1.0" encoding="UTF-8"?><svg class='financing-resource' stroke='currentColor' id="a" xmlns="http://www.w3.org/2000/svg" viewBox="0 0 43.04 43.06"><defs></defs><path stroke='currentColor' fill='currentColor' d="M18.55,21.77v-1.29c.89-.13,1.59-.48,2.09-1.05,.5-.58,.77-1.33,.75-2.09,.03-.66-.19-1.31-.6-1.83-.4-.47-1.15-.86-2.25-1.16v-2.7c.22,.1,.41,.25,.56,.44s.24,.42,.27,.66l1.74-.23c-.09-.63-.38-1.21-.82-1.65-.48-.43-1.1-.7-1.74-.75v-.68h-1v.68c-.72,.05-1.4,.36-1.89,.89-.47,.52-.73,1.2-.71,1.9-.02,.69,.2,1.36,.63,1.9,.42,.52,1.08,.91,1.98,1.17v2.89c-.27-.13-.5-.33-.67-.57-.21-.28-.35-.61-.41-.95l-1.79,.19c.14,.9,.45,1.6,.95,2.1,.52,.51,1.2,.82,1.93,.89v1.26h1Zm-1-7.76c-.26-.1-.5-.28-.67-.51-.14-.2-.22-.43-.22-.68,0-.26,.08-.52,.24-.73,.16-.22,.39-.39,.64-.47v2.38Zm1,2.26c.34,.08,.65,.26,.89,.51,.18,.22,.28,.51,.27,.8,0,.33-.11,.65-.32,.9-.21,.25-.51,.42-.84,.48v-2.68Z"/><path stroke='currentColor' fill='currentColor' d="M30.31,35.75H7.32V7.5l15.77-.18,.19,.2v7.78c0,.32,.26,.59,.59,.59h6.45v4.25l1.17-1.07v-4.57l-7.04-7.46-.13-.15s-.05-.05-.08-.07l-.65-.69-17.44,.2v30.58H31.48v-9.14l-1.17,1.29v6.67Zm-5.86-21.03v-5.85l4.97,5.85h-4.97Z"/><polygon stroke='currentColor' fill='currentColor' points="9.82 27.41 9.82 29.36 19.26 29.36 17.49 27.41 9.82 27.41"/><polygon fill='currentColor'  stroke='currentColor' points="9.82 32.15 21.8 32.15 20.03 30.2 9.82 30.2 9.82 32.15"/><path stroke='currentColor' fill='currentColor' d="M34.46,17.93l-2.98,2.73-1.17,1.07-5.63,5.15-3.59-4.3-3.2,3.53,1.18,1.3,1.77,1.95,.76,.84,1.77,1.95,1.28,1.41,1.28-1.41,.25-.27,2.29-2.52,.15-.17,1.69-1.86,1.17-1.29,5.15-5.68-2.17-2.43Zm-3.65,7.5l-1.17,1.29-1.69,1.86-.15,.17-2.29,2.52-.25,.27-.6,.67-.6-.67-1.77-1.95-.76-.84-1.77-1.95-.62-.69,1.94-2.14,2.92,3.49,.61,.73,.7-.64,5.63-5.15,1.17-1.07,2.3-2.1,1.01,1.13-4.6,5.07Z"/><polygon stroke='currentColor' points="17.1 26.11 17.1 26.11 17.1 26.11 17.1 26.11"/></svg>