<svg width="39" height="52" viewBox="0 0 39 52" fill="none" xmlns="http://www.w3.org/2000/svg">
<g clip-path="url(#clip0_1_26122)">
<path d="M13.8322 25.5393L0.373291 18.5627L13.843 12.7573L27.2912 18.6043L13.8322 25.5393Z" fill="none"/>
<path d="M13.8322 25.8716C13.7792 25.8718 13.7268 25.8593 13.6796 25.835L0.220635 18.8576C0.164867 18.8287 0.118439 18.7845 0.0867206 18.7302C0.0550024 18.6759 0.0393026 18.6137 0.0414548 18.5508C0.043592 18.4878 0.0636058 18.4266 0.099156 18.3745C0.134706 18.3224 0.184318 18.2815 0.242204 18.2566L13.7119 12.452C13.7535 12.4341 13.7982 12.4248 13.8434 12.4248C13.8886 12.4248 13.9334 12.4341 13.9749 12.452L27.4231 18.2998C27.4808 18.3248 27.5302 18.3658 27.5656 18.4179C27.601 18.47 27.6209 18.5311 27.623 18.5941C27.6249 18.6569 27.609 18.719 27.5772 18.7731C27.5453 18.8273 27.4988 18.8712 27.443 18.9L13.984 25.835C13.9372 25.8594 13.885 25.8719 13.8322 25.8716ZM1.14894 18.5899L13.8331 25.165L26.5163 18.6298L13.8422 13.1195L1.14894 18.5899Z" fill="currentColor" stroke="currentColor"/>
<path d="M27.2912 19.1484V42.5895C27.2912 42.8926 27.2124 43.1905 27.0626 43.4539C26.9128 43.7173 26.697 43.937 26.4367 44.0915L13.8422 51.5652L1.22858 44.0882C0.967977 43.9337 0.752032 43.7139 0.602051 43.4504C0.45207 43.1868 0.373226 42.8887 0.373291 42.5853V19.1484L13.8422 26.1874L27.2912 19.1484Z" fill="none"/>
<path d="M13.8422 52L1.03691 44.41C0.720569 44.2214 0.458535 43.9537 0.276468 43.6331C0.0944018 43.3125 -0.00145616 42.9501 -0.00170898 42.5812V18.5317L13.8405 25.7635L27.6628 18.5317V42.587C27.6619 42.9549 27.566 43.3163 27.3842 43.6359C27.2025 43.9555 26.9412 44.2225 26.6258 44.4108L13.8422 52ZM0.746565 19.7653V42.5854C0.747 42.8236 0.809152 43.0576 0.92694 43.2645C1.04473 43.4714 1.21412 43.6441 1.41852 43.7657L13.8422 51.1306L26.2467 43.7666C26.4508 43.6447 26.6199 43.4719 26.7375 43.265C26.8551 43.0581 26.9172 42.8243 26.9178 42.5862V19.7661L13.8422 26.6081L0.746565 19.7653Z" fill="currentColor" stroke="currentColor"/>
<path d="M13.8815 46.7118C13.823 46.7118 13.767 46.6802 13.7257 46.6239C13.6844 46.5676 13.6611 46.4912 13.6611 46.4115V28.9444C13.6611 28.9049 13.6667 28.8658 13.6778 28.8293C13.6888 28.7928 13.7051 28.7597 13.7255 28.7318C13.746 28.7039 13.7703 28.6818 13.7971 28.6667C13.8238 28.6517 13.8525 28.644 13.8815 28.644C13.9104 28.644 13.9391 28.6517 13.9659 28.6667C13.9926 28.6818 14.0169 28.7039 14.0374 28.7318C14.0579 28.7597 14.0741 28.7928 14.0852 28.8293C14.0962 28.8658 14.1019 28.9049 14.1018 28.9444V46.4115C14.1018 46.4912 14.0786 46.5676 14.0373 46.6239C13.996 46.6802 13.9399 46.7118 13.8815 46.7118Z" fill="currentColor"/>
<path d="M13.8815 46.7118C13.823 46.7118 13.767 46.6802 13.7257 46.6239C13.6844 46.5676 13.6611 46.4912 13.6611 46.4115V28.9444C13.6611 28.9049 13.6667 28.8658 13.6778 28.8293C13.6888 28.7928 13.7051 28.7597 13.7255 28.7318C13.746 28.7039 13.7703 28.6818 13.7971 28.6667C13.8238 28.6517 13.8525 28.644 13.8815 28.644C13.9104 28.644 13.9391 28.6517 13.9659 28.6667C13.9926 28.6818 14.0169 28.7039 14.0374 28.7318C14.0579 28.7597 14.0741 28.7928 14.0852 28.8293C14.0962 28.8658 14.1019 28.9049 14.1018 28.9444V46.4115C14.1018 46.4912 14.0786 46.5676 14.0373 46.6239C13.996 46.6802 13.9399 46.7118 13.8815 46.7118Z" stroke="currentColor"/>
<path d="M33.659 43.7141C33.847 43.8644 34.026 44.0256 34.1949 44.1971C34.7474 44.8238 34.7267 45.6783 34.1485 46.2752C33.7412 46.6983 33.3247 47.1131 32.9041 47.522C32.3052 48.1105 31.3238 48.1371 30.7597 47.522C30.4179 47.1471 30.1533 47.1064 29.6813 47.3067C29.2092 47.5071 29.0242 47.7024 29.0549 48.2377C29.1022 49.0632 28.4635 49.6991 27.6347 49.734C26.9984 49.7614 26.3597 49.7622 25.7267 49.734C24.8756 49.6966 24.299 49.069 24.2891 48.2103C24.2816 47.5844 24.2609 47.6284 23.7283 47.3433C23.2579 47.0939 22.9568 47.1289 22.5776 47.537C22.0044 48.1554 21.0388 48.1006 20.4365 47.5037C20.0475 47.118 19.6592 46.7323 19.2751 46.34C18.6015 45.6559 18.5982 44.7606 19.2668 44.0824C19.3987 43.9477 19.5414 43.823 19.6816 43.6942C19.5265 43.3143 19.3896 42.9544 19.2312 42.6036C19.2066 42.5669 19.1743 42.5359 19.1367 42.5128C19.099 42.4897 19.0568 42.475 19.013 42.4697C18.7766 42.444 18.5335 42.4697 18.2987 42.4323C17.9401 42.3837 17.6117 42.2052 17.3753 41.9307C17.1389 41.6562 17.0109 41.3045 17.0154 40.9419C17.0104 40.36 17.0154 39.7848 17.0154 39.2063C17.0154 38.3102 17.6624 37.6211 18.5526 37.6635C19.0428 37.6876 19.2328 37.5288 19.4236 37.0816C19.6335 36.5945 19.6202 36.3052 19.2104 35.9353C18.6007 35.3859 18.6297 34.4441 19.2055 33.8398C19.5688 33.4574 19.9703 33.11 20.3162 32.7135C20.9334 32.0061 22.0285 31.908 22.727 32.6943C22.9933 32.9944 23.1816 32.9661 23.5375 32.8506C24.1231 32.6611 24.3455 32.3793 24.328 31.7467C24.3056 30.9678 24.9038 30.4334 25.6811 30.4167C26.4584 30.4001 27.2133 30.4034 27.979 30.3984C28.3938 30.3984 28.631 30.6553 28.8276 30.9695C29.0707 31.3594 29.1072 31.8007 29.0765 32.2388C29.0607 32.4608 29.118 32.5813 29.3486 32.647C29.6055 32.7246 29.8539 32.8279 30.0902 32.9553C30.2454 33.0385 30.3391 33.0077 30.447 32.8855C30.7572 32.5455 31.0824 32.228 31.5777 32.1657C32.0945 32.1 32.5433 32.2205 32.9158 32.5921C33.3115 32.9853 33.7072 33.3784 34.0987 33.7749C34.7574 34.4399 34.7624 35.346 34.1078 36.0127C33.9685 36.1548 33.8133 36.2795 33.6814 36.3975C33.8407 36.7957 33.9726 37.1456 34.1286 37.4898C34.1549 37.5305 34.1896 37.5651 34.2304 37.5912C34.2712 37.6173 34.3171 37.6343 34.365 37.6411C34.6139 37.6701 34.8628 37.6411 35.1075 37.6826C35.4496 37.7368 35.7618 37.91 35.9893 38.1717C36.2168 38.4334 36.3452 38.767 36.3518 39.114C36.3684 39.7383 36.3701 40.3609 36.3518 40.9876C36.3286 41.8313 35.6666 42.4406 34.7823 42.4614C34.1825 42.4756 34.1858 42.4764 33.9577 43.0433C33.8781 43.2544 33.7802 43.4498 33.659 43.7141Z" fill="white"/>
<path d="M26.6781 51.4207C26.3364 51.4207 25.9954 51.4132 25.6586 51.3991C24.3246 51.3409 23.2636 50.5379 22.8381 49.3692C22.4585 49.5417 22.0478 49.6348 21.631 49.6427C21.1949 49.6487 20.7619 49.5675 20.3574 49.4039C19.9529 49.2404 19.5849 48.9977 19.2751 48.6901C18.9001 48.3193 18.4986 47.9203 18.0987 47.5147C17.0866 46.4881 16.8544 45.1041 17.3994 43.9129C16.8003 43.6869 16.2842 43.2835 15.9195 42.7564C15.5548 42.2293 15.3589 41.6034 15.3578 40.962C15.3578 40.4175 15.3578 39.8689 15.3578 39.3386V39.2081C15.3536 38.7682 15.4391 38.3321 15.609 37.9265C15.7789 37.5208 16.0296 37.1542 16.3458 36.849C16.6436 36.5651 16.9958 36.3448 17.3811 36.2015C17.2158 35.8391 17.1234 35.4476 17.109 35.0494C17.0954 34.6184 17.1676 34.1889 17.3214 33.7862C17.4752 33.3834 17.7076 33.0154 18.005 32.7036C18.1775 32.5224 18.3484 32.357 18.5127 32.1966C18.7167 31.9987 18.91 31.8117 19.0685 31.6297C19.3745 31.2758 19.7522 30.9912 20.1764 30.7948C20.6006 30.5985 21.0617 30.4949 21.529 30.4909C21.9749 30.4876 22.4165 30.5788 22.8248 30.7585C22.9579 30.3657 23.1744 30.0063 23.4594 29.7053C23.7426 29.4112 24.0813 29.1763 24.4558 29.0143C24.8304 28.8524 25.2333 28.7665 25.6412 28.7619C26.1895 28.7486 26.7379 28.7469 27.2671 28.7461C27.5019 28.7461 27.7358 28.7461 27.9698 28.7461H27.9872C28.6326 28.7461 29.5393 28.983 30.2362 30.0985C30.3648 30.3043 30.4698 30.524 30.5489 30.7535C30.8103 30.6385 31.0869 30.5617 31.3702 30.5258C32.4237 30.3936 33.3611 30.7037 34.0854 31.4227L34.2339 31.5706C34.5765 31.9115 34.9315 32.2639 35.2791 32.6172C36.2895 33.6421 36.5235 35.0278 35.9726 36.2115C36.5584 36.4326 37.0652 36.8233 37.4285 37.3341C37.7918 37.8448 37.9951 38.4523 38.0126 39.0793C38.0308 39.7509 38.0308 40.4092 38.0126 41.0435C37.9979 41.6714 37.7955 42.2804 37.4315 42.7917C37.0675 43.303 36.5587 43.693 35.971 43.9113C36.5086 45.075 36.2953 46.4474 35.343 47.4357C34.9788 47.8139 34.5856 48.2096 34.0696 48.7175C33.7602 49.021 33.3933 49.2593 32.9905 49.4183C32.5877 49.5773 32.1572 49.6539 31.7244 49.6435C31.3161 49.6333 30.9139 49.5427 30.5406 49.3767C30.4073 49.7429 30.2041 50.0798 29.9425 50.3683C29.6586 50.6809 29.3151 50.9333 28.9323 51.1106C28.5494 51.288 28.135 51.3866 27.7134 51.4007C27.3678 51.414 27.0227 51.4207 26.6781 51.4207ZM25.9498 48.0824C26.4318 48.0999 26.9162 48.0999 27.3999 48.0824C27.4173 47.0068 27.969 46.2312 29.0424 45.7766C30.3399 45.2279 31.2607 45.6934 31.8381 46.2487C32.2437 45.8481 32.5672 45.523 32.8642 45.2171L32.7713 45.139C32.6992 45.0791 32.627 45.0185 32.5565 44.9561L31.6439 44.139L32.1541 43.021L32.2744 42.7625C32.3383 42.6278 32.3881 42.5223 32.4246 42.43V42.4208C32.5905 42.0094 32.7771 41.5422 33.2848 41.1873C33.7925 40.8323 34.2853 40.8165 34.6993 40.8066C34.71 40.3286 34.71 39.8315 34.6993 39.3261H34.6835C34.5128 39.3266 34.3422 39.3177 34.1725 39.2995C33.8413 39.2601 33.5255 39.1376 33.254 38.9435C32.9826 38.7494 32.7644 38.4899 32.6195 38.189C32.4876 37.8997 32.3789 37.6229 32.2628 37.3303C32.2238 37.2314 32.184 37.13 32.1425 37.0261L31.707 35.9455L32.5747 35.1674C32.6228 35.1242 32.6734 35.0843 32.7249 35.0361C32.7763 34.9879 32.8302 34.9447 32.8725 34.9056C32.5498 34.5789 32.218 34.2481 31.8961 33.928L31.8231 33.8557C31.7866 33.8915 31.7402 33.9389 31.6705 34.0162C31.0458 34.7011 30.1482 34.864 29.3303 34.4418C29.1919 34.3658 29.0466 34.3032 28.8964 34.2547C27.9275 33.9804 27.3493 33.1458 27.4223 32.1284C27.4223 32.1085 27.4223 32.0893 27.4223 32.0719H27.2721C26.8449 32.0719 26.4069 32.0719 25.9763 32.0819C25.9116 32.9638 25.4894 33.9754 24.0467 34.4434C23.6685 34.5664 22.5286 34.9363 21.529 33.8616C21.2909 34.13 21.0512 34.3603 20.8189 34.5889C20.7094 34.6953 20.604 34.7967 20.5061 34.8964C21.0661 35.4883 21.5165 36.4259 20.9458 37.7534C20.4987 38.795 19.7338 39.327 18.6728 39.3394V39.3536C18.6728 39.8299 18.6728 40.3211 18.6728 40.8032H18.7101C18.842 40.8032 19.0054 40.8074 19.1896 40.8274C19.5205 40.8629 19.8368 40.9827 20.1085 41.1754C20.3802 41.368 20.5982 41.6271 20.7417 41.9279C20.8745 42.2213 20.9906 42.5098 21.1034 42.7932C21.1407 42.8872 21.1789 42.9819 21.2179 43.0784L21.6476 44.1374L20.818 44.9187L20.6712 45.0534C20.6082 45.1116 20.5476 45.1673 20.4954 45.2196C20.8438 45.5721 21.1963 45.9229 21.529 46.2529C22.3818 45.4482 23.4312 45.3144 24.5071 45.8821L24.6108 45.9362C25.5673 46.4283 25.9158 46.9802 25.9498 48.0824Z" fill="none"/>
<path d="M33.659 43.7141C33.847 43.8644 34.026 44.0256 34.1949 44.1971C34.7474 44.8238 34.7267 45.6783 34.1485 46.2752C33.7412 46.6983 33.3247 47.1131 32.9041 47.522C32.3052 48.1105 31.3238 48.1371 30.7597 47.522C30.4179 47.1471 30.1533 47.1064 29.6813 47.3067C29.2092 47.5071 29.0242 47.7024 29.0549 48.2377C29.1022 49.0632 28.4635 49.6991 27.6347 49.734C26.9984 49.7614 26.3597 49.7622 25.7267 49.734C24.8756 49.6966 24.299 49.069 24.2891 48.2103C24.2816 47.5844 24.2609 47.6284 23.7283 47.3433C23.2579 47.0939 22.9568 47.1289 22.5776 47.537C22.0044 48.1554 21.0388 48.1006 20.4365 47.5037C20.0475 47.118 19.6592 46.7323 19.2751 46.34C18.6015 45.6559 18.5982 44.7606 19.2668 44.0824C19.3987 43.9477 19.5414 43.823 19.6816 43.6942C19.5265 43.3143 19.3896 42.9544 19.2312 42.6036C19.2066 42.5669 19.1743 42.5359 19.1367 42.5128C19.099 42.4897 19.0568 42.475 19.013 42.4697C18.7766 42.444 18.5335 42.4697 18.2987 42.4323C17.9401 42.3837 17.6117 42.2052 17.3753 41.9307C17.1389 41.6562 17.0109 41.3045 17.0154 40.9419C17.0104 40.36 17.0154 39.7848 17.0154 39.2063C17.0154 38.3102 17.6624 37.6211 18.5526 37.6635C19.0428 37.6876 19.2328 37.5288 19.4236 37.0816C19.6335 36.5945 19.6202 36.3052 19.2104 35.9353C18.6007 35.3859 18.6297 34.4441 19.2055 33.8398C19.5688 33.4574 19.9703 33.11 20.3162 32.7135C20.9334 32.0061 22.0285 31.908 22.727 32.6943C22.9933 32.9944 23.1816 32.9661 23.5375 32.8506C24.1231 32.6611 24.3455 32.3793 24.328 31.7467C24.3056 30.9678 24.9038 30.4334 25.6811 30.4167C26.4584 30.4001 27.2133 30.4034 27.979 30.3984C28.3938 30.3984 28.631 30.6553 28.8276 30.9695C29.0707 31.3594 29.1072 31.8007 29.0765 32.2388C29.0607 32.4608 29.118 32.5813 29.3486 32.647C29.6055 32.7246 29.8539 32.8279 30.0902 32.9553C30.2454 33.0385 30.3391 33.0077 30.447 32.8855C30.7572 32.5455 31.0824 32.228 31.5777 32.1657C32.0945 32.1 32.5433 32.2205 32.9158 32.5921C33.3115 32.9853 33.7072 33.3784 34.0987 33.7749C34.7574 34.4399 34.7624 35.346 34.1078 36.0127C33.9685 36.1548 33.8133 36.2795 33.6814 36.3975C33.8407 36.7957 33.9726 37.1456 34.1286 37.4898C34.1549 37.5305 34.1896 37.5651 34.2304 37.5912C34.2712 37.6173 34.3171 37.6343 34.365 37.6411C34.6139 37.6701 34.8628 37.6411 35.1075 37.6826C35.4496 37.7368 35.7618 37.91 35.9893 38.1717C36.2168 38.4334 36.3452 38.767 36.3518 39.114C36.3684 39.7383 36.3701 40.3609 36.3518 40.9876C36.3286 41.8313 35.6666 42.4406 34.7823 42.4614C34.1825 42.4756 34.1858 42.4764 33.9577 43.0433C33.8781 43.2544 33.7802 43.4498 33.659 43.7141ZM27.7998 31.7027C27.1079 31.7027 26.4916 31.711 25.8752 31.6985C25.6346 31.6927 25.5591 31.7908 25.5658 32.0152C25.5741 32.3435 25.5699 32.6727 25.5658 33.0019C25.5591 33.3718 25.3999 33.548 25.0539 33.6802C24.4815 33.8996 23.9133 34.134 23.3541 34.3867C22.99 34.553 22.7436 34.5364 22.4607 34.2571C22.2118 34.0127 21.963 33.7675 21.7232 33.5164C21.6013 33.3909 21.4934 33.3851 21.3681 33.5089C20.9733 33.9018 20.5767 34.2931 20.1785 34.6827C20.0234 34.8339 20.0375 34.9719 20.1852 35.1182C20.4341 35.3626 20.6829 35.607 20.921 35.8589C21.1748 36.1257 21.1831 36.3676 21.033 36.7051C20.778 37.2764 20.5383 37.8536 20.3138 38.4366C20.1835 38.769 19.9944 38.9419 19.6318 38.9478C19.2934 38.9528 18.9549 38.9544 18.6173 38.9478C18.4024 38.9428 18.3045 39.0367 18.3054 39.2487C18.3054 39.7873 18.3103 40.3293 18.3054 40.8638C18.3054 41.0982 18.4207 41.1797 18.6372 41.1747C18.9557 41.1672 19.2743 41.1747 19.592 41.1747C20.0068 41.1747 20.1802 41.3409 20.3262 41.7341C20.5319 42.2919 20.7626 42.8421 21.0123 43.3816C21.1848 43.7532 21.1782 43.9959 20.8837 44.296C20.6547 44.5312 20.4224 44.764 20.1843 44.9909C20.0292 45.1389 20.0267 45.2735 20.1777 45.424C20.5668 45.8097 20.9558 46.1954 21.3391 46.5877C21.4843 46.7365 21.6046 46.7249 21.7415 46.5827C21.9629 46.3533 22.1894 46.1289 22.4159 45.9044C22.756 45.5678 22.98 45.5586 23.4039 45.7581C23.9315 46.0075 24.474 46.2286 25.0224 46.4306C25.399 46.5694 25.5666 46.7448 25.5699 47.1438C25.5699 47.453 25.5749 47.7623 25.5641 48.0707C25.5533 48.3441 25.6545 48.4771 25.944 48.4705C26.4418 48.4588 26.9395 48.4613 27.4373 48.4705C27.6861 48.4746 27.804 48.3666 27.7998 48.1139C27.794 47.7814 27.7998 47.4564 27.7998 47.128C27.7998 46.7772 27.9599 46.5711 28.2718 46.4497C28.8708 46.2153 29.4656 45.9701 30.0562 45.7141C30.3881 45.5694 30.6278 45.5944 30.8933 45.8554C31.1421 46.0998 31.391 46.3442 31.6341 46.5919C31.761 46.7207 31.8746 46.7432 32.0123 46.601C32.4022 46.202 32.7988 45.8097 33.192 45.4148C33.3297 45.2768 33.3355 45.1505 33.187 45.0067C32.944 44.7723 32.7142 44.5237 32.4769 44.2835C32.1949 43.9984 32.1783 43.7615 32.3467 43.3949C32.6022 42.8363 32.8444 42.2694 33.0609 41.695C33.2003 41.3301 33.3629 41.178 33.7553 41.1747C34.0937 41.1713 34.4322 41.1713 34.7707 41.1747C34.9689 41.1747 35.0643 41.0816 35.0643 40.8846C35.0643 40.337 35.0643 39.7887 35.0643 39.2395C35.0643 39.0417 34.9706 38.9478 34.7715 38.9503C34.4629 38.9503 34.1543 38.9503 33.8465 38.9503C33.3488 38.9503 33.1879 38.8015 33.0228 38.3435C32.8278 37.8023 32.6038 37.2703 32.3591 36.75C32.1774 36.3634 32.1874 36.119 32.4927 35.8073C32.7084 35.5862 32.9199 35.361 33.1472 35.1523C33.3231 34.9911 33.3455 34.8547 33.1655 34.6802C32.7805 34.3053 32.4023 33.9221 32.0281 33.5364C31.8871 33.3917 31.7693 33.3843 31.6274 33.5364C31.4151 33.76 31.1911 33.9728 30.9729 34.1914C30.5946 34.5696 30.4005 34.5754 29.9135 34.3377C29.4237 34.0986 28.9204 33.8882 28.4062 33.7076C27.9317 33.5414 27.8006 33.405 27.7998 32.893C27.799 32.5048 27.7998 32.1183 27.7998 31.7027Z" fill="currentColor"/>
<path d="M30.4652 40.0898C30.4656 40.5887 30.3675 41.0827 30.1763 41.5434C29.9851 42.0041 29.7048 42.4222 29.3515 42.7737C28.9981 43.1252 28.5788 43.4031 28.1177 43.5913C27.6566 43.7795 27.1628 43.8743 26.6649 43.8703C25.664 43.8676 24.7051 43.4674 23.9982 42.7573C23.2914 42.0472 22.8945 41.0852 22.8945 40.0823C22.8945 37.9817 24.6059 36.2677 26.6857 36.2794C27.1837 36.2802 27.6767 36.3795 28.1364 36.5716C28.5961 36.7637 29.0134 37.0448 29.3645 37.3988C29.7156 37.7527 29.9935 38.1726 30.1824 38.6344C30.3713 39.0962 30.4674 39.5907 30.4652 40.0898ZM24.182 40.0806C24.184 40.7461 24.4491 41.3838 24.9193 41.8538C25.3895 42.3239 26.0265 42.588 26.6906 42.5885C27.3601 42.5812 27.9993 42.3079 28.4677 41.8286C28.9361 41.3493 29.1954 40.7032 29.1885 40.0324C29.1769 38.6833 28.0271 37.562 26.6591 37.5728C26.0003 37.5811 25.3711 37.8488 24.9076 38.318C24.4441 38.7873 24.1835 39.4204 24.182 40.0806Z" fill="currentColor"/>
<path d="M21.5044 19.75L22 14.75L13.8224 11L5 15L6.88389 20L21.5044 19.75Z" fill="none"/>
<path d="M11.2091 22.3058V7.42905L12.0387 4.35096L11.4065 1.40088H9.24219L8.68555 4.35096L9.51512 7.42905V20.4987" fill="white"/>
<path d="M11.7767 22.4746H10.9762V7.34723C10.9767 7.31868 10.9814 7.29029 10.9902 7.26272L11.9658 4.21274L11.2904 1.5608H9.33522L8.74288 4.20767L9.71946 7.26272C9.72826 7.29029 9.73296 7.31868 9.73345 7.34723V20.6356H8.93298V7.39201L7.94641 4.30654C7.93014 4.25727 7.92773 4.20547 7.9394 4.15528L8.61079 1.15601C8.62826 1.07873 8.67708 1.00902 8.74886 0.958884C8.82064 0.908749 8.91087 0.881329 9.00402 0.881348H11.6146C11.7061 0.881363 11.7949 0.907874 11.8661 0.95647C11.9373 1.00507 11.9866 1.0728 12.0058 1.14839L12.7683 4.14683C12.7834 4.1993 12.7834 4.25407 12.7683 4.30654L11.7807 7.39201L11.7767 22.4746Z" fill="currentColor" stroke="currentColor" stroke-width="0.5"/>
<path d="M16.9677 22.6046H16.3041V8.37125L14.5396 6.87002C14.5034 6.83924 14.4743 6.80106 14.4541 6.75805C14.4339 6.71503 14.4232 6.66817 14.4226 6.62065V4.03548C14.4225 3.96965 14.442 3.90528 14.4785 3.85053C14.5149 3.79577 14.5668 3.75311 14.6275 3.72793C14.6882 3.70278 14.7549 3.69622 14.8193 3.7091C14.8837 3.72197 14.9428 3.75369 14.9892 3.80025L16.9686 5.78359H18.6468L19.8389 4.4536V2.60326L17.531 0.584998C17.48 0.54053 17.4438 0.481518 17.4272 0.415858C17.4106 0.350198 17.4144 0.28102 17.4381 0.217586C17.4618 0.154079 17.5043 0.0993415 17.5599 0.0607132C17.6155 0.022085 17.6815 0.00141408 17.7492 0.00146494H20.4436C20.5328 0.00194289 20.6181 0.0378191 20.6809 0.10122L22.3956 1.85514C22.4563 1.91734 22.4903 2.00089 22.4902 2.08788V6.14601C22.4897 6.19347 22.4791 6.24028 22.4591 6.2833C22.439 6.32631 22.41 6.36453 22.374 6.39538L20.0288 8.41114V20.603H19.3652V8.2582C19.3657 8.21073 19.3763 8.16391 19.3963 8.1209C19.4163 8.07788 19.4453 8.03968 19.4813 8.00883L21.8332 5.99472V2.22504L20.3076 0.668123H18.6352L20.3889 2.19844C20.4244 2.22952 20.453 2.26784 20.4726 2.31084C20.4922 2.35384 20.5024 2.40054 20.5025 2.44781V4.57496C20.503 4.65664 20.4735 4.73565 20.4196 4.79691L19.0441 6.33387C19.0128 6.36888 18.9745 6.39684 18.9316 6.4159C18.8887 6.43496 18.8422 6.44467 18.7953 6.44442H16.8309C16.7872 6.44435 16.744 6.43564 16.7037 6.41881C16.6634 6.40198 16.6269 6.37736 16.5961 6.34634L15.0863 4.83347V6.46271L16.8499 7.96393C16.8862 7.99463 16.9155 8.03277 16.9359 8.0758C16.9562 8.11882 16.9671 8.16571 16.9677 8.21331V22.6046Z" fill="currentColor" stroke="currentColor" stroke-width="0.5"/>
</g>
<defs>
<clipPath id="clip0_1_26122">
<rect width="38.025" height="52" fill="none"/>
</clipPath>
</defs>
</svg>
