<svg width="35" height="32" viewBox="0 0 35 32" fill="none" xmlns="http://www.w3.org/2000/svg">
<path d="M20.9988 26.1339L18.4818 30.3289C18.361 30.5303 18.1901 30.6969 17.9858 30.8126C17.7815 30.9283 17.5507 30.9891 17.3159 30.9891C17.0811 30.9891 16.8503 30.9283 16.646 30.8126C16.4417 30.6969 16.2708 30.5303 16.15 30.3289L13.633 26.1339C13.5122 25.9326 13.3413 25.766 13.137 25.6503C12.9327 25.5346 12.7019 25.4738 12.4671 25.4738H2.35966C1.99906 25.4738 1.65322 25.3306 1.39824 25.0756C1.14325 24.8206 1 24.4747 1 24.1141V2.35966C1 1.99906 1.14325 1.65322 1.39824 1.39824C1.65322 1.14325 1.99906 1 2.35966 1H32.2722C32.6328 1 32.9786 1.14325 33.2336 1.39824C33.4886 1.65322 33.6318 1.99906 33.6318 2.35966V24.1142C33.6318 24.4748 33.4886 24.8207 33.2336 25.0756C32.9786 25.3306 32.6328 25.4739 32.2722 25.4739L22.1647 25.4738C21.9299 25.4738 21.6991 25.5346 21.4948 25.6503C21.2905 25.766 21.1196 25.9326 20.9988 26.1339V26.1339Z" stroke="white" stroke-width="2" stroke-linecap="round" stroke-linejoin="round"/>
<path d="M17.3539 6.83105L18.8501 11.4359H23.692L19.7749 14.2819L21.2711 18.8868L17.3539 16.0408L13.4368 18.8868L14.933 14.2819L11.0159 11.4359H15.8577L17.3539 6.83105Z" fill="white"/>
</svg>
