<svg width="30" height="30" viewBox="0 0 32 32" fill="none" xmlns="http://www.w3.org/2000/svg">
<g opacity="1">
<path d="M16.0125 21.5166C19.8046 20.7642 22.2688 17.0802 21.5165 13.2882C20.7641 9.49607 17.0801 7.03188 13.288 7.78423C9.49596 8.53658 7.03178 12.2206 7.78413 16.0127C8.53648 19.8047 12.2205 22.2689 16.0125 21.5166Z" stroke="white" stroke-width="1.5" stroke-linecap="round" stroke-linejoin="round"/>
<path d="M25.2455 11.529L26.1331 9.38269C26.1913 9.24423 26.2182 9.09467 26.212 8.94463C26.2058 8.79459 26.1667 8.64775 26.0974 8.51454C25.7032 7.77678 25.2382 7.07911 24.7089 6.43139C24.6127 6.31648 24.4923 6.22423 24.3564 6.16122C24.2204 6.09821 24.0722 6.06601 23.9223 6.0669L21.5974 6.06328L19.935 4.95134L19.0441 2.80384C18.9877 2.66498 18.9013 2.54028 18.7912 2.43865C18.681 2.33701 18.5498 2.26096 18.4069 2.21591C17.6061 1.97408 16.7837 1.81071 15.9514 1.72808C15.8018 1.71487 15.6511 1.73475 15.5101 1.78631C15.3691 1.83788 15.2411 1.91986 15.1353 2.02643L13.4906 3.66615L11.5288 4.05536L9.3826 3.16777C9.24414 3.10966 9.09459 3.08273 8.94455 3.08892C8.79451 3.0951 8.64768 3.13425 8.51447 3.20356C7.77669 3.59771 7.07899 4.06266 6.43122 4.59187C6.3163 4.68808 6.22403 4.80849 6.16102 4.94448C6.09801 5.08048 6.0658 5.22871 6.0667 5.37859L6.06318 7.7034L4.95115 9.3659L2.80375 10.2567C2.66488 10.3131 2.54018 10.3994 2.43855 10.5096C2.33691 10.6197 2.26086 10.751 2.2158 10.8939C1.97392 11.6947 1.81049 12.5171 1.72784 13.3495C1.71463 13.4991 1.73452 13.6497 1.78609 13.7907C1.83765 13.9318 1.91963 14.0597 2.02621 14.1655L3.66593 15.8103L4.05514 17.772L3.16755 19.9182C3.10943 20.0567 3.08251 20.2062 3.0887 20.3563C3.09488 20.5063 3.13402 20.6531 3.20334 20.7863C3.59745 21.5242 4.06241 22.2219 4.59165 22.8697C4.68786 22.9846 4.80826 23.0768 4.94425 23.1398C5.08023 23.2028 5.22845 23.235 5.37832 23.2341L7.70333 23.2377L9.36568 24.3497L10.2565 26.4972C10.3129 26.6361 10.3993 26.7608 10.5094 26.8624C10.6196 26.964 10.7508 27.0401 10.8937 27.0852C11.6944 27.327 12.5168 27.4904 13.3492 27.573C13.4987 27.5862 13.6494 27.5663 13.7904 27.5148C13.9314 27.4632 14.0594 27.3812 14.1651 27.2747L15.8101 25.6349L17.7718 25.2457L19.9181 26.1334C20.0566 26.1915 20.2062 26.2184 20.3562 26.2122C20.5062 26.206 20.6531 26.1669 20.7863 26.0976C21.524 25.7035 22.2217 25.2385 22.8695 24.7093C22.9844 24.6131 23.0766 24.4927 23.1396 24.3567C23.2026 24.2207 23.2348 24.0725 23.2339 23.9226L23.2375 21.5976L24.3494 19.9351L26.497 19.0443C26.6358 18.9879 26.7605 18.9016 26.8622 18.7914C26.9638 18.6813 27.0399 18.55 27.0849 18.4071C27.3268 17.6064 27.4902 16.784 27.5729 15.9517C27.5861 15.8021 27.5662 15.6514 27.5147 15.5104C27.4631 15.3694 27.3811 15.2414 27.2745 15.1356L25.6347 13.4908L25.2455 11.529Z" stroke="white" stroke-width="1.5" stroke-linecap="round" stroke-linejoin="round"/>
</g>
</svg>
