<svg width="31" height="28" viewBox="0 0 31 28" fill="none" xmlns="http://www.w3.org/2000/svg">
<path opacity="1" d="M15.5 27C15.5 27 1 18.7273 1 8.68183C1.0003 6.90634 1.60415 5.18576 2.70889 3.81261C3.81363 2.43946 5.35107 1.49851 7.05982 1.14972C8.76857 0.800934 10.5431 1.06585 12.0818 1.89942C13.6205 2.733 14.8284 4.08378 15.5 5.72211L15.5 5.72212C16.1716 4.08379 17.3794 2.73301 18.9181 1.89943C20.4568 1.06585 22.2314 0.800935 23.9402 1.14972C25.6489 1.49851 27.1864 2.43946 28.2911 3.81261C29.3959 5.18576 29.9997 6.90634 30 8.68183C30 18.7273 15.5 27 15.5 27Z" stroke="white" stroke-width="2" stroke-linecap="round" stroke-linejoin="round"/>
</svg>
