<svg width="138" height="152" viewBox="0 0 138 152" fill="none" xmlns="http://www.w3.org/2000/svg">
<path d="M130.138 150.441H8.11651C6.31871 150.441 4.59454 149.787 3.3233 148.623C2.05206 147.46 1.33789 145.881 1.33789 144.235V7.71616C1.33789 6.07038 2.05206 4.49201 3.3233 3.32827C4.59454 2.16453 6.31871 1.51074 8.11651 1.51074H89.4665L113.192 23.2297L136.917 44.9487V144.235C136.917 145.05 136.742 145.857 136.401 146.61C136.06 147.363 135.561 148.047 134.931 148.623C134.302 149.2 133.555 149.657 132.732 149.968C131.91 150.28 131.028 150.441 130.138 150.441Z" stroke="white" stroke-width="2" stroke-linecap="round" stroke-linejoin="round"/>
<path d="M86.0747 6.82959V49.3811H131.268" stroke="white" stroke-width="2" stroke-linecap="round" stroke-linejoin="round"/>
<path d="M110.936 102.109C110.345 102.44 108.657 102.644 107.588 102.644C104.1 102.644 99.8232 101.191 93.7744 98.8475C96.1095 98.6946 98.2196 98.6182 100.133 98.6182C103.621 98.6182 104.634 98.6182 108.066 99.408C111.499 100.198 111.499 101.777 110.936 102.109ZM50.42 102.593C51.7704 100.453 53.149 98.1851 54.5557 95.7648C57.2884 91.1312 59.7032 86.3494 61.7861 81.4468C64.8336 86.5528 68.8858 91.1116 73.743 94.8986C74.3338 95.3571 74.9528 95.7902 75.628 96.2488C66.0343 97.9813 57.7348 100.07 50.42 102.593ZM61.6173 46.8237C63.5304 46.8237 64.6276 51.1701 64.712 55.2718C64.7965 59.3736 63.7555 62.2015 62.4332 64.3416C61.336 61.1825 60.8296 56.24 60.8296 53.0044C60.8296 53.0044 60.7452 46.8237 61.6173 46.8237ZM24.0866 125.089C25.1839 122.414 29.4602 117.114 35.7904 112.401C36.1842 112.121 37.1689 111.28 38.0692 110.516C31.4577 120.095 27.0126 123.891 24.0866 125.089ZM112.765 96.4781C110.852 94.7712 106.575 93.8795 100.105 93.8031C95.7156 93.7521 90.4546 94.1088 84.8841 94.7967C82.4083 93.4973 79.8481 92.0961 77.8225 90.3891C72.4207 85.8033 67.9193 79.4596 65.1059 72.4789C65.2747 71.8165 65.4435 71.256 65.5842 70.6701C65.5842 70.6701 68.6227 55.0018 67.8068 49.7026C67.7519 49.1876 67.6194 48.6819 67.4129 48.1995L67.1597 47.5625C66.3438 45.8403 64.712 43.9958 62.1519 44.1053L60.6608 44.062H60.6326C57.7911 44.062 55.456 45.3792 54.8652 47.3332C53.0083 53.5241 54.9214 62.7467 58.3819 74.6954L57.4816 76.6571C55.0058 82.1092 51.9111 87.6122 49.1821 92.4528L48.8164 93.0897C45.9467 98.1851 43.3302 102.516 40.967 106.185L38.5193 107.357C38.3505 107.459 34.1586 109.446 33.1739 109.981C24.8462 114.49 19.3095 119.611 18.3923 123.687C18.111 124.961 18.3192 126.617 19.799 127.407L22.1623 128.477C23.1611 128.928 24.2618 129.164 25.378 129.165C31.3142 129.165 38.2071 122.49 47.6882 107.484C58.9223 104.188 70.429 101.708 82.0988 100.07C90.4265 104.325 100.667 107.28 107.138 107.28C108.133 107.297 109.127 107.195 110.092 106.975C111.284 106.726 112.329 106.08 113.018 105.166C114.256 103.459 114.537 101.115 114.172 98.6946C114.087 97.9813 113.44 97.0896 112.765 96.4781Z" fill="white"/>
</svg>
