<svg width="30" height="30" viewBox="0 0 30 42" fill="none" xmlns="http://www.w3.org/2000/svg">
<path d="M20.0899 30.6302V22.4179C20.0899 22.0549 19.9462 21.7068 19.6905 21.4501C19.4348 21.1934 19.0879 21.0492 18.7263 21.0492H13.2717C12.9101 21.0492 12.5632 21.1934 12.3075 21.4501C12.0518 21.7068 11.9081 22.0549 11.9081 22.4179V30.6302C11.9081 30.9932 11.7644 31.3413 11.5088 31.598C11.2531 31.8546 10.9063 31.9989 10.5446 31.9989L2.36381 32C2.18472 32 2.00738 31.9646 1.84191 31.8959C1.67645 31.8271 1.5261 31.7263 1.39946 31.5992C1.27282 31.4721 1.17236 31.3212 1.10382 31.1551C1.03528 30.9891 1 30.8111 1 30.6313V14.8126C1 14.6219 1.0397 14.4333 1.11655 14.259C1.1934 14.0846 1.3057 13.9282 1.44627 13.7999L15.0817 1.35602C15.3327 1.12695 15.6598 1.00001 15.999 1C16.3383 0.999989 16.6653 1.1269 16.9164 1.35596L30.5537 13.7999C30.6942 13.9282 30.8066 14.0846 30.8834 14.259C30.9603 14.4334 31 14.622 31 14.8127V30.6313C31 30.8111 30.9647 30.9891 30.8962 31.1551C30.8276 31.3212 30.7272 31.4721 30.6005 31.5992C30.4739 31.7263 30.3236 31.8271 30.1581 31.8959C29.9926 31.9646 29.8153 32 29.6362 32L21.4534 31.9989C21.0917 31.9989 20.7449 31.8547 20.4892 31.598C20.2336 31.3413 20.0899 30.9932 20.0899 30.6302V30.6302Z" stroke="white" stroke-width="1.5" stroke-linecap="round" stroke-linejoin="round"/>
</svg>
