<svg width="40" height="20" viewBox="0 0 40 20" fill="none" xmlns="http://www.w3.org/2000/svg">
<g opacity="1">
<path d="M8.88786 10.6404C11.5016 10.6404 13.6204 8.48236 13.6204 5.82022C13.6204 3.15809 11.5016 1 8.88786 1C6.27412 1 4.15527 3.15809 4.15527 5.82022C4.15527 8.48236 6.27412 10.6404 8.88786 10.6404Z" fill="#005B70" stroke="white" stroke-width="1.5" stroke-miterlimit="10" stroke-linecap="round"/>
<path d="M1 15.4608C1.74036 14.0104 2.86908 12.7924 4.2612 11.9417C5.65332 11.0909 7.25455 10.6406 8.88763 10.6406C10.5207 10.6406 12.1219 11.0909 13.5141 11.9416C14.9062 12.7924 16.0349 14.0104 16.7753 15.4608" fill="#005B70"/>
<path d="M1 15.4608C1.74036 14.0104 2.86908 12.7924 4.2612 11.9417C5.65332 11.0909 7.25455 10.6406 8.88763 10.6406C10.5207 10.6406 12.1219 11.0909 13.5141 11.9416C14.9062 12.7924 16.0349 14.0104 16.7753 15.4608" stroke="white" stroke-width="1.5" stroke-linecap="round" stroke-linejoin="round"/>
<path d="M30.8879 10.6404C33.5016 10.6404 35.6204 8.48236 35.6204 5.82022C35.6204 3.15809 33.5016 1 30.8879 1C28.2741 1 26.1553 3.15809 26.1553 5.82022C26.1553 8.48236 28.2741 10.6404 30.8879 10.6404Z" fill="#005B70" stroke="white" stroke-width="1.5" stroke-miterlimit="10" stroke-linecap="round"/>
<path d="M23 15.4608C23.7404 14.0104 24.8691 12.7924 26.2612 11.9417C27.6533 11.0909 29.2546 10.6406 30.8876 10.6406C32.5207 10.6406 34.1219 11.0909 35.5141 11.9416C36.9062 12.7924 38.0349 14.0104 38.7753 15.4608" fill="#005B70"/>
<path d="M23 15.4608C23.7404 14.0104 24.8691 12.7924 26.2612 11.9417C27.6533 11.0909 29.2546 10.6406 30.8876 10.6406C32.5207 10.6406 34.1219 11.0909 35.5141 11.9416C36.9062 12.7924 38.0349 14.0104 38.7753 15.4608" stroke="white" stroke-width="1.5" stroke-linecap="round" stroke-linejoin="round"/>
<path d="M19.8879 13.6404C22.5016 13.6404 24.6204 11.4824 24.6204 8.82022C24.6204 6.15809 22.5016 4 19.8879 4C17.2741 4 15.1553 6.15809 15.1553 8.82022C15.1553 11.4824 17.2741 13.6404 19.8879 13.6404Z" fill="#005B70" stroke="white" stroke-width="1.5" stroke-miterlimit="10" stroke-linecap="round"/>
<path d="M12 18.4608C12.7404 17.0104 13.8691 15.7924 15.2612 14.9417C16.6533 14.0909 18.2546 13.6406 19.8876 13.6406C21.5207 13.6406 23.1219 14.0909 24.5141 14.9416C25.9062 15.7924 27.0349 17.0104 27.7753 18.4608" fill="#005B70"/>
<path d="M12 18.4608C12.7404 17.0104 13.8691 15.7924 15.2612 14.9417C16.6533 14.0909 18.2546 13.6406 19.8876 13.6406C21.5207 13.6406 23.1219 14.0909 24.5141 14.9416C25.9062 15.7924 27.0349 17.0104 27.7753 18.4608" stroke="white" stroke-width="1.5" stroke-linecap="round" stroke-linejoin="round"/>
</g>
</svg>
