<?xml version="1.0" encoding="UTF-8"?><svg id="a" xmlns="http://www.w3.org/2000/svg" viewBox="0 0 43.04 43.06"><defs><style>.b{fill:#231e20;}</style></defs><path class="b" d="M28.85,22.93c0-3.77-3.07-6.84-6.85-6.84s-6.84,3.07-6.84,6.84c0,1.99,.85,3.77,2.21,5.02,.02,.03,.05,.05,.08,.08,1.21,1.08,2.8,1.75,4.55,1.75s3.34-.66,4.55-1.74c.03-.03,.06-.05,.09-.08,1.35-1.25,2.21-3.04,2.21-5.02Zm-12.68,0c0-3.22,2.62-5.84,5.84-5.84s5.84,2.62,5.84,5.84c0,1.5-.57,2.86-1.5,3.9-.42-.61-.95-1.12-1.59-1.51-.28-.17-.57-.3-.87-.41,.76-.57,1.26-1.48,1.26-2.5,0-1.73-1.41-3.15-3.15-3.15s-3.15,1.41-3.15,3.15c0,1.03,.5,1.93,1.26,2.5-.3,.11-.59,.24-.87,.41-.63,.39-1.17,.9-1.59,1.51-.93-1.03-1.5-2.4-1.5-3.9Zm3.7-.53c0-1.18,.96-2.14,2.14-2.14s2.14,.96,2.14,2.14-.96,2.14-2.14,2.14-2.14-.96-2.14-2.14Zm-1.45,5.13c.35-.55,.81-1.01,1.36-1.35,1.34-.82,3.11-.82,4.45,0,.55,.34,1.01,.81,1.36,1.35-.99,.77-2.23,1.24-3.59,1.24s-2.59-.47-3.59-1.24Z"/><rect class="b" x="22" y="11.65" width="1.01" height="3.88"/><rect class="b" x="13.15" y="29.81" width="4.84" height="1.01" transform="translate(-17.17 20.87) rotate(-46.72)"/><rect class="b" x="11.38" y="12.27" width="1.01" height="8.46" transform="translate(-8.35 18.54) rotate(-60)"/><rect class="b" x="30.57" y="25.16" width="1.01" height="4.88" transform="translate(-8.44 40.47) rotate(-59.65)"/><path class="b" d="M22.36,10.95c1.36,0,2.47-1.11,2.47-2.47s-1.11-2.47-2.47-2.47-2.47,1.11-2.47,2.47,1.11,2.47,2.47,2.47Zm0-3.93c.8,0,1.46,.65,1.46,1.46s-.65,1.46-1.46,1.46-1.46-.65-1.46-1.46,.66-1.46,1.46-1.46Z"/><path class="b" d="M11.43,31.73c-1.36,0-2.47,1.11-2.47,2.47s1.11,2.47,2.47,2.47,2.47-1.11,2.47-2.47-1.11-2.47-2.47-2.47Zm0,3.93c-.8,0-1.46-.65-1.46-1.46s.65-1.46,1.46-1.46,1.46,.66,1.46,1.46-.65,1.46-1.46,1.46Z"/><path class="b" d="M35.74,28.21c-1.36,0-2.47,1.11-2.47,2.47s1.11,2.47,2.47,2.47,2.47-1.11,2.47-2.47-1.11-2.47-2.47-2.47Zm0,3.93c-.8,0-1.46-.66-1.46-1.46s.65-1.46,1.46-1.46,1.46,.66,1.46,1.46-.66,1.46-1.46,1.46Z"/><path class="b" d="M5.44,10.24c-1.36,0-2.47,1.11-2.47,2.47s1.11,2.47,2.47,2.47,2.47-1.11,2.47-2.47-1.11-2.47-2.47-2.47Zm0,3.93c-.81,0-1.46-.65-1.46-1.46s.65-1.46,1.46-1.46,1.46,.65,1.46,1.46-.65,1.46-1.46,1.46Z"/></svg>