<svg width="59" height="53" viewBox="0 0 59 53" fill="none" xmlns="http://www.w3.org/2000/svg">
<path d="M30.9923 39.0432C36.5438 39.0432 41.0442 34.5429 41.0442 28.9914C41.0442 23.4398 36.5438 18.9395 30.9923 18.9395C25.4408 18.9395 20.9404 23.4398 20.9404 28.9914C20.9404 34.5429 25.4408 39.0432 30.9923 39.0432Z" stroke="white" stroke-width="1.5" stroke-miterlimit="10"/>
<path d="M30.9925 32.3414C33.3056 32.3414 35.1808 30.4663 35.1808 28.1531C35.1808 25.84 33.3056 23.9648 30.9925 23.9648C28.6794 23.9648 26.8042 25.84 26.8042 28.1531C26.8042 30.4663 28.6794 32.3414 30.9925 32.3414Z" stroke="white" stroke-width="1.5" stroke-miterlimit="10"/>
<path d="M24.27 36.4645C24.901 35.224 25.863 34.1822 27.0494 33.4546C28.2358 32.7269 29.6005 32.3418 30.9923 32.3418C32.3841 32.3418 33.7488 32.7269 34.9352 33.4546C36.1217 34.1822 37.0836 35.224 37.7146 36.4645" stroke="white" stroke-width="1.5" stroke-linecap="round" stroke-linejoin="round"/>
<line x1="31.3745" y1="11.8691" x2="31.3745" y2="16.512" stroke="white" stroke-width="1.5" stroke-linecap="round"/>
<line x1="23.0423" y1="38.4274" x2="18.8135" y2="42.9195" stroke="white" stroke-width="1.5" stroke-linecap="round"/>
<line x1="9.93419" y1="16.1298" x2="20.2421" y2="22.081" stroke="white" stroke-width="1.5" stroke-linecap="round"/>
<line x1="42.8217" y1="34.8648" x2="48.1993" y2="38.0156" stroke="white" stroke-width="1.5" stroke-linecap="round"/>
<circle cx="32.1635" cy="4.90907" r="3.90907" stroke="white" stroke-width="1.5"/>
<circle cx="14.3891" cy="47.5692" r="3.90907" stroke="white" stroke-width="1.5"/>
<circle cx="53.4931" cy="41.6434" r="3.90907" stroke="white" stroke-width="1.5"/>
<circle cx="4.90907" cy="12.7958" r="3.90907" stroke="white" stroke-width="1.5"/>
</svg>
