<svg width="38" height="41" viewBox="0 0 38 41" fill="none" xmlns="http://www.w3.org/2000/svg">
<path d="M35.125 4.25H2.625C1.72754 4.25 1 4.97754 1 5.875V38.375C1 39.2725 1.72754 40 2.625 40H35.125C36.0225 40 36.75 39.2725 36.75 38.375V5.875C36.75 4.97754 36.0225 4.25 35.125 4.25Z" stroke="white" stroke-width="2" stroke-linecap="round" stroke-linejoin="round"/>
<path d="M28.625 1V7.5" stroke="white" stroke-width="2" stroke-linecap="round" stroke-linejoin="round"/>
<path d="M9.125 1V7.5" stroke="white" stroke-width="2" stroke-linecap="round" stroke-linejoin="round"/>
<path d="M1 14H36.75" stroke="white" stroke-width="2" stroke-linecap="round" stroke-linejoin="round"/>
<path d="M11.5625 22.125H17.25L14 26.1875C14.5344 26.1875 15.0605 26.3193 15.5318 26.5711C16.0031 26.823 16.405 27.1872 16.702 27.6315C16.999 28.0758 17.1818 28.5864 17.2343 29.1182C17.2868 29.65 17.2073 30.1865 17.003 30.6803C16.7986 31.1741 16.4757 31.6098 16.0627 31.949C15.6498 32.2882 15.1596 32.5203 14.6355 32.6248C14.1114 32.7293 13.5697 32.7029 13.0582 32.5481C12.5468 32.3932 12.0814 32.1146 11.7033 31.737" stroke="white" stroke-width="2" stroke-linecap="round" stroke-linejoin="round"/>
<path d="M22.125 24.5625L25.375 22.125V32.6875" stroke="white" stroke-width="2" stroke-linecap="round" stroke-linejoin="round"/>
</svg>
