<?xml version="1.0" encoding="UTF-8"?><svg id="a" xmlns="http://www.w3.org/2000/svg" viewBox="0 0 43.04 43.06"><defs><style>.b{fill:#231e20;}</style></defs><path class="b" d="M34.07,7.88h-3.91v-1.57c0-.42-.34-.77-.77-.77s-.77,.34-.77,.77v1.57h-12.49v-1.57c0-.42-.34-.77-.77-.77s-.77,.34-.77,.77v1.57h-3.91c-1.07,0-1.94,.87-1.94,1.94v23.38c0,1.07,.87,1.94,1.94,1.94h23.38c1.07,0,1.94-.87,1.94-1.94V9.82c0-1.07-.87-1.94-1.94-1.94Zm-23.38,1.54h3.91v1.57c0,.42,.34,.77,.77,.77s.77-.34,.77-.77v-1.57h12.49v1.57c0,.42,.34,.77,.77,.77s.77-.34,.77-.77v-1.57h3.91c.22,0,.4,.18,.4,.4v5.08H10.28v-5.08c0-.22,.18-.4,.4-.4Zm23.38,24.18H10.68c-.22,0-.4-.18-.4-.4V16.43h24.18v16.77c0,.22-.18,.4-.4,.4Z"/><path class="b" d="M27.25,20.76l-5.74,5.96-3.15-3.26c-.29-.31-.78-.31-1.09-.02-.31,.29-.31,.78-.02,1.09l4.26,4.41,6.84-7.11c.29-.31,.29-.79-.02-1.09-.31-.29-.79-.29-1.09,.02Z"/></svg>