<svg width="46" height="44" viewBox="0 0 46 44" fill="none" xmlns="http://www.w3.org/2000/svg">
<g opacity="1">
<path d="M10.0195 24.6979L1 31.9896V2.82292C1 2.33945 1.19206 1.87578 1.53392 1.53392C1.87578 1.19206 2.33945 1 2.82292 1H31.9896C32.4731 1 32.9367 1.19206 33.2786 1.53392C33.6204 1.87578 33.8125 2.33945 33.8125 2.82292V22.875C33.8125 23.3585 33.6204 23.8221 33.2786 24.164C32.9367 24.5059 32.4731 24.6979 31.9896 24.6979H10.0195Z" stroke="white" stroke-width="2" stroke-linecap="round" stroke-linejoin="round"/>
<path d="M11.9375 24.6979V33.8125C11.9375 34.296 12.1296 34.7596 12.4714 35.1015C12.8133 35.4434 13.2769 35.6354 13.7604 35.6354H35.7305L44.75 42.9271V13.7604C44.75 13.2769 44.5579 12.8133 44.2161 12.4714C43.8742 12.1296 43.4106 11.9375 42.9271 11.9375H33.8125" stroke="white" stroke-width="2" stroke-linecap="round" stroke-linejoin="round"/>
<line x1="11.8652" y1="9.18555" x2="22.4469" y2="9.18555" stroke="white" stroke-width="2" stroke-linecap="round"/>
<line x1="11.8652" y1="16.0488" x2="22.4469" y2="16.0488" stroke="white" stroke-width="2" stroke-linecap="round"/>
</g>
</svg>
