<?xml version="1.0" encoding="UTF-8"?><svg id="a" xmlns="http://www.w3.org/2000/svg" viewBox="0 0 43.04 43.06"><defs><style>.b{fill:#231e20;}</style></defs><path class="b" d="M37.57,13.49c-.41-.41-.96-.64-1.54-.64h-6.25V6.6c0-.58-.23-1.13-.64-1.54-.4-.4-.96-.64-1.54-.64H5.15c-.58,0-1.13,.23-1.54,.64-.41,.41-.64,.96-.64,1.54V29.06c0,.3,.17,.57,.44,.69,.11,.05,.22,.08,.33,.08,.17,0,.34-.06,.48-.17l6.73-5.44h.43v6.25c0,.57,.23,1.13,.63,1.54,.4,.41,.96,.64,1.54,.64H30.22l6.73,5.44c.14,.11,.31,.17,.48,.17,.11,0,.23-.02,.33-.07,.27-.13,.44-.4,.44-.7V15.02c0-.58-.23-1.13-.64-1.54ZM10.7,22.68c-.18,0-.35,.06-.48,.17l-5.69,4.6V6.6c0-.17,.07-.33,.19-.45,.12-.12,.28-.19,.45-.19H27.61c.17,0,.33,.07,.45,.19s.18,.28,.18,.45v15.44c0,.17-.07,.33-.18,.45s-.28,.19-.45,.19H10.7Zm25.97,13.19l-5.69-4.6c-.14-.11-.31-.17-.48-.17H13.57c-.17,0-.33-.07-.45-.19-.12-.12-.18-.28-.18-.45v-6.25h14.67c.57,0,1.13-.23,1.54-.64,.41-.41,.64-.96,.64-1.54v-7.65h6.25c.17,0,.33,.07,.45,.19,.12,.12,.18,.28,.18,.45v20.84Z"/><path class="b" d="M12.12,12.27h8.15c.43,0,.77-.34,.77-.77s-.34-.77-.77-.77H12.12c-.43,0-.77,.34-.77,.77s.34,.77,.77,.77Z"/><path class="b" d="M21.03,16.79c0-.43-.34-.77-.77-.77H12.12c-.43,0-.77,.34-.77,.77s.34,.77,.77,.77h8.15c.43,0,.77-.34,.77-.77Z"/></svg>