<svg width="28" height="20" viewBox="0 0 28 20" fill="none" xmlns="http://www.w3.org/2000/svg">
<path d="M13.9753 0.873006H24.5513C25.2507 0.855994 25.9302 1.10634 26.4513 1.57301C26.75 1.82874 26.9889 2.14694 27.1512 2.50514C27.3135 2.86334 27.3951 3.2528 27.3903 3.64601C27.3903 5.10601 27.3903 6.56701 27.3903 8.02701C27.3903 10.762 27.3683 13.497 27.3983 16.227C27.4046 16.6076 27.3345 16.9857 27.192 17.3387C27.0495 17.6917 26.8376 18.0125 26.5688 18.2821C26.3001 18.5517 25.9799 18.7646 25.6273 18.9082C25.2748 19.0518 24.897 19.1231 24.5163 19.118C17.5163 19.108 10.5163 19.108 3.51631 19.118C2.85791 19.1508 2.20923 18.949 1.68558 18.5485C1.16193 18.1481 0.797226 17.575 0.656307 16.931C0.612019 16.7247 0.590557 16.5141 0.592307 16.303C0.592307 12.1003 0.592307 7.89834 0.592307 3.69701C0.585207 3.32744 0.652281 2.9602 0.789561 2.617C0.926842 2.2738 1.13154 1.96161 1.39156 1.69889C1.65158 1.43616 1.96163 1.22824 2.3034 1.08742C2.64516 0.946598 3.01168 0.875729 3.38131 0.879006C6.02331 0.868006 8.66631 0.879006 11.3083 0.879006H13.9753V0.873006ZM2.06731 2.47301C2.16731 2.56601 2.24931 2.64301 2.33131 2.71801C5.74797 5.84267 9.16497 8.96667 12.5823 12.09C12.946 12.4425 13.433 12.6391 13.9395 12.638C14.4461 12.6369 14.9321 12.4381 15.2943 12.084L25.3923 2.76301C25.4923 2.67101 25.5923 2.57801 25.6923 2.47601C25.6313 2.42401 25.5923 2.38201 25.5383 2.34501C25.1094 2.02799 24.5875 1.86201 24.0543 1.87301H15.9603C11.871 1.87301 7.78164 1.87301 3.69231 1.87301C3.09489 1.86051 2.51494 2.07491 2.06931 2.47301H2.06731ZM2.06931 17.7C2.12031 17.744 2.14731 17.77 2.17631 17.792C2.6261 18.1218 3.17511 18.288 3.73231 18.263H24.0423C24.179 18.2635 24.3157 18.2551 24.4513 18.238C25.0256 18.1773 25.5549 17.8989 25.9303 17.46L17.5113 11.149C16.9203 11.694 16.3523 12.249 15.7473 12.766C15.3612 13.1144 14.8825 13.3437 14.3689 13.426C13.8554 13.5083 13.329 13.4403 12.8533 13.23C12.3724 12.994 11.94 12.6701 11.5783 12.275C11.1783 11.913 10.7843 11.547 10.3783 11.175L2.06331 17.695L2.06931 17.7ZM1.60531 17.13L9.77231 10.632L1.63731 3.10301C1.59157 3.19934 1.55508 3.29979 1.52831 3.40301C1.48651 3.64093 1.46178 3.88155 1.45431 4.12301C1.44964 8.09301 1.44964 12.063 1.45431 16.033C1.4483 16.1635 1.45231 16.2942 1.46631 16.424C1.50131 16.646 1.55631 16.866 1.61231 17.136L1.60531 17.13ZM18.1123 10.582L26.3383 16.823C26.3593 16.5 26.3933 16.231 26.3933 15.961C26.3933 12.0943 26.3933 8.22967 26.3933 4.36701C26.3933 4.20501 26.3933 4.04301 26.3773 3.88301C26.3623 3.61199 26.2831 3.34842 26.1463 3.11401L18.1053 10.583" fill="black"/>
<path d="M18.1123 10.582L26.3383 16.823C26.3593 16.5 26.3933 16.231 26.3933 15.961C26.3933 12.0943 26.3933 8.22967 26.3933 4.36701C26.3933 4.20501 26.3933 4.04301 26.3773 3.88301C26.3623 3.61199 26.2831 3.34842 26.1463 3.11401L18.1053 10.583M13.9753 0.873006H24.5513C25.2507 0.855994 25.9302 1.10634 26.4513 1.57301C26.75 1.82874 26.9889 2.14694 27.1512 2.50514C27.3135 2.86334 27.3951 3.2528 27.3903 3.64601C27.3903 5.10601 27.3903 6.56701 27.3903 8.02701C27.3903 10.762 27.3683 13.497 27.3983 16.227C27.4046 16.6076 27.3345 16.9857 27.192 17.3387C27.0495 17.6917 26.8376 18.0125 26.5688 18.2821C26.3001 18.5517 25.9799 18.7646 25.6273 18.9082C25.2748 19.0518 24.897 19.1231 24.5163 19.118C17.5163 19.108 10.5163 19.108 3.51631 19.118C2.85791 19.1508 2.20923 18.949 1.68558 18.5485C1.16193 18.1481 0.797226 17.575 0.656307 16.931C0.612019 16.7247 0.590557 16.5141 0.592307 16.303C0.592307 12.1003 0.592307 7.89834 0.592307 3.69701C0.585207 3.32744 0.652281 2.9602 0.789561 2.617C0.926842 2.2738 1.13154 1.96161 1.39156 1.69889C1.65158 1.43616 1.96163 1.22824 2.3034 1.08742C2.64516 0.946598 3.01168 0.875729 3.38131 0.879006C6.02331 0.868006 8.66631 0.879006 11.3083 0.879006H13.9753V0.873006ZM2.06731 2.47301C2.16731 2.56601 2.24931 2.64301 2.33131 2.71801C5.74797 5.84267 9.16497 8.96667 12.5823 12.09C12.946 12.4425 13.433 12.6391 13.9395 12.638C14.4461 12.6369 14.9321 12.4381 15.2943 12.084L25.3923 2.76301C25.4923 2.67101 25.5923 2.57801 25.6923 2.47601C25.6313 2.42401 25.5923 2.38201 25.5383 2.34501C25.1094 2.02799 24.5875 1.86201 24.0543 1.87301H15.9603C11.871 1.87301 7.78164 1.87301 3.69231 1.87301C3.09489 1.86051 2.51494 2.07491 2.06931 2.47301H2.06731ZM2.06931 17.7C2.12031 17.744 2.14731 17.77 2.17631 17.792C2.6261 18.1218 3.17511 18.288 3.73231 18.263H24.0423C24.179 18.2635 24.3157 18.2551 24.4513 18.238C25.0256 18.1773 25.5549 17.8989 25.9303 17.46L17.5113 11.149C16.9203 11.694 16.3523 12.249 15.7473 12.766C15.3612 13.1144 14.8825 13.3437 14.3689 13.426C13.8554 13.5083 13.329 13.4403 12.8533 13.23C12.3724 12.994 11.94 12.6701 11.5783 12.275C11.1783 11.913 10.7843 11.547 10.3783 11.175L2.06331 17.695L2.06931 17.7ZM1.60531 17.13L9.77231 10.632L1.63731 3.10301C1.59157 3.19934 1.55508 3.29979 1.52831 3.40301C1.48651 3.64093 1.46178 3.88155 1.45431 4.12301C1.44964 8.09301 1.44964 12.063 1.45431 16.033C1.4483 16.1635 1.45231 16.2942 1.46631 16.424C1.50131 16.646 1.55631 16.866 1.61231 17.136L1.60531 17.13Z" stroke="#18162F"/>
</svg>
