<svg width="29" height="29" viewBox="0 0 29 29" fill="none" xmlns="http://www.w3.org/2000/svg">
<path d="M25.953 1H2.77801C2.22935 1.00053 1.70329 1.21865 1.31523 1.60652C0.927177 1.99439 0.708802 2.52034 0.708008 3.069L0.708008 26.244C0.708537 26.7928 0.926796 27.319 1.31488 27.7071C1.70297 28.0952 2.22917 28.3135 2.77801 28.314H25.953C26.5018 28.3135 27.0279 28.0952 27.4158 27.7071C27.8037 27.319 28.0217 26.7927 28.022 26.244V3.069C28.0215 2.52043 27.8033 1.99448 27.4154 1.60658C27.0275 1.21868 26.5016 1.00053 25.953 1V1ZM26.201 26.244C26.201 26.3099 26.1749 26.3731 26.1284 26.4197C26.082 26.4664 26.0189 26.4927 25.953 26.493H2.77801C2.71205 26.4927 2.64887 26.4664 2.60223 26.4198C2.55559 26.3731 2.52927 26.31 2.52901 26.244V3.069C2.52927 3.00313 2.55562 2.94006 2.60229 2.89358C2.64896 2.8471 2.71214 2.821 2.77801 2.821H25.953C26.0188 2.821 26.0819 2.84713 26.1284 2.89364C26.1749 2.94015 26.201 3.00323 26.201 3.069V26.244Z" fill="#18162F" stroke="#18162F"/>
<path d="M8.57113 11.4287C8.32979 11.4287 8.09832 11.5246 7.92767 11.6952C7.75701 11.8659 7.66113 12.0974 7.66113 12.3387V21.6087C7.66113 21.8501 7.75701 22.0815 7.92767 22.2522C8.09832 22.4228 8.32979 22.5187 8.57113 22.5187C8.81248 22.5187 9.04394 22.4228 9.2146 22.2522C9.38526 22.0815 9.48113 21.8501 9.48113 21.6087V12.3387C9.48113 12.0974 9.38526 11.8659 9.2146 11.6952C9.04394 11.5246 8.81248 11.4287 8.57113 11.4287Z" fill="#18162F"/>
<path d="M8.57113 11.4287C8.32979 11.4287 8.09832 11.5246 7.92767 11.6952C7.75701 11.8659 7.66113 12.0974 7.66113 12.3387V21.6087C7.66113 21.8501 7.75701 22.0815 7.92767 22.2522C8.09832 22.4228 8.32979 22.5187 8.57113 22.5187C8.81248 22.5187 9.04394 22.4228 9.2146 22.2522C9.38526 22.0815 9.48113 21.8501 9.48113 21.6087V12.3387C9.48113 12.0974 9.38526 11.8659 9.2146 11.6952C9.04394 11.5246 8.81248 11.4287 8.57113 11.4287" stroke="#18162F"/>
<path d="M17.2609 11.4287C16.1099 11.4326 14.9967 11.8407 14.1159 12.5817V12.3387C14.1081 12.1025 14.0087 11.8785 13.8388 11.7141C13.6689 11.5498 13.4418 11.4579 13.2054 11.4579C12.969 11.4579 12.7419 11.5498 12.572 11.7141C12.4021 11.8785 12.3028 12.1025 12.2949 12.3387V21.6087C12.3028 21.845 12.4021 22.0689 12.572 22.2333C12.7419 22.3976 12.969 22.4895 13.2054 22.4895C13.4418 22.4895 13.6689 22.3976 13.8388 22.2333C14.0087 22.0689 14.1081 21.845 14.1159 21.6087V16.3997C14.1148 15.9864 14.1956 15.5769 14.3537 15.195C14.5117 14.8131 14.744 14.4663 15.0369 14.1747C15.6366 13.6034 16.4331 13.2847 17.2614 13.2847C18.0897 13.2847 18.8862 13.6034 19.4859 14.1747C19.779 14.4663 20.0113 14.813 20.1696 15.1949C20.3278 15.5768 20.4088 15.9863 20.4079 16.3997V21.6137C20.4079 21.8553 20.5039 22.087 20.6747 22.2579C20.8456 22.4287 21.0773 22.5247 21.3189 22.5247C21.5605 22.5247 21.7923 22.4287 21.9631 22.2579C22.1339 22.087 22.2299 21.8553 22.2299 21.6137V16.3997C22.2299 15.7474 22.1014 15.1015 21.8517 14.4988C21.602 13.8962 21.2361 13.3487 20.7747 12.8875C20.3134 12.4263 19.7657 12.0606 19.1629 11.8112C18.5602 11.5617 17.9142 11.4334 17.2619 11.4337" fill="#18162F"/>
<path d="M17.2609 11.4287C16.1099 11.4326 14.9967 11.8407 14.1159 12.5817V12.3387C14.1081 12.1025 14.0087 11.8785 13.8388 11.7141C13.6689 11.5498 13.4418 11.4579 13.2054 11.4579C12.969 11.4579 12.7419 11.5498 12.572 11.7141C12.4021 11.8785 12.3028 12.1025 12.2949 12.3387V21.6087C12.3028 21.845 12.4021 22.0689 12.572 22.2333C12.7419 22.3976 12.969 22.4895 13.2054 22.4895C13.4418 22.4895 13.6689 22.3976 13.8388 22.2333C14.0087 22.0689 14.1081 21.845 14.1159 21.6087V16.3997C14.1148 15.9864 14.1956 15.5769 14.3537 15.195C14.5117 14.8131 14.744 14.4663 15.0369 14.1747C15.6366 13.6034 16.4331 13.2847 17.2614 13.2847C18.0897 13.2847 18.8862 13.6034 19.4859 14.1747C19.779 14.4663 20.0113 14.813 20.1696 15.1949C20.3278 15.5768 20.4088 15.9863 20.4079 16.3997V21.6137C20.4079 21.8553 20.5039 22.087 20.6747 22.2579C20.8456 22.4287 21.0773 22.5247 21.3189 22.5247C21.5605 22.5247 21.7923 22.4287 21.9631 22.2579C22.1339 22.087 22.2299 21.8553 22.2299 21.6137V16.3997C22.2299 15.7474 22.1014 15.1015 21.8517 14.4988C21.602 13.8962 21.2361 13.3487 20.7747 12.8875C20.3134 12.4263 19.7657 12.0606 19.1629 11.8112C18.5602 11.5617 17.9142 11.4334 17.2619 11.4337" stroke="#18162F"/>
<path d="M8.57103 5.96594C8.22707 5.96575 7.89079 6.06761 7.60476 6.25864C7.31873 6.44967 7.09581 6.72128 6.96423 7.03907C6.83265 7.35687 6.79833 7.70656 6.8656 8.04387C6.93287 8.38118 7.09872 8.69095 7.34214 8.93396C7.58557 9.17696 7.89562 9.34227 8.23305 9.40896C8.57048 9.47565 8.92011 9.44072 9.23768 9.30859C9.55524 9.17646 9.82646 8.95307 10.017 8.66671C10.2075 8.38035 10.3088 8.0439 10.308 7.69994C10.307 7.23986 10.1235 6.79897 9.79792 6.47393C9.47231 6.14888 9.03111 5.96621 8.57103 5.96594Z" fill="#18162F"/>
<path d="M8.57103 5.96594C8.22707 5.96575 7.89079 6.06761 7.60476 6.25864C7.31873 6.44967 7.09581 6.72128 6.96423 7.03907C6.83265 7.35687 6.79833 7.70656 6.8656 8.04387C6.93287 8.38118 7.09872 8.69095 7.34214 8.93396C7.58557 9.17696 7.89562 9.34227 8.23305 9.40896C8.57048 9.47565 8.92011 9.44072 9.23768 9.30859C9.55524 9.17646 9.82646 8.95307 10.017 8.66671C10.2075 8.38035 10.3088 8.0439 10.308 7.69994C10.307 7.23986 10.1235 6.79897 9.79792 6.47393C9.47231 6.14888 9.03111 5.96621 8.57103 5.96594" stroke="#18162F"/>
</svg>
