<svg width="516" height="608" viewBox="0 0 516 608" fill="none" xmlns="http://www.w3.org/2000/svg">
<g filter="url(#filter0_d_347_963)">
<path d="M286.071 555.048C125.3 572.35 59.0022 535.306 45.9498 514.621C38.4242 506.188 26.3504 488.303 191.382 470.668C355.618 453.117 416.14 458.384 428.84 459.489L429.021 459.505C438.316 460.314 453.364 478.39 459.71 488.093C468.819 503.202 446.842 537.746 286.071 555.048Z" fill="url(#paint0_linear_347_963)"/>
</g>
<path d="M190.367 164.667C194.277 175.496 201.481 184.826 210.966 191.352L222.174 176.018L207.031 146.256L198.105 141.073C194.42 145.982 192.839 149.156 188.857 160.091C188.857 160.044 189.951 163.526 190.367 164.667Z" fill="#FFB699"/>
<path d="M377.621 472.685L364.143 452.335L344.554 466.599L361.195 484.238C361.195 484.238 365.747 487.934 372.76 485.141C379.773 482.348 377.621 472.685 377.621 472.685Z" fill="#FFC9AE"/>
<g filter="url(#filter1_d_347_963)">
<path d="M334.677 514.025H364.879L391.492 486.199C392.669 484.999 392.669 483.073 391.492 481.873L379.975 470.26C379.357 469.63 378.358 469.618 377.728 470.224C377.514 470.426 377.372 470.688 377.288 470.973C374.531 481.932 363.025 481.671 358.389 481.029C357.284 480.886 356.238 481.587 355.941 482.669C354.836 486.627 352.256 495.375 350.592 497.61C347.561 501.663 343.46 503.826 339.895 505.692C332.585 509.448 334.677 514.025 334.677 514.025Z" fill="#18162F"/>
</g>
<path d="M153.401 126.299C148.29 125.455 146.02 121.853 143.143 117.206C141.848 115.126 142.228 113.271 144.071 113.176C143.631 111.167 144.487 110.288 146.448 110.538C146.388 108.6 147.363 108.16 148.718 108.35C148.873 103.751 157.858 111.405 158.881 112.582C161.4 115.446 161.341 120.665 161.341 120.665L188.881 160.031C192.875 149.108 194.456 145.934 198.129 141.014L207.055 146.208L222.507 176.731C222.507 176.731 214.639 194.347 198.58 198.78C192.827 200.373 172.205 202.512 164.895 179.382C158.037 157.607 153.401 126.299 153.401 126.299Z" fill="#FFC9AE"/>
<path d="M213.367 191.352L222.174 176.018L207.031 146.256L198.105 141.073C194.42 145.982 192.839 149.156 188.857 160.091C193.564 170.729 200.565 180.63 213.367 191.352Z" fill="#FFB899"/>
<path d="M142.585 113.521C142.026 114.103 142.026 115.019 142.609 115.589C142.656 115.637 142.704 115.684 142.763 115.72C144.059 116.659 145.77 117.455 146.472 117.111C147.732 116.528 145.973 114.793 144.653 113.545C144.083 112.974 143.156 112.974 142.585 113.545V113.521Z" fill="#FFC9AE"/>
<path d="M144.772 112.32C144.451 112.939 144.594 113.687 145.129 114.139C146.436 115.256 148.695 116.647 149.753 115.839C150.418 115.316 148.718 113.378 147.256 111.857C146.603 111.274 145.592 111.322 145.01 111.976C144.915 112.083 144.844 112.19 144.772 112.32Z" fill="#FFC9AE"/>
<path d="M147.542 109.563C146.936 110.086 146.852 111.013 147.363 111.631C148.493 112.95 150.335 114.496 152.118 114.199C153.711 113.949 151.215 111.215 149.741 109.551C149.206 108.957 148.291 108.909 147.696 109.432L147.542 109.563Z" fill="#FFC9AE"/>
<path d="M148.897 106.817C148.219 107.483 148.207 108.564 148.873 109.242C148.908 109.278 148.956 109.313 148.992 109.349C150.43 110.538 152.403 111.726 153.485 111.393C154.566 111.061 152.831 108.731 151.428 106.984C150.846 106.247 149.788 106.116 149.039 106.686C148.992 106.722 148.944 106.77 148.897 106.817Z" fill="#FFC9AE"/>
<path d="M160.806 117.325C159.867 112.57 156.563 106.912 155.457 107.816C154.352 108.719 156.646 112.772 156.158 114.329C155.481 116.362 154.97 118.252 156.86 122.115L160.806 117.325Z" fill="#FFC9AE"/>
<path d="M189.737 164.774C189.309 163.181 188.43 161.743 187.182 160.65L188.014 159.675C189.476 160.959 190.51 162.658 190.985 164.536L189.737 164.774Z" fill="#1F2056"/>
<path d="M238.327 499.143L237.246 469.511H213.806L218.085 499.143H238.327Z" fill="#FFC9AE"/>
<g filter="url(#filter2_d_347_963)">
<path d="M181.453 514.346H243.486C243.974 514.346 244.378 513.953 244.39 513.466C244.39 513.395 244.39 513.335 244.366 513.264L240.8 493.818C240.55 492.63 239.374 491.869 238.185 492.13C237.912 492.19 237.65 492.297 237.424 492.451C231.588 496.611 223.743 496.54 217.991 492.273C216.826 491.346 215.15 491.405 214.068 492.427C212.154 494.222 209.979 495.708 207.602 496.825C201.885 499.298 183.449 504.908 180.965 508.581C180.323 509.532 180.466 512.147 180.585 513.561C180.644 514.001 181.013 514.334 181.453 514.346Z" fill="#18162F"/>
</g>
<path d="M248.752 476.227C235.024 479.614 218.181 480.387 204.512 476.857C204.512 476.857 189.916 383.17 191.758 345.063C193.41 310.736 213.842 212.996 213.842 212.996L268.685 213.757L245.792 360.67L248.752 476.227Z" fill="#3176AE"/>
<path d="M239.124 290.089L245.792 360.669L251.842 321.885L239.124 290.089Z" fill="#144C72"/>
<path d="M254.861 361.965C244.936 323.002 224.861 212.128 224.861 212.128L298.269 207.291L312.889 352.765L372.879 444.11C364.451 454.487 355.465 464.649 339.598 472.019C339.562 472.019 262.801 393.154 254.861 361.965Z" fill="#3176AE"/>
<path d="M218.775 235.402C252.674 267.435 302.905 253.231 302.905 253.231L300.528 229.993L265.987 230.79L228.426 231.657L218.775 235.402Z" fill="#144C72"/>
<path d="M310.168 241.214C247.635 263.798 200.934 224.954 200.934 224.954L218.407 138.815L240.42 109.099C240.42 109.099 251.569 119.94 265.963 107.293L295.06 118.822L310.168 241.214Z" fill="#039B78"/>
<path d="M320.52 174.937C308.016 154.802 289.07 141.988 288.879 141.858L289.688 140.669C289.878 140.8 309.086 153.744 321.78 174.2L320.52 174.937Z" fill="#34244E"/>
<path d="M260.305 248.726C260.578 250.283 265.369 248.88 265.369 250.152C265.369 250.925 256.026 253.837 257.048 255.453C257.714 256.511 263.134 253.98 263.265 254.657C263.395 255.335 256.074 257.034 256.977 258.639C257.88 260.244 264.857 255.691 265.297 256.499C265.499 256.904 256.977 260.327 257.761 261.634C258.795 263.382 265.262 258.746 265.796 259.495C266.058 259.863 263.49 261.099 262.052 262.026C261.256 262.538 261.541 263.215 262.183 263.215C268.839 262.668 276.886 254.241 277.944 253.813C346.456 226.368 325.37 157.369 325.37 157.369L288.166 160.935C288.166 160.935 305.995 214.803 273.903 242.593C272.833 243.52 269.873 246.158 268.495 246.396C267.116 246.634 260.055 247.288 260.305 248.726Z" fill="#FFC9AE"/>
<path d="M187.883 148.918C187.883 148.918 199.71 125.063 217.503 114.757C226.323 109.658 249.976 107.091 249.976 107.091C249.976 107.091 285.29 102.8 302.37 116.089C331.432 138.672 333.928 166.51 333.928 166.51C333.928 166.51 314.708 184.422 289.949 184.422L211.608 182.675C195.668 170.539 187.883 148.918 187.883 148.918Z" fill="#039B78"/>
<path d="M292.98 191.268C308.373 190.365 321.305 182.865 328.306 177.896C328.223 175.519 328.044 173.32 327.842 171.276C320.711 176.28 307.826 183.554 292.588 184.351L292.98 191.268Z" fill="#FFB899"/>
<path d="M289.034 188C288.333 173.677 285.433 159.556 280.441 146.113L281.534 145.673C286.574 159.235 289.498 173.498 290.211 187.952L289.034 188Z" fill="#18162F"/>
<path d="M216.298 146.716L207.979 182.893L209.126 183.156L217.445 146.98L216.298 146.716Z" fill="#18162F"/>
<path d="M250.095 344.195C246.529 328.232 242.107 306.386 236.865 279.285L238.054 279.059C243.296 306.148 247.741 327.983 251.271 343.946L250.095 344.195Z" fill="white"/>
<path d="M239.041 107.839L245.269 88.7503L271.68 74.2373L272.06 110.787C272.06 110.787 242.107 134.072 239.041 107.839Z" fill="#FFC9AE"/>
<path d="M240.895 102.158C249.287 103.537 257.726 99.9708 262.587 92.9937L244.116 92.2805L240.895 102.158Z" fill="#18162F"/>
<path d="M230.411 58.6904C231.089 75.7708 231.838 99.9829 248.609 98.925C266.961 97.7364 271.074 79.7526 272.797 66.2738C273.665 59.5105 270.182 47.7433 254.778 46.2218C235.534 44.3201 230.138 51.7846 230.411 58.6904Z" fill="#FFC9AE"/>
<path d="M275.068 72.716C271.645 79.5861 263.966 75.8063 262.207 74.0234C259.83 71.6462 258.808 65.608 257.678 64.7998C253.269 61.6618 235.998 68.0447 228.379 62.9099C221.723 58.4288 222.519 41.8239 234.191 37.5805C248.514 32.3863 270.42 48.1116 270.42 48.1116C270.42 48.1116 287.762 47.1726 275.068 72.716Z" fill="#18162F"/>
<path d="M266.926 74.2255C266.985 70.6002 270.836 68.1041 273.784 70.0059C274.818 70.6953 275.555 71.7294 275.876 72.9299C277.576 78.6828 273.142 83.2709 266.819 82.0822L266.926 74.2255Z" fill="#FFC9AE"/>
<path d="M266.272 108.636C264.227 98.1522 264.227 87.3834 266.272 76.8998L245.828 86.5276L240.241 108.671C240.241 108.671 249.429 121.295 266.272 108.636Z" fill="#FFC9AE"/>
<path d="M242.214 100.53C255.729 98.1524 259.865 88.073 259.865 88.073L244.734 90.4502L242.214 100.53Z" fill="#18162F"/>
<path d="M235.641 52.4382C230.887 62.8148 226.834 95.5255 241.406 96.9518C256.644 98.4257 265.38 80.7391 265.38 80.7391C265.38 80.7391 272.595 84.1266 274.961 77.5417C277.088 71.5987 270.206 68.1992 267.449 70.5527C267.449 70.5527 271.906 55.8971 263.883 49.7282C255.86 43.5593 240.776 41.2058 235.641 52.4382Z" fill="#FFC9AE"/>
<path d="M268.518 69.8989C268.518 69.8989 248.609 65.7744 243.082 50.6552C243.082 50.6552 237.139 60.7228 230.328 63.1119C230.328 63.1119 227.523 40.5282 247.397 38.0678C267.27 35.6074 275.46 55.2908 273.403 62.1372C272.381 65.0612 270.717 67.7118 268.518 69.8989Z" fill="#18162F"/>
<path d="M237.638 75.1645C237.638 76.8643 236.652 78.2312 235.487 78.2193C234.322 78.2074 233.383 76.8167 233.407 75.117C233.43 73.4173 234.393 72.0385 235.558 72.0504C236.723 72.0623 237.662 73.4648 237.638 75.1645Z" fill="#18162F"/>
<path d="M249.822 74.6534C249.822 76.3531 248.835 77.7201 247.67 77.7082C246.505 77.6963 245.578 76.3056 245.59 74.594C245.602 72.8824 246.577 71.5274 247.742 71.5393C248.906 71.5511 249.845 72.9418 249.822 74.6534Z" fill="#18162F"/>
<path d="M232.158 65.8815C231.921 65.8815 231.695 65.7626 231.564 65.5606C231.362 65.2278 231.457 64.7999 231.79 64.5859C233.644 63.4448 235.974 63.3973 237.876 64.4552C238.244 64.5621 238.47 64.9425 238.363 65.3228C238.256 65.6913 237.876 65.9172 237.495 65.8102C237.388 65.7745 237.281 65.727 237.21 65.6438C235.748 64.8355 233.965 64.8712 232.539 65.7389C232.432 65.8221 232.301 65.8696 232.158 65.8815Z" fill="#18162F"/>
<path d="M243.558 66.1429C243.165 66.1429 242.856 65.8339 242.844 65.4536C242.844 65.2277 242.951 65.0138 243.142 64.8711C245.174 63.4448 247.86 63.3259 250 64.5859C250.345 64.7642 250.475 65.1921 250.297 65.5368C250.119 65.8815 249.691 66.0122 249.346 65.8339C249.311 65.822 249.287 65.7983 249.251 65.7745C247.599 64.7998 245.531 64.8949 243.962 66.0003C243.843 66.0835 243.7 66.1311 243.546 66.1429H243.558Z" fill="#18162F"/>
<path d="M239.017 87.0031C238.411 87.015 237.816 86.8486 237.317 86.5158C236.842 86.1592 236.533 85.6243 236.473 85.03C236.236 83.2946 238.601 74.4632 239.076 72.7041C239.183 72.3356 239.564 72.1098 239.944 72.2049C240.324 72.2999 240.538 72.6922 240.443 73.0725C239.362 77.0306 237.721 83.7701 237.876 84.8398C237.876 85.0538 237.983 85.2558 238.149 85.3866C238.518 85.5768 238.934 85.6481 239.338 85.5887C239.718 85.4936 240.099 85.7194 240.194 86.0998C240.289 86.4801 240.063 86.8605 239.683 86.9556C239.647 86.9556 239.599 86.9674 239.564 86.9793C239.385 87.0031 239.207 87.015 239.029 87.015L239.017 87.0031Z" fill="#18162F"/>
<path d="M246.601 88.6791C244.223 90.1054 239.326 89.939 236.842 90.1054" stroke="#18162F" stroke-linecap="round" stroke-linejoin="round"/>
<path fill-rule="evenodd" clip-rule="evenodd" d="M30.2647 0H121.348C137.965 0.0475446 151.42 13.5145 151.456 30.1314C151.408 46.7363 137.953 60.1914 121.348 60.239H120.516C119.72 64.3991 119.244 71.0316 123.488 74.0625C123.642 74.1814 123.737 74.3835 123.737 74.5855C123.737 74.954 123.44 75.2512 123.072 75.2512C117.842 74.8351 107.75 72.4223 104.185 60.2033H30.2647C13.6597 60.1558 0.21649 46.7006 0.168945 30.0957C0.21649 13.4908 13.6597 0.0475446 30.2647 0ZM47.9391 30.0007C47.9391 34.8585 44.0012 38.7964 39.1434 38.7964C34.2857 38.7964 30.3477 34.8585 30.3477 30.0007C30.3477 25.1429 34.2857 21.205 39.1434 21.205C44.0012 21.205 47.9391 25.1429 47.9391 30.0007ZM74.6234 38.7964C79.4811 38.7964 83.4191 34.8585 83.4191 30.0007C83.4191 25.1429 79.4811 21.205 74.6234 21.205C69.7656 21.205 65.8276 25.1429 65.8276 30.0007C65.8276 34.8585 69.7656 38.7964 74.6234 38.7964ZM118.9 30.0007C118.9 34.8585 114.962 38.7964 110.104 38.7964C105.246 38.7964 101.308 34.8585 101.308 30.0007C101.308 25.1429 105.246 21.205 110.104 21.205C114.962 21.205 118.9 25.1429 118.9 30.0007Z" fill="#3176AE"/>
<defs>
<filter id="filter0_d_347_963" x="8.24561" y="417.891" width="507.215" height="189.63" filterUnits="userSpaceOnUse" color-interpolation-filters="sRGB">
<feFlood flood-opacity="0" result="BackgroundImageFix"/>
<feColorMatrix in="SourceAlpha" type="matrix" values="0 0 0 0 0 0 0 0 0 0 0 0 0 0 0 0 0 0 127 0" result="hardAlpha"/>
<feOffset dx="10" dy="4"/>
<feGaussianBlur stdDeviation="22"/>
<feComposite in2="hardAlpha" operator="out"/>
<feColorMatrix type="matrix" values="0 0 0 0 0.0941176 0 0 0 0 0.0862745 0 0 0 0 0.184314 0 0 0 0.15 0"/>
<feBlend mode="normal" in2="BackgroundImageFix" result="effect1_dropShadow_347_963"/>
<feBlend mode="normal" in="SourceGraphic" in2="effect1_dropShadow_347_963" result="shape"/>
</filter>
<filter id="filter1_d_347_963" x="330.399" y="467.778" width="65.9756" height="52.2463" filterUnits="userSpaceOnUse" color-interpolation-filters="sRGB">
<feFlood flood-opacity="0" result="BackgroundImageFix"/>
<feColorMatrix in="SourceAlpha" type="matrix" values="0 0 0 0 0 0 0 0 0 0 0 0 0 0 0 0 0 0 127 0" result="hardAlpha"/>
<feOffset dy="2"/>
<feGaussianBlur stdDeviation="2"/>
<feComposite in2="hardAlpha" operator="out"/>
<feColorMatrix type="matrix" values="0 0 0 0 0 0 0 0 0 0 0 0 0 0 0 0 0 0 0.25 0"/>
<feBlend mode="normal" in2="BackgroundImageFix" result="effect1_dropShadow_347_963"/>
<feBlend mode="normal" in="SourceGraphic" in2="effect1_dropShadow_347_963" result="shape"/>
</filter>
<filter id="filter2_d_347_963" x="176.482" y="489.617" width="71.9072" height="30.7285" filterUnits="userSpaceOnUse" color-interpolation-filters="sRGB">
<feFlood flood-opacity="0" result="BackgroundImageFix"/>
<feColorMatrix in="SourceAlpha" type="matrix" values="0 0 0 0 0 0 0 0 0 0 0 0 0 0 0 0 0 0 127 0" result="hardAlpha"/>
<feOffset dy="2"/>
<feGaussianBlur stdDeviation="2"/>
<feComposite in2="hardAlpha" operator="out"/>
<feColorMatrix type="matrix" values="0 0 0 0 0 0 0 0 0 0 0 0 0 0 0 0 0 0 0.25 0"/>
<feBlend mode="normal" in2="BackgroundImageFix" result="effect1_dropShadow_347_963"/>
<feBlend mode="normal" in="SourceGraphic" in2="effect1_dropShadow_347_963" result="shape"/>
</filter>
<linearGradient id="paint0_linear_347_963" x1="249.044" y1="464.916" x2="256.316" y2="557.742" gradientUnits="userSpaceOnUse">
<stop stop-color="#B7C3D6"/>
<stop offset="1" stop-color="#A5B0C9"/>
</linearGradient>
</defs>
</svg>
