<svg width="38" height="36" viewBox="0 0 38 36" fill="none" xmlns="http://www.w3.org/2000/svg">
  <path d="M12.1806 15.1596C12.5709 15.1596 12.9311 15.2197 13.2914 15.3248C13.4265 14.7991 13.6217 14.3033 13.8618 13.8226C13.3364 13.6574 12.766 13.5522 12.1806 13.5522C10.1841 13.5522 8.44288 14.6038 7.45215 16.1811H9.52368C10.2442 15.5502 11.1749 15.1596 12.1806 15.1596Z" fill="#265D89"/>
  <path d="M15.574 17.0671L16.3395 18.2989L17.6455 17.668C18.291 17.3525 18.9514 17.1873 19.6119 17.1873C21.5633 17.1873 23.2746 18.4491 23.89 20.3118L24.2803 21.4985L25.5263 21.4084C25.6163 21.4084 25.6914 21.3934 25.7514 21.3784C25.8865 21.3784 26.0216 21.4084 26.1567 21.4234C26.2017 21.3784 26.2618 21.3333 26.2918 21.2732C26.592 20.8676 26.8322 20.432 27.0274 19.9813C26.6221 19.8612 26.1867 19.7861 25.7364 19.7861C25.6163 19.7861 25.5112 19.8161 25.4061 19.8161C24.6106 17.3675 22.3289 15.5799 19.6119 15.5799C18.6512 15.5799 17.7506 15.8203 16.94 16.2109C16.5497 15.5799 16.0393 15.0391 15.4389 14.6035C15.1837 15.1143 15.0035 15.655 14.8984 16.2259C15.1536 16.4662 15.3938 16.7516 15.5889 17.0521L15.574 17.0671Z" fill="#265D89"/>
  <path d="M20.2726 31.803C19.9123 31.9532 19.537 32.0284 19.1317 32.0284C18.3812 32.0284 17.6606 31.7429 17.0902 31.2172L15.7242 29.9704L14.6885 31.5026C13.8479 32.7494 12.4368 33.5005 10.9357 33.5005C8.47393 33.5005 6.44743 31.4876 6.4174 29.024V27.7621L5.17146 27.4918C3.34012 27.0711 2.06422 25.4788 2.06422 23.6011C2.06422 21.3929 3.85054 19.6053 6.05715 19.6053C6.13221 19.6053 6.22224 19.6203 6.29729 19.6353L6.50747 19.6654L7.97856 19.8306L8.26377 18.3885C8.2938 18.2383 8.33882 18.0881 8.39887 17.9529H6.74765C6.74765 17.9529 6.71763 18.043 6.70262 18.0881C6.49246 18.058 6.28229 18.028 6.07213 18.028C2.97987 18.028 0.488037 20.5366 0.488037 23.6161C0.488037 26.275 2.34939 28.4982 4.84122 29.0691C4.88625 32.4189 7.60326 35.1229 10.9507 35.1229C13.0673 35.1229 14.9286 34.0563 16.0244 32.4189C16.85 33.17 17.9309 33.6357 19.1468 33.6357C19.5821 33.6357 19.9873 33.5606 20.3776 33.4554C20.3176 33.3353 20.2876 33.2151 20.2876 33.0799V31.8181L20.2726 31.803Z" fill="#265D89"/>
  <path d="M28.7079 23.3761L30.5092 25.1788C30.5242 24.9985 30.5693 24.8182 30.5693 24.638C30.5693 23.0457 29.7887 21.6336 28.5878 20.7473C28.3627 21.243 28.1075 21.7237 27.7922 22.1594C28.1825 22.4898 28.5128 22.8954 28.7079 23.3761Z" fill="#265D89"/>
  <path d="M25.7211 27.8823C25.2708 27.8823 24.8355 27.7922 24.4152 27.5969L22.2236 26.6205L22.1786 29.024C22.1786 29.3094 22.1185 29.5648 22.0435 29.8352V32.5691C23.0792 31.7279 23.7547 30.4811 23.7847 29.054C24.3852 29.3244 25.0456 29.4746 25.7362 29.4746C27.5225 29.4746 29.0686 28.4982 29.9092 27.0411L28.7384 25.8694C28.243 27.0411 27.0871 27.8823 25.7362 27.8823H25.7211Z" fill="#265D89"/>
  <path d="M20.2725 31.8032V33.065C20.2725 33.2002 20.3175 33.3354 20.3625 33.4406C20.978 33.2753 21.5484 32.9749 22.0287 32.5843V29.8503C21.7585 30.7366 21.1131 31.4727 20.2725 31.8182V31.8032Z" fill="#265D89"/>
  <path d="M22.0279 8.45979V1.82013C22.0279 1.33943 21.6376 0.933838 21.1422 0.933838C20.6469 0.933838 20.2566 1.32441 20.2566 1.82013V8.45979C20.5568 8.42975 20.842 8.36966 21.1422 8.36966C21.4425 8.36966 21.7277 8.42975 22.0279 8.45979Z" fill="#265D89"/>
  <path d="M32.5514 6.91219C32.8967 6.56669 32.8967 6.01088 32.5514 5.66538C32.2062 5.31987 31.6508 5.31987 31.3055 5.66538L26.6821 10.2921C27.1475 10.6526 27.5828 11.0582 27.9581 11.5089L32.5514 6.91219Z" fill="#265D89"/>
  <path d="M9.52449 16.1809H7.45297C7.12272 16.7217 6.86752 17.3076 6.73242 17.9385H8.38364C8.60881 17.2475 8.99911 16.6466 9.52449 16.1809Z" fill="#265D89"/>
  <path d="M36.3792 16.1805H30.0896C30.1496 16.6012 30.2097 17.0067 30.2097 17.4424C30.2097 17.6076 30.1647 17.7729 30.1647 17.9381H36.3792C36.8596 17.9381 37.2649 17.5475 37.2649 17.0518C37.2649 16.5561 36.8746 16.1655 36.3792 16.1655V16.1805Z" fill="#265D89"/>
  <path d="M30.5093 25.1792C30.4342 25.8552 30.224 26.4861 29.8938 27.0569L31.3048 28.469C31.47 28.6342 31.6951 28.7244 31.9203 28.7244C32.1455 28.7244 32.3706 28.6342 32.5358 28.469C32.881 28.1235 32.881 27.5677 32.5358 27.2222L30.4943 25.1792H30.5093Z" fill="#265D89"/>
  <path d="M28.7091 23.376C28.8742 23.7665 28.9643 24.1872 28.9643 24.6378C28.9643 25.0885 28.8742 25.4941 28.7091 25.8846L29.88 27.0563C30.2102 26.4855 30.4204 25.8546 30.4954 25.1786L28.6941 23.376H28.7091Z" fill="#265D89"/>
  <path d="M14.3581 11.5089C14.7483 11.0582 15.1686 10.6677 15.634 10.2921L10.4702 5.12461C10.1249 4.7791 9.56953 4.7791 9.22427 5.12461C8.87902 5.47011 8.87902 6.02592 9.22427 6.37142L14.3581 11.5089Z" fill="#265D89"/>
  <path d="M16.31 13.2815C16.6252 12.9059 16.9555 12.6055 17.3157 12.3351C18.2164 11.6591 19.3122 11.2235 20.468 11.1033L20.7833 11.0582C20.9034 11.0432 21.0234 11.0132 21.1585 11.0132C21.2936 11.0132 21.4137 11.0282 21.5338 11.0582L21.849 11.1033C23.0049 11.2235 24.1007 11.6591 25.0014 12.3351C25.3616 12.6055 25.6918 12.9209 26.0071 13.2815C26.7876 14.1978 27.298 15.2944 27.4782 16.4661C27.5382 16.8567 27.5832 17.1721 27.5682 17.5026C27.5532 17.6228 27.5382 17.7279 27.5382 17.8481C27.4932 18.5992 27.298 19.3203 27.0128 19.9962C27.5983 20.1615 28.1236 20.4169 28.589 20.7624C28.9793 19.8911 29.2344 18.9597 29.2945 17.9533C29.2945 17.788 29.3395 17.6228 29.3395 17.4575C29.3395 17.0219 29.2795 16.6163 29.2194 16.1957C28.9793 14.6485 28.3188 13.2665 27.3431 12.1398C26.9528 11.6892 26.5325 11.2836 26.0671 10.923C24.9263 10.0668 23.5453 9.51099 22.0442 9.34575C21.744 9.3157 21.4588 9.25562 21.1585 9.25562C20.8583 9.25562 20.5731 9.3157 20.2729 9.34575C18.7718 9.51099 17.4058 10.0518 16.2499 10.923C15.7846 11.2836 15.3492 11.6892 14.974 12.1398C14.5236 12.6506 14.1634 13.2364 13.8481 13.8373C14.4186 14.0175 14.944 14.2879 15.4243 14.6334C15.6645 14.1527 15.9497 13.7021 16.31 13.2815Z" fill="#265D89"/>
  <path d="M14.8828 16.241C14.9878 15.6852 15.168 15.1294 15.4232 14.6187C14.9428 14.2732 14.4174 14.0028 13.847 13.8225C13.6068 14.3032 13.4267 14.7989 13.2766 15.3247C13.8771 15.505 14.4174 15.8054 14.8678 16.226L14.8828 16.241Z" fill="#265D89"/>
  <path d="M26.2616 21.2885C26.2616 21.2885 26.1565 21.3786 26.1265 21.4387C26.7569 21.5138 27.3273 21.7842 27.7927 22.1748C28.1079 21.7391 28.3631 21.2584 28.5882 20.7627C28.1229 20.4172 27.5825 20.1618 27.0121 19.9966C26.817 20.4472 26.5768 20.8979 26.2766 21.2885H26.2616Z" fill="#265D89"/>
  </svg>
  