<svg width="46" height="39" viewBox="0 0 46 39" fill="none" xmlns="http://www.w3.org/2000/svg">
<path d="M34.2208 8.06127C34.3409 7.94107 34.4009 7.77581 34.4009 7.61053C34.4009 7.44525 34.3259 7.27999 34.2208 7.15979C34.1006 7.03959 33.9355 6.97949 33.7703 6.97949H27.8696C27.7045 6.97949 27.5393 7.03959 27.4192 7.15979C27.2991 7.27999 27.239 7.44525 27.239 7.61053C27.239 7.77581 27.3141 7.94107 27.4192 8.06127C27.5393 8.18148 27.7045 8.24157 27.8696 8.24157H33.7703C33.9355 8.24157 34.1006 8.18148 34.2208 8.06127Z"  />
<path d="M36.1282 8.24157H38.4855C38.6506 8.24157 38.8158 8.16645 38.9359 8.06127C39.056 7.94107 39.1161 7.77581 39.1161 7.61053C39.1161 7.44525 39.056 7.27999 38.9359 7.15979C38.8158 7.03959 38.6506 6.97949 38.4855 6.97949H36.1282C35.963 6.97949 35.7979 7.03959 35.6777 7.15979C35.5576 7.27999 35.4976 7.44525 35.4976 7.61053C35.4976 7.77581 35.5726 7.94107 35.6777 8.06127C35.7979 8.18148 35.963 8.24157 36.1282 8.24157Z"  />
<path d="M38.5004 9.9248H32.5997C32.4346 9.9248 32.2694 9.99992 32.1493 10.1051C32.0292 10.2253 31.9691 10.3906 31.9691 10.5558C31.9691 10.7211 32.0442 10.8864 32.1493 11.0066C32.2694 11.1268 32.4346 11.1869 32.5997 11.1869H38.5004C38.6656 11.1869 38.8307 11.1118 38.9508 11.0066C39.071 10.8864 39.131 10.7211 39.131 10.5558C39.131 10.3906 39.071 10.2253 38.9508 10.1051C38.8307 9.9849 38.6656 9.9248 38.5004 9.9248Z"  />
<path d="M35.4068 14.5525C35.5269 14.4323 35.5869 14.267 35.5869 14.1017C35.5869 13.9365 35.5119 13.7712 35.4068 13.651C35.2867 13.5308 35.1215 13.4707 34.9563 13.4707H29.0557C28.8905 13.4707 28.7253 13.5458 28.6052 13.651C28.4851 13.7712 28.425 13.9365 28.425 14.1017C28.425 14.267 28.4851 14.4323 28.6052 14.5525C28.7253 14.6727 28.8905 14.7328 29.0557 14.7328H34.9563C35.1215 14.7328 35.2867 14.6577 35.4068 14.5525Z"  />
<path d="M38.5003 13.4558H37.3142C37.149 13.4558 36.9839 13.5309 36.8638 13.6361C36.7436 13.7563 36.6836 13.9216 36.6836 14.0868C36.6836 14.2521 36.7436 14.4174 36.8638 14.5376C36.9839 14.6578 37.149 14.718 37.3142 14.718H38.5003C38.6655 14.718 38.8307 14.6428 38.9508 14.5376C39.0709 14.4174 39.1309 14.2521 39.1309 14.0868C39.1309 13.9216 39.0559 13.7563 38.9508 13.6361C38.8307 13.5159 38.6655 13.4558 38.5003 13.4558Z"  />
<path d="M21.2334 33.9351H25.963C26.6987 33.9351 27.2992 33.3341 27.2992 32.5978V24.8748C27.2992 24.1385 26.6987 23.5376 25.963 23.5376H21.2334C20.4977 23.5376 19.8971 24.1385 19.8971 24.8748V32.5978C19.8971 33.3341 20.4977 33.9351 21.2334 33.9351ZM20.843 24.8748C20.843 24.6644 21.0232 24.4842 21.2334 24.4842H25.963C26.1732 24.4842 26.3533 24.6644 26.3533 24.8748V32.5978C26.3533 32.8082 26.1732 32.9885 25.963 32.9885H21.2334C21.0232 32.9885 20.843 32.8082 20.843 32.5978V24.8748Z"  />
<path d="M18.6962 38.3225H30.5577C30.7078 38.3225 30.8579 38.2925 30.9931 38.2324C31.1282 38.1723 31.2633 38.0822 31.3534 37.977L44.8665 24.5443C44.8665 24.5443 44.9716 24.4241 45.0466 24.349C45.2268 24.1687 45.437 23.9433 45.437 23.733V4.77094C45.407 3.65906 44.9416 2.62239 44.1458 1.84107C43.35 1.05975 42.299 0.639049 41.1879 0.624023H18.6812C16.7744 0.624023 15.2429 2.06638 14.9276 4.01967H14.8375C14.0267 4.13987 13.2309 4.33527 12.4652 4.6508C10.7235 5.37202 9.25211 6.57398 8.2011 8.15164C7.15008 9.71427 6.59454 11.5474 6.59454 13.4255C6.59454 15.3037 7.10504 16.9415 8.03594 18.444C7.91582 18.5192 7.79571 18.6093 7.69061 18.7295L1.48962 24.935C1.0542 25.3707 0.813956 25.9567 0.798942 26.5577H0.783936V26.6028C0.783936 27.0686 0.919058 27.5193 1.1743 27.91C1.42955 28.3006 1.80493 28.6012 2.22534 28.7815C2.51061 28.9017 2.8259 28.9618 3.12619 28.9618C3.27634 28.9618 3.42649 28.9617 3.57663 28.9167C4.04208 28.8265 4.44748 28.6011 4.7778 28.2706L10.9788 22.0651C11.1139 21.9449 11.204 21.7947 11.2941 21.6294C12.3451 22.2455 13.5162 22.6511 14.7474 22.8164H14.8375V34.3709C14.8225 34.8968 14.8976 35.3926 15.0927 35.8734C15.2729 36.3542 15.5582 36.7899 15.9185 37.1656C16.2789 37.5412 16.6993 37.8267 17.1798 38.022C17.6452 38.2173 18.1407 38.3225 18.6512 38.3225H18.6812H18.6962ZM31.3835 36.1289V26.6478C31.3835 25.4909 32.1192 24.2438 33.4705 24.2438H43.4701L31.3835 36.1289ZM10.0329 20.833C10.0329 20.833 9.98783 20.9382 9.94278 20.9683L3.74179 27.1738C3.66672 27.2489 3.57662 27.309 3.47152 27.3541C3.36642 27.3991 3.26133 27.4141 3.15623 27.4141C3.05113 27.4141 2.94603 27.3991 2.85594 27.3541C2.75084 27.309 2.66074 27.2489 2.58567 27.1738C2.43552 27.0235 2.34543 26.8131 2.34543 26.6028C2.34543 26.3924 2.43552 26.1821 2.58567 26.0318L8.78666 19.8264C8.78666 19.8264 8.84671 19.7663 8.87674 19.7512H8.95182C8.95182 19.7512 8.99686 19.7663 9.08695 19.8414C9.147 19.9015 9.20705 19.9766 9.26711 20.0518C9.29714 20.0818 9.32718 20.1268 9.37222 20.1719C9.50736 20.3071 9.64249 20.4273 9.77762 20.5475C9.83768 20.6076 9.89773 20.6678 9.95779 20.7129C10.0178 20.8181 10.0178 20.8631 10.0178 20.8631L10.0329 20.833ZM10.0629 18.4591C10.0629 18.4591 10.0028 18.384 9.9728 18.3539C9.50735 17.7679 9.11699 17.1218 8.8167 16.4306C8.21612 14.9882 8.06597 13.4256 8.36626 11.893C8.66655 10.3755 9.41726 8.97804 10.5133 7.88119C11.6094 6.78434 13.0057 6.03309 14.5222 5.73258C14.5973 5.71756 14.6723 5.71762 14.7474 5.70259H14.8375C15.2429 5.62747 15.6333 5.58237 16.0387 5.58237C16.399 5.58237 16.7443 5.6124 17.0897 5.65747H17.1798C17.8104 5.76265 18.426 5.92789 19.0265 6.18332C19.552 6.4087 20.0475 6.69426 20.498 7.00979L20.543 7.03978L20.6031 7.06986C21.0385 7.38539 21.4439 7.73099 21.8192 8.12165L21.8643 8.16668C21.8643 8.16668 21.8943 8.19677 21.8943 8.2118C22.1195 8.46723 22.3447 8.75269 22.5399 9.03817C22.7201 9.30863 22.8702 9.59411 23.0204 9.87959C23.0204 9.89461 23.0354 9.90968 23.0504 9.92471C23.0504 9.93973 23.0654 9.95471 23.0805 9.96974C23.2306 10.2853 23.3507 10.6008 23.4558 10.9314V10.9764L23.4858 11.0215C23.7261 11.7878 23.8612 12.5842 23.8612 13.3956V13.5157C23.8612 13.8763 23.8162 14.252 23.7561 14.5976V14.6877C23.636 15.2737 23.4858 15.8447 23.2606 16.4006V16.4457L23.2156 16.4908C23.0504 16.8664 22.8702 17.2119 22.645 17.5575L22.615 17.6026L22.585 17.6477C22.2847 18.0984 21.9394 18.5342 21.549 18.9249C20.3478 20.1269 18.8163 20.8781 17.1647 21.1336H17.0747C16.7293 21.1937 16.369 21.2237 16.0086 21.2237C15.6032 21.2237 15.1978 21.1937 14.8075 21.1336C14.7924 21.1336 14.7774 21.1336 14.7624 21.1336C14.7474 21.1336 14.7324 21.1336 14.7174 21.1336C13.6213 20.9532 12.5853 20.5476 11.6544 19.9315C11.0388 19.5108 10.4833 19.015 10.0028 18.444L10.0629 18.4591ZM16.9395 36.3241C16.7894 36.1589 16.6693 35.9636 16.5942 35.7382C16.5191 35.5279 16.4891 35.2875 16.5191 35.0771V23.0117H16.6242C18.1557 22.8164 19.6421 22.2905 20.9484 21.4341C22.585 20.3372 23.8612 18.8047 24.627 16.9716C24.642 16.9265 24.657 16.8964 24.672 16.8514C24.672 16.8814 24.657 16.9114 24.657 16.9265C24.657 17.1068 24.732 17.2721 24.8522 17.3923C24.9723 17.5125 25.1524 17.5876 25.3176 17.5876H29.6418C29.822 17.5876 29.9871 17.5125 30.1072 17.3923C30.2273 17.2721 30.3024 17.0918 30.3024 16.9265C30.3024 16.7612 30.2273 16.5809 30.1072 16.4607C29.9871 16.3405 29.8069 16.2654 29.6418 16.2654H25.3176C25.1374 16.2654 24.9723 16.3405 24.8522 16.4607C24.8071 16.5058 24.7771 16.5508 24.7471 16.6109C25.0023 15.9197 25.1825 15.2286 25.2726 14.5074H26.5488C26.729 14.5074 26.8941 14.4323 27.0142 14.3121C27.1344 14.1919 27.2094 14.0116 27.2094 13.8463C27.2094 13.681 27.1344 13.5007 27.0142 13.3805C26.8941 13.2603 26.714 13.1852 26.5488 13.1852H25.3626C25.3626 12.5391 25.3326 11.878 25.1975 11.2319C25.1675 11.0666 25.1224 10.9164 25.0774 10.7661C25.1524 10.7962 25.2275 10.8112 25.3026 10.8112H30.2424C30.4225 10.8112 30.5877 10.736 30.7078 10.6158C30.8279 10.4956 30.903 10.3153 30.903 10.15C30.903 9.98476 30.8279 9.80445 30.7078 9.68425C30.5877 9.56405 30.4075 9.48892 30.2424 9.48892H25.3026C25.1224 9.48892 24.9573 9.56405 24.8372 9.68425C24.8071 9.7143 24.7921 9.74436 24.7621 9.78944C24.4918 9.06822 24.1465 8.37707 23.7261 7.73098H25.3026C25.4828 7.73098 25.6479 7.65584 25.768 7.53564C25.8882 7.41544 25.9632 7.25016 25.9632 7.06986C25.9632 6.88955 25.8882 6.72428 25.768 6.60408C25.6479 6.48387 25.4678 6.40874 25.3026 6.40874H22.6901C22.615 6.33361 22.5099 6.22846 22.4198 6.15334C20.9034 4.81608 19.1767 4.21503 17.3449 4.04975C17.1347 4.03473 17.0146 4.00469 16.8044 3.97464C16.8044 3.97464 16.6993 3.97464 16.6693 3.97464C16.6543 3.97464 16.6092 3.97464 16.5942 3.97464C16.8044 3.32855 16.8645 2.14151 18.1557 2.14151H41.7285C42.254 2.15653 42.7494 2.36691 43.1398 2.72752C43.5152 3.08812 43.7704 3.56899 43.8155 4.09487V23.177H33.6356C31.4285 23.177 30.1222 25.1303 30.1222 27.0235V36.835L30.0922 36.8651H18.1407C17.9155 36.8651 17.7053 36.82 17.4951 36.7299C17.2849 36.6397 17.1047 36.5045 16.9395 36.3392V36.3241Z"  />
<path d="M13.5763 15.8148C13.9516 15.5744 14.357 15.4091 14.7774 15.2889H14.8225C14.8225 15.2889 14.8525 15.2739 14.8675 15.2739C15.6032 15.0786 16.384 15.0786 17.1347 15.2288H17.2248C17.7053 15.364 18.1857 15.5444 18.6212 15.8148C19.3869 16.2956 20.0025 16.9718 20.4079 17.7831L20.7832 17.5878L20.8733 17.5427L21.2487 17.3474C20.7682 16.3858 20.0325 15.5744 19.1316 15.0034C18.7863 14.793 18.4109 14.6278 18.0356 14.4926C18.9365 13.8766 19.537 12.8398 19.537 11.6528C19.537 10.1653 18.5761 8.90312 17.2398 8.43734H17.1948L17.1497 8.40735C16.8194 8.30217 16.4741 8.22705 16.1137 8.22705C15.6783 8.22705 15.2729 8.31716 14.8825 8.46742C14.8675 8.46742 14.8525 8.46742 14.8375 8.46742C14.8225 8.46742 14.8075 8.46742 14.7925 8.46742C13.5613 8.9933 12.6904 10.2103 12.6904 11.6227C12.6904 12.7947 13.291 13.8465 14.1919 14.4625C13.8165 14.5977 13.4411 14.7631 13.0958 14.9734C12.1949 15.5444 11.4592 16.3557 10.9788 17.3174L11.3992 17.5277H11.4442L11.8196 17.738C12.225 16.9267 12.8406 16.2505 13.6063 15.7697L13.5763 15.8148ZM13.6213 11.6678C13.6213 10.7813 14.0868 10.015 14.7774 9.57928C14.7925 9.57928 14.8075 9.56431 14.8225 9.54929C14.8375 9.54929 14.8525 9.53423 14.8675 9.51921C15.2279 9.30885 15.6483 9.17365 16.0987 9.17365C16.4741 9.17365 16.8194 9.26375 17.1347 9.39898C17.1497 9.39898 17.1647 9.41403 17.1798 9.42906L17.2248 9.45914C18.0206 9.86482 18.5761 10.6912 18.5761 11.6528C18.5761 12.6144 18.0206 13.4408 17.2248 13.8465L17.1798 13.8765C17.1798 13.8765 17.1497 13.8916 17.1347 13.9066C16.8194 14.0568 16.4741 14.132 16.0987 14.132C15.6483 14.132 15.2279 13.9967 14.8675 13.7864C14.8525 13.7864 14.8375 13.7714 14.8225 13.7564C14.8075 13.7564 14.7925 13.7413 14.7774 13.7263C14.0868 13.2905 13.6213 12.5242 13.6213 11.6377V11.6678Z"  />
</svg>
