<svg width="39" height="38" viewBox="0 0 39 38" fill="none" xmlns="http://www.w3.org/2000/svg">
<path d="M28.7439 25.8884C27.498 24.7468 26.5223 23.545 25.6817 22.4785C23.8954 20.2552 22.4994 18.4977 19.6173 18.4827C16.7352 18.6179 15.3992 20.4205 13.7029 22.7038C12.8923 23.8004 11.9767 25.0322 10.7608 26.2189C7.81863 29.1031 6.48261 32.1225 7.11308 34.4659C7.48835 35.8629 8.53914 36.8694 9.99521 37.245C10.3405 37.3351 10.7157 37.3802 11.076 37.3802H11.1661C12.6221 37.3501 13.9431 36.6291 15.3542 35.8629C16.7502 35.0968 18.1912 34.3157 19.7524 34.2857H20.0226C21.5987 34.2406 23.0848 34.9767 24.5108 35.6977C25.9069 36.4037 27.2429 37.0647 28.6689 37.0647C28.6989 37.0647 28.729 37.0647 28.774 37.0647C29.1643 37.0647 29.5395 37.0046 29.9148 36.8844C31.3559 36.4488 32.3766 35.3973 32.6918 33.9852C33.2322 31.6118 31.7912 28.6525 28.7439 25.8734V25.8884ZM28.6839 35.4874C27.6181 35.4874 26.4473 34.9016 25.2164 34.2857C23.6852 33.5195 21.959 32.6783 19.9925 32.7084H19.7224C17.7709 32.7534 16.0897 33.6698 14.5886 34.4809C13.3577 35.1569 12.2018 35.7878 11.1361 35.8029C10.8809 35.8029 10.6407 35.7728 10.3855 35.7127C9.48485 35.4874 8.85437 34.8865 8.6292 34.0453C8.14885 32.2877 9.36473 29.7791 11.8566 27.3305C13.1625 26.0537 14.1082 24.7618 14.9639 23.6201C16.51 21.5321 17.5457 20.1501 19.6473 20.0299C21.7488 20.06 22.7696 21.3368 24.4658 23.4399C25.3514 24.5365 26.3572 25.7983 27.6932 27.0151C30.2751 29.3585 31.566 31.8221 31.1607 33.5946C30.9656 34.4509 30.3652 35.0518 29.4645 35.3222C29.2243 35.3973 28.9991 35.4273 28.7439 35.4423H28.6839V35.4874Z"  />
<path d="M8.28283 25.1224C9.07841 25.1074 9.78393 24.8821 10.3544 24.4314C12.4709 22.8391 12.2007 18.9184 9.78393 15.7188C8.08768 13.4805 5.70097 12.0835 3.62945 12.1135C2.83387 12.1285 2.12834 12.3689 1.55792 12.8045C-0.543618 14.3968 -0.288424 18.3175 2.12835 21.5172C3.79457 23.7254 6.16628 25.1224 8.19276 25.1224H8.28283ZM3.71951 13.6908C5.26565 13.6908 7.14203 14.8625 8.50803 16.6802C9.48374 17.9871 10.0842 19.4292 10.1893 20.7511C10.2343 21.397 10.1893 22.5687 9.39367 23.1846C9.07844 23.425 8.68813 23.5451 8.23779 23.5451C6.69166 23.6052 4.77027 22.4035 3.37424 20.5558C2.39853 19.2639 1.79809 17.8068 1.69302 16.4849C1.64798 15.8389 1.69301 14.6672 2.4886 14.0513C2.80383 13.811 3.1941 13.6908 3.64443 13.6908C3.65944 13.6908 3.68948 13.6908 3.70449 13.6908H3.71951Z"  />
<path d="M37.4052 12.1136C36.8347 11.708 36.1443 11.5127 35.3787 11.5127H35.2886C33.2171 11.5578 30.9204 13.0299 29.2992 15.3583C27.0025 18.6631 26.8825 22.5688 29.0441 24.086C29.6145 24.4916 30.305 24.6869 31.0706 24.6869H31.1606C33.2321 24.6418 35.5288 23.1697 37.15 20.8413C39.4467 17.5365 39.5667 13.6308 37.4052 12.1136ZM29.9447 22.7791C29.2842 22.3134 28.969 21.367 29.059 20.1503C29.1641 18.8884 29.7195 17.4613 30.5752 16.2446C31.8961 14.3518 33.7575 13.105 35.3036 13.075H35.3637C35.799 13.075 36.1743 13.1801 36.4895 13.3904C37.9005 14.3668 37.6003 17.4313 35.8591 19.9249C34.5381 21.8177 32.6767 23.0645 31.1306 23.0945C30.6802 23.0945 30.275 22.9894 29.9447 22.7791Z"  />
<path d="M14.4681 16.3195C14.4681 16.3195 14.5131 16.3195 14.5431 16.3195C14.7383 16.3195 14.9334 16.2895 15.1285 16.2595C16.4795 15.9891 17.5754 14.9526 18.2208 13.3152C18.8513 11.7229 18.9864 9.73997 18.5961 7.74207C17.8456 3.94154 15.3687 1.11743 12.8169 1.11743H12.7418C12.5466 1.11743 12.3515 1.14748 12.1564 1.17752C9.42437 1.71831 7.87821 5.53385 8.70381 9.69491C9.45436 13.4954 11.9312 16.3195 14.4831 16.3195H14.4681ZM12.7718 2.69472H12.8169C14.6032 2.69472 16.4495 5.03814 17.0349 8.04251C17.3652 9.73997 17.2751 11.4074 16.7497 12.7293C16.4945 13.3753 15.8941 14.5019 14.8283 14.7122C14.7233 14.7272 14.6182 14.7423 14.5131 14.7423C12.7418 14.7873 10.8504 12.4289 10.2499 9.39447C9.9197 7.69701 10.0248 6.02958 10.5352 4.70765C10.7903 4.06171 11.3908 2.93508 12.4566 2.72477C12.5616 2.70975 12.6668 2.69472 12.7718 2.69472Z"  />
<path d="M23.9845 16.0943C24.1647 16.1244 24.3298 16.1394 24.5249 16.1394C24.5549 16.1394 24.57 16.1394 24.6 16.1394C27.1669 16.0793 29.5686 13.1501 30.1691 9.30446C30.8295 5.11336 29.1333 1.35789 26.3863 0.922261C26.1911 0.892217 25.981 0.877197 25.7858 0.877197C23.2189 0.937285 20.8172 3.86654 20.2017 7.71214C19.5412 11.9032 21.2375 15.6587 23.9845 16.0943ZM26.1461 2.46952C27.0017 2.60471 27.7673 3.37083 28.2326 4.5876C28.728 5.84943 28.8631 7.47179 28.6079 9.04908C28.1276 12.0985 26.3412 14.517 24.5549 14.5621C24.4348 14.5621 24.3298 14.5621 24.2247 14.5321C23.1439 14.3668 22.4984 13.2702 22.2282 12.6243C21.6578 11.3324 21.4927 9.66498 21.7629 7.95249C22.2432 4.90305 24.0296 2.48454 25.8159 2.43947C25.921 2.43947 26.026 2.43947 26.1461 2.45449V2.46952Z"  />
</svg>
