<svg width="34" height="26" viewBox="0 0 34 26" fill="none" xmlns="http://www.w3.org/2000/svg">
<path d="M22.8781 23.1366C22.6765 23.0209 22.4624 22.9284 22.2482 22.8359C22.6261 22.2805 23.1426 21.8176 23.7473 21.482C25.2213 20.6489 27.174 20.6489 28.6605 21.482C29.3912 21.887 29.9959 22.4887 30.3864 23.1945C30.4746 23.3565 30.651 23.4491 30.8399 23.4491C30.9155 23.4491 30.9911 23.4375 31.0667 23.4028C31.3187 23.2871 31.4194 23.0094 31.2809 22.7779C30.8021 21.9217 30.0715 21.1928 29.177 20.6952C28.8495 20.5101 28.4967 20.3712 28.1314 20.2555C28.9503 19.7001 29.4794 18.7976 29.4794 17.7909C29.4794 16.1016 28.0054 14.7247 26.1913 14.7247C24.3772 14.7247 22.9033 16.1016 22.9033 17.7909C22.9033 18.8092 23.4324 19.7001 24.2513 20.2555C23.8859 20.3712 23.5332 20.5101 23.2056 20.6952C23.1804 20.7184 23.1426 20.7299 23.1175 20.7531C23.1426 20.5911 23.1678 20.4175 23.1678 20.2439C23.1678 18.5546 21.6939 17.1777 19.8798 17.1777C18.0657 17.1777 16.5918 18.5546 16.5918 20.2439C16.5918 20.4175 16.617 20.5796 16.6422 20.7415C16.617 20.73 16.5918 20.7068 16.5792 20.6952C16.2516 20.5101 15.8989 20.3712 15.5335 20.2555C16.3524 19.7001 16.8815 18.7976 16.8815 17.7909C16.8815 16.1016 15.4076 14.7247 13.5935 14.7247C11.7794 14.7247 10.3054 16.1016 10.3054 17.7909C10.3054 18.8092 10.8471 19.7001 11.6534 20.2555C11.2881 20.3712 10.9353 20.5101 10.6078 20.6952C9.71333 21.1928 8.98266 21.9217 8.50394 22.7779C8.37796 23.0094 8.47875 23.2871 8.7307 23.4028C8.98266 23.5185 9.28501 23.426 9.41099 23.1945C9.80152 22.4887 10.4062 21.8986 11.1369 21.482C12.6108 20.6489 14.5635 20.6489 16.0375 21.482C16.6422 21.8176 17.1461 22.2805 17.524 22.8359C17.2972 22.9284 17.0831 23.0209 16.8815 23.1366C15.9871 23.6342 15.2564 24.3632 14.7777 25.2194C14.6517 25.4508 14.7525 25.7285 15.0044 25.8442C15.08 25.8789 15.1556 25.8905 15.2312 25.8905C15.4202 25.8905 15.5965 25.7979 15.6847 25.636C16.0752 24.9301 16.68 24.3401 17.4106 23.9235C18.8846 23.0904 20.8372 23.0904 22.3238 23.9235C23.0545 24.3285 23.6592 24.9301 24.0497 25.636C24.1757 25.8674 24.478 25.9599 24.73 25.8326C24.9819 25.7169 25.0827 25.4393 24.9441 25.2078C24.4654 24.34 23.7347 23.6227 22.8403 23.1251L22.8781 23.1366ZM23.9237 17.7794C23.9237 16.5992 24.9441 15.6504 26.1913 15.6504C27.4385 15.6504 28.4589 16.6108 28.4589 17.7794C28.4589 18.9481 27.4385 19.92 26.1913 19.92C24.9441 19.92 23.9237 18.9597 23.9237 17.7794ZM13.6187 19.92C12.3715 19.92 11.3511 18.9597 11.3511 17.7794C11.3511 16.5992 12.3715 15.6504 13.6187 15.6504C14.8659 15.6504 15.8863 16.6108 15.8863 17.7794C15.8863 18.9481 14.8659 19.92 13.6187 19.92ZM19.905 22.373C18.6578 22.373 17.6374 21.4126 17.6374 20.2324C17.6374 19.0522 18.6578 18.1034 19.905 18.1034C21.1522 18.1034 22.1726 19.0638 22.1726 20.2324C22.1726 21.4011 21.1522 22.373 19.905 22.373Z" fill="#67BEA1"/>
<path d="M6.95402 20.3828C7.23117 20.3828 7.45793 20.1745 7.45793 19.9199V15.7313C7.45793 15.2569 7.49573 14.9792 7.53352 14.8288C8.05003 14.875 9.07045 14.875 10.1791 14.4816H33.6615V0.191772H5.25331V5.81515C4.90057 5.69944 4.53523 5.61847 4.1321 5.61847C2.31801 5.61847 0.844059 6.99534 0.844059 8.68468C0.844059 9.69133 1.37317 10.5823 2.19203 11.1493C2.00306 11.2303 1.81409 11.3228 1.59993 11.4385C0.617296 11.9939 0 12.9196 0 13.8568V17.733C0 17.8603 0.0503949 17.976 0.151178 18.057L1.04562 18.8785L1.02043 19.8852C1.02043 20.0125 1.07082 20.1282 1.15901 20.2208C1.25979 20.3133 1.38577 20.3596 1.52434 20.3596H6.92882L6.95402 20.3828ZM6.27374 6.38211V1.129H32.6536V13.556H11.9428C12.8372 12.9196 13.5931 12.1675 13.971 11.6468C14.0592 11.5311 14.0844 11.3807 14.034 11.2418C13.9836 11.103 13.8702 10.9988 13.7317 10.941L12.3837 10.4781C12.1569 10.3971 11.8924 10.4782 11.7664 10.6749C10.6074 12.4799 8.20121 12.0518 7.14299 11.6005C6.87843 11.4501 6.58868 11.346 6.29893 11.2418C6.23594 11.2187 6.17295 11.184 6.10996 11.1608C6.17295 11.184 6.23594 11.2187 6.29893 11.2418V10.9988C6.99181 10.4319 7.45793 9.62192 7.45793 8.69626C7.45793 7.7706 7.00441 6.9375 6.29893 6.38211H6.27374ZM6.21074 6.33585C5.94619 6.13914 5.65644 5.97711 5.34149 5.86141C5.65644 5.97711 5.94619 6.13914 6.21074 6.33585ZM1.87708 8.69626C1.87708 7.51604 2.89751 6.56728 4.1447 6.56728C4.54783 6.56728 4.92576 6.67141 5.2659 6.85655C5.73202 7.1111 6.09736 7.50449 6.28633 7.99046V9.42522C6.09736 9.9112 5.74462 10.3046 5.2659 10.5591C4.93836 10.7327 4.56042 10.8484 4.1447 10.8484C2.89751 10.8484 1.87708 9.88807 1.87708 8.71942V8.69626ZM1.03303 17.5479V13.8568C1.03303 13.2552 1.47395 12.6187 2.14164 12.2369C2.87231 11.8204 3.26285 11.7625 4.1447 11.7625C4.52263 11.7625 4.88797 11.8088 5.2659 11.8898C5.60605 11.9708 5.94619 12.0865 6.28633 12.2369C6.41231 12.2948 6.53829 12.3411 6.66427 12.4105C7.99964 12.9775 10.8216 13.4634 12.4089 11.4617L12.7364 11.5774C12.0813 12.2716 11.0105 13.1394 10.0279 13.5328C10.0279 13.5328 10.0027 13.5444 9.9775 13.556C8.65473 14.0651 7.40754 13.8568 7.30676 13.8453C6.92882 13.8453 6.72725 14.1229 6.61387 14.4701C6.4627 14.9098 6.4627 15.4536 6.4627 15.7081V19.434H2.07865L2.10384 18.705C2.10384 18.5777 2.05345 18.4505 1.95267 18.3579L1.04562 17.5248L1.03303 17.5479Z" fill="#67BEA1"/>
<path d="M16.0563 4.70652L12.9214 10.4337L13.8331 10.8547L16.9679 5.12749L16.0563 4.70652Z" fill="#67BEA1"/>
</svg>
