<svg width="36" height="33" viewBox="0 0 36 33" fill="none" xmlns="http://www.w3.org/2000/svg">
<path d="M35.0474 28.0407L29.073 13.4245V6.25905H29.7485V5.71826H19.2558V6.25905H19.9313V13.4245L18.22 17.6156L16.5688 13.5897V6.46935H17.0642V5.92857H6.57153V6.46935H7.06683V13.5897L1.1075 28.1759C0.867323 28.7768 0.792231 29.3927 0.882297 29.9485C1.06243 31.0151 1.84306 32.2469 4.40994 32.2469C4.59007 32.2469 4.80016 32.2469 4.9953 32.2318H18.5803C19.8112 32.3069 20.6669 32.1417 21.2973 31.8563H31.2796C34.2217 32.0516 35.0774 30.8048 35.2575 29.7382C35.3476 29.2124 35.2575 28.6266 35.0474 28.0558V28.0407ZM21.2673 29.6931C21.2222 29.9635 21.1021 30.5944 19.6461 30.7146C19.3608 30.7296 19.0306 30.7447 18.6253 30.7146H17.2893C17.0942 30.7146 16.8991 30.7146 16.7489 30.7146H4.95031C2.54855 30.8648 2.41348 30.0086 2.35344 29.6931C2.30841 29.4077 2.35339 29.0772 2.48849 28.7317L8.50792 14.0103L8.56793 7.40071H15.0827V13.7249L17.4395 19.5534L18.0549 21.0556L21.1622 28.7317C21.2973 29.0622 21.3424 29.3927 21.2973 29.6931H21.2673ZM34.1467 29.5279C34.0867 29.8584 33.9216 30.8648 31.3247 30.6996H22.5132C22.6333 30.4442 22.7233 30.1889 22.7684 29.9335C22.8584 29.3627 22.7833 28.7468 22.5432 28.1609L18.8505 19.1027L21.0421 13.7399L21.0871 7.01014H27.9771V13.5296L34.0266 28.4613C34.1767 28.8219 34.2367 29.1974 34.1767 29.5129L34.1467 29.5279Z" fill="#265D89"/>
<path d="M21.9873 3.94585C21.1166 3.94585 20.4111 3.23983 20.4111 2.36856C20.4111 1.49729 21.1166 0.79126 21.9873 0.79126C22.8579 0.79126 23.5635 1.49729 23.5635 2.36856C23.5635 3.23983 22.8579 3.94585 21.9873 3.94585Z" fill="#265D89"/>
</svg>
