<svg width="36" height="40" viewBox="0 0 36 40" fill="none" xmlns="http://www.w3.org/2000/svg">
<path d="M28.1916 11.3958C27.5756 11.3517 27.0623 11.3664 26.6369 11.3811C27.209 11.9095 27.737 12.4672 28.1916 13.0983H25.9476L25.9916 14.2578H28.925C29.7756 15.799 30.3037 17.5456 30.3917 19.395H25.4343C25.3903 17.8979 25.1703 16.4742 24.8476 15.0945L22.7062 13.0983H19.1422V9.76655L17.9395 8.65108V13.113H13.7008C14.3608 11.337 15.2408 9.72252 16.3261 8.34284C16.6928 8.26945 17.0741 8.2401 17.4555 8.21075H17.4408L17.5435 8.04929L18.5408 6.94849C11.3247 6.94849 5.45801 12.8048 5.45801 20.0408C5.45801 23.3432 6.69003 26.3374 8.71405 28.6417C8.77272 28.6417 8.83138 28.6417 8.89005 28.6417C9.46205 28.6711 9.93137 28.6564 10.43 28.6417C9.87271 28.1133 9.33005 27.5556 8.89005 26.9245H10.8994L10.8554 25.765H8.17138C7.32071 24.2238 6.80737 22.4919 6.7047 20.6279H11.3834C11.4274 22.1103 11.6474 23.5193 11.9554 24.8843L14.1261 26.9245H17.9541V30.5058L19.1568 31.6213V26.9098H23.1169C22.4569 28.7298 21.5475 30.359 20.4329 31.7534C20.0808 31.8121 19.7142 31.8414 19.3475 31.8708V31.9442L18.3062 33.089C18.3942 33.089 18.4675 33.089 18.5555 33.089C25.7716 33.089 31.6383 27.2327 31.6383 19.9967C31.6383 16.709 30.4063 13.7148 28.3969 11.4104C28.3383 11.4104 28.2796 11.4104 28.2209 11.3958H28.1916ZM11.3394 19.395H6.6607C6.76337 17.5309 7.27671 15.7843 8.12739 14.2578H12.1021C11.6474 15.887 11.3834 17.6043 11.3394 19.395ZM8.87536 13.0983C10.2687 11.1462 12.2487 9.63447 14.5514 8.81253C13.7008 10.1041 12.9968 11.5425 12.4541 13.0983H8.87536ZM13.3048 14.2578H17.9248V19.395H12.4981C12.5567 17.5896 12.8208 15.8577 13.3048 14.2578ZM17.9248 25.7356H13.3048C12.8354 24.1211 12.5567 22.4038 12.4981 20.5985H17.9248V25.7356ZM19.1275 14.2578H23.4689C23.9382 15.8724 24.2169 17.6043 24.2756 19.395H19.1422V14.2578H19.1275ZM19.1275 25.7356V20.5985H24.2609C24.2169 22.4038 23.9382 24.1211 23.4542 25.7356H19.1128H19.1275ZM22.1342 31.3277C23.0289 29.9921 23.7622 28.5097 24.3049 26.8952H28.1769C26.7103 28.9647 24.5982 30.5351 22.1195 31.3277H22.1342ZM28.9103 25.7356H24.6569C25.1116 24.1211 25.3756 22.3892 25.4196 20.5985H30.377C30.2743 22.4479 29.761 24.1945 28.9103 25.7356Z"  />
<path d="M25.391 4.52696H25.215L25.039 0.270508L18.1309 7.93214V8.29907L25.6843 15.3589L25.4936 11.0731H25.8016C25.9483 11.0438 26.1683 11.0291 26.447 11.0144C26.9017 10.9851 27.503 10.9851 28.2217 11.0144C30.9204 11.1759 34.3524 12.0859 35.9951 15.3589C35.2031 6.00939 29.6884 4.33615 25.391 4.52696ZM33.7951 11.4547C32.0497 10.4126 29.835 9.88424 27.239 9.88424C27.019 9.88424 26.8136 9.88424 26.623 9.88424C26.2123 9.88424 25.9043 9.92826 25.7283 9.94294H25.6403C25.435 9.95762 25.2443 10.031 25.0243 10.1631C24.6136 10.4126 24.3936 10.8383 24.4083 11.2933L24.467 12.717L19.4949 8.06423L24.0563 3.01518L24.115 4.40956C24.115 4.74714 24.2763 5.07002 24.5256 5.30486C24.7603 5.52502 25.0683 5.64246 25.391 5.64246H25.4496C25.6257 5.64246 25.8163 5.64246 26.007 5.64246C30.0404 5.64246 32.7537 7.53585 34.0738 11.2639L34.2498 11.7483L33.8097 11.4841L33.7951 11.4547Z"  />
<path d="M11.1489 24.6204L11.3396 28.9062H11.1636C11.1636 28.9062 11.0903 28.9062 11.0169 28.9209C10.9143 28.9209 10.7822 28.9356 10.6356 28.9503C10.0782 28.9796 9.53556 28.9943 8.89022 28.9503C6.08885 28.8328 2.53949 27.9522 0.838135 24.6057C1.63014 33.9552 7.13019 35.6285 11.4422 35.4377H11.6182L11.7943 39.6941L18.8783 31.8417L11.1489 24.6057V24.6204ZM12.7182 35.5845C12.7182 35.2469 12.5569 34.924 12.3076 34.6892C12.0729 34.469 11.7649 34.3516 11.4422 34.3516H11.3836C11.2076 34.3516 11.0169 34.3516 10.8409 34.3516C6.80751 34.3516 4.07947 32.4582 2.77412 28.7301L2.59813 28.2457L3.03816 28.5099C4.78352 29.552 6.99821 30.0804 9.59425 30.0804C9.91692 30.0804 10.1956 30.0804 10.4449 30.0657C10.7382 30.0657 10.9729 30.0364 11.1049 30.0217H11.1929C11.4423 30.007 11.6769 29.9043 11.9116 29.7282C12.2489 29.464 12.4396 29.0824 12.4249 28.6714L12.3663 27.2477L17.3383 31.9004L12.7769 36.9495L12.7182 35.5551V35.5845Z"  />
</svg>
