<svg width="26" height="35" viewBox="0 0 26 35" fill="none" xmlns="http://www.w3.org/2000/svg">
<path d="M25.5095 18.1495L15.3147 13.4165V34.9779H25.5095V18.1495ZM24.0081 33.4753H16.8161V15.7605L24.0081 19.0961V33.4603V33.4753Z"  />
<path d="M14.8951 0.644531L0.270996 5.37751V34.9925H14.8951V0.644531ZM13.3937 33.49H1.77245V6.47437L13.3937 2.71804V33.49Z"  />
<path d="M19.7744 20.2974H18.0928V21.9802H19.7744V20.2974Z"  />
<path d="M19.7744 23.2275H18.0928V24.9104H19.7744V23.2275Z"  />
<path d="M19.7744 26.1577H18.0928V27.8405H19.7744V26.1577Z"  />
<path d="M19.7744 29.0879H18.0928V30.7707H19.7744V29.0879Z"  />
<path d="M22.883 20.2974H21.2014V21.9802H22.883V20.2974Z"  />
<path d="M22.883 23.2275H21.2014V24.9104H22.883V23.2275Z"  />
<path d="M22.883 26.1577H21.2014V27.8405H22.883V26.1577Z"  />
<path d="M22.883 29.0879H21.2014V30.7707H22.883V29.0879Z"  />
<path d="M11.5759 7.82715H3.39307V9.22449H11.5759V7.82715Z"  />
<path d="M11.5759 11.1177H3.39307V12.515H11.5759V11.1177Z"  />
<path d="M11.5759 14.4077H3.39307V15.8051H11.5759V14.4077Z"  />
<path d="M11.5759 17.7134H3.39307V19.1107H11.5759V17.7134Z"  />
<path d="M11.5759 21.0042H3.39307V22.4015H11.5759V21.0042Z"  />
<path d="M11.5759 24.2947H3.39307V25.6921H11.5759V24.2947Z"  />
<path d="M11.5759 27.6001H3.39307V28.9974H11.5759V27.6001Z"  />
</svg>
