<svg width="37" height="32" viewBox="0 0 37 32" fill="none" xmlns="http://www.w3.org/2000/svg">
<path d="M35.404 8.66504L7.34629 6.15521C7.00895 6.12586 6.71561 5.891 6.6276 5.5681L6.02628 3.43987C5.96761 3.20504 5.80627 3.0289 5.58627 2.92615L0.731547 0.386963L0.276855 1.86938C0.291522 2.19228 0.51154 2.47116 0.819544 2.58858L4.41292 3.89487C4.66225 3.98294 4.85293 4.18841 4.92627 4.43793L5.46893 6.346C5.46893 6.346 5.48361 6.41939 5.49827 6.46342L7.7863 23.2104C7.84497 23.6213 8.18231 23.9149 8.59298 23.9149H32.2653C32.6466 23.9149 32.9839 23.6507 33.0719 23.2691L36.152 9.66312C36.2547 9.17876 35.9173 8.70907 35.4186 8.66504H35.404ZM15.6917 8.26874L25.8265 9.17876C26.3252 9.22279 26.6772 9.70714 26.5452 10.2062L25.5039 14.3012C25.4159 14.6828 25.0638 14.9323 24.6825 14.9176L16.7477 14.6388C16.3811 14.6388 16.0731 14.3746 15.9851 14.0076L14.8264 9.28149C14.6944 8.73843 15.1344 8.22471 15.6917 8.26874ZM7.8303 13.6407L7.12629 8.51828C7.05296 7.98989 7.49295 7.53488 8.00629 7.59359L12.5237 7.98989C12.8757 8.01925 13.169 8.26876 13.2424 8.60634L14.445 13.5086C14.577 14.037 14.1664 14.5507 13.6237 14.5214L8.60764 14.3452C8.21163 14.3452 7.87428 14.037 7.81562 13.6407H7.8303ZM15.6184 22.5646H9.76631C9.35564 22.5646 9.00365 22.2564 8.95965 21.8601L8.25563 16.6642C8.18229 16.1652 8.59297 15.7102 9.09165 15.7249L14.4304 15.9157C14.7971 15.9157 15.1051 16.1799 15.1931 16.5468L16.4104 21.5665C16.5424 22.0802 16.1464 22.5793 15.6184 22.5793V22.5646ZM24.7412 17.266L23.5532 21.9481C23.4652 22.3151 23.1278 22.5646 22.7611 22.5646H18.7131C18.3318 22.5646 18.0091 22.3004 17.9211 21.9334L16.7184 17.0312C16.5864 16.5028 16.9971 15.9891 17.5397 16.0184L23.9785 16.2386C24.5065 16.2533 24.8732 16.7523 24.7412 17.266ZM31.9719 21.9188C31.8839 22.3004 31.5613 22.5646 31.1653 22.5646H25.8412C25.2985 22.5646 24.9172 22.0656 25.0492 21.5372L26.2079 16.9725C26.2959 16.5908 26.6479 16.3414 27.0292 16.356L32.1919 16.5322C32.7053 16.5468 33.0719 17.0312 32.9693 17.5302L31.9719 21.9188ZM34.4653 10.8813L33.6293 14.5507C33.5413 14.9323 33.1893 15.2112 32.7933 15.1965L27.7185 15.0204C27.1905 15.0057 26.8239 14.5066 26.9559 13.9929L27.9532 10.0594C28.0559 9.6631 28.4226 9.41359 28.8186 9.44294L33.732 9.88327C34.2306 9.9273 34.568 10.397 34.4653 10.8813Z" fill="#265D89"/>
<path d="M14.7535 24.5317C12.8028 24.5317 11.2188 26.1169 11.2188 28.0837C11.2188 30.0504 12.8028 31.6209 14.7535 31.6209C16.7042 31.6209 18.3028 30.0358 18.3028 28.0837C18.3028 26.1316 16.7188 24.5317 14.7535 24.5317ZM14.7535 30.2853C13.5361 30.2853 12.5534 29.3019 12.5534 28.0837C12.5534 26.8654 13.5361 25.882 14.7535 25.882C15.9708 25.882 16.9535 26.8654 16.9535 28.0837C16.9535 29.3019 15.9708 30.2853 14.7535 30.2853Z" fill="#265D89"/>
<path d="M26.8972 24.5317C24.9465 24.5317 23.3478 26.1169 23.3478 28.0837C23.3478 30.0504 24.9318 31.6209 26.8972 31.6209C28.8625 31.6209 30.4319 30.0358 30.4319 28.0837C30.4319 26.1316 28.8478 24.5317 26.8972 24.5317ZM26.8972 30.2853C25.6798 30.2853 24.6971 29.3019 24.6971 28.0837C24.6971 26.8654 25.6798 25.882 26.8972 25.882C28.1145 25.882 29.0972 26.8654 29.0972 28.0837C29.0972 29.3019 28.1145 30.2853 26.8972 30.2853Z" fill="#265D89"/>
<path d="M13.8438 5.53915H18.7278C19.9598 5.53915 20.9718 4.5264 20.9718 3.2935C20.9718 2.06059 19.9598 1.04785 18.7278 1.04785H13.8438C12.6117 1.04785 11.5997 2.06059 11.5997 3.2935C11.5997 4.5264 12.6117 5.53915 13.8438 5.53915ZM13.8438 2.39817H18.7278C19.2265 2.39817 19.6225 2.80916 19.6225 3.30819C19.6225 3.80722 19.2118 4.20352 18.7278 4.20352H13.8438C13.3451 4.20352 12.9344 3.79255 12.9344 3.30819C12.9344 2.82384 13.3451 2.39817 13.8438 2.39817Z" fill="#265D89"/>
<path d="M22.2039 3.2935C22.2039 4.5264 23.2159 5.53915 24.4479 5.53915H29.3319C30.564 5.53915 31.576 4.5264 31.576 3.2935C31.576 2.06059 30.564 1.04785 29.3319 1.04785H24.4479C23.2159 1.04785 22.2039 2.06059 22.2039 3.2935ZM30.2413 3.2935C30.2413 3.79253 29.8306 4.18882 29.3319 4.18882H24.4479C23.9492 4.18882 23.5532 3.77785 23.5532 3.2935C23.5532 2.80914 23.9639 2.3835 24.4479 2.3835H29.3319C29.8306 2.3835 30.2413 2.79447 30.2413 3.2935Z" fill="#265D89"/>
<path d="M14.7972 27.262C14.3425 27.262 13.9758 27.6289 13.9758 28.0839C13.9758 28.5389 14.3425 28.9058 14.7972 28.9058C15.2518 28.9058 15.6185 28.5389 15.6185 28.0839C15.6185 27.6289 15.2518 27.262 14.7972 27.262Z" fill="#265D89"/>
<path d="M26.8978 27.262C26.4431 27.262 26.0764 27.6289 26.0764 28.0839C26.0764 28.5389 26.4431 28.9058 26.8978 28.9058C27.3524 28.9058 27.7191 28.5389 27.7191 28.0839C27.7191 27.6289 27.3524 27.262 26.8978 27.262Z" fill="#265D89"/>
</svg>
