<svg width="50" height="34" viewBox="0 0 50 34" fill="none" xmlns="http://www.w3.org/2000/svg">
<path d="M41.7427 18.8979C43.8897 16.4788 46.0068 14.1349 48.0938 11.7458C49.37 10.2734 49.4301 8.59052 48.259 7.04291C47.1028 5.4953 45.9317 3.97775 44.7306 2.46019C43.4243 0.79238 41.6826 0.506871 39.8959 1.63377C38.8749 2.27986 37.8689 2.92595 36.8329 3.55701C35.6468 4.29326 34.4156 4.41348 33.1394 3.76739C32.1184 3.25653 31.0824 2.76071 30.0464 2.2799C28.4248 1.5136 26.8333 1.55867 25.2568 2.46019C24.9865 2.61045 24.521 2.68557 24.2658 2.55034C21.9536 1.22811 19.6563 1.37835 17.3741 2.58038C15.4823 3.57205 13.6055 3.61715 11.7137 2.61046C11.2933 2.4001 10.8729 2.21976 10.4375 2.05448C8.74082 1.40839 7.17931 1.69388 5.9331 3.00108C4.32655 4.68392 2.79507 6.45694 1.30864 8.24496C0.28765 9.44699 0.407759 11.0998 1.4888 12.2417C1.84915 12.6173 2.26956 12.9479 2.65993 13.3085C3.72596 14.2401 4.79199 15.1566 5.87303 16.1032C5.12231 16.9296 4.41663 17.6207 3.78602 18.4021C2.75002 19.6942 2.79507 21.1818 3.90614 22.3838C4.40162 22.9247 5.03222 23.3153 5.61779 23.7962C4.85205 26.8012 6.51866 28.6043 9.95698 28.424C11.1131 30.7679 12.5995 31.414 14.9418 30.5576C15.0019 30.6477 15.0619 30.7529 15.1069 30.8581C16.5934 33.5326 19.296 33.6378 20.7824 31.6845C21.1878 31.1436 21.6383 30.6327 22.0737 30.0918C23.0196 30.9783 23.7403 31.6544 24.461 32.3306C25.8423 33.6228 27.599 33.5927 28.9053 32.2404C29.3257 31.8047 29.641 31.2788 30.0013 30.783C32.8841 33.2171 34.5958 32.8264 36.3675 29.3405C38.4095 29.6861 40.6316 27.8831 40.4364 25.2987C43.139 24.3521 44.6405 21.3921 41.6976 18.8678L41.7427 18.8979ZM26.2627 3.85754C27.1936 3.25653 28.2596 3.27154 29.2806 3.75235C30.2566 4.21814 31.2175 4.69897 32.1784 5.17978C34.1003 6.1414 35.9621 6.12637 37.7938 4.93937C38.7848 4.3083 39.7758 3.67724 40.7667 3.0612C41.9379 2.33998 42.6586 2.49023 43.4844 3.57205C44.5804 4.99946 45.6915 6.42688 46.7875 7.85429C47.6434 8.98119 47.6133 9.77753 46.6674 10.8594C44.6555 13.1432 42.6135 15.397 40.5115 17.756C38.98 16.3737 37.5837 15.0064 36.0672 13.7893C34.0102 12.1365 31.9082 10.5588 29.7611 9.07134C28.2747 8.03459 26.6681 8.19988 25.1066 9.0413C24.7162 9.25166 24.3709 9.50706 23.9955 9.71741C22.9295 10.3184 22.1337 10.1381 21.4431 9.13145C20.9025 8.36516 20.9476 7.64392 21.7133 7.08798C23.1998 5.9761 24.7012 4.87928 26.2627 3.87258V3.85754ZM5.48267 21.6475C4.64185 20.8963 4.49171 20.115 5.15234 19.3637C6.45861 17.9062 7.77988 16.4638 9.20625 15.1115C9.55159 14.781 10.3774 14.6157 10.7678 14.811C12.1791 15.5172 12.3143 16.5239 11.3834 17.5606C10.1371 18.8979 8.86091 20.2351 7.59969 21.5424C6.90902 22.2636 6.21837 22.2786 5.49767 21.6475H5.48267ZM9.74678 26.4707C9.13118 27.1017 8.27535 26.9515 7.55465 26.2002C6.90903 25.5391 6.83396 24.8029 7.46457 24.1418C9.25129 22.2185 11.0681 20.2953 12.8998 18.4021C13.5755 17.6959 15.0469 18.2819 15.4373 19.0632C15.6325 19.4689 15.5424 20.3103 15.2271 20.6559C13.4553 22.6542 11.6086 24.5775 9.74678 26.4707ZM14.4613 28.7245C13.6505 29.5358 12.9148 29.5509 12.1491 28.7696C11.3684 27.9883 11.3684 27.237 12.1491 26.4256C13.2452 25.2536 14.3562 24.0816 15.4523 22.9097C15.9177 22.4289 16.4883 22.0983 17.0889 22.489C18.3801 23.3454 18.8155 24.0817 17.7495 25.3137C16.6835 26.4857 15.5874 27.6126 14.4763 28.7395L14.4613 28.7245ZM21.4881 28.5292C20.7974 29.3255 20.0918 30.0918 19.326 30.843C18.5603 31.5943 17.8246 31.5493 17.0739 30.783C16.3231 30.0167 16.2931 29.3105 17.0288 28.4991C17.7045 27.7629 18.3951 27.0417 19.0708 26.3204C19.5513 25.8096 20.1668 25.6143 20.7374 25.9899C21.7584 26.666 22.419 27.5225 21.4881 28.5292ZM41.1421 23.0299C40.3914 23.8112 39.6707 23.8262 38.8148 23.0299C36.7428 21.1217 34.6859 19.1834 32.5988 17.2301L31.4277 18.357C32.6589 19.544 33.83 20.6709 35.0312 21.7828C36.0522 22.7444 37.0882 23.676 38.0942 24.6376C38.995 25.5091 39.0701 26.2002 38.2743 27.0567C37.4936 27.9131 36.7729 27.9582 35.872 27.1168C33.83 25.2236 31.8031 23.3004 29.7161 21.3471L28.605 22.5641L33.4246 27.1018C33.6499 27.3121 33.8901 27.5075 34.1003 27.7328C34.836 28.5142 34.866 29.2354 34.1453 30.0317C33.4246 30.8281 32.7039 30.9032 31.8932 30.1669C30.3767 28.7996 28.8903 27.3872 27.3888 25.9899C27.0285 25.6593 26.6681 25.3438 26.2627 24.9681L25.1667 26.1702C26.0375 26.9966 26.8933 27.7929 27.7341 28.6043C28.62 29.4758 28.635 30.227 27.8693 31.0234C27.1035 31.8348 26.3528 31.8197 25.467 30.9783L23.3649 29.01C24.2508 26.2453 22.359 24.3221 20.0467 24.0666C19.6263 22.489 18.9206 21.1818 17.269 20.731C17.3741 20.1901 17.3741 19.6341 17.254 19.1083C17.1339 18.5824 16.8937 18.0715 16.5483 17.6508C16.218 17.2301 15.7826 16.8695 15.3021 16.6291C14.8217 16.3887 14.2812 16.2534 13.7406 16.2384C13.3953 14.6758 12.5245 13.4888 10.9179 13.053C9.20625 12.5873 8.15524 13.7292 7.0742 14.9162C5.60278 13.624 4.14637 12.3919 2.73501 11.0998C2.17947 10.5889 2.16446 9.89775 2.64493 9.32679C4.16139 7.5538 5.67786 5.7958 7.26939 4.08291C7.9 3.40677 8.77084 3.24151 9.65669 3.54202C10.1522 3.7073 10.6477 3.90262 11.1131 4.14303C13.5304 5.40515 15.9177 5.25489 18.29 4.03784C19.326 3.51195 20.4071 3.15135 21.5782 3.34668C22.1037 3.43684 22.6142 3.6472 23.3199 3.87258C22.404 4.53369 21.6833 5.05959 20.9626 5.57045C19.4161 6.68233 19.0408 8.2299 19.9566 9.80756C20.9326 11.5205 22.7193 12.1666 24.3559 11.3853C24.8814 11.1298 25.3769 10.7992 25.8874 10.5138C26.9834 9.91274 28.0344 9.89773 29.1155 10.6189C33.4547 13.5188 37.3584 16.9446 41.067 20.6108C41.9529 21.4823 41.9529 22.2035 41.1571 23.0299H41.1421Z" fill="#245C87"/>
</svg>
