<svg width="57" height="36" viewBox="0 0 57 36" fill="none" xmlns="http://www.w3.org/2000/svg">
<path d="M45.0238 31.411C46.285 30.1038 46.9907 28.3609 46.9907 26.5128V16.0101C46.9907 15.7697 46.8706 15.5442 46.6754 15.394C46.4802 15.2588 46.225 15.2137 45.9997 15.2888L28.8682 21.0886L12.112 15.2287C11.8868 15.1536 11.6316 15.1836 11.4214 15.3189C11.2262 15.4541 11.1061 15.6946 11.1061 15.935V26.5128C11.1061 28.3609 11.7967 30.1038 13.073 31.411C14.2291 32.598 14.9798 33.3794 17.217 33.8752C17.3971 33.9203 21.7213 35.0321 28.598 35.0321C35.4746 35.0321 40.2041 33.9203 40.4294 33.8752C42.4863 33.3043 43.9428 32.5229 45.0088 31.4261L45.0238 31.411ZM28.613 33.5296C21.9465 33.5296 17.6524 32.4327 17.5773 32.4177C15.7606 32.0271 15.22 31.4711 14.154 30.3743C13.1781 29.3676 12.6075 27.9552 12.6075 26.5278V17.0167L28.613 22.6212C28.7631 22.6813 28.9433 22.6813 29.1084 22.6212L45.4893 17.0768V26.5278C45.4893 27.9702 44.9337 29.3676 43.9428 30.3743C43.0719 31.2758 41.8257 31.9369 40.069 32.4177C40.024 32.4177 35.2944 33.5296 28.598 33.5296H28.613Z"  />
<path d="M56.1643 9.20311L28.7929 0.233026C28.6428 0.18795 28.4776 0.18795 28.3275 0.233026L1.06115 8.99273C0.745845 9.09791 0.535645 9.38344 0.535645 9.69897C0.535645 10.0145 0.745845 10.315 1.06115 10.4202L28.4476 19.3152C28.4476 19.3152 28.5977 19.3452 28.6728 19.3452C28.7479 19.3452 28.8229 19.3453 28.898 19.3152L44.2729 14.432L51.5399 12.118C51.4948 12.2082 51.4648 12.3134 51.4648 12.4186V22.9964H49.9633C49.5429 22.9964 49.2126 23.3269 49.2126 23.7476V27.7595C49.2126 28.1802 49.5429 28.5107 49.9633 28.5107H53.9722C54.3926 28.5107 54.7229 28.1802 54.7229 27.7595V23.7476C54.7229 23.3269 54.3926 22.9964 53.9722 22.9964H52.9662V12.4186C52.9662 12.1481 52.8161 11.9077 52.5909 11.7725L56.1793 10.6305C56.4946 10.5254 56.7049 10.2399 56.7049 9.92439C56.7049 9.59383 56.4946 9.30828 56.1943 9.20311H56.1643ZM53.2215 27.0082H50.7141V24.4989H53.2215V27.0082ZM28.6728 17.7976L3.73373 9.69897L28.5527 1.73556L53.4918 9.90935L28.6728 17.7976Z"  />
</svg>
