<svg width="28" height="26" viewBox="0 0 28 26" fill="none" xmlns="http://www.w3.org/2000/svg">
<path d="M26.2882 1.55224C26.1917 1.28649 25.9575 1.07137 25.6682 0.982784C23.8082 0.400673 21.8793 0.109619 19.9366 0.109619C18.5726 0.109619 17.2223 0.24882 15.8859 0.539875C12.6343 1.23588 9.68584 2.74177 7.32983 4.90571C4.97381 7.06964 3.33424 9.79037 2.57646 12.7642C1.88756 15.4723 1.97024 18.3196 2.81069 21.015L2.8658 21.1922L0.289334 23.5586C0.0964439 23.7357 0 23.9635 0 24.2039C0 24.4444 0.110222 24.6722 0.289334 24.8493C0.661337 25.191 1.32267 25.191 1.69467 24.8493L4.27114 22.4829L4.46403 22.5335C7.4676 23.3308 10.5401 23.3814 13.4472 22.7613C16.685 22.0653 19.6472 20.5594 22.0033 18.3955C24.3593 16.2316 25.9988 13.5108 26.7566 10.537C27.5144 7.56317 27.3491 4.45014 26.2744 1.55224H26.2882ZM24.8277 10.1194C24.1526 12.7642 22.6922 15.1812 20.5979 17.1047C18.5037 19.0282 15.8721 20.3696 12.9925 20.9897C11.8352 21.2428 10.6641 21.3567 9.46539 21.3567C8.48716 21.3567 7.50894 21.2681 6.53071 21.1036L5.88315 20.9897L19.5646 8.42368C19.7575 8.24652 19.8539 8.01873 19.8539 7.77829C19.8539 7.53786 19.7437 7.31008 19.5646 7.13291C19.1788 6.77858 18.545 6.77858 18.1592 7.13291L4.47781 19.6989L4.3538 19.1041C3.95424 17.1047 3.99558 15.1053 4.49158 13.1818C5.1667 10.537 6.62716 8.11997 8.7214 6.19647C10.8156 4.27297 13.4334 2.93159 16.3268 2.31151C18.9721 1.74206 21.7553 1.81798 24.3593 2.51399L24.5384 2.56461L24.5935 2.72912C25.3513 5.12083 25.4339 7.67706 24.8139 10.1067L24.8277 10.1194Z" />
</svg>
