<svg width="47" height="36" viewBox="0 0 47 36" fill="none" xmlns="http://www.w3.org/2000/svg">
<path d="M46.8181 18.2862C47.0283 16.4681 47.0133 16.4381 45.1965 16.4531C44.7761 16.4531 44.5809 16.3179 44.4008 15.9573C42.584 12.201 40.7522 8.45964 38.9505 4.70331C38.6652 4.08727 38.3049 3.8769 37.6442 3.89192C33.5002 3.90695 29.3713 3.89192 25.2273 3.89192H24.4315C24.4315 2.91528 24.4315 2.01377 24.4315 1.11225C24.4315 0.541287 24.0261 0.195689 23.5756 0.345943C23.1703 0.466146 23.0652 0.796708 23.0652 1.17234V3.89192C22.7799 3.89192 22.5397 3.89192 22.3144 3.89192C18.1404 3.89192 13.9514 3.89192 9.77732 3.89192C9.16173 3.89192 8.8164 4.10229 8.56115 4.65823C6.90955 8.11406 5.18286 11.5549 3.5613 15.0257C3.09585 16.0174 2.64545 16.7086 1.39925 16.4832C0.858728 16.378 0.57344 16.7536 0.588454 17.3096C0.603469 17.7603 0.648507 18.2111 0.723579 18.6618C1.51935 23.2446 5.81348 26.3698 10.3779 25.889C14.2216 25.4833 17.735 22.0726 18.0803 18.2411C18.2305 16.5433 18.1854 16.4531 16.4738 16.4832C16.0384 16.4832 15.8282 16.348 15.633 15.9573C13.9964 12.5616 12.3598 9.19589 10.7082 5.81519C10.6331 5.64991 10.5581 5.48462 10.483 5.28929H23.0051V34.0779H22.3144C20.1223 34.0779 17.9152 34.0779 15.7231 34.0779C15.5279 34.0779 15.2876 34.0177 15.1525 34.1079C14.9273 34.2732 14.612 34.5286 14.627 34.754C14.627 34.9794 14.9423 35.2198 15.1675 35.3851C15.2726 35.4602 15.4678 35.4151 15.633 35.4151H31.8787C32.0288 35.4151 32.254 35.4752 32.3441 35.3851C32.5693 35.1897 32.8696 34.9343 32.8847 34.6789C32.8997 34.4986 32.5393 34.2581 32.2991 34.1079C32.179 34.0328 31.9537 34.0929 31.7736 34.0929C29.5514 34.0929 27.3443 34.0929 25.1221 34.0929H24.4915V5.30431H37.0437C36.9386 5.52969 36.8635 5.70999 36.7734 5.8903C35.1518 9.2109 33.5152 12.5315 31.9237 15.8822C31.7135 16.3329 31.4733 16.5282 30.9628 16.4982C29.2361 16.408 29.3262 16.6785 29.4313 18.2712C29.4313 18.2862 29.4313 18.3163 29.4313 18.3313C30.137 23.2746 34.5963 26.3849 39.0706 25.9191C42.9894 25.5134 46.3827 22.2679 46.8181 18.3313V18.2862ZM16.669 17.8505C16.8491 20.9157 13.561 24.2513 10.0476 24.5518C5.99366 24.8974 2.40521 21.9524 1.99982 17.8505H16.684H16.669ZM14.3868 16.408H4.34208C6.0237 12.9522 7.66029 9.58654 9.37195 6.08564C11.0686 9.57151 12.7202 12.9672 14.3868 16.408ZM38.1097 6.08564C39.8063 9.58654 41.4579 12.9672 43.1245 16.408H33.0798C34.7464 12.9672 36.398 9.58654 38.1097 6.08564ZM30.7375 17.8505H45.4668C45.2115 21.4566 42.0135 24.4766 38.455 24.5518C34.3861 24.6269 31.218 21.8923 30.7375 17.8505Z"  />
</svg>
