<svg width="32" height="29" viewBox="0 0 32 29" fill="none" xmlns="http://www.w3.org/2000/svg">
<path d="M4.76387 14.7041H1.74923C0.781572 14.7041 0 15.422 0 16.3108V27.2836C0 28.1724 0.781572 28.8902 1.74923 28.8902H4.76387C5.73153 28.8902 6.5131 28.1724 6.5131 27.2836V16.3108C6.5131 15.422 5.73153 14.7041 4.76387 14.7041ZM5.27251 27.2722C5.27251 27.5343 5.04921 27.7394 4.76387 27.7394H1.74923C1.4639 27.7394 1.24059 27.5343 1.24059 27.2722V16.2994C1.24059 16.0487 1.4639 15.8321 1.74923 15.8321H4.76387C5.04921 15.8321 5.27251 16.0373 5.27251 16.2994V27.2722Z"  />
<path d="M12.319 18.3163H9.3044C8.33674 18.3163 7.55518 19.0341 7.55518 19.9229V27.2837C7.55518 28.1725 8.33674 28.8903 9.3044 28.8903H12.319C12.7905 28.8903 13.2247 28.7194 13.5596 28.4232C13.8946 28.1155 14.0683 27.7167 14.0683 27.2837V19.9229C14.0683 19.0341 13.2867 18.3163 12.319 18.3163ZM12.8277 27.2837C12.8277 27.4091 12.7781 27.523 12.6788 27.6141C12.5796 27.7053 12.4555 27.7509 12.319 27.7509H9.3044C9.01907 27.7509 8.79577 27.5458 8.79577 27.2837V19.9229C8.79577 19.6722 9.01907 19.4557 9.3044 19.4557H12.319C12.6044 19.4557 12.8277 19.6608 12.8277 19.9229V27.2837V27.2837Z"  />
<path d="M19.8732 14.5674H16.8586C15.891 14.5674 15.1094 15.2853 15.1094 16.174V27.2722C15.1094 28.161 15.891 28.8788 16.8586 28.8788H19.8732C20.8409 28.8788 21.6225 28.161 21.6225 27.2722V16.174C21.6225 15.2853 20.8409 14.5674 19.8732 14.5674ZM20.3819 27.2722C20.3819 27.5343 20.1586 27.7394 19.8732 27.7394H16.8586C16.5733 27.7394 16.35 27.5343 16.35 27.2722V16.174C16.35 15.912 16.5733 15.7068 16.8586 15.7068H19.8732C20.1586 15.7068 20.3819 15.912 20.3819 16.174V27.2722Z"  />
<path d="M27.4169 11.7075H24.4023C23.4346 11.7075 22.6531 12.4254 22.6531 13.3142V27.2838C22.6531 28.1726 23.4346 28.8904 24.4023 28.8904H27.4169C28.3846 28.8904 29.1662 28.1726 29.1662 27.2838V13.3142C29.1662 12.4254 28.3846 11.7075 27.4169 11.7075ZM27.9256 27.2838C27.9256 27.5459 27.7023 27.7509 27.4169 27.7509H24.4023C24.117 27.7509 23.8937 27.5459 23.8937 27.2838V13.3142C23.8937 13.0521 24.117 12.847 24.4023 12.847H27.4169C27.7023 12.847 27.9256 13.0521 27.9256 13.3142V27.2838Z"  />
<path d="M5.01156 12.0379L8.22469 13.8952L11.8844 10.1464L16.5118 8.87022L17.0577 10.5566C17.0577 10.5566 17.1073 10.6136 17.1321 10.625C17.1569 10.625 17.1942 10.625 17.2314 10.6022L19.9111 7.28637L15.6558 5.86206C15.6558 5.86206 15.6062 5.88488 15.5938 5.89628C15.5814 5.90767 15.5566 5.94187 15.569 5.98745L16.1148 7.66241L11.8348 8.83607L8.22469 12.4139L4.82547 10.7503L0.284912 11.8556L0.657088 13.0862L5.01156 12.0379V12.0379Z"  />
<path d="M25.9158 0.438354C22.8515 0.438354 20.3704 2.72861 20.3704 5.53165C20.3704 8.33469 22.8639 10.625 25.9158 10.625C28.9677 10.625 31.4612 8.33469 31.4612 5.53165C31.4612 2.72861 28.9677 0.438354 25.9158 0.438354ZM25.9158 9.64503C23.447 9.64503 21.4373 7.79915 21.4373 5.53165C21.4373 3.26415 23.447 1.41826 25.9158 1.41826C28.3846 1.41826 30.3943 3.26415 30.3943 5.53165C30.3943 7.79915 28.3846 9.64503 25.9158 9.64503Z"  />
<path d="M26.4131 5.03038C25.644 4.76831 25.3214 4.58599 25.3214 4.31252C25.3214 4.08463 25.5075 3.84538 26.103 3.84538C26.7605 3.84538 27.1699 4.03909 27.4056 4.13024L27.6661 3.18448C27.3684 3.04775 26.959 2.93381 26.3511 2.91102V2.18176H25.4579V2.96798C24.4902 3.1389 23.9319 3.72 23.9319 4.44925C23.9319 5.25826 24.5895 5.66849 25.5695 5.97614C26.2394 6.18124 26.5248 6.38636 26.5248 6.7054C26.5248 7.03584 26.1774 7.2181 25.6564 7.2181C25.0733 7.2181 24.5398 7.04717 24.1553 6.85346L23.8823 7.82204C24.2297 8.00435 24.8128 8.15247 25.4207 8.17526V8.96148H26.3015V8.1183C27.3436 7.94739 27.9142 7.32065 27.9142 6.58001C27.9142 5.83937 27.48 5.3722 26.4007 5.01897L26.4131 5.03038Z"  />
</svg>
