<svg width="38" height="36" viewBox="0 0 38 36" fill="none" xmlns="http://www.w3.org/2000/svg">
<path d="M26.1812 0.818115L25.7157 2.36572L33.9737 4.82988L27.9378 7.81993L27.8477 7.68469C26.2112 5.1454 23.4485 3.62785 20.4456 3.62785C17.0073 3.62785 13.8693 5.65627 12.4429 8.79657L12.3678 8.94683L12.2027 8.90174C11.3168 8.61625 10.4009 8.46601 9.48504 8.46601C4.63536 8.46601 0.686523 12.4177 0.686523 17.2709C0.686523 21.7634 4.04976 25.5198 8.50906 26.0156H8.67425V29.6818H4.12486V31.2895H8.67425V35.5116H10.2808V31.2895H14.8302V29.6818H10.2808V26.0457H10.4459C13.4789 25.6851 16.1665 23.7318 17.4577 20.892L17.5328 20.7417L17.698 20.8018C18.5988 21.1023 19.5147 21.2526 20.4456 21.2526C25.2953 21.2526 29.2441 17.3009 29.2441 12.4477C29.2441 11.441 29.0639 10.4343 28.7036 9.44265L28.6435 9.27737L34.6794 6.28734L31.6164 14.3559L33.1178 14.9269L37.2168 4.12369L26.1511 0.818115H26.1812ZM16.0464 20.2158C14.8752 22.7852 12.3078 24.453 9.51506 24.453C7.5932 24.453 5.79145 23.7017 4.44015 22.3494C3.07383 20.9972 2.33813 19.1791 2.33813 17.2709C2.33813 13.3042 5.56626 10.0737 9.53008 10.0737C10.2208 10.0737 10.9564 10.1939 11.7522 10.4644L11.9174 10.5095L11.8873 10.6747C11.7672 11.2457 11.7072 11.8467 11.7072 12.4177C11.7072 15.4829 13.3588 18.3827 16.0013 19.9604L16.1515 20.0506L16.0764 20.2008L16.0464 20.2158ZM16.6319 17.932L16.5719 18.4428L16.3166 18.2625C14.4248 16.9103 13.2837 14.7166 13.2837 12.4177C13.2837 12.1923 13.3137 11.9669 13.3437 11.7566L13.4038 11.2307L13.6591 11.411C15.5509 12.7633 16.692 14.9419 16.692 17.2558C16.692 17.4812 16.6619 17.7066 16.6319 17.932ZM20.4756 19.6148C19.7699 19.6148 19.0493 19.4946 18.2535 19.2242L18.0883 19.1791L18.1184 19.0138C18.2385 18.4128 18.2985 17.8418 18.2985 17.2709C18.2985 14.2057 16.6469 11.3058 14.0044 9.71312L13.8542 9.62297L13.9293 9.47271C15.1005 6.88835 17.6679 5.23557 20.4606 5.23557C24.4245 5.23557 27.6525 8.46601 27.6525 12.4327C27.6525 16.3994 24.4245 19.6298 20.4606 19.6298L20.4756 19.6148Z"  />
</svg>
