<svg width="41" height="40" viewBox="0 0 41 40" fill="none" xmlns="http://www.w3.org/2000/svg">
<path d="M11.5697 14.6742C12.4553 14.4339 13.1759 14.0433 13.6712 13.4574C14.2567 13.848 14.9622 14.0884 15.7277 14.1635C16.073 14.1935 16.4332 14.1935 16.7785 14.1635C16.7785 14.2085 16.7785 14.2686 16.7785 14.3137C16.9436 15.3802 17.379 16.4017 18.0695 17.1378C18.5648 17.6636 19.1953 18.0241 19.9609 18.1593L17.6341 38.559C17.6341 38.559 17.6341 38.619 17.6341 38.6491C17.6341 38.9495 17.8743 39.1748 18.1595 39.1748H27.7966C28.0818 39.1298 28.292 38.8744 28.2619 38.589L25.9052 17.964C26.5657 17.7387 27.1962 17.3481 27.5564 16.6871C27.6165 16.7472 27.6915 16.8073 27.7666 16.8674C28.2769 17.258 28.9074 17.4833 29.5829 17.5584C30.2284 17.6335 30.9039 17.5584 31.5043 17.3481C31.8796 17.2129 32.2398 17.0326 32.5401 16.7923C33.0054 17.273 33.6659 17.5584 34.3564 17.6786C34.8518 17.7537 35.3621 17.7537 35.8275 17.6485C36.3228 17.5434 36.7582 17.3331 37.1034 17.0176C37.4036 16.7472 37.5988 16.3867 37.6588 15.9661C38.3793 15.8008 39.0098 15.245 39.4752 14.554C39.7754 14.1034 40.0006 13.5626 40.1357 13.0368C40.2708 12.481 40.2858 11.9252 40.1807 11.4445C40.0456 10.9037 39.7604 10.438 39.265 10.1376C39.265 9.73201 39.1449 9.35647 38.9197 9.02599C38.6045 8.54529 38.0641 8.18476 37.4337 7.95943C36.8332 7.74913 36.1277 7.659 35.4222 7.70406C34.4465 7.76415 33.4257 8.10965 32.6001 8.75559C32.1348 7.94441 31.3842 7.32852 30.5136 6.95297C29.9732 6.72764 29.3878 6.59245 28.8023 6.54738C28.2169 6.50231 27.6315 6.5624 27.0761 6.72764C26.5056 6.89288 26.0103 7.20834 25.59 7.59891C25.3648 7.25341 25.0646 6.93795 24.6593 6.6976C24.6593 5.88642 24.4191 5.07524 24.0138 4.39925C23.6535 3.79838 23.1732 3.31768 22.6178 3.00222C22.0023 2.6417 21.2968 2.5065 20.5763 2.59663C20.141 2.65672 19.7057 2.80694 19.3004 3.04729C18.745 2.31121 17.9794 1.72537 17.0487 1.31978L16.9286 1.27471C16.2981 1.01934 15.6227 0.86912 14.9622 0.824055C14.2416 0.778989 13.5061 0.854098 12.8456 1.03436C12.035 1.27471 11.3295 1.6803 10.7741 2.22108C10.3688 1.95069 9.90346 1.77043 9.42311 1.69532C8.89772 1.62021 8.35734 1.65026 7.84697 1.80047C7.32158 1.96572 6.84121 2.25113 6.46594 2.62668C6.13569 2.95716 5.89555 3.34773 5.74544 3.78336C4.36442 3.4679 3.37367 3.90354 2.75821 4.35419C1.90259 5.00013 1.28716 6.08171 1.04698 7.41865C0.821818 8.59036 0.896881 9.86721 1.24213 11.069C1.90262 13.3072 3.44874 14.6892 5.40017 14.8845C5.37015 14.9446 5.32512 14.9897 5.3101 15.0497L2.65317 38.3637C2.65317 38.3637 2.65317 38.4238 2.65317 38.4688C2.65317 38.7993 2.92335 39.0547 3.23858 39.0547H13.9565C14.2867 39.0096 14.5118 38.7242 14.4818 38.3937L11.8249 15.0798C11.8249 14.9146 11.7348 14.7643 11.6147 14.6742H11.5697ZM27.1511 38.1233H18.76L21.0266 18.2344H23.2032C23.4584 18.2494 24.1189 18.2945 24.8694 18.1893L27.1361 38.1233H27.1511ZM24.7193 8.42511L25.1997 8.80066L25.3798 8.59035C25.3948 8.77062 25.3798 8.95088 25.3348 9.13114C25.3048 9.26634 25.2447 9.38651 25.1697 9.50669C25.2447 9.50669 25.3198 9.50668 25.3948 9.46162C25.5149 9.40153 25.605 9.3114 25.65 9.19122C25.9802 8.42511 26.6107 7.95944 27.3613 7.73411C27.7816 7.61393 28.2619 7.56887 28.7273 7.59891C29.1926 7.62896 29.673 7.74913 30.0933 7.92939C30.9489 8.28991 31.6394 8.93585 31.8946 9.80712C31.9696 10.0925 32.2699 10.2578 32.5551 10.1676C32.6602 10.1376 32.7352 10.0775 32.7953 10.0174C33.5008 9.22127 34.5065 8.84572 35.4822 8.77061C36.0527 8.72555 36.6081 8.80066 37.0734 8.9659C37.4937 9.11612 37.8389 9.34144 38.0341 9.62686C38.1692 9.83716 38.2292 10.0775 38.1692 10.3629C38.1241 10.6333 38.2893 10.9037 38.5445 10.9788C38.8747 11.114 39.0699 11.3694 39.1449 11.6999C39.22 12.0304 39.2049 12.4059 39.1149 12.7965C39.0098 13.2021 38.8447 13.6227 38.6045 13.9682C38.2142 14.554 37.7039 14.9746 37.1785 14.9596C36.8783 14.9596 36.6381 15.1849 36.6381 15.4704V15.5304C36.6681 15.8309 36.563 16.0562 36.3979 16.2215C36.2178 16.4017 35.9476 16.5219 35.6324 16.582C35.3021 16.6571 34.9118 16.6571 34.5516 16.597C33.9211 16.4918 33.3507 16.1914 33.0955 15.7107C32.9604 15.4553 32.6451 15.3502 32.375 15.4854C32.2999 15.5304 32.2398 15.5755 32.2098 15.6356C31.9696 15.936 31.6094 16.1614 31.1891 16.3116C30.7387 16.4618 30.2134 16.5219 29.718 16.4768C29.2377 16.4318 28.7873 16.2665 28.4421 15.9961C28.2019 15.8008 28.0067 15.5605 27.9017 15.245C27.8116 14.9746 27.5114 14.8244 27.2262 14.9146C27.016 14.9897 26.8809 15.1849 26.8659 15.3953C26.7908 16.5369 25.7851 16.9425 24.8544 17.0927H20.5763C20.5763 17.0927 20.5013 17.1228 20.4712 17.1378C19.8107 17.0927 19.2703 16.8073 18.865 16.3867C18.4297 15.921 18.1145 15.2901 17.9493 14.5991C18.3546 14.4489 18.6849 14.2235 18.9101 13.9532C19.1352 13.6978 19.2553 13.4124 19.3004 13.1119C19.3004 13.0368 19.3004 12.9617 19.3004 12.9016C19.2403 12.8415 19.1653 12.8115 19.1203 12.7514C19.0302 12.8265 18.9251 12.8866 18.82 12.9467C18.82 12.7814 18.775 12.6162 18.6849 12.451C18.4898 12.1355 18.1145 11.8952 17.6192 11.7449C17.6192 11.6698 17.6492 11.5797 17.6492 11.4745C17.6492 11.3994 17.6492 11.3243 17.6492 11.2793C17.7092 11.1441 17.7693 11.0089 17.8443 10.8737C18.1445 10.3329 18.5498 9.97236 19.0301 9.80712C19.5255 9.62686 20.0959 9.65691 20.7264 9.88223L21.3869 10.1226L21.4769 9.41655C21.522 9.02599 21.6871 8.69551 21.9573 8.41009C22.1675 8.19979 22.4377 8.03454 22.7529 7.94441C23.0531 7.85428 23.3683 7.82424 23.6836 7.88432C24.0889 7.94441 24.4491 8.12468 24.7344 8.41009L24.7193 8.42511ZM2.3079 10.7235C2.02269 9.73201 1.96263 8.63542 2.14276 7.64398C2.3379 6.59245 2.78824 5.76624 3.4187 5.28554C4.10921 4.7748 4.94981 4.68467 5.94054 5.04519L6.60103 5.28554L6.70612 4.57952C6.76616 4.12886 6.9613 3.73829 7.26152 3.42283C7.50169 3.16746 7.81693 2.9872 8.16219 2.88205C8.50744 2.7769 8.86769 2.74685 9.22796 2.80694C9.6933 2.88205 10.1136 3.09235 10.4289 3.40781L10.8942 3.85847L11.2845 3.34772C11.7198 2.77689 12.3653 2.34126 13.1459 2.11593C13.6862 1.96571 14.2717 1.90563 14.8721 1.93567C15.4575 1.98074 16.043 2.11593 16.5834 2.34126L16.6434 2.37131C17.529 2.76187 18.2196 3.34772 18.6249 4.09882L18.9401 4.66965L19.4655 4.26406C19.8708 3.9486 20.2911 3.76834 20.7264 3.69323C21.1767 3.63314 21.627 3.72327 22.0323 3.96362C22.4226 4.18895 22.7529 4.53445 23.0081 4.95506C23.3233 5.48083 23.4884 6.09672 23.4884 6.72764C23.1131 6.6976 22.7379 6.75769 22.3776 6.86284C21.8973 7.01306 21.4469 7.28345 21.1167 7.62896C20.8315 7.91437 20.6063 8.25987 20.4712 8.65044C19.8107 8.50022 19.1803 8.54529 18.6098 8.74057C17.8743 8.99594 17.2439 9.55175 16.8085 10.3179C16.7185 10.4831 16.6284 10.6634 16.5533 10.8436C16.5083 10.9638 16.4783 11.084 16.4783 11.2342H16.4933L16.4333 11.5497C16.3282 12.0904 16.6284 12.6012 17.1388 12.7815C17.2739 12.8265 17.3639 12.8716 17.439 12.9166C16.9286 13.0518 16.3732 13.0969 15.8328 13.0368C15.1573 12.9617 14.5719 12.7364 14.1065 12.3909C14.0465 12.3458 13.9715 12.2857 13.9114 12.2256L13.386 11.7299L13.0257 12.3608C12.4403 13.4274 10.8942 13.9231 8.61254 13.7879H5.43017C3.34364 13.5626 2.53308 11.5947 2.2779 10.7235H2.3079ZM4.22931 37.5525L6.67611 16.0412H10.3688L12.8156 37.5525H4.21428H4.22931Z"  />
</svg>
