<svg width="29" height="27" viewBox="0 0 29 27" fill="none" xmlns="http://www.w3.org/2000/svg">
<path d="M0.632785 10.2589H28.379C28.6511 10.2589 28.8994 10.0959 28.9704 9.85694C29.0532 9.61796 28.9586 9.35725 28.7339 9.21604L14.8607 0.297685C14.6478 0.156468 14.364 0.156468 14.1393 0.297685L0.266149 9.21604C0.041435 9.35725 -0.0531823 9.61796 0.0296071 9.85694C0.112396 10.0959 0.360762 10.2589 0.632785 10.2589V10.2589ZM14.5059 1.47085L26.3803 9.1074H2.61973L14.4941 1.47085H14.5059Z" fill="#67BEA1"/>
<path d="M7.16093 21.285C7.52757 21.285 7.83507 21.0134 7.83507 20.6658V11.5845C7.83507 11.2477 7.5394 10.9653 7.16093 10.9653H3.77839C3.41176 10.9653 3.10425 11.2369 3.10425 11.5845V20.6658C3.10425 21.0026 3.39993 21.285 3.77839 21.285H7.16093ZM4.45254 12.2037H6.48679V20.0466H4.45254V12.2037Z" fill="#67BEA1"/>
<path d="M13.3584 21.2849C13.7251 21.2849 14.0326 21.0133 14.0326 20.6657V11.5844C14.0326 11.2476 13.7251 10.9652 13.3584 10.9652H9.9759C9.60926 10.9652 9.30176 11.2368 9.30176 11.5844V20.6657C9.30176 21.0024 9.60926 21.2849 9.9759 21.2849H13.3584ZM10.65 12.2036H12.6843V20.0465H10.65V12.2036Z" fill="#67BEA1"/>
<path d="M19.4258 21.2849C19.7925 21.2849 20.1 21.0133 20.1 20.6657V11.5844C20.1 11.2476 19.7925 10.9652 19.4258 10.9652H16.0433C15.6766 10.9652 15.3691 11.2368 15.3691 11.5844V20.6657C15.3691 21.0024 15.6766 21.2849 16.0433 21.2849H19.4258ZM16.7174 12.2036H18.7517V20.0465H16.7174V12.2036Z" fill="#67BEA1"/>
<path d="M25.5882 21.2849C25.9548 21.2849 26.2623 21.0133 26.2623 20.6657V11.5844C26.2623 11.2476 25.9548 10.9652 25.5882 10.9652H22.2056C21.839 10.9652 21.5315 11.2368 21.5315 11.5844V20.6657C21.5315 21.0024 21.839 21.2849 22.2056 21.2849H25.5882ZM22.8798 12.2036H24.914V20.0465H22.8798V12.2036Z" fill="#67BEA1"/>
<path d="M1.55579 22.9034V26.0101C1.55579 26.3469 1.85146 26.6293 2.22993 26.6293H26.7947C27.1613 26.6293 27.4689 26.3577 27.4689 26.0101V22.9034C27.4689 22.5666 27.1732 22.2842 26.7947 22.2842H2.22993C1.86329 22.2842 1.55579 22.5558 1.55579 22.9034ZM2.90407 23.5226H26.1206V25.391H2.90407V23.5226V23.5226Z" fill="#67BEA1"/>
</svg>
