<svg width="37" height="33" viewBox="0 0 37 33" fill="none" xmlns="http://www.w3.org/2000/svg">
<path d="M27.9713 0.644711C26.5599 0.539534 25.2086 0.764903 23.9324 1.29079C21.8153 2.16226 20.1787 3.61971 18.9175 5.76834C18.7974 6.02377 18.6022 6.05382 18.4821 6.05382H18.2569L18.1518 5.85849C17.9116 5.42275 17.6113 5.00206 17.326 4.6114C16.0498 2.91354 14.3982 1.71151 12.4463 1.06542C11.4403 0.734862 10.4644 0.584597 9.50343 0.584597C8.52749 0.599623 7.55155 0.794945 6.57561 1.14053C4.83393 1.78662 3.36251 2.85343 2.19138 4.32592C1.12535 5.6782 0.4497 7.19576 0.179439 8.83352C0.179439 8.89362 0.179447 8.9387 0.164433 8.9988C0.164433 9.13403 0.134399 9.2993 0.0893555 9.46458C0.0893555 9.88529 0.0893555 10.321 0.0893555 10.7417V10.907C0.119384 11.6883 0.329576 12.4546 0.569808 13.1608C1.05027 14.6333 1.77097 16.1058 2.86702 17.8037C3.64778 19.0207 4.59369 20.2678 5.74981 21.6501C6.48552 22.5216 7.31132 23.4231 8.3173 24.4749C9.21816 25.4065 10.1641 26.293 11.0499 27.1043C11.7556 27.7655 12.4913 28.3965 13.212 29.0276C14.1129 29.7939 15.0438 30.5752 15.9897 31.3114L16.4251 31.657C16.9957 32.1078 17.5362 32.5435 18.1368 32.9041C18.2269 32.9492 18.3019 32.9792 18.377 32.9792H18.6322C18.7374 32.9642 18.8425 32.8891 18.9626 32.7989C19.6232 32.3482 20.2238 31.8674 20.8244 31.4016L21.1247 31.1612C21.8604 30.5752 22.5961 29.9892 23.2868 29.3882C23.572 29.1328 23.6621 28.9675 23.6471 28.7271C23.6021 28.3815 23.497 28.2012 23.2868 28.081C23.0465 27.9608 22.8513 27.9758 22.6111 28.1411C22.1607 28.4566 21.7252 28.8022 21.2898 29.1478L20.2839 29.9441C19.8484 30.2897 19.413 30.6353 18.9776 30.9809C18.5422 31.3415 18.1968 31.1161 18.0317 30.9508C17.9866 30.9058 17.9266 30.8607 17.8815 30.8306L17.7464 30.7405C15.1639 28.7421 12.9568 26.8489 10.9598 24.9707C8.45242 22.5967 6.54557 20.4932 4.99908 18.3596C3.78291 16.6918 2.94211 15.2193 2.34153 13.7318C1.59081 11.8536 1.39561 10.1407 1.72593 8.48792C2.28147 5.73828 3.85799 3.785 6.39544 2.67312C7.91191 2.012 9.60854 1.86176 11.4403 2.23739C14.3381 2.83841 16.32 4.59637 17.326 7.46621C17.6263 8.32265 17.7314 9.20915 17.7914 9.97544V10.0806C17.8065 10.2609 17.8215 10.4112 17.8966 10.5164C18.0467 10.7568 18.4371 10.922 18.6172 10.877C18.9325 10.8018 19.1578 10.5314 19.1878 10.2008C19.2629 9.46459 19.3379 8.78844 19.5031 8.12733C19.9986 6.15901 21.0045 4.61139 22.536 3.54459C24.3978 2.22236 26.5599 1.78663 28.9622 2.20734C32.5057 2.8384 34.9831 5.5129 35.4185 9.19411C35.5536 10.306 35.4185 11.4479 35.0431 12.665C34.8779 13.2059 34.6527 13.7468 34.4425 14.2577L34.2173 14.8286C34.1422 14.9939 34.1122 15.2193 34.3825 15.5048C34.5626 15.7001 34.7879 15.7752 35.0882 15.7001C35.2984 15.655 35.4485 15.5048 35.5986 15.2043C36.4394 13.5064 36.8448 12.0489 36.8899 10.6065C36.9199 9.87026 36.9199 9.07392 36.7548 8.30762C35.8539 4.11555 32.1453 0.855062 27.9563 0.56958L27.9713 0.644711Z" fill="#265D89"/>
<path d="M36.2588 18.3443C34.8024 18.2842 33.3309 18.2842 31.7544 18.3443C31.5292 18.3443 31.379 18.4345 31.2739 18.6148L31.1388 18.8402C31.0637 18.9604 30.9887 19.0956 30.9136 19.2308L28.0759 24.7902C28.0008 24.9405 27.9407 25.0757 27.8206 25.1809L27.4152 25.5565L27.205 25.0456C27.205 25.0456 27.16 24.9254 27.145 24.8804C26.5594 23.2276 26.0039 21.5598 25.4483 19.8919L24.6976 17.6682C24.3222 16.5413 23.9469 15.4294 23.5415 14.3175C23.4814 14.1523 23.3613 13.972 22.9409 13.9419C22.6707 13.9119 22.5205 13.987 22.4004 14.1973C22.0851 14.7082 21.8148 15.2491 21.5296 15.79C21.3043 16.2408 21.0791 16.6765 20.8539 17.1273C20.3284 18.179 19.7729 19.2759 19.1873 20.3277C19.1122 20.4779 19.0371 20.6132 18.902 20.7334L18.4966 21.109L17.881 19.3811L17.3255 17.7133C17.1753 17.2625 17.0252 16.8418 16.8 16.4662C16.7099 16.3009 16.6048 16.2107 16.4546 16.1807C16.2144 16.1206 16.0192 16.1807 15.764 16.391C15.3136 16.7667 14.8931 17.2024 14.4727 17.6081C14.3076 17.7734 14.1274 17.9537 13.9622 18.1189C13.7971 18.2842 13.6169 18.3443 13.3917 18.3443H13.0614C12.626 18.3443 12.2356 18.3443 11.8302 18.3744C11.62 18.4044 11.4548 18.4345 11.3497 18.5397C11.1545 18.735 11.0795 19.1106 11.1996 19.3961C11.2746 19.5764 11.4098 19.7417 11.8602 19.7717C12.4758 19.8018 13.0764 19.7717 13.692 19.7717H14.3826L14.8181 19.321C14.9832 19.1557 15.1634 18.9904 15.3286 18.8251C15.3886 18.765 15.5688 18.5998 15.809 18.6448C16.0643 18.7049 16.1393 18.9303 16.1844 19.0205C16.4847 19.8168 16.7549 20.6282 17.0252 21.4396L17.1904 21.9354C17.4006 22.5665 17.6108 23.1975 17.851 23.8286C17.9111 23.9788 18.0162 24.1441 18.3615 24.1892C18.7369 24.2343 18.887 24.1441 18.9771 23.9638L19.0972 23.7534C19.1572 23.6483 19.2173 23.5431 19.2774 23.4379L21.7998 18.5246C21.9199 18.2842 22.0551 18.0438 22.2052 17.7884L22.7607 16.7817L23.1061 17.6381L25.7787 25.5865C26.0789 26.458 26.3792 27.3595 26.7095 28.231C26.8297 28.5165 26.9948 28.6367 27.3402 28.6367C27.6104 28.6367 27.7456 28.5465 27.8206 28.4113C27.8807 28.2911 27.9557 28.1709 28.0158 28.0507C28.0759 27.9605 28.1209 27.8704 28.181 27.7652C29.1869 25.9021 30.1479 23.9638 31.0637 22.1007L32.0097 20.2075C32.1448 19.937 32.355 19.8018 32.6553 19.8018H33.5562C34.412 19.8018 35.2978 19.8018 36.1687 19.7717C36.5741 19.7567 36.8744 19.4562 36.8894 19.0806C36.8894 18.7049 36.6041 18.3894 36.2438 18.3744L36.2588 18.3443Z" fill="#265D89"/>
</svg>
