<svg width="35" height="32" viewBox="0 0 35 32" fill="none" xmlns="http://www.w3.org/2000/svg">
<path d="M18.9491 20.6672C18.3786 20.7874 17.8381 20.8174 17.3426 20.7573H17.1474C16.9372 20.7123 16.727 20.6972 16.5168 20.6371C16.1565 20.547 15.8111 20.4117 15.4658 20.2765C15.2105 20.1713 14.9703 20.0812 14.7301 19.961C14.5799 19.8858 14.4448 19.7957 14.2947 19.6905L14.1445 19.5853C13.8292 19.39 13.5139 19.1647 13.2136 18.8942C13.1836 18.8642 13.1385 18.8341 13.1085 18.8041V18.8341L12.7181 19.5853C12.538 19.9309 12.3728 20.2765 12.1926 20.6221C12.2377 20.6521 12.2677 20.6822 12.3127 20.7273C12.4479 20.8475 12.598 20.9827 12.7482 21.0879C13.1235 21.3433 13.559 21.6288 13.9944 21.8542C14.2947 22.0044 14.5949 22.1246 14.9102 22.2448L15.2856 22.3951C15.2856 22.3951 15.3457 22.3951 15.3757 22.4101L16.2165 22.6054C16.3516 22.6355 16.5018 22.6655 16.6519 22.6956L17.1174 22.7857V25.5053H18.6188V25.0094C18.6188 24.4836 18.6188 23.9427 18.6188 23.4168C18.6188 23.3116 18.6188 23.2215 18.6489 23.1163L18.6789 22.8759L18.9191 22.7106C19.0392 22.6655 19.1143 22.6355 19.2044 22.6205C19.4747 22.5904 19.7449 22.5153 20.0452 22.4251C20.4056 22.32 20.7509 22.1697 21.0962 21.9594C21.2914 21.8391 21.5467 21.6889 21.7418 21.4635C21.8169 21.3733 21.907 21.2982 21.9821 21.2081C22.0722 21.1179 22.1623 21.0278 22.2373 20.9376C22.4776 20.6371 22.6577 20.2314 22.7929 19.7056C22.8829 19.3449 22.913 18.9543 22.8829 18.5486C22.8679 18.3232 22.8229 18.1128 22.7929 17.8875C22.7778 17.8123 22.6427 17.4968 22.5676 17.3165L22.5076 17.1813C22.4175 16.9109 22.2223 16.7004 21.9971 16.4751C21.7118 16.1746 21.4566 15.9943 21.1863 15.8591C21.0512 15.799 20.916 15.7238 20.7809 15.6487C20.6007 15.5435 20.4056 15.4534 20.2104 15.3632C20.0002 15.2731 19.7749 15.198 19.5497 15.1228L18.0333 14.627C17.6879 14.5068 17.3276 14.3866 16.9973 14.2664C16.697 14.1462 16.3366 13.996 16.0213 13.7255C15.8111 13.5452 15.661 13.3498 15.5409 13.1244C15.3907 12.8239 15.3457 12.4784 15.4057 12.1178C15.4808 11.7271 15.7361 11.4115 16.1264 11.2012C16.4417 11.0359 16.7871 10.9308 17.2225 10.8857C17.733 10.8256 18.2735 10.8556 18.8891 10.9608C19.1894 11.0209 19.4747 11.111 19.7599 11.2012L20.0002 11.2764C20.1954 11.3365 20.4055 11.4115 20.5857 11.5017C20.9461 11.667 21.3064 11.8473 21.6668 12.0276L21.7719 12.0727C21.8319 11.9525 21.892 11.8172 21.952 11.697C21.9971 11.5918 22.0572 11.4717 22.1022 11.3515C22.1623 11.2162 22.2223 11.081 22.2824 10.9458C22.3574 10.7655 22.4475 10.6002 22.5376 10.4199L22.6427 10.2095C22.4175 10.0743 22.2373 9.95413 22.0421 9.86398C21.8019 9.72875 21.5467 9.60848 21.2914 9.51833C20.826 9.35305 20.4056 9.21789 20.0152 9.11271C19.7749 9.05261 19.5347 9.00749 19.2945 8.97744L18.6489 8.85721L18.6188 8.57173C18.5738 8.12097 18.5738 7.06927 18.5738 6.30298H17.1024C17.1024 6.54338 17.1024 6.93405 17.1024 7.53507V8.27129C17.1024 8.7521 16.9672 8.91734 16.4868 8.97744C15.676 9.12769 15.0003 9.38311 14.3998 9.80382C13.9944 10.0893 13.664 10.4349 13.4238 10.8406C13.2737 11.096 13.1536 11.3966 13.0635 11.667C12.9434 11.9976 12.9434 12.3731 12.9434 12.7037C12.9434 13.1094 13.0184 13.485 13.1385 13.8306C13.2436 14.1311 13.3938 14.4166 13.619 14.7171C13.8142 14.9876 14.0845 15.228 14.4148 15.4234C14.7301 15.6187 15.0604 15.814 15.4057 15.9342C15.9162 16.1295 16.4417 16.2947 16.9672 16.46L17.5228 16.6404C17.6579 16.6855 17.793 16.7155 17.9282 16.7606C18.2735 16.8657 18.6338 16.9709 18.9942 17.1362C19.3395 17.3015 19.6098 17.4217 19.865 17.6471C20.0902 17.8424 20.2554 18.0528 20.3605 18.2932C20.6007 18.8341 20.5557 19.36 20.2404 19.8258C19.9551 20.2465 19.5197 20.5169 18.9191 20.6371L18.9491 20.6672Z"  />
<path d="M27.4632 17.0312C27.5833 17.0612 27.7485 17.1064 27.8987 17.1965C28.1539 17.1965 28.9046 17.2415 29.1298 17.4969C29.2049 17.5871 29.2499 17.7224 29.2199 17.8276C29.1899 18.0229 29.1749 18.2332 29.1449 18.4436C29.1299 18.6539 29.0998 18.8643 29.0698 19.0747C28.9347 19.9912 28.7094 20.8777 28.3641 21.7041C28.1389 22.245 27.9437 22.7409 27.6584 23.2066L27.4933 23.4771C27.3131 23.7776 27.1329 24.0781 26.9377 24.3786C26.7876 24.619 26.6074 24.8444 26.4272 25.0698C26.172 25.3703 25.9167 25.6558 25.6315 25.9262C25.3011 26.2568 24.9859 26.5723 24.6405 26.8428C24.2201 27.1733 23.7697 27.4738 23.4243 27.6842C23.109 27.8795 22.7787 28.0598 22.4334 28.2251C22.2082 28.3453 21.9679 28.4354 21.7577 28.5406L21.5926 28.6157C21.3824 28.781 20.8719 28.9012 19.8509 29.1566C19.7007 29.1867 19.6107 29.2017 19.5056 29.2317C19.3404 29.2618 19.1752 29.3069 19.0101 29.322H18.89C18.4545 29.3971 18.0041 29.4572 17.5687 29.4722C17.1633 29.4872 16.7729 29.4722 16.3825 29.4722H16.1273C15.4216 29.4421 14.806 29.352 14.2505 29.2017C14.1754 29.1867 12.5538 28.6759 12.2536 28.5406C11.9382 28.4054 11.6229 28.2401 11.3076 28.0899L11.0674 27.9697C10.9022 27.8945 10.7371 27.8044 10.5869 27.7143C10.3467 27.564 10.1215 27.4137 9.89628 27.2485L9.611 27.0531C9.41581 26.9179 9.20562 26.7826 9.01043 26.6324C8.65008 26.3469 8.28973 26.0464 7.92938 25.7459C7.89936 25.7309 7.86932 25.7008 7.77923 25.7008C7.539 25.7158 7.40387 25.791 7.29877 25.9713C7.17865 26.1666 7.20868 26.437 7.37384 26.6023C7.46393 26.6924 7.56903 26.7976 7.67413 26.8878L8.09454 27.3085C8.19965 27.4287 8.30474 27.5339 8.42485 27.639C8.75517 27.9245 9.10051 28.2101 9.44584 28.4655C9.76114 28.6909 10.0614 28.9163 10.3767 29.1116C10.9173 29.4271 11.5779 29.8178 12.2385 30.1333C12.719 30.3737 13.2445 30.554 13.74 30.7343C14.1454 30.8695 14.5808 30.9747 14.9862 31.0649C15.3015 31.14 15.6168 31.1851 15.9321 31.2301C16.2624 31.2752 16.5026 31.3053 16.7429 31.3203C16.9531 31.3203 17.1783 31.3504 17.4035 31.3504H18.0942C18.3795 31.3504 18.6497 31.3504 18.7548 31.3504C19.0401 31.3504 19.3404 31.3203 19.6257 31.2752H19.7458C20.1662 31.2151 20.5866 31.155 21.007 31.0799C21.4724 30.9898 21.9529 30.8846 22.4034 30.7043C22.5835 30.6292 22.7787 30.554 22.9739 30.4939C23.1841 30.4188 23.3943 30.3436 23.5895 30.2685C24.085 30.0581 24.5504 29.8027 25.0309 29.5473C25.3011 29.4121 25.5414 29.2318 25.7966 29.0665L25.9918 28.9463C26.3071 28.736 26.6074 28.5406 26.9077 28.3152C27.193 28.0898 27.4782 27.8495 27.7485 27.6091L27.9437 27.4438C28.0938 27.3086 28.229 27.1733 28.3791 27.0381C28.4842 26.9329 29.0398 26.3469 29.1899 26.1666C29.4752 25.821 29.7454 25.4754 30.0007 25.1148C30.2409 24.7692 30.4661 24.4237 30.6613 24.0631C30.8565 23.7325 31.0517 23.3719 31.2168 22.9963C31.4571 22.4403 31.6823 21.8844 31.8925 21.3285C31.9976 21.043 32.0877 20.7425 32.1478 20.457C32.2529 20.0363 32.3429 19.6155 32.418 19.1948C32.4781 18.8643 32.5381 18.5337 32.5832 18.1881V18.083C32.6132 17.9778 32.6282 17.8726 32.6282 17.7824V17.6473C32.6582 17.4519 32.8084 17.3017 33.0036 17.3017H33.424C33.7093 17.3017 33.9945 17.2866 34.2948 17.2716L34.3849 17.1815C34.3849 17.1063 34.3849 17.0612 34.3849 17.0462C34.3098 16.8509 34.2047 16.6706 34.0996 16.4903C34.0546 16.4151 34.0095 16.3401 33.9645 16.265C33.9044 16.1748 33.8444 16.0846 33.7993 15.9944C33.7393 15.8892 33.6792 15.7691 33.6192 15.6639C33.5741 15.5587 33.5141 15.4686 33.469 15.3634C33.3939 15.2281 33.3039 15.0779 33.2138 14.9427C33.1237 14.7925 33.0336 14.6422 32.9435 14.4769C32.8534 14.3117 32.7483 14.1313 32.6582 13.966C32.5682 13.8008 32.4781 13.6354 32.388 13.4702C32.2528 13.2298 32.1177 12.9894 31.9826 12.764L31.6222 12.1479C31.5472 12.0127 31.4721 11.8775 31.397 11.7423C31.322 11.5921 31.2319 11.4418 31.1568 11.2916C31.0667 11.1413 31.0217 11.1262 30.9916 11.1262C30.8865 11.1262 30.8415 11.1713 30.8115 11.2164C30.6163 11.5469 30.4211 11.8775 30.2409 12.2081L30.0607 12.5236C29.7755 13.0044 29.5052 13.5003 29.2199 13.9961C28.9797 14.4168 28.7545 14.8375 28.5293 15.2582L28.4692 15.3634C28.3341 15.5888 28.0338 16.1147 27.9887 16.1748C27.9587 16.2499 27.9137 16.325 27.8686 16.4001L27.7035 16.7157C27.6284 16.8659 27.5383 17.0011 27.4783 17.1514L27.4632 17.0312ZM28.8446 16.0395L29.2349 15.3634C29.4452 14.9877 29.6403 14.6121 29.8656 14.2365C30.1058 13.8007 30.361 13.365 30.6163 12.9293C30.6763 12.8091 30.8115 12.749 30.9316 12.7339C31.0667 12.7339 31.1868 12.8091 31.2619 12.9142L31.322 13.0194C31.4571 13.2448 31.5922 13.4852 31.7273 13.7106L31.9526 14.1313L32.0276 14.2816C32.1177 14.4318 32.1928 14.5971 32.2829 14.7474L32.5231 15.153C32.6432 15.3483 32.7333 15.4986 32.8084 15.6188C32.8534 15.7089 32.9135 15.7992 32.9585 15.8893C33.0186 16.0095 33.0186 16.1447 32.9585 16.265C32.8985 16.3701 32.7783 16.4452 32.6432 16.4602H31.9976L31.9075 17.6322V17.6773C31.9075 17.6773 31.9075 17.8125 31.8775 17.8876V17.9928C31.8024 18.3835 31.7574 18.669 31.6973 18.9695C31.6222 19.3752 31.5322 19.7809 31.427 20.1865C31.337 20.5171 31.2769 20.7725 31.1868 20.9828C31.0066 21.4787 30.7814 22.0497 30.5262 22.6206C30.376 22.9512 30.1959 23.2967 30.0007 23.6123C29.7755 24.0029 29.5653 24.3336 29.3701 24.619C29.1599 24.9195 28.9046 25.2501 28.5893 25.6257C28.4842 25.7609 27.9737 26.3018 27.8236 26.4521C27.7035 26.5723 27.5683 26.7075 27.4332 26.8127L27.253 26.963C26.9677 27.2184 26.6975 27.4437 26.4272 27.6541C26.172 27.8494 25.9017 28.0297 25.6315 28.21L25.3762 28.3754C25.106 28.5557 24.8807 28.7059 24.6555 28.8261C24.13 29.1116 23.6946 29.3219 23.2742 29.5172C23.1691 29.5623 23.049 29.6074 22.9439 29.6525C22.8988 29.6525 22.8538 29.6675 22.8087 29.6675C22.6586 29.6675 22.5235 29.5773 22.4634 29.4421C22.3883 29.2618 22.4634 29.0514 22.6436 28.9613L22.7937 28.8862C23.109 28.7209 23.4844 28.5406 23.8447 28.3002C24.2351 28.0447 24.7006 27.7443 25.121 27.4137C25.4813 27.1282 25.8116 26.8127 26.1119 26.4972C26.4573 26.1516 26.7425 25.8511 26.9978 25.5506C27.193 25.3252 27.3882 25.0698 27.5683 24.7843C27.7635 24.4688 27.9587 24.1683 28.1539 23.8527L28.304 23.6123C28.6193 23.1014 28.8296 22.5606 29.0247 22.0797C29.4151 21.1181 29.6553 20.1715 29.8055 19.1948C29.8355 18.9995 29.8505 18.7892 29.8806 18.5788C29.9106 18.3384 29.9256 18.143 29.9556 17.9627L30.0457 17.2566V16.6105H29.9857C29.7454 16.6406 29.4602 16.6556 29.1449 16.6406C29.0097 16.6406 28.9046 16.5655 28.8295 16.4452C28.7695 16.325 28.7695 16.1897 28.8295 16.0846L28.8446 16.0395Z"  />
<path d="M2.19286 17.6471L2.47813 18.1579C2.74839 18.6387 3.85946 20.592 4.02462 20.7873C4.15975 20.9226 4.21981 20.8474 4.32492 20.6972C4.53512 20.3666 5.46602 18.6988 5.49604 18.6387C5.52607 18.5636 5.78132 18.1279 6.05158 17.632C6.41193 17.001 6.83234 16.2647 6.90741 16.0994L7.53802 14.9425C7.53802 14.9425 7.58306 14.8674 7.58306 14.8524C7.58306 14.7773 7.56805 14.7021 7.53802 14.6721C7.43291 14.6571 7.28277 14.627 7.10259 14.627C6.98248 14.627 6.90741 14.627 6.83233 14.627C6.74225 14.627 6.65216 14.627 6.56207 14.627C6.26178 14.627 6.0666 14.6119 5.93147 14.4316C5.79634 14.2664 5.82636 14.0711 5.87141 13.9058L5.90143 13.5302C5.91645 13.2597 5.94648 13.0042 5.99153 12.7338C6.08161 12.2229 6.17169 11.7722 6.29181 11.3665C6.45697 10.8106 6.60712 10.3297 6.78729 9.89396C6.96747 9.4432 7.19268 9.02251 7.40288 8.6018C7.56804 8.28627 7.74822 8.00076 7.9284 7.7303C8.06353 7.53498 8.64909 6.73865 8.84428 6.5283C9.12956 6.21276 9.44486 5.89724 9.74515 5.59673C9.95535 5.4014 10.6911 4.78537 10.8712 4.66517C11.1415 4.48487 12.2376 3.82379 12.5378 3.67354C12.5378 3.67354 13.3336 3.28282 13.4687 3.23774L14.1144 3.04241C14.1894 3.01236 14.2795 2.98231 14.3546 2.95226C14.5198 2.89216 14.6999 2.83208 14.8801 2.787C15.4056 2.6668 15.9311 2.5616 16.4566 2.48648C16.9071 2.42638 17.3575 2.38137 17.838 2.36634H17.9881C18.3334 2.36634 18.6638 2.38132 19.0091 2.41137H19.1142C19.4895 2.44142 21.1411 2.78703 21.6066 2.90723C22.1321 3.04246 22.6726 3.25283 23.3182 3.58339L24.3392 4.12428C24.3392 4.12428 24.4443 4.18438 24.4894 4.21443L25.4653 4.87555C25.6605 4.99575 25.8407 5.13099 26.0209 5.26622C26.171 5.38642 26.3211 5.52167 26.4713 5.65689C26.5914 5.76207 26.6965 5.86717 26.8166 5.95733C27.0118 6.1226 27.1469 6.18274 27.2971 6.18274C27.4923 6.18274 27.6424 6.09255 27.7325 5.95733C27.8226 5.83712 27.8526 5.6869 27.8226 5.52162C27.7926 5.37137 27.7475 5.29624 27.6724 5.23614C27.5523 5.14599 27.4773 5.04081 27.4022 4.95065C27.3722 4.90558 27.3421 4.86048 27.2971 4.83043C27.0418 4.59002 26.7866 4.34966 26.5163 4.12428C26.2161 3.86885 25.9158 3.62846 25.6155 3.38805C25.4053 3.22277 25.18 3.07252 24.9548 2.92227L24.6545 2.71189C24.5344 2.63677 24.4293 2.54658 24.2942 2.48648C24.069 2.36628 23.8438 2.24609 23.6185 2.12588L23.1681 1.88552C23.033 1.81039 22.9129 1.75028 22.7777 1.69018C22.5525 1.58501 22.3123 1.47982 22.087 1.4047L21.8318 1.31455C21.3814 1.1643 20.9159 0.998959 20.4505 0.878756C20.0301 0.773579 19.5796 0.698493 19.1442 0.638391C18.7689 0.57829 18.3935 0.563254 18.0181 0.533203C17.898 0.533203 17.7779 0.533203 17.6428 0.533203H17.2524C16.817 0.533203 16.3816 0.548258 15.9611 0.563283C15.6458 0.563283 15.3455 0.593315 15.0302 0.638391C14.5648 0.698493 14.0993 0.773579 13.6489 0.878756C13.0333 1.01398 12.4027 1.20934 11.7721 1.46477C11.5319 1.55492 11.3067 1.67515 11.0814 1.78033C10.9163 1.87048 10.7511 1.94557 10.586 2.0207C10.1505 2.21603 9.73013 2.47147 9.24967 2.787C8.96439 2.96731 8.67912 3.16264 8.40886 3.35797C8.00347 3.67351 7.59807 4.0041 7.2077 4.33466C7.01251 4.49994 6.81732 4.6802 6.62213 4.86051C6.487 4.99573 6.35188 5.14595 6.21674 5.29621L5.94648 5.58169C5.84138 5.68687 5.75129 5.80712 5.6612 5.9123C5.451 6.18275 5.2408 6.46823 5.0306 6.75371C4.85043 7.02417 4.68526 7.29461 4.5201 7.58009L4.415 7.76038C4.27987 7.98576 4.12973 8.22622 4.00961 8.46662C3.7844 8.93241 3.54416 9.44327 3.34897 9.96916C3.15378 10.48 2.98863 11.0209 2.83848 11.6069C2.70335 12.1027 2.61326 12.6136 2.52317 13.1094C2.46311 13.44 2.43309 13.7855 2.40306 14.1311C2.37303 14.4316 2.17784 14.6119 1.89256 14.6119H0.81152C0.721433 14.6119 0.661377 14.6571 0.661377 14.6721C0.661377 14.8374 0.676391 14.9726 0.766478 15.0928C0.84155 15.213 1.38207 16.1596 2.20787 17.632L2.19286 17.6471ZM2.35802 15.3031C2.61327 15.2881 2.88353 15.3031 2.94359 15.2881C3.03367 15.1829 3.12376 14.4616 3.15379 14.2062C3.18382 13.8907 3.21384 13.5752 3.2739 13.2597C3.36398 12.7939 3.45408 12.283 3.57419 11.8172C3.72434 11.2463 3.8895 10.7204 4.06967 10.2546C4.24985 9.75881 4.47506 9.26294 4.70028 8.81218C4.79037 8.61685 4.91048 8.42151 5.01558 8.24121L5.16572 8.00084C5.3459 7.70033 5.49604 7.4599 5.64619 7.21949C5.84138 6.94904 6.03657 6.67854 6.24677 6.42311C6.33686 6.31793 6.42694 6.21283 6.51703 6.12267L6.75727 5.86718C6.8924 5.71692 7.01251 5.58174 7.14764 5.44652C7.3128 5.28124 7.49297 5.11595 7.67314 4.96569C8.06352 4.63514 8.4539 4.31958 8.85929 4.00405C9.11453 3.80872 9.3848 3.64347 9.64005 3.46316C10.1055 3.16265 10.4809 2.93723 10.8712 2.75692C11.0364 2.6818 11.2016 2.59168 11.3667 2.51656L11.4568 2.47144C11.637 2.38129 11.8322 2.29115 12.0273 2.20099C12.2676 2.09582 12.5078 2.00567 12.748 1.93055L13.0183 2.63679C12.748 2.75699 12.3577 2.93729 12.2225 3.01242C11.8322 3.20775 10.7061 3.89886 10.4208 4.07916C10.2106 4.21439 9.42984 4.86047 9.18961 5.10087C8.8743 5.4164 8.55901 5.73196 8.25872 6.06251C8.04851 6.30292 7.4179 7.11427 7.26776 7.35467C7.04254 7.70025 6.86236 7.98582 6.71221 8.28633C6.487 8.72206 6.24677 9.17278 6.05158 9.65359C5.8564 10.1194 5.69123 10.6302 5.52607 11.2162C5.40595 11.6519 5.30085 12.1328 5.21077 12.6587C5.16572 12.9441 5.1357 13.2296 5.12068 13.5151L5.09066 13.8757C5.04561 14.1462 5.01559 14.7471 5.09066 15.243C5.22579 15.288 5.37593 15.2881 5.51106 15.3031C5.66121 15.3031 5.81135 15.3331 5.93147 15.3632L6.38191 15.4985L6.15669 15.9191C6.00654 16.1896 5.69123 16.7606 5.39094 17.2865C5.10567 17.7973 4.83541 18.2631 4.80538 18.3232C4.76034 18.3984 4.61019 18.6688 4.43002 19.0143L4.11471 19.5853L3.78439 19.0143C3.51413 18.5486 3.24388 18.0678 3.10875 17.8424L1.74242 15.4083L2.343 15.3632L2.35802 15.3031Z"  />
</svg>
