<svg width="26" height="26" viewBox="0 0 26 26" fill="none" xmlns="http://www.w3.org/2000/svg">
<path d="M23.6346 15.4188C23.494 16.1336 23.4173 16.5037 23.0978 16.6569C22.8294 16.7845 22.561 16.6824 22.0881 16.4399L21.8325 20.5626L25.5389 18.7374C24.8232 18.0482 24.8232 17.7929 25.1555 16.6058C26.2419 12.6363 25.5645 9.01135 23.1617 5.7821C22.8422 5.34813 22.4971 4.88862 22.3565 4.87585C22.2159 4.87585 21.858 5.22048 21.449 5.61616C21.0784 5.97355 21.0528 6.02462 21.3596 6.36924C23.5707 8.9603 24.3375 12.0108 23.6474 15.406L23.6346 15.4188Z" />
<path d="M5.55002 4.16101C5.94623 4.59498 6.0357 4.59499 6.54694 4.18654C9.48657 1.78694 12.8224 1.21256 16.7334 2.38683L17.1168 2.50172L16.9123 2.84633C16.8612 2.92292 16.8356 2.98674 16.8101 3.05056C16.7589 3.16544 16.7078 3.24202 16.6311 3.33137C16.5417 3.43348 16.4778 3.51005 16.4522 3.56111C16.5161 3.57387 16.6056 3.58664 16.7717 3.58664C17.8709 3.62493 18.9828 3.71428 20.0564 3.80362L20.4015 3.82916C20.5038 3.82916 20.5677 3.82916 20.6188 3.82916C20.606 3.79086 20.5805 3.73981 20.5549 3.68875C19.967 2.55277 19.4046 1.39125 18.8422 0.19145C18.8295 0.153158 18.8167 0.127641 18.8039 0.102113C18.3693 1.07217 17.6408 0.84242 17.104 0.663726C15.7237 0.216991 14.3817 0 13.0652 0C10.4579 0 7.99118 0.867941 5.69061 2.59106C5.34552 2.84634 4.91097 3.17819 4.89819 3.2803C4.89819 3.38241 5.19215 3.70151 5.48612 4.02061L5.57558 4.10996L5.55002 4.16101Z" />
<path d="M2.03468 10.1473C2.17527 9.47081 2.25196 9.08789 2.57149 8.94748C2.83989 8.81985 3.10829 8.92195 3.5684 9.16447L3.8368 5.04175L0.130316 6.84146C0.360373 6.96909 0.513744 7.12225 0.628773 7.31371C0.884393 7.77321 0.731023 8.28378 0.590432 8.78157L0.539307 8.97302C-0.5982 12.8915 0.0664116 16.5292 2.50758 19.8095C2.83988 20.2563 3.18497 20.7158 3.31278 20.7285C3.45337 20.7413 3.81124 20.3839 4.19467 20.0138L4.25858 19.9627C4.60366 19.6308 4.62922 19.5925 4.29692 19.1969C2.08581 16.6186 1.33172 13.568 2.03468 10.1473V10.1473Z" />
<path d="M20.0299 21.3796C19.6848 21.0222 19.6209 21.0222 19.1864 21.3796C16.4257 23.6643 13.2304 24.3664 9.66455 23.4601C9.30668 23.3708 8.94882 23.2432 8.85935 22.9113C8.7571 22.5794 8.97438 22.2859 9.15331 22.0816L9.17888 22.0434C9.17888 22.0434 9.12776 22.0434 9.10219 22.0434C8.3609 22.0178 7.63238 21.954 6.89108 21.9029L6.26481 21.8519H5.84304C5.67689 21.8391 5.52352 21.8264 5.35737 21.8008C5.19121 21.7753 5.08897 21.7626 5.03784 21.7626C5.0634 21.8264 5.10174 21.9285 5.17842 22.0816C5.62576 22.9113 6.04754 23.7793 6.44375 24.6089L6.78883 25.3364C6.81439 25.4002 6.85274 25.4513 6.86552 25.4896L6.89108 25.4385C7.1467 24.9152 7.49178 24.7621 7.83687 24.7621C8.06693 24.7621 8.29698 24.8259 8.51426 24.9024C12.617 26.2427 16.464 25.6172 19.9405 23.0517C20.3111 22.7837 20.7584 22.4518 20.7712 22.3242C20.7712 22.2093 20.4517 21.8519 20.0938 21.469L20.0299 21.3924V21.3796Z" />
</svg>
