<svg width="23" height="36" viewBox="0 0 23 36" fill="none" xmlns="http://www.w3.org/2000/svg">
<path d="M20.6028 21.6747C21.9842 21.7648 22.6748 19.8266 22.6899 18.3841C22.7499 15.1236 22.9 13.8765 22.6298 10.616C22.4646 8.63269 20.9181 7.11513 19.1915 7.04C19.0263 7.04 18.8762 6.94984 18.666 6.88974C19.5368 5.82294 20.0623 4.666 19.8221 3.28366C19.6419 2.26194 19.1164 1.4656 18.3206 0.819507C16.8642 -0.35247 14.7021 -0.232278 13.2307 1.08995C11.6542 2.53239 11.6242 4.54578 13.2007 6.88974C12.54 7.05502 11.8644 7.1001 11.1737 7.41563C11.6842 5.20691 11.1437 3.49402 9.05668 2.5324C7.67535 1.90133 6.00873 2.29199 4.9427 3.40387C3.66647 4.7261 3.47128 6.49908 4.82259 8.60263C3.71151 8.67775 3.23106 9.42902 2.88573 10.3606C1.71459 13.5159 -0.102163 17.4976 0.138069 20.7581C0.423344 22.5161 1.03894 22.7565 1.86474 23.0871C1.68456 23.6881 1.5194 24.2891 1.35424 24.8901C1.18908 25.4911 1.36926 25.7315 2.01488 25.7466C2.42027 25.7616 2.84068 25.7766 3.24607 25.7466C3.86166 25.6865 4.01181 25.9569 4.01181 26.5429C3.98178 28.7967 4.01181 31.0655 4.01181 33.3193C4.01181 33.7551 4.02682 34.2058 4.25204 34.5815C4.58236 35.1674 5.01778 35.6032 5.78352 35.5731C6.98468 35.5431 8.18583 35.5731 9.38699 35.5731C9.50711 35.5731 9.64225 35.5731 9.74735 35.5431C9.98758 35.6783 10.3029 35.7985 10.7083 35.7985C11.2338 35.7985 11.6242 35.5581 11.8794 35.3327C12.1347 35.5581 12.51 35.7985 13.0205 35.7985C13.4559 35.7985 13.7712 35.6933 14.0115 35.5431C15.573 35.5731 17.1345 35.6032 18.681 35.513C19.6269 35.4529 20.1974 34.5664 20.1974 33.4546C20.1974 29.8785 20.1974 26.2875 20.1974 22.7114C20.1974 22.5161 20.1974 22.3208 20.1974 22.1405C20.1974 21.8249 20.2425 21.6897 20.6479 21.7198L20.6028 21.6747ZM12.9755 3.9598C13.0355 2.18681 14.4619 1.01484 15.9333 1.05992C17.5999 1.10499 18.8161 2.32203 18.8161 4.00487C18.8161 5.59756 17.4348 6.96486 15.8583 6.93481C14.3868 6.90476 12.9154 5.47735 12.9755 3.97482V3.9598ZM7.66034 3.26865C9.13176 3.26865 10.2729 4.51573 10.3329 6.01826C10.378 7.38557 9.01164 8.82802 7.69036 8.66274C5.96369 8.82802 4.89767 7.19025 4.91268 6.00325C4.91268 4.53076 6.18891 3.26865 7.67534 3.26865H7.66034ZM14.2967 23.2373C13.8763 23.3425 13.9064 23.6731 13.9064 23.9886C13.9064 27.189 13.9064 30.3894 13.9064 33.5898C13.9064 33.9955 13.9064 34.3711 13.6061 34.7317C13.6061 34.7467 13.576 34.7618 13.576 34.7768C13.4709 34.8519 13.2908 34.927 12.9905 34.927C12.5851 34.927 12.3148 34.5815 12.2398 34.4763C12.2398 34.4462 12.2398 34.4162 12.2398 34.3861C12.2398 32.8686 12.2398 31.351 12.2398 29.8485C12.2398 29.5179 12.1647 29.1874 11.8794 29.1874C11.5641 29.1874 11.504 29.5329 11.504 29.8935C11.504 30.6448 11.504 31.3811 11.504 32.1323C11.504 32.8836 11.504 33.6198 11.504 34.3711V34.4011L11.474 34.4462C11.474 34.4462 11.1737 34.912 10.6482 34.912H10.6332C10.3179 34.912 10.1077 34.7768 9.97256 34.6566C9.94253 34.6115 9.89749 34.5815 9.86746 34.5364C9.67227 34.3411 9.7023 34.1157 9.7023 33.8603C9.7023 30.6899 9.7023 27.5196 9.7023 24.3492C9.7023 23.9435 9.85245 23.3726 9.31193 23.2223C8.72636 23.0721 8.57621 23.643 8.38103 24.0337C7.90056 24.9803 7.64532 26.002 7.4201 27.0387C7.37505 27.2641 7.37506 27.5947 7.05975 27.5496C6.69941 27.5045 6.77447 27.189 6.81952 26.9185C7.10479 25.5212 7.49517 24.1689 8.27592 22.9518C8.8765 22.0203 9.67227 21.4643 10.8284 21.4944C11.459 21.5094 12.0746 21.5244 12.7052 21.4944C13.8613 21.4343 14.6721 22.0203 15.2877 22.9218C16.0985 24.1088 16.4738 25.4911 16.7591 26.8735C16.8042 27.1289 16.9393 27.5346 16.5189 27.5646C16.2036 27.5947 16.1886 27.2341 16.1435 26.9636C15.9483 25.7916 15.603 24.6797 15.0324 23.628C14.8823 23.3425 14.7021 23.0871 14.3118 23.1922L14.2967 23.2373ZM9.19181 17.8132C9.25187 16.3557 10.1978 15.2138 11.6842 15.1988C13.2908 15.1988 14.4619 16.3557 14.4619 18.0085C14.4619 19.3758 13.3358 20.3825 11.7743 20.3975C10.3629 20.4126 9.13175 19.2406 9.19181 17.8132ZM20.1524 12.5844C20.1524 12.1787 20.3025 11.5777 19.6569 11.5927C19.0413 11.5927 19.1614 12.1787 19.1464 12.5994C19.1464 12.6745 19.2365 18.0836 19.2365 21.5845C19.2365 23.8834 19.1614 26.1973 19.1464 28.5112C19.1314 30.149 19.1464 31.7868 19.1464 33.4095C19.1464 34.2509 18.8912 34.4913 18.0804 34.5063C17.2696 34.5214 16.4438 34.4913 15.633 34.5063C15.1225 34.5214 14.9724 34.326 14.9724 33.8302C14.9874 31.2759 14.9724 28.7366 14.9724 26.3025C15.0475 26.6631 15.1225 27.1289 15.2427 27.5947C15.4378 28.391 16.1135 28.7817 16.8943 28.6164C17.5399 28.4661 17.9603 27.79 17.8402 27.0537C17.66 25.9869 17.3897 24.9352 16.9393 23.9435C16.3988 22.7415 15.7531 21.6146 14.582 20.9234C14.1316 20.653 14.2217 20.5328 14.4919 20.2172C15.558 18.9401 15.6781 17.5277 14.9424 16.0402C14.2967 14.733 12.7953 13.9517 11.3539 14.147C9.88248 14.3423 8.63627 15.5293 8.33598 16.9567C8.06572 18.2038 8.42607 19.2857 9.16179 20.2623C9.37199 20.5478 9.40202 20.683 9.05668 20.9234C6.80451 22.471 6.0838 24.83 5.84357 27.3843C5.78351 28.0454 6.279 28.5413 6.90961 28.6314C7.55523 28.7216 8.11076 28.4211 8.32097 27.79C8.47111 27.3543 8.54619 26.9035 8.65129 26.4678C8.6663 26.4678 8.69633 26.4678 8.71135 26.4678C8.71135 28.8868 8.69633 31.321 8.71135 33.7551C8.71135 34.3711 8.51616 34.5664 7.9306 34.5213C7.36005 34.4763 6.77448 34.5213 6.20393 34.5213C5.27303 34.5213 5.0478 34.296 5.0478 33.3794C5.0478 31.1256 5.0478 28.8568 5.0478 26.603C5.0478 24.6647 5.28804 24.6798 3.20103 24.7248C2.61546 24.7248 2.52538 24.5746 2.67552 24.0186C3.45628 20.9986 5.12288 15.0184 5.43818 13.9066C5.5583 13.5009 5.6634 13.2154 5.21297 13.0802C4.79256 12.96 4.64241 13.3206 4.50728 13.6361C4.47725 13.6962 4.46224 13.7714 4.43222 13.8465C3.54636 17.1521 2.08995 22.1555 1.53442 21.9602C0.933838 21.7498 0.888787 19.496 1.06896 18.4442C1.15905 17.9183 2.5554 13.3356 3.95175 10.4958C4.26706 9.8798 4.64242 9.57928 5.33308 9.5943C6.6994 9.62435 8.06573 9.5943 9.43205 9.60932C9.94254 9.60932 10.3329 9.50415 10.6782 9.09846C11.2788 8.39227 12.1046 8.03168 13.0355 8.03168C14.9574 8.03168 16.8792 8.01665 18.8011 8.03168C19.9572 8.03168 20.813 8.57258 21.3235 9.63938C21.6088 10.2103 21.7589 10.8114 21.7589 11.4424C21.7589 14.2822 21.7589 15.0936 21.7589 17.9334C21.7589 18.2189 21.6688 18.5043 21.6388 18.7898C21.5337 20.1421 20.4227 20.5628 20.3626 20.2323C20.2725 19.8115 20.2125 15.3039 20.1974 12.5994L20.1524 12.5844Z"  />
</svg>
