<svg width="48" height="26" viewBox="0 0 48 26" fill="none" xmlns="http://www.w3.org/2000/svg">
<path d="M47.1145 20.494C45.0279 20.494 43.9321 21.2151 42.9564 21.846C42.0107 22.4619 41.2001 23.0027 39.4738 23.0027C37.7476 23.0027 36.937 22.4619 36.0063 21.846C35.0456 21.2151 33.9348 20.494 31.8483 20.494C29.7617 20.494 28.6659 21.2151 27.6902 21.846C26.7595 22.4619 25.9339 23.0027 24.2227 23.0027C22.5114 23.0027 21.6858 22.4769 20.7401 21.846C19.7794 21.2151 18.6686 20.494 16.582 20.494C14.4955 20.494 13.3997 21.2151 12.424 21.846C11.4783 22.4619 10.6677 23.0027 8.94144 23.0027C7.21518 23.0027 6.40462 22.4619 5.45892 21.846C4.58828 21.2752 3.71763 21.2902 2.39666 21.3202C2.06642 21.3202 1.70614 21.3352 1.30084 21.3352C0.865524 21.3352 0.550293 21.7709 0.550293 22.3868C0.550293 23.0027 0.865524 23.4383 1.30084 23.4383C1.76618 23.4383 2.17149 23.4233 2.53176 23.4083C3.58253 23.3632 4.16794 23.3482 4.76838 23.7387C5.72909 24.3697 6.83993 25.0907 8.92646 25.0907C11.013 25.0907 12.1088 24.3697 13.0845 23.7387C14.0302 23.1229 14.8408 22.5821 16.5671 22.5821C18.2933 22.5821 19.1039 23.1078 20.0496 23.7387C21.0103 24.3697 22.1211 25.0907 24.2077 25.0907C26.2942 25.0907 27.39 24.3697 28.3657 23.7387C29.2964 23.1229 30.122 22.5821 31.8332 22.5821C33.5445 22.5821 34.3701 23.1229 35.3158 23.7387C36.2765 24.3697 37.3873 25.0907 39.4738 25.0907C41.5604 25.0907 42.6562 24.3697 43.6319 23.7387C44.5626 23.1229 45.3882 22.5821 47.1145 22.5821C47.5498 22.5821 47.865 22.1464 47.865 21.5305C47.865 20.9146 47.5498 20.479 47.1145 20.479V20.494Z"  />
<path d="M8.94189 17.8354C10.0528 17.8354 10.9534 16.9342 10.9534 15.8225C10.9534 14.7108 10.0528 13.8096 8.94189 13.8096C7.83098 13.8096 6.93042 14.7108 6.93042 15.8225C6.93042 16.9342 7.83098 17.8354 8.94189 17.8354Z"  />
<path d="M24.192 17.6702C25.2117 17.6702 26.0384 16.843 26.0384 15.8225C26.0384 14.8021 25.2117 13.9749 24.192 13.9749C23.1723 13.9749 22.3457 14.8021 22.3457 15.8225C22.3457 16.843 23.1723 17.6702 24.192 17.6702Z"  />
<path d="M39.459 17.8208C40.5698 17.8208 41.4554 16.9195 41.4554 15.8079C41.4554 14.6962 40.5548 13.7949 39.459 13.7949C38.3632 13.7949 37.4475 14.6962 37.4475 15.8079C37.4475 16.9195 38.3482 17.8208 39.459 17.8208Z"  />
<path d="M16.5671 10.4449C17.5878 10.4449 18.4134 9.61869 18.4134 8.5972C18.4134 7.57571 17.5878 6.74951 16.5671 6.74951C15.5463 6.74951 14.7207 7.57571 14.7207 8.5972C14.7207 9.61869 15.5463 10.4449 16.5671 10.4449Z"  />
<path d="M31.8329 10.4449C32.8536 10.4449 33.6793 9.61869 33.6793 8.5972C33.6793 7.57571 32.8536 6.74951 31.8329 6.74951C30.8121 6.74951 29.9866 7.57571 29.9866 8.5972C29.9866 9.61869 30.8121 10.4449 31.8329 10.4449Z"  />
<path d="M24.1931 4.03001C25.3039 4.03001 26.2046 3.1287 26.1896 2.01708C26.1896 0.905462 25.2889 0.00415039 24.1931 0.00415039C23.0973 0.00415039 22.1816 0.905462 22.1816 2.01708C22.1816 3.1287 23.0823 4.03001 24.1931 4.03001Z"  />
</svg>
