<svg width="37" height="38" viewBox="0 0 37 38" fill="none" xmlns="http://www.w3.org/2000/svg">
<path d="M28.3963 27.2279V27.2129H28.2012L28.3963 27.2279Z"  />
<path d="M0.0408623 18.2745C0.130928 19.7466 0.68633 21.0535 1.67706 22.1351C3.41833 24.0429 6.12031 24.7038 8.56711 23.7875C8.7022 23.7424 8.82229 23.7124 8.94238 23.7124C9.07748 23.7124 9.21256 23.7424 9.34766 23.8025C9.69291 23.9678 10.0832 24.0879 10.3384 24.163C10.5485 24.2231 10.7437 24.2231 10.8938 24.133C11.0139 24.0579 11.1039 23.9377 11.164 23.7725C11.2991 23.3068 10.9088 23.0965 10.6686 23.0214C10.2483 22.8712 9.84305 22.7209 9.46777 22.5257C9.15254 22.3604 8.88234 22.3454 8.56711 22.4956C6.25541 23.5922 3.61346 22.9012 2.12737 20.7981C0.701323 18.7852 0.956532 16.0212 2.71282 14.2336C3.07308 13.858 3.10307 13.6778 2.81786 13.2271C1.99226 11.8902 1.78214 10.2979 2.24748 8.84075C2.69781 7.4287 3.68853 6.3321 5.05453 5.76127C5.62495 5.52092 6.15033 5.25053 6.27042 4.51445C6.27042 4.48441 6.2854 4.45437 6.33043 4.39428V4.36424C7.17105 2.7569 8.68718 1.69035 10.4285 1.51008C12.1697 1.32982 13.881 2.06589 15.0068 3.46292C15.187 3.68825 15.3971 3.80843 15.6973 3.8535C17.3636 4.09385 18.7596 5.10031 19.5101 6.63254C20.2757 8.16476 20.2456 9.89228 19.42 11.3945C19.2999 11.6198 19.1799 11.8752 19.2549 12.0855C19.33 12.2958 19.5701 12.431 19.7953 12.5361C21.1613 13.167 22.1671 14.3538 22.5724 15.8109C22.9777 17.253 22.7375 18.8002 21.9119 20.032C20.5759 22.0299 18.1441 22.8261 15.8624 22.0149C15.6523 21.9398 15.3971 21.8947 15.1119 22.075C14.6916 22.3454 14.2563 22.5857 13.851 22.8111C13.5207 22.9913 13.4006 23.2617 13.5357 23.5772C13.5958 23.7274 13.7008 23.8476 13.8359 23.9077C13.971 23.9678 14.1512 23.9678 14.3163 23.9077C14.5715 23.8025 14.8417 23.6974 15.0819 23.5321C15.4421 23.2767 15.8024 23.2767 16.2227 23.3669C18.8647 23.8926 21.0262 23.1115 22.6324 21.0535C23.6982 19.6865 24.1335 17.9891 23.8783 16.2916C23.6231 14.5641 22.6774 13.0318 21.2064 12.0104C20.741 11.6799 20.726 11.5447 20.8761 10.9889L20.9062 10.8537C21.0413 10.3429 21.1913 9.7721 21.2064 9.2163C21.2814 6.04669 19.315 3.50799 16.2077 2.7569C16.0126 2.71184 15.8024 2.59166 15.6823 2.45646C14.1662 0.819081 12.0797 0.067987 9.96312 0.398468C7.84657 0.728949 6.10527 2.08092 5.15958 4.09384C5.02448 4.36424 4.84437 4.5445 4.57417 4.6797C1.25674 6.18188 -0.109257 9.83219 1.39184 13.137C1.55697 13.4825 1.51192 13.7679 1.28676 14.0684C0.356073 15.3001 -0.0642294 16.7122 0.0258366 18.2595L0.0408623 18.2745Z"  />
<path d="M13.2062 23.7278C13.2362 23.8029 13.2962 23.878 13.3413 23.9381C13.3263 23.5926 13.2962 23.2471 13.2812 22.9016C13.1311 23.142 13.0861 23.4274 13.2062 23.7278Z"  />
<path d="M11.3589 23.0815C11.3739 23.412 11.4039 23.7575 11.4189 24.088C11.449 24.0279 11.494 23.9678 11.524 23.8927C11.6141 23.5923 11.539 23.3069 11.3739 23.0815H11.3589Z"  />
<path d="M23.788 23.202V23.3823H23.5928C22.8573 23.3222 22.1668 23.4424 21.5363 23.7278C20.0352 24.4038 19.1045 25.9661 19.2096 27.6185C19.2847 28.8953 19.8551 29.9318 20.8908 30.6829C21.4613 31.1035 22.0917 31.3439 22.7522 31.419C23.4727 31.4941 24.1482 31.404 24.7787 31.1486C24.8087 31.1486 24.8387 31.1186 24.8687 31.1186L24.9738 31.0885L25.0939 31.2087C25.5592 31.7495 26.1297 32.125 26.7902 32.3804L26.9103 32.4255L26.7902 34.7238C24.8087 34.6186 22.467 34.5586 19.6449 34.5586C17.3333 34.5586 15.3368 34.5886 13.5805 34.6637C13.3253 30.4275 13.0851 26.1914 12.8299 21.9552C12.8299 21.6999 12.89 21.5346 13.0701 21.3844C13.8207 20.7685 14.5712 20.1376 15.3218 19.5067L16.3275 18.6654C16.6877 18.365 16.7628 18.0195 16.5377 17.7341C16.4326 17.5989 16.3125 17.5238 16.1624 17.5088C15.9522 17.4937 15.7871 17.5688 15.592 17.7341C15.0516 18.1847 14.4962 18.6504 13.9558 19.1161L12.7549 20.1075L12.7248 19.7019L12.6648 18.5903C12.6198 17.8092 12.5748 17.013 12.5147 16.2319C12.4847 15.8413 12.5447 15.5409 12.7248 15.2705C12.89 15.0001 13.0401 14.6997 13.1902 14.4293C13.2652 14.2791 13.3403 14.1288 13.4153 13.9936L14.4961 11.9957C14.7513 11.5301 15.0065 11.0494 15.2467 10.5837C15.3518 10.3884 15.3668 10.1931 15.3218 10.0279C15.2767 9.89268 15.1867 9.7725 15.0366 9.69739C14.7213 9.53215 14.3911 9.65233 14.1959 10.0129C14.1359 10.133 14.0759 10.2382 14.0158 10.3584L12.3646 13.4529L12.2895 12.2361C12.2895 11.9507 12.2595 11.6653 12.2295 11.3798C12.1995 11.0343 11.9593 10.809 11.614 10.824C11.2838 10.8391 11.0586 11.0794 11.0586 11.4399C11.0586 11.5 11.0586 11.5451 11.0586 11.6052L11.3889 17.3135C11.3889 17.3135 11.3889 17.3585 11.3889 17.3736V17.7641L11.0887 17.5238L11.1487 17.3736L11.0586 17.4787C10.8485 17.3285 10.6683 17.1783 10.4732 17.0281L9.61756 16.3671C9.28731 16.1117 8.9571 15.8413 8.61185 15.586C8.49176 15.4958 8.35666 15.4508 8.23657 15.4508C8.05644 15.4508 7.89132 15.5259 7.77123 15.6761C7.57609 15.9315 7.62113 16.2619 7.87632 16.5023C7.93636 16.5624 8.01141 16.6074 8.10148 16.6826L8.91204 17.3135C9.64758 17.8843 10.3831 18.4702 11.1337 19.026C11.4039 19.2363 11.539 19.4616 11.554 19.8071C11.8092 24.2536 12.0643 28.7151 12.3345 33.1615L12.4247 34.6637C-0.00445986 35.2345 1.76683 37.2625 1.76683 37.2625L36.6674 37.5179C36.6674 37.5179 39.0242 35.3848 27.6158 34.7088L27.7509 32.5757H27.916C27.916 32.5757 28.0511 32.5757 28.1111 32.5607H28.1862C28.4264 32.5607 28.6365 32.5456 28.8467 32.5156C29.9124 32.3503 30.8131 31.8096 31.4886 30.8932C31.984 30.2172 32.2392 29.4812 32.2542 28.7151C32.2542 28.4296 32.3592 28.2043 32.5994 27.9339C33.41 27.0627 33.7853 26.0412 33.6802 24.8695C33.5751 23.6226 32.9897 22.6162 31.939 21.8651C31.8039 21.775 31.7138 21.6698 31.6387 21.5346L31.4736 21.1741C30.7681 19.7921 29.4021 18.9509 27.8409 18.9509C27.7959 18.9509 27.7509 18.9509 27.7058 18.9509C26.8052 18.9809 25.9946 19.2964 25.3041 19.8822C24.3284 20.6934 23.848 21.7449 23.848 23.0068C23.848 23.0518 23.848 23.0969 23.848 23.142L23.788 23.202ZM35.6317 36.8269L3.47806 36.6015C4.93413 36.1208 8.28161 35.52 15.9823 35.3697C18.2789 35.3998 21.071 35.3998 23.4427 35.3697C31.8339 35.55 34.671 36.3462 35.6317 36.8269ZM24.0732 24.2686H24.1332C24.2983 24.3137 24.4184 24.2986 24.5235 24.2085C24.6286 24.1184 24.6736 23.9682 24.6436 23.8179V23.6677C24.5986 23.4875 24.5686 23.3372 24.5686 23.157C24.5535 21.9702 25.0339 21.0389 26.0246 20.3629C26.6401 19.9423 27.3005 19.762 28.0211 19.8221C29.3871 19.9423 30.3178 20.6483 30.8431 21.9552C30.9482 22.2106 31.0983 22.3758 31.3085 22.5261C32.1341 23.0518 32.6444 23.7879 32.7946 24.7192C32.9447 25.6356 32.7495 26.4768 32.2092 27.1828C32.029 27.4232 31.8339 27.6185 31.6387 27.7837C31.4586 27.9339 31.3835 28.1142 31.3985 28.3395C31.4886 29.6314 30.9783 30.6228 29.8674 31.3589C29.3721 31.6894 28.8016 31.8546 28.1712 31.8546C28.0961 31.8546 28.0361 31.8546 27.961 31.8546H27.7959V31.6143L28.006 27.2279C28.006 27.1528 28.0361 27.0927 28.1111 27.0176C28.6515 26.5669 29.2069 26.1163 29.7473 25.6656C29.8074 25.6206 29.8374 25.5755 29.8824 25.5304C30.0325 25.3802 30.0325 25.1699 29.8974 25.0197C29.7623 24.8695 29.5522 24.8394 29.4021 24.9596C29.1469 25.1549 28.9067 25.3502 28.6665 25.5304L28.0661 26.0111L28.2462 21.9252C28.2462 21.805 28.2012 21.6848 28.0961 21.6097C27.991 21.5196 27.8409 21.5046 27.7208 21.5346C27.5407 21.5947 27.5107 21.7299 27.4957 21.9102C27.4356 22.6913 27.3756 23.4875 27.3306 24.2686L27.0604 29.0005L23.5628 26.9275C23.5628 26.9275 23.4127 26.8523 23.3376 26.8073C23.1575 26.7322 23.0074 26.8223 22.9173 26.9275C22.8273 27.0476 22.7972 27.2279 22.8723 27.333C22.9023 27.3631 22.9323 27.4082 22.9924 27.4382L23.3076 27.6335C23.7129 27.8889 24.1332 28.1442 24.5535 28.3996C25.3341 28.8653 26.1147 29.346 26.8952 29.8117L26.9853 29.8717V29.9919L26.9252 31.5842L26.6701 31.449C26.2047 31.1937 25.8295 30.8632 25.4842 30.4125C25.4392 30.3524 25.3941 30.2924 25.3491 30.2473C25.214 30.0971 25.1089 30.082 24.9138 30.1572C24.8387 30.1872 24.7637 30.2172 24.6886 30.2623C24.4785 30.3524 24.2833 30.4426 24.0882 30.5027C22.7972 30.8181 21.7014 30.5027 20.8008 29.5262C20.3054 29.0005 20.0352 28.3696 19.9902 27.6786C19.9151 26.582 20.2454 25.7107 21.011 24.9896C21.5063 24.524 22.0767 24.2536 22.7522 24.1484C23.1725 24.0883 23.5928 24.1184 23.9981 24.2085C24.0282 24.2085 24.0432 24.2085 24.0582 24.2085L24.0732 24.2686Z"  />
</svg>
