<svg width="51" height="32" viewBox="0 0 51 32" fill="none" xmlns="http://www.w3.org/2000/svg">
<path d="M48.5953 18.2839C47.9949 18.6745 47.4545 19.005 46.854 19.2604C43.2964 20.6874 39.6788 20.7776 36.0912 19.5308C33.6594 18.6745 31.9481 16.947 31.1525 14.5285C30.432 12.3653 30.5971 10.5627 31.6779 9.03049C32.5035 7.84376 33.6143 7.40813 35.0104 7.70857C35.866 7.88883 36.6165 8.29442 37.3821 8.9704C38.0576 9.57128 38.8082 9.63136 39.4987 9.13564C40.1591 8.65494 40.3543 7.85878 39.994 7.06263C39.1384 5.19992 37.9525 3.69773 36.4664 2.61616C33.4492 0.392925 29.8916 -0.358166 25.5985 0.287773C21.4855 0.918691 18.0479 3.08184 15.376 6.74717C14.7155 7.64848 14.2051 8.65494 13.6947 9.63136C13.3795 10.2322 13.0643 10.8481 12.719 11.434C10.9177 14.4834 9.17642 16.5114 7.07488 18.0436C5.55877 19.1402 3.80248 19.9063 1.67092 20.402C1.40072 20.4621 1.17555 20.6123 1.05546 20.8226C0.920364 21.0329 0.890343 21.3184 0.950387 21.5888C1.07047 22.0695 1.59586 22.3849 2.13626 22.2798C5.10844 21.6488 7.76538 20.2518 10.002 18.1187C12.1186 16.1208 13.9199 13.5521 15.6912 10.0219C16.787 7.84376 18.138 6.16132 19.8192 4.89948C24.0373 1.71485 28.6907 1.14402 33.6594 3.20201C34.9053 3.71275 36.0161 4.59904 36.9618 5.81581L37.1569 6.05616L36.8567 6.11625C36.6015 6.16131 36.4064 6.0862 36.2563 6.01109C36.2112 5.99607 36.1662 5.96603 36.1212 5.95101C35.4607 5.7407 34.8152 5.63555 34.2148 5.63555C32.2483 5.63555 30.5971 6.7021 29.6064 8.66996C28.7508 10.3674 28.5706 12.2301 29.066 14.213C29.9667 17.8483 32.3534 20.3269 36.1812 21.5737C38.568 22.3549 41.1799 22.5051 44.1671 22.0544C46.2236 21.739 48.07 21.0179 49.6911 19.8913C50.2916 19.4707 50.4567 18.9149 50.1265 18.4342C49.7812 17.9234 49.2408 17.8633 48.6254 18.2689L48.5953 18.2839Z"  />
<path d="M47.1998 27.5519C45.5185 25.9446 42.8616 25.9145 41.1353 27.5068C40.8651 27.7622 40.5949 28.0326 40.3397 28.303C40.1296 28.5283 39.9044 28.7537 39.6792 28.964C38.6285 29.9704 37.1274 29.9704 36.0766 28.964C35.8514 28.7537 35.6413 28.5283 35.4161 28.303C35.191 28.0627 34.9658 27.8373 34.7256 27.612C32.9693 25.9296 30.3274 25.8995 28.5561 27.5669C28.2859 27.8223 28.0457 28.0777 27.7905 28.3331C27.5954 28.5434 27.3853 28.7537 27.1751 28.9489C26.1093 29.9855 24.6082 29.9855 23.5424 28.9489C23.3173 28.7386 23.1071 28.5133 22.897 28.303C22.6718 28.0777 22.4616 27.8523 22.2365 27.627C20.4802 25.9145 17.8082 25.8995 16.0219 27.5669C15.7517 27.8223 15.5115 28.0777 15.2563 28.3331C15.0612 28.5283 14.8811 28.7236 14.6859 28.9189C13.6051 29.9855 12.089 29.9855 11.0082 28.9189C10.7831 28.7086 10.5729 28.4833 10.3477 28.2579C10.1226 28.0176 9.89742 27.7923 9.65724 27.5669C8.81662 26.7558 7.81089 26.3502 6.54996 26.3351C5.33407 26.3652 4.31332 26.7708 3.53275 27.5369C2.7822 28.273 2.04666 29.0691 1.34114 29.8202L1.2811 29.8803C0.815754 30.376 0.785727 30.9469 1.20604 31.3524C1.62634 31.758 2.19677 31.6979 2.67712 31.2172C3.00736 30.8717 3.3376 30.5262 3.68285 30.1657C4.0131 29.8202 4.34334 29.4597 4.68859 29.1142C5.22899 28.5584 5.88947 28.2579 6.56497 28.2579C7.25547 28.2579 7.90095 28.5434 8.45636 29.0992C8.62148 29.2644 8.80161 29.4447 8.96674 29.6249C9.20691 29.8803 9.4621 30.1357 9.71729 30.391C11.4586 32.0284 14.1005 32.0585 15.8718 30.4511C16.172 30.1807 16.4422 29.8803 16.7274 29.5949C16.8775 29.4447 17.0277 29.2794 17.1778 29.1292C17.7482 28.5584 18.4087 28.2579 19.0992 28.2579C19.7897 28.2579 20.4652 28.5734 21.0356 29.1593C21.1557 29.2944 21.2908 29.4146 21.4109 29.5498C21.6961 29.8352 21.9663 30.1357 22.2665 30.4061C23.9928 32.0284 26.6197 32.0585 28.376 30.4662C28.6762 30.1958 28.9614 29.8953 29.2466 29.6099C29.3817 29.4747 29.5168 29.3245 29.6519 29.1893C30.2523 28.5734 30.9278 28.2579 31.6183 28.2579C32.3088 28.2579 32.9994 28.5884 33.6148 29.2193L33.93 29.5348C34.2002 29.8202 34.4855 30.1206 34.7707 30.391C36.5119 32.0284 39.1539 32.0585 40.9252 30.4511C41.2104 30.1958 41.4956 29.8953 41.7508 29.6249C41.8709 29.5048 41.991 29.3696 42.111 29.2494C42.7565 28.5884 43.432 28.2579 44.1375 28.2579C44.843 28.2579 45.5186 28.5884 46.149 29.2344L46.6594 29.7601C47.1397 30.2558 47.6201 30.7516 48.1004 31.2323C48.5508 31.6979 49.1212 31.743 49.5415 31.3675C49.7366 31.1872 49.8417 30.9619 49.8567 30.7215C49.8567 30.4361 49.7366 30.1507 49.5115 29.8953C48.8059 29.1593 48.0254 28.318 47.1998 27.5369V27.5519Z"  />
</svg>
