<svg width="35" height="35" viewBox="0 0 35 35" fill="none" xmlns="http://www.w3.org/2000/svg">
<path d="M34.5251 33.4484H32.6624V21.7651H18.4942V10.9479H18.2302C18.5676 10.7864 18.8609 10.5516 19.0369 10.1993C19.0809 10.2434 19.1249 10.2727 19.1689 10.3021C19.4916 10.5369 19.9022 10.6543 20.3276 10.6837C20.7382 10.713 21.1636 10.6543 21.5303 10.5075C21.7649 10.4195 21.9849 10.2874 22.1609 10.1259C22.4689 10.4195 22.8943 10.5809 23.3196 10.6396C23.6276 10.6837 23.9503 10.6543 24.2436 10.5809C24.5516 10.5076 24.8303 10.3608 25.021 10.1553C25.197 9.97917 25.3143 9.74432 25.3436 9.48013C25.7836 9.34803 26.1796 8.99577 26.4436 8.54077C26.6196 8.24722 26.7517 7.90964 26.825 7.57206C26.8837 7.2198 26.8837 6.86755 26.7957 6.574C26.693 6.23642 26.5023 5.94286 26.1797 5.78141C26.1797 5.51721 26.077 5.29705 25.9303 5.09156C25.7103 4.79801 25.373 4.57786 24.9623 4.46044C24.581 4.34302 24.141 4.29898 23.6863 4.35769C23.0703 4.43108 22.4396 4.66592 21.9263 5.09156C21.6182 4.59253 21.1196 4.2256 20.5622 4.02012C20.2102 3.88802 19.8436 3.81464 19.4769 3.79996C19.1102 3.79996 18.7289 3.844 18.3915 3.96142C18.2009 4.02013 18.0249 4.10819 17.8635 4.21093C17.9369 4.299 18.0102 4.37237 18.0542 4.47511C18.0102 4.38705 17.9369 4.299 17.8635 4.21093C17.6582 4.34303 17.4675 4.50448 17.3062 4.69529C17.3502 4.73932 17.3795 4.76868 17.3942 4.81271C17.4235 4.87142 17.4235 4.91543 17.4089 4.97414C17.4089 5.03285 17.3502 5.10626 17.2915 5.17965C17.1889 5.28239 17.0275 5.37044 16.8369 5.44383C16.6902 5.48786 16.5289 5.51722 16.3382 5.51722C16.1329 5.51722 15.9715 5.69334 15.9715 5.89883V5.94286C16.0302 6.35383 15.9129 6.69141 15.7222 6.92624C15.6342 7.04366 15.5315 7.13173 15.4142 7.17576C15.3115 7.21979 15.1942 7.23447 15.0915 7.20512H15.0768C14.9302 7.16109 14.7835 7.04368 14.6515 6.82351C14.5488 6.64739 14.3288 6.58868 14.1382 6.69142C14.0942 6.72078 14.0502 6.75012 14.0208 6.79415C13.8595 7.01431 13.6248 7.19044 13.3315 7.29318C13.2875 7.30786 13.2288 7.32253 13.1848 7.33721C13.3168 7.42528 13.4195 7.52804 13.4928 7.63078C13.4195 7.52804 13.3168 7.42528 13.1848 7.33721C12.9062 7.42528 12.6128 7.46931 12.3195 7.45463C12.2755 7.45463 12.2461 7.43996 12.2021 7.43996C12.2168 7.55738 12.3048 7.67481 12.4368 7.71884C12.3048 7.67481 12.2315 7.57206 12.2021 7.43996C11.9088 7.41061 11.6301 7.32254 11.4101 7.16109C11.2341 7.02899 11.0875 6.86755 10.9995 6.64739C10.9261 6.45659 10.7061 6.35382 10.5154 6.44189C10.3688 6.5006 10.2808 6.64738 10.2808 6.79415C10.2514 8.17383 8.21276 8.12981 7.83142 8.12981H7.74341L5.95407 8.2032H5.92473C4.98605 8.21788 4.35537 7.51335 4.04737 6.6327C3.8567 6.0456 3.79803 5.41448 3.88603 4.85674C3.95937 4.31368 4.16471 3.84398 4.48738 3.57979C4.85405 3.28624 5.41138 3.24221 6.17406 3.62382C6.35006 3.71188 6.58474 3.6385 6.67274 3.46237C6.71674 3.3743 6.71673 3.28624 6.70207 3.21285C6.61407 2.80188 6.70207 2.49366 6.89274 2.2735C6.99541 2.15608 7.14208 2.06802 7.28874 2.00931C7.45008 1.9506 7.61142 1.93591 7.78742 1.95059C8.09543 1.99462 8.40342 2.15609 8.57942 2.49367C8.68209 2.6698 8.9021 2.74319 9.0781 2.65512C9.1661 2.61109 9.22477 2.53771 9.25411 2.44964C9.45944 1.90658 9.88477 1.5543 10.4128 1.37817C10.7061 1.27543 11.0288 1.2314 11.3661 1.24608C11.7035 1.24608 12.0261 1.31947 12.3341 1.43689L13.6542 2.69915C13.7128 2.88996 13.9328 2.99269 14.1235 2.93398C14.1968 2.90462 14.2555 2.87529 14.2848 2.81658C14.5928 2.44964 14.9008 2.25881 15.1795 2.2001C15.3848 2.17075 15.5902 2.20012 15.7662 2.28819C15.9569 2.39093 16.1329 2.55237 16.2649 2.75785C16.4849 3.09544 16.6022 3.55045 16.5289 4.00545C16.4995 4.19625 16.6315 4.37238 16.8075 4.41641C17.0422 4.4898 17.2035 4.57785 17.2915 4.6806C17.4529 4.48979 17.6435 4.32834 17.8489 4.19624C17.7169 4.04946 17.5262 3.91738 17.2769 3.81463C17.2915 3.28624 17.1302 2.75786 16.8662 2.34689C16.6609 2.03866 16.3969 1.78914 16.0889 1.62769C15.7662 1.46623 15.4142 1.39284 15.0328 1.46623C14.7248 1.52494 14.4022 1.67173 14.0942 1.93592C13.7568 1.37818 13.1995 0.981891 12.5835 0.747052C12.2021 0.600277 11.7915 0.526884 11.3808 0.512207C10.9701 0.512207 10.5595 0.556232 10.1781 0.688329C9.65011 0.864459 9.18077 1.18738 8.8581 1.64238C8.57943 1.39286 8.22743 1.24608 7.89009 1.20205C7.61142 1.17269 7.31808 1.20205 7.06874 1.29011C6.80474 1.37817 6.55541 1.53964 6.36474 1.7598C6.14473 2.00932 5.9834 2.33222 5.95407 2.69915C5.16206 2.44964 4.51671 2.58174 4.0327 2.97803C3.54869 3.37432 3.27003 4.00543 3.16736 4.72463C3.06469 5.39979 3.13803 6.14835 3.3727 6.82351V6.85288C3.65137 7.66014 4.16471 8.34998 4.89805 8.68756H4.17937V21.6918H2.97669V33.4044H0.835327V34.9161H34.5104V33.4484H34.5251ZM13.4928 8.7169C13.6248 8.55544 13.6982 8.36464 13.7128 8.17384C13.7128 8.10045 13.7128 8.01238 13.6835 7.93899C13.9328 7.83625 14.1675 7.70415 14.3582 7.5427C14.5342 7.71882 14.7395 7.82158 14.9595 7.88029H15.0035C15.2528 7.939 15.5168 7.90963 15.7662 7.82157C15.9862 7.73351 16.1915 7.58675 16.3529 7.38126L16.3822 7.3519C16.6315 7.05835 16.7929 6.64738 16.8075 6.1777C17.2769 6.10432 17.6582 5.89883 17.9075 5.64931C18.0689 5.48786 18.1715 5.29705 18.2155 5.09156C18.2302 4.98882 18.2449 4.88608 18.2155 4.79802C18.3475 4.70995 18.4942 4.62188 18.6556 4.56317C18.9196 4.47511 19.2129 4.4311 19.5062 4.44577C19.7996 4.44577 20.1076 4.51914 20.3716 4.60721C20.9142 4.81269 21.3689 5.19431 21.5596 5.73738C21.6182 5.9135 21.8089 6.00157 21.9849 5.94286C22.0436 5.92818 22.1023 5.88416 22.1316 5.84013C22.5569 5.32642 23.1876 5.04754 23.7889 4.98883C24.1556 4.9448 24.5076 4.98884 24.801 5.06222C25.0796 5.15029 25.2996 5.28237 25.417 5.4585C25.505 5.57592 25.549 5.73739 25.5197 5.91352C25.4903 6.08965 25.6076 6.25109 25.769 6.29513C25.989 6.36851 26.1063 6.52997 26.165 6.73545C26.2236 6.94094 26.2236 7.17578 26.165 7.42529C26.121 7.68949 26.0183 7.95367 25.8716 8.18851C25.6516 8.57012 25.329 8.84901 24.9916 8.84901C24.801 8.84901 24.6543 9.01046 24.669 9.18658V9.23061C24.6983 9.42142 24.6396 9.5682 24.537 9.67094C24.4196 9.78836 24.2583 9.87642 24.0676 9.92046C23.8623 9.97917 23.6276 9.99384 23.3929 9.96449C22.9969 9.92045 22.6303 9.74432 22.4543 9.4361C22.3663 9.27465 22.1609 9.21593 21.9996 9.31868C21.9556 9.34803 21.9263 9.3774 21.8969 9.42143C21.7649 9.61224 21.5303 9.77368 21.2663 9.87643C20.9876 9.99385 20.6502 10.0379 20.3422 10.0085C20.0342 9.99384 19.7556 9.90576 19.5209 9.74431C19.3596 9.62689 19.2276 9.48012 19.1542 9.28932C19.0809 9.11319 18.8902 9.03981 18.7142 9.09852C18.5822 9.15723 18.4942 9.27465 18.4942 9.42143C18.4649 10.669 16.6315 10.625 16.2942 10.625H16.2209L14.6075 10.6837H14.5928C14.1528 10.6837 13.7715 10.5222 13.4928 10.2434C13.1995 9.96449 12.9942 9.5682 12.8622 9.14255C13.1115 9.03981 13.3168 8.89302 13.4488 8.7169H13.4928ZM10.8821 7.61609C10.8821 7.61609 10.9848 7.68948 11.0288 7.73351C11.3955 7.9977 11.8501 8.12981 12.3195 8.15917C12.5541 8.17384 12.8035 8.15917 13.0381 8.11514C13.0381 8.0711 13.0381 8.02706 12.9941 7.96835C12.9941 7.96835 13.0381 8.0711 13.0381 8.11514C13.0381 8.11514 13.0088 8.23255 12.9648 8.29126C12.8622 8.42336 12.6715 8.54076 12.4221 8.59947C12.2461 8.64351 12.1435 8.81964 12.1728 8.99577C12.3048 9.65626 12.6128 10.2874 13.0675 10.7277C13.1555 10.8011 13.2435 10.8745 13.3315 10.9479H12.8768V21.7651H9.81144V8.67286H9.37143C9.97277 8.52609 10.5741 8.21786 10.8821 7.61609ZM5.66072 8.55544C5.66072 8.55544 5.69006 8.64351 5.71939 8.67286C5.71939 8.67286 5.66072 8.59948 5.66072 8.54077V8.55544ZM4.31137 33.4484C4.41404 33.2429 4.31137 33.0227 4.31137 32.7732V22.954C5.00072 22.8366 5.45539 22.2348 5.45539 21.5157V9.759H8.60876V21.5157C8.60876 22.3229 9.01944 22.9834 9.82611 22.9834H12.8915C13.6982 22.9834 14.1382 22.3229 14.1382 21.5157V12.0634H17.2475V21.5157C17.2475 22.3229 17.7022 22.9834 18.5089 22.9834H31.445V32.7732C31.445 33.0668 31.445 33.1548 31.3717 33.4484H4.31137Z" fill="#265D89"/>
</svg>
