<svg width="55" height="35" viewBox="0 0 55 35" fill="none" xmlns="http://www.w3.org/2000/svg">
<path d="M53.3402 4.65146C53.2801 4.48619 53.145 4.35094 52.9798 4.30586C50.7126 3.6147 48.3103 3.56963 46.0131 4.17064C43.7309 4.77166 41.6589 6.00373 40.0373 7.73164C39.6319 8.16738 39.2416 8.6482 38.8812 9.17408L38.5359 9.66992V9.05388C38.5659 7.01043 38.1906 5.28252 37.4098 3.79501C36.6741 2.39765 35.4579 1.30081 34.0015 0.684773C32.5451 0.068734 30.9085 -0.00639832 29.4071 0.444362C27.8906 0.895122 26.5693 1.87176 25.6835 3.17896C25.1279 4.00536 24.7526 4.96698 24.5874 5.97368L24.5424 6.22911L24.3172 6.12394C23.4013 5.68821 22.3953 5.46282 21.4043 5.46282C19.8278 5.46282 18.2813 6.01876 17.0651 7.01043C15.849 8.01713 14.9931 9.41449 14.6929 10.9621C14.3776 12.5097 14.6178 14.1324 15.3535 15.5298C16.7498 18.1592 19.4975 20.1877 23.5514 21.555L24.5574 21.9006L23.4914 21.9306C22.4704 21.9456 21.1941 22.0658 19.6176 22.2912L19.4074 22.3213V21.7503C19.4074 21.014 18.8218 20.4281 18.0861 20.4281H13.822C13.3866 20.4281 12.9812 20.6685 12.726 21.0591L12.6659 21.1493H0.0687256V22.3964H12.5007V32.8691H5.33883V34.1162H12.756L12.816 34.1913C13.0863 34.5218 13.4316 34.7022 13.822 34.7022H18.0861C18.8068 34.7022 19.4074 34.1011 19.4074 33.3799V32.0877L20.2933 32.268C23.0709 32.854 26.209 33.5151 29.7374 33.5151C31.0436 33.5151 32.3499 33.425 33.6111 33.2447C39.5268 32.4183 46.6137 27.0693 46.914 26.8439C47.4695 26.4382 48.3103 25.2662 47.5145 23.6585C46.7488 22.1109 45.2924 22.1259 44.5117 22.5016L38.686 25.1761V24.8906C38.686 24.7554 38.656 24.6202 38.641 24.4699C38.5058 23.5233 38.0704 23.0274 37.7101 22.757C37.59 22.6668 37.4699 22.6218 37.3347 22.5617L37.0494 22.4415L38.1155 21.2996L38.2206 21.3296C40.5478 21.9456 42.6499 21.9006 44.7068 21.3596C46.989 20.7586 49.061 19.5266 50.6826 17.7986C52.3042 16.0707 53.4153 13.9371 53.8807 11.6082C54.3462 9.27925 54.166 6.87521 53.3252 4.66648L53.3402 4.65146ZM18.1462 33.44H13.7319V21.6601H18.1462V33.44ZM16.6447 14.8386C16.0592 13.7418 15.879 12.4797 16.1192 11.2626C16.3595 10.0456 17.0201 8.94871 17.981 8.16739C18.942 7.38607 20.1431 6.95034 21.3743 6.95034C22.6205 6.95034 23.8217 7.38607 24.7826 8.16739C25.0078 8.36272 25.3381 8.39277 25.5934 8.25754C25.8636 8.12231 26.0138 7.83683 25.9838 7.53633C25.8787 6.30425 26.194 5.05714 26.8846 4.03542C27.5753 3.0137 28.6113 2.24741 29.7974 1.90182C30.9836 1.55624 32.2598 1.61633 33.4009 2.09714C34.542 2.57795 35.4879 3.43441 36.0735 4.53126C39.1215 10.2559 34.3619 19.1359 32.8304 21.7052L32.7703 21.8104H32.6502C29.6623 21.6301 19.6627 20.5933 16.6147 14.8537L16.6447 14.8386ZM30.6082 23.1176L28.266 23.4482L28.2059 23.4031C28.2059 23.4031 28.0858 23.2979 28.0107 23.2528L27.9206 23.1777C27.9206 23.1777 27.7855 23.0725 27.7255 23.0275L27.0948 22.5466L27.8756 22.6969C28.3711 22.787 28.8666 22.8772 29.317 22.9373L30.6232 23.1326L30.6082 23.1176ZM37.3948 24.6502C37.4548 25.101 37.3948 25.4465 37.2146 25.702C37.1245 25.8222 36.9894 25.9424 36.8242 26.0175L36.7191 26.0626C36.614 26.1077 36.5239 26.1227 36.4639 26.1377L28.2359 27.3848L28.4161 28.6169L36.539 27.3848C36.539 27.3848 36.614 27.3848 36.6741 27.3548L37.1996 27.1895C37.1996 27.1895 37.2747 27.1594 37.3347 27.1294L44.9921 23.6134C45.3224 23.4632 45.938 23.343 46.3584 24.1994C46.7488 24.9657 46.4936 25.5367 46.1482 25.8222C45.3975 26.3781 38.7461 31.2613 33.4009 31.9976C32.1097 32.1779 30.8785 32.253 29.7074 32.253C26.269 32.253 23.2661 31.622 20.5185 31.036L19.4825 30.8256L19.3774 23.5684L19.5425 23.5383C25.3531 22.7269 26.224 23.4031 27.1399 24.1393C27.3351 24.3046 27.5453 24.4549 27.7555 24.6051L27.9507 24.7403L28.1759 24.7103C30.1728 24.4549 34.6771 23.7787 36.0134 23.5834C36.0735 23.5834 36.1185 23.5834 36.1185 23.5834C36.2086 23.5684 36.6591 23.5533 36.9594 23.7937C37.1846 23.959 37.3197 24.2595 37.3798 24.6652L37.3948 24.6502ZM35.518 22.3964L34.0315 22.6218L34.2267 22.2762C34.6621 21.5399 35.503 20.0224 36.3588 18.039L36.629 17.408L36.7191 18.0841C36.8242 18.8805 37.0044 19.6618 37.2446 20.413L37.2747 20.5182L35.518 22.3814V22.3964ZM52.7696 11.3828C52.3492 13.5014 51.3432 15.4397 49.8568 17.0173C48.3854 18.58 46.4936 19.7069 44.4065 20.2628C43.4606 20.5182 42.4997 20.6384 41.5238 20.6384C40.8031 20.6384 40.0523 20.5633 39.3166 20.4281L38.9863 20.368L48.7007 10.0456C48.9109 9.82018 48.9109 9.45956 48.6707 9.23418C48.4455 9.02382 48.0851 9.03885 47.8599 9.26423L38.1455 19.5867L38.0554 19.2561C37.62 17.5432 37.575 15.8303 37.9203 14.1775C38.3557 12.059 39.3617 10.1057 40.8331 8.54302C42.3045 6.98039 44.1963 5.85348 46.2833 5.29754C48.2502 4.77166 50.3073 4.78668 52.2591 5.29754L52.3492 5.3276L52.3793 5.41775C53.0249 7.34099 53.145 9.39947 52.7546 11.3828H52.7696Z"  />
<path d="M15.9402 30.6602C15.3996 30.6602 14.9642 31.0959 14.9642 31.6368C14.9642 32.1777 15.3996 32.6135 15.9402 32.6135C16.4807 32.6135 16.9161 32.1777 16.9161 31.6368C16.9161 31.0959 16.4807 30.6602 15.9402 30.6602Z"  />
</svg>
