<svg width="45" height="32" viewBox="0 0 45 32" fill="none" xmlns="http://www.w3.org/2000/svg">
<path d="M44.1302 30.61H31.898L26.222 27.4397L24.3446 9.22495L22.4526 8.71125L20.4726 27.4837L15.2512 30.61H12.2151V24.6216L7.87374 22.5961H7.52173V8.76995C7.87373 8.57914 8.12307 8.09478 8.12307 7.50769C8.12307 7.46365 8.12306 7.43431 8.10839 7.40496L8.40175 7.47832L10.0298 4.88043L35.4914 11.0743L35.6968 19.5579L37.8968 20.0862C37.8968 20.0862 43.7342 13.4667 43.0595 3.83832L40.8595 3.30993L36.6501 7.37559L36.6208 7.44899L8.94441 0.712043C8.78308 0.66801 8.60708 0.65332 8.44575 0.65332C7.6244 0.65332 6.87639 1.123 6.65639 1.84219L6.01104 3.89705L6.0697 6.90591L6.36306 6.9793C6.31906 7.14075 6.28972 7.33156 6.28972 7.50769C6.28972 8.09478 6.53906 8.57914 6.89106 8.76995V22.5814L2.28567 22.5374V30.5953H0.2323V31.6668H44.1155V30.5953L44.1302 30.61ZM7.72706 2.17979C7.8004 1.93027 8.12306 1.75413 8.47506 1.75413C8.5484 1.75413 8.6364 1.75414 8.70974 1.78349L36.3861 8.52043L37.3834 8.76995L37.6328 7.97738L41.1968 4.52817L42.0035 4.71898C42.2235 11.8816 38.6888 17.2388 37.4714 18.8533L36.7821 18.6772L36.5914 11.0303V10.1937L35.7554 9.98818L10.2938 3.79429L9.53108 3.60348L9.10575 4.27865L7.90306 6.20139L7.16971 6.02527L7.12572 4.04381L7.72706 2.1651V2.17979ZM3.40035 23.6382H7.53639L11.1298 25.3114V30.566H3.40035V23.6382ZM17.1579 30.5807L21.8659 28.0268L21.9392 27.1021L23.3619 10.3551L24.8433 27.0434L24.9166 27.9974L29.962 30.5807H17.1579Z"  />
</svg>
