<svg width="38" height="36" viewBox="0 0 38 36" fill="none" xmlns="http://www.w3.org/2000/svg">
<path d="M36.502 35.07C37.6281 35.07 38.1086 34.2586 37.5681 33.2669L20.1362 1.21788C19.5957 0.226203 18.7099 0.226203 18.1844 1.21788L0.752539 33.2669C0.212017 34.2586 0.692491 35.07 1.81858 35.07H36.517H36.502ZM19.1303 1.98418L36.472 33.9581L2.04379 33.868L19.1303 1.98418Z" fill="#265D89"/>
<path d="M19.1151 25.5287C19.8808 25.5287 19.8808 24.9577 19.8808 24.2666L20.5114 12.1862C20.5114 11.4951 19.8958 10.9241 19.1151 10.9241C18.3343 10.9241 17.7188 11.4951 17.7188 12.1862L18.3193 24.2666C18.3193 24.9577 18.3193 25.5287 19.0851 25.5287H19.1151Z" fill="#265D89"/>
</svg>
