<svg width="33" height="36" viewBox="0 0 33 36" fill="none" xmlns="http://www.w3.org/2000/svg">
<path d="M31.6818 14.3198H28.2585C28.0483 14.3198 27.8832 14.4851 27.8832 14.6955C27.8832 14.9058 28.0483 15.0711 28.2585 15.0711H31.6818C31.892 15.0711 32.0572 14.9058 32.0572 14.6955C32.0572 14.4851 31.892 14.3198 31.6818 14.3198Z"  />
<path d="M30.4356 7.06268C30.3305 6.88237 30.1053 6.82232 29.9251 6.9275L26.9673 8.65536C26.7871 8.76054 26.727 8.98596 26.8321 9.16626C26.8922 9.28646 27.0273 9.3616 27.1624 9.3616C27.2225 9.3616 27.2976 9.34653 27.3426 9.31648L30.3005 7.58862C30.4806 7.48344 30.5407 7.25802 30.4356 7.07772V7.06268Z"  />
<path d="M22.6581 4.31274C22.7933 4.31274 22.9134 4.25272 22.9885 4.11749L24.6851 1.14241C24.7902 0.962107 24.7302 0.736779 24.55 0.631601C24.3698 0.526424 24.1446 0.586474 24.0395 0.766778L22.3429 3.74186C22.2378 3.92216 22.2978 4.14749 22.478 4.25267C22.538 4.28272 22.5981 4.29779 22.6581 4.29779V4.31274Z"  />
<path d="M1.53254 6.59715C1.35237 6.49198 1.12716 6.55212 1.02205 6.73242C0.916953 6.91273 0.977006 7.13805 1.15718 7.24323L4.11504 8.97118C4.11504 8.97118 4.23514 9.01621 4.31021 9.01621C4.44534 9.01621 4.56546 8.95612 4.64053 8.83591C4.74563 8.65561 4.68558 8.43028 4.5054 8.3251L1.54755 6.59715H1.53254Z"  />
<path d="M3.89022 14.3198H0.466915C0.256712 14.3198 0.0915527 14.4851 0.0915527 14.6955C0.0915527 14.9058 0.256712 15.0711 0.466915 15.0711H3.89022C4.10042 15.0711 4.26558 14.9058 4.26558 14.6955C4.26558 14.4851 4.10042 14.3198 3.89022 14.3198Z"  />
<path d="M20.7358 32.7561C20.7358 32.4556 20.6607 32.1851 20.5106 31.9597C20.7659 31.6893 20.916 31.3287 20.916 30.923C20.916 30.6375 20.8409 30.3521 20.6908 30.1267C20.946 29.8562 21.1112 29.4956 21.1112 29.0899C21.1112 28.6392 20.901 28.2335 20.5857 27.963C20.916 27.5123 21.0962 26.8812 21.2463 26.0398C21.4865 24.5673 21.8469 23.9663 22.8679 22.1933C23.2582 21.5322 23.7237 20.7208 24.3243 19.654C25.1651 18.1364 25.5855 16.5438 25.5855 14.906C25.5855 10.5637 22.6577 6.7773 18.4686 5.68045H18.4236C18.2734 5.63537 18.1233 5.60529 17.9732 5.56022L16.772 5.39496C16.6969 5.39496 16.6068 5.37992 16.5468 5.37992H16.0513C10.7962 5.3649 6.51709 9.64716 6.51709 14.906C6.51709 16.5438 6.93751 18.1364 7.77832 19.654C8.3789 20.7208 8.84433 21.5322 9.23471 22.1933C10.2707 23.9663 10.616 24.5522 10.8563 26.0247C10.9914 26.8661 11.1716 27.4972 11.5019 27.948C11.1716 28.2185 10.9764 28.6242 10.9764 29.0899C10.9764 29.4956 11.1416 29.8562 11.3968 30.1267C11.2617 30.3521 11.1716 30.6225 11.1716 30.923C11.1716 31.3287 11.3217 31.6893 11.577 31.9597C11.4419 32.1851 11.3518 32.4706 11.3518 32.7561C11.3518 33.5074 11.8773 34.1234 12.5679 34.2286C12.9883 35.2804 14.5649 35.8964 16.0363 35.8964C17.5077 35.8964 19.0992 35.2653 19.5046 34.2135C20.1803 34.1084 20.6908 33.4924 20.6908 32.7561H20.7358ZM19.6548 29.4505H19.4896V30.5774C19.6548 30.5774 19.8049 30.7277 19.8049 30.923C19.8049 31.1183 19.6698 31.2685 19.4896 31.2685H19.3395V32.3954C19.4896 32.3954 19.6097 32.5608 19.6097 32.7411C19.6097 32.9214 19.4896 33.0866 19.3395 33.0866H18.5287V33.6576C18.5287 34.1535 17.4026 34.7544 16.0813 34.7544C14.7601 34.7544 13.634 34.1535 13.634 33.6576V33.0866H12.7932C12.643 33.0866 12.5229 32.9214 12.5229 32.7411C12.5229 32.5608 12.643 32.3954 12.7932 32.3954V31.2685H12.643C12.4778 31.2685 12.3277 31.1183 12.3277 30.923C12.3277 30.7277 12.4628 30.5774 12.643 30.5774V29.4505H12.4778C12.2827 29.4505 12.1325 29.3002 12.1325 29.1049C12.1325 28.9096 12.2827 28.7593 12.4778 28.7593H13.5289V28.7293C13.5289 28.7293 13.679 28.7593 13.7841 28.7593H18.2134C18.3185 28.7593 18.4686 28.7443 18.6188 28.6993L19.6548 28.7593C19.85 28.7593 20.0001 28.9096 20.0001 29.1049C20.0001 29.3002 19.85 29.4505 19.6548 29.4505ZM14.9402 22.8995L14.2946 19.9846C14.4748 20.0447 14.67 20.0597 14.8802 20.0597C15.3156 20.0597 15.766 19.9245 16.1564 19.669C16.5167 19.9245 16.9522 20.0597 17.4176 20.0597C17.5978 20.0597 17.763 20.0446 17.9281 19.9995L17.7329 20.871C17.5077 21.9078 17.2675 23.1549 17.0272 24.402C16.8771 25.2134 16.7119 26.0097 16.5618 26.7609C16.2765 26.776 15.9762 26.8061 15.6909 26.8061C15.6309 26.4755 15.5708 26.1149 15.4958 25.7543C15.3456 24.9279 15.1955 24.0864 15.0603 23.4854L14.9252 22.8995H14.9402ZM19.2043 21.1866C19.3995 20.3151 19.5797 19.4437 19.7749 18.5722C19.7298 18.5422 19.6998 18.4971 19.6548 18.452C19.3545 18.1064 19.0692 17.7608 18.7689 17.4152C18.4987 17.7157 18.2134 18.0162 17.9431 18.3318C17.808 18.482 17.6128 18.5421 17.4176 18.5421C17.2224 18.5421 17.0272 18.467 16.8921 18.3318C16.6369 18.0463 16.3816 17.7457 16.1264 17.4603C15.9462 17.7007 15.766 17.9411 15.5859 18.1815C15.4207 18.3919 15.1504 18.5572 14.8802 18.5572C14.715 18.5572 14.5499 18.497 14.4147 18.3318C14.1445 18.0012 13.8742 17.6707 13.5889 17.3401C13.2286 17.6557 12.8532 17.9562 12.4929 18.2717C12.4628 18.3017 12.4328 18.3167 12.3878 18.3468C12.4028 18.4219 12.4178 18.482 12.4328 18.5572C12.8232 20.3151 13.1985 22.0581 13.5889 23.816C13.8141 24.8227 14.0694 26.4454 14.3096 27.6324H14.0544L11.8322 17.5355L11.4869 17.4603C11.3518 17.4302 11.2467 17.31 11.2166 17.2199C11.2166 17.1898 11.2016 17.1598 11.2917 17.0846L13.1985 15.477C13.2736 15.4019 13.3937 15.3568 13.4838 15.3718L14.7901 16.8894L15.8261 15.5521C15.9011 15.4469 16.0363 15.3718 16.2465 15.4168L17.5678 16.9043L18.9191 15.4168C18.9191 15.4168 19.0092 15.3568 19.0842 15.3568C19.1593 15.3568 19.2193 15.3868 19.2344 15.4018L20.7809 17.2049C20.8559 17.295 20.871 17.3701 20.8409 17.4753C20.7959 17.5955 20.6908 17.6857 20.6157 17.7158L20.2704 17.7909L18.1533 27.6024H17.9281C18.3485 25.604 18.814 23.0347 19.2194 21.1565L19.2043 21.1866ZM19.3094 27.5724L21.2163 18.6923C21.5316 18.512 21.7868 18.2115 21.9069 17.8509C22.0571 17.3701 21.967 16.8894 21.6367 16.4987L20.0902 14.6956C19.85 14.4252 19.5046 14.2599 19.1142 14.2599C18.6938 14.2599 18.3335 14.4102 18.0933 14.6806L17.5978 15.2365L17.1173 14.6956C16.8621 14.3951 16.5017 14.2449 16.1264 14.2599C15.691 14.2599 15.2405 14.5154 14.9552 14.891L14.7901 15.1163L14.4598 14.7107C14.2496 14.4553 13.9493 14.3049 13.619 14.2749C13.2286 14.2448 12.8082 14.3801 12.5079 14.6356L10.601 16.2432C10.2107 16.5738 10.0455 17.0396 10.1656 17.5054C10.2557 17.896 10.541 18.2416 10.9163 18.4369L12.9433 27.6024C12.4628 27.4972 12.2376 27.1366 12.0424 25.8895C11.7572 24.2067 11.3217 23.4705 10.2707 21.6674C9.88034 21.0063 9.4149 20.21 8.82933 19.1432C8.07861 17.7909 7.70325 16.3784 7.70325 14.936C7.70325 10.2932 11.4719 6.52186 16.1113 6.52186H16.5618L16.8621 6.55194H17.0723L17.838 6.68712C17.9732 6.71717 18.0933 6.74722 18.2284 6.77727H18.2584C21.952 7.75391 24.5345 11.1046 24.5345 14.9211C24.5345 16.3635 24.1591 17.7759 23.4084 19.1281C22.8228 20.1799 22.3574 20.9913 21.967 21.6373C20.916 23.4404 20.4806 24.1766 20.1953 25.8595C20.0001 27.0465 19.7899 27.4371 19.3545 27.5573L19.3094 27.5724Z"  />
</svg>
