<svg width="35" height="35" viewBox="0 0 35 35" fill="none" xmlns="http://www.w3.org/2000/svg">
<path d="M20.4859 1.98038C26.9122 2.80678 32.1222 7.84027 33.1582 14.2411H20.4859V1.98038ZM18.9845 0.357666V15.7286H34.8398C34.3894 7.28432 27.4977 0.552995 18.9845 0.357666Z"  />
<path d="M17.6186 0.312159L16.7778 0.357233C7.82916 0.913171 0.817383 8.39576 0.817383 17.3659C0.817383 26.336 8.45977 34.4197 17.8588 34.4197C27.2579 34.4197 34.585 27.1774 34.8853 17.9218L34.9153 17.1105H17.6186V0.297119V0.312159ZM33.2787 18.6881C32.6181 26.6966 25.9967 32.842 17.8739 32.842C9.34562 32.842 2.40892 25.9003 2.40892 17.3659C2.40892 9.49261 8.33966 2.89651 16.0571 1.99499V17.1856C16.0571 18.012 16.7328 18.6731 17.5435 18.6731H33.2787V18.6881Z"  />
</svg>
