<svg width="42" height="22" viewBox="0 0 42 22" fill="none" xmlns="http://www.w3.org/2000/svg">
<path d="M41.9572 15.933C41.9572 15.933 39.9404 11.1044 35.0304 9.83809C36.6995 8.97534 37.854 7.24985 37.854 5.24605C37.854 2.37951 35.5173 0.041744 32.652 0.041744C29.7867 0.041744 27.45 2.37951 27.45 5.24605C27.45 7.22202 28.5627 8.91968 30.1901 9.79634C28.2706 10.2416 26.8936 11.1739 25.9339 12.1341C26.1703 11.5357 26.3094 10.8956 26.3094 10.2277C26.3094 7.36117 23.9727 5.0234 21.1074 5.0234C18.2421 5.0234 15.9054 7.36117 15.9054 10.2277C15.9054 11.0626 16.1279 11.8558 16.4757 12.5516C15.502 11.4383 14.0138 10.2973 11.8161 9.79634C13.4713 8.91968 14.6119 7.2081 14.6119 5.20431C14.6119 2.33777 12.2751 0 9.40984 0C6.54456 0 4.20783 2.33777 4.20783 5.20431C4.20783 7.22202 5.36229 8.94751 7.04529 9.81025C2.07974 11.0348 0.0629092 15.8773 0.0490001 15.933C-0.0900911 16.2947 0.076819 16.6983 0.424547 16.8375C0.508002 16.8792 0.605369 16.8931 0.688824 16.8931C0.967006 16.8931 1.21737 16.7261 1.32864 16.4617C1.42601 16.2391 3.66537 10.9235 9.40984 10.9235C15.1543 10.9235 16.6704 15.3763 16.74 15.5712C16.7678 15.6407 16.7956 15.6825 16.8373 15.7381C14.431 16.754 12.5672 18.6047 11.8718 20.9285C11.7605 21.2764 11.9691 21.6521 12.3169 21.7495C12.6646 21.8609 13.0401 21.6521 13.1375 21.3042C14.0277 18.3125 17.2685 16.2113 21.024 16.2113C24.7794 16.2113 28.1733 18.4377 28.9661 21.4991C29.0495 21.7913 29.3138 22 29.6059 22C29.6615 22 29.7172 22 29.7728 21.9722C30.1205 21.8748 30.3431 21.5269 30.2457 21.1651C29.6198 18.7438 27.6725 16.7818 25.155 15.7242C25.1967 15.6686 25.2245 15.6268 25.2523 15.5573C25.3219 15.3624 26.8797 10.9095 32.5824 10.9095C38.2852 10.9095 40.5663 16.2113 40.6636 16.4478C40.7749 16.7122 41.0392 16.8792 41.3035 16.8792C41.3869 16.8792 41.4843 16.8653 41.5677 16.8235C41.9294 16.6844 42.0963 16.2808 41.9433 15.919L41.9572 15.933ZM5.62656 5.20431C5.62656 3.10311 7.33739 1.39152 9.43766 1.39152C11.5379 1.39152 13.2488 3.10311 13.2488 5.20431C13.2488 7.30551 11.5379 9.01707 9.43766 9.01707C7.33739 9.01707 5.62656 7.30551 5.62656 5.20431V5.20431ZM21.1074 6.41493C23.2077 6.41493 24.9185 8.12651 24.9185 10.2277C24.9185 12.3289 23.2077 14.0405 21.1074 14.0405C19.0071 14.0405 17.2963 12.3289 17.2963 10.2277C17.2963 8.12651 19.0071 6.41493 21.1074 6.41493ZM18.0752 15.1259C18.0752 15.1259 17.8944 14.6249 17.5049 13.957C17.9918 14.4301 18.562 14.7919 19.2019 15.0424C18.8263 15.112 18.4508 15.1815 18.0891 15.2789C18.0891 15.2233 18.0891 15.1676 18.0752 15.112V15.1259ZM22.9434 15.0702C23.4581 14.8754 23.9171 14.5971 24.3343 14.2631C24.0701 14.7641 23.9449 15.1119 23.9449 15.1259C23.931 15.1815 23.931 15.2372 23.931 15.2929C23.6111 15.2094 23.2911 15.1259 22.9573 15.0702H22.9434ZM28.8409 5.23212C28.8409 3.13092 30.5517 1.41936 32.652 1.41936C34.7523 1.41936 36.4631 3.13092 36.4631 5.23212C36.4631 7.33333 34.7523 9.04491 32.652 9.04491C30.5517 9.04491 28.8409 7.33333 28.8409 5.23212Z" fill="#67BEA1"/>
</svg>
