<svg width="24" height="30" viewBox="0 0 24 30" fill="none" xmlns="http://www.w3.org/2000/svg">
<path d="M11.6418 25.5372L11.0714 23.2088C11.0714 23.2088 11.1765 23.1487 11.2215 23.1036L12.7376 21.5564C13.5182 21.7817 14.3138 21.9169 15.1094 21.9169C15.7698 21.9169 16.4303 21.8418 17.0908 21.6916C18.667 21.316 20.108 20.5049 21.2489 19.3331C22.3897 18.1614 23.1853 16.7043 23.5606 15.097C23.9208 13.4896 23.8458 11.8222 23.3354 10.2599C23.2753 10.0647 23.1253 9.91444 22.9301 9.85436C21.399 9.32859 19.7478 9.23846 18.1716 9.61401C16.5955 9.98955 15.1544 10.8007 14.0136 11.9724C12.8727 13.1441 12.0771 14.6013 11.7019 16.2086C11.3716 17.6807 11.4167 19.198 11.837 20.64L10.7262 21.7667L9.51027 16.8245L9.22505 15.4876C10.3509 14.4961 11.2215 13.2493 11.7319 11.8372C12.2873 10.29 12.3924 8.60755 12.0471 7.00021C11.7019 5.39287 10.9063 3.90571 9.76545 2.734C8.62461 1.54728 7.16856 0.70605 5.57739 0.315482C5.38225 0.270417 5.17208 0.315479 5.00696 0.435654C3.71602 1.45714 2.74029 2.82413 2.18489 4.37138C1.62948 5.91863 1.52441 7.60108 1.86967 9.20842C2.21492 10.8158 3.01049 12.2879 4.15132 13.4746C5.20209 14.5562 6.50805 15.3373 7.94911 15.773L8.23432 17.1249L10.3659 25.8226L11.6418 25.5372ZM5.08202 12.5733C4.10631 11.5669 3.43081 10.305 3.13059 8.923C2.83037 7.54099 2.92042 6.12894 3.40077 4.80701C3.83609 3.59024 4.57164 2.49365 5.54736 1.65243C6.79327 2.01295 7.90409 2.70396 8.80475 3.63531C9.78046 4.64177 10.456 5.90361 10.7562 7.28562C11.0564 8.65261 10.9663 10.0797 10.486 11.4166C10.1407 12.3931 9.58532 13.2793 8.87981 14.0304L6.9584 5.16754C6.88334 4.82204 6.53808 4.59671 6.19282 4.67182C5.84757 4.74693 5.6224 5.09243 5.69746 5.43793L7.61889 14.3158C6.67319 13.9253 5.80255 13.3545 5.08202 12.6034V12.5733ZM22.2997 14.8116C21.9844 16.1786 21.3089 17.4254 20.3332 18.4318C19.3575 19.4233 18.1266 20.1143 16.7906 20.4448C15.7999 20.6851 14.7791 20.7001 13.7734 20.5049L20.093 14.0755C20.3482 13.8201 20.3332 13.4145 20.093 13.1592C19.8378 12.9038 19.4325 12.9188 19.1774 13.1592L12.8877 19.5585C12.7076 18.552 12.7226 17.5005 12.9478 16.494C13.263 15.127 13.9385 13.8802 14.9142 12.8738C15.89 11.8823 17.1058 11.1913 18.4568 10.8608C19.6877 10.5604 20.9787 10.6055 22.1946 10.966C22.5548 12.2128 22.5849 13.5197 22.2997 14.7965V14.8116Z"  />
<path d="M11.3108 26.4085C15.4838 26.4085 19.1015 27.3548 20.8878 28.9772L1.92889 29.0223C3.30991 27.0394 7.13771 26.4085 11.3108 26.4085ZM11.3108 25.3269C5.15626 25.3269 0.172607 27.3849 0.172607 29.9086H22.4489C22.4489 27.3849 17.4653 25.3269 11.3108 25.3269Z"  />
</svg>
