<svg width="38" height="39" viewBox="0 0 38 39" fill="none" xmlns="http://www.w3.org/2000/svg">
<path d="M26.4167 34.5721C26.3566 33.9711 25.9963 33.4152 25.4107 33.0846C25.2005 32.9644 25.1555 32.8292 25.1555 32.6038C25.1555 32.0178 25.1555 31.4469 25.1555 30.8609C25.1555 29.9443 25.1855 29.0428 25.1104 28.1263C25.0654 27.5102 24.5399 27.0444 23.9243 27.0444C22.9183 27.0444 21.8973 27.0444 20.8763 27.0444C19.9304 27.0444 19.9454 27.0444 19.9454 28.006C19.9454 28.3065 20.0205 28.4268 20.3358 28.4117C21.2217 28.3967 22.1226 28.4117 23.0234 28.4117C23.6841 28.4117 23.8492 28.6822 23.7892 29.4936C23.7291 30.3951 23.6991 31.3116 23.7892 32.2282C23.7892 32.3333 23.8042 32.4235 23.8042 32.4986C23.8042 32.6339 23.7892 32.739 23.7441 32.8292C23.7441 32.8593 23.7141 32.8742 23.7141 32.8893C23.654 32.9794 23.594 33.0546 23.4739 33.1147C23.0685 33.3551 22.7982 33.7006 22.6481 34.1063C22.4979 34.512 22.4829 34.9628 22.6331 35.3985C22.9033 36.2249 23.7591 36.8259 24.5849 36.7508C25.5158 36.6757 26.1915 36.0747 26.4017 35.1732C26.4467 34.9778 26.4618 34.7674 26.4317 34.5721H26.4167Z"  />
<path d="M19.9453 25.4967C19.9303 25.7672 20.0504 25.8273 20.2906 25.8273C21.2816 25.8273 22.2876 25.8273 23.2785 25.8273C24.2695 25.8273 25.2755 25.8273 26.2664 25.8273C26.7319 25.8273 27.0472 25.5568 27.0472 25.1662C27.0622 24.7755 26.7319 24.475 26.2664 24.46C24.2695 24.46 22.2725 24.46 20.2906 24.46C20.0504 24.46 19.9153 24.5201 19.9453 24.7905C19.9603 25.0309 19.9603 25.2563 19.9453 25.4967Z"  />
<path d="M17.558 1.87705C17.558 1.87705 17.558 1.98221 17.558 2.04231C17.558 2.65835 17.558 3.27441 17.558 3.89044C17.558 4.49146 17.558 5.09249 17.558 5.6935V5.75357C17.558 5.87378 17.558 5.99399 17.558 6.09917C16.3269 6.1743 15.0056 6.51989 13.6393 7.09085C9.05984 9.05917 6.35722 12.515 5.60649 17.3832C4.51043 24.4001 9.13492 30.9962 16.1317 32.4086C16.5971 32.4987 17.0325 32.5438 17.468 32.5889H17.6331C17.6331 34.0313 17.6331 35.4437 17.6331 36.8561C17.3328 36.811 17.1677 36.7809 17.0776 36.7659C17.0475 36.6758 17.0175 36.5105 16.9725 36.1949L16.8824 35.669C16.8073 35.2333 16.7473 34.7976 16.6872 34.3618L16.5971 33.5355L15.7863 33.3702C14.1497 33.0546 12.6033 32.4236 11.1919 31.522C10.8916 31.3267 10.5913 31.2366 10.291 31.2366C9.9457 31.2366 9.61537 31.3568 9.31508 31.5821C8.74452 32.0179 8.14396 32.4386 7.54338 32.8593C6.64251 32.0179 5.89177 31.2666 5.23113 30.5454C5.66655 29.9294 6.10198 29.3133 6.55241 28.7123C6.89775 28.2465 7.13799 27.5103 6.32721 26.6088C5.47138 25.6471 4.94586 24.385 4.85577 23.0478C4.7807 22.0411 4.31526 21.4851 3.45943 21.3649C2.81381 21.2748 2.15316 21.1696 1.50754 21.0494C1.41745 21.0343 1.3574 21.0193 1.32737 21.0043C1.32737 20.9592 1.29735 20.8991 1.28233 20.7789C1.28233 20.7038 1.26732 20.6437 1.23729 20.5686V18.0744C1.25231 17.9692 1.28232 17.864 1.29734 17.7288C2.01804 17.5935 2.73873 17.4734 3.45943 17.3682C3.92488 17.2931 4.73566 17.0076 4.84076 15.8356C4.96088 14.5134 5.53142 13.1761 6.47734 11.9741C7.168 11.1026 6.82267 10.3814 6.56742 10.0358C6.11699 9.43479 5.68158 8.81875 5.24616 8.20271C5.95184 7.43642 6.71757 6.67011 7.55838 5.88879C8.33914 6.42971 8.99977 6.91054 9.61536 7.3613L10.246 7.84212L10.9066 7.40637C12.348 6.45977 13.8945 5.79866 15.5011 5.43805C16.1767 5.2878 16.6121 4.80697 16.7172 4.10078C16.7623 3.78524 16.8223 3.46973 16.8674 3.13918C16.9124 2.80862 16.9725 2.4931 17.0175 2.16254C17.0325 2.02731 17.0626 1.96719 17.0626 1.95216C17.0926 1.95216 17.1527 1.92211 17.3028 1.90709C17.3929 1.90709 17.483 1.9071 17.558 1.87705ZM17.9334 0.720072C17.9334 0.720072 17.8734 0.720072 17.8433 0.720072C17.6331 0.720072 17.4229 0.765161 17.2127 0.780187C16.4019 0.825263 15.9965 1.20092 15.8764 1.98224C15.7713 2.62833 15.6662 3.27439 15.5761 3.92048C15.5461 4.13083 15.456 4.26609 15.2308 4.32619C13.4441 4.71685 11.7775 5.43804 10.246 6.45977C9.40518 5.8287 8.54933 5.22769 7.69351 4.62667C7.61844 4.5816 7.54338 4.55156 7.45329 4.55156C7.34819 4.55156 7.2581 4.58162 7.16801 4.65675C6.07196 5.66345 4.99091 6.73023 3.99995 7.82708C3.86482 7.97733 3.8498 8.21774 3.96992 8.39805C4.51044 9.16434 5.05096 9.94566 5.60649 10.6969C5.75664 10.8923 5.72663 11.0275 5.53144 11.2679C4.52547 12.5601 3.81978 14.0927 3.66963 15.7304C3.6396 16.1061 3.5345 16.2112 3.24923 16.2563C2.27329 16.3915 1.29735 16.5718 0.321406 16.7521C0.156246 16.7822 0.0511458 16.9625 0.111204 17.1278C0.186276 17.4133 0.111206 17.6837 0.0661621 17.9541C0.0661621 18.8707 0.0661621 19.7872 0.0661621 20.6888C0.0811766 20.7639 0.111204 20.824 0.111204 20.8991C0.201291 21.6654 0.486566 21.996 1.23729 22.1462C1.89793 22.2664 2.57356 22.3866 3.2342 22.4768C3.5495 22.5219 3.62459 22.6721 3.66963 23.1229C3.77473 24.6855 4.39033 26.1881 5.42633 27.36C5.7116 27.6756 5.75665 27.8258 5.59149 28.0512C5.02094 28.8175 4.48041 29.5988 3.92488 30.3801C3.81978 30.5304 3.8348 30.7407 3.95491 30.876C4.96088 32.0029 6.05694 33.0696 7.16801 34.1064C7.24309 34.1665 7.33317 34.2116 7.42326 34.2116C7.49833 34.2116 7.57339 34.1815 7.64847 34.1365C8.41421 33.5956 9.19496 33.0697 9.94568 32.4987C10.0508 32.4236 10.1409 32.3785 10.231 32.3785C10.321 32.3785 10.4111 32.4236 10.5312 32.4837C12.0627 33.4603 13.7293 34.1214 15.5161 34.482C15.5911 35.1131 15.6962 35.7442 15.7863 36.3602C15.9815 37.6524 16.1467 37.8177 17.4529 37.983C17.543 37.983 17.6181 38.013 17.7082 38.013C17.7683 38.013 17.8133 38.013 17.8583 38.013C18.4439 38.013 18.6841 37.7426 18.6841 37.0965C18.6841 35.2934 18.6841 33.4904 18.6841 31.6873C18.6841 31.6423 18.6541 31.5972 18.6091 31.5972C17.8433 31.462 17.0475 31.4469 16.2818 31.2967C9.88563 30.0045 5.63653 24.0244 6.6425 17.5485C7.34818 13.0108 9.90065 9.88555 14.0146 8.11256C15.2308 7.58668 16.522 7.22609 17.8433 7.19604C18.6541 7.18101 18.6241 6.74526 18.594 5.67846C18.594 4.47644 18.6241 3.27442 18.6241 2.02732C18.6841 1.06569 18.549 0.705078 17.8733 0.705078L17.9334 0.720072Z"  />
<path d="M31.5819 24.8954C31.5218 24.4447 31.5969 23.8737 31.4768 23.3779C31.4168 21.9655 29.9303 21.8603 27.8583 21.9054C24.7203 21.8453 24.0897 21.9054 21.0568 21.9054C20.6213 21.9054 20.5913 21.9504 19.9307 21.9504C19.9307 22.2359 19.9307 22.4914 19.9307 22.7468C19.9307 23.483 19.9307 23.1525 21.4621 23.3027C23.6993 23.1975 25.6662 23.3027 28.9394 23.2727C30.0655 23.1825 30.2756 23.423 30.1705 24.61C30.1105 25.2711 30.1105 25.9322 30.1856 26.5933C30.2306 26.9839 30.1856 27.1793 29.8853 27.3445C29.1045 27.7953 28.7742 28.5316 28.9394 29.4481C28.9394 29.4932 28.9694 29.5383 28.9844 29.5833C30.0204 31.747 32.2125 31.146 32.708 29.6434C33.0083 28.7569 32.648 27.8254 31.8071 27.3295C31.5669 27.1943 31.5068 27.029 31.5519 26.6985C31.6269 26.1125 31.642 25.4964 31.5669 24.9104L31.5819 24.8954Z"  />
<path d="M29.9445 11.433C30.1847 11.5682 30.2298 11.7185 30.2148 12.004C30.1697 12.7252 30.1397 13.4464 30.1998 14.1827C30.2298 14.7085 30.2148 15.0391 30.0947 15.2344C29.9595 15.4297 29.7193 15.5049 29.3139 15.5049H20.5154C20.4103 15.5049 20.2902 15.4748 20.1851 15.5049C20.14 15.5199 20.08 15.565 20.0349 15.61C19.9899 15.6401 19.9599 15.6852 19.9599 15.7152C19.9299 16.0608 19.9599 16.4214 19.9599 16.8121C20.1701 16.8121 20.3502 16.8421 20.5304 16.8421C23.4282 16.8421 26.326 16.8421 29.2088 16.8421C29.404 16.8421 29.5992 16.8421 29.7944 16.8121C30.3199 16.752 30.7703 16.4965 31.0856 16.1209C31.3409 15.8204 31.506 15.4598 31.521 15.0391C31.5661 14.0324 31.5511 13.0257 31.5511 12.004C31.5511 11.8687 31.5661 11.7485 31.6261 11.6434C31.6712 11.5382 31.7613 11.463 31.8964 11.3879C32.0616 11.2827 32.2117 11.1776 32.3318 11.0424C32.7072 10.6667 32.8723 10.1559 32.8273 9.5849C32.7522 8.60825 32.0165 7.88702 31.0256 7.78184C30.5901 7.73676 30.1697 7.85698 29.8094 8.08236C29.449 8.32277 29.1638 8.66833 29.0286 9.08904C28.7283 10.0056 29.0737 10.9371 29.9445 11.433Z"  />
<path d="M34.7492 20.8537C35.2297 21.2744 35.8904 21.4246 36.521 21.2443C37.6771 20.9288 38.2927 19.7268 37.7672 18.4647C37.7071 18.3294 37.632 18.2092 37.5269 18.104C36.4909 17.0372 34.9595 17.2776 34.3288 18.3895C34.1937 18.6299 34.0286 18.69 33.7733 18.69C31.5362 18.69 29.314 18.69 27.0768 18.69C24.8397 18.69 22.8428 18.69 20.7107 18.69C20.1802 18.69 19.9149 18.9605 19.9149 19.5014C19.9149 19.7117 19.9149 19.8169 19.96 19.8921C20.005 20.0273 20.1251 20.0423 20.4855 20.0423C24.9148 20.0423 29.329 20.0423 33.7583 20.0423C34.0135 20.0423 34.1637 20.1024 34.2988 20.3278C34.4039 20.5382 34.5541 20.7034 34.7042 20.8387L34.7492 20.8537Z"  />
<path d="M20.3057 11.7034C21.1765 11.7034 22.0624 11.7034 22.9332 11.7034C24.3446 11.7034 25.1404 10.9071 25.1404 9.47967C25.1404 8.3678 25.1404 7.25593 25.1404 6.15908C25.1404 5.91868 25.2004 5.78342 25.4257 5.66322C26.0412 5.31764 26.3715 4.77673 26.4166 4.07054C26.4767 3.12394 25.801 2.25248 24.9001 2.05715C24.6599 2.01207 24.4197 1.99706 24.1945 2.02711C23.5038 2.11727 22.9032 2.56801 22.648 3.22912C22.2876 4.13064 22.6179 5.13735 23.4738 5.63319C23.729 5.78344 23.8191 5.9337 23.8041 6.20416C23.7891 6.7601 23.8041 7.31601 23.8041 7.87195C23.8041 8.42789 23.8041 8.9538 23.8041 9.49471C23.8041 10.1558 23.6239 10.3361 22.9482 10.3361C22.0474 10.3361 21.1315 10.3361 20.2306 10.3361C20.2306 10.3361 20.0955 10.3962 20.0805 10.4713C19.8703 11.5682 19.9153 11.7034 20.3357 11.7034H20.3057Z"  />
<path d="M23.2937 12.9204C22.1826 12.9204 21.0715 12.9204 19.9454 12.9204C19.9454 13.1608 19.9454 13.3711 19.9454 13.5364C19.9454 13.8219 19.9454 14.0173 19.9905 14.1375C19.9905 14.1525 19.9905 14.1675 20.0055 14.1825C20.0055 14.1976 20.0055 14.2126 20.0355 14.2276C20.2457 14.5582 20.9664 14.2877 23.3537 14.3328H25.666C25.9062 14.2426 26.1614 14.2877 26.4017 14.2576C26.5969 14.2276 26.762 14.1374 26.8821 14.0172C26.9872 13.897 27.0623 13.7468 27.0473 13.5815C27.0473 13.2209 26.747 12.9204 26.3416 12.9204C25.3206 12.9204 24.2996 12.9204 23.2787 12.9204H23.2937Z"  />
<path d="M9.04456 19.3663C9.04456 29.3732 18.4887 29.4784 18.4887 29.4784V9.26929C18.4887 9.26929 9.04456 9.35944 9.04456 19.3663ZM16.9872 10.9522V27.7956C14.645 27.3148 10.546 25.5868 10.546 19.3663C10.546 13.1458 14.645 11.418 16.9872 10.9522Z"  />
</svg>
