<svg width="30" height="28" viewBox="0 0 30 28" fill="none" xmlns="http://www.w3.org/2000/svg">
<path d="M0.882422 14.9073C1.16632 15.0969 1.50184 15.2154 1.85026 15.251L7.07657 15.7844L13.2062 21.4024L13.7869 26.2026C13.8256 26.5226 13.9547 26.8308 14.1482 27.0916C14.3547 27.3523 14.6257 27.5656 14.9483 27.7079C15.2193 27.8264 15.529 27.8975 15.8516 27.8975C15.8903 27.8975 15.929 27.8975 15.9677 27.8975C16.3162 27.8738 16.6646 27.779 16.9485 27.6012L23.9298 23.524C24.1879 23.3699 24.4202 23.1566 24.5879 22.9077C24.7557 22.6588 24.846 22.3862 24.8847 22.0899L25.5041 15.7725C30.2659 10.7234 30.1498 4.56018 29.8788 2.166C29.8271 1.73931 29.6207 1.32448 29.2852 1.01632C28.9496 0.708156 28.5109 0.518491 28.0463 0.471082C25.4009 0.198477 18.5874 0.044425 13.0771 4.50092L6.32811 5.06981C6.0184 5.09352 5.7087 5.18835 5.4377 5.34243C5.16671 5.48466 4.94733 5.69801 4.76667 5.94691L0.327529 12.359C0.146867 12.6316 0.0307267 12.9398 0.00491771 13.2598C-0.0208912 13.5798 0.0565326 13.8999 0.198482 14.1962C0.353335 14.4925 0.585619 14.7414 0.856613 14.9191L0.882422 14.9073ZM23.0781 21.9476C23.0781 21.9476 23.0652 22.0187 23.0523 22.0424C23.0265 22.078 23.0007 22.1017 22.962 22.1254L15.9807 26.2026C15.9807 26.2026 15.9032 26.2382 15.8516 26.2382C15.8 26.2382 15.7613 26.2382 15.7226 26.2145C15.6838 26.2026 15.6451 26.1671 15.6193 26.1315C15.5935 26.096 15.5806 26.0604 15.5806 26.0249L15.0515 21.6158C18.6519 20.6083 21.4134 19.1979 23.5169 17.5741L23.091 21.9358L23.0781 21.9476ZM27.8528 2.11858C27.9302 2.11858 27.9818 2.16599 28.0076 2.18969C28.0463 2.22525 28.0721 2.28451 28.085 2.33191C28.4464 5.53206 28.5109 16.2466 14.3418 20.0987L8.52187 14.7532C12.6255 1.62079 24.3557 1.76301 27.8657 2.11858H27.8528ZM1.86316 13.2361L6.3023 6.82398C6.3023 6.82398 6.35392 6.76472 6.37972 6.75287C6.41844 6.72916 6.45715 6.71731 6.48296 6.71731L11.1286 6.32616C9.38647 8.24625 7.87665 10.7827 6.81848 14.0895L2.03092 13.6035C2.03092 13.6035 1.94058 13.5798 1.90187 13.5561C1.86316 13.5324 1.83735 13.5087 1.82445 13.4613C1.81154 13.4258 1.79864 13.3902 1.79864 13.3547C1.79864 13.3191 1.81154 13.2717 1.83735 13.2361H1.86316Z" />
</svg>
