<svg width="52" height="39" viewBox="0 0 52 39" fill="none" xmlns="http://www.w3.org/2000/svg">
<path d="M31.2308 20.8699L36.8012 9.7962L35.1946 8.98486L29.6243 20.0585L31.2308 20.8699Z" fill="#265D89"/>
<path d="M10.0155 19.5926C10.9013 20.9299 12.4028 21.8013 14.1145 21.8013C16.8471 21.8013 19.0542 19.5475 19.0542 16.7678C19.0542 15.7311 18.7389 14.7544 18.2134 13.9581C18.0332 13.6876 17.8381 13.4472 17.6128 13.2068C17.1624 12.7561 16.6369 12.3804 16.0363 12.125C15.4357 11.8695 14.7901 11.7344 14.1145 11.7344C11.3818 11.7344 9.17468 13.9881 9.17468 16.7678C9.17468 17.2937 9.24977 17.7895 9.39991 18.2704C9.55006 18.7512 9.76024 19.1869 10.0155 19.5926ZM16.9522 14.7995C17.3276 15.3554 17.5378 16.0466 17.5378 16.7678C17.5378 18.7061 15.9913 20.2987 14.0994 20.2987C13.649 20.2987 13.1986 20.2086 12.7932 20.0283C12.583 19.9381 12.3878 19.833 12.2076 19.7128C12.0274 19.5926 11.8473 19.4423 11.6821 19.277C11.0215 18.6159 10.6611 17.7144 10.6611 16.7678C10.6611 14.8296 12.2076 13.2369 14.0994 13.2369C15.2856 13.2369 16.3366 13.8529 16.9522 14.7995Z" fill="#265D89"/>
<path d="M0.677246 27.9621H7.67398V34.2727L9.53578 36.1359L9.47574 38.4798H19.085V30.3661C19.085 28.9537 19.2501 28.2776 19.4003 27.9621H51.1259V0.31543H0.677246V27.9621ZM17.8238 27.9621C17.5836 28.8636 17.5836 29.8552 17.5836 30.3661V36.9773H11.0222V36.1809C11.0523 35.7752 10.9021 35.3696 10.6018 35.0841L9.17543 33.6567V26.715C9.17543 26.5346 9.22048 26.3544 9.28054 26.159C9.49074 25.3927 10.0463 24.6265 10.8571 24.1306C12.0432 23.4094 12.6438 23.2892 14.1002 23.2892C15.5566 23.2892 16.9229 23.6798 18.1541 24.4311C18.1992 24.4611 18.2442 24.4912 18.3042 24.5063C18.9649 24.8068 20.7366 25.528 22.9437 25.528C23.6043 25.528 24.25 25.4529 24.8506 25.3326C24.6404 25.4529 24.4151 25.558 24.2049 25.6481C23.5743 25.9186 22.9437 26.0689 22.3882 26.159C21.8777 26.2341 21.4272 26.2642 21.0669 26.2642C21.4272 26.2642 21.8927 26.2341 22.3882 26.159H19.6856C18.6045 26.159 18.079 27.0005 17.8238 27.9621ZM2.47898 2.11849H49.3242V26.159H26.382C28.2589 24.9269 30.0156 23.1089 30.7963 21.9519L28.394 21.0504C27.0577 23.3342 24.9256 24.0405 22.9437 24.0405C21.3672 24.0405 19.8808 23.6047 18.9348 23.154C17.4784 22.2675 15.8118 21.8016 14.1002 21.8016C12.3885 21.8016 11.5327 21.9669 10.0763 22.8534C8.81509 23.6197 7.94424 24.8668 7.71902 26.159H2.46395V2.11849H2.47898Z" fill="#265D89"/>
</svg>
