<svg width="54" height="34" viewBox="0 0 54 34" fill="none" xmlns="http://www.w3.org/2000/svg">
<path d="M29.4034 19.3841C29.3583 19.2939 29.3133 19.2038 29.2682 19.1137C29.1782 19.1437 29.1031 19.1738 29.0131 19.1888C28.6978 19.2789 28.4126 19.369 28.2475 19.5493C28.0674 19.7446 27.9473 20.03 27.8122 20.3154C27.7221 20.5407 27.617 20.7661 27.4819 20.9764C27.0466 21.6373 26.6713 21.9378 26.2811 21.9378C25.8758 21.9378 25.4855 21.6073 25.0501 20.8862C24.915 20.6609 24.78 20.4356 24.6749 20.1952C23.1588 16.5449 22.8436 12.459 23.6992 7.71208C23.9244 6.43522 24.4197 5.05321 25.2152 3.47592C25.5605 2.78491 25.9659 2.61967 26.2361 2.61967C26.5213 2.61967 26.9865 2.75487 27.4669 3.52099C27.602 3.74631 27.7071 3.98666 27.8122 4.21199C27.9473 4.52745 28.0824 4.82789 28.2926 5.06824C28.5027 5.32361 29.0431 5.53391 29.1482 5.48885C29.4184 5.30858 29.6885 4.75277 29.6285 4.54247C28.8929 2.15399 27.527 0.997314 25.4705 0.997314H25.3955C19.9315 1.07242 14.3623 1.07242 8.98835 1.0574C6.79674 1.0574 4.59013 1.0574 2.42855 1.0574C2.32347 1.0574 2.23348 1.0574 2.1284 1.0574C1.90323 1.04238 1.648 1.02736 1.5129 1.10247C1.12261 1.34282 0.777387 1.70334 0.792398 1.89862C0.792398 2.06386 1.1526 2.39435 1.57291 2.60465C1.72302 2.67976 1.96325 2.66474 2.18841 2.64972C2.29349 2.64972 2.3986 2.6347 2.50367 2.6347H6.51159C9.18355 2.6347 11.8405 2.6347 14.5125 2.6347C14.7827 2.6347 15.0528 2.66474 15.323 2.67976C15.4431 2.67976 15.5782 2.69478 15.6983 2.7098H15.9535L15.8634 2.96517C13.4166 9.34946 13.4467 15.5234 15.9235 21.8326L16.0285 22.088H6.6317C5.05555 22.088 3.4193 22.088 1.79811 22.088H1.75312C1.31781 22.088 1.00253 22.1781 0.867434 22.3434C0.777368 22.4485 0.74735 22.5987 0.777372 22.779C0.822405 23.0043 1.40787 23.3048 1.75312 23.47L1.9032 23.5451C2.02329 23.6052 2.21845 23.5902 2.39859 23.5752C2.50366 23.5752 2.60867 23.5601 2.69873 23.5601H25.1552C27.6771 23.5601 29.013 22.5537 29.6285 20.1952C29.6735 20 29.5385 19.7145 29.3884 19.4441L29.4034 19.3841ZM23.3839 22.0279C22.9486 22.0279 22.4983 22.0279 22.063 22.058C21.6277 22.058 21.1923 22.088 20.757 22.088C20.0965 22.088 19.436 22.058 18.7756 21.9678C18.1151 21.8777 17.3495 21.0365 17.0793 20.3605C15.0528 14.9827 15.0379 9.58981 17.0493 4.33216C17.5447 3.01024 18.3403 2.46945 19.6462 2.58963C20.4568 2.66474 21.2824 2.64972 22.138 2.61967C22.5283 2.61967 22.9186 2.60465 23.3239 2.60465H23.5941L23.5041 2.86002C21.0723 9.36448 21.0873 15.5685 23.5641 21.7876L23.6692 22.0429H23.399L23.3839 22.0279Z" fill="#265D89"/>
<path d="M52.1452 31.1163C51.875 30.9961 51.6048 30.876 51.3496 30.6957C49.2931 29.2386 48.1823 29.2686 46.1408 30.8159C45.4052 31.3717 44.4295 31.8974 43.2437 31.0112C40.7668 29.1635 40.0164 29.1635 37.4044 30.9661C36.4287 31.6421 35.528 31.6271 34.6123 30.906C32.4207 29.1785 31.37 29.1935 29.0132 30.906C27.9475 31.6871 26.9867 31.6571 25.996 30.8009C24.1797 29.2386 22.6036 29.2085 20.6972 30.7257C19.3462 31.8073 18.6256 31.612 17.3947 30.7257C16.7793 30.2901 15.9837 29.9446 14.9329 29.6592C14.7978 29.6291 14.2574 30.0047 14.1824 30.2751C14.1373 30.4253 14.4375 30.891 14.7378 31.1013C15.068 31.3266 15.4583 31.5219 15.8186 31.7022C16.1939 31.8824 16.5842 32.0777 16.9444 32.3181C18.3555 33.2795 20.0517 33.2194 21.3577 32.1678C23.0389 30.8159 23.5042 30.8159 25.1554 32.0927C26.8066 33.3696 28.4428 33.3395 30.049 32.0026C31.385 30.891 32.0305 30.876 33.4265 31.9575C35.3029 33.3996 36.8189 33.3846 38.6503 31.9275C39.9112 30.921 40.5867 30.906 41.8326 31.8824C43.8291 33.4447 45.2551 33.4447 47.2666 31.8524C47.837 31.4017 48.3024 31.1764 48.7677 31.1764C49.2631 31.1764 49.7735 31.4318 50.449 31.9575C50.8843 32.288 51.3647 32.5434 51.9201 32.8288C52.1602 32.949 52.4004 33.0842 52.6556 33.2194C53.0309 32.9189 53.3611 32.6786 53.6613 32.4382C53.6013 32.3631 53.5562 32.288 53.4962 32.2129C53.3011 31.9425 53.121 31.6721 52.8808 31.5069C52.6556 31.3416 52.4004 31.2215 52.1152 31.1013L52.1452 31.1163Z" fill="#265D89"/>
<path d="M25.891 8.25291C25.8159 8.32802 25.7409 8.40313 25.6659 8.47824C25.7109 8.52331 25.7709 8.56837 25.816 8.61344C26.0862 8.85379 26.3563 9.09414 26.6416 9.30444C26.6716 9.30444 26.7767 9.30444 26.8517 9.30444C26.9118 9.30444 26.9568 9.30444 27.0018 9.30444H27.0319C33.6667 9.52977 39.7011 14.0213 41.7276 20.2253C42.0578 21.2468 42.238 22.3284 42.4031 23.3799C42.5082 24.0709 42.6283 24.792 42.7934 25.483C42.8384 25.6783 43.0787 25.8886 43.3038 26.0838C43.3789 26.1439 43.4389 26.204 43.5139 26.2641C43.5589 26.219 43.619 26.159 43.6641 26.1139C43.8892 25.8886 44.0993 25.6632 44.2645 25.4229C44.3095 25.3478 44.2945 25.1825 44.2645 25.0473C44.2645 24.9572 44.2495 24.8671 44.2495 24.7769C44.0994 18.0021 39.2659 11.2573 32.9913 9.09414C31.295 8.50829 29.4337 8.23789 27.6474 7.98252C27.2721 7.92243 26.8968 7.87736 26.5065 7.81728C26.3864 7.78723 26.0861 8.08767 25.891 8.28296V8.25291Z" fill="#265D89"/>
<path d="M37.4938 24.8971C37.2536 19.3691 32.7052 14.8775 26.941 14.4419H26.926C26.7759 14.4419 26.6108 14.4119 26.4607 14.4119C26.2055 14.4119 25.9653 14.4419 25.8152 14.5771C25.6951 14.6823 25.6351 14.8625 25.62 15.1029C25.605 15.7338 25.9953 15.8389 26.7158 15.9591L27.3913 16.0793C28.4121 16.2746 29.4629 16.4699 30.3935 16.8905C33.771 18.4527 35.6775 21.2919 36.0828 25.3177C36.0978 25.528 36.383 25.7684 36.6532 25.9937C36.7282 26.0688 36.8183 26.1289 36.8933 26.204L36.9834 26.0688C37.1785 25.7684 37.3737 25.4679 37.5538 25.1525C37.5538 25.1525 37.5538 25.0774 37.5388 25.0323C37.5388 24.9872 37.5238 24.9272 37.5238 24.8821L37.4938 24.8971Z" fill="#265D89"/>
</svg>
