<svg width="31" height="32" viewBox="0 0 31 32" fill="none" xmlns="http://www.w3.org/2000/svg">
<path d="M28.3543 0.587667C19.9062 0.587667 11.4581 0.587667 2.99532 0.587667C2.83399 0.587667 2.68731 0.587682 2.52597 0.602359C1.46996 0.719779 0.677979 1.58573 0.677979 2.62783C0.677979 3.66993 1.45529 4.53591 2.52597 4.65333C2.61397 4.65333 2.70199 4.68268 2.81933 4.69736C3.94867 13.768 5.0927 22.8387 6.22205 31.924H25.1423C26.2716 22.8533 27.4157 13.7974 28.545 4.69736C28.6623 4.68268 28.7503 4.668 28.8383 4.65333C29.689 4.55058 30.3637 3.97816 30.5984 3.18558C30.833 2.37832 30.5544 1.54171 29.8797 1.01333C29.425 0.661067 28.9117 0.572998 28.3543 0.572998V0.587667ZM26.961 6.41462C26.6089 9.24736 26.2569 12.0801 25.9049 14.9129C25.4796 18.3034 25.0543 21.6938 24.6289 25.099C24.4089 26.8016 24.1889 28.5188 23.9983 30.2361C23.9689 30.5297 23.8809 30.6177 23.5729 30.6177C18.3075 30.6177 13.0568 30.6177 7.79141 30.6177C7.49807 30.6177 7.41006 30.5297 7.36606 30.2361C6.92605 26.6108 6.45673 22.9854 6.00205 19.3601C5.60605 16.1898 5.21 13.0048 4.814 9.83446C4.62333 8.29333 4.418 6.75221 4.22733 5.21108C4.21267 5.0643 4.198 4.90286 4.18333 4.71205H27.1369C27.0636 5.29915 27.005 5.87156 26.9316 6.42931L26.961 6.41462ZM28.7357 3.303C28.6183 3.33236 28.4863 3.31767 28.3543 3.31767C19.9062 3.31767 11.4581 3.31767 3.01 3.31767C2.86333 3.31767 2.71665 3.31769 2.58465 3.28833C2.24731 3.20027 2.05667 2.98009 2.05667 2.62783C2.05667 2.29025 2.30599 2.01138 2.64333 1.96735C2.77533 1.95267 2.90735 1.96735 3.02468 1.96735H15.6821C19.9062 1.96735 24.1156 1.96735 28.3396 1.96735C28.4716 1.96735 28.6037 1.96735 28.721 1.96735C29.0583 2.02606 29.3077 2.30493 29.3077 2.62783C29.3077 2.96541 29.0877 3.24429 28.7357 3.303Z" fill="#265D89"/>
<path d="M17.6621 13.5478C17.1341 13.0488 16.6061 12.5791 16.0194 12.0213C17.2074 12.0947 18.1901 12.4616 19.0555 13.1075C20.5515 14.2229 21.2995 15.7347 21.4022 17.5988C21.7835 17.496 22.1208 17.3933 22.4728 17.3199C22.7222 17.2759 22.7955 17.1584 22.7662 16.9089C22.4142 14.311 21.0795 12.4029 18.7328 11.2728C17.9114 10.8765 16.9874 10.715 16.1074 10.4508C16.5914 9.99584 17.1194 9.49682 17.6474 9.01246C17.2514 8.61617 16.9434 8.2786 16.6794 8.0144C15.5501 9.12989 14.4501 10.216 13.3794 11.2728C14.4501 12.3589 15.5501 13.4597 16.6354 14.5459C16.9434 14.2523 17.2661 13.9441 17.6768 13.5478H17.6621Z" fill="#265D89"/>
<path d="M12.9685 24.3063C15.9752 25.5392 19.4659 24.5705 21.4166 21.9432C21.5046 21.8258 21.5926 21.723 21.7099 21.5616C21.9153 22.3395 22.1206 23.0293 22.3113 23.7632C22.7806 23.6311 23.206 23.5283 23.6753 23.3963C23.2646 21.8698 22.8686 20.3727 22.458 18.8169C20.9179 19.2279 19.4219 19.6388 17.8819 20.0498C18.0139 20.5342 18.1312 20.9745 18.2485 21.4148C18.9819 21.224 19.6712 21.0479 20.4486 20.8424C19.7152 21.9138 18.8352 22.633 17.7206 23.044C16.0925 23.6605 14.4792 23.5284 12.9098 22.7211C12.8218 23.0587 12.7632 23.3816 12.6458 23.6751C12.4992 24.0567 12.6458 24.1888 12.9831 24.3209L12.9685 24.3063Z" fill="#265D89"/>
<path d="M12.5581 18.4353C12.1034 18.3179 11.6634 18.2004 11.194 18.0683C10.9887 18.8022 10.798 19.4921 10.5927 20.2553C10.0647 19.2279 9.88868 18.2004 10.006 17.1437C10.2113 15.2649 11.1354 13.8266 12.7194 12.7991C12.3674 12.4469 12.0594 12.124 11.7074 11.7717C10.49 12.6083 9.61 13.6651 9.08199 15.0008C8.27531 16.9969 8.39268 18.9783 9.34603 20.9745C8.56869 20.769 7.86466 20.5929 7.13132 20.4021C6.99932 20.8864 6.89665 21.3121 6.76465 21.7671C8.30467 22.178 9.80068 22.589 11.3407 22.9853C11.7514 21.4441 12.1474 19.9471 12.5727 18.4059L12.5581 18.4353Z" fill="#265D89"/>
</svg>
