<svg width="40" height="36" viewBox="0 0 40 36" fill="none" xmlns="http://www.w3.org/2000/svg">
<path d="M20 35C20 35 1 24.1818 1 11.0455C1.00039 8.72368 1.79164 6.47369 3.23924 4.67803C4.68683 2.88238 6.70141 1.65189 8.94046 1.19579C11.1795 0.739683 13.5048 1.08611 15.521 2.17617C17.5373 3.26623 19.12 5.03264 20 7.17507L20 7.17509C20.88 5.03265 22.4627 3.26624 24.4789 2.17618C26.4952 1.08611 28.8205 0.739684 31.0595 1.19579C33.2986 1.65189 35.3132 2.88237 36.7608 4.67803C38.2084 6.47369 38.9996 8.72368 39 11.0455C39 24.1818 20 35 20 35Z" stroke="white" stroke-linecap="round" stroke-linejoin="round"/>
</svg>
