<svg id="Layer_1" data-name="Layer 1" class='edit-icon' xmlns="http://www.w3.org/2000/svg" viewBox="0 0 43.04 43.06"><defs><style>.cls-1{fill:#231f20;}</style></defs><path class="cls-1" d="M33.12,14.86,28.18,9.92a1.68,1.68,0,0,0-2.32,0L12.58,23.2a1.77,1.77,0,0,0-.36.53.94.94,0,0,0,0,.16.63.63,0,0,0-.07.38s0,.06,0,.09V29.3a1.64,1.64,0,0,0,.48,1.16,1.67,1.67,0,0,0,1.16.48h4.94a1.51,1.51,0,0,0,.63-.13,1.58,1.58,0,0,0,.53-.35L33.12,17.18A1.63,1.63,0,0,0,33.6,16,1.64,1.64,0,0,0,33.12,14.86ZM13.6,25.79,18,29.44H13.74a.18.18,0,0,1-.1,0,.13.13,0,0,1,0-.1Zm10.21-11.7L26.92,11a.13.13,0,0,1,.1,0,.11.11,0,0,1,.09,0l5,4.94a.14.14,0,0,1,0,.2L29,19.23ZM19.33,28.61l-5.48-4.56,8.9-8.9,5.14,5.14-8.46,8.45A1.13,1.13,0,0,0,19.33,28.61Z"/></svg>