<?xml version="1.0" encoding="UTF-8"?><svg id="a" xmlns="http://www.w3.org/2000/svg" viewBox="0 0 43.04 43.06"><defs><style>.b{fill:#231e20;}</style></defs><path class="b" d="M20.59,2.68C10.3,2.68,1.93,11.05,1.93,21.34s8.37,18.66,18.66,18.66,18.66-8.37,18.66-18.66S30.88,2.68,20.59,2.68Zm0,35.51c-5.56,0-10.48-2.72-13.55-6.88,.05-.04,.1-.07,.13-.13,.93-1.32,2.17-2.41,3.6-3.15,1.44-.75,3.03-1.14,4.65-1.14,1.62,0,3.22,.39,4.65,1.14,1.44,.75,2.67,1.83,3.61,3.15,.29,.41,.86,.51,1.27,.22,.41-.29,.51-.86,.22-1.27-1.1-1.56-2.56-2.84-4.26-3.72-.5-.26-1.01-.48-1.53-.66,2.08-1.31,3.45-3.63,3.45-6.27,0-4.09-3.32-7.41-7.41-7.41s-7.41,3.32-7.41,7.41c0,2.64,1.38,4.95,3.45,6.27-.52,.18-1.04,.41-1.53,.66-1.54,.8-2.88,1.94-3.94,3.32-1.43-2.47-2.26-5.33-2.26-8.39C3.75,12.05,11.31,4.5,20.59,4.5s16.84,7.56,16.84,16.84c0,3.09-.85,5.98-2.31,8.47-1.07-1.42-2.43-2.59-4-3.41-.5-.26-1.01-.48-1.53-.66,.61-.38,1.16-.85,1.63-1.4,.7-.8,1.21-1.74,1.51-2.75,.3-1.02,.38-2.08,.24-3.13-.15-1.05-.51-2.05-1.08-2.95-.57-.89-1.32-1.66-2.2-2.24s-1.89-.96-2.93-1.12c-1.05-.16-2.12-.1-3.14,.19-.48,.14-.77,.64-.63,1.12,.14,.48,.64,.77,1.12,.63,.77-.22,1.58-.27,2.37-.14,.79,.12,1.54,.41,2.21,.85,.67,.44,1.24,1.01,1.66,1.69,.43,.67,.71,1.43,.81,2.23,.11,.79,.05,1.6-.18,2.36-.23,.77-.62,1.47-1.14,2.08-.52,.6-1.17,1.09-1.9,1.42-.73,.33-1.52,.5-2.32,.5-.5,0-.91,.41-.91,.91,0,.34,.18,.63,.46,.79,.02,.01,.04,.02,.06,.03,.12,.06,.25,.09,.39,.09,1.62,0,3.22,.39,4.65,1.13,1.44,.75,2.67,1.83,3.6,3.15,.06,.08,.13,.14,.21,.2-3.07,4.12-7.97,6.81-13.5,6.81ZM9.85,19.48c0-3.09,2.5-5.59,5.59-5.59s5.59,2.5,5.59,5.59-2.5,5.59-5.59,5.59-5.59-2.5-5.59-5.59Z"/></svg>