<svg id="Layer_1" data-name="Layer 1" class='share-icon' xmlns="http://www.w3.org/2000/svg" viewBox="0 0 43.04 43.06"><defs><style>.cls-1{fill:#231f20;}</style></defs><path class="cls-1" d="M28.27,26.74a5.51,5.51,0,0,0-4.19,1.94l-7.5-4.83a5.44,5.44,0,0,0,0-4.64l7.5-4.82a5.52,5.52,0,1,0-1.33-3.59,5.44,5.44,0,0,0,.52,2.32L15.77,18a5.52,5.52,0,1,0,0,7.17l7.5,4.82a5.52,5.52,0,1,0,10.52,2.32A5.53,5.53,0,0,0,28.27,26.74Zm0,1.5a4,4,0,1,1-4,4A4,4,0,0,1,28.27,28.24ZM11.58,25.55a4,4,0,1,1,4-4A4,4,0,0,1,11.58,25.55ZM24.25,10.8a4,4,0,1,1,4,4A4,4,0,0,1,24.25,10.8Z"/></svg>