<svg id="Layer_1" data-name="Layer 1" xmlns="http://www.w3.org/2000/svg" viewBox="0 0 43.04 43.06"><defs><style>.cls-1{fill:#231f20;}</style></defs><path class="cls-1" d="M34.57,11.26H28.32V9.67a3.07,3.07,0,0,0-3.08-3.08h-7a3.07,3.07,0,0,0-3.08,3.08v1.59H8.91a.75.75,0,0,0,0,1.5h1.58V34.17a1.94,1.94,0,0,0,.56,1.36,2,2,0,0,0,1.36.56H31.07a1.9,1.9,0,0,0,1.36-.56A1.94,1.94,0,0,0,33,34.17V12.76h1.58a.75.75,0,0,0,0-1.5ZM12,12.76h19.5V34.17a.42.42,0,0,1-.12.3.41.41,0,0,1-.3.12H12.41a.47.47,0,0,1-.3-.12.42.42,0,0,1-.12-.3Zm14.83-1.5H16.66V9.67a1.63,1.63,0,0,1,.46-1.12,1.57,1.57,0,0,1,1.12-.46h7a1.57,1.57,0,0,1,1.12.46,1.59,1.59,0,0,1,.46,1.12Z"/><path class="cls-1" d="M18.24,29.09a.76.76,0,0,0,.75-.75V19a.75.75,0,0,0-1.5,0v9.33A.76.76,0,0,0,18.24,29.09Z"/><path class="cls-1" d="M25.24,29.09a.76.76,0,0,0,.75-.75V19a.75.75,0,0,0-1.5,0v9.33A.76.76,0,0,0,25.24,29.09Z"/></svg>