<svg id="Layer_1" data-name="Layer 1" xmlns="http://www.w3.org/2000/svg" viewBox="0 0 43.04 43.06"><defs><style>.cls-1{fill:#231f20;}</style></defs><path class="cls-1" d="M38.83,21c0-.11-5.11-11.14-17.31-11.14S4.26,20.93,4.21,21a.72.72,0,0,0,0,.61c0,.11,5.11,11.13,17.31,11.13s17.26-11,17.31-11.13A.72.72,0,0,0,38.83,21Zm-1.52.3c-1,1.91-5.71,9.94-15.79,9.94s-14.8-8-15.79-9.94c1-1.91,5.73-9.94,15.79-9.94S36.33,19.43,37.31,21.34Z"/><path class="cls-1" d="M21.52,14.65a6.69,6.69,0,1,0,6.69,6.69A6.7,6.7,0,0,0,21.52,14.65Zm5.19,6.69a5.19,5.19,0,1,1-5.19-5.19A5.2,5.2,0,0,1,26.71,21.34Z"/></svg>