<svg width="30" height="38" viewBox="0 0 30 38" fill="none" xmlns="http://www.w3.org/2000/svg">
<path d="M24.6091 12.8591C24.6091 12.8591 24.7142 12.8591 24.7443 12.8591C24.6692 13.5352 24.5641 14.016 24.3689 14.602C24.2638 14.9025 24.0086 15.158 23.6782 15.4885C23.2428 15.9243 22.7173 16.4351 22.372 17.2465C22.0717 17.0211 21.6813 16.6605 21.411 16.4201C20.4651 15.5636 19.8946 15.0828 19.294 15.0828H19.1438C18.8436 15.1429 18.6184 15.188 18.4232 15.2331C18.198 15.2781 18.0628 15.3082 17.9277 15.3082C17.8376 15.3082 17.6875 15.3082 17.4022 15.203C17.1319 15.1129 16.9667 15.0377 16.8917 14.9776C16.9217 14.7973 16.9367 14.4968 16.7115 14.2114C16.4412 13.8658 16.0209 13.7756 15.4203 13.7305C15.3452 13.7305 15.2701 13.7305 15.2101 13.7305C15.0749 13.7305 14.9398 13.7305 14.8047 13.7456C14.7146 13.7456 14.6245 13.7456 14.5494 13.7456C14.4443 13.7456 14.4143 13.7456 14.4143 13.7456C14.4143 13.7456 14.3092 13.6704 14.2041 13.2497C14.2041 13.1896 14.2041 13.1145 14.2191 13.0394H14.6395L19.2189 12.9642L21.8465 12.9192L24.504 12.8741H24.6091V12.8591ZM24.6091 12.1228H24.489C22.7173 12.1529 20.9606 12.1829 19.1889 12.213C17.6575 12.243 16.141 12.2581 14.6095 12.2881C14.3392 12.2881 14.0689 12.2881 13.7987 12.2881C13.4684 12.2881 13.4083 13.1896 13.4384 13.385C13.6936 14.3616 14.069 14.4968 14.5344 14.4968C14.7446 14.4968 14.9548 14.4668 15.1951 14.4668C15.2551 14.4668 15.3001 14.4668 15.3602 14.4668C17.1469 14.587 14.9848 15.1579 17.1469 15.8942C17.4773 15.9994 17.7025 16.0444 17.9127 16.0444C18.288 16.0444 18.6033 15.9243 19.249 15.8191H19.294C19.9847 15.8191 21.8915 18.1931 22.6422 18.1931C22.7774 18.1931 22.8675 18.1179 22.9125 17.9376C23.3479 16.2848 24.6992 15.9092 25.0596 14.8274C25.3148 14.0461 25.4349 13.43 25.51 12.5586C25.54 12.1378 25.0295 12.0928 24.5941 12.0928L24.6091 12.1228Z" fill="#265D89"/>
<path d="M29.595 11.687L28.2888 12.1528C28.2437 12.4082 28.1837 14.7672 27.8083 17.4117C27.6882 18.2831 27.3578 19.1246 27.0425 19.951L24.9555 24.6839L24.5802 25.5404L24.2799 26.2165C23.424 28.1548 22.9886 30.1982 22.9886 32.3168V37.4405H24.3399V32.3168C24.3399 30.3936 24.7303 28.5304 25.5111 26.7724L28.2888 20.4768C29.8503 16.42 29.58 14.031 29.58 11.702L29.595 11.687Z" fill="#265D89"/>
<path d="M10.6464 37.4406H11.9977V29.958H7.34319C6.09699 29.958 5.07599 28.9362 5.07599 27.6891L5.6766 21.2282H2.52355C2.40343 21.2282 2.26829 21.1832 2.1782 21.093C2.01304 20.9277 1.99804 20.6873 2.10315 20.492L5.28621 14.2565V13.6104C5.28621 7.90076 9.49024 3.13772 14.9705 2.28127C15.3309 2.22117 15.9765 0.808801 15.6012 0.838852C12.5232 1.10931 9.76054 2.47662 7.68854 4.55011C5.37631 6.86402 3.93492 10.0794 3.93492 13.6104V13.8808L0.946999 19.8008C0.571637 20.4018 0.586679 21.2132 1.0221 21.8293C1.36743 22.3101 1.93795 22.5805 2.53853 22.5805H4.31028L3.70966 27.6891C3.70966 29.6875 5.33123 31.3102 7.32816 31.3102H10.6163V37.4406H10.6464Z" fill="#265D89"/>
</svg>
