<svg width="30" height="36" viewBox="0 0 30 36" fill="none" xmlns="http://www.w3.org/2000/svg">
<path d="M24.7972 21.5927V18.3923H4.34745V21.5927H0.0683594L13.9267 35.4611L29.0763 21.5927H24.7972ZM2.9211 22.7797H5.23335V19.369H23.9264V22.7797H25.9834L13.9417 33.7032L2.9211 22.7797Z" fill="#265D89"/>
<path d="M14.9179 24.6729C13.927 24.2973 13.5066 24.0569 13.5066 23.6662C13.5066 23.3356 13.7468 23.0051 14.5126 23.0051C15.3534 23.0051 15.8939 23.2755 16.1942 23.4108L16.5395 22.0886C16.1491 21.9083 15.6236 21.743 14.8429 21.6979V20.6611H13.7018V21.773C12.4556 22.0134 11.7198 22.8248 11.7198 23.8615C11.7198 25.0035 12.5757 25.5894 13.8219 26.0102C14.6927 26.3107 15.0681 26.5811 15.0681 27.0319C15.0681 27.4977 14.6176 27.7531 13.942 27.7531C13.1763 27.7531 12.4856 27.5127 11.9901 27.2422L11.6448 28.6096C12.0952 28.865 12.8459 29.0753 13.6417 29.1204V30.2323H14.7978V29.0303C16.1491 28.7899 16.8848 27.9034 16.8848 26.8666C16.8848 25.8299 16.3293 25.1687 14.933 24.6729H14.9179Z" fill="#265D89"/>
<path d="M26.4039 17.145C26.2988 16.8445 25.0676 14.2602 14.7076 14.185L14.4524 13.1483C14.4524 13.1483 14.5275 13.1032 14.5575 13.0732L15.5634 12.0515C16.0739 12.2017 16.5994 12.2919 17.125 12.2919C17.5604 12.2919 17.9958 12.2468 18.4312 12.1416C19.4672 11.9012 20.4132 11.3603 21.1789 10.594C21.9296 9.8277 22.4551 8.86607 22.6953 7.79928C22.9356 6.7475 22.8905 5.63563 22.5452 4.61391C22.5002 4.49371 22.41 4.38852 22.2749 4.34344C21.2689 3.99786 20.1729 3.93777 19.1369 4.1932C18.1009 4.43361 17.155 4.97452 16.3893 5.74081C15.6385 6.5071 15.113 7.46873 14.8728 8.53553C14.6476 9.49715 14.6926 10.5038 14.9629 11.4655L14.2272 12.2167L13.4314 8.95623L11.7648 1.24822C11.7197 1.02284 11.4945 0.872589 11.2543 0.917665C11.0291 0.962741 10.8789 1.20316 10.924 1.42854L12.5906 9.15157L13.8218 14.2001C3.41675 14.2752 2.78613 17.0399 2.74109 17.3554L2.69604 17.716L26.5541 17.5958L26.4039 17.1601V17.145ZM15.6986 8.73084C15.9088 7.82932 16.3592 7.00293 17.0049 6.34182C17.6505 5.6807 18.4462 5.22996 19.3471 5.0196C20.1579 4.82427 21.0137 4.8543 21.8095 5.09471C22.0497 5.9211 22.0647 6.77756 21.8695 7.61898C21.6593 8.5205 21.2089 9.34689 20.5633 10.008C19.9177 10.6691 19.1069 11.1199 18.221 11.3302C17.5754 11.4805 16.8997 11.4955 16.2391 11.3753L20.3981 7.13816C20.5633 6.97288 20.5633 6.70243 20.3981 6.53715C20.2329 6.37187 19.9627 6.37187 19.7975 6.53715L15.6535 10.7593C15.5334 10.0982 15.5485 9.40699 15.6986 8.74588V8.73084ZM3.85214 16.9497C4.6329 16.2135 7.03521 14.9363 14.2572 14.9363C21.4792 14.9363 24.1367 16.1083 25.1427 16.8445L3.85214 16.9647V16.9497Z" fill="#265D89"/>
</svg>
