<svg width="42" height="38" viewBox="0 0 42 38" fill="none" xmlns="http://www.w3.org/2000/svg">
<path d="M1.49987 9.59364C1.93529 9.65374 2.32567 9.71382 2.32567 9.71382V33.7394C1.78515 33.8596 0.884284 34.0549 0.884284 34.0549V35.903L1.28967 35.9781C1.54492 36.0232 1.81518 36.0683 2.05541 36.1134L2.29564 36.1584C2.38573 36.6843 2.4608 37.1501 2.53588 37.6009H4.41269C4.50278 37.0449 4.57785 36.5791 4.66793 36.0532H33.8261C33.9012 36.6092 33.9612 37.06 34.0363 37.6159C36.3936 36.7144 38.6007 35.873 41.1231 34.9114C39.982 34.4756 38.916 34.0849 37.895 33.6943C37.0392 33.3787 36.2134 33.0632 35.3726 32.7477C34.9372 32.5824 34.5017 32.4171 34.0513 32.2518C33.9612 32.8829 33.9012 33.3337 33.8261 33.7994H4.60787V9.7439C5.13338 9.6237 5.58382 9.53354 6.13936 9.41334C5.26852 7.12949 4.44271 4.95079 3.46677 2.39648C2.49083 5.01089 1.65002 7.21964 0.794189 9.50349L1.03443 9.53352C1.18457 9.54855 1.34972 9.57861 1.48486 9.59364H1.49987Z" fill="#265D89"/>
<path d="M32.9841 32.7622C32.9841 25.6251 32.9841 11.2158 32.9841 11.2158L27.2335 18.0073C27.2335 18.0073 27.2635 32.4467 27.3086 32.7472H32.9841V32.7622ZM31.4826 15.3178V31.2596H28.78C28.765 28.6302 28.75 22.8755 28.735 18.5632L31.4826 15.3178Z" fill="#265D89"/>
<path d="M12.9399 26.8576V32.7625H18.7806V31.1098C18.7806 27.7291 18.8106 19.7506 18.8106 19.7506L17.3992 18.1128L12.9399 22.35V26.8726V26.8576ZM14.4414 29.7574V22.981L17.2791 20.2764V20.3065C17.2791 22.1847 17.2791 28.27 17.2791 31.1098V31.26H14.4414V29.7574Z" fill="#265D89"/>
<path d="M21.8746 22.3796C21.214 21.8237 20.7635 21.433 20.163 20.9222V32.8523C21.6044 32.8523 25.9436 32.7622 25.9436 32.7622V31.2747C25.9436 31.2747 25.9285 23.5667 25.9135 19.7202C25.9135 19.3295 25.7934 17.3462 25.7934 17.3462C25.7934 17.3462 23.0457 20.9973 21.8746 22.3647V22.3796ZM24.4421 31.3047C23.6163 31.3197 22.5653 31.3348 21.6644 31.3498V24.1677L22.0398 24.4982L23.0157 23.3563C23.3761 22.9356 23.8866 22.3045 24.4121 21.6284L24.4421 31.2897V31.3047Z" fill="#265D89"/>
<path d="M5.80847 32.7773H11.529V23.1912C9.60714 24.859 5.82348 28.3899 5.82348 28.3899C5.82348 28.3899 5.80847 31.3199 5.80847 32.7623V32.7773ZM7.32493 29.051C7.91049 28.5101 8.96151 27.5335 10.0275 26.5568V31.2748H7.30992C7.30992 30.4634 7.30992 29.622 7.30992 29.051H7.32493Z" fill="#265D89"/>
<path d="M5.95899 23.792C5.95899 23.792 13.5713 17.0907 17.37 13.74C18.8264 15.2125 20.1927 16.5949 21.6341 18.0524C25.7031 14.0857 29.6068 10.2692 33.4956 6.46779C33.976 6.87347 34.3064 7.14393 34.7868 7.54961C35.8078 5.29581 36.7838 3.13217 37.9249 0.60791C35.3874 1.74984 33.2253 2.72648 30.9882 3.7482C31.4536 4.30414 31.829 4.76994 31.9641 4.93522C28.5408 8.58638 25.2226 12.1173 21.6641 15.9187C20.1627 14.296 18.8414 12.8686 17.4751 11.3961C13.9017 14.5514 6.94994 20.6517 6.94994 20.6517L5.89893 21.5232L5.94397 23.807L5.95899 23.792Z" fill="#265D89"/>
</svg>
