<svg width="50" height="28" viewBox="0 0 50 28" fill="none" xmlns="http://www.w3.org/2000/svg">
<path d="M44.9584 26.0308C45.9641 26.9321 47.0149 27.8634 49.0864 27.8634C49.2815 27.8634 49.4316 27.4578 49.4316 26.9621C49.4316 26.4664 49.2815 26.0608 49.0864 26.0608C47.1349 26.0608 46.1892 25.2196 45.1835 24.3183C44.1778 23.417 43.127 22.4856 41.0555 22.4856C38.984 22.4856 37.9482 23.417 36.9275 24.3183C35.9217 25.2196 34.976 26.0608 33.0246 26.0608C31.0732 26.0608 30.1275 25.2196 29.1217 24.3183C28.116 23.417 27.0652 22.4856 24.9937 22.4856C22.9222 22.4856 21.8864 23.417 20.8657 24.3183C19.8599 25.2196 18.9143 26.0608 16.9628 26.0608C15.0114 26.0608 14.0657 25.2196 13.06 24.3183C12.0542 23.417 11.0035 22.4856 8.93193 22.4856C6.86041 22.4856 5.82465 23.417 4.8039 24.3183C3.79817 25.2196 2.85246 26.0608 0.901033 26.0608C0.70589 26.0608 0.555786 26.4664 0.555786 26.9621C0.555786 27.4578 0.70589 27.8634 0.901033 27.8634C2.95754 27.8634 4.00831 26.9321 5.02906 26.0308C6.0348 25.1294 6.9805 24.2882 8.93193 24.2882C10.8834 24.2882 11.8291 25.1294 12.8348 26.0308C13.8405 26.9321 14.8913 27.8634 16.9628 27.8634C19.0343 27.8634 20.0701 26.9321 21.0909 26.0308C22.0966 25.1294 23.0423 24.2882 24.9937 24.2882C26.9451 24.2882 27.8908 25.1294 28.8966 26.0308C29.9023 26.9321 30.9531 27.8634 33.0246 27.8634C35.0961 27.8634 36.1319 26.9321 37.1526 26.0308C38.1584 25.1294 39.104 24.2882 41.0555 24.2882C43.0069 24.2882 43.9526 25.1294 44.9584 26.0308Z" fill="#265D89"/>
<path d="M0.947298 16.8825C3.00381 16.8825 4.05458 15.9511 5.07533 15.0498C6.08106 14.1485 7.02677 13.3073 8.9782 13.3073C10.9296 13.3073 11.8753 14.1485 12.8811 15.0498C13.8868 15.9511 14.9376 16.8825 17.0091 16.8825C19.0806 16.8825 20.1164 15.9511 21.1371 15.0498C22.1429 14.1485 23.0885 13.3073 25.04 13.3073C26.9914 13.3073 27.9371 14.1485 28.9428 15.0498C29.9486 15.9511 30.9994 16.8825 33.0709 16.8825C35.1424 16.8825 36.1782 15.9511 37.1989 15.0498C38.2046 14.1485 39.1503 13.3073 41.1017 13.3073C43.0532 13.3073 43.9989 14.1485 45.0046 15.0498C46.0104 15.9511 47.0611 16.8825 49.1326 16.8825C49.3278 16.8825 49.4779 16.4769 49.4779 15.9812C49.4779 15.4854 49.3278 15.0798 49.1326 15.0798C47.1812 15.0798 46.2355 14.2386 45.2298 13.3373C44.224 12.436 43.1733 11.5046 41.1017 11.5046C39.0302 11.5046 37.9945 12.436 36.9737 13.3373C35.968 14.2386 35.0223 15.0798 33.0709 15.0798C31.1194 15.0798 30.1737 14.2386 29.168 13.3373C28.1623 12.436 27.1115 11.5046 25.04 11.5046C22.9685 11.5046 21.9327 12.436 20.9119 13.3373C19.9062 14.2386 18.9605 15.0798 17.0091 15.0798C15.0577 15.0798 14.112 14.2386 13.1062 13.3373C12.1005 12.436 11.0497 11.5046 8.9782 11.5046C6.90668 11.5046 5.87092 12.436 4.85017 13.3373C3.84443 14.2386 2.89873 15.0798 0.947298 15.0798C0.752154 15.0798 0.602051 15.4854 0.602051 15.9812C0.602051 16.4769 0.752154 16.8825 0.947298 16.8825Z" fill="#265D89"/>
<path d="M0.947298 5.91696C3.00381 5.91696 4.05458 5.04569 5.07533 4.20446C6.08106 3.36324 7.02677 2.5821 8.9782 2.5821C10.9296 2.5821 11.8753 3.37826 12.8811 4.20446C13.8868 5.04569 14.9376 5.91696 17.0091 5.91696C19.0806 5.91696 20.1164 5.04569 21.1371 4.20446C22.1429 3.36324 23.0885 2.5821 25.04 2.5821C26.9914 2.5821 27.9371 3.37826 28.9428 4.20446C29.9486 5.04569 30.9994 5.91696 33.0709 5.91696C35.1424 5.91696 36.1782 5.04569 37.1989 4.20446C38.2046 3.36324 39.1503 2.5821 41.1017 2.5821C43.0532 2.5821 43.9989 3.37826 45.0046 4.20446C46.0104 5.04569 47.0611 5.91696 49.1326 5.91696C49.3278 5.91696 49.4779 5.54141 49.4779 5.07573C49.4779 4.61005 49.3278 4.23451 49.1326 4.23451C47.1812 4.23451 46.2355 3.45337 45.2298 2.61215C44.224 1.77092 43.1733 0.899658 41.1017 0.899658C39.0302 0.899658 37.9945 1.77092 36.9737 2.61215C35.968 3.45337 35.0223 4.23451 33.0709 4.23451C31.1194 4.23451 30.1737 3.45337 29.168 2.61215C28.1623 1.77092 27.1115 0.899658 25.04 0.899658C22.9685 0.899658 21.9327 1.77092 20.9119 2.61215C19.9062 3.45337 18.9605 4.23451 17.0091 4.23451C15.0577 4.23451 14.112 3.45337 13.1062 2.61215C12.1005 1.77092 11.0497 0.899658 8.9782 0.899658C6.90668 0.899658 5.87092 1.77092 4.85017 2.61215C3.84443 3.45337 2.89873 4.23451 0.947298 4.23451C0.752154 4.23451 0.602051 4.61005 0.602051 5.07573C0.602051 5.54141 0.752154 5.91696 0.947298 5.91696Z" fill="#265D89"/>
</svg>
