<svg width="43" height="38" viewBox="0 0 43 38" fill="none" xmlns="http://www.w3.org/2000/svg">
<path d="M21.2288 6.71849H25.3878C25.5229 6.71849 25.658 6.65838 25.7481 6.56823C25.8382 6.47808 25.8983 6.34286 25.8983 6.20763C25.8983 6.07241 25.8382 5.93715 25.7481 5.84699C25.658 5.75684 25.5229 5.69678 25.3878 5.69678H21.2288C21.0936 5.69678 20.9585 5.75684 20.8684 5.84699C20.7783 5.93715 20.7183 6.07241 20.7183 6.20763C20.7183 6.34286 20.7783 6.47808 20.8684 6.56823C20.9585 6.65838 21.0936 6.71849 21.2288 6.71849Z" fill="#245C87"/>
<path d="M27.4752 6.71849H32.6702C32.8054 6.71849 32.9405 6.65838 33.0306 6.56823C33.1207 6.47808 33.1807 6.34286 33.1807 6.20763C33.1807 6.07241 33.1207 5.93715 33.0306 5.84699C32.9405 5.75684 32.8054 5.69678 32.6702 5.69678H27.4752C27.3401 5.69678 27.205 5.75684 27.1149 5.84699C27.0248 5.93715 26.9647 6.07241 26.9647 6.20763C26.9647 6.34286 27.0248 6.47808 27.1149 6.56823C27.205 6.65838 27.3401 6.71849 27.4752 6.71849Z" fill="#245C87"/>
<path d="M34.7425 6.71849H36.8146C36.9497 6.71849 37.0848 6.65838 37.1749 6.56823C37.265 6.47808 37.325 6.34286 37.325 6.20763C37.325 6.07241 37.265 5.93715 37.1749 5.84699C37.0698 5.75684 36.9497 5.69678 36.8146 5.69678H34.7425C34.6074 5.69678 34.4723 5.75684 34.3822 5.84699C34.2921 5.93715 34.2321 6.07241 34.2321 6.20763C34.2321 6.34286 34.2921 6.47808 34.3822 6.56823C34.4723 6.65838 34.6074 6.71849 34.7425 6.71849Z" fill="#245C87"/>
<path d="M21.2288 9.30247H23.3008C23.4359 9.30247 23.571 9.24236 23.6611 9.15221C23.7512 9.06206 23.8112 8.92685 23.8112 8.79162C23.8112 8.65639 23.7512 8.52113 23.6611 8.43098C23.571 8.34083 23.4359 8.28076 23.3008 8.28076H21.2288C21.0936 8.28076 20.9585 8.34083 20.8684 8.43098C20.7783 8.52113 20.7183 8.65639 20.7183 8.79162C20.7183 8.92685 20.7783 9.06206 20.8684 9.15221C20.9585 9.24236 21.0936 9.30247 21.2288 9.30247Z" fill="#245C87"/>
<path d="M29.9068 9.15221C29.9969 9.06206 30.057 8.92685 30.057 8.79162C30.057 8.65639 29.9969 8.52113 29.9068 8.43098C29.8167 8.34083 29.6816 8.28076 29.5465 8.28076H25.3874C25.2523 8.28076 25.1172 8.34083 25.0271 8.43098C24.937 8.52113 24.877 8.65639 24.877 8.79162C24.877 8.92685 24.937 9.06206 25.0271 9.15221C25.1172 9.24236 25.2523 9.30247 25.3874 9.30247H29.5465C29.6816 9.30247 29.8167 9.24236 29.9068 9.15221Z" fill="#245C87"/>
<path d="M36.8143 8.26562H31.6193C31.4841 8.26562 31.349 8.32574 31.2589 8.41589C31.1688 8.50604 31.1088 8.64125 31.1088 8.77648C31.1088 8.91171 31.1688 9.04692 31.2589 9.13707C31.349 9.22723 31.4841 9.28734 31.6193 9.28734H36.8143C36.9494 9.28734 37.0845 9.22723 37.1746 9.13707C37.2647 9.04692 37.3248 8.91171 37.3248 8.77648C37.3248 8.64125 37.2647 8.50604 37.1746 8.41589C37.0845 8.32574 36.9494 8.26562 36.8143 8.26562Z" fill="#245C87"/>
<path d="M26.7999 12.2477C26.89 12.1575 26.95 12.0223 26.95 11.8871C26.95 11.7518 26.89 11.6166 26.7999 11.5264C26.7098 11.4363 26.5746 11.3762 26.4395 11.3762H21.2445C21.1094 11.3762 20.9742 11.4363 20.8842 11.5264C20.7941 11.6166 20.734 11.7518 20.734 11.8871C20.734 12.0223 20.7941 12.1575 20.8842 12.2477C20.9742 12.3378 21.1094 12.3979 21.2445 12.3979H26.4395C26.5746 12.3979 26.7098 12.3378 26.7999 12.2477Z" fill="#245C87"/>
<path d="M33.7058 11.3608H28.5107C28.3756 11.3608 28.2405 11.421 28.1504 11.5111C28.0603 11.6013 28.0002 11.7365 28.0002 11.8717C28.0002 12.0069 28.0603 12.1421 28.1504 12.2323C28.2405 12.3224 28.3756 12.3826 28.5107 12.3826H33.7058C33.8409 12.3826 33.976 12.3224 34.0661 12.2323C34.1562 12.1421 34.2162 12.0069 34.2162 11.8717C34.2162 11.7365 34.1562 11.6013 34.0661 11.5111C33.976 11.421 33.8409 11.3608 33.7058 11.3608Z" fill="#245C87"/>
<path d="M36.8139 11.3608H35.7779C35.6428 11.3608 35.5077 11.421 35.4176 11.5111C35.3275 11.6013 35.2675 11.7365 35.2675 11.8717C35.2675 12.0069 35.3275 12.1421 35.4176 12.2323C35.5077 12.3224 35.6428 12.3826 35.7779 12.3826H36.8139C36.9491 12.3826 37.0842 12.3224 37.1743 12.2323C37.2644 12.1421 37.3244 12.0069 37.3244 11.8717C37.3244 11.7365 37.2644 11.6013 37.1743 11.5111C37.0692 11.421 36.9491 11.3608 36.8139 11.3608Z" fill="#245C87"/>
<path d="M29.0209 13.9607H25.3874C25.2523 13.9607 25.1172 14.0208 25.0271 14.1109C24.937 14.2011 24.877 14.3363 24.877 14.4715C24.877 14.6068 24.937 14.742 25.0271 14.8321C25.1172 14.9223 25.2523 14.9824 25.3874 14.9824H29.0209C29.1561 14.9824 29.2912 14.9223 29.3813 14.8321C29.4714 14.742 29.5314 14.6068 29.5314 14.4715C29.5314 14.3363 29.4714 14.2011 29.3813 14.1109C29.2912 14.0208 29.1561 13.9607 29.0209 13.9607Z" fill="#245C87"/>
<path d="M41.8444 1.11391C41.1388 0.42274 40.1928 0.0471191 39.2019 0.0471191H19.3827C17.3558 0.0471191 15.9745 1.77504 15.9745 3.71331V8.82192L15.4039 8.26598C14.6532 7.51472 13.422 7.51472 12.6713 8.26598L12.2058 8.73177C11.8455 9.09237 11.6353 9.57319 11.6353 10.0991C11.6353 10.3996 11.7103 10.67 11.8455 10.9255L3.57248 19.1594C2.85178 18.8138 1.96593 18.919 1.38036 19.505L0.914919 19.9557C0.554571 20.3163 0.34436 20.7971 0.34436 21.323C0.34436 21.8489 0.539556 22.3297 0.914919 22.6903L7.04083 28.7906C7.41619 29.1662 7.91167 29.3616 8.40715 29.3616C8.90263 29.3616 9.3981 29.1813 9.77346 28.7906L10.2389 28.3398C10.5993 27.9792 10.8095 27.4984 10.8095 26.9725C10.8095 26.687 10.7344 26.4016 10.5993 26.1461L13.2418 23.5017L15.9594 26.2063V29.6471C15.9444 30.0978 16.0195 30.5636 16.1847 30.9843C16.3498 31.405 16.59 31.7957 16.9204 32.1262C17.2507 32.4568 17.626 32.7122 18.0465 32.8925C18.4669 33.0728 18.9173 33.163 19.3827 33.163H22.9562L27.1903 37.3701C27.4906 37.6706 27.911 37.8359 28.3314 37.8359C28.7518 37.8359 29.1722 37.6706 29.4725 37.3701L30.1632 36.6789C30.4635 36.3784 30.6286 35.9577 30.6286 35.537C30.6286 35.1163 30.4635 34.7106 30.1632 34.395L28.917 33.148H29.8479C29.983 33.148 30.1181 33.1179 30.2533 33.0578C30.3734 32.9977 30.4935 32.9226 30.5836 32.8174L42.4751 21.0526C42.6552 20.8422 43.0005 20.5868 43.0005 20.3163V3.69827C42.9705 2.72162 42.5501 1.79008 41.8444 1.09891V1.11391ZM30.6586 30.7139V23.081C30.6586 21.9691 31.3493 20.9323 32.5354 20.9323H40.6283L38.8415 22.7654L30.6586 31.1646V30.7139ZM13.0316 9.51307L13.4971 9.04729C13.6472 8.89703 13.8574 8.82192 14.0526 8.82192C14.2478 8.82192 14.458 8.89703 14.6081 9.04729L15.9745 10.4146L17.3708 11.797L20.7341 15.1476C20.8842 15.2978 20.9593 15.4931 20.9593 15.7035C20.9593 15.9139 20.8842 16.1092 20.7341 16.2595L20.2686 16.7253C19.9533 17.0408 19.4578 17.0258 19.1425 16.7253L17.3558 14.9522L15.9594 13.5699L13.0016 10.625C12.8514 10.4747 12.7764 10.2794 12.7764 10.069C12.7764 9.85864 12.8514 9.66332 13.0016 9.51307H13.0316ZM9.45816 27.5134L8.99271 27.9642C8.67741 28.2797 8.18193 28.2797 7.86663 27.9642L1.74071 21.8639C1.59056 21.7136 1.51549 21.5183 1.51549 21.308C1.51549 21.0976 1.59056 20.9023 1.74071 20.752L2.20617 20.3013C2.35631 20.151 2.56651 20.0759 2.7617 20.0759C2.95688 20.0759 3.16709 20.151 3.31724 20.3013L3.34726 20.3313L9.44315 26.4016C9.5933 26.5518 9.66836 26.7472 9.66836 26.9575C9.66836 27.1679 9.5933 27.3632 9.44315 27.5134H9.45816ZM9.9086 25.2446L5.19405 20.5417L4.50338 19.8505L12.5962 11.797L16.0045 15.1777L17.4008 16.56L18.0164 17.176L17.4008 17.792L16.0045 19.1744L9.92362 25.2296L9.9086 25.2446ZM18.7822 31.9459C18.587 31.9459 18.3918 31.9159 18.2116 31.8257C18.0314 31.7506 17.8663 31.6304 17.7312 31.4952C17.596 31.3449 17.4909 31.1796 17.4309 30.9993C17.3708 30.819 17.3408 30.6237 17.3708 30.4284V27.5886L21.74 31.9459H18.7822ZM29.3674 35.2064C29.4575 35.2966 29.5025 35.4017 29.5025 35.537C29.5025 35.6722 29.4575 35.7774 29.3674 35.8675L28.6767 36.5587C28.4965 36.739 28.1812 36.724 28.0161 36.5587L24.6078 33.163L23.3916 31.9459L17.4008 25.9809L16.0045 24.5985L14.3829 22.9758L15.7342 21.6235L16.0045 21.894L17.4008 23.2763L20.3136 26.1762L21.4548 27.3181L22.4307 28.2798L23.5868 29.4216L26.1092 31.9309L27.3254 33.148L29.3824 35.2064H29.3674ZM21.4397 25.6954V21.323C21.4397 21.2178 21.5298 21.1427 21.6199 21.1427H25.7939C25.899 21.1427 25.9741 21.2178 25.9741 21.323V28.0844C25.9741 28.1896 25.884 28.2647 25.7939 28.2647H24.0372L21.4397 25.6804V25.6954ZM27.7008 31.9309L25.1783 29.4216H25.7939C26.5297 29.4216 27.1302 28.8206 27.1302 28.0994V21.338C27.1302 20.6018 26.5297 20.0158 25.7939 20.0158H21.6199C20.8842 20.0158 20.2836 20.6168 20.2836 21.338V24.5685L17.3708 21.6686V19.4298L18.8873 17.9122C19.1425 18.0324 19.4278 18.1226 19.7131 18.1226C20.2085 18.1226 20.704 17.9423 21.0794 17.5667L21.5448 17.1009C21.9052 16.7403 22.1154 16.2595 22.1154 15.7336C22.1154 15.4782 22.0703 15.2378 21.9652 14.9974H23.3015C23.4367 14.9974 23.5718 14.9372 23.6619 14.8471C23.752 14.7569 23.812 14.6217 23.812 14.4865C23.812 14.3512 23.752 14.216 23.6619 14.1259C23.5718 14.0357 23.4367 13.9756 23.3015 13.9756H21.2295C21.2295 13.9756 21.1995 13.9907 21.1695 14.0057L17.3708 10.2193V2.96204C17.3708 2.1056 17.8363 1.26417 18.7672 1.26417H39.7574C40.2079 1.27919 40.6433 1.45949 40.9886 1.77502C41.3189 2.09056 41.5291 2.51128 41.5892 2.96204V19.9257H32.5204C30.7938 19.9257 29.6076 21.4582 29.6076 23.096V31.7356L29.3824 31.9609H27.6858L27.7008 31.9309Z" fill="#245C87"/>
</svg>
