<svg width="37" height="28" viewBox="0 0 37 28" fill="none" xmlns="http://www.w3.org/2000/svg">
<path d="M30.6735 16.4133C32.8585 18.2728 31.7481 20.4395 29.7326 21.1351C29.8704 23.025 28.2172 24.3501 26.7018 24.0966C25.3903 26.6559 24.1091 26.941 21.971 25.1517C21.6955 25.5085 21.4654 25.8997 21.1541 26.2179C20.1815 27.2151 18.8796 27.2289 17.8478 26.284C17.3064 25.7895 16.7718 25.2895 16.072 24.6421C15.7386 25.0429 15.4094 25.4176 15.1077 25.8115C14.0055 27.2399 11.9928 27.1655 10.8866 25.2068C10.8453 25.1324 10.8012 25.0581 10.7612 24.9892C9.01989 25.6173 7.91916 25.1421 7.06089 23.4203C4.49712 23.5498 3.25863 22.226 3.83172 20.0221C3.39639 19.6709 2.92662 19.3747 2.56155 18.9822C1.73497 18.0937 1.70604 17.0042 2.47476 16.0565C2.93488 15.489 3.4639 14.9766 4.02322 14.3719C3.22281 13.6832 2.43067 13.0041 1.63991 12.3209C1.3451 12.066 1.03926 11.8222 0.769245 11.5426C-0.0421813 10.701 -0.123462 9.49575 0.631481 8.6073C1.74736 7.29873 2.87978 6.00118 4.07556 4.76286C5.00133 3.79865 6.16681 3.59479 7.42872 4.0645C7.7525 4.18088 8.06901 4.31657 8.37654 4.47085C9.78585 5.20502 11.18 5.17885 12.5852 4.44881C14.2825 3.56862 15.9852 3.45981 17.7045 4.42815C17.8836 4.5287 18.2376 4.47498 18.436 4.36341C19.6084 3.70223 20.7876 3.67469 21.9931 4.23393C22.7618 4.58931 23.5291 4.95019 24.2882 5.32623C25.2388 5.7987 26.1494 5.70778 27.0324 5.17058C27.7957 4.70639 28.5478 4.22566 29.3069 3.75458C30.6405 2.92811 31.9244 3.12922 32.8998 4.35514C33.7897 5.46352 34.665 6.58384 35.5256 7.71609C36.3907 8.84973 36.3521 10.0853 35.4002 11.1666C33.8435 12.9159 32.2688 14.6377 30.6735 16.4133ZM14.5249 20.2012C16.2497 20.3858 17.6521 21.8032 16.9964 23.8308L18.56 25.2785C19.2226 25.8942 19.7847 25.9052 20.3509 25.3129C20.9171 24.7206 20.913 24.1806 20.249 23.536C19.6304 22.9341 18.9898 22.3542 18.3423 21.7453L19.1593 20.8665C19.4637 21.142 19.7337 21.3762 19.9996 21.62C21.1141 22.6434 22.2162 23.6861 23.3445 24.6875C23.9465 25.2234 24.4811 25.1696 25.0225 24.5884C25.5639 24.0071 25.546 23.4713 24.9949 22.901C24.8351 22.7371 24.6574 22.5911 24.4893 22.4354L20.9006 19.1061L21.7272 18.2136C23.2729 19.6461 24.7786 21.0552 26.3023 22.4437C26.9801 23.0608 27.5077 23.0305 28.0932 22.4037C28.6787 21.777 28.6277 21.2673 27.9555 20.6268C27.206 19.9188 26.4401 19.2315 25.681 18.529C24.7924 17.7122 23.9204 16.8871 23.0015 16.0152L23.8722 15.1887C25.4303 16.624 26.9608 18.0373 28.4969 19.4436C29.1347 20.0263 29.6679 20.018 30.2299 19.4436C30.8237 18.8389 30.8182 18.31 30.1597 17.6681C27.4044 14.9807 24.4907 12.4683 21.2698 10.336C20.4749 9.8098 19.6855 9.81807 18.8741 10.2644C18.4939 10.4737 18.1302 10.7189 17.7389 10.9035C16.5197 11.482 15.1944 11.0054 14.4629 9.74644C13.7906 8.58939 14.0662 7.453 15.2137 6.64031C15.751 6.26014 16.2842 5.87583 16.9619 5.39235C16.4371 5.23395 16.061 5.07967 15.6697 5.0108C14.7963 4.85928 13.9945 5.12513 13.2272 5.51494C11.4611 6.41166 9.68804 6.52598 7.89161 5.59621C7.54257 5.42226 7.1811 5.27447 6.81017 5.15405C6.14477 4.92953 5.49728 5.04937 5.03026 5.548C3.85377 6.80148 2.71997 8.09489 1.59445 9.39381C1.23075 9.80705 1.24728 10.3222 1.6592 10.6941C2.7062 11.6404 3.78902 12.5468 4.88699 13.4945C5.69566 12.6239 6.47265 11.7809 7.74558 12.1267C8.93861 12.4504 9.58747 13.3181 9.84647 14.4683C10.2479 14.4761 10.6427 14.5724 11.0026 14.7504C11.3626 14.9283 11.6788 15.1834 11.9288 15.4976C12.1788 15.8117 12.3564 16.1772 12.4489 16.5678C12.5414 16.9585 12.5465 17.3647 12.464 17.7576C13.6873 18.0813 14.2067 19.0455 14.5249 20.2012ZM29.7657 15.5799C31.332 13.8471 32.8433 12.1873 34.3408 10.5151C35.0461 9.72716 35.064 9.13761 34.4276 8.31115C33.6175 7.25741 32.791 6.21469 31.9754 5.16508C31.3623 4.3758 30.8251 4.26974 29.9572 4.79592C29.2132 5.24772 28.4748 5.70687 27.7419 6.17336C26.3808 7.04666 24.9867 7.05354 23.5636 6.35105C22.8458 5.99843 22.1294 5.63754 21.4034 5.29869C20.6485 4.94606 19.8564 4.93642 19.1634 5.37858C18.0062 6.11964 16.8889 6.92407 15.7827 7.73813C15.2234 8.15137 15.1889 8.67617 15.5871 9.2423C16.1023 9.97509 16.6974 10.1128 17.4868 9.67068C17.7624 9.51503 18.0282 9.3277 18.3134 9.17756C19.4679 8.56322 20.665 8.44338 21.7685 9.20235C23.3693 10.3043 24.9343 11.46 26.4635 12.6694C27.589 13.5633 28.625 14.5702 29.7657 15.5799ZM9.22102 16.051C7.86268 17.4404 6.51719 18.8435 5.18456 20.2604C4.72443 20.7494 4.77127 21.2894 5.25482 21.7756C5.79209 22.3266 6.4203 22.4382 6.88318 21.9712C8.26081 20.5759 9.63845 19.1681 10.9568 17.7012C11.1828 17.4518 11.2572 16.8389 11.1098 16.5372C10.8129 15.9622 9.72074 15.5357 9.22102 16.051ZM7.64088 13.4173C7.34607 13.2796 6.73164 13.4022 6.47816 13.6418C5.42702 14.6308 4.44202 15.6915 3.46941 16.759C2.9707 17.31 3.08505 17.8802 3.71187 18.4298C4.24915 18.8995 4.76438 18.8816 5.27686 18.3568C6.22192 17.3926 7.16697 16.4188 8.09412 15.4325C8.78832 14.6681 8.68571 13.9311 7.64088 13.4173ZM12.3372 19.0387C11.8936 18.748 11.4597 18.9891 11.118 19.3458C10.297 20.2053 9.47681 21.0662 8.65757 21.9285C8.08586 22.5305 8.08999 23.0759 8.66722 23.6517C9.24444 24.2275 9.79274 24.2206 10.392 23.6228C11.2186 22.7963 12.0314 21.9698 12.8235 21.1089C13.6245 20.2054 13.2922 19.6676 12.3372 19.0387ZM15.0539 21.6076C14.631 21.3321 14.1722 21.4795 13.8141 21.8541C13.3085 22.3845 12.7987 22.9106 12.2987 23.4492C11.7476 24.0443 11.7669 24.5608 12.329 25.1214C12.891 25.682 13.4448 25.7137 14.0083 25.1683C14.5718 24.6228 15.1008 24.058 15.616 23.4754C16.2999 22.728 15.8123 22.1059 15.0539 21.6076Z" fill="currentColor" stroke="currentColor" stroke-width="0.1"/>
<ellipse cx="17.4071" cy="8.44604" rx="7.92782" ry="8.15502" fill="#F6F8FA"/>
<path d="M23.6154 6.9633C23.6154 10.3856 20.922 13.1356 17.629 13.1356C14.336 13.1356 11.6426 10.3856 11.6426 6.9633C11.6426 3.54103 14.336 0.791016 17.629 0.791016C20.922 0.791016 23.6154 3.54103 23.6154 6.9633Z" stroke="currentColor"/>
<path d="M19.3999 8.5332C19.3999 8.94727 19.2502 9.2806 18.9507 9.5332C18.6512 9.7832 18.2319 9.93294 17.6929 9.98242V10.7832H17.1577V9.99805C16.5223 9.98503 15.965 9.87305 15.4858 9.66211V8.63086C15.7124 8.74284 15.9845 8.8418 16.3022 8.92773C16.6226 9.01367 16.9077 9.06445 17.1577 9.08008V7.86914L16.896 7.76758C16.3804 7.56445 16.0145 7.3444 15.7983 7.10742C15.5848 6.86784 15.478 6.57227 15.478 6.2207C15.478 5.8431 15.6252 5.5332 15.9194 5.29102C16.2163 5.04622 16.6291 4.89779 17.1577 4.8457V4.24805H17.6929V4.83008C18.2892 4.85612 18.8283 4.97591 19.3101 5.18945L18.9429 6.10352C18.5366 5.93685 18.12 5.83529 17.6929 5.79883V6.95117C18.2007 7.14648 18.5614 7.31576 18.7749 7.45898C18.991 7.60221 19.1486 7.75977 19.2476 7.93164C19.3491 8.10352 19.3999 8.30404 19.3999 8.5332ZM18.2241 8.5918C18.2241 8.48242 18.1799 8.38997 18.0913 8.31445C18.0028 8.23893 17.87 8.16081 17.6929 8.08008V9.05273C18.047 8.99284 18.2241 8.83919 18.2241 8.5918ZM16.6538 6.2207C16.6538 6.33529 16.6929 6.43034 16.771 6.50586C16.8517 6.57878 16.9806 6.6543 17.1577 6.73242V5.81445C16.8218 5.86393 16.6538 5.99935 16.6538 6.2207Z" fill="currentColor"/>
</svg>
