<svg width="37" height="38" viewBox="0 0 37 38" fill="none" xmlns="http://www.w3.org/2000/svg">
<path fill-rule="evenodd" clip-rule="evenodd" d="M22.0575 11.6353C22.7772 11.4267 23.5314 11.3793 24.2699 11.4959C25.0083 11.6126 25.7156 11.8909 26.3437 12.3137C26.972 12.7366 27.5071 13.2945 27.9114 13.9514C28.3158 14.6085 28.5795 15.3486 28.6834 16.122C28.7874 16.8955 28.7289 17.6828 28.5123 18.4304C28.2957 19.1779 27.9265 19.8671 27.4311 20.4521C26.9357 21.0369 26.3261 21.5038 25.6442 21.823C24.9625 22.1422 24.2235 22.3069 23.4767 22.307C22.9244 22.307 22.4767 22.7548 22.4768 23.3071C22.4769 23.7299 22.7393 24.0915 23.1102 24.2377C23.129 24.245 23.148 24.2519 23.1672 24.2581C23.265 24.29 23.3695 24.3072 23.478 24.3071C25.0115 24.306 26.524 24.6849 27.8877 25.4134C29.2516 26.142 30.4277 27.1995 31.3144 28.4987C31.6257 28.9549 32.2479 29.0723 32.7041 28.7609C33.1602 28.4496 33.2776 27.8274 32.9663 27.3713C31.9003 25.8094 30.4822 24.5319 28.8301 23.6493C28.4028 23.421 27.9631 23.221 27.5138 23.0498C28.0485 22.683 28.5341 22.2443 28.9573 21.7446C29.6364 20.9427 30.1392 20.0021 30.4333 18.9869C30.7274 17.9718 30.8065 16.9042 30.6656 15.8556C30.5247 14.8071 30.1668 13.8003 29.6147 12.9032C29.0625 12.006 28.3285 11.2387 27.4605 10.6545C26.5924 10.0702 25.6109 9.68297 24.582 9.52043C23.553 9.35788 22.5022 9.42411 21.5008 9.71433C20.9703 9.86807 20.6649 10.4227 20.8187 10.9532C20.9724 11.4836 21.5271 11.789 22.0575 11.6353ZM8.41131 16.871C8.41131 13.842 10.7912 11.4351 13.668 11.4351C16.5447 11.4351 18.9246 13.842 18.9246 16.871C18.9246 19.9 16.5447 22.307 13.668 22.307C10.7912 22.307 8.41131 19.9 8.41131 16.871ZM13.668 9.43506C9.63378 9.43506 6.41131 12.7911 6.41131 16.871C6.41131 19.4349 7.68389 21.7129 9.63079 23.0519C9.18176 23.2231 8.74234 23.4232 8.31522 23.6514C6.66352 24.5338 5.2454 25.8105 4.17864 27.3714C3.86702 27.8274 3.98403 28.4496 4.44 28.7613C4.89597 29.0729 5.51822 28.9559 5.82985 28.4999C6.71742 27.2012 7.89378 26.1441 9.25769 25.4154C10.6214 24.6867 12.1338 24.3072 13.6674 24.3071C15.2011 24.3071 16.7135 24.6865 18.0773 25.415C19.4412 26.1436 20.6177 27.2007 21.5053 28.4993C21.817 28.9552 22.4393 29.0722 22.8952 28.7605C23.3512 28.4489 23.4681 27.8266 23.1565 27.3707C22.0896 25.8099 20.6714 24.5333 19.0196 23.6509C18.5928 23.4229 18.1537 23.2231 17.705 23.052C19.652 21.713 20.9246 19.435 20.9246 16.871C20.9246 12.7911 17.7021 9.43506 13.668 9.43506Z" fill="currentColor"/>
<path d="M35.5934 18.7154C35.5934 28.3946 27.9726 36.1925 18.631 36.1925C9.28945 36.1925 1.6687 28.3946 1.6687 18.7154C1.6687 9.03623 9.28945 1.23828 18.631 1.23828C27.9726 1.23828 35.5934 9.03623 35.5934 18.7154Z" stroke="currentColor" stroke-width="2"/>
</svg>
