<svg class='partner-icon' width="39" height="26" viewBox="0 0 39 26" fill="none" xmlns="http://www.w3.org/2000/svg">
<path d="M32.5391 14.0072C34.8383 15.9383 33.6698 18.1883 31.5489 18.9107C31.6939 20.8732 29.9543 22.2493 28.3596 21.9861C26.9795 24.6438 25.6313 24.9399 23.3814 23.0818C23.0914 23.4522 22.8493 23.8585 22.5217 24.1889C21.4982 25.2245 20.1282 25.2388 19.0424 24.2576C18.4727 23.7441 17.9102 23.2248 17.1738 22.5525C16.8229 22.9688 16.4765 23.3578 16.159 23.7669C14.9992 25.2503 12.8812 25.173 11.7171 23.139C11.6736 23.0617 11.6272 22.9845 11.5852 22.913C9.75279 23.5652 8.59448 23.0718 7.69132 21.2837C4.99344 21.4182 3.69017 20.0436 4.29324 17.7549C3.83514 17.3901 3.34079 17.0826 2.95662 16.6749C2.08681 15.7523 2.05636 14.6208 2.86529 13.6367C3.34949 13.0474 3.90617 12.5153 4.49475 11.8873C3.65248 11.1721 2.8189 10.4669 1.98678 9.75742C1.67654 9.49279 1.35471 9.23961 1.07057 8.94923C0.216698 8.07525 0.131167 6.82363 0.925599 5.90101C2.09985 4.54211 3.2915 3.19466 4.54983 1.90871C5.52403 0.907421 6.75047 0.695719 8.07839 1.18349C8.41911 1.30434 8.75217 1.44526 9.07578 1.60547C10.5588 2.36788 12.0259 2.3407 13.5046 1.58258C15.2906 0.668542 17.0824 0.55554 18.8917 1.56112C19.0801 1.66554 19.4527 1.60976 19.6614 1.49389C20.8951 0.807293 22.1361 0.778684 23.4046 1.35943C24.2135 1.72848 25.021 2.10325 25.8197 2.49376C26.82 2.98439 27.7783 2.88998 28.7075 2.33212C29.5107 1.85007 30.3022 1.35085 31.101 0.861647C32.5043 0.00339615 33.8554 0.212239 34.8818 1.48531C35.8183 2.63632 36.7393 3.79973 37.6449 4.97553C38.5553 6.15277 38.5147 7.43585 37.513 8.55873C35.8748 10.3754 34.2178 12.1634 32.5391 14.0072ZM15.5458 17.9408C17.3608 18.1325 18.8366 19.6044 18.1465 21.71L19.7919 23.2134C20.4892 23.8528 21.0807 23.8642 21.6765 23.2491C22.2723 22.634 22.268 22.0733 21.5692 21.4039C20.9183 20.7788 20.2442 20.1766 19.5629 19.5443L20.4225 18.6317C20.7429 18.9178 21.0271 19.161 21.3068 19.4142C22.4796 20.477 23.6394 21.5598 24.8267 22.5997C25.4602 23.1561 26.0227 23.1004 26.5924 22.4967C27.1622 21.8931 27.1433 21.3367 26.5634 20.7445C26.3953 20.5742 26.2083 20.4226 26.0314 20.261L22.2549 16.8037L23.1248 15.8767C24.7513 17.3644 26.3358 18.8277 27.9392 20.2696C28.6524 20.9104 29.2077 20.8789 29.8238 20.2281C30.4399 19.5772 30.3863 19.048 29.6788 18.3828C28.8902 17.6476 28.0842 16.9338 27.2854 16.2043C26.3503 15.3561 25.4327 14.4993 24.4657 13.5938L25.3819 12.7356C27.0215 14.226 28.6322 15.6937 30.2486 17.1541C30.9198 17.7592 31.4808 17.7506 32.0723 17.1541C32.6971 16.5262 32.6913 15.9769 31.9983 15.3103C29.099 12.5196 26.0329 9.91047 22.6435 7.69619C21.807 7.14977 20.9763 7.15835 20.1224 7.62181C19.7223 7.83923 19.3396 8.09385 18.9279 8.28552C17.6449 8.8863 16.2503 8.39137 15.4805 7.08397C14.7731 5.88242 15.063 4.70232 16.2706 3.85838C16.836 3.46358 17.397 3.06449 18.1103 2.56242C17.5579 2.39792 17.1622 2.23771 16.7505 2.16619C15.8314 2.00884 14.9876 2.28491 14.1802 2.68972C12.3216 3.62092 10.4559 3.73965 8.56549 2.77412C8.19819 2.59348 7.81781 2.44 7.42748 2.31495C6.72728 2.08179 6.04592 2.20624 5.55447 2.72405C4.31643 4.02574 3.12334 5.3689 1.93894 6.71778C1.55622 7.14691 1.57361 7.68188 2.00707 8.0681C3.10884 9.05079 4.2483 9.99201 5.4037 10.9761C6.25467 10.0721 7.0723 9.19669 8.41182 9.55573C9.66725 9.89188 10.3501 10.793 10.6226 11.9874C11.045 11.9956 11.4605 12.0956 11.8392 12.2803C12.218 12.4651 12.5508 12.73 12.8139 13.0563C13.0769 13.3825 13.2638 13.762 13.3611 14.1677C13.4585 14.5734 13.4639 14.9953 13.377 15.4033C14.6644 15.7394 15.2109 16.7407 15.5458 17.9408ZM31.5837 13.1418C33.232 11.3423 34.8223 9.61867 36.3982 7.88214C37.1404 7.06394 37.1593 6.45172 36.4895 5.59347C35.6371 4.4992 34.7673 3.41638 33.909 2.3264C33.2639 1.50677 32.6985 1.39662 31.7852 1.94304C31.0024 2.41222 30.2254 2.88903 29.4541 3.37346C28.0218 4.28035 26.5547 4.2875 25.0572 3.55799C24.3019 3.1918 23.5481 2.81703 22.7841 2.46515C21.9897 2.09896 21.1561 2.08895 20.4269 2.54811C19.2091 3.31768 18.0334 4.15304 16.8693 4.99842C16.2808 5.42754 16.2445 5.97253 16.6635 6.56043C17.2057 7.32142 17.8319 7.46446 18.6626 7.0053C18.9525 6.84366 19.2323 6.64912 19.5324 6.4932C20.7473 5.85524 22.007 5.73079 23.1683 6.51895C24.8528 7.66329 26.4997 8.86341 28.1088 10.1193C29.2932 11.0477 30.3834 12.0933 31.5837 13.1418ZM9.96444 13.631C8.53504 15.0738 7.11917 16.5309 5.71684 18.0024C5.23264 18.5102 5.28193 19.0709 5.79077 19.5758C6.35615 20.148 7.01721 20.2638 7.50431 19.7789C8.95401 18.3299 10.4037 16.868 11.7911 15.3446C12.0288 15.0857 12.1071 14.4492 11.952 14.1359C11.6396 13.5388 10.4903 13.0959 9.96444 13.631ZM8.30164 10.896C7.99141 10.753 7.34484 10.8803 7.0781 11.1292C5.97198 12.1562 4.93545 13.2577 3.91197 14.3662C3.38718 14.9384 3.5075 15.5306 4.16711 16.1013C4.7325 16.5891 5.27468 16.5705 5.81397 16.0255C6.80846 15.0242 7.80295 14.0129 8.77859 12.9887C9.5091 12.1949 9.40112 11.4296 8.30164 10.896ZM13.2436 16.7336C12.7768 16.4318 12.3202 16.6821 11.9607 17.0526C11.0967 17.9451 10.2336 18.8391 9.37152 19.7346C8.76989 20.3597 8.77424 20.9261 9.38166 21.524C9.98909 22.122 10.5661 22.1148 11.1967 21.494C12.0665 20.6358 12.9218 19.7775 13.7554 18.8835C14.5983 17.9452 14.2486 17.3867 13.2436 16.7336ZM16.1024 19.4013C15.6574 19.1152 15.1746 19.2683 14.7977 19.6573C14.2657 20.2081 13.7293 20.7545 13.2031 21.3138C12.6232 21.9317 12.6435 22.4681 13.235 23.0503C13.8264 23.6325 14.4092 23.6654 15.0021 23.0989C15.5951 22.5325 16.1517 21.946 16.6939 21.341C17.4136 20.5648 16.9005 19.9188 16.1024 19.4013Z" fill="currentColor" stroke="currentColor" stroke-width="0.1"/>
</svg>
