<svg width="37" height="38" viewBox="0 0 37 38" fill="none" xmlns="http://www.w3.org/2000/svg">
<path fill-rule="evenodd" clip-rule="evenodd" d="M18.8422 2.14062C9.98456 2.14062 2.7561 9.53504 2.7561 18.7164C2.7561 23.0229 4.34636 26.9362 6.94911 29.8777C8.04723 28.1864 9.49058 26.7507 11.1879 25.6762C12.1048 25.0958 13.0804 24.6306 14.0939 24.2869C11.8636 22.8238 10.3946 20.2602 10.3946 17.3644C10.3946 12.8566 13.9542 9.15381 18.4043 9.15381C22.8544 9.15381 26.414 12.8566 26.414 17.3644C26.414 20.2603 24.9449 22.8239 22.7144 24.2871C23.7277 24.6308 24.7032 25.0959 25.6199 25.6762C27.5041 26.8689 29.0753 28.5069 30.2087 30.4455C33.122 27.4493 34.9284 23.3062 34.9284 18.7164C34.9284 9.53504 27.6999 2.14062 18.8422 2.14062ZM28.6894 31.8238C27.7026 29.9943 26.2768 28.4591 24.5502 27.3661C22.7018 26.196 20.5791 25.5773 18.4161 25.575C18.4122 25.575 18.4082 25.575 18.4043 25.575C18.4002 25.575 18.3962 25.575 18.3921 25.575C16.229 25.5772 14.1062 26.1959 12.2576 27.3661C10.6898 28.3586 9.37009 29.7156 8.40182 31.3265C11.2154 33.801 14.8645 35.2922 18.8422 35.2922C22.5459 35.2922 25.9647 33.9994 28.6894 31.8238ZM7.03162 32.7856C10.1966 35.5921 14.3214 37.2922 18.8422 37.2922C28.8574 37.2922 36.9284 28.9487 36.9284 18.7164C36.9284 8.48411 28.8574 0.140625 18.8422 0.140625C8.82709 0.140625 0.756104 8.48411 0.756104 18.7164C0.756104 23.8168 2.76142 28.4478 6.01325 31.8102C6.02244 32.1699 6.22599 32.5125 6.57113 32.6825C6.71941 32.7556 6.87701 32.7885 7.03162 32.7856ZM18.4154 23.575C21.703 23.5688 24.414 20.8173 24.414 17.3644C24.414 13.9076 21.6969 11.1538 18.4043 11.1538C15.1117 11.1538 12.3946 13.9076 12.3946 17.3644C12.3946 20.8173 15.1055 23.5687 18.393 23.575C18.3966 23.575 18.4003 23.575 18.4039 23.575C18.4077 23.575 18.4115 23.575 18.4154 23.575Z" fill="currentColor"/>
</svg>
