<svg width="59" height="59" viewBox="0 0 59 59" fill="none" xmlns="http://www.w3.org/2000/svg">
<g clip-path="url(#clip0_935_1951)">
<path d="M29.5467 59C29.5467 59 29.4968 59 29.4781 59C21.5873 58.9813 14.1709 55.9043 8.60863 50.3307C3.04012 44.7571 -0.0125694 37.3486 -8.39227e-05 29.4782C0.0124015 21.5828 3.09007 14.1742 8.66482 8.6069C14.2208 3.05829 21.606 0 29.4531 0C29.4718 0 29.4906 0 29.5155 0C37.4063 0.0124828 44.8227 3.09574 50.3912 8.66931C55.966 14.2429 59.0186 21.6514 58.9999 29.5156C58.9562 45.7869 45.7529 59 29.5467 59ZM29.4531 2.28435C22.2115 2.28435 15.4007 5.10547 10.2754 10.2234C5.13144 15.3601 2.29724 22.2007 2.28475 29.4844C2.27227 36.7494 5.09398 43.5775 10.2255 48.7204C15.3633 53.8633 22.199 56.7032 29.4843 56.7219C29.503 56.7219 29.528 56.7219 29.5467 56.7219C44.4981 56.7219 56.6776 44.5324 56.7151 29.5156H57.8575H56.7151C56.7338 22.2631 53.9121 15.435 48.7743 10.2921C43.6303 5.14916 36.7883 2.30308 29.5093 2.2906C29.4906 2.2906 29.4718 2.2906 29.4531 2.2906V2.28435Z" fill="#67BEA1"/>
<path d="M36.7072 43.3465C36.5948 43.8209 36.4699 44.3888 36.3201 44.9506C36.2889 45.0629 36.1578 45.2002 36.0454 45.2377C34.491 45.7682 32.9678 46.4485 31.3696 46.7668C29.5655 47.1226 27.7114 47.0539 26.0758 45.9741C24.64 45.0192 24.0532 43.6461 24.1281 41.9547C24.2155 39.92 24.846 38.0101 25.3766 36.069C25.8823 34.2091 26.3879 32.3492 26.8312 30.4705C26.9748 29.8713 26.956 29.216 26.9186 28.5918C26.8686 27.6743 26.4254 27.2624 25.5327 27.0877C24.3903 26.863 23.3165 27.1189 22.249 27.4871C22.1367 27.5246 22.0243 27.5495 21.8058 27.6057C21.9619 26.9566 22.093 26.3699 22.2553 25.7957C22.2865 25.6833 22.4238 25.5647 22.5424 25.5148C24.4777 24.7783 26.3879 23.9233 28.498 23.8546C30.2584 23.7984 31.9502 24.0606 33.2362 25.4649C34.0852 26.3886 34.3474 27.4996 34.3287 28.7229C34.2975 30.9324 33.5109 32.9733 32.9803 35.0766C32.4621 37.1176 31.9565 39.171 31.5444 41.2369C31.2323 42.791 31.8503 43.6399 33.4048 43.7085C34.4723 43.7584 35.5585 43.4838 36.7072 43.3465Z" fill="#67BEA1"/>
<path d="M32.8491 20.1846C30.3583 20.1659 28.423 18.2935 28.5104 15.9717C28.5728 14.1367 29.965 12.5826 31.9439 12.1395C34.029 11.6714 36.3201 12.8822 36.988 14.817C37.837 17.2761 36.1203 19.9225 33.5233 20.1472C33.2986 20.1659 33.0801 20.1721 32.8554 20.1846H32.8491Z" fill="#67BEA1"/>
</g>
<defs>
<clipPath id="clip0_935_1951">
<rect width="59" height="59" fill="white"/>
</clipPath>
</defs>
</svg>
