<svg id="Layer_3" data-name="Layer 3" xmlns="http://www.w3.org/2000/svg" viewBox="0 0 130.84 130.84"><defs><style>.cls-1{fill:#e7fef8;}.cls-2{fill:#10f9b7;}</style></defs><rect class="cls-1" x="24.38" y="23.92" width="82" height="95" rx="10"/><path class="cls-2" d="M106.38,108.38a10.54,10.54,0,0,1-3,7.46A10.63,10.63,0,0,1,95.93,119h-61a10.58,10.58,0,0,1-7.44-3.09,10.46,10.46,0,0,1-3.08-7.41V32.58A10.5,10.5,0,0,1,34.9,22.1h61a10.52,10.52,0,0,1,10.53,10.48ZM102,30.71a4.58,4.58,0,0,0-.36-1.79,4.66,4.66,0,0,0-1-1.51,4.87,4.87,0,0,0-1.52-1,4.79,4.79,0,0,0-1.79-.35H33.4a4.64,4.64,0,0,0-4.66,4.66v79.6a4.74,4.74,0,0,0,.35,1.78A4.68,4.68,0,0,0,33.4,115h64a4.68,4.68,0,0,0,4.68-4.66Z"/><path class="cls-2" d="M40.57,117.46a1.56,1.56,0,0,1-1.08-.44,1.52,1.52,0,0,1-.44-1.07V25.17a1.52,1.52,0,0,1,.44-1.07,1.56,1.56,0,0,1,1.08-.44,1.52,1.52,0,0,1,1.07.44,1.49,1.49,0,0,1,.45,1.07V116a1.49,1.49,0,0,1-.45,1.07A1.52,1.52,0,0,1,40.57,117.46Z"/><path class="cls-2" d="M79.76,17.6H74.49a10.1,10.1,0,0,0-18.22,0H51a2.28,2.28,0,0,0-1.6.54,2.2,2.2,0,0,0-.77,1.51v8.61a2.21,2.21,0,0,0,2.37,2H79.75a2.22,2.22,0,0,0,1.6-.53,2.19,2.19,0,0,0,.76-1.51V19.65a2.18,2.18,0,0,0-.75-1.5A2.28,2.28,0,0,0,79.76,17.6Z"/><path class="cls-2" d="M49.83,44.91A3.89,3.89,0,1,0,45.93,41,3.89,3.89,0,0,0,49.83,44.91Z"/><path class="cls-2" d="M93.31,38.6H61.08a2.43,2.43,0,1,0,0,4.85H93.31a2.43,2.43,0,1,0,0-4.85Z"/><path class="cls-2" d="M49.83,58.15a3.89,3.89,0,1,0-3.9-3.89A3.89,3.89,0,0,0,49.83,58.15Z"/><path class="cls-2" d="M93.31,51.84H61.08a2.43,2.43,0,1,0,0,4.85H93.31a2.43,2.43,0,1,0,0-4.85Z"/><path class="cls-2" d="M49.83,70.68a3.89,3.89,0,1,0-3.9-3.89A3.89,3.89,0,0,0,49.83,70.68Z"/><path class="cls-2" d="M93.31,64.37H61.08a2.42,2.42,0,1,0,0,4.84H93.31a2.42,2.42,0,1,0,0-4.84Z"/><path class="cls-2" d="M49.83,82.72a3.89,3.89,0,1,0-3.9-3.88A3.89,3.89,0,0,0,49.83,82.72Z"/><path class="cls-2" d="M93.31,76.41H61.08a2.43,2.43,0,1,0,0,4.85H93.31a2.43,2.43,0,1,0,0-4.85Z"/><path class="cls-2" d="M84.44,86.45a12.63,12.63,0,0,0-11.7,7.79A12.6,12.6,0,0,0,75.48,108a12.7,12.7,0,0,0,13.8,2.73,12.62,12.62,0,0,0-4.84-24.27ZM92.12,95l-8.65,11.11a2.26,2.26,0,0,1-.76.49,2.22,2.22,0,0,1-.88.16,2.33,2.33,0,0,1-.83-.18,2.06,2.06,0,0,1-.69-.47l-3.39-3a2.25,2.25,0,0,1-.65-1.57,2.23,2.23,0,0,1,.65-1.56,2.29,2.29,0,0,1,1.52-.65A2.22,2.22,0,0,1,80,100l1.84,1.61L89,92a2.12,2.12,0,0,1,2.73-.24,2.17,2.17,0,0,1,.79,1A2.14,2.14,0,0,1,92.62,94,2.22,2.22,0,0,1,92,95.12Z"/></svg>