<svg width="100" height="101" viewBox="0 0 100 101" fill="none" xmlns="http://www.w3.org/2000/svg">
<circle opacity="0.1" cx="44.3661" cy="56.4452" r="44.3661" fill="#3176AE"/>
<g clip-path="url(#clip0_905_2308)">
<path d="M97.6062 12.5708C96.0723 11.0817 94.027 10.2341 91.8655 10.2341H82.2435V8.28681C82.197 7.57663 81.8484 6.91226 81.2906 6.43117C80.756 5.97299 80.0588 5.7439 79.3383 5.76681H75.9217C75.2012 4.52971 74.2018 3.4988 72.97 2.7428C70.1345 0.978799 66.3461 0.978799 63.5107 2.7428C62.2789 3.4988 61.2795 4.55262 60.559 5.76681H57.1889C56.4452 5.72099 55.7479 5.95008 55.1901 6.43117C54.6323 6.91226 54.2837 7.55372 54.2372 8.35554V10.2112H44.7546C42.5931 10.2112 40.5246 11.0588 39.0139 12.5479C37.48 14.037 36.6432 16.0759 36.6432 18.1836V75.9375C36.6432 78.0451 37.5032 80.084 39.0139 81.5731C40.5479 83.0622 42.5931 83.9098 44.7546 83.9098H91.8655C92.9347 83.9098 93.9805 83.6808 94.9799 83.2684C95.9561 82.856 96.8625 82.2604 97.6062 81.5044C98.35 80.7484 98.9543 79.8778 99.3494 78.8927C99.7445 77.9306 99.9537 76.8767 99.9304 75.8229L100 18.1377C100 16.0301 99.1402 13.9912 97.6295 12.5021L97.6062 12.5708ZM56.3987 8.44717C56.3987 8.28681 56.4917 8.12645 56.6311 8.0119C56.7473 7.89736 56.91 7.85154 57.1192 7.85154H61.9302L62.2091 7.2559C62.7437 6.13335 63.6036 5.17117 64.696 4.50681C66.8575 3.17808 69.7394 3.15517 71.9009 4.50681C72.97 5.17117 73.83 6.13335 74.3878 7.2559L74.6667 7.85154H79.4545C79.6404 7.85154 79.8031 7.89736 79.9425 8.0119C80.082 8.12645 80.1517 8.28681 80.175 8.37845V14.8617C80.175 15.0221 80.082 15.1825 79.9658 15.297C79.8263 15.4115 79.6636 15.4574 79.408 15.4574H57.096C56.9333 15.4574 56.7473 15.4115 56.6311 15.297C56.4917 15.1825 56.4219 15.0221 56.4219 14.9305V8.44717H56.3987ZM43.1509 80.9088C42.6396 80.9088 42.1283 80.8171 41.6402 80.6339C41.1521 80.4506 40.7338 80.1986 40.3619 79.8549C39.9901 79.5342 39.7112 79.1448 39.502 78.7095C39.2928 78.2742 39.1998 77.816 39.1998 77.3578V16.7861C39.1998 16.3279 39.2928 15.8697 39.502 15.4345C39.7112 14.9992 39.9901 14.6097 40.3619 14.289C40.7338 13.9683 41.1754 13.6934 41.6402 13.5101C42.1283 13.3268 42.6396 13.2352 43.1509 13.2352H47.9387V80.9088H43.1509ZM96.3512 79.8778C95.6539 80.5422 94.701 80.9088 93.7249 80.9088H49.7981V13.2352H53.9118V14.9992C53.9583 15.7323 54.3069 16.3966 54.888 16.8548C55.4225 17.2901 56.0733 17.5192 56.7008 17.5192C56.7706 17.5192 56.8171 17.5192 56.8868 17.5192H79.6404C80.4074 17.5879 81.1279 17.3359 81.7089 16.8548C82.29 16.3737 82.6386 15.7094 82.6851 14.9075V13.2352H93.6784C94.1665 13.2352 94.6545 13.3268 95.0961 13.5101C95.5377 13.6934 95.9561 13.9454 96.3047 14.289C96.6533 14.6097 96.9322 14.9992 97.1182 15.4345C97.3041 15.8697 97.3971 16.3279 97.3971 16.7861V77.3578C97.4203 78.2971 97.0252 79.1906 96.3279 79.8549L96.3512 79.8778Z" fill="#6DB5B0"/>
<path d="M56.2592 21.6659C54.5858 21.6659 53.2377 22.9946 53.2377 24.6212C53.2377 26.2477 54.5858 27.5764 56.2592 27.5764C57.9326 27.5764 59.2806 26.2477 59.2806 24.6212C59.2806 22.9946 57.9326 21.6659 56.2592 21.6659Z" fill="#6DB5B0"/>
<path d="M64.9518 26.4706H89.8204C90.8663 26.4706 91.703 25.6459 91.703 24.6379C91.703 23.6299 90.8663 22.8052 89.8204 22.8052H64.9518C63.9059 22.8052 63.0692 23.6299 63.0692 24.6379C63.0692 25.6459 63.9059 26.4706 64.9518 26.4706Z" fill="#6DB5B0"/>
<path d="M56.2592 31.7393C54.5858 31.7393 53.2377 33.068 53.2377 34.6945C53.2377 36.3211 54.5858 37.6498 56.2592 37.6498C57.9326 37.6498 59.2806 36.3211 59.2806 34.6945C59.2806 33.068 57.9326 31.7393 56.2592 31.7393Z" fill="#6DB5B0"/>
<path d="M64.9515 36.5533H89.8201C90.866 36.5533 91.7027 35.7285 91.7027 34.7205C91.7027 33.7125 90.866 32.8878 89.8201 32.8878H64.9515C63.9056 32.8878 63.0689 33.7125 63.0689 34.7205C63.0689 35.7285 63.9056 36.5533 64.9515 36.5533Z" fill="#6DB5B0"/>
<path d="M56.2592 41.27C54.5858 41.27 53.2377 42.5988 53.2377 44.2253C53.2377 45.8518 54.5858 47.1806 56.2592 47.1806C57.9326 47.1806 59.2806 45.8518 59.2806 44.2253C59.2806 42.5988 57.9326 41.27 56.2592 41.27Z" fill="#6DB5B0"/>
<path d="M64.9518 46.0839H89.8204C90.8663 46.0839 91.703 45.2592 91.703 44.2512C91.703 43.2432 90.8663 42.4185 89.8204 42.4185H64.9518C63.9059 42.4185 63.0692 43.2432 63.0692 44.2512C63.0692 45.2592 63.9059 46.0839 64.9518 46.0839Z" fill="#6DB5B0"/>
<path d="M56.2592 50.4391C54.5858 50.4391 53.2377 51.7678 53.2377 53.3944C53.2377 55.0209 54.5858 56.3496 56.2592 56.3496C57.9326 56.3496 59.2806 55.0209 59.2806 53.3944C59.2806 51.7678 57.9326 50.4391 56.2592 50.4391Z" fill="#6DB5B0"/>
<path d="M91.703 53.3932C91.703 52.3852 90.8663 51.5604 89.8204 51.5604H64.9518C63.9059 51.5604 63.0692 52.3852 63.0692 53.3932C63.0692 54.4012 63.9059 55.2259 64.9518 55.2259H89.8204C90.8663 55.2259 91.703 54.4012 91.703 53.3932Z" fill="#6DB5B0"/>
<path d="M89.9132 62.0011C89.0068 61.1076 87.9376 60.3974 86.7523 59.9163C85.567 59.4352 84.2887 59.1832 83.0104 59.1832C81.0813 59.1832 79.1755 59.756 77.5718 60.8098C75.9682 61.8636 74.7131 63.3756 73.9694 65.1167C73.2256 66.8807 73.0397 68.8051 73.4116 70.6607C73.7834 72.5163 74.7131 74.2345 76.0844 75.5862C77.4556 76.9378 79.1988 77.8542 81.0813 78.2207C82.9872 78.5873 84.9395 78.404 86.7291 77.6709C88.5187 76.9378 90.0526 75.7236 91.1218 74.1429C92.1909 72.5622 92.7719 70.7065 92.7719 68.8051C92.7719 67.5451 92.5163 66.2851 92.0282 65.1396C91.5401 63.9941 90.8196 62.9174 89.9132 62.024V62.0011ZM89.3089 64.9334C89.2392 65.2541 89.0765 65.552 88.8441 65.7811L88.9138 65.7352L82.2202 74.1887C82.0575 74.3491 81.8483 74.4865 81.6391 74.5782C81.43 74.6698 81.1976 74.6927 80.9419 74.6927C80.7327 74.6927 80.5003 74.6469 80.3144 74.5553C80.1052 74.4636 79.9425 74.3491 79.7798 74.1887L77.1767 71.8749C76.8514 71.5542 76.6887 71.1189 76.6887 70.6836C76.6887 70.2483 76.8746 69.8131 77.1767 69.4923C77.5021 69.1945 77.9205 69.0112 78.3388 68.9883C78.7804 68.9883 79.1988 69.1716 79.5009 69.4694L80.9187 70.6836L86.4734 63.3985C86.7756 63.1007 87.2172 62.9174 87.6355 62.9174C87.9609 62.9174 88.2863 63.032 88.5652 63.2152C88.8441 63.3985 89.0532 63.6505 89.1695 63.9712C89.2857 64.2691 89.3321 64.6127 89.2624 64.9334H89.3089Z" fill="#6DB5B0"/>
</g>
<g opacity="0.5">
<g clip-path="url(#clip1_905_2308)">
<path d="M96.1979 11.1602C94.6639 9.67108 92.6186 8.82344 90.4572 8.82344H80.8351V6.87617C80.7886 6.16598 80.44 5.50162 79.8822 5.02053C79.3476 4.56234 78.6504 4.33325 77.9299 4.35616H74.5133C73.7929 3.11907 72.7935 2.08816 71.5616 1.33216C68.7262 -0.431845 64.9378 -0.431845 62.1023 1.33216C60.8705 2.08816 59.8711 3.14198 59.1506 4.35616H55.7805C55.0368 4.31034 54.3395 4.53944 53.7817 5.02053C53.2239 5.50162 52.8753 6.14307 52.8288 6.94489V8.80053H43.3462C41.1847 8.80053 39.1162 9.64817 37.6055 11.1373C36.0716 12.6264 35.2349 14.6653 35.2349 16.7729V74.5268C35.2349 76.6345 36.0948 78.6734 37.6055 80.1625C39.1395 81.6516 41.1847 82.4992 43.3462 82.4992H90.4572C91.5263 82.4992 92.5722 82.2701 93.5715 81.8577C94.5477 81.4454 95.4541 80.8497 96.1979 80.0937C96.9416 79.3377 97.5459 78.4672 97.941 77.4821C98.3361 76.5199 98.5453 75.4661 98.522 74.4123L98.5918 16.7271C98.5918 14.6195 97.7318 12.5805 96.2211 11.0914L96.1979 11.1602ZM54.9903 7.03653C54.9903 6.87617 55.0833 6.7158 55.2227 6.60126C55.3389 6.48671 55.5016 6.44089 55.7108 6.44089H60.5218L60.8007 5.84526C61.3353 4.72271 62.1952 3.76053 63.2876 3.09616C65.4491 1.76743 68.3311 1.74452 70.4925 3.09616C71.5616 3.76053 72.4216 4.72271 72.9794 5.84526L73.2583 6.44089H78.0461C78.232 6.44089 78.3947 6.48671 78.5342 6.60126C78.6736 6.7158 78.7433 6.87617 78.7666 6.9678V13.4511C78.7666 13.6115 78.6736 13.7718 78.5574 13.8864C78.4179 14.0009 78.2553 14.0467 77.9996 14.0467H55.6876C55.5249 14.0467 55.3389 14.0009 55.2227 13.8864C55.0833 13.7718 55.0136 13.6115 55.0136 13.5198V7.03653H54.9903ZM41.7425 79.4981C41.2312 79.4981 40.7199 79.4065 40.2318 79.2232C39.7438 79.0399 39.3254 78.7879 38.9535 78.4443C38.5817 78.1236 38.3028 77.7341 38.0936 77.2988C37.8844 76.8636 37.7915 76.4054 37.7915 75.9472V15.3755C37.7915 14.9173 37.8844 14.4591 38.0936 14.0238C38.3028 13.5885 38.5817 13.1991 38.9535 12.8784C39.3254 12.5576 39.767 12.2827 40.2318 12.0994C40.7199 11.9162 41.2312 11.8245 41.7425 11.8245H46.5303V79.4981H41.7425ZM94.9428 78.4672C94.2456 79.1316 93.2926 79.4981 92.3165 79.4981H48.3897V11.8245H52.5035V13.5885C52.5499 14.3216 52.8986 14.986 53.4796 15.4442C54.0142 15.8795 54.6649 16.1085 55.2925 16.1085C55.3622 16.1085 55.4087 16.1085 55.4784 16.1085H78.232C78.999 16.1773 79.7195 15.9253 80.3005 15.4442C80.8816 14.9631 81.2302 14.2987 81.2767 13.4969V11.8245H92.27C92.7581 11.8245 93.2462 11.9162 93.6878 12.0994C94.1293 12.2827 94.5477 12.5347 94.8963 12.8784C95.2449 13.1991 95.5238 13.5885 95.7098 14.0238C95.8957 14.4591 95.9887 14.9173 95.9887 15.3755V75.9472C96.0119 76.8865 95.6168 77.7799 94.9196 78.4443L94.9428 78.4672Z" fill="#8691B0"/>
<path d="M54.8508 20.2552C53.1774 20.2552 51.8293 21.584 51.8293 23.2105C51.8293 24.8371 53.1774 26.1658 54.8508 26.1658C56.5242 26.1658 57.8722 24.8371 57.8722 23.2105C57.8722 21.584 56.5242 20.2552 54.8508 20.2552Z" fill="#8691B0"/>
<path d="M63.5434 25.06H88.412C89.4579 25.06 90.2946 24.2353 90.2946 23.2273C90.2946 22.2193 89.4579 21.3945 88.412 21.3945H63.5434C62.4975 21.3945 61.6608 22.2193 61.6608 23.2273C61.6608 24.2353 62.4975 25.06 63.5434 25.06Z" fill="#8691B0"/>
<path d="M54.8508 30.3286C53.1774 30.3286 51.8293 31.6573 51.8293 33.2839C51.8293 34.9104 53.1774 36.2392 54.8508 36.2392C56.5242 36.2392 57.8722 34.9104 57.8722 33.2839C57.8722 31.6573 56.5242 30.3286 54.8508 30.3286Z" fill="#8691B0"/>
<path d="M63.5431 35.1426H88.4117C89.4576 35.1426 90.2943 34.3179 90.2943 33.3099C90.2943 32.3019 89.4576 31.4772 88.4117 31.4772H63.5431C62.4972 31.4772 61.6605 32.3019 61.6605 33.3099C61.6605 34.3179 62.4972 35.1426 63.5431 35.1426Z" fill="#8691B0"/>
<path d="M54.8508 39.8594C53.1774 39.8594 51.8293 41.1881 51.8293 42.8147C51.8293 44.4412 53.1774 45.7699 54.8508 45.7699C56.5242 45.7699 57.8722 44.4412 57.8722 42.8147C57.8722 41.1881 56.5242 39.8594 54.8508 39.8594Z" fill="#8691B0"/>
<path d="M63.5434 44.6733H88.412C89.4579 44.6733 90.2946 43.8485 90.2946 42.8405C90.2946 41.8325 89.4579 41.0078 88.412 41.0078H63.5434C62.4975 41.0078 61.6608 41.8325 61.6608 42.8405C61.6608 43.8485 62.4975 44.6733 63.5434 44.6733Z" fill="#8691B0"/>
<path d="M54.8508 49.0284C53.1774 49.0284 51.8293 50.3572 51.8293 51.9837C51.8293 53.6103 53.1774 54.939 54.8508 54.939C56.5242 54.939 57.8722 53.6103 57.8722 51.9837C57.8722 50.3572 56.5242 49.0284 54.8508 49.0284Z" fill="#8691B0"/>
<path d="M90.2946 51.9825C90.2946 50.9745 89.4579 50.1498 88.412 50.1498H63.5434C62.4975 50.1498 61.6608 50.9745 61.6608 51.9825C61.6608 52.9905 62.4975 53.8152 63.5434 53.8152H88.412C89.4579 53.8152 90.2946 52.9905 90.2946 51.9825Z" fill="#8691B0"/>
<path d="M88.5048 60.5904C87.5984 59.697 86.5293 58.9868 85.3439 58.5057C84.1586 58.0246 82.8803 57.7726 81.602 57.7726C79.673 57.7726 77.7671 58.3453 76.1635 59.3991C74.5598 60.453 73.3047 61.965 72.561 63.706C71.8173 65.47 71.6313 67.3944 72.0032 69.2501C72.3751 71.1057 73.3047 72.8239 74.676 74.1755C76.0472 75.5272 77.7904 76.4435 79.673 76.8101C81.5788 77.1766 83.5311 76.9933 85.3207 76.2603C87.1103 75.5272 88.6443 74.313 89.7134 72.7322C90.7825 71.1515 91.3635 69.2959 91.3635 67.3944C91.3635 66.1344 91.1079 64.8744 90.6198 63.729C90.1317 62.5835 89.4112 61.5068 88.5048 60.6133V60.5904ZM87.9005 63.5228C87.8308 63.8435 87.6681 64.1413 87.4357 64.3704L87.5054 64.3246L80.8118 72.7781C80.6491 72.9384 80.4399 73.0759 80.2308 73.1675C80.0216 73.2592 79.7892 73.2821 79.5335 73.2821C79.3243 73.2821 79.0919 73.2362 78.906 73.1446C78.6968 73.053 78.5341 72.9384 78.3714 72.7781L75.7684 70.4642C75.443 70.1435 75.2803 69.7082 75.2803 69.273C75.2803 68.8377 75.4662 68.4024 75.7684 68.0817C76.0937 67.7839 76.5121 67.6006 76.9304 67.5777C77.372 67.5777 77.7904 67.761 78.0925 68.0588L79.5103 69.273L85.065 61.9879C85.3672 61.69 85.8088 61.5068 86.2271 61.5068C86.5525 61.5068 86.8779 61.6213 87.1568 61.8046C87.4357 61.9879 87.6449 62.2399 87.7611 62.5606C87.8773 62.8584 87.9238 63.202 87.854 63.5228H87.9005Z" fill="#8691B0"/>
</g>
</g>
<defs>
<clipPath id="clip0_905_2308">
<rect width="63.3801" height="82.5416" fill="white" transform="translate(36.6199 1.41064)"/>
</clipPath>
<clipPath id="clip1_905_2308">
<rect width="63.3801" height="82.5416" fill="white" transform="translate(35.2115)"/>
</clipPath>
</defs>
</svg>
