<svg id="Layer_4" data-name="Layer 4" xmlns="http://www.w3.org/2000/svg" viewBox="0 0 130.84 130.84"><defs><style>.cls-1{fill:#10f9b7;}.cls-2{fill:#fff;}</style></defs><rect class="cls-1" x="24.38" y="24.46" width="82" height="95" rx="10"/><path class="cls-2" d="M106.38,109.93a10.46,10.46,0,0,1-.77,4,10.56,10.56,0,0,1-9.68,6.57h-61A10.52,10.52,0,0,1,24.38,110V34.12A10.5,10.5,0,0,1,34.9,23.64h61a10.52,10.52,0,0,1,10.53,10.48ZM102,32.25a4.53,4.53,0,0,0-.36-1.78,4.7,4.7,0,0,0-1-1.52,4.87,4.87,0,0,0-1.52-1,4.79,4.79,0,0,0-1.79-.35H33.4A4.62,4.62,0,0,0,30.1,29a4.67,4.67,0,0,0-1.36,3.3v79.6a4.71,4.71,0,0,0,.35,1.78,4.55,4.55,0,0,0,1,1.51,4.69,4.69,0,0,0,3.3,1.37h64a4.68,4.68,0,0,0,4.68-4.66Z"/><path class="cls-2" d="M40.57,119a1.56,1.56,0,0,1-1.08-.44,1.52,1.52,0,0,1-.44-1.07V26.71a1.52,1.52,0,0,1,.44-1.07,1.56,1.56,0,0,1,1.08-.44,1.52,1.52,0,0,1,1.07.44,1.49,1.49,0,0,1,.45,1.07v90.78a1.49,1.49,0,0,1-.45,1.07A1.52,1.52,0,0,1,40.57,119Z"/><path class="cls-2" d="M79.76,19.15H74.49a10.09,10.09,0,0,0-18.22,0H51a2.22,2.22,0,0,0-1.6.53,2.25,2.25,0,0,0-.77,1.51V29.8a2.21,2.21,0,0,0,2.37,2H79.75a2.22,2.22,0,0,0,1.6-.53,2.19,2.19,0,0,0,.76-1.51V21.19a2.18,2.18,0,0,0-.75-1.5A2.23,2.23,0,0,0,79.76,19.15Z"/><path class="cls-2" d="M49.83,46.46a3.89,3.89,0,1,0-3.9-3.89A3.9,3.9,0,0,0,49.83,46.46Z"/><path class="cls-2" d="M93.31,40.15H61.08a2.42,2.42,0,1,0,0,4.84H93.31a2.42,2.42,0,1,0,0-4.84Z"/><path class="cls-2" d="M49.83,59.69a3.89,3.89,0,1,0-3.9-3.88A3.89,3.89,0,0,0,49.83,59.69Z"/><path class="cls-2" d="M93.31,53.39H61.08a2.42,2.42,0,1,0,0,4.84H93.31a2.42,2.42,0,1,0,0-4.84Z"/><path class="cls-2" d="M49.83,72.22a3.89,3.89,0,1,0-3.9-3.89A3.89,3.89,0,0,0,49.83,72.22Z"/><path class="cls-2" d="M93.31,65.91H61.08a2.42,2.42,0,1,0,0,4.84H93.31a2.42,2.42,0,1,0,0-4.84Z"/><path class="cls-2" d="M49.83,84.27a3.89,3.89,0,1,0-3.9-3.89A3.9,3.9,0,0,0,49.83,84.27Z"/><path class="cls-2" d="M93.31,78H61.08a2.42,2.42,0,1,0,0,4.84H93.31a2.42,2.42,0,1,0,0-4.84Z"/><path class="cls-2" d="M84.44,88a12.63,12.63,0,0,0-11.7,7.79,12.66,12.66,0,1,0,24.36,4.83,12.58,12.58,0,0,0-3.71-8.93,12.72,12.72,0,0,0-9-3.69Zm7.68,8.59-8.65,11.11a2.26,2.26,0,0,1-.76.49,2.05,2.05,0,0,1-.88.16,2.33,2.33,0,0,1-.83-.18,2.17,2.17,0,0,1-.69-.47l-3.39-3a2.21,2.21,0,0,1,0-3.13,2.13,2.13,0,0,1,3,0l1.84,1.61L89,93.56a2.23,2.23,0,0,1,1.52-.64,2.2,2.2,0,0,1,1.21.39A2.2,2.2,0,0,1,92,96.66Z"/></svg>