<svg width="63" height="64" viewBox="0 0 63 64" fill="none" xmlns="http://www.w3.org/2000/svg">
<path d="M48.2442 43.588C47.5829 42.9537 47.5024 42.2379 48.0029 41.4404C51.6762 35.5958 52.9096 29.2346 51.7567 22.3841C49.6117 9.68899 38.5918 0.609375 26.2044 0.609375C24.837 0.609375 23.4428 0.718113 22.0753 0.935589C9.47348 3.02879 0.25 14.0113 0.25 27.0055C0.25 34.0463 2.60949 40.1628 7.35529 45.2463C12.4228 50.6832 19.2064 53.5103 26.0972 53.5103C30.7089 53.5103 35.3743 52.2599 39.6375 49.6773C40.2541 49.2968 40.8976 48.6443 41.5411 48.6443C42.2114 48.6443 42.6404 49.5414 43.1231 50.0851C43.3376 50.3298 43.5253 50.4385 43.6861 50.4385C43.9006 50.4385 44.0883 50.2754 44.3296 50.0307C45.6166 48.6715 46.9304 47.3395 48.2711 46.0346C49.5044 44.8113 49.5312 44.8113 48.2711 43.588H48.2442ZM45.4021 44.7569C44.8123 45.3278 44.276 45.8987 43.7398 46.4424C43.1767 46.0346 42.4528 45.7084 41.5143 45.7084C40.1469 45.7084 39.1548 46.4424 38.5113 46.9045C38.3773 46.9861 38.2432 47.0948 38.1628 47.1492C34.4627 49.3783 30.2799 50.5472 26.0972 50.5472C19.7694 50.5472 13.8707 47.9375 9.44666 43.2074C5.23711 38.6948 3.11893 33.2307 3.14574 26.9783C3.14574 15.3977 11.3235 5.66569 22.5579 3.81714C23.7645 3.62685 24.9979 3.51811 26.2312 3.51811C31.5937 3.51811 36.8221 5.44821 40.9781 8.955C45.1876 12.489 48.0029 17.4366 48.9146 22.8463C49.9602 29.0171 48.8609 34.5628 45.563 39.8366C44.3296 41.821 44.2224 43.2074 45.3753 44.7298L45.4021 44.7569Z" fill="#67BEA1"/>
<path d="M60.7071 56.5841C57.2277 53.1357 53.7483 49.7135 50.2689 46.2651C50.0564 46.0562 49.8971 45.9517 49.7377 45.9517C49.5784 45.9517 49.419 46.0562 49.2065 46.2651C48.0113 47.493 46.7364 48.6685 45.5147 49.8964C44.5054 50.8891 44.5054 51.8818 45.5147 52.8745C48.8081 56.1139 51.9688 59.4577 55.3685 62.5665C56.0856 63.2196 56.9621 63.5592 57.4933 63.5853H57.573C59.6181 63.5853 61.0523 62.671 61.6898 61.208C62.46 59.4577 62.0085 57.9164 60.6805 56.6102L60.7071 56.5841ZM59.2728 60.1631C59.1931 60.3459 58.9541 60.9207 57.6792 60.9729C57.573 60.9468 57.387 60.8423 57.1746 60.6594C54.9169 58.5956 52.6859 56.349 50.5611 54.2068C49.6315 53.2664 48.7019 52.3259 47.7457 51.4116L48.5425 50.6278C48.9409 50.2621 49.3128 49.8703 49.7112 49.4784C50.8532 50.6017 51.9953 51.7512 53.1374 52.8745C55.0232 54.7293 56.909 56.5841 58.7947 58.465C59.565 59.2487 59.4587 59.6928 59.2463 60.1892L59.2728 60.1631Z" fill="#67BEA1"/>
<path d="M24.1966 20.7646H24.1391C23.1903 20.7646 22.2415 20.7933 21.264 20.7933C20.2865 20.7933 19.3952 20.7933 18.4752 20.7646H18.3889C17.7277 20.7646 17.5552 21.0223 17.5552 21.7093C17.5552 28.7799 17.5552 35.822 17.5552 42.8926C17.5552 43.4937 17.7564 43.8086 18.3027 44.0663C20.1427 44.925 22.069 45.4976 24.0528 45.8983C24.1966 45.927 24.3403 45.9556 24.4266 45.9556C24.8578 45.9556 24.9728 45.6979 24.9728 45.1254C24.9441 41.2323 24.9728 37.3391 24.9728 33.4746C24.9728 29.6101 24.9728 25.6311 24.9728 21.7093C24.9728 21.0795 24.8291 20.8219 24.1966 20.8219V20.7646ZM22.8165 33.4174V36.3372C22.8165 38.6846 22.8165 41.0033 22.8165 43.4079C21.724 43.1216 20.689 42.7781 19.7402 42.3487C19.7402 35.9078 19.7402 29.4383 19.7402 22.9402C20.2577 22.9402 20.7753 22.9402 21.264 22.9402C21.7528 22.9402 22.299 22.9402 22.8165 22.9402C22.8165 25.5738 22.8165 28.2074 22.8165 30.8124V33.4174Z" fill="#67BEA1"/>
<path d="M41.6187 18.2749H41.5899C40.5852 18.2749 39.5804 18.2749 38.5469 18.2749C37.6283 18.2749 36.7383 18.2749 35.8197 18.2463H35.7336C35.0733 18.2463 34.901 18.5037 34.901 19.1899C34.9297 23.0787 34.901 26.9674 34.901 30.8561C34.901 34.7448 34.901 38.6335 34.901 42.5223C34.901 42.8082 34.7575 43.2085 35.0159 43.3801C35.0733 43.4087 35.1594 43.4373 35.2168 43.4373C35.4752 43.4373 35.6761 43.1513 35.9058 43.0084C38.6043 41.064 40.5565 38.5192 41.9632 35.5454C42.1641 35.1165 42.2789 34.659 42.2789 34.173C42.2789 29.1405 42.2789 24.0794 42.2789 19.047C42.2789 18.4751 42.1067 18.2749 41.5612 18.2749H41.6187ZM40.1833 34.173C40.1833 34.173 40.1833 34.4017 40.0684 34.6305C39.2359 36.3747 38.2598 37.8615 37.0828 39.1196C37.0828 37.1181 37.0828 35.1451 37.0828 33.1436V27.9396C37.0828 25.4519 37.0828 22.9643 37.0828 20.4194C37.5709 20.4194 38.0589 20.4194 38.5469 20.4194C39.0924 20.4194 39.6378 20.4194 40.1833 20.4194C40.1833 24.4225 40.1833 28.4256 40.1833 32.4287V34.1444V34.173Z" fill="#67BEA1"/>
<path d="M31.9292 30.8676H31.91C31.2367 30.8676 30.5635 30.8676 29.8902 30.8676C29.2939 30.8676 28.7169 30.8676 28.1206 30.8376H28.0436C27.582 30.8376 27.4281 31.0472 27.4473 31.8553C27.4858 34.0401 27.4473 36.1951 27.4473 38.38C27.4473 40.5648 27.4473 42.8694 27.4473 45.1142C27.4473 45.6828 27.505 45.9522 27.8705 45.9522C27.909 45.9522 27.9282 45.9522 27.9667 45.9522C29.3516 45.8325 30.6789 45.2638 31.9484 44.4557C32.2754 44.2462 32.3909 43.9768 32.3909 43.4381C32.3909 39.5173 32.3909 35.5965 32.3909 31.6757C32.3909 31.0771 32.2754 30.8975 31.91 30.8975L31.9292 30.8676ZM28.9092 43.5279C28.9092 42.3906 28.9092 41.2832 28.9092 40.1458V36.5542C28.9092 35.4169 28.9092 34.2796 28.9092 33.1422C29.2362 33.1422 29.5632 33.1422 29.871 33.1422C30.2365 33.1422 30.6019 33.1422 30.9482 33.1422C30.9482 36.3148 30.9482 39.4874 30.9482 42.6599C30.2365 43.0789 29.5632 43.3483 28.89 43.5279H28.9092Z" fill="#67BEA1"/>
<path d="M14.3447 28.3424C13.2855 28.3424 12.2263 28.3424 11.167 28.3424C10.3082 28.3424 9.4494 28.3424 8.61921 28.3193H8.53333C7.81764 28.3193 7.70313 28.5731 7.67451 29.1267C7.58862 32.6332 9.24901 35.586 11.8255 38.308C12.7129 39.2539 13.7149 40.1074 15.089 40.9148C15.089 36.7855 15.089 32.8177 15.089 28.873C15.089 28.4116 14.8314 28.3424 14.3733 28.3424H14.3447ZM12.9133 36.624C10.9953 34.4325 9.99332 32.3333 9.82156 30.0956C10.2796 30.0956 10.709 30.0956 11.167 30.0956C11.7682 30.0956 12.3408 30.0956 12.9419 30.0956C12.9419 32.2641 12.9419 34.4325 12.9419 36.624H12.9133Z" fill="#67BEA1"/>
</svg>
