<svg width="32" height="32" viewBox="0 0 32 32" fill="none" xmlns="http://www.w3.org/2000/svg">
<g id="Icons/32px/app" clip-path="url(#clip0_873_11759)">
<path id="Vector" d="M5.33333 3.67188C5.39948 3.67188 5.46414 3.69158 5.51906 3.72844C5.57399 3.76531 5.6167 3.81769 5.64177 3.87891C5.66683 3.94013 5.67311 4.00742 5.65981 4.07223C5.64651 4.13703 5.61423 4.19641 5.56708 4.2428C5.51993 4.2892 5.46004 4.32052 5.39503 4.33277C5.33002 4.34503 5.26284 4.33766 5.20203 4.31161C5.14122 4.28556 5.08954 4.24201 5.05356 4.1865C5.01758 4.13098 4.99894 4.06602 5 3.99988C5.0014 3.9124 5.03713 3.82898 5.09949 3.76761C5.16185 3.70625 5.24584 3.67186 5.33333 3.67188Z" stroke="#00F1BF" stroke-linecap="round" stroke-linejoin="round"/>
<path id="Vector_2" d="M0.666016 7.33887H31.3327" stroke="#00F1BF" stroke-linecap="round" stroke-linejoin="round"/>
<path id="Vector_3" fill-rule="evenodd" clip-rule="evenodd" d="M9.33333 3.67188C9.39948 3.67188 9.46414 3.69158 9.51906 3.72844C9.57399 3.76531 9.6167 3.81769 9.64177 3.87891C9.66683 3.94013 9.67311 4.00742 9.65981 4.07223C9.64651 4.13703 9.61423 4.19641 9.56708 4.2428C9.51993 4.2892 9.46004 4.32052 9.39503 4.33277C9.33002 4.34503 9.26284 4.33766 9.20203 4.31161C9.14122 4.28556 9.08954 4.24201 9.05356 4.1865C9.01759 4.13098 8.99894 4.06602 9 3.99988C9.0014 3.9124 9.03713 3.82898 9.09949 3.76761C9.16185 3.70625 9.24584 3.67186 9.33333 3.67188Z" stroke="#00F1BF" stroke-linecap="round" stroke-linejoin="round"/>
<path id="Vector_4" d="M13.3333 3.67184C13.3995 3.67185 13.4641 3.69154 13.5191 3.72841C13.574 3.76527 13.6167 3.81765 13.6418 3.87887C13.6668 3.94009 13.6731 4.00739 13.6598 4.07219C13.6465 4.13699 13.6142 4.19637 13.5671 4.24277C13.5199 4.28916 13.46 4.32048 13.395 4.33274C13.33 4.34499 13.2628 4.33762 13.202 4.31157C13.1412 4.28552 13.0895 4.24197 13.0536 4.18646C13.0176 4.13094 12.9989 4.06598 13 3.99984C13 3.91143 13.0351 3.82665 13.0976 3.76414C13.1601 3.70162 13.2449 3.6665 13.3333 3.6665" stroke="#00F1BF" stroke-linecap="round" stroke-linejoin="round"/>
<path id="Vector_5" d="M13.9993 27.3332H3.33268C2.62544 27.3332 1.94716 27.0522 1.44706 26.5521C0.946967 26.052 0.666016 25.3737 0.666016 24.6665V3.33317C0.666016 2.62593 0.946967 1.94765 1.44706 1.44755C1.94716 0.947456 2.62544 0.666504 3.33268 0.666504H28.666C29.3733 0.666504 30.0515 0.947456 30.5516 1.44755C31.0517 1.94765 31.3327 2.62593 31.3327 3.33317V23.9998" stroke="#00F1BF" stroke-linecap="round" stroke-linejoin="round"/>
<path id="Vector_6" d="M17.334 23.3387C17.334 24.7532 17.8959 26.1097 18.8961 27.1099C19.8963 28.1101 21.2528 28.672 22.6673 28.672C24.0818 28.672 25.4384 28.1101 26.4386 27.1099C27.4387 26.1097 28.0007 24.7532 28.0007 23.3387C28.0007 21.9242 27.4387 20.5677 26.4386 19.5675C25.4384 18.5673 24.0818 18.0054 22.6673 18.0054C21.2528 18.0054 19.8963 18.5673 18.8961 19.5675C17.8959 20.5677 17.334 21.9242 17.334 23.3387Z" stroke="#00F1BF" stroke-linecap="round" stroke-linejoin="round"/>
<path id="Vector_7" d="M26.4373 27.1094L30.6667 31.3387" stroke="#00F1BF" stroke-linecap="round" stroke-linejoin="round"/>
<path id="Vector_8" d="M4.66602 11.3389H9.33268" stroke="#00F1BF" stroke-linecap="round" stroke-linejoin="round"/>
<path id="Vector_9" d="M10.666 16.6719H15.3327" stroke="#00F1BF" stroke-linecap="round" stroke-linejoin="round"/>
<path id="Vector_10" d="M13.334 11.3389H21.334" stroke="#00F1BF" stroke-linecap="round" stroke-linejoin="round"/>
<path id="Vector_11" d="M4.66602 22.0054H12.666" stroke="#00F1BF" stroke-linecap="round" stroke-linejoin="round"/>
<path id="Vector_12" d="M24.666 11.3389H27.3327" stroke="#00F1BF" stroke-linecap="round" stroke-linejoin="round"/>
<path id="Vector_13" d="M4.66602 16.6719H7.33268" stroke="#00F1BF" stroke-linecap="round" stroke-linejoin="round"/>
</g>
<defs>
<clipPath id="clip0_873_11759">
<rect width="32" height="32" fill="white"/>
</clipPath>
</defs>
</svg>
