<svg width="32" height="32" viewBox="0 0 32 32" fill="none" xmlns="http://www.w3.org/2000/svg">
<g id="Icons/32px/archive" clip-path="url(#clip0_873_11738)">
<path id="Vector" d="M10.666 29.9998C10.666 30.3535 10.5255 30.6926 10.2755 30.9426C10.0254 31.1927 9.6863 31.3332 9.33268 31.3332H1.99935C1.64573 31.3332 1.30659 31.1927 1.05654 30.9426C0.806491 30.6926 0.666016 30.3535 0.666016 29.9998V1.99984C0.666016 1.64622 0.806491 1.30708 1.05654 1.05703C1.30659 0.80698 1.64573 0.666504 1.99935 0.666504H9.33268C9.6863 0.666504 10.0254 0.80698 10.2755 1.05703C10.5255 1.30708 10.666 1.64622 10.666 1.99984V29.9998Z" stroke="#00F1BF" stroke-linecap="round" stroke-linejoin="round"/>
<path id="Vector_2" d="M21.3327 29.9998C21.3327 30.3535 21.1922 30.6926 20.9422 30.9426C20.6921 31.1927 20.353 31.3332 19.9993 31.3332H11.9993C11.6457 31.3332 11.3066 31.1927 11.0565 30.9426C10.8065 30.6926 10.666 30.3535 10.666 29.9998V1.99984C10.666 1.64622 10.8065 1.30708 11.0565 1.05703C11.3066 0.80698 11.6457 0.666504 11.9993 0.666504H19.9993C20.353 0.666504 20.6921 0.80698 20.9422 1.05703C21.1922 1.30708 21.3327 1.64622 21.3327 1.99984V29.9998Z" stroke="#00F1BF" stroke-linecap="round" stroke-linejoin="round"/>
<path id="Vector_3" d="M31.334 29.9998C31.334 30.3535 31.1935 30.6926 30.9435 30.9426C30.6934 31.1927 30.3543 31.3332 30.0007 31.3332H22.6673C22.3137 31.3332 21.9746 31.1927 21.7245 30.9426C21.4745 30.6926 21.334 30.3535 21.334 29.9998V1.99984C21.334 1.64622 21.4745 1.30708 21.7245 1.05703C21.9746 0.80698 22.3137 0.666504 22.6673 0.666504H30.0007C30.3543 0.666504 30.6934 0.80698 30.9435 1.05703C31.1935 1.30708 31.334 1.64622 31.334 1.99984V29.9998Z" stroke="#00F1BF" stroke-linecap="round" stroke-linejoin="round"/>
<path id="Vector_4" d="M5.33398 27.3335C5.72955 27.3335 6.11623 27.2162 6.44513 26.9964C6.77402 26.7767 7.03037 26.4643 7.18174 26.0989C7.33312 25.7334 7.37273 25.3313 7.29556 24.9433C7.21838 24.5554 7.0279 24.199 6.7482 23.9193C6.46849 23.6396 6.11213 23.4491 5.72417 23.3719C5.3362 23.2948 4.93407 23.3344 4.56862 23.4857C4.20317 23.6371 3.89081 23.8935 3.67105 24.2224C3.45128 24.5513 3.33398 24.9379 3.33398 25.3335C3.33398 25.8639 3.5447 26.3726 3.91977 26.7477C4.29484 27.1228 4.80355 27.3335 5.33398 27.3335Z" stroke="#00F1BF" stroke-linecap="round" stroke-linejoin="round"/>
<path id="Vector_5" d="M16 27.3335C16.3956 27.3335 16.7822 27.2162 17.1111 26.9964C17.44 26.7767 17.6964 26.4643 17.8478 26.0989C17.9991 25.7334 18.0387 25.3313 17.9616 24.9433C17.8844 24.5554 17.6939 24.199 17.4142 23.9193C17.1345 23.6396 16.7781 23.4491 16.3902 23.3719C16.0022 23.2948 15.6001 23.3344 15.2346 23.4857C14.8692 23.6371 14.5568 23.8935 14.3371 24.2224C14.1173 24.5513 14 24.9379 14 25.3335C14 25.8639 14.2107 26.3726 14.5858 26.7477C14.9609 27.1228 15.4696 27.3335 16 27.3335Z" stroke="#00F1BF" stroke-linecap="round" stroke-linejoin="round"/>
<path id="Vector_6" d="M26.666 27.3335C27.0616 27.3335 27.4483 27.2162 27.7772 26.9964C28.1061 26.7767 28.3624 26.4643 28.5138 26.0989C28.6651 25.7334 28.7048 25.3313 28.6276 24.9433C28.5504 24.5554 28.3599 24.199 28.0802 23.9193C27.8005 23.6396 27.4442 23.4491 27.0562 23.3719C26.6682 23.2948 26.2661 23.3344 25.9007 23.4857C25.5352 23.6371 25.2228 23.8935 25.0031 24.2224C24.7833 24.5513 24.666 24.9379 24.666 25.3335C24.666 25.8639 24.8767 26.3726 25.2518 26.7477C25.6269 27.1228 26.1356 27.3335 26.666 27.3335Z" stroke="#00F1BF" stroke-linecap="round" stroke-linejoin="round"/>
<path id="Vector_7" d="M7.33398 4.00016V7.3335H3.33398V4.00016C3.33398 3.82335 3.40422 3.65378 3.52925 3.52876C3.65427 3.40373 3.82384 3.3335 4.00065 3.3335H6.66732C6.84413 3.3335 7.0137 3.40373 7.13872 3.52876C7.26375 3.65378 7.33398 3.82335 7.33398 4.00016Z" stroke="#00F1BF" stroke-linecap="round" stroke-linejoin="round"/>
<path id="Vector_8" d="M7.33398 7.3335V18.6668C7.33398 18.8436 7.26375 19.0132 7.13872 19.1382C7.0137 19.2633 6.84413 19.3335 6.66732 19.3335H4.00065C3.82384 19.3335 3.65427 19.2633 3.52925 19.1382C3.40422 19.0132 3.33398 18.8436 3.33398 18.6668V7.3335H7.33398Z" stroke="#00F1BF" stroke-linecap="round" stroke-linejoin="round"/>
<path id="Vector_9" d="M18 4.00016V7.3335H14V4.00016C14 3.82335 14.0702 3.65378 14.1953 3.52876C14.3203 3.40373 14.4899 3.3335 14.6667 3.3335H17.3333C17.5101 3.3335 17.6797 3.40373 17.8047 3.52876C17.9298 3.65378 18 3.82335 18 4.00016Z" stroke="#00F1BF" stroke-linecap="round" stroke-linejoin="round"/>
<path id="Vector_10" d="M18 7.3335V18.6668C18 18.8436 17.9298 19.0132 17.8047 19.1382C17.6797 19.2633 17.5101 19.3335 17.3333 19.3335H14.6667C14.4899 19.3335 14.3203 19.2633 14.1953 19.1382C14.0702 19.0132 14 18.8436 14 18.6668V7.3335H18Z" stroke="#00F1BF" stroke-linecap="round" stroke-linejoin="round"/>
<path id="Vector_11" d="M28.666 4.00016V7.3335H24.666V4.00016C24.666 3.82335 24.7363 3.65378 24.8613 3.52876C24.9863 3.40373 25.1559 3.3335 25.3327 3.3335H27.9993C28.1762 3.3335 28.3457 3.40373 28.4708 3.52876C28.5958 3.65378 28.666 3.82335 28.666 4.00016Z" stroke="#00F1BF" stroke-linecap="round" stroke-linejoin="round"/>
<path id="Vector_12" d="M28.666 7.3335V18.6668C28.666 18.8436 28.5958 19.0132 28.4708 19.1382C28.3457 19.2633 28.1762 19.3335 27.9993 19.3335H25.3327C25.1559 19.3335 24.9863 19.2633 24.8613 19.1382C24.7363 19.0132 24.666 18.8436 24.666 18.6668V7.3335H28.666Z" stroke="#00F1BF" stroke-linecap="round" stroke-linejoin="round"/>
</g>
<defs>
<clipPath id="clip0_873_11738">
<rect width="32" height="32" fill="white"/>
</clipPath>
</defs>
</svg>
