<svg width="32" height="32" viewBox="0 0 32 32" fill="none" xmlns="http://www.w3.org/2000/svg">
<g id="Icons/32px/calendar" clip-path="url(#clip0_873_11705)">
<path id="Vector" d="M7.33398 0.667969V7.33464" stroke="#00F1BF" stroke-linecap="round" stroke-linejoin="round"/>
<path id="Vector_2" d="M24.666 0.667969V7.33464" stroke="#00F1BF" stroke-linecap="round" stroke-linejoin="round"/>
<path id="Vector_3" d="M16 10.0015V31.3348" stroke="#00F1BF" stroke-linecap="round" stroke-linejoin="round"/>
<path id="Vector_4" d="M8 10.0015V31.3348" stroke="#00F1BF" stroke-linecap="round" stroke-linejoin="round"/>
<path id="Vector_5" d="M24 10.0015V31.3348" stroke="#00F1BF" stroke-linecap="round" stroke-linejoin="round"/>
<path id="Vector_6" d="M0.666016 20.668H31.3327" stroke="#00F1BF" stroke-linecap="round" stroke-linejoin="round"/>
<path id="Vector_7" d="M0.666016 15.3345H31.3327" stroke="#00F1BF" stroke-linecap="round" stroke-linejoin="round"/>
<path id="Vector_8" d="M0.666016 26.0015H31.3327" stroke="#00F1BF" stroke-linecap="round" stroke-linejoin="round"/>
<path id="Vector_9" d="M1.99935 3.33447H29.9993C29.9993 3.33447 31.3327 3.33447 31.3327 4.66781V30.0011C31.3327 30.0011 31.3327 31.3345 29.9993 31.3345H1.99935C1.99935 31.3345 0.666016 31.3345 0.666016 30.0011V4.66781C0.666016 4.66781 0.666016 3.33447 1.99935 3.33447Z" stroke="#00F1BF" stroke-linecap="round" stroke-linejoin="round"/>
<path id="Vector_10" d="M0.666016 10.0015H31.3327" stroke="#00F1BF" stroke-linecap="round" stroke-linejoin="round"/>
</g>
<defs>
<clipPath id="clip0_873_11705">
<rect width="32" height="32" fill="white"/>
</clipPath>
</defs>
</svg>
