<svg id="Layer_15" data-name="Layer 15" xmlns="http://www.w3.org/2000/svg" viewBox="0 0 130.84 130.84"><defs><style>.cls-1,.cls-2,.cls-3,.cls-4{fill:#e7fef8;}.cls-1,.cls-2,.cls-3,.cls-5,.cls-6{stroke:#10f9b7;stroke-width:2px;}.cls-2,.cls-3,.cls-5{stroke-linecap:round;}.cls-2{stroke-miterlimit:10;}.cls-3,.cls-5{stroke-linejoin:round;}.cls-5,.cls-6{fill:none;}</style></defs><rect class="cls-1" x="31.92" y="26.65" width="82" height="44"/><path class="cls-2" d="M27.62,61.39A8.37,8.37,0,1,0,19.4,53,8.3,8.3,0,0,0,27.62,61.39Z"/><path class="cls-3" d="M16.92,69.65a8,8,0,0,1,4-6.5,10.69,10.69,0,0,1,6.7-1.76,15.43,15.43,0,0,1,8,2.26c3.59,1.67,11.77,3.3,15.77-3.5l4,1.5c-1.67,2.47-6,6.74-10,8.45a15.91,15.91,0,0,1-8.5,1.05s-1,0-1,4.5v13.5h-16L20,85.26l-3.11-3.11V69.65Z"/><path class="cls-2" d="M92.83,90.6a8.37,8.37,0,1,0-8.22-8.37A8.29,8.29,0,0,0,92.83,90.6Z"/><path class="cls-4" d="M79.13,99a15.39,15.39,0,0,1,27.4,0"/><path class="cls-5" d="M79.13,99a15.39,15.39,0,0,1,27.4,0"/><path class="cls-2" d="M55.62,90.6a8.37,8.37,0,1,0-8.22-8.37A8.29,8.29,0,0,0,55.62,90.6Z"/><path class="cls-4" d="M41.92,99a15.21,15.21,0,0,1,5.66-6.11A15.4,15.4,0,0,1,69.32,99"/><path class="cls-5" d="M41.92,99a15.21,15.21,0,0,1,5.66-6.11A15.4,15.4,0,0,1,69.32,99"/><path class="cls-2" d="M73.72,95.82a8.38,8.38,0,1,0-8.22-8.38A8.3,8.3,0,0,0,73.72,95.82Z"/><path class="cls-4" d="M60,104.19a15.39,15.39,0,0,1,27.4,0"/><path class="cls-5" d="M60,104.19a15.39,15.39,0,0,1,27.4,0"/><path class="cls-6" d="M54.85,59.08l9.27-18.43"/></svg>