<svg width="25" height="25" viewBox="0 0 25 25" fill="none" xmlns="http://www.w3.org/2000/svg">
<path d="M12.4999 21.875C14.5801 21.8747 16.601 21.1826 18.2446 19.9077C19.8882 18.6327 21.0611 16.8474 21.5787 14.8327C22.0963 12.818 21.9291 10.6884 21.1035 8.77912C20.2779 6.86985 18.8408 5.28938 17.0184 4.28652C15.196 3.28365 13.0918 2.91536 11.0371 3.23962C8.98244 3.56388 7.09394 4.56227 5.66894 6.07762C4.24395 7.59297 3.36339 9.53921 3.1659 11.6099C2.9684 13.6806 3.4652 15.7582 4.57806 17.5156L3.12493 21.875L7.48431 20.4219C8.98382 21.3737 10.7238 21.8778 12.4999 21.875Z" fill="#CCD0DB" stroke="#CCD0DB" stroke-width="1.3333" stroke-linecap="round" stroke-linejoin="round"/>
</svg>
