<svg id="Layer_1" data-name="Layer 1" xmlns="http://www.w3.org/2000/svg" viewBox="0 0 32 32"><defs><style>.cls-1,.cls-2,.cls-4{fill:none;stroke:#255b87;}.cls-1{stroke-linecap:round;}.cls-1,.cls-2{stroke-linejoin:round;stroke-width:1.55px;}.cls-3{fill:#255b87;}.cls-4{stroke-width:0.39px;}</style></defs><path class="cls-1" d="M1.71,29.31H30.29"/><path class="cls-2" d="M8.85,18H6a1.42,1.42,0,0,0-1.43,1.41v8.51A1.42,1.42,0,0,0,6,29.31H8.85a1.42,1.42,0,0,0,1.43-1.42V19.38A1.42,1.42,0,0,0,8.85,18Z"/><path class="cls-1" d="M7.43,23.64h.71"/><path class="cls-2" d="M26,2.36H11.71a1.43,1.43,0,0,0-1.43,1.42V27.89a1.42,1.42,0,0,0,1.43,1.42H26a1.42,1.42,0,0,0,1.43-1.42V3.78A1.43,1.43,0,0,0,26,2.36Z"/><path class="cls-3" d="M17.43,6.62H14.57V9.46h2.86Z"/><path class="cls-4" d="M14.93,7h2.14V9.1H14.93Z"/><path class="cls-3" d="M23.15,6.62H20.29V9.46h2.86Z"/><path class="cls-4" d="M20.64,7h2.15V9.1H20.64Z"/><path class="cls-3" d="M17.43,11.58H14.57v2.84h2.86Z"/><path class="cls-4" d="M14.93,11.94h2.14v2.13H14.93Z"/><path class="cls-3" d="M23.15,11.58H20.29v2.84h2.86Z"/><path class="cls-4" d="M20.64,11.94h2.15v2.13H20.64Z"/><path class="cls-3" d="M23.15,16.55H20.29v2.83h2.86Z"/><path class="cls-4" d="M20.64,16.9h2.15V19H20.64Z"/><path class="cls-3" d="M23.15,21.51H20.29v2.84h2.86Z"/><path class="cls-4" d="M20.64,21.87h2.15V24H20.64Z"/><rect class="cls-3" x="13.67" y="22.83" width="3.88" height="6.21"/><path class="cls-1" d="M4.74,18.56l2.33-7L10.17,19"/></svg>