<svg width="32" height="32" viewBox="0 0 32 32" fill="none" xmlns="http://www.w3.org/2000/svg">
<g id="Icons/32px/community">
<path id="Vector" d="M10.666 5.99984C10.666 7.41433 11.2279 8.77088 12.2281 9.77107C13.2283 10.7713 14.5849 11.3332 15.9993 11.3332C17.4138 11.3332 18.7704 10.7713 19.7706 9.77107C20.7708 8.77088 21.3327 7.41433 21.3327 5.99984C21.3327 4.58535 20.7708 3.2288 19.7706 2.2286C18.7704 1.22841 17.4138 0.666504 15.9993 0.666504C14.5849 0.666504 13.2283 1.22841 12.2281 2.2286C11.2279 3.2288 10.666 4.58535 10.666 5.99984Z" stroke="#00F1BF" stroke-linecap="round" stroke-linejoin="round"/>
<path id="Vector_2" d="M16 3.3335V8.66683" stroke="#00F1BF" stroke-linecap="round" stroke-linejoin="round"/>
<path id="Vector_3" d="M13.334 6H18.6673" stroke="#00F1BF" stroke-linecap="round" stroke-linejoin="round"/>
<path id="Vector_4" d="M9 22.1332C8.03129 21.9355 7.03072 21.9557 6.07077 22.1924C5.11083 22.429 4.21554 22.8763 3.44977 23.5017C2.684 24.127 2.06691 24.9149 1.64321 25.8082C1.21951 26.7015 0.999798 27.6779 1 28.6666H9" stroke="#00F1BF" stroke-linecap="round" stroke-linejoin="round"/>
<path id="Vector_5" d="M22 22.1332C22.9687 21.9355 23.9693 21.9557 24.9292 22.1924C25.8892 22.429 26.7845 22.8763 27.5502 23.5017C28.316 24.127 28.9331 24.9149 29.3568 25.8082C29.7805 26.7015 30.0002 27.6779 30 28.6666H22" stroke="#00F1BF" stroke-linecap="round" stroke-linejoin="round"/>
<path id="Vector_6" d="M23 30C22.6864 28.3222 21.8178 26.8079 20.5418 25.7141C19.2657 24.6204 17.661 24.0147 16 24C14.3349 23.9991 12.7223 24.5991 11.4431 25.6955C10.164 26.7919 9.29937 28.3152 9 30H23Z" stroke="#00F1BF" stroke-linecap="round" stroke-linejoin="round"/>
<path id="Vector_7" d="M7.33335 15.9981C8.23758 15.9991 9.13242 15.8149 9.96269 15.4567C9.84986 14.6337 9.48358 13.8662 8.91471 13.2608C8.34583 12.6555 7.60258 12.2422 6.78815 12.0785C5.97372 11.9147 5.12852 12.0086 4.36989 12.3471C3.61125 12.6856 2.97682 13.2519 2.55469 13.9674C3.17372 14.6098 3.91599 15.1208 4.73708 15.4697C5.55817 15.8186 6.44121 15.9983 7.33335 15.9981Z" stroke="#00F1BF" stroke-linecap="round" stroke-linejoin="round"/>
<path id="Vector_8" d="M27.3334 15.9981C28.2376 15.9991 29.1324 15.8149 29.9627 15.4567C29.8499 14.6337 29.4836 13.8662 28.9147 13.2608C28.3458 12.6555 27.6026 12.2422 26.7882 12.0785C25.9737 11.9147 25.1285 12.0086 24.3699 12.3471C23.6112 12.6856 22.9768 13.2519 22.5547 13.9674C23.1737 14.6098 23.916 15.1208 24.7371 15.4697C25.5582 15.8186 26.4412 15.9983 27.3334 15.9981Z" stroke="#00F1BF" stroke-linecap="round" stroke-linejoin="round"/>
<path id="Vector_9" d="M17.3334 17.9981C18.2376 17.9991 19.1324 17.8149 19.9627 17.4567C19.8499 16.6337 19.4836 15.8662 18.9147 15.2608C18.3458 14.6555 17.6026 14.2422 16.7882 14.0785C15.9737 13.9147 15.1285 14.0086 14.3699 14.3471C13.6112 14.6856 12.9768 15.2519 12.5547 15.9674C13.1737 16.6098 13.916 17.1208 14.7371 17.4697C15.5582 17.8186 16.4412 17.9983 17.3334 17.9981Z" stroke="#00F1BF" stroke-linecap="round" stroke-linejoin="round"/>
<path id="Vector_10" d="M7.33333 15.998C6.44118 15.9982 5.55815 15.8185 4.73706 15.4696C3.91597 15.1207 3.1737 14.6097 2.55467 13.9673C2.24213 14.4972 2.05602 15.092 2.01081 15.7055C1.96561 16.319 2.06252 16.9347 2.29403 17.5047C2.52553 18.0747 2.88537 18.5835 3.34558 18.9918C3.80579 19.4 4.35397 19.6966 4.94747 19.8585C5.54098 20.0204 6.16383 20.0432 6.76758 19.9251C7.37133 19.8071 7.93972 19.5513 8.42854 19.1778C8.91737 18.8043 9.31346 18.3231 9.58601 17.7716C9.85856 17.2201 10.0002 16.6131 10 15.998C9.99974 15.8169 9.98727 15.636 9.96267 15.4566C9.1324 15.8148 8.23755 15.999 7.33333 15.998Z" stroke="#00F1BF" stroke-linecap="round" stroke-linejoin="round"/>
<path id="Vector_11" d="M27.3333 15.998C26.4412 15.9982 25.5581 15.8185 24.7371 15.4696C23.916 15.1207 23.1737 14.6097 22.5547 13.9673C22.2421 14.4972 22.056 15.092 22.0108 15.7055C21.9656 16.319 22.0625 16.9347 22.294 17.5047C22.5255 18.0747 22.8854 18.5835 23.3456 18.9918C23.8058 19.4 24.354 19.6966 24.9475 19.8585C25.541 20.0204 26.1638 20.0432 26.7676 19.9251C27.3713 19.8071 27.9397 19.5513 28.4285 19.1778C28.9174 18.8043 29.3135 18.3231 29.586 17.7716C29.8586 17.2201 30.0002 16.6131 30 15.998C29.9997 15.8169 29.9873 15.636 29.9627 15.4566C29.1324 15.8148 28.2376 15.999 27.3333 15.998Z" stroke="#00F1BF" stroke-linecap="round" stroke-linejoin="round"/>
<path id="Vector_12" d="M17.3333 17.998C16.4412 17.9982 15.5581 17.8185 14.7371 17.4696C13.916 17.1207 13.1737 16.6097 12.5547 15.9673C12.2421 16.4972 12.056 17.092 12.0108 17.7055C11.9656 18.319 12.0625 18.9347 12.294 19.5047C12.5255 20.0747 12.8854 20.5835 13.3456 20.9918C13.8058 21.4 14.354 21.6966 14.9475 21.8585C15.541 22.0204 16.1638 22.0432 16.7676 21.9251C17.3713 21.8071 17.9397 21.5513 18.4285 21.1778C18.9174 20.8043 19.3135 20.3231 19.586 19.7716C19.8586 19.2201 20.0002 18.6131 20 17.998C19.9997 17.8169 19.9873 17.636 19.9627 17.4566C19.1324 17.8148 18.2376 17.999 17.3333 17.998Z" stroke="#00F1BF" stroke-linecap="round" stroke-linejoin="round"/>
</g>
</svg>
