<svg width="101" height="101" viewBox="0 0 101 101" fill="none" xmlns="http://www.w3.org/2000/svg">
<mask id="path-1-outside-1_905_2382" maskUnits="userSpaceOnUse" x="1.26083" y="1.08386" width="79" height="68" fill="black">
<rect fill="white" x="1.26083" y="1.08386" width="79" height="68"/>
<path d="M63.4137 42.2934C63.8098 41.2564 64.4593 40.5646 65.5584 40.4116C66.9441 40.2169 68.2121 41.1918 68.3989 42.5921C68.5821 43.9685 67.6019 45.2219 66.1864 45.4214C64.878 45.6054 63.591 44.6364 63.4316 43.2887C63.3804 42.8574 63.2353 42.7463 62.8225 42.7068C57.1284 42.1524 51.4355 41.5813 45.7438 40.9959C45.3715 40.9577 45.1788 40.978 45.0551 41.3902C44.9266 41.8191 44.6697 42.2086 44.4401 42.6734C51.5902 48.9185 58.7711 55.1924 65.9414 61.4555C67.7292 60.4937 69.2625 60.7135 70.2034 62.0445C71.0372 63.2226 70.8802 64.8558 69.8382 65.8571C68.795 66.8595 67.1582 66.9288 66.0318 66.0375C65.0302 65.2453 64.3915 63.5595 65.6107 61.8091C58.4369 55.5425 51.2571 49.2698 44.0702 42.9924C43.7585 43.2122 43.4873 43.4034 43.1721 43.6256C45.6427 48.9639 48.1085 54.2903 50.5696 59.6059C52.7047 59.4626 53.8573 60.14 54.2142 61.7243C54.5056 63.0206 53.7883 64.3755 52.5477 64.8726C51.2785 65.3815 49.8368 64.8869 49.141 63.7053C48.3868 62.4232 48.733 61.0337 50.1461 59.8377C47.6815 54.5137 45.2097 49.173 42.7522 43.8634C42.079 43.9219 41.4557 43.9757 40.7551 44.0378C40.7325 44.0976 40.6611 44.235 40.6254 44.3819C39.5037 48.9532 38.3915 53.5268 37.2556 58.0945C37.1604 58.4792 37.2377 58.6393 37.5636 58.8401C38.5307 59.4363 38.878 60.6323 38.4332 61.6586C38.0014 62.655 36.888 63.2154 35.8377 62.9657C34.7517 62.7064 34.0118 61.6968 34.0915 60.5809C34.17 59.4709 35.0467 58.5844 36.1672 58.4804C36.323 58.4661 36.4788 58.4613 36.6798 58.4494C37.8729 53.5878 39.0636 48.7345 40.2614 43.855C39.9212 43.6889 39.6072 43.536 39.2539 43.364C33.9821 49.9699 28.7221 56.5616 23.4693 63.1425C24.666 64.9693 24.6243 66.4819 23.3694 67.6206C22.2751 68.6146 20.5907 68.6469 19.4465 67.6959C18.3093 66.7496 18.0357 65.0805 18.8089 63.808C19.6689 62.3922 21.214 62.0337 23.0827 62.8498C28.3332 56.2713 33.5919 49.6808 38.8554 43.0856C38.5521 42.6877 38.2666 42.3137 37.9455 41.892C32.9448 43.812 27.9275 45.7392 22.8651 47.6843C22.9852 48.59 22.9162 49.4837 22.1966 50.0966C21.7814 50.4503 21.2259 50.7394 20.6942 50.8362C19.475 51.0584 18.3747 50.283 18.0119 49.087C17.6586 47.9221 18.2034 46.6616 19.2942 46.1203C20.4766 45.5337 21.7017 45.9184 22.6878 47.2351C27.698 45.3103 32.7283 43.3783 37.723 41.4595C37.6612 40.8226 37.6065 40.2539 37.541 39.5836C37.0712 39.4546 36.5276 39.2981 35.9804 39.1559C27.0176 36.8249 18.0547 34.4974 9.09309 32.1628C8.76242 32.0768 8.54831 32.0338 8.32944 32.4209C7.44565 33.9789 5.65784 34.5667 4.08414 33.8702C2.52947 33.182 1.73488 31.4328 2.23685 29.8031C2.73049 28.2033 4.372 27.2008 5.99804 27.5079C7.74778 27.8389 8.86948 29.3144 8.74695 31.1281C8.73863 31.2464 8.72554 31.3635 8.70651 31.5654C18.345 34.0733 27.9858 36.5823 37.641 39.095C37.9181 38.5776 38.1857 38.0794 38.4891 37.5131C34.898 33.5774 31.2784 29.6095 27.667 25.6512C25.6092 26.4684 24.2163 26.165 23.3754 24.736C22.6581 23.5173 22.9412 21.9043 24.0284 21.0083C25.1394 20.093 26.7844 20.1373 27.8419 21.1098C28.9886 22.166 29.0588 23.6918 28.0061 25.3047C31.6185 29.2643 35.2406 33.2321 38.8554 37.1941C39.2289 36.9575 39.562 36.7472 39.9236 36.519C39.2408 34.3541 38.5604 32.1975 37.88 30.0421C35.5915 22.7909 33.2981 15.5409 31.0226 8.28494C30.8704 7.79747 30.7205 7.57046 30.1269 7.57285C28.7852 7.57882 27.6659 6.46886 27.5362 5.15818C27.397 3.75788 28.2297 2.52844 29.5548 2.17479C30.8466 1.83069 32.2181 2.48902 32.7581 3.71368C33.3148 4.97418 32.8794 6.4139 31.7137 7.16662C31.5817 7.25145 31.4437 7.32911 31.2534 7.44261C34.2902 17.069 37.3281 26.6978 40.3744 36.3553C40.761 36.3135 41.1262 36.2741 41.5425 36.2287C41.7423 34.6085 41.9457 32.9968 42.1408 31.3838C42.6868 26.8842 43.2268 22.3847 43.7776 17.8863C43.8442 17.3391 43.8894 16.9412 43.2161 16.6305C42.1468 16.1359 41.7352 14.781 42.1349 13.6507C42.5322 12.53 43.642 11.8359 44.7886 11.99C46.0269 12.1561 46.9369 13.1155 47.0118 14.3342C47.0855 15.5349 46.3124 16.6222 45.1574 16.9257C44.91 16.9902 44.6542 17.0236 44.3449 17.0822C43.573 23.4576 42.801 29.8425 42.029 36.2191C42.6035 36.4605 43.1447 36.6875 43.7704 36.9491C46.8464 33.2811 49.9653 29.5618 53.0782 25.8495C52.192 24.4731 52.261 23.1971 53.2507 22.3345C54.1571 21.5447 55.4929 21.5519 56.404 22.3512C57.2593 23.1015 57.452 24.411 56.8537 25.3931C56.1673 26.5174 54.935 26.8078 53.4553 26.1542C50.3578 29.8473 47.2485 33.5547 44.1166 37.2897C44.3176 37.5513 44.5055 37.7986 44.728 38.0878C54.2035 33.035 63.6695 27.987 73.1236 22.9438C72.6561 20.7717 73.327 19.2531 74.997 18.6354C76.4863 18.0846 78.167 18.7417 78.8997 20.16C79.636 21.5853 79.2161 23.3309 77.9148 24.2461C76.4744 25.2593 74.8329 24.957 73.3508 23.3692C63.9026 28.4076 54.4414 33.4544 45.0241 38.4773C45.1348 39.1571 45.2335 39.7605 45.3477 40.4666C51.3237 41.0688 57.358 41.6757 63.409 42.2851L63.4137 42.2934Z"/>
</mask>
<path d="M63.4137 42.2934C63.8098 41.2564 64.4593 40.5646 65.5584 40.4116C66.9441 40.2169 68.2121 41.1918 68.3989 42.5921C68.5821 43.9685 67.6019 45.2219 66.1864 45.4214C64.878 45.6054 63.591 44.6364 63.4316 43.2887C63.3804 42.8574 63.2353 42.7463 62.8225 42.7068C57.1284 42.1524 51.4355 41.5813 45.7438 40.9959C45.3715 40.9577 45.1788 40.978 45.0551 41.3902C44.9266 41.8191 44.6697 42.2086 44.4401 42.6734C51.5902 48.9185 58.7711 55.1924 65.9414 61.4555C67.7292 60.4937 69.2625 60.7135 70.2034 62.0445C71.0372 63.2226 70.8802 64.8558 69.8382 65.8571C68.795 66.8595 67.1582 66.9288 66.0318 66.0375C65.0302 65.2453 64.3915 63.5595 65.6107 61.8091C58.4369 55.5425 51.2571 49.2698 44.0702 42.9924C43.7585 43.2122 43.4873 43.4034 43.1721 43.6256C45.6427 48.9639 48.1085 54.2903 50.5696 59.6059C52.7047 59.4626 53.8573 60.14 54.2142 61.7243C54.5056 63.0206 53.7883 64.3755 52.5477 64.8726C51.2785 65.3815 49.8368 64.8869 49.141 63.7053C48.3868 62.4232 48.733 61.0337 50.1461 59.8377C47.6815 54.5137 45.2097 49.173 42.7522 43.8634C42.079 43.9219 41.4557 43.9757 40.7551 44.0378C40.7325 44.0976 40.6611 44.235 40.6254 44.3819C39.5037 48.9532 38.3915 53.5268 37.2556 58.0945C37.1604 58.4792 37.2377 58.6393 37.5636 58.8401C38.5307 59.4363 38.878 60.6323 38.4332 61.6586C38.0014 62.655 36.888 63.2154 35.8377 62.9657C34.7517 62.7064 34.0118 61.6968 34.0915 60.5809C34.17 59.4709 35.0467 58.5844 36.1672 58.4804C36.323 58.4661 36.4788 58.4613 36.6798 58.4494C37.8729 53.5878 39.0636 48.7345 40.2614 43.855C39.9212 43.6889 39.6072 43.536 39.2539 43.364C33.9821 49.9699 28.7221 56.5616 23.4693 63.1425C24.666 64.9693 24.6243 66.4819 23.3694 67.6206C22.2751 68.6146 20.5907 68.6469 19.4465 67.6959C18.3093 66.7496 18.0357 65.0805 18.8089 63.808C19.6689 62.3922 21.214 62.0337 23.0827 62.8498C28.3332 56.2713 33.5919 49.6808 38.8554 43.0856C38.5521 42.6877 38.2666 42.3137 37.9455 41.892C32.9448 43.812 27.9275 45.7392 22.8651 47.6843C22.9852 48.59 22.9162 49.4837 22.1966 50.0966C21.7814 50.4503 21.2259 50.7394 20.6942 50.8362C19.475 51.0584 18.3747 50.283 18.0119 49.087C17.6586 47.9221 18.2034 46.6616 19.2942 46.1203C20.4766 45.5337 21.7017 45.9184 22.6878 47.2351C27.698 45.3103 32.7283 43.3783 37.723 41.4595C37.6612 40.8226 37.6065 40.2539 37.541 39.5836C37.0712 39.4546 36.5276 39.2981 35.9804 39.1559C27.0176 36.8249 18.0547 34.4974 9.09309 32.1628C8.76242 32.0768 8.54831 32.0338 8.32944 32.4209C7.44565 33.9789 5.65784 34.5667 4.08414 33.8702C2.52947 33.182 1.73488 31.4328 2.23685 29.8031C2.73049 28.2033 4.372 27.2008 5.99804 27.5079C7.74778 27.8389 8.86948 29.3144 8.74695 31.1281C8.73863 31.2464 8.72554 31.3635 8.70651 31.5654C18.345 34.0733 27.9858 36.5823 37.641 39.095C37.9181 38.5776 38.1857 38.0794 38.4891 37.5131C34.898 33.5774 31.2784 29.6095 27.667 25.6512C25.6092 26.4684 24.2163 26.165 23.3754 24.736C22.6581 23.5173 22.9412 21.9043 24.0284 21.0083C25.1394 20.093 26.7844 20.1373 27.8419 21.1098C28.9886 22.166 29.0588 23.6918 28.0061 25.3047C31.6185 29.2643 35.2406 33.2321 38.8554 37.1941C39.2289 36.9575 39.562 36.7472 39.9236 36.519C39.2408 34.3541 38.5604 32.1975 37.88 30.0421C35.5915 22.7909 33.2981 15.5409 31.0226 8.28494C30.8704 7.79747 30.7205 7.57046 30.1269 7.57285C28.7852 7.57882 27.6659 6.46886 27.5362 5.15818C27.397 3.75788 28.2297 2.52844 29.5548 2.17479C30.8466 1.83069 32.2181 2.48902 32.7581 3.71368C33.3148 4.97418 32.8794 6.4139 31.7137 7.16662C31.5817 7.25145 31.4437 7.32911 31.2534 7.44261C34.2902 17.069 37.3281 26.6978 40.3744 36.3553C40.761 36.3135 41.1262 36.2741 41.5425 36.2287C41.7423 34.6085 41.9457 32.9968 42.1408 31.3838C42.6868 26.8842 43.2268 22.3847 43.7776 17.8863C43.8442 17.3391 43.8894 16.9412 43.2161 16.6305C42.1468 16.1359 41.7352 14.781 42.1349 13.6507C42.5322 12.53 43.642 11.8359 44.7886 11.99C46.0269 12.1561 46.9369 13.1155 47.0118 14.3342C47.0855 15.5349 46.3124 16.6222 45.1574 16.9257C44.91 16.9902 44.6542 17.0236 44.3449 17.0822C43.573 23.4576 42.801 29.8425 42.029 36.2191C42.6035 36.4605 43.1447 36.6875 43.7704 36.9491C46.8464 33.2811 49.9653 29.5618 53.0782 25.8495C52.192 24.4731 52.261 23.1971 53.2507 22.3345C54.1571 21.5447 55.4929 21.5519 56.404 22.3512C57.2593 23.1015 57.452 24.411 56.8537 25.3931C56.1673 26.5174 54.935 26.8078 53.4553 26.1542C50.3578 29.8473 47.2485 33.5547 44.1166 37.2897C44.3176 37.5513 44.5055 37.7986 44.728 38.0878C54.2035 33.035 63.6695 27.987 73.1236 22.9438C72.6561 20.7717 73.327 19.2531 74.997 18.6354C76.4863 18.0846 78.167 18.7417 78.8997 20.16C79.636 21.5853 79.2161 23.3309 77.9148 24.2461C76.4744 25.2593 74.8329 24.957 73.3508 23.3692C63.9026 28.4076 54.4414 33.4544 45.0241 38.4773C45.1348 39.1571 45.2335 39.7605 45.3477 40.4666C51.3237 41.0688 57.358 41.6757 63.409 42.2851L63.4137 42.2934Z" fill="#6DB5B0"/>
<path d="M63.4137 42.2934C63.8098 41.2564 64.4593 40.5646 65.5584 40.4116C66.9441 40.2169 68.2121 41.1918 68.3989 42.5921C68.5821 43.9685 67.6019 45.2219 66.1864 45.4214C64.878 45.6054 63.591 44.6364 63.4316 43.2887C63.3804 42.8574 63.2353 42.7463 62.8225 42.7068C57.1284 42.1524 51.4355 41.5813 45.7438 40.9959C45.3715 40.9577 45.1788 40.978 45.0551 41.3902C44.9266 41.8191 44.6697 42.2086 44.4401 42.6734C51.5902 48.9185 58.7711 55.1924 65.9414 61.4555C67.7292 60.4937 69.2625 60.7135 70.2034 62.0445C71.0372 63.2226 70.8802 64.8558 69.8382 65.8571C68.795 66.8595 67.1582 66.9288 66.0318 66.0375C65.0302 65.2453 64.3915 63.5595 65.6107 61.8091C58.4369 55.5425 51.2571 49.2698 44.0702 42.9924C43.7585 43.2122 43.4873 43.4034 43.1721 43.6256C45.6427 48.9639 48.1085 54.2903 50.5696 59.6059C52.7047 59.4626 53.8573 60.14 54.2142 61.7243C54.5056 63.0206 53.7883 64.3755 52.5477 64.8726C51.2785 65.3815 49.8368 64.8869 49.141 63.7053C48.3868 62.4232 48.733 61.0337 50.1461 59.8377C47.6815 54.5137 45.2097 49.173 42.7522 43.8634C42.079 43.9219 41.4557 43.9757 40.7551 44.0378C40.7325 44.0976 40.6611 44.235 40.6254 44.3819C39.5037 48.9532 38.3915 53.5268 37.2556 58.0945C37.1604 58.4792 37.2377 58.6393 37.5636 58.8401C38.5307 59.4363 38.878 60.6323 38.4332 61.6586C38.0014 62.655 36.888 63.2154 35.8377 62.9657C34.7517 62.7064 34.0118 61.6968 34.0915 60.5809C34.17 59.4709 35.0467 58.5844 36.1672 58.4804C36.323 58.4661 36.4788 58.4613 36.6798 58.4494C37.8729 53.5878 39.0636 48.7345 40.2614 43.855C39.9212 43.6889 39.6072 43.536 39.2539 43.364C33.9821 49.9699 28.7221 56.5616 23.4693 63.1425C24.666 64.9693 24.6243 66.4819 23.3694 67.6206C22.2751 68.6146 20.5907 68.6469 19.4465 67.6959C18.3093 66.7496 18.0357 65.0805 18.8089 63.808C19.6689 62.3922 21.214 62.0337 23.0827 62.8498C28.3332 56.2713 33.5919 49.6808 38.8554 43.0856C38.5521 42.6877 38.2666 42.3137 37.9455 41.892C32.9448 43.812 27.9275 45.7392 22.8651 47.6843C22.9852 48.59 22.9162 49.4837 22.1966 50.0966C21.7814 50.4503 21.2259 50.7394 20.6942 50.8362C19.475 51.0584 18.3747 50.283 18.0119 49.087C17.6586 47.9221 18.2034 46.6616 19.2942 46.1203C20.4766 45.5337 21.7017 45.9184 22.6878 47.2351C27.698 45.3103 32.7283 43.3783 37.723 41.4595C37.6612 40.8226 37.6065 40.2539 37.541 39.5836C37.0712 39.4546 36.5276 39.2981 35.9804 39.1559C27.0176 36.8249 18.0547 34.4974 9.09309 32.1628C8.76242 32.0768 8.54831 32.0338 8.32944 32.4209C7.44565 33.9789 5.65784 34.5667 4.08414 33.8702C2.52947 33.182 1.73488 31.4328 2.23685 29.8031C2.73049 28.2033 4.372 27.2008 5.99804 27.5079C7.74778 27.8389 8.86948 29.3144 8.74695 31.1281C8.73863 31.2464 8.72554 31.3635 8.70651 31.5654C18.345 34.0733 27.9858 36.5823 37.641 39.095C37.9181 38.5776 38.1857 38.0794 38.4891 37.5131C34.898 33.5774 31.2784 29.6095 27.667 25.6512C25.6092 26.4684 24.2163 26.165 23.3754 24.736C22.6581 23.5173 22.9412 21.9043 24.0284 21.0083C25.1394 20.093 26.7844 20.1373 27.8419 21.1098C28.9886 22.166 29.0588 23.6918 28.0061 25.3047C31.6185 29.2643 35.2406 33.2321 38.8554 37.1941C39.2289 36.9575 39.562 36.7472 39.9236 36.519C39.2408 34.3541 38.5604 32.1975 37.88 30.0421C35.5915 22.7909 33.2981 15.5409 31.0226 8.28494C30.8704 7.79747 30.7205 7.57046 30.1269 7.57285C28.7852 7.57882 27.6659 6.46886 27.5362 5.15818C27.397 3.75788 28.2297 2.52844 29.5548 2.17479C30.8466 1.83069 32.2181 2.48902 32.7581 3.71368C33.3148 4.97418 32.8794 6.4139 31.7137 7.16662C31.5817 7.25145 31.4437 7.32911 31.2534 7.44261C34.2902 17.069 37.3281 26.6978 40.3744 36.3553C40.761 36.3135 41.1262 36.2741 41.5425 36.2287C41.7423 34.6085 41.9457 32.9968 42.1408 31.3838C42.6868 26.8842 43.2268 22.3847 43.7776 17.8863C43.8442 17.3391 43.8894 16.9412 43.2161 16.6305C42.1468 16.1359 41.7352 14.781 42.1349 13.6507C42.5322 12.53 43.642 11.8359 44.7886 11.99C46.0269 12.1561 46.9369 13.1155 47.0118 14.3342C47.0855 15.5349 46.3124 16.6222 45.1574 16.9257C44.91 16.9902 44.6542 17.0236 44.3449 17.0822C43.573 23.4576 42.801 29.8425 42.029 36.2191C42.6035 36.4605 43.1447 36.6875 43.7704 36.9491C46.8464 33.2811 49.9653 29.5618 53.0782 25.8495C52.192 24.4731 52.261 23.1971 53.2507 22.3345C54.1571 21.5447 55.4929 21.5519 56.404 22.3512C57.2593 23.1015 57.452 24.411 56.8537 25.3931C56.1673 26.5174 54.935 26.8078 53.4553 26.1542C50.3578 29.8473 47.2485 33.5547 44.1166 37.2897C44.3176 37.5513 44.5055 37.7986 44.728 38.0878C54.2035 33.035 63.6695 27.987 73.1236 22.9438C72.6561 20.7717 73.327 19.2531 74.997 18.6354C76.4863 18.0846 78.167 18.7417 78.8997 20.16C79.636 21.5853 79.2161 23.3309 77.9148 24.2461C76.4744 25.2593 74.8329 24.957 73.3508 23.3692C63.9026 28.4076 54.4414 33.4544 45.0241 38.4773C45.1348 39.1571 45.2335 39.7605 45.3477 40.4666C51.3237 41.0688 57.358 41.6757 63.409 42.2851L63.4137 42.2934Z" stroke="#6DB5B0" stroke-width="0.5" mask="url(#path-1-outside-1_905_2382)"/>
<g opacity="0.5">
<mask id="path-2-outside-2_905_2382" maskUnits="userSpaceOnUse" x="0.173886" y="-3.40949e-06" width="79" height="68" fill="black">
<rect fill="white" x="0.173886" y="-3.40949e-06" width="79" height="68"/>
<path d="M62.3268 41.2096C62.7229 40.1725 63.3723 39.4807 64.4714 39.3278C65.8572 39.133 67.1252 40.108 67.3119 41.5083C67.4951 42.8847 66.515 44.138 65.0995 44.3375C63.791 44.5215 62.504 43.5526 62.3446 42.2048C62.2935 41.7735 62.1484 41.6624 61.7356 41.623C56.0415 41.0686 50.3486 40.4975 44.6568 39.912C44.2845 39.8738 44.0918 39.8941 43.9681 40.3063C43.8397 40.7352 43.5827 41.1247 43.3532 41.5895C50.5032 47.8347 57.6842 54.1085 64.8545 60.3716C66.6423 59.4098 68.1755 59.6296 69.1164 60.9606C69.9502 62.1387 69.7932 63.772 68.7512 64.7732C67.708 65.7756 66.0713 65.8449 64.9449 64.9536C63.9433 64.1615 63.3045 62.4756 64.5238 60.7253C57.3499 54.4586 50.1701 48.1859 42.9832 41.9085C42.6716 42.1284 42.4004 42.3195 42.0852 42.5418C44.5557 47.8801 47.0216 53.2065 49.4826 58.5221C51.6178 58.3787 52.7704 59.0561 53.1272 60.6404C53.4187 61.9368 52.7014 63.2917 51.4607 63.7887C50.1916 64.2977 48.7499 63.803 48.054 62.6214C47.2999 61.3394 47.646 59.9498 49.0592 58.7539C46.5945 53.4299 44.1228 48.0892 41.6653 42.7795C40.992 42.8381 40.3687 42.8918 39.6681 42.954C39.6455 43.0137 39.5741 43.1511 39.5385 43.2981C38.4168 47.8693 37.3046 52.443 36.1686 57.0107C36.0735 57.3954 36.1508 57.5555 36.4767 57.7562C37.4437 58.3524 37.7911 59.5484 37.3462 60.5747C36.9144 61.5712 35.8011 62.1315 34.7507 61.8818C33.6647 61.6225 32.9249 60.613 33.0046 59.497C33.0831 58.3871 33.9597 57.5005 35.0802 57.3966C35.2361 57.3822 35.3919 57.3775 35.5929 57.3655C36.786 52.5039 37.9766 47.6507 39.1745 42.7712C38.8343 42.6051 38.5202 42.4521 38.167 42.2801C32.8951 48.8861 27.6352 55.4777 22.3824 62.0586C23.579 63.8855 23.5374 65.3981 22.2825 66.5367C21.1881 67.5308 19.5038 67.563 18.3595 66.612C17.2224 65.6657 16.9488 63.9966 17.7219 62.7241C18.5819 61.3083 20.1271 60.9499 21.9958 61.7659C27.2462 55.1874 32.505 48.597 37.7685 42.0017C37.4652 41.6038 37.1797 41.2299 36.8585 40.8081C31.8579 42.7281 26.8406 44.6553 21.7781 46.6005C21.8983 47.5061 21.8293 48.3998 21.1096 49.0127C20.6945 49.3664 20.139 49.6555 19.6073 49.7523C18.3881 49.9745 17.2878 49.1991 16.925 48.0031C16.5717 46.8382 17.1165 45.5777 18.2073 45.0365C19.3896 44.4498 20.6148 44.8346 21.6009 46.1512C26.611 44.2264 31.6414 42.2944 36.6361 40.3756C36.5742 39.7388 36.5195 39.1701 36.4541 38.4998C35.9842 38.3707 35.4406 38.2142 34.8935 38.0721C25.9306 35.741 16.9678 33.4136 8.00615 31.0789C7.67547 30.9929 7.46136 30.9499 7.2425 31.337C6.3587 32.895 4.57089 33.4829 2.99719 32.7863C1.44253 32.0981 0.64794 30.3489 1.14991 28.7192C1.64355 27.1194 3.28506 26.117 4.91109 26.424C6.66083 26.755 7.78253 28.2306 7.66001 30.0443C7.65169 30.1625 7.63859 30.2796 7.61957 30.4816C17.258 32.9894 26.8989 35.4985 36.554 38.0111C36.8312 37.4938 37.0988 36.9955 37.4021 36.4292C33.811 32.4936 30.1914 28.5257 26.5801 24.5673C24.5223 25.3846 23.1294 25.0811 22.2884 23.6521C21.5711 22.4335 21.8542 20.8205 22.9414 19.9244C24.0524 19.0092 25.6975 19.0534 26.755 20.0259C27.9016 21.0821 27.9718 22.6079 26.9191 24.2209C30.5316 28.1804 34.1536 32.1483 37.7685 36.1102C38.142 35.8736 38.475 35.6634 38.8366 35.4352C38.1539 33.2702 37.4735 31.1136 36.7931 28.9582C34.5045 21.707 32.2112 14.457 29.9357 7.20108C29.7834 6.7136 29.6335 6.48659 29.04 6.48898C27.6982 6.49496 26.5789 5.385 26.4493 4.07431C26.3101 2.67402 27.1427 1.44458 28.4678 1.09092C29.7596 0.746825 31.1311 1.40515 31.6711 2.62981C32.2278 3.89032 31.7925 5.33004 30.6268 6.08276C30.4947 6.16759 30.3568 6.24525 30.1664 6.35875C33.2032 15.9852 36.2412 25.614 39.2875 35.2715C39.6741 35.2296 40.0392 35.1902 40.4556 35.1448C40.6554 33.5247 40.8588 31.9129 41.0539 30.2999C41.5998 25.8004 42.1399 21.3008 42.6906 16.8024C42.7572 16.2552 42.8024 15.8573 42.1292 15.5467C41.0598 15.052 40.6483 13.6971 41.0479 12.5669C41.4452 11.4462 42.555 10.752 43.7017 10.9061C44.9399 11.0722 45.8499 12.0316 45.9248 13.2503C45.9986 14.4511 45.2254 15.5383 44.0704 15.8418C43.823 15.9063 43.5673 15.9398 43.258 15.9983C42.486 22.3737 41.714 28.7587 40.9421 35.1353C41.5166 35.3766 42.0578 35.6036 42.6835 35.8653C45.7595 32.1973 48.8784 28.4779 51.9913 24.7657C51.1051 23.3893 51.1741 22.1132 52.1637 21.2506C53.0701 20.4609 54.4059 20.468 55.3171 21.2673C56.1723 22.0177 56.365 23.3272 55.7667 24.3093C55.0804 25.4336 53.8481 25.7239 52.3683 25.0704C49.2709 28.7634 46.1616 32.4709 43.0296 36.2058C43.2306 36.4674 43.4186 36.7148 43.641 37.0039C53.1165 31.9511 62.5825 26.9032 72.0366 21.86C71.5691 19.6878 72.24 18.1693 73.9101 17.5515C75.3993 17.0007 77.0801 17.6579 77.8128 19.0761C78.5491 20.5015 78.1292 22.2471 76.8279 23.1623C75.3874 24.1755 73.7459 23.8732 72.2638 22.2853C62.8157 27.3237 53.3544 32.3705 43.9372 37.3934C44.0478 38.0732 44.1466 38.6766 44.2607 39.3827C50.2368 39.9849 56.2711 40.5919 62.322 41.2012L62.3268 41.2096Z"/>
</mask>
<path d="M62.3268 41.2096C62.7229 40.1725 63.3723 39.4807 64.4714 39.3278C65.8572 39.133 67.1252 40.108 67.3119 41.5083C67.4951 42.8847 66.515 44.138 65.0995 44.3375C63.791 44.5215 62.504 43.5526 62.3446 42.2048C62.2935 41.7735 62.1484 41.6624 61.7356 41.623C56.0415 41.0686 50.3486 40.4975 44.6568 39.912C44.2845 39.8738 44.0918 39.8941 43.9681 40.3063C43.8397 40.7352 43.5827 41.1247 43.3532 41.5895C50.5032 47.8347 57.6842 54.1085 64.8545 60.3716C66.6423 59.4098 68.1755 59.6296 69.1164 60.9606C69.9502 62.1387 69.7932 63.772 68.7512 64.7732C67.708 65.7756 66.0713 65.8449 64.9449 64.9536C63.9433 64.1615 63.3045 62.4756 64.5238 60.7253C57.3499 54.4586 50.1701 48.1859 42.9832 41.9085C42.6716 42.1284 42.4004 42.3195 42.0852 42.5418C44.5557 47.8801 47.0216 53.2065 49.4826 58.5221C51.6178 58.3787 52.7704 59.0561 53.1272 60.6404C53.4187 61.9368 52.7014 63.2917 51.4607 63.7887C50.1916 64.2977 48.7499 63.803 48.054 62.6214C47.2999 61.3394 47.646 59.9498 49.0592 58.7539C46.5945 53.4299 44.1228 48.0892 41.6653 42.7795C40.992 42.8381 40.3687 42.8918 39.6681 42.954C39.6455 43.0137 39.5741 43.1511 39.5385 43.2981C38.4168 47.8693 37.3046 52.443 36.1686 57.0107C36.0735 57.3954 36.1508 57.5555 36.4767 57.7562C37.4437 58.3524 37.7911 59.5484 37.3462 60.5747C36.9144 61.5712 35.8011 62.1315 34.7507 61.8818C33.6647 61.6225 32.9249 60.613 33.0046 59.497C33.0831 58.3871 33.9597 57.5005 35.0802 57.3966C35.2361 57.3822 35.3919 57.3775 35.5929 57.3655C36.786 52.5039 37.9766 47.6507 39.1745 42.7712C38.8343 42.6051 38.5202 42.4521 38.167 42.2801C32.8951 48.8861 27.6352 55.4777 22.3824 62.0586C23.579 63.8855 23.5374 65.3981 22.2825 66.5367C21.1881 67.5308 19.5038 67.563 18.3595 66.612C17.2224 65.6657 16.9488 63.9966 17.7219 62.7241C18.5819 61.3083 20.1271 60.9499 21.9958 61.7659C27.2462 55.1874 32.505 48.597 37.7685 42.0017C37.4652 41.6038 37.1797 41.2299 36.8585 40.8081C31.8579 42.7281 26.8406 44.6553 21.7781 46.6005C21.8983 47.5061 21.8293 48.3998 21.1096 49.0127C20.6945 49.3664 20.139 49.6555 19.6073 49.7523C18.3881 49.9745 17.2878 49.1991 16.925 48.0031C16.5717 46.8382 17.1165 45.5777 18.2073 45.0365C19.3896 44.4498 20.6148 44.8346 21.6009 46.1512C26.611 44.2264 31.6414 42.2944 36.6361 40.3756C36.5742 39.7388 36.5195 39.1701 36.4541 38.4998C35.9842 38.3707 35.4406 38.2142 34.8935 38.0721C25.9306 35.741 16.9678 33.4136 8.00615 31.0789C7.67547 30.9929 7.46136 30.9499 7.2425 31.337C6.3587 32.895 4.57089 33.4829 2.99719 32.7863C1.44253 32.0981 0.64794 30.3489 1.14991 28.7192C1.64355 27.1194 3.28506 26.117 4.91109 26.424C6.66083 26.755 7.78253 28.2306 7.66001 30.0443C7.65169 30.1625 7.63859 30.2796 7.61957 30.4816C17.258 32.9894 26.8989 35.4985 36.554 38.0111C36.8312 37.4938 37.0988 36.9955 37.4021 36.4292C33.811 32.4936 30.1914 28.5257 26.5801 24.5673C24.5223 25.3846 23.1294 25.0811 22.2884 23.6521C21.5711 22.4335 21.8542 20.8205 22.9414 19.9244C24.0524 19.0092 25.6975 19.0534 26.755 20.0259C27.9016 21.0821 27.9718 22.6079 26.9191 24.2209C30.5316 28.1804 34.1536 32.1483 37.7685 36.1102C38.142 35.8736 38.475 35.6634 38.8366 35.4352C38.1539 33.2702 37.4735 31.1136 36.7931 28.9582C34.5045 21.707 32.2112 14.457 29.9357 7.20108C29.7834 6.7136 29.6335 6.48659 29.04 6.48898C27.6982 6.49496 26.5789 5.385 26.4493 4.07431C26.3101 2.67402 27.1427 1.44458 28.4678 1.09092C29.7596 0.746825 31.1311 1.40515 31.6711 2.62981C32.2278 3.89032 31.7925 5.33004 30.6268 6.08276C30.4947 6.16759 30.3568 6.24525 30.1664 6.35875C33.2032 15.9852 36.2412 25.614 39.2875 35.2715C39.6741 35.2296 40.0392 35.1902 40.4556 35.1448C40.6554 33.5247 40.8588 31.9129 41.0539 30.2999C41.5998 25.8004 42.1399 21.3008 42.6906 16.8024C42.7572 16.2552 42.8024 15.8573 42.1292 15.5467C41.0598 15.052 40.6483 13.6971 41.0479 12.5669C41.4452 11.4462 42.555 10.752 43.7017 10.9061C44.9399 11.0722 45.8499 12.0316 45.9248 13.2503C45.9986 14.4511 45.2254 15.5383 44.0704 15.8418C43.823 15.9063 43.5673 15.9398 43.258 15.9983C42.486 22.3737 41.714 28.7587 40.9421 35.1353C41.5166 35.3766 42.0578 35.6036 42.6835 35.8653C45.7595 32.1973 48.8784 28.4779 51.9913 24.7657C51.1051 23.3893 51.1741 22.1132 52.1637 21.2506C53.0701 20.4609 54.4059 20.468 55.3171 21.2673C56.1723 22.0177 56.365 23.3272 55.7667 24.3093C55.0804 25.4336 53.8481 25.7239 52.3683 25.0704C49.2709 28.7634 46.1616 32.4709 43.0296 36.2058C43.2306 36.4674 43.4186 36.7148 43.641 37.0039C53.1165 31.9511 62.5825 26.9032 72.0366 21.86C71.5691 19.6878 72.24 18.1693 73.9101 17.5515C75.3993 17.0007 77.0801 17.6579 77.8128 19.0761C78.5491 20.5015 78.1292 22.2471 76.8279 23.1623C75.3874 24.1755 73.7459 23.8732 72.2638 22.2853C62.8157 27.3237 53.3544 32.3705 43.9372 37.3934C44.0478 38.0732 44.1466 38.6766 44.2607 39.3827C50.2368 39.9849 56.2711 40.5919 62.322 41.2012L62.3268 41.2096Z" fill="#8691B0"/>
<path d="M62.3268 41.2096C62.7229 40.1725 63.3723 39.4807 64.4714 39.3278C65.8572 39.133 67.1252 40.108 67.3119 41.5083C67.4951 42.8847 66.515 44.138 65.0995 44.3375C63.791 44.5215 62.504 43.5526 62.3446 42.2048C62.2935 41.7735 62.1484 41.6624 61.7356 41.623C56.0415 41.0686 50.3486 40.4975 44.6568 39.912C44.2845 39.8738 44.0918 39.8941 43.9681 40.3063C43.8397 40.7352 43.5827 41.1247 43.3532 41.5895C50.5032 47.8347 57.6842 54.1085 64.8545 60.3716C66.6423 59.4098 68.1755 59.6296 69.1164 60.9606C69.9502 62.1387 69.7932 63.772 68.7512 64.7732C67.708 65.7756 66.0713 65.8449 64.9449 64.9536C63.9433 64.1615 63.3045 62.4756 64.5238 60.7253C57.3499 54.4586 50.1701 48.1859 42.9832 41.9085C42.6716 42.1284 42.4004 42.3195 42.0852 42.5418C44.5557 47.8801 47.0216 53.2065 49.4826 58.5221C51.6178 58.3787 52.7704 59.0561 53.1272 60.6404C53.4187 61.9368 52.7014 63.2917 51.4607 63.7887C50.1916 64.2977 48.7499 63.803 48.054 62.6214C47.2999 61.3394 47.646 59.9498 49.0592 58.7539C46.5945 53.4299 44.1228 48.0892 41.6653 42.7795C40.992 42.8381 40.3687 42.8918 39.6681 42.954C39.6455 43.0137 39.5741 43.1511 39.5385 43.2981C38.4168 47.8693 37.3046 52.443 36.1686 57.0107C36.0735 57.3954 36.1508 57.5555 36.4767 57.7562C37.4437 58.3524 37.7911 59.5484 37.3462 60.5747C36.9144 61.5712 35.8011 62.1315 34.7507 61.8818C33.6647 61.6225 32.9249 60.613 33.0046 59.497C33.0831 58.3871 33.9597 57.5005 35.0802 57.3966C35.2361 57.3822 35.3919 57.3775 35.5929 57.3655C36.786 52.5039 37.9766 47.6507 39.1745 42.7712C38.8343 42.6051 38.5202 42.4521 38.167 42.2801C32.8951 48.8861 27.6352 55.4777 22.3824 62.0586C23.579 63.8855 23.5374 65.3981 22.2825 66.5367C21.1881 67.5308 19.5038 67.563 18.3595 66.612C17.2224 65.6657 16.9488 63.9966 17.7219 62.7241C18.5819 61.3083 20.1271 60.9499 21.9958 61.7659C27.2462 55.1874 32.505 48.597 37.7685 42.0017C37.4652 41.6038 37.1797 41.2299 36.8585 40.8081C31.8579 42.7281 26.8406 44.6553 21.7781 46.6005C21.8983 47.5061 21.8293 48.3998 21.1096 49.0127C20.6945 49.3664 20.139 49.6555 19.6073 49.7523C18.3881 49.9745 17.2878 49.1991 16.925 48.0031C16.5717 46.8382 17.1165 45.5777 18.2073 45.0365C19.3896 44.4498 20.6148 44.8346 21.6009 46.1512C26.611 44.2264 31.6414 42.2944 36.6361 40.3756C36.5742 39.7388 36.5195 39.1701 36.4541 38.4998C35.9842 38.3707 35.4406 38.2142 34.8935 38.0721C25.9306 35.741 16.9678 33.4136 8.00615 31.0789C7.67547 30.9929 7.46136 30.9499 7.2425 31.337C6.3587 32.895 4.57089 33.4829 2.99719 32.7863C1.44253 32.0981 0.64794 30.3489 1.14991 28.7192C1.64355 27.1194 3.28506 26.117 4.91109 26.424C6.66083 26.755 7.78253 28.2306 7.66001 30.0443C7.65169 30.1625 7.63859 30.2796 7.61957 30.4816C17.258 32.9894 26.8989 35.4985 36.554 38.0111C36.8312 37.4938 37.0988 36.9955 37.4021 36.4292C33.811 32.4936 30.1914 28.5257 26.5801 24.5673C24.5223 25.3846 23.1294 25.0811 22.2884 23.6521C21.5711 22.4335 21.8542 20.8205 22.9414 19.9244C24.0524 19.0092 25.6975 19.0534 26.755 20.0259C27.9016 21.0821 27.9718 22.6079 26.9191 24.2209C30.5316 28.1804 34.1536 32.1483 37.7685 36.1102C38.142 35.8736 38.475 35.6634 38.8366 35.4352C38.1539 33.2702 37.4735 31.1136 36.7931 28.9582C34.5045 21.707 32.2112 14.457 29.9357 7.20108C29.7834 6.7136 29.6335 6.48659 29.04 6.48898C27.6982 6.49496 26.5789 5.385 26.4493 4.07431C26.3101 2.67402 27.1427 1.44458 28.4678 1.09092C29.7596 0.746825 31.1311 1.40515 31.6711 2.62981C32.2278 3.89032 31.7925 5.33004 30.6268 6.08276C30.4947 6.16759 30.3568 6.24525 30.1664 6.35875C33.2032 15.9852 36.2412 25.614 39.2875 35.2715C39.6741 35.2296 40.0392 35.1902 40.4556 35.1448C40.6554 33.5247 40.8588 31.9129 41.0539 30.2999C41.5998 25.8004 42.1399 21.3008 42.6906 16.8024C42.7572 16.2552 42.8024 15.8573 42.1292 15.5467C41.0598 15.052 40.6483 13.6971 41.0479 12.5669C41.4452 11.4462 42.555 10.752 43.7017 10.9061C44.9399 11.0722 45.8499 12.0316 45.9248 13.2503C45.9986 14.4511 45.2254 15.5383 44.0704 15.8418C43.823 15.9063 43.5673 15.9398 43.258 15.9983C42.486 22.3737 41.714 28.7587 40.9421 35.1353C41.5166 35.3766 42.0578 35.6036 42.6835 35.8653C45.7595 32.1973 48.8784 28.4779 51.9913 24.7657C51.1051 23.3893 51.1741 22.1132 52.1637 21.2506C53.0701 20.4609 54.4059 20.468 55.3171 21.2673C56.1723 22.0177 56.365 23.3272 55.7667 24.3093C55.0804 25.4336 53.8481 25.7239 52.3683 25.0704C49.2709 28.7634 46.1616 32.4709 43.0296 36.2058C43.2306 36.4674 43.4186 36.7148 43.641 37.0039C53.1165 31.9511 62.5825 26.9032 72.0366 21.86C71.5691 19.6878 72.24 18.1693 73.9101 17.5515C75.3993 17.0007 77.0801 17.6579 77.8128 19.0761C78.5491 20.5015 78.1292 22.2471 76.8279 23.1623C75.3874 24.1755 73.7459 23.8732 72.2638 22.2853C62.8157 27.3237 53.3544 32.3705 43.9372 37.3934C44.0478 38.0732 44.1466 38.6766 44.2607 39.3827C50.2368 39.9849 56.2711 40.5919 62.322 41.2012L62.3268 41.2096Z" stroke="#8691B0" stroke-width="0.5" mask="url(#path-2-outside-2_905_2382)"/>
</g>
<circle opacity="0.1" cx="66.7609" cy="65.8098" r="34.2391" fill="#DE791B"/>
</svg>
