<svg width="70" height="58" viewBox="0 0 70 58" fill="none" xmlns="http://www.w3.org/2000/svg">
<mask id="path-1-outside-1_935_1828" maskUnits="userSpaceOnUse" x="-0.0468776" y="-0.187503" width="70" height="58" fill="black">
<rect fill="white" x="-0.0468776" y="-0.187503" width="70" height="58"/>
<path d="M55.0091 34.612C55.3576 33.7403 55.9291 33.1588 56.8962 33.0302C58.1155 32.8665 59.2312 33.686 59.3956 34.8631C59.5568 36.0201 58.6943 37.0736 57.4488 37.2413C56.2975 37.396 55.165 36.5815 55.0248 35.4486C54.9798 35.0861 54.8521 34.9927 54.4889 34.9595C49.4786 34.4935 44.4693 34.0135 39.4611 33.5213C39.1335 33.4892 38.9639 33.5063 38.8551 33.8528C38.742 34.2133 38.5159 34.5407 38.3139 34.9314C44.6054 40.181 50.924 45.4547 57.2332 50.7193C58.8063 49.9109 60.1554 50.0957 60.9833 51.2145C61.717 52.2047 61.5789 53.5776 60.662 54.4193C59.7441 55.2619 58.3039 55.3201 57.3127 54.5709C56.4315 53.905 55.8694 52.4879 56.9422 51.0166C50.6299 45.749 44.3123 40.4763 37.9884 35.1996C37.7142 35.3844 37.4756 35.545 37.1982 35.7318C39.3721 40.2192 41.5418 44.6964 43.7073 49.1646C45.5861 49.0441 46.6003 49.6136 46.9143 50.9453C47.1707 52.035 46.5396 53.1739 45.4479 53.5917C44.3311 54.0195 43.0626 53.6038 42.4503 52.6105C41.7867 51.5328 42.0913 50.3648 43.3347 49.3595C41.1661 44.8842 38.9911 40.3949 36.8287 35.9317C36.2363 35.9809 35.6879 36.0261 35.0714 36.0783C35.0515 36.1286 34.9887 36.2441 34.9573 36.3676C33.9703 40.2101 32.9917 44.0547 31.9922 47.8942C31.9084 48.2176 31.9765 48.3522 32.2633 48.5209C33.1142 49.022 33.4198 50.0274 33.0284 50.8901C32.6484 51.7277 31.6688 52.1987 30.7446 51.9888C29.789 51.7709 29.138 50.9222 29.2081 49.9842C29.2772 49.0512 30.0485 48.306 31.0345 48.2186C31.1716 48.2065 31.3087 48.2025 31.4856 48.1925C32.5354 44.1059 33.5831 40.0263 34.6371 35.9247C34.3377 35.7851 34.0614 35.6565 33.7505 35.5119C29.1118 41.0648 24.4835 46.6056 19.8615 52.1374C20.9144 53.673 20.8778 54.9445 19.7736 55.9016C18.8107 56.7372 17.3286 56.7643 16.3217 55.9649C15.3211 55.1695 15.0804 53.7664 15.7607 52.6968C16.5174 51.5067 17.877 51.2054 19.5213 51.8914C24.1412 46.3616 28.7685 40.8217 33.3999 35.2779C33.133 34.9435 32.8818 34.6291 32.5992 34.2746C28.1991 35.8885 23.7843 37.5085 19.3298 39.1435C19.4355 39.9048 19.3748 40.656 18.7416 41.1713C18.3763 41.4685 17.8875 41.7116 17.4197 41.7929C16.3468 41.9797 15.3787 41.3279 15.0595 40.3226C14.7486 39.3434 15.228 38.2838 16.1878 37.8289C17.2281 37.3357 18.3062 37.6591 19.1738 38.7659C23.5823 37.1479 28.0086 35.524 32.4035 33.911C32.3491 33.3757 32.3009 32.8977 32.2434 32.3342C31.8299 32.2258 31.3516 32.0942 30.8702 31.9747C22.9836 30.0153 15.0971 28.0588 7.21167 26.0964C6.9207 26.0241 6.73231 25.9879 6.53973 26.3133C5.76206 27.623 4.18895 28.1171 2.80423 27.5316C1.43626 26.9531 0.73709 25.4828 1.17878 24.1129C1.61314 22.7681 3.05752 21.9254 4.4883 22.1836C6.02791 22.4618 7.0149 23.7021 6.9071 25.2266C6.89977 25.3261 6.88825 25.4245 6.87151 25.5942C15.3525 27.7023 23.8356 29.8114 32.3313 31.9235C32.5752 31.4886 32.8106 31.0698 33.0775 30.5937C29.9177 27.2855 26.7328 23.9502 23.5551 20.6228C21.7444 21.3098 20.5188 21.0547 19.7788 19.8535C19.1477 18.8291 19.3968 17.4733 20.3534 16.72C21.331 15.9507 22.7785 15.9879 23.709 16.8054C24.718 17.6932 24.7797 18.9758 23.8534 20.3316C27.0321 23.6599 30.2191 26.9953 33.3999 30.3256C33.7286 30.1267 34.0216 29.95 34.3398 29.7581C33.739 27.9383 33.1403 26.1255 32.5417 24.3137C30.5279 18.2185 28.51 12.1243 26.5077 6.02503C26.3738 5.61527 26.2419 5.42445 25.7196 5.42645C24.539 5.43148 23.5541 4.49846 23.44 3.39672C23.3175 2.21966 24.0502 1.18621 25.2162 0.88893C26.3528 0.599685 27.5596 1.15307 28.0348 2.1825C28.5246 3.24205 28.1415 4.45226 27.1158 5.08498C26.9996 5.15629 26.8782 5.22157 26.7108 5.31698C29.3829 13.4088 32.056 21.5026 34.7365 29.6206C35.0766 29.5854 35.398 29.5523 35.7643 29.5141C35.9401 28.1522 36.1191 26.7974 36.2908 25.4416C36.7712 21.6593 37.2464 17.877 37.731 14.0958C37.7896 13.6358 37.8293 13.3013 37.2369 13.0402C36.296 12.6244 35.9339 11.4855 36.2855 10.5354C36.6351 9.59338 37.6116 9.00987 38.6206 9.13943C39.7102 9.27903 40.5109 10.0855 40.5768 11.1099C40.6417 12.1193 39.9614 13.0332 38.9451 13.2883C38.7274 13.3425 38.5023 13.3706 38.2302 13.4198C37.5509 18.7789 36.8717 24.146 36.1924 29.5061C36.6979 29.7089 37.1741 29.8998 37.7247 30.1197C40.4313 27.0364 43.1756 23.91 45.9147 20.7896C45.135 19.6326 45.1957 18.56 46.0665 17.8348C46.864 17.171 48.0394 17.177 48.8411 17.8489C49.5937 18.4796 49.7632 19.5804 49.2368 20.4059C48.6329 21.351 47.5485 21.595 46.2465 21.0457C43.521 24.15 40.7851 27.2664 38.0292 30.4059C38.2061 30.6259 38.3715 30.8338 38.5672 31.0768C46.9048 26.8295 55.2341 22.5863 63.5529 18.347C63.1415 16.5212 63.7318 15.2447 65.2013 14.7255C66.5117 14.2625 67.9907 14.8149 68.6354 16.007C69.2833 17.2051 68.9138 18.6724 67.7688 19.4418C66.5013 20.2934 65.0569 20.0393 63.7528 18.7046C55.4392 22.9398 47.1142 27.1821 38.8278 31.4042C38.9252 31.9757 39.0121 32.4829 39.1125 33.0764C44.3709 33.5826 49.6806 34.0928 55.0049 34.605L55.0091 34.612Z"/>
</mask>
<path d="M55.0091 34.612C55.3576 33.7403 55.9291 33.1588 56.8962 33.0302C58.1155 32.8665 59.2312 33.686 59.3956 34.8631C59.5568 36.0201 58.6943 37.0736 57.4488 37.2413C56.2975 37.396 55.165 36.5815 55.0248 35.4486C54.9798 35.0861 54.8521 34.9927 54.4889 34.9595C49.4786 34.4935 44.4693 34.0135 39.4611 33.5213C39.1335 33.4892 38.9639 33.5063 38.8551 33.8528C38.742 34.2133 38.5159 34.5407 38.3139 34.9314C44.6054 40.181 50.924 45.4547 57.2332 50.7193C58.8063 49.9109 60.1554 50.0957 60.9833 51.2145C61.717 52.2047 61.5789 53.5776 60.662 54.4193C59.7441 55.2619 58.3039 55.3201 57.3127 54.5709C56.4315 53.905 55.8694 52.4879 56.9422 51.0166C50.6299 45.749 44.3123 40.4763 37.9884 35.1996C37.7142 35.3844 37.4756 35.545 37.1982 35.7318C39.3721 40.2192 41.5418 44.6964 43.7073 49.1646C45.5861 49.0441 46.6003 49.6136 46.9143 50.9453C47.1707 52.035 46.5396 53.1739 45.4479 53.5917C44.3311 54.0195 43.0626 53.6038 42.4503 52.6105C41.7867 51.5328 42.0913 50.3648 43.3347 49.3595C41.1661 44.8842 38.9911 40.3949 36.8287 35.9317C36.2363 35.9809 35.6879 36.0261 35.0714 36.0783C35.0515 36.1286 34.9887 36.2441 34.9573 36.3676C33.9703 40.2101 32.9917 44.0547 31.9922 47.8942C31.9084 48.2176 31.9765 48.3522 32.2633 48.5209C33.1142 49.022 33.4198 50.0274 33.0284 50.8901C32.6484 51.7277 31.6688 52.1987 30.7446 51.9888C29.789 51.7709 29.138 50.9222 29.2081 49.9842C29.2772 49.0512 30.0485 48.306 31.0345 48.2186C31.1716 48.2065 31.3087 48.2025 31.4856 48.1925C32.5354 44.1059 33.5831 40.0263 34.6371 35.9247C34.3377 35.7851 34.0614 35.6565 33.7505 35.5119C29.1118 41.0648 24.4835 46.6056 19.8615 52.1374C20.9144 53.673 20.8778 54.9445 19.7736 55.9016C18.8107 56.7372 17.3286 56.7643 16.3217 55.9649C15.3211 55.1695 15.0804 53.7664 15.7607 52.6968C16.5174 51.5067 17.877 51.2054 19.5213 51.8914C24.1412 46.3616 28.7685 40.8217 33.3999 35.2779C33.133 34.9435 32.8818 34.6291 32.5992 34.2746C28.1991 35.8885 23.7843 37.5085 19.3298 39.1435C19.4355 39.9048 19.3748 40.656 18.7416 41.1713C18.3763 41.4685 17.8875 41.7116 17.4197 41.7929C16.3468 41.9797 15.3787 41.3279 15.0595 40.3226C14.7486 39.3434 15.228 38.2838 16.1878 37.8289C17.2281 37.3357 18.3062 37.6591 19.1738 38.7659C23.5823 37.1479 28.0086 35.524 32.4035 33.911C32.3491 33.3757 32.3009 32.8977 32.2434 32.3342C31.8299 32.2258 31.3516 32.0942 30.8702 31.9747C22.9836 30.0153 15.0971 28.0588 7.21167 26.0964C6.9207 26.0241 6.73231 25.9879 6.53973 26.3133C5.76206 27.623 4.18895 28.1171 2.80423 27.5316C1.43626 26.9531 0.73709 25.4828 1.17878 24.1129C1.61314 22.7681 3.05752 21.9254 4.4883 22.1836C6.02791 22.4618 7.0149 23.7021 6.9071 25.2266C6.89977 25.3261 6.88825 25.4245 6.87151 25.5942C15.3525 27.7023 23.8356 29.8114 32.3313 31.9235C32.5752 31.4886 32.8106 31.0698 33.0775 30.5937C29.9177 27.2855 26.7328 23.9502 23.5551 20.6228C21.7444 21.3098 20.5188 21.0547 19.7788 19.8535C19.1477 18.8291 19.3968 17.4733 20.3534 16.72C21.331 15.9507 22.7785 15.9879 23.709 16.8054C24.718 17.6932 24.7797 18.9758 23.8534 20.3316C27.0321 23.6599 30.2191 26.9953 33.3999 30.3256C33.7286 30.1267 34.0216 29.95 34.3398 29.7581C33.739 27.9383 33.1403 26.1255 32.5417 24.3137C30.5279 18.2185 28.51 12.1243 26.5077 6.02503C26.3738 5.61527 26.2419 5.42445 25.7196 5.42645C24.539 5.43148 23.5541 4.49846 23.44 3.39672C23.3175 2.21966 24.0502 1.18621 25.2162 0.88893C26.3528 0.599685 27.5596 1.15307 28.0348 2.1825C28.5246 3.24205 28.1415 4.45226 27.1158 5.08498C26.9996 5.15629 26.8782 5.22157 26.7108 5.31698C29.3829 13.4088 32.056 21.5026 34.7365 29.6206C35.0766 29.5854 35.398 29.5523 35.7643 29.5141C35.9401 28.1522 36.1191 26.7974 36.2908 25.4416C36.7712 21.6593 37.2464 17.877 37.731 14.0958C37.7896 13.6358 37.8293 13.3013 37.2369 13.0402C36.296 12.6244 35.9339 11.4855 36.2855 10.5354C36.6351 9.59338 37.6116 9.00987 38.6206 9.13943C39.7102 9.27903 40.5109 10.0855 40.5768 11.1099C40.6417 12.1193 39.9614 13.0332 38.9451 13.2883C38.7274 13.3425 38.5023 13.3706 38.2302 13.4198C37.5509 18.7789 36.8717 24.146 36.1924 29.5061C36.6979 29.7089 37.1741 29.8998 37.7247 30.1197C40.4313 27.0364 43.1756 23.91 45.9147 20.7896C45.135 19.6326 45.1957 18.56 46.0665 17.8348C46.864 17.171 48.0394 17.177 48.8411 17.8489C49.5937 18.4796 49.7632 19.5804 49.2368 20.4059C48.6329 21.351 47.5485 21.595 46.2465 21.0457C43.521 24.15 40.7851 27.2664 38.0292 30.4059C38.2061 30.6259 38.3715 30.8338 38.5672 31.0768C46.9048 26.8295 55.2341 22.5863 63.5529 18.347C63.1415 16.5212 63.7318 15.2447 65.2013 14.7255C66.5117 14.2625 67.9907 14.8149 68.6354 16.007C69.2833 17.2051 68.9138 18.6724 67.7688 19.4418C66.5013 20.2934 65.0569 20.0393 63.7528 18.7046C55.4392 22.9398 47.1142 27.1821 38.8278 31.4042C38.9252 31.9757 39.0121 32.4829 39.1125 33.0764C44.3709 33.5826 49.6806 34.0928 55.0049 34.605L55.0091 34.612Z" fill="#67BEA1"/>
<path d="M55.0091 34.612C55.3576 33.7403 55.9291 33.1588 56.8962 33.0302C58.1155 32.8665 59.2312 33.686 59.3956 34.8631C59.5568 36.0201 58.6943 37.0736 57.4488 37.2413C56.2975 37.396 55.165 36.5815 55.0248 35.4486C54.9798 35.0861 54.8521 34.9927 54.4889 34.9595C49.4786 34.4935 44.4693 34.0135 39.4611 33.5213C39.1335 33.4892 38.9639 33.5063 38.8551 33.8528C38.742 34.2133 38.5159 34.5407 38.3139 34.9314C44.6054 40.181 50.924 45.4547 57.2332 50.7193C58.8063 49.9109 60.1554 50.0957 60.9833 51.2145C61.717 52.2047 61.5789 53.5776 60.662 54.4193C59.7441 55.2619 58.3039 55.3201 57.3127 54.5709C56.4315 53.905 55.8694 52.4879 56.9422 51.0166C50.6299 45.749 44.3123 40.4763 37.9884 35.1996C37.7142 35.3844 37.4756 35.545 37.1982 35.7318C39.3721 40.2192 41.5418 44.6964 43.7073 49.1646C45.5861 49.0441 46.6003 49.6136 46.9143 50.9453C47.1707 52.035 46.5396 53.1739 45.4479 53.5917C44.3311 54.0195 43.0626 53.6038 42.4503 52.6105C41.7867 51.5328 42.0913 50.3648 43.3347 49.3595C41.1661 44.8842 38.9911 40.3949 36.8287 35.9317C36.2363 35.9809 35.6879 36.0261 35.0714 36.0783C35.0515 36.1286 34.9887 36.2441 34.9573 36.3676C33.9703 40.2101 32.9917 44.0547 31.9922 47.8942C31.9084 48.2176 31.9765 48.3522 32.2633 48.5209C33.1142 49.022 33.4198 50.0274 33.0284 50.8901C32.6484 51.7277 31.6688 52.1987 30.7446 51.9888C29.789 51.7709 29.138 50.9222 29.2081 49.9842C29.2772 49.0512 30.0485 48.306 31.0345 48.2186C31.1716 48.2065 31.3087 48.2025 31.4856 48.1925C32.5354 44.1059 33.5831 40.0263 34.6371 35.9247C34.3377 35.7851 34.0614 35.6565 33.7505 35.5119C29.1118 41.0648 24.4835 46.6056 19.8615 52.1374C20.9144 53.673 20.8778 54.9445 19.7736 55.9016C18.8107 56.7372 17.3286 56.7643 16.3217 55.9649C15.3211 55.1695 15.0804 53.7664 15.7607 52.6968C16.5174 51.5067 17.877 51.2054 19.5213 51.8914C24.1412 46.3616 28.7685 40.8217 33.3999 35.2779C33.133 34.9435 32.8818 34.6291 32.5992 34.2746C28.1991 35.8885 23.7843 37.5085 19.3298 39.1435C19.4355 39.9048 19.3748 40.656 18.7416 41.1713C18.3763 41.4685 17.8875 41.7116 17.4197 41.7929C16.3468 41.9797 15.3787 41.3279 15.0595 40.3226C14.7486 39.3434 15.228 38.2838 16.1878 37.8289C17.2281 37.3357 18.3062 37.6591 19.1738 38.7659C23.5823 37.1479 28.0086 35.524 32.4035 33.911C32.3491 33.3757 32.3009 32.8977 32.2434 32.3342C31.8299 32.2258 31.3516 32.0942 30.8702 31.9747C22.9836 30.0153 15.0971 28.0588 7.21167 26.0964C6.9207 26.0241 6.73231 25.9879 6.53973 26.3133C5.76206 27.623 4.18895 28.1171 2.80423 27.5316C1.43626 26.9531 0.73709 25.4828 1.17878 24.1129C1.61314 22.7681 3.05752 21.9254 4.4883 22.1836C6.02791 22.4618 7.0149 23.7021 6.9071 25.2266C6.89977 25.3261 6.88825 25.4245 6.87151 25.5942C15.3525 27.7023 23.8356 29.8114 32.3313 31.9235C32.5752 31.4886 32.8106 31.0698 33.0775 30.5937C29.9177 27.2855 26.7328 23.9502 23.5551 20.6228C21.7444 21.3098 20.5188 21.0547 19.7788 19.8535C19.1477 18.8291 19.3968 17.4733 20.3534 16.72C21.331 15.9507 22.7785 15.9879 23.709 16.8054C24.718 17.6932 24.7797 18.9758 23.8534 20.3316C27.0321 23.6599 30.2191 26.9953 33.3999 30.3256C33.7286 30.1267 34.0216 29.95 34.3398 29.7581C33.739 27.9383 33.1403 26.1255 32.5417 24.3137C30.5279 18.2185 28.51 12.1243 26.5077 6.02503C26.3738 5.61527 26.2419 5.42445 25.7196 5.42645C24.539 5.43148 23.5541 4.49846 23.44 3.39672C23.3175 2.21966 24.0502 1.18621 25.2162 0.88893C26.3528 0.599685 27.5596 1.15307 28.0348 2.1825C28.5246 3.24205 28.1415 4.45226 27.1158 5.08498C26.9996 5.15629 26.8782 5.22157 26.7108 5.31698C29.3829 13.4088 32.056 21.5026 34.7365 29.6206C35.0766 29.5854 35.398 29.5523 35.7643 29.5141C35.9401 28.1522 36.1191 26.7974 36.2908 25.4416C36.7712 21.6593 37.2464 17.877 37.731 14.0958C37.7896 13.6358 37.8293 13.3013 37.2369 13.0402C36.296 12.6244 35.9339 11.4855 36.2855 10.5354C36.6351 9.59338 37.6116 9.00987 38.6206 9.13943C39.7102 9.27903 40.5109 10.0855 40.5768 11.1099C40.6417 12.1193 39.9614 13.0332 38.9451 13.2883C38.7274 13.3425 38.5023 13.3706 38.2302 13.4198C37.5509 18.7789 36.8717 24.146 36.1924 29.5061C36.6979 29.7089 37.1741 29.8998 37.7247 30.1197C40.4313 27.0364 43.1756 23.91 45.9147 20.7896C45.135 19.6326 45.1957 18.56 46.0665 17.8348C46.864 17.171 48.0394 17.177 48.8411 17.8489C49.5937 18.4796 49.7632 19.5804 49.2368 20.4059C48.6329 21.351 47.5485 21.595 46.2465 21.0457C43.521 24.15 40.7851 27.2664 38.0292 30.4059C38.2061 30.6259 38.3715 30.8338 38.5672 31.0768C46.9048 26.8295 55.2341 22.5863 63.5529 18.347C63.1415 16.5212 63.7318 15.2447 65.2013 14.7255C66.5117 14.2625 67.9907 14.8149 68.6354 16.007C69.2833 17.2051 68.9138 18.6724 67.7688 19.4418C66.5013 20.2934 65.0569 20.0393 63.7528 18.7046C55.4392 22.9398 47.1142 27.1821 38.8278 31.4042C38.9252 31.9757 39.0121 32.4829 39.1125 33.0764C44.3709 33.5826 49.6806 34.0928 55.0049 34.605L55.0091 34.612Z" stroke="#67BEA1" mask="url(#path-1-outside-1_935_1828)"/>
</svg>
