<svg width="32" height="32" viewBox="0 0 32 32" fill="none" xmlns="http://www.w3.org/2000/svg">
<g id="Icons/32px/education">
<path id="Vector" d="M22.666 13.3345V20.0011" stroke="#00F1BF" stroke-linecap="round" stroke-linejoin="round"/>
<path id="Vector_2" d="M29.334 16C29.334 19.5362 27.9292 22.9276 25.4287 25.4281C22.9283 27.9286 19.5369 29.3333 16.0007 29.3333C13.9535 29.216 11.9519 28.6826 10.1179 27.7656C8.28387 26.8486 6.6561 25.5673 5.33398 24" stroke="#00F1BF" stroke-linecap="round" stroke-linejoin="round"/>
<path id="Vector_3" d="M2.66602 15.9998C2.66602 12.4636 4.07077 9.07223 6.57126 6.57175C9.07174 4.07126 12.4631 2.6665 15.9993 2.6665C18.0465 2.78381 20.0481 3.31726 21.8821 4.23426C23.7161 5.15125 25.3439 6.43254 26.666 7.99984" stroke="#00F1BF" stroke-linecap="round" stroke-linejoin="round"/>
<path id="Vector_4" d="M21.334 8.0013H26.6673V2.66797" stroke="#00F1BF" stroke-linecap="round" stroke-linejoin="round"/>
<path id="Vector_5" d="M10.6673 24.0015H5.33398V29.3348" stroke="#00F1BF" stroke-linecap="round" stroke-linejoin="round"/>
<path id="Vector_6" d="M15.5053 10.7278L9.72 13.0412C9.68912 13.0536 9.66266 13.0749 9.64403 13.1025C9.62539 13.13 9.61543 13.1625 9.61543 13.1958C9.61543 13.2291 9.62539 13.2616 9.64403 13.2892C9.66266 13.3167 9.68912 13.3381 9.72 13.3505L15.5053 15.6638C15.8227 15.7918 16.1773 15.7918 16.4947 15.6638L22.6667 13.1998L16.4947 10.7278C16.1773 10.5998 15.8227 10.5998 15.5053 10.7278Z" stroke="#00F1BF" stroke-linecap="round" stroke-linejoin="round"/>
<path id="Vector_7" d="M12 16.5332V18.5332C12.5401 19.0172 13.1737 19.3853 13.8617 19.6146C14.5498 19.844 15.2775 19.9297 16 19.8665C16.7225 19.9297 17.4502 19.844 18.1383 19.6146C18.8263 19.3853 19.4599 19.0172 20 18.5332V16.5332" stroke="#00F1BF" stroke-linecap="round" stroke-linejoin="round"/>
<path id="Vector_8" d="M22.666 22.5293V23.8626" stroke="#00F1BF" stroke-linecap="round" stroke-linejoin="round"/>
</g>
</svg>
