<svg width="32" height="32" viewBox="0 0 32 32" fill="none" xmlns="http://www.w3.org/2000/svg">
<g id="Group">
<path id="Vector" d="M0.666016 15.9974C0.666016 18.011 1.06262 20.0049 1.8332 21.8652C2.60377 23.7255 3.73321 25.4159 5.15705 26.8397C6.58088 28.2635 8.27121 29.393 10.1315 30.1636C11.9919 30.9341 13.9857 31.3307 15.9994 31.3307C18.013 31.3307 20.0068 30.9341 21.8672 30.1636C23.7275 29.393 25.4178 28.2635 26.8417 26.8397C28.2655 25.4159 29.3949 23.7255 30.1655 21.8652C30.9361 20.0049 31.3327 18.011 31.3327 15.9974C31.3327 13.9838 30.9361 11.9899 30.1655 10.1296C29.3949 8.26926 28.2655 6.57892 26.8417 5.15509C25.4178 3.73126 23.7275 2.60182 21.8672 1.83124C20.0068 1.06067 18.013 0.664063 15.9994 0.664062C13.9857 0.664063 11.9919 1.06067 10.1315 1.83124C8.27121 2.60182 6.58088 3.73126 5.15705 5.15509C3.73321 6.57892 2.60377 8.26926 1.8332 10.1296C1.06262 11.9899 0.666016 13.9838 0.666016 15.9974Z" stroke="#00F1BF" stroke-linecap="round" stroke-linejoin="round"/>
<path id="Vector_2" d="M8.66602 10.3306C8.66602 10.7245 8.74361 11.1146 8.89438 11.4786C9.04514 11.8426 9.26612 12.1733 9.5447 12.4519C9.82327 12.7305 10.154 12.9514 10.518 13.1022C10.8819 13.253 11.2721 13.3306 11.666 13.3306C12.06 13.3306 12.4501 13.253 12.8141 13.1022C13.178 12.9514 13.5088 12.7305 13.7873 12.4519C14.0659 12.1733 14.2869 11.8426 14.4377 11.4786C14.5884 11.1146 14.666 10.7245 14.666 10.3306C14.666 9.9366 14.5884 9.54649 14.4377 9.18252C14.2869 8.81854 14.0659 8.48782 13.7873 8.20925C13.5088 7.93067 13.178 7.70969 12.8141 7.55893C12.4501 7.40816 12.06 7.33057 11.666 7.33057C11.2721 7.33057 10.8819 7.40816 10.518 7.55893C10.154 7.70969 9.82327 7.93067 9.5447 8.20925C9.26612 8.48782 9.04514 8.81854 8.89438 9.18252C8.74361 9.54649 8.66602 9.9366 8.66602 10.3306Z" stroke="#00F1BF" stroke-linecap="round" stroke-linejoin="round"/>
<path id="Vector_3" d="M17.332 23.6642C17.332 24.1063 17.5076 24.5302 17.8202 24.8427C18.1327 25.1553 18.5567 25.3309 18.9987 25.3309C19.4407 25.3309 19.8646 25.1553 20.1772 24.8427C20.4898 24.5302 20.6654 24.1063 20.6654 23.6642C20.6654 23.2222 20.4898 22.7983 20.1772 22.4857C19.8646 22.1732 19.4407 21.9976 18.9987 21.9976C18.5567 21.9976 18.1327 22.1732 17.8202 22.4857C17.5076 22.7983 17.332 23.2222 17.332 23.6642Z" stroke="#00F1BF" stroke-linecap="round" stroke-linejoin="round"/>
<path id="Vector_4" d="M22.666 13.6639C22.666 14.2827 22.9118 14.8762 23.3494 15.3138C23.787 15.7514 24.3805 15.9972 24.9993 15.9972C25.6182 15.9972 26.2117 15.7514 26.6493 15.3138C27.0868 14.8762 27.3327 14.2827 27.3327 13.6639C27.3327 13.0451 27.0868 12.4516 26.6493 12.014C26.2117 11.5764 25.6182 11.3306 24.9993 11.3306C24.3805 11.3306 23.787 11.5764 23.3494 12.014C22.9118 12.4516 22.666 13.0451 22.666 13.6639Z" stroke="#00F1BF" stroke-linecap="round" stroke-linejoin="round"/>
<path id="Vector_5" d="M14.666 10C17.6466 10.1135 20.4866 11.2969 22.666 13.3333" stroke="#00F1BF" stroke-linecap="round" stroke-linejoin="round"/>
<path id="Vector_6" d="M25.4668 15.9521L26.0001 16.6641C26.0001 16.6641 28.0001 19.3335 28.0001 25.3335" stroke="#00F1BF" stroke-linecap="round" stroke-linejoin="round"/>
<path id="Vector_7" d="M22.4297 2.07324L22.6657 2.66658C23.6305 5.52474 24.0819 8.5311 23.999 11.5466" stroke="#00F1BF" stroke-linecap="round" stroke-linejoin="round"/>
<path id="Vector_8" d="M23.3324 15.3335C23.1659 18.088 22.1734 20.7286 20.4844 22.9108" stroke="#00F1BF" stroke-linecap="round" stroke-linejoin="round"/>
<path id="Vector_9" d="M18.2014 25.1279L17.9987 25.3333C17.9987 25.3333 14.6654 28.6666 7.33203 28.6666" stroke="#00F1BF" stroke-linecap="round" stroke-linejoin="round"/>
<path id="Vector_10" d="M15.9993 0.666504C14.1752 2.61751 12.7085 4.8741 11.666 7.33317" stroke="#00F1BF" stroke-linecap="round" stroke-linejoin="round"/>
<path id="Vector_11" d="M10.1087 12.896L9.99935 13.3333C9.27288 16.9393 9.74094 20.6838 11.3327 24C13.5993 28.5413 19.3327 30.6667 19.3327 30.6667L19.83 30.852" stroke="#00F1BF" stroke-linecap="round" stroke-linejoin="round"/>
<path id="Vector_12" d="M8.6668 10.3306C8.6668 10.3306 3.54546 10.6972 0.966797 12.9612" stroke="#00F1BF" stroke-linecap="round" stroke-linejoin="round"/>
<path id="Vector_13" d="M1.03906 19.3759L1.3324 19.3332C1.3324 19.3332 10.5071 17.9226 17.9644 22.3599" stroke="#00F1BF" stroke-linecap="round" stroke-linejoin="round"/>
</g>
</svg>
