<svg width="62" height="62" viewBox="0 0 62 62" fill="none" xmlns="http://www.w3.org/2000/svg">
<path d="M18.0019 22.7194C17.7138 23.2676 17.9341 23.9286 18.5104 24.2026C19.0698 24.4767 19.7816 24.2671 20.0698 23.719C21.1206 21.7682 22.7139 20.14 24.68 18.9953C28.6123 16.706 33.8159 16.706 37.7482 18.9953C39.7143 20.14 41.3076 21.7682 42.3585 23.719C42.5618 24.1059 42.9687 24.3155 43.3924 24.3155C43.5619 24.3155 43.7483 24.2832 43.9178 24.2026C44.4941 23.9286 44.7145 23.2676 44.4263 22.7194C43.189 20.414 41.3076 18.4633 38.9685 17.1091C38.0194 16.5609 37.0194 16.1579 35.9685 15.8355C38.2058 14.3684 39.6804 11.8856 39.6804 9.06434C39.6804 4.55026 35.8838 0.890625 31.2226 0.890625C26.5615 0.890625 22.7647 4.56639 22.7647 9.06434C22.7647 11.8695 24.2393 14.3523 26.4767 15.8355C25.4428 16.1579 24.4258 16.5771 23.4766 17.1252C21.1376 18.4794 19.2562 20.414 18.0189 22.7355L18.0019 22.7194ZM25.0529 9.06434C25.0529 5.77551 27.8157 3.08318 31.2056 3.08318C34.5956 3.08318 37.3414 5.75939 37.3414 9.06434C37.3414 12.3693 34.5786 15.0455 31.2056 15.0455C27.8327 15.0455 25.0529 12.3693 25.0529 9.06434Z" fill="#67BEA1"/>
<path d="M61.3912 55.0104C60.1539 52.705 58.2725 50.7543 55.9335 49.4C54.9843 48.8519 53.9843 48.4488 52.9334 48.1264C55.1707 46.6593 56.6454 44.1766 56.6454 41.3553C56.6454 38.534 55.1877 36.1157 52.9842 34.6325V25.4754H13.0849C12.6442 23.3635 12.1188 18.6076 15.4748 16.3183C15.8307 16.5279 16.2545 16.673 16.7121 16.673C17.9834 16.673 19.0342 15.6895 19.0342 14.4643C19.0342 13.239 18.0003 12.2556 16.7121 12.2556C15.424 12.2556 14.39 13.239 14.39 14.4643C14.39 14.7061 14.4409 14.9479 14.5256 15.1575C10.6442 17.8176 11.034 22.9604 11.5086 25.4754H9.7628V34.423C7.35595 35.8739 5.76267 38.4373 5.76267 41.3553C5.76267 44.2733 7.23728 46.6432 9.47463 48.1264C8.44071 48.4488 7.42375 48.868 6.47457 49.4C4.13553 50.7543 2.25412 52.6889 1.0168 55.0104C0.728659 55.5585 0.948983 56.2195 1.52527 56.4936C2.10155 56.7676 2.79651 56.5581 3.08465 56.0099C4.13553 54.0592 5.72879 52.4309 7.69494 51.2863C11.6272 48.997 16.8308 48.997 20.7631 51.2863C21.8817 51.9311 22.8648 52.7533 23.6954 53.6884C23.6106 53.7368 23.5258 53.769 23.458 53.8013C21.119 55.1555 19.2376 57.0901 18.0003 59.4116C17.7121 59.9597 17.9325 60.6207 18.5088 60.8948C19.0851 61.1689 19.78 60.9593 20.0681 60.4111C21.119 58.4604 22.7123 56.8321 24.6784 55.6875C24.7971 55.623 24.9327 55.5746 25.0513 55.494C25.7293 55.1232 26.4412 54.833 27.187 54.6073C29.7803 53.7851 32.6278 53.7851 35.238 54.6073C35.9669 54.833 36.6957 55.1394 37.3737 55.494C37.4923 55.5585 37.6279 55.6069 37.7465 55.6875C39.7127 56.8321 41.3059 58.4604 42.3568 60.4111C42.5602 60.7981 42.967 61.0077 43.3908 61.0077C43.5603 61.0077 43.7467 60.9754 43.9162 60.8948C44.4925 60.6207 44.7128 59.9597 44.4247 59.4116C43.1874 57.1062 41.3059 55.1555 38.9669 53.8013C38.8822 53.7529 38.7974 53.7206 38.7296 53.6884C39.5771 52.7533 40.5602 51.9311 41.6788 51.2863C45.6112 48.997 50.8147 48.997 54.747 51.2863C56.7132 52.4309 58.3064 54.0592 59.3573 56.0099C59.6454 56.5581 60.3404 56.7676 60.9166 56.4936C61.4929 56.2195 61.7133 55.5585 61.4251 55.0104H61.3912ZM54.3402 41.3553C54.3402 42.7418 53.8317 44.0154 53.0012 45.031C51.8825 46.4175 50.1537 47.3203 48.2045 47.3203C46.3739 47.3203 44.7467 46.5142 43.6111 45.2729C42.6619 44.2249 42.0517 42.8546 42.0517 41.3392C42.0517 38.0504 44.8145 35.358 48.2045 35.358C49.0858 35.358 49.9333 35.5515 50.696 35.8739C51.6113 36.277 52.391 36.8896 53.0181 37.6473C53.8487 38.663 54.3572 39.9366 54.3572 41.323L54.3402 41.3553ZM12.1018 27.668H50.6791V33.5363C49.8994 33.2944 49.0519 33.1816 48.1875 33.1816C43.5263 33.1816 39.7297 36.8573 39.7297 41.3553C39.7297 42.774 40.1025 44.1282 40.7805 45.289H39.6618C39.4076 41.0006 35.7296 37.5828 31.221 37.5828C26.7124 37.5828 23.0343 41.0006 22.7801 45.289H21.6614C22.3224 44.1282 22.7123 42.774 22.7123 41.3553C22.7123 36.8412 18.9156 33.1816 14.2544 33.1816C13.5086 33.1816 12.7967 33.2783 12.1188 33.4557V27.668H12.1018ZM37.3567 45.7565C37.3567 46.3691 37.2381 46.9334 37.0686 47.4815C36.3058 49.932 33.9838 51.7215 31.221 51.7215C28.4582 51.7215 26.1361 49.932 25.3734 47.4815C25.2039 46.9334 25.0852 46.353 25.0852 45.7565C25.0852 45.5953 25.1191 45.4502 25.1361 45.289C25.3903 42.2259 28.0175 39.7915 31.2379 39.7915C34.4583 39.7915 37.0855 42.2259 37.3398 45.289C37.3398 45.4502 37.3906 45.5953 37.3906 45.7565H37.3567ZM8.08475 41.3553C8.08475 39.7754 8.72884 38.3405 9.77971 37.2604C10.4238 36.5994 11.2035 36.0996 12.1018 35.7772C12.7798 35.5354 13.4917 35.3741 14.2375 35.3741C17.6274 35.3741 20.3902 38.0503 20.3902 41.3553C20.3902 42.8707 19.797 44.2411 18.8308 45.289C17.7122 46.5304 16.068 47.3364 14.2375 47.3364C12.4069 47.3364 10.8984 46.611 9.77971 45.4502C8.74579 44.3862 8.08475 42.9513 8.08475 41.3553ZM21.9665 49.4C21.0173 48.8519 20.0173 48.4488 18.9664 48.1264C19.2546 47.9329 19.5257 47.7234 19.7969 47.4977H22.9326C23.4072 49.5774 24.6784 51.3669 26.4582 52.5276C26.2548 52.5921 26.0513 52.6566 25.8479 52.7211C24.7632 51.4152 23.475 50.2706 21.9665 49.4ZM40.4246 49.4C38.9161 50.2706 37.6279 51.4152 36.5431 52.7211C36.3397 52.6566 36.1364 52.5921 35.933 52.5276C37.6957 51.3669 38.9839 49.5774 39.4585 47.4977H42.5941C42.8653 47.7234 43.1365 47.9329 43.4247 48.1264C42.3907 48.4488 41.3738 48.868 40.4246 49.4Z" fill="#67BEA1"/>
</svg>
