<?xml version="1.0" encoding="UTF-8"?><svg id="a" xmlns="http://www.w3.org/2000/svg" viewBox="0 0 43.04 43.06"><defs><style>.b{fill:#231e20;}</style></defs><path class="b" d="M35.87,3.42H5.39c-1.13,0-1.18,.06-1.18,1.17V31.28c0,1.14,.05,1.18,1.16,1.18,2.52,0,5.04,.01,7.57-.01,.21-.01,.41,.02,.6,.11,.19,.09,.35,.22,.48,.38,.49,.62,1.02,1.21,1.58,1.77,.7,.67,1.03,1.4,.97,2.41-.07,1.27,.8,2.1,2.07,2.11,2.5,.03,4.99,.02,7.49,0,1.05-.01,1.69-.5,2.06-1.5,.12-.3,.22-.6,.28-.92,.22-1.41,.41-2.82,.63-4.36h6.82c.99,0,1.07-.08,1.07-1.03V4.5c0-1.01-.09-1.09-1.11-1.09ZM5.34,4.58h30.49v4.57H5.34V4.58Zm22.09,31.9c-.06,.21-.11,.43-.18,.64-.28,.86-.49,1.02-1.38,1.02h-3.49c-1.19,0-2.37,0-3.56,0-.91,0-1.29-.31-1.19-1.19,.12-1.17-.31-2.01-1.11-2.82-1.01-1.02-1.93-2.12-2.87-3.2-.17-.2-.37-.46-.37-.69,.03-.28,.17-.54,.38-.72,.31-.25,.67-.13,.93,.15,.57,.62,1.12,1.25,1.68,1.88,.12,.15,.26,.3,.41,.43,.38,.29,.8,.14,.89-.34,.03-.2,.03-.4,.02-.6v-5.49c0-.17-.01-.35,0-.52,.04-.6,.38-1.01,.87-1.01,.49,0,.87,.4,.88,.99,.01,1.06,0,2.12,.01,3.19,0,.24,.06,.48,.19,.68,.27,.34,.75,.16,.86-.34,.09-.39,.21-.71,.61-.85,.55-.19,1.03,.14,1.15,.81,.05,.33,.07,.67,.48,.73,.41,.06,.54-.24,.67-.55,.06-.18,.19-.33,.35-.43s.35-.14,.54-.11c.45,.05,.68,.36,.78,.78,.03,.14,0,.32,.06,.43,.1,.15,.26,.34,.41,.37,.15,.03,.36-.1,.51-.21,.09-.06,.1-.22,.16-.33,.19-.4,.5-.63,.95-.55,.21,.02,.41,.13,.55,.3,.14,.17,.21,.38,.19,.6-.04,2.32,.23,4.65-.4,6.93Zm-10.93-11.97h-2.46V15.43h13.47v9.08h-6.98c-.85-2.03-3.1-2.15-4.02,0Zm19.33,6.81h-6.91v-1.4c0-1.97-1.28-2.83-3.02-2.09-.49-.26-.92-.61-1.39-.7-.48-.09-1,.08-1.65,.15-.54-.61-1.34-.95-2.37-.55v-1.1h3.84c1.16-.01,2.32,0,3.49-.01,.68,0,.82-.15,.82-.84,0-3.21,0-6.43,0-9.64,0-.7-.12-.83-.82-.83-4.7,0-9.39,0-14.09,0-.68,0-.82,.15-.82,.85,0,3.21,0,6.43,0,9.64,0,.66,.16,.81,.85,.82,.89,0,1.78,0,2.72,0v4.47c-.35-.38-.62-.68-.89-.98-.78-.85-1.67-1.03-2.51-.52-.79,.47-1.23,1.58-.65,2.52,.03,.07,.04,.15,.04,.23H5.33V10.33h30.5V31.32Z"/><path class="b" d="M25.65,6.35c-.39-.08-.79-.08-1.18,0-.2,.04-.48,.32-.48,.5,0,.18,.28,.4,.49,.51,.15,.08,.39,.01,.58,.01s.43,.07,.59-.01c.21-.11,.49-.34,.49-.52s-.29-.45-.49-.5Z"/><path class="b" d="M29.21,6.32c-.2,0-.39,0-.59,0-.42,.02-.94-.13-1.04,.5-.06,.4,.27,.56,1.06,.56,.19,0,.4,0,.58,0,.34-.02,.57-.18,.57-.54,0-.36-.24-.51-.58-.52Z"/><path class="b" d="M32.96,6.35c-.18-.08-.43-.02-.65-.02h0c-.22,0-.46-.07-.65,.02-.19,.09-.42,.31-.43,.48,0,.18,.23,.49,.39,.51,.46,.07,.93,.07,1.38,0,.16-.03,.39-.34,.39-.51,0-.17-.25-.4-.43-.48Z"/><path class="b" d="M18.23,21.83c.02,.6,.35,.83,.87,.58,1.28-.62,2.55-1.26,3.81-1.94,.51-.28,.52-.75,.02-1.02-1.26-.67-2.53-1.31-3.81-1.94-.53-.25-.86-.03-.88,.56-.02,.64,0,1.28,0,1.92s-.03,1.23,0,1.83Zm1.12-2.97l2.21,1.1-2.21,1.14v-2.24Z"/></svg>