<svg width="37" height="37" viewBox="0 0 37 37" fill="none" xmlns="http://www.w3.org/2000/svg">
<g filter="url(#filter0_d_474_58585)">
<path d="M3.52381 1.25C2.26802 1.25 1.25 2.26802 1.25 3.52381V18C1.25 27.2508 8.74923 34.75 18 34.75C27.2508 34.75 34.75 27.2508 34.75 18V3.52381C34.75 2.26802 33.732 1.25 32.4762 1.25H3.52381Z" fill="white" stroke="#FFB800" stroke-width="1.5"/>
<path d="M22.7027 8.69346C20.0345 8.69346 17.624 9.7239 15.8492 11.4033H15.2767L13.0809 4.95968L12.9628 4.61311L12.8443 4.95955L10.6404 11.4033H3.52173H3.12124L3.45063 11.6311L9.20562 15.6114L7.00343 22.0502L6.88058 22.4094L7.1928 22.1935L12.83 18.2948C12.8297 18.3051 12.8295 18.3155 12.8295 18.3261C12.8295 20.9542 13.9141 23.3351 15.6635 25.0785C15.6838 25.2932 15.8224 25.4876 16.0325 25.5837C16.1172 25.6238 16.2017 25.6431 16.2891 25.6479C18.0134 27.0815 20.2451 27.9511 22.6946 27.9511C28.1487 27.9511 32.5598 23.6329 32.5598 18.3261C32.5598 13.1195 28.3213 8.86437 23.0025 8.70574L23.0154 8.69346H22.7027ZM13.0341 16.6916L12.963 16.642L12.8916 16.6912L9.40901 19.0938L10.7348 15.2101L10.7653 15.1207L10.6876 15.0669L7.23108 12.6772H11.5145H11.6039L11.6328 12.5926L12.9626 8.69727L14.2923 12.5926L14.3212 12.6772H14.4106H18.6933L15.2295 15.0668L15.1517 15.1206L15.1822 15.2101L16.508 19.0937L14.1421 17.4613L14.1419 17.4611L13.1554 16.7763L13.1552 16.7761L13.0341 16.6916ZM22.4034 11.411H17.9324C19.2977 10.5077 20.9319 9.97506 22.7027 9.97506C27.4095 9.97506 31.2419 13.7019 31.2419 18.3261C31.2419 20.5833 30.3313 22.624 28.8496 24.1243C28.2389 23.1722 27.406 22.3667 26.4157 21.7758C25.9869 21.5149 25.5347 21.3058 25.0699 21.1385C26.1813 20.3526 26.905 19.0744 26.905 17.6333C26.905 15.2519 24.9289 13.3126 22.4681 13.3126C20.0072 13.3126 18.0312 15.2597 18.0312 17.6333C18.0312 19.0672 18.7549 20.3519 19.8666 21.1386C19.4902 21.2762 19.1278 21.4465 18.7762 21.6391L16.7195 15.6191L22.4745 11.6388L22.8039 11.411H22.4034ZM19.2235 22.86L19.2239 22.8598C20.1994 22.2712 21.3177 21.9616 22.46 21.9616H22.4843C23.6266 21.9616 24.7449 22.2711 25.7203 22.8598C26.6009 23.3917 27.3331 24.1273 27.8461 24.9981C26.4178 26.0577 24.6335 26.6772 22.7027 26.6772C20.6289 26.6772 18.7246 25.9539 17.2454 24.7516C17.747 23.9853 18.4227 23.3391 19.2235 22.86ZM19.3516 17.7583H19.3572V17.6333C19.3572 15.9345 20.7626 14.5788 22.4681 14.5788C24.1736 14.5788 25.579 15.9345 25.579 17.6333C25.579 19.3319 24.1818 20.6802 22.4759 20.6877C22.4758 20.6877 22.4757 20.6877 22.4757 20.6877L22.4519 20.6877C20.7892 20.6877 19.4185 19.3916 19.3516 17.7583ZM18.3092 21.9084C17.5115 22.4222 16.8263 23.076 16.283 23.8314C15.1223 22.5352 14.3665 20.8854 14.2063 19.0701L18.3092 21.9084Z" fill="#FFB800" stroke="#FFB800" stroke-width="0.25"/>
</g>
<defs>
<filter id="filter0_d_474_58585" x="0.5" y="0.5" width="36" height="36" filterUnits="userSpaceOnUse" color-interpolation-filters="sRGB">
<feFlood flood-opacity="0" result="BackgroundImageFix"/>
<feColorMatrix in="SourceAlpha" type="matrix" values="0 0 0 0 0 0 0 0 0 0 0 0 0 0 0 0 0 0 127 0" result="hardAlpha"/>
<feOffset dx="1" dy="1"/>
<feComposite in2="hardAlpha" operator="out"/>
<feColorMatrix type="matrix" values="0 0 0 0 0.827451 0 0 0 0 0.870588 0 0 0 0 0.905882 0 0 0 1 0"/>
<feBlend mode="normal" in2="BackgroundImageFix" result="effect1_dropShadow_474_58585"/>
<feBlend mode="normal" in="SourceGraphic" in2="effect1_dropShadow_474_58585" result="shape"/>
</filter>
</defs>
</svg>
