<svg width="64" height="59" viewBox="0 0 64 59" fill="none" xmlns="http://www.w3.org/2000/svg">
<path d="M13.8663 33.1547C13.8663 33.1547 13.113 33.3224 13.113 34.2171C13.113 35.1117 13.9456 35.2635 13.9456 35.2635L13.9694 35.2955C14.6354 38.8981 17.7674 41.63 21.5336 41.63H24.9114V26.1172H21.5336C17.5216 26.1172 14.231 29.2086 13.8663 33.1627V33.1547ZM21.5336 27.7068H23.3256V40.0244H21.5336C18.592 40.0244 16.0626 37.9076 15.5314 34.9999C15.4759 34.7123 15.349 34.4487 15.1587 34.2331L15.1349 34.2011C15.1349 34.2011 15.1111 34.1771 15.1032 34.1692C15.3014 33.9295 15.4283 33.626 15.46 33.2985C15.7455 30.1112 18.362 27.7068 21.5416 27.7068H21.5336Z" fill="#67BEA1"/>
<path d="M31.3653 31.7168C31.7855 31.7168 32.1265 31.3254 32.1265 30.8541C32.1265 30.3828 31.7855 29.9914 31.3653 29.9914H27.7497V26.7881C27.7497 26.213 27.3294 25.7417 26.822 25.7417C26.3145 25.7417 25.8943 26.213 25.8943 26.7881V40.951C25.8943 41.5261 26.3145 41.9974 26.822 41.9974C27.3294 41.9974 27.7497 41.5261 27.7497 40.951V37.7478H31.3653C31.7855 37.7478 32.1265 37.3563 32.1265 36.885C32.1265 36.4138 31.7855 36.0223 31.3653 36.0223H27.7497V31.7168H31.3653Z" fill="#67BEA1"/>
<path d="M36.4636 26.7959V40.9668C36.4636 41.5419 36.8839 42.0132 37.3992 42.0132C37.9146 42.0132 38.3349 41.5419 38.3349 40.9668V26.7959C38.3349 26.2208 37.9146 25.7495 37.3992 25.7495C36.8839 25.7495 36.4636 26.2208 36.4636 26.7959Z" fill="#67BEA1"/>
<path d="M4.06598 30.1909L4.0977 30.6303L4.52586 30.5584C4.96989 30.4785 5.42977 30.4945 5.90551 30.5823L6.4209 30.6862L6.38125 30.159C6.35746 29.8954 6.34161 29.7436 6.32575 29.6238C6.30196 29.4241 6.2861 29.3043 6.2861 28.8809C6.29403 14.5343 17.8783 2.86376 32.1188 2.86376C46.3593 2.86376 57.9436 14.5343 57.9436 28.8809C57.9436 30.2948 57.8247 30.9977 57.6027 32.2758L57.4996 32.8669L57.8247 32.9708C58.2132 33.0986 58.5859 33.1625 58.9506 33.1625C59.1013 33.1625 59.244 33.1545 59.3867 33.1305C59.4343 33.1305 59.4739 33.1146 59.5532 33.0906L59.8149 33.0347L59.8942 32.5714C60.1241 31.1814 60.251 30.4146 60.251 28.8809C60.2589 13.2482 47.6359 0.53125 32.1188 0.53125C16.6018 0.53125 3.97876 13.2482 3.97876 28.8809C3.97876 29.3442 3.99462 29.48 4.0184 29.6877C4.03426 29.7995 4.05012 29.9433 4.06598 30.1909Z" fill="#67BEA1"/>
<path d="M57.7295 37.0606L57.333 36.9408L57.2379 37.3481C54.5103 48.803 44.4166 56.4955 32.1267 56.4955C19.1548 56.4955 8.41099 47.501 6.57939 35.1115L6.54767 34.8798L6.32566 34.7999C5.74684 34.5923 5.19974 34.5284 4.69228 34.6082C4.65264 34.6082 4.62092 34.6242 4.55749 34.6402L4.20068 34.7201L4.24826 35.0875C6.09572 48.843 17.8148 58.828 32.1267 58.828C45.384 58.828 56.6432 50.145 59.5294 37.7156L59.6483 37.2044L58.9505 37.2443C58.562 37.2443 58.1576 37.1804 57.7374 37.0606H57.7295Z" fill="#67BEA1"/>
<path d="M6.64267 34.1211C7.89545 35.1675 9.14031 35.7187 10.3455 35.7587C10.5596 35.7587 10.7737 35.7587 10.9878 35.7347C11.6142 35.6628 12.1295 35.4551 12.5498 35.2155L12.5101 33.1146C12.5101 33.1146 11.8362 33.9534 10.7737 34.0652C9.83806 34.161 8.80729 33.7457 7.69723 32.827C6.74575 32.0282 5.80219 31.525 4.89829 31.3093C4.3829 31.1895 3.87544 31.1575 3.37591 31.2294C3.37591 31.2294 3.36006 31.2294 3.35213 31.2294C1.67118 31.4691 0.783127 32.7472 0.751411 32.8031C0.497682 33.1865 0.59283 33.6977 0.965494 33.9613C1.33816 34.2249 1.85354 34.1291 2.12313 33.7537C2.14692 33.7217 2.61473 33.0827 3.49485 32.9149C3.5345 32.9149 3.57414 32.8989 3.61379 32.8909C4.05781 32.835 4.53355 32.9069 5.04101 33.1146C5.54846 33.3223 6.08764 33.6578 6.6506 34.1291L6.64267 34.1211Z" fill="#67BEA1"/>
<path d="M50.3317 32.4434C49.6657 28.8408 46.5337 26.1089 42.7674 26.1089H39.3896V41.6217H42.7674C46.7795 41.6217 50.07 38.5303 50.4348 34.5762C50.4348 34.5762 51.188 34.4085 51.188 33.5138C51.188 32.6192 50.3555 32.4674 50.3555 32.4674L50.3317 32.4354V32.4434ZM48.849 34.4404C48.5635 37.6277 45.9469 40.0321 42.7674 40.0321H40.9755V27.7145H42.7674C45.7091 27.7145 48.2384 29.8313 48.7697 32.739C48.8252 33.0265 48.952 33.2902 49.1423 33.5058L49.1661 33.5378C49.1661 33.5378 49.1899 33.5617 49.1978 33.5697C48.9996 33.8094 48.8728 34.1129 48.841 34.4404H48.849Z" fill="#67BEA1"/>
<path d="M63.3273 33.7855C62.9547 33.5219 62.4393 33.6178 62.1697 33.9932C62.1459 34.0252 61.6781 34.6642 60.798 34.832C60.7583 34.832 60.7187 34.8479 60.679 34.8559C60.235 34.9118 59.7593 34.84 59.2518 34.6323C58.7444 34.4246 58.2052 34.0891 57.6422 33.6178C56.3894 32.5713 55.1446 32.0202 53.9394 31.9802C53.7253 31.9802 53.5112 31.9802 53.2971 32.0042C52.6707 32.0761 52.1553 32.2838 51.7351 32.5234L51.7747 34.6243C51.7747 34.6243 52.4487 33.7855 53.5112 33.6737C54.4468 33.5778 55.4776 33.9932 56.5877 34.9118C57.5391 35.7107 58.4827 36.2139 59.3866 36.4296C59.902 36.5494 60.4094 36.5814 60.909 36.5095C60.909 36.5095 60.9248 36.5095 60.9328 36.5095C62.6137 36.2698 63.5018 34.9917 63.5335 34.9358C63.7872 34.5524 63.6921 34.0411 63.3194 33.7775L63.3273 33.7855Z" fill="#67BEA1"/>
<path d="M22.4418 20.0609H27.6218L27.4678 18.2549H22.6098L22.4418 20.0609ZM25.0038 15.7489L26.3898 18.9269L26.3058 19.5289L27.4818 21.9509H30.1698L25.0038 11.5349L19.8518 21.9509H22.5258L23.7438 19.4309L23.6318 18.9129L25.0038 15.7489Z" fill="#67BEA1"/>
<path d="M31.1967 12.1509V21.9509H33.5627V12.1509H31.1967ZM32.6807 14.0969H34.5987C35.0747 14.0969 35.4481 14.2042 35.7187 14.4189C35.9894 14.6336 36.1247 14.9462 36.1247 15.3569C36.1247 15.7582 35.9894 16.0662 35.7187 16.2809C35.4481 16.4956 35.0747 16.6029 34.5987 16.6029H32.6807V18.5489H34.5987C35.4294 18.5489 36.1247 18.4229 36.6847 18.1709C37.2541 17.9096 37.6834 17.5409 37.9727 17.0649C38.2621 16.5796 38.4067 16.0102 38.4067 15.3569C38.4067 14.6849 38.2621 14.1109 37.9727 13.6349C37.6834 13.1589 37.2541 12.7949 36.6847 12.5429C36.1247 12.2816 35.4294 12.1509 34.5987 12.1509H32.6807V14.0969Z" fill="#67BEA1"/>
<path d="M39.9194 12.1509V21.9509H42.3274V12.1509H39.9194Z" fill="#67BEA1"/>
</svg>
