<?xml version="1.0" encoding="utf-8"?>
<!-- Generator: Adobe Illustrator 25.1.0, SVG Export Plug-In . SVG Version: 6.00 Build 0)  -->
<svg version="1.1" id="Layer_1" xmlns="http://www.w3.org/2000/svg" xmlns:xlink="http://www.w3.org/1999/xlink" x="0px" y="0px"
	 viewBox="0 0 32 32" style="enable-background:new 0 0 32 32;" xml:space="preserve">
<style type="text/css">
	.st0{fill:#FFFFFF;}
</style>
<g id="facebook">
	<path class="st0" d="M21.9,7.4c0,0.8-0.6,1.4-1.4,1.4h-4.1v4.1h4.1c0.8,0,1.4,0.6,1.4,1.4V17c0,0.8-0.6,1.4-1.4,1.4h-4.1v11
		c0,0.8-0.6,1.4-1.4,1.4h-2.7c-0.8,0-1.4-0.6-1.4-1.4v-11H9.5c-0.8,0-1.4-0.6-1.4-1.4v-2.7c0-0.8,0.6-1.4,1.4-1.4h1.4V8.8
		c0-3,2.5-5.5,5.5-5.5h4.1c0.8,0,1.4,0.6,1.4,1.4V7.4z"/>
</g>
<g id="Layer_1_1_">
</g>
</svg>
