<svg id="Layer_11" data-name="Layer 11" xmlns="http://www.w3.org/2000/svg" xmlns:xlink="http://www.w3.org/1999/xlink" viewBox="0 0 130.84 130.84"><defs><style>.cls-1,.cls-5,.cls-7{fill:none;}.cls-2{clip-path:url(#clip-path);}.cls-3{fill:#e7fef8;}.cls-3,.cls-5,.cls-7{stroke:#10f9b7;}.cls-3,.cls-5,.cls-6{stroke-miterlimit:10;}.cls-3,.cls-6,.cls-7{stroke-width:3px;}.cls-4,.cls-6{fill:#10f9b7;}.cls-5{stroke-width:5px;}.cls-6{stroke:#e7fef8;}.cls-7{stroke-linejoin:round;}</style><clipPath id="clip-path"><rect class="cls-1" x="24.42" y="25.92" width="82" height="79"/></clipPath></defs><g class="cls-2"><path class="cls-3" d="M26,28v75.37H87.89V48L68.52,27.49Z"/><path class="cls-4" d="M53.71,58.58v-7.4a9.67,9.67,0,0,1-5.07-3A7.5,7.5,0,0,1,47,43.33a6.91,6.91,0,0,1,1.82-4.86,7.37,7.37,0,0,1,4.86-2.27V34.45h2.55V36.2a7.59,7.59,0,0,1,4.47,1.91,7.5,7.5,0,0,1,2.11,4.23l-4.47.58a3.55,3.55,0,0,0-2.11-2.82V47q4.23,1.15,5.76,3a7,7,0,0,1,1.53,4.68,7.83,7.83,0,0,1-1.93,5.37,8.39,8.39,0,0,1-5.35,2.68V66H53.71V62.81a8.12,8.12,0,0,1-5-2.27,9.46,9.46,0,0,1-2.43-5.37l4.6-.5A5.75,5.75,0,0,0,52,57.11,4.71,4.71,0,0,0,53.71,58.58Zm0-18.53a3.23,3.23,0,0,0-1.66,1.2,3.13,3.13,0,0,0-.62,1.87A3,3,0,0,0,52,44.85a3.85,3.85,0,0,0,1.71,1.3Zm2.55,18.78a3.58,3.58,0,0,0,2.15-1.22,3.46,3.46,0,0,0,.82-2.31,3.15,3.15,0,0,0-.69-2A4.49,4.49,0,0,0,56.26,52Z"/><path class="cls-5" d="M33.88,83H82.07"/><path class="cls-5" d="M33.88,90.13H75.82"/><path class="cls-6" d="M72.12,77,62.83,65.83,52.56,77.14h0L71.91,98.48l32.71-36.05-7.48-8.37Z"/><path class="cls-7" d="M69.88,28.88V49.46H87.35Z"/></g></svg>