<svg width="32" height="32" viewBox="0 0 32 32" fill="none" xmlns="http://www.w3.org/2000/svg">
<g id="Icons/32px/folder">
<path id="Vector" d="M10.666 7.3335H19.3327" stroke="#00F1BF" stroke-linecap="round" stroke-linejoin="round"/>
<path id="Vector_2" d="M10.666 7.3335H19.3327" stroke="#00F1BF" stroke-linecap="round" stroke-linejoin="round"/>
<path id="Vector_3" d="M10.666 11.3335H20.666" stroke="#00F1BF" stroke-linecap="round" stroke-linejoin="round"/>
<path id="Vector_4" d="M10.666 15.3335H24.666" stroke="#00F1BF" stroke-linecap="round" stroke-linejoin="round"/>
<path id="Vector_5" d="M19.9993 19.3332H10.666C10.459 19.3332 10.2549 19.285 10.0697 19.1924C9.88459 19.0998 9.72354 18.9654 9.59935 18.7998L8.39935 17.1998C8.27515 17.0342 8.11411 16.8998 7.92897 16.8073C7.74383 16.7147 7.53968 16.6665 7.33268 16.6665H3.99935C3.64573 16.6665 3.30659 16.807 3.05654 17.057C2.80649 17.3071 2.66602 17.6462 2.66602 17.9998V29.9998C2.66602 30.3535 2.80649 30.6926 3.05654 30.9426C3.30659 31.1927 3.64573 31.3332 3.99935 31.3332H19.9993C20.353 31.3332 20.6921 31.1927 20.9422 30.9426C21.1922 30.6926 21.3327 30.3535 21.3327 29.9998V20.6665C21.3327 20.3129 21.1922 19.9737 20.9422 19.7237C20.6921 19.4736 20.353 19.3332 19.9993 19.3332Z" stroke="#00F1BF" stroke-linecap="round" stroke-linejoin="round"/>
<path id="Vector_6" d="M6.66602 16.6666V1.99989C6.66602 1.64627 6.80649 1.30713 7.05654 1.05708C7.30659 0.807032 7.64573 0.666556 7.99935 0.666556H22.1193C22.3098 0.664738 22.4978 0.710572 22.666 0.799889L29.1993 7.33322C29.2887 7.50148 29.3345 7.6894 29.3327 7.87989V27.3332C29.3327 27.6868 29.1922 28.026 28.9422 28.276C28.6921 28.5261 28.353 28.6666 27.9993 28.6666H21.3327" stroke="#00F1BF" stroke-linecap="round" stroke-linejoin="round"/>
<path id="Vector_7" d="M29.1993 7.33314H23.9993C23.6457 7.33314 23.3066 7.19266 23.0565 6.94261C22.8065 6.69257 22.666 6.35343 22.666 5.9998V0.799805C22.8116 0.855428 22.9435 0.941842 23.0527 1.05314L28.946 6.94647C29.0573 7.05562 29.1437 7.18751 29.1993 7.33314Z" stroke="#00F1BF" stroke-linecap="round" stroke-linejoin="round"/>
</g>
</svg>
