<svg width="68" height="54" viewBox="0 0 68 54" fill="none" xmlns="http://www.w3.org/2000/svg">
<g clip-path="url(#clip0_935_1831)">
<path d="M55.8167 2.87476C54.1737 2.95121 52.6201 3.01895 51.0676 3.0954C46.6724 3.31216 42.3433 3.96148 38.0833 4.99594C36.1698 5.46044 34.2981 6.07879 32.4151 6.65263C32.2698 6.69715 32.1498 6.92649 32.0929 7.09294C32.038 7.25357 32.0807 7.44421 32.0807 7.6213C32.0807 18.2804 32.0807 28.9396 32.0807 39.5997C32.0807 39.951 32.0807 40.3022 32.0807 40.6767C32.9581 40.4271 33.7958 40.1377 34.659 39.9529C37.215 39.4052 39.7771 38.8816 42.3443 38.3862C43.0102 38.2575 43.5359 38.6871 43.6121 39.2861C43.6894 39.8919 43.2847 40.338 42.5497 40.4677C40.7033 40.7948 38.8478 41.0861 37.0137 41.4673C35.146 41.8554 33.3403 42.4476 31.5662 43.1327C31.2154 43.2682 30.7274 43.2392 30.3533 43.1298C29.2735 42.8144 28.2416 42.3344 27.1496 42.0731C24.8732 41.5273 22.5856 40.999 20.2767 40.61C15.368 39.7826 10.4065 39.6868 5.43483 39.8271C4.26359 39.86 3.92096 39.531 3.92096 38.4133C3.92096 27.2868 3.92096 16.1593 3.92096 5.03272C3.92096 3.98567 3.91689 2.93863 3.92401 1.89158C3.92909 1.13291 4.37237 0.707129 5.1593 0.735192C11.0196 0.95002 16.8799 1.21226 22.6009 2.57574C25.0725 3.16507 27.5136 3.87923 29.9415 4.61661C30.761 4.86531 31.4533 4.74821 32.225 4.5179C34.1751 3.93342 36.1393 3.38861 38.1117 2.8767C43.6894 1.43096 49.4073 0.998404 55.1558 0.811639C55.6469 0.796156 56.1369 0.757449 56.628 0.739063C57.5674 0.703258 57.9792 1.07195 57.9873 1.95836C57.9995 3.29571 58.0158 4.63209 58.0158 5.96944C58.0188 13.7903 58.0168 21.6122 58.0168 29.4331C58.0168 29.6102 58.0239 29.7882 58.0107 29.9653C57.97 30.5101 57.5552 30.903 56.9991 30.933C56.4257 30.964 55.9712 30.6408 55.8461 30.1134C55.835 30.066 55.8217 30.0185 55.8217 29.9702C55.8258 27.6971 55.8339 25.4239 55.8339 23.1508C55.8339 22.0902 55.8156 21.0306 55.8156 19.97C55.8136 14.5355 55.8156 9.1009 55.8156 3.66633C55.8156 3.42731 55.8156 3.18829 55.8156 2.87573L55.8167 2.87476ZM29.8561 40.7009C29.8561 40.5045 29.8561 40.3777 29.8561 40.25C29.8561 29.3963 29.8561 18.5427 29.8561 7.68903C29.8561 7.47904 29.8947 7.26035 29.8429 7.06294C29.8022 6.90907 29.6782 6.69521 29.543 6.65554C27.4282 6.03428 25.3216 5.37334 23.1804 4.84498C17.6882 3.49021 12.0688 3.05959 6.42002 2.8825C6.3397 2.8796 6.25938 2.89605 6.12924 2.90863V37.7165C14.2314 37.4862 22.1444 38.2188 29.8551 40.7009H29.8561Z" fill="#67BEA1"/>
<path d="M47.5551 42.4769C47.001 41.4347 46.4764 40.4476 45.9507 39.4606C45.2309 38.1097 44.4928 36.7665 43.7953 35.405C43.2127 34.268 43.4639 33.0022 44.386 32.1584C45.2827 31.3378 46.6055 31.1452 47.73 31.6726C48.3461 31.961 48.7863 32.4148 49.0923 32.9935C49.2977 33.3796 49.5051 33.7657 49.7298 34.1857C51.021 33.097 52.3753 33.0061 53.7987 33.8925C55.039 32.6258 56.437 32.4777 57.9855 33.3554C58.6392 32.6461 59.4211 32.2164 60.4286 32.2503C61.5368 32.2871 62.4091 32.7487 62.9134 33.6767C64.1731 35.9943 65.4593 38.3042 66.5949 40.677C67.997 43.6043 67.2517 46.2886 65.1929 48.6895C63.2764 50.9249 60.7021 52.1654 57.8197 52.8854C55.7711 53.3973 53.7153 53.5386 51.6565 52.9251C50.3022 52.5216 49.133 51.8355 48.1722 50.8387C46.9247 49.544 45.6782 48.2482 44.4409 46.9447C43.3571 45.8029 43.3622 44.1636 44.4389 43.0894C45.0377 42.4924 45.8104 42.3646 46.6268 42.383C46.9095 42.3898 47.1921 42.4382 47.5541 42.4769H47.5551ZM55.1346 51.4793C55.704 51.369 56.8498 51.2219 57.9468 50.9171C60.4784 50.2136 62.6969 49.0059 64.1985 46.8664C65.5172 44.9881 65.7897 42.9956 64.653 40.9276C64.4883 40.6286 64.3033 40.3393 64.1426 40.0383C63.1971 38.2723 62.2587 36.5024 61.3121 34.7373C60.9929 34.1431 60.4357 33.9467 59.8887 34.2176C59.3814 34.4683 59.2452 35.014 59.5471 35.5995C59.6884 35.8743 59.8399 36.1453 59.9813 36.4201C60.4205 37.2726 60.8902 38.1136 61.2847 38.9845C61.5175 39.4974 61.2918 39.9512 60.8261 40.1641C60.3615 40.376 59.8308 40.2019 59.5329 39.7112C59.2452 39.238 58.9737 38.7552 58.7104 38.2694C58.1675 37.2668 57.6418 36.2556 57.0958 35.255C56.7756 34.6676 56.1188 34.4886 55.6054 34.8253C55.1885 35.0982 55.0706 35.6092 55.3369 36.1172C55.9398 37.2717 56.5631 38.4165 57.164 39.5719C57.4598 40.1419 57.2829 40.6915 56.7593 40.9344C56.2286 41.1802 55.6877 40.9828 55.3685 40.4176C55.16 40.049 54.9638 39.6735 54.7635 39.3009C54.1138 38.0971 53.4713 36.8904 52.8125 35.6905C52.542 35.1979 52.0103 35.0218 51.5273 35.2308C51.0271 35.4476 50.8268 35.973 51.0525 36.4975C51.1095 36.6311 51.1837 36.7588 51.2528 36.8885C51.9411 38.1823 52.6305 39.4761 53.3198 40.7699C53.5262 41.1579 53.4733 41.5208 53.1886 41.8508C52.9233 42.1585 52.5349 42.2795 52.1841 42.1256C51.8903 41.9979 51.5965 41.7366 51.448 41.4628C50.0907 38.9748 48.7751 36.4656 47.4168 33.9786C47.2602 33.6912 46.9522 33.4203 46.6451 33.2799C46.2872 33.1164 45.908 33.2857 45.6549 33.5896C45.357 33.9467 45.3885 34.327 45.601 34.7208C46.5333 36.4569 47.4575 38.1968 48.3847 39.9348C49.5427 42.1043 50.7028 44.272 51.8578 46.4435C52.1211 46.938 52.0703 47.3434 51.7297 47.6366C51.3271 47.984 50.7648 47.9415 50.3358 47.505C49.4563 46.6109 48.585 45.709 47.7188 44.8032C47.3812 44.45 46.9847 44.2362 46.4784 44.2352C45.7311 44.2333 45.3559 44.8303 45.7128 45.4613C45.7911 45.6006 45.907 45.7245 46.0199 45.8435C47.1352 47.0134 48.2708 48.166 49.3658 49.3524C50.7496 50.8503 52.5105 51.4697 55.1356 51.4822L55.1346 51.4793Z" fill="#67BEA1"/>
<path d="M2.82234 24.3673C2.82234 29.4622 2.82336 34.5571 2.82132 39.652C2.82132 40.28 2.82946 40.91 2.78472 41.5361C2.7532 41.9822 2.94028 42.0741 3.37035 42.0683C5.5888 42.0402 7.80725 42.0335 10.0267 42.0306C14.2105 42.0257 18.3952 42.0277 22.579 42.0306C23.1534 42.0306 23.7329 42.0073 24.2992 42.0751C24.591 42.1099 24.9509 42.2541 25.1248 42.4641C26.4882 44.1227 28.3051 44.7014 30.4422 44.5969C31.3521 44.5524 32.2702 44.6037 33.173 44.5127C34.6818 44.3598 35.8551 43.5982 36.7722 42.4747C37.0274 42.1622 37.3121 42.046 37.7238 42.0519C38.7558 42.0664 39.7898 42.0335 40.8227 42.0325C41.5548 42.0315 42.0347 42.4467 42.0347 43.0554C42.0347 43.6611 41.5487 44.1014 40.838 44.113C40.11 44.1247 39.38 44.0898 38.6541 44.1285C38.401 44.1421 38.0949 44.2572 37.9211 44.4256C36.4072 45.8926 34.5761 46.6629 32.4237 46.6629C30.9373 46.6629 29.4367 46.6648 27.9675 46.4839C26.4577 46.2981 25.1716 45.5597 24.1305 44.4788C23.8519 44.1895 23.5347 44.0918 23.1046 44.1005C21.5135 44.1343 19.9203 44.113 18.3281 44.114C13.3818 44.1159 8.43557 44.1179 3.48828 44.1179C2.94943 44.1179 2.41057 44.1034 1.87172 44.0918C1.02887 44.0753 0.633373 43.696 0.631339 42.8957C0.629306 41.7054 0.63439 40.5161 0.63439 39.3259C0.63439 28.7006 0.63439 18.0753 0.63439 7.45006C0.63439 7.32135 0.628289 7.19168 0.638456 7.06298C0.684208 6.48139 1.14478 6.05077 1.7182 6.0469C2.28959 6.04303 2.76642 6.47559 2.81522 7.0504C2.82742 7.19458 2.82132 7.34071 2.82132 7.48586C2.82132 13.113 2.82132 18.7401 2.82132 24.3673H2.82234Z" fill="#67BEA1"/>
<path d="M43.8736 27.7533C42.7379 27.7533 41.6033 27.7591 40.4676 27.7514C39.8301 27.7475 39.6919 27.5472 39.944 27.0082C40.8631 25.038 41.7914 23.0726 42.7074 21.1014C43.0216 20.4259 43.3215 19.7447 43.6062 19.0576C43.7933 18.6076 43.653 18.417 43.1477 18.4093C42.4024 18.3986 41.6561 18.4093 40.9109 18.4035C40.3202 18.3986 40.2246 18.3067 40.2195 17.7619C40.2155 17.2945 40.2216 16.8261 40.2165 16.3587C40.2124 15.9929 40.4025 15.8333 40.7787 15.8342C43.0155 15.8371 45.2522 15.8323 47.488 15.84C48.0512 15.842 48.1936 16.0791 47.9506 16.5958C47.0732 18.4635 46.1846 20.3253 45.3092 22.1939C44.9442 22.9729 44.5995 23.7606 44.2559 24.5483C44.0637 24.9896 44.201 25.1928 44.6961 25.1996C45.543 25.2112 46.3889 25.1976 47.2358 25.2083C47.8194 25.216 47.916 25.3147 47.9211 25.8595C47.9252 26.2785 47.9262 26.6985 47.9211 27.1175C47.915 27.6614 47.8174 27.7533 47.2257 27.7552C46.1073 27.7591 44.9889 27.7562 43.8705 27.7562V27.7533H43.8736Z" fill="#67BEA1"/>
<path d="M59.1165 18.2234C59.1165 14.6768 59.1165 11.1311 59.1165 7.58455C59.1165 7.40746 59.1104 7.22941 59.1216 7.05232C59.1582 6.48719 59.5852 6.07689 60.1556 6.04882C60.7026 6.0227 61.1947 6.42042 61.2842 6.96426C61.2994 7.0591 61.3014 7.15683 61.3014 7.2536C61.3014 14.5713 61.3035 21.89 61.2994 29.2077C61.2994 29.8318 61.0005 30.2208 60.4779 30.335C59.7296 30.4976 59.1206 30.0205 59.1176 29.2483C59.1104 27.5723 59.1155 25.8952 59.1155 24.2192C59.1155 22.2199 59.1155 20.2217 59.1155 18.2224L59.1165 18.2234Z" fill="#67BEA1"/>
<path d="M17.9755 15.8349C19.9083 15.8688 19.4843 15.5514 19.9866 17.3106C20.8945 20.4934 21.7678 23.6858 22.6564 26.8743C22.873 27.6504 22.7906 27.753 21.9488 27.7559C21.475 27.7578 20.9992 27.7375 20.5264 27.7617C20.0832 27.7849 19.8737 27.5962 19.8005 27.1975C19.7395 26.8647 19.6399 26.5385 19.5707 26.2076C19.5087 25.9086 19.3399 25.7644 19.0105 25.7683C18.3161 25.777 17.6217 25.777 16.9283 25.7683C16.604 25.7644 16.425 25.897 16.359 26.1979C16.2797 26.5608 16.177 26.9188 16.0987 27.2808C16.0316 27.5924 15.8628 27.7636 15.51 27.7588C14.9173 27.7511 14.3245 27.7665 13.7318 27.7511C13.2672 27.7395 13.1299 27.5595 13.2509 27.1279C13.7796 25.2467 14.3225 23.3694 14.8471 21.4872C15.3107 19.8228 15.7794 18.1583 16.1993 16.4842C16.3285 15.9704 16.5796 15.7768 17.1113 15.8301C17.396 15.8581 17.6868 15.8349 17.9745 15.8349H17.9755ZM17.9532 18.8038C17.6553 20.2737 17.3726 21.6265 17.1083 22.9832C17.0198 23.4371 17.1835 23.6035 17.6695 23.6248C18.8367 23.6751 18.9048 23.5997 18.6659 22.5217C18.6588 22.4897 18.6537 22.4588 18.6476 22.4268C18.4239 21.2588 18.2002 20.0908 17.9542 18.8038H17.9532Z" fill="#67BEA1"/>
</g>
<defs>
<clipPath id="clip0_935_1831">
<rect width="66.6817" height="52.5961" fill="white" transform="translate(0.630859 0.734375)"/>
</clipPath>
</defs>
</svg>
