<svg width="32" height="32" viewBox="0 0 32 32" fill="none" xmlns="http://www.w3.org/2000/svg">
<g id="Icons/32px/glossary">
<path id="Vector" d="M15.7701 31.3335H4.32878C3.62153 31.3335 2.94325 31.0525 2.44316 30.5524C1.94306 30.0524 1.66211 29.3741 1.66211 28.6668V3.3335" stroke="#00F1BF" stroke-linecap="round" stroke-linejoin="round"/>
<path id="Vector_2" d="M26.9954 0.666504H4.32878C3.62153 0.666504 2.94325 0.947456 2.44316 1.44755C1.94306 1.94765 1.66211 2.62593 1.66211 3.33317C1.66211 4.04041 1.94306 4.71869 2.44316 5.21879C2.94325 5.71889 3.62153 5.99984 4.32878 5.99984H25.6621C26.0157 5.99984 26.3549 6.14031 26.6049 6.39036C26.855 6.64041 26.9954 6.97955 26.9954 7.33317V16.0345" stroke="#00F1BF" stroke-linecap="round" stroke-linejoin="round"/>
<path id="Vector_3" d="M4.328 3.3335H25.6613" stroke="#00F1BF" stroke-linecap="round" stroke-linejoin="round"/>
<path id="Vector_4" d="M21.0328 28.7453C22.2271 28.7453 23.3947 28.3911 24.3877 27.7276C25.3808 27.0641 26.1548 26.121 26.6118 25.0175C27.0689 23.9141 27.1884 22.6999 26.9554 21.5286C26.7224 20.3572 26.1473 19.2812 25.3028 18.4367C24.4583 17.5921 23.3823 17.017 22.2109 16.784C21.0395 16.551 19.8253 16.6706 18.7219 17.1276C17.6185 17.5847 16.6754 18.3587 16.0118 19.3517C15.3483 20.3448 14.9941 21.5123 14.9941 22.7066C14.9941 24.3082 15.6304 25.8442 16.7628 26.9766C17.8953 28.1091 19.4313 28.7453 21.0328 28.7453Z" stroke="#00F1BF" stroke-linecap="round" stroke-linejoin="round"/>
<path id="Vector_5" d="M29.662 31.3332L25.334 27.0039" stroke="#00F1BF" stroke-linecap="round" stroke-linejoin="round"/>
<path id="Vector_6" d="M21.0328 28.7453C22.2271 28.7453 23.3947 28.3911 24.3877 27.7276C25.3808 27.0641 26.1548 26.121 26.6118 25.0175C27.0689 23.9141 27.1884 22.6999 26.9554 21.5286C26.7224 20.3572 26.1473 19.2812 25.3028 18.4367C24.4583 17.5921 23.3823 17.017 22.2109 16.784C21.0395 16.551 19.8253 16.6706 18.7219 17.1276C17.6185 17.5847 16.6754 18.3587 16.0118 19.3517C15.3483 20.3448 14.9941 21.5123 14.9941 22.7066C14.9941 24.3082 15.6304 25.8442 16.7628 26.9766C17.8953 28.1091 19.4313 28.7453 21.0328 28.7453Z" stroke="#00F1BF" stroke-linecap="round" stroke-linejoin="round"/>
<path id="Vector_7" d="M29.662 31.3335L25.334 27.0015" stroke="#00F1BF" stroke-linecap="round" stroke-linejoin="round"/>
</g>
</svg>
