<svg id="Layer_1" data-name="Layer 1" xmlns="http://www.w3.org/2000/svg" viewBox="0 0 268.63 75.6"><defs><style>.cls-1{fill:#106d9b;}.cls-2{fill:#005b70;}.cls-3{fill:#00b490;}.cls-4{fill:#15a180;}</style></defs><path class="cls-1" d="M37.72,43.38a5,5,0,0,0,.4-.65,1.62,1.62,0,0,0,.15-.64h0v0l0,0a3.52,3.52,0,0,1,.32-.82s.61-.85.64-.94.18-.65.37-1.19a3.1,3.1,0,0,1,.65-1.27.91.91,0,0,0,.44-.81c.06-.45.73-1,.87-1.3a2,2,0,0,0,.26-.75v-.1l-.13-.15-.07-.17c0-.17.14-.22.22-.28a1,1,0,0,0,.17-.1c.1-.15.52-.54.59-.89s0-.58.25-.77a1,1,0,0,0,.4-.57,3.24,3.24,0,0,1,.46-1,1.07,1.07,0,0,0,.15-.46v-.16A3.39,3.39,0,0,1,44.22,29a3.54,3.54,0,0,0,.5-1.08,6,6,0,0,1,.17-.75V27a2.59,2.59,0,0,0-.26-1.11c-.21-.29-.37-.54-.37-.54l.2-.13.36.52A2.77,2.77,0,0,1,45.14,27v.13a4.07,4.07,0,0,0-.16.71,3.22,3.22,0,0,1-.55,1.2,3.64,3.64,0,0,0-.31,1.25v0l0,.12a1.24,1.24,0,0,1-.19.58,2.69,2.69,0,0,0-.35.86,5.09,5.09,0,0,1-.58.76c-.09.06-.07.18-.16.62a2.58,2.58,0,0,1-.62,1,.69.69,0,0,1-.22.17l-.12.08h0l.15.18a.53.53,0,0,1,0,.23,2.15,2.15,0,0,1-.3.87c-.19.3-.83.93-.84,1.2a1.15,1.15,0,0,1-.54,1,3.14,3.14,0,0,0-.56,1.15c-.18.53-.32,1.05-.37,1.18s-.85,1.58-1,1.78a1.88,1.88,0,0,1-.18.71,5.45,5.45,0,0,1-.43.69Z"/><path class="cls-1" d="M38.77,44.69a15.63,15.63,0,0,1,1.31-1c.36-.19,1-.64,1.08-.86s-.13-1.13.42-1.46l1.3-.68.2-.13.13-.08,0,.16a1.23,1.23,0,0,1,.05.32.34.34,0,0,1-.13.31l-.13-.21h0v-.19l-.06,0-1.3.69c-.35.15-.23.91-.31,1.3s-.82.79-1.19,1a14.5,14.5,0,0,0-1.27,1h0Z"/><path class="cls-1" d="M46.41,48.13a14.87,14.87,0,0,1-2.11-.42c-.06,0-.13,0-.17-.16h0v0s0-.37-.05-.78v-.1a3,3,0,0,0-.62.22,1.35,1.35,0,0,1-.72.14h-.17l0-.24h.15a1.32,1.32,0,0,0,.59-.11,4,4,0,0,1,.72-.26,1.65,1.65,0,0,0-.22-.65,4.28,4.28,0,0,0-1.89-.7h0a2,2,0,0,1-.5.08,1.8,1.8,0,0,1-.51.07A1.26,1.26,0,0,1,40.2,45a5,5,0,0,1-.83-.58l-.06,0,0-.08s.09-.37.18-.77.17-.77.18-.85h0l-.07-.07a1.69,1.69,0,0,0-.28-.19,1.68,1.68,0,0,0-.61-.23h-.36l-.72-.49a.88.88,0,0,1-.53.34L37,42v-.2l.09,0a.49.49,0,0,0,.25-.15,1.57,1.57,0,0,0,.17-.18l.07-.08.83.57h.29a2.21,2.21,0,0,1,1.05.47.43.43,0,0,1,.17.26c0,.18-.28,1.31-.35,1.62a5.85,5.85,0,0,0,.73.5,1,1,0,0,0,.55.14,1.74,1.74,0,0,0,.45-.06h0a1.75,1.75,0,0,0,.45-.08h.12a4.21,4.21,0,0,1,2.07.78,1.51,1.51,0,0,1,.27.74,1.74,1.74,0,0,0,.43-.2,1.89,1.89,0,0,1,.7-.3h.07l0,0a4.06,4.06,0,0,0,1.24,1,8,8,0,0,0,.85.4l0,0,0,0a.57.57,0,0,1,.11.32.25.25,0,0,1-.22.25,6.64,6.64,0,0,0-.66.2h0l-.44.09Zm-2-.64.24.07c.2.06.47.11.74.16a7.21,7.21,0,0,0,1,.1l1.08-.21h0l0-.12,0,0a6.15,6.15,0,0,1-2.11-1.36l-.11,0a1.59,1.59,0,0,0-.41.21,2.29,2.29,0,0,1-.54.24l0,.16c0,.33,0,.64,0,.75Z"/><path class="cls-1" d="M40.35,46.09a1.85,1.85,0,0,1,.54-.62c.27-.14.65-.49.63-.66v-.09l.09,0,.19-.08a4.53,4.53,0,0,0,.63-.35c.57-.37,1.42-.89,1.42-.89l.13.2-1.42.89a5.15,5.15,0,0,1-.81.44c-.08.35-.47.62-.74.79a.92.92,0,0,0-.31.31,2.18,2.18,0,0,0-.13.2Z"/><path class="cls-1" d="M41.84,41.34v0c0-.13-.44-.66-1-1.07a6.12,6.12,0,0,0-1.2-.83.59.59,0,0,1-.34-.19,4.33,4.33,0,0,1-.34-.38,5.18,5.18,0,0,1-.48-.67,4.69,4.69,0,0,0-.61-.57l-.55-.47a1.08,1.08,0,0,1-.64-.27,1.29,1.29,0,0,0-.74-.17h-.11l0-.24H36a1.54,1.54,0,0,1,.89.24,1.18,1.18,0,0,0,.37.19l.17,0h0l0,0,.58.49a4.67,4.67,0,0,1,.67.65,4.58,4.58,0,0,0,.9,1.08l0,0a.78.78,0,0,1,.36.16,6.28,6.28,0,0,1,.54.36,8.78,8.78,0,0,1,1.15,1,1.13,1.13,0,0,1,.35.62v.07Z"/><path class="cls-1" d="M42.45,46.88a4.35,4.35,0,0,0-.28-.9,3.56,3.56,0,0,0-.35-.79c-.12-.25-.44-.47-.45-.84l0-.19A4.64,4.64,0,0,0,41.65,43a.48.48,0,0,0,0-.18.9.9,0,0,0-.23-.18l-.12-.06a4.74,4.74,0,0,1-1.35-.78,5,5,0,0,1-1-.86,1.46,1.46,0,0,0-.55-.38,5,5,0,0,0-.79-.33,3.41,3.41,0,0,1-1-.76c-.33-.33-.6-.64-.6-.64L36,38.71l0-.08s.54-.85.87-1.32a1.12,1.12,0,0,1,.25-.31,2.31,2.31,0,0,0,.32-.43,2,2,0,0,0,.28-.66.78.78,0,0,1,.28-.51l-.36-.09c-.5-.17-1.64-.61-1.64-.61l.08-.22s1.15.43,1.63.59a2.07,2.07,0,0,0,.6.13h0l.07.23a1,1,0,0,0-.23.13.56.56,0,0,0-.23.37,2.86,2.86,0,0,1-.7,1.27h0l0,0-.13.19c-.11.15-.24.35-.37.55s-.36.56-.45.69c.1.11.3.33.53.56a3.1,3.1,0,0,0,.85.69,6.3,6.3,0,0,1,.83.35,1.57,1.57,0,0,1,.66.49,5.6,5.6,0,0,0,.88.77,4.64,4.64,0,0,0,1.28.75,1,1,0,0,1,.53.31A1.42,1.42,0,0,1,42,43s-.22,1-.32,1.29v.11c0,.2.25.42.41.73a3.8,3.8,0,0,1,.38.83,4.86,4.86,0,0,1,.29,1,.34.34,0,0,0,.06.22h0l-.13.2a.48.48,0,0,1-.18-.42"/><path class="cls-1" d="M37.37,42.41m-.23-.07s.42-1.82.5-2.1l.15-.09a5.28,5.28,0,0,1,.3-1.29,3.76,3.76,0,0,0,.42-.75,3.53,3.53,0,0,1,.67-1.6l.25-.19s0,0,.06-.14a2.58,2.58,0,0,1,.61-1l.21-.17.07-.06.08.06a.7.7,0,0,0,.17.11,2.93,2.93,0,0,0,.6.24,1.29,1.29,0,0,1,.59.33,1.05,1.05,0,0,0,.43.32,3.29,3.29,0,0,1,1,.75l0,.19a1.07,1.07,0,0,1-.4.16.17.17,0,0,1-.16-.11l.14,0,0,0v-.07h0l.14,0a2.54,2.54,0,0,0-.8-.58,1.49,1.49,0,0,1-.51-.37,1.05,1.05,0,0,0-.49-.28,2.84,2.84,0,0,1-.77-.33l-.13.1a2.43,2.43,0,0,0-.53.87.48.48,0,0,1-.12.26,2.35,2.35,0,0,1-.29.22,3.71,3.71,0,0,0-.56,1.4c0,.26-.27.51-.46.87A5.58,5.58,0,0,0,38,40.21c-.08.29-.63,2.34-.64,2.36Z"/><path class="cls-1" d="M40.23,35.38m-.1-.22,0,0,0-.07,0-.09c-.12-.19-.52-.5-.65-.48h0c-.12,0-.31.09-.49.15s-.32.15-.33.22a4.21,4.21,0,0,0-.11.48h-.24a3.06,3.06,0,0,0-.47-.94c-.34-.43-.46-.88-.77-1.26a1.79,1.79,0,0,0-.4-.37.47.47,0,0,0-.15-.08l.08-.23a1.59,1.59,0,0,1,.66.53c.34.43.47.88.77,1.26a2.79,2.79,0,0,1,.37.63l0-.1a.67.67,0,0,1,.48-.38c.19-.07.4-.11.48-.14l.11,0a1.39,1.39,0,0,1,.85.6.4.4,0,0,1,.08.22.36.36,0,0,1-.21.32Z"/><path class="cls-1" d="M39.69,42.67a2.18,2.18,0,0,1,.41-.92,2.58,2.58,0,0,0,.36-.83c.13-.4.23-.79.25-.89a2.42,2.42,0,0,1,.57-.7c.29-.27.6-.56.77-.7l.16.18c-.16.14-.48.43-.75.7a3.41,3.41,0,0,0-.51.57,4.73,4.73,0,0,1-.16.93,5.45,5.45,0,0,1-.53.93,1.06,1.06,0,0,0-.24.44,2.89,2.89,0,0,0-.09.34h0Z"/><path class="cls-1" d="M42.74,34.81a3.25,3.25,0,0,0-.51,0,1.1,1.1,0,0,1-.28,0c-.17,0-.24-.08-.41-.17a8.22,8.22,0,0,1-1.06-.53c-.64-.43-.58-1.16-.75-2.28a21.85,21.85,0,0,1-.12-2.68v-.79c0-.09,0-.12,0-.13h-.06l-.07-.23h.09a.28.28,0,0,1,.21.08.37.37,0,0,1,.1.3v.79A23,23,0,0,0,40,31.88c.16,1.16.15,1.81.64,2.11a9.25,9.25,0,0,0,1,.53c.21.12.23.14.29.14l.23,0a2.74,2.74,0,0,1,.56-.06,1.63,1.63,0,0,1,1.27.51l-.19.16a1.38,1.38,0,0,0-1.08-.42"/><path class="cls-1" d="M39.38,34.28A3.76,3.76,0,0,0,40,33.7a11.32,11.32,0,0,0,1.16-1.87,7.27,7.27,0,0,1,.49-1.36,9.58,9.58,0,0,0,.72-2.2h0A7.71,7.71,0,0,0,42.67,27V27c0-.14-.2-.19-.5-.53l-.1,0a1.58,1.58,0,0,0-.26,0l0-.21a1,1,0,0,1,.31-.08.37.37,0,0,1,.28.12c.27.31.43.34.55.61l0,.13a6,6,0,0,1-.3,1.27,9.2,9.2,0,0,1-.74,2.26,6.92,6.92,0,0,0-.48,1.32,10.84,10.84,0,0,1-1.19,2,4.36,4.36,0,0,1-.68.64Z"/><path class="cls-1" d="M48,29.43a7.3,7.3,0,0,1-1.73-.21c-.67-.23-.69-.69-1-1a2.64,2.64,0,0,0-1-.54,4.66,4.66,0,0,1-1.35-1.09l0,0a1.53,1.53,0,0,0-.14.24c-.09.2-.18.43-.24.57a1.29,1.29,0,0,1-.78.67,5.73,5.73,0,0,1-1.67.14h-.46v-.24h.46a7.43,7.43,0,0,0,1.56-.11c.33-.17.57-.28.67-.55a4.76,4.76,0,0,1,.4-.87.31.31,0,0,1,.24-.15.21.21,0,0,1,.18.11,4.59,4.59,0,0,0,1.24,1,3.3,3.3,0,0,1,1.1.6c.4.38.38.73.93.91a6.74,6.74,0,0,0,1.67.19l.36,0a5.18,5.18,0,0,0,1.11-.13,2.67,2.67,0,0,0,.67-.29.81.81,0,0,0,.33-.28c.06-.24.5-1,.57-1.3s.16-.61.44-.73h0a.67.67,0,0,1-.1-.36v-.33h.25v.33a.34.34,0,0,0,.11.29h0l.29.11-.29.12-.2.08c-.13,0-.15.29-.23.62a13.8,13.8,0,0,0-.64,1.24c0,.18-.22.3-.44.43a2.57,2.57,0,0,1-.74.31,4.49,4.49,0,0,1-1.16.14H48"/><path class="cls-1" d="M40.82,37.13a.89.89,0,0,1-.5-.14c-.1-.07,0-.05-.1-.06a.74.74,0,0,1-.35-.15l-.43-.33a3.91,3.91,0,0,1-.68-.66.75.75,0,0,0-.27-.23l-.18-.1.09-.22a1.37,1.37,0,0,1,.56.42,5.45,5.45,0,0,0,1.25,1h0a.29.29,0,0,1,.24.11.87.87,0,0,0,.38.08c.55.07,1,.57,1.33.55l.14,0a2.09,2.09,0,0,0,.39-.77c.15-.37.26-.76.33-.92a1.3,1.3,0,0,1,.85-.68.43.43,0,0,0,.27-.2.55.55,0,0,0,.08-.14s0-.15,0-.3a1.69,1.69,0,0,0-.12-.65c-.19-.41-.39-.42-.67-.7s-.36-.16-.76-.29a1.36,1.36,0,0,1-.92-.63,1.15,1.15,0,0,0-.3-.34l-.17-.09.09-.23A1.31,1.31,0,0,1,42,32c.18.32.41.38.78.51s.58.07.86.35.5.28.72.77a2,2,0,0,1,.14.75,2.66,2.66,0,0,1,0,.34h0a.76.76,0,0,1-.52.52,1.07,1.07,0,0,0-.69.54c0,.12-.18.53-.32.91a1.89,1.89,0,0,1-.5.89.59.59,0,0,1-.26.07c-.48,0-.93-.53-1.35-.55"/><path class="cls-1" d="M44.3,34.27a1,1,0,0,1,.61-.66l.25-.14c.42-.13.29,0,.7-.32s.57-.49.7-.59c-.1-.22-.65-1-.65-1l-.61-.31A9.41,9.41,0,0,0,44,30.84h0a1.53,1.53,0,0,0-.82.56c-.22.25-.64.25-1,.26h-.53a.73.73,0,0,0-.21,0,.88.88,0,0,1-.3.09l-.45,0-.85.05h-.08a4.52,4.52,0,0,1-1.49-.5l-.13,0a1.68,1.68,0,0,0-.73.27,4.24,4.24,0,0,0-.42.28l-.15-.2a2.94,2.94,0,0,1,1.3-.59.59.59,0,0,1,.23,0,4.52,4.52,0,0,0,1.39.48h0l.81-.05a2.82,2.82,0,0,0,.66-.08h0c.12-.09.21-.06.37-.07h.53c.37,0,.77-.06.84-.17a1.76,1.76,0,0,1,1-.65H44a11.09,11.09,0,0,1,1.57.41,1.14,1.14,0,0,1,.6.34,11.36,11.36,0,0,1,.61,1.19l0,.09-.07.06s-.36.28-.77.64a1.44,1.44,0,0,1-.85.47,1.18,1.18,0,0,0-.47.34,3,3,0,0,0-.2.26Z"/><path class="cls-1" d="M45.65,31.11a1.33,1.33,0,0,1,.29-.83,2.59,2.59,0,0,0,.57-1,14.64,14.64,0,0,0,.28-1.69,4.61,4.61,0,0,0,0-.53c0-.43,0-.84-.06-1.16v-.13a2.32,2.32,0,0,1,.18-.86l.22.1a2.33,2.33,0,0,0-.16.76v.11c0,.32,0,.74,0,1.18,0,.18,0,.37,0,.55a15,15,0,0,1-.29,1.71,2.73,2.73,0,0,1-.62,1.15,1.07,1.07,0,0,0-.24.68.55.55,0,0,0,0,.12l-.24.05a1.54,1.54,0,0,1,0-.17"/><path class="cls-1" d="M43.79,43.69c0-.24-.72-1.82-1-2.79,0,0-.49-1.27-.7-2a2.12,2.12,0,0,1-.08-.58,2,2,0,0,1,.15-.81h0l.22.09a2,2,0,0,0-.13.72,1.63,1.63,0,0,0,.08.51c.19.66.43.91.76,1.9s.93,2.58,1,2.9a8.4,8.4,0,0,0,1.46,2.2l-.15.19a7.9,7.9,0,0,1-1.55-2.35"/><path class="cls-1" d="M51.31,38.06s-.42-.36-.71-.65h0l-.07,0,0,0a.81.81,0,0,1-.52.19h-.17v-.11a7.5,7.5,0,0,1,.09-1.13c-.14-.22-.36-.37-.47-.55,0,0-.09-.32-.12-.39l.21-.07h0v0l0,.06a2.2,2.2,0,0,1,.12.19l.27.41c.11-.49.24-.83.27-1A6.6,6.6,0,0,1,50.64,34l0-.06h.06l1-.18c.53-.1.7-.64.79-1.06s.59-1.6.77-2.09a1.27,1.27,0,0,0,.09-.29h0s-.11-.05-.2-.11a.89.89,0,0,1-.33-.76,1.51,1.51,0,0,1,.08-.48v-.09a9.44,9.44,0,0,0-.54-1.57,1,1,0,0,0-.54-.64h0l-.05-.23h.06a1.08,1.08,0,0,1,.78.82,8.41,8.41,0,0,1,.54,1.63l0,.17a1.29,1.29,0,0,0-.06.4.66.66,0,0,0,.21.55l.19.11a.21.21,0,0,1,.13.2,1.46,1.46,0,0,1-.1.39,17.88,17.88,0,0,0-.64,2.08s-.4,1.08-1.1,1.22l-.92.17a6.72,6.72,0,0,0-.38,1c0,.08-.05.18-.09.31l.11,0a1.43,1.43,0,0,0,.31.11c.58.15,1,.21,1.28.27l.39.09c.13,0,.29.11.29.3l0,.11a2,2,0,0,1-.39.74c-.17.17-.84,1-.84,1l-.08.09Zm-.31-.6.38.33c.18-.22.62-.76.78-.91a1.86,1.86,0,0,0,.33-.66v0l-.11,0L52,36.05c-.26-.06-.7-.12-1.28-.28l-.33-.11v.11c0,.31.28,1.06.32,1.37h0l.31.31m-1-.1a.44.44,0,0,0,.28-.12l.09-.06a.41.41,0,0,1-.07-.15c0-.07-.13-.21-.25-.38,0,.22,0,.46,0,.71m.26-.83c0-.15-.08-.3-.11-.44,0,.07,0,.14,0,.21l.15.23"/><path class="cls-1" d="M49.8,33.33c-.33-.17-.9,0-1.22-.18a5.21,5.21,0,0,0-1.24-.47l-.6,0h0l0-.24h0a1.25,1.25,0,0,0,.39-.09l.17,0a4.24,4.24,0,0,1,1.38.52,10.08,10.08,0,0,1,1.22.24h0c.09,0,.35-.21.57-.53a10.81,10.81,0,0,0,.57-1,2.53,2.53,0,0,0,.29-1.11v0a3.81,3.81,0,0,1,.08-1s.53-1.59.73-1.93a13.21,13.21,0,0,0,.54-1.26l.23.09s-.37,1-.56,1.29a9.81,9.81,0,0,0-.6,1.85c-.11.53-.18,1-.18,1a2.75,2.75,0,0,1-.32,1.22c-.14.25-.36.64-.59,1s-.46.61-.76.63Zm1.76-2.89-.05,0Z"/><path class="cls-1" d="M50.46,33.35a3.28,3.28,0,0,0-.13-.82,6.85,6.85,0,0,1-.11-1.46,3.49,3.49,0,0,0-.17-1.3.52.52,0,0,1-.1-.34,2.66,2.66,0,0,1,.26-.94,3.54,3.54,0,0,0,.24-.69c0-.24-.42-.45-.82-.82a7.07,7.07,0,0,0-.74-.63l.14-.2a6.54,6.54,0,0,1,.77.65c.33.35.86.51.89,1a2.48,2.48,0,0,1-.26.79,2.72,2.72,0,0,0-.24.84.34.34,0,0,0,.05.2,3.24,3.24,0,0,1,.22,1.44,7,7,0,0,0,.1,1.38,3.76,3.76,0,0,1,.14.88,1.12,1.12,0,0,0,.14.6l-.17.17a1.17,1.17,0,0,1-.21-.75"/><path class="cls-1" d="M48.51,33h0l.22-.09a6.17,6.17,0,0,0,.39.7A5,5,0,0,0,50.4,35l-.14.2A5.26,5.26,0,0,1,48.51,33"/><path class="cls-1" d="M49.29,35.43a3.72,3.72,0,0,1-.37-1.23.42.42,0,0,1,.18-.38l.12.21s0,0,0,.17a2.55,2.55,0,0,0,.16.71c.05.14.11.26.14.33l.11-.07A1.48,1.48,0,0,1,50,34.8h0l.14.19a2,2,0,0,0-.3.3.48.48,0,0,1-.39.21h-.08Z"/><path class="cls-1" d="M52.58,36.15,53,36a1,1,0,0,0,.42-.24l.23.08a1,1,0,0,1-.56.39,3.73,3.73,0,0,1-.44.14Z"/><path class="cls-1" d="M52.52,39,52.44,39l0-.08.06-.3v-.07a10.89,10.89,0,0,0-.3-1.65l.23-.06a13,13,0,0,1,.32,1.71v.11a1.72,1.72,0,0,0,0,.21l.21.09a1.91,1.91,0,0,0,.68.13A1.51,1.51,0,0,0,54,39a5.09,5.09,0,0,0,0-.7,16.9,16.9,0,0,1,.33-1.9l-.11-.2c0-.09-.48-.27-.76-.36a.68.68,0,0,1-.23-.14l0-.14c0-.21.16-.28.17-.44a12,12,0,0,0,.26-1.53.71.71,0,0,0,0-.16A12,12,0,0,0,53,32.07a2,2,0,0,0-.86-.42c-.43-.13-.84-.23-.84-.23l.06-.24s.41.1.85.24.88.29,1,.56a11.55,11.55,0,0,1,.65,1.4.68.68,0,0,1,0,.21,11.29,11.29,0,0,1-.26,1.56.7.7,0,0,1-.11.3l-.06.1,0,0,.1,0,.31.11c.23.1.47.17.58.37l.12.24,0,0v0s-.33,1.54-.33,1.89a6.7,6.7,0,0,1-.06.82v.06l-.07,0a1.62,1.62,0,0,1-.56.1A2.59,2.59,0,0,1,52.52,39"/><path class="cls-1" d="M53.41,30.18a2,2,0,0,0,.57-.25l.08-.1v-.09c0-.09,0-.18,0-.28a.54.54,0,0,1,.13-.42,4.18,4.18,0,0,0,.41-.42c.16-.17.24-.24.24-.24l.15.19-.21.21a3.94,3.94,0,0,1-.44.46l0,.05a.72.72,0,0,0,0,.17c0,.09,0,.18,0,.28v.11c0,.24-.26.33-.45.43l-.37.14Z"/><path class="cls-1" d="M54.42,36.33a2.55,2.55,0,0,0,.2-.53c.09-.29.21-1.26.27-1.62a2.48,2.48,0,0,0,.06-.43,1.81,1.81,0,0,0,0-.29,1.87,1.87,0,0,1,0-.38,16.77,16.77,0,0,1,.12-1.7,3.75,3.75,0,0,1,.81-1.54,4.78,4.78,0,0,1-1.47-.8l.16-.19a4.15,4.15,0,0,0,1.55.8l.22,0-.14.17a4.85,4.85,0,0,0-.42.55,2.48,2.48,0,0,0-.47,1,16.32,16.32,0,0,0-.11,1.67,2.27,2.27,0,0,0,0,.33,1.42,1.42,0,0,1,0,.34,2.49,2.49,0,0,1-.06.47c-.06.36-.18,1.31-.27,1.65a3.48,3.48,0,0,1-.22.57Z"/><path class="cls-1" d="M56.29,33.83a.76.76,0,0,0-.24-.07.28.28,0,0,0-.17.08.74.74,0,0,1-.42.18.94.94,0,0,1-.26,0h-.87a1.83,1.83,0,0,1-.77-.32h0a6.85,6.85,0,0,1-.81.13.51.51,0,0,1-.54-.34l.24-.06v0l0,.05a.34.34,0,0,0,.26.09c.27,0,.58-.13.81-.13l.17,0a1.72,1.72,0,0,0,.64.27h1.09a.59.59,0,0,0,.31-.15.5.5,0,0,1,.32-.12.86.86,0,0,1,.34.09,2.92,2.92,0,0,0,.88.22h0a.66.66,0,0,0,0-.15,3.25,3.25,0,0,0-.2-1.09,16.52,16.52,0,0,1-.85-1.73,1.77,1.77,0,0,1-.14-.41,3.8,3.8,0,0,0,.06-.4.64.64,0,0,0-.14-.38c-.24-.32-1.07-.82-1.35-1.12s-.85-1-1.08-1.33a5,5,0,0,0-.86-.7,4.47,4.47,0,0,0-1.32-.7c-.35,0-1.72-.28-2.32-.35a1,1,0,0,1,0,.27.86.86,0,0,1,0,.27c-.11.34-.15,1.23-.28,1.63a5.13,5.13,0,0,0-.2,1.22,1.49,1.49,0,0,1-.07.43,10.87,10.87,0,0,1,.15,1.27c0,.35.16,2.41.16,2.41l-.24,0s-.16-2.05-.16-2.43a12.76,12.76,0,0,0-.16-1.27v-.06a1,1,0,0,0,.07-.37,5.28,5.28,0,0,1,.21-1.3c.11-.33.15-1.22.28-1.62a.49.49,0,0,0,0-.2.58.58,0,0,0,0-.25l0-.09-.15-.21.25,0c.46,0,2.17.34,2.54.37a4.09,4.09,0,0,1,1.47.77,4.1,4.1,0,0,1,.88.73c.23.31.83,1,1.08,1.31s1,.75,1.36,1.13a.85.85,0,0,1,.18.53,2.91,2.91,0,0,1-.05.4h0l0,.07c0,.06.05.14.09.23s.18.42.29.65c.22.47.46,1,.52,1a2.88,2.88,0,0,1,.25,1.23,1.27,1.27,0,0,1,0,.2.24.24,0,0,1-.12.17l-.15,0a2.82,2.82,0,0,1-1-.24"/><path class="cls-1" d="M54.06,39a4.49,4.49,0,0,1,.85-.51c.36-.15,1.23-.78,1.72-1a.53.53,0,0,0,.22-.13h0a.38.38,0,0,1-.05-.18V37a1.45,1.45,0,0,0-.1-.51c-.13-.34-.48-1.85-.66-2.13a2,2,0,0,1-.24-1c0-.25.22-1,.28-1.48a8.19,8.19,0,0,0,0-.92v-.47h.24v.47a7.24,7.24,0,0,1,0,1c-.06.43-.28,1.28-.28,1.44a1.84,1.84,0,0,0,.2.91,19.81,19.81,0,0,1,.68,2.17,1.75,1.75,0,0,1,.12.6,1.09,1.09,0,0,1,0,.18h0s0,.06.05.19-.13.24-.36.35c-.45.19-1.31.82-1.73,1a1.33,1.33,0,0,1-.8.48Z"/><path class="cls-1" d="M56.9,37.4a5.17,5.17,0,0,0,.4-2.31c0-.64,0-1.14,0-1.14l.24,0a11.63,11.63,0,0,1,.06,1.17A5.28,5.28,0,0,1,57,37.52Z"/><path class="cls-1" d="M35.73,36.7a11.58,11.58,0,0,1,2.38-7.14c3-3.86,6.24-4.69,8.44-4.69a7.31,7.31,0,0,1,2.67.45l-.1.22a6.67,6.67,0,0,0-2.34-.34l-.48,0c-2.13,0-5,.67-8,4.46a11.27,11.27,0,0,0-2.23,7l-.1,0c0,5.34,3.41,10.47,8.4,10.73l0,.24c-5.73-.58-8.63-5.54-8.63-11"/><path class="cls-1" d="M42.75,26.83l.18-.09.09-.08.17.17a1,1,0,0,1-.38.24Z"/><path class="cls-1" d="M41.82,44.64l0,0h-.24l0-.24h.17l.19,0a.21.21,0,0,1,.15.19v.07Z"/><path class="cls-1" d="M39.53,36.86a.77.77,0,0,1-.36-.15l.15-.2.08.06.12,0v-.07h.24v0a.3.3,0,0,1-.06.2l-.17.08Z"/><path class="cls-1" d="M39.42,31.94a.53.53,0,0,1-.05-.21h.24v0l0,.07s0,.08.15.08v.25h0a.41.41,0,0,1-.36-.22"/><path class="cls-1" d="M46.23,32.54c0-.15.14-.26.33-.29l0,.24c-.07,0-.11,0-.12,0h0l0,.08.06.05-.16.19a.58.58,0,0,1-.18-.32"/><path class="cls-1" d="M47.94,29.35l.23-.09a.51.51,0,0,0,.07.14.26.26,0,0,0,.2.11h0l0,.24h-.08a.6.6,0,0,1-.5-.41m0,0Z"/><path class="cls-1" d="M48.84,33l.08-.1h-.23a.15.15,0,0,1-.09-.13c0-.12.08-.1.08-.11l0,.11h0l0-.11H49l.16,0,.07.15a.58.58,0,0,1-.18.32Z"/><path class="cls-1" d="M54.44,29.38a.93.93,0,0,1-.21,0l.07-.23h.19v0l.21,0a.24.24,0,0,1-.25.19Z"/><path class="cls-1" d="M36.93,31.67l0-.12.1-.07-.1.07,0,.12,0,0,0,0a.58.58,0,0,1-.08-.23l.09-.18a.38.38,0,0,1,.22-.06h.06c.23,0,.39.08.4.26a.3.3,0,0,1-.17.25.79.79,0,0,1-.2,0l-.25,0m.25-.22h.09l0,0-.16,0H37v0Z"/><path class="cls-1" d="M42.88,35.58c.18-1.17.66-2.67-.43-3.51a2,2,0,0,0-2.49.31,5.49,5.49,0,0,1-.83.45,4.83,4.83,0,0,1-.64.12l-.23,0a3.83,3.83,0,1,0,4.6,2.93.76.76,0,0,1,0-.34m-4.62,3.81c-.21-.22.08-.27.08-.27a2.39,2.39,0,0,0,3.26-1.57c.09-.14.16,0,.16,0-1,2.75-3.33,2-3.5,1.83m2.84-6.32a.62.62,0,0,1,1.2-.28.62.62,0,0,1-.47.74.6.6,0,0,1-.73-.46"/><path class="cls-1" d="M45.5,27.87a.37.37,0,0,1,.41-.3.35.35,0,0,1,.3.41.35.35,0,0,1-.4.29.36.36,0,0,1-.31-.4m.12,0a.24.24,0,0,0,.2.27.24.24,0,1,0-.2-.27"/><path class="cls-1" d="M40,28.83a.52.52,0,1,1,.44.6.53.53,0,0,1-.44-.6m.16,0a.36.36,0,0,0,.3.41.36.36,0,0,0,.42-.3.37.37,0,0,0-.31-.42.36.36,0,0,0-.41.31"/><path class="cls-1" d="M45.88,27.92c-.33-.43-3.15-.25-4.31-.07s-1,1.08-1,1.08c0,.34.23.69,1.65.73s4-1.31,3.7-1.74m-5,1a.2.2,0,0,1-.16-.21.19.19,0,0,1,.21-.16.19.19,0,1,1,0,.37m4.67-.79a.15.15,0,0,1-.12-.17.14.14,0,0,1,.16-.12.16.16,0,0,1,.13.17.15.15,0,0,1-.17.12"/><path class="cls-1" d="M39.76,29.05a.31.31,0,0,1,.37-.27.34.34,0,0,1,.28.38.33.33,0,0,1-.38.27.32.32,0,0,1-.27-.38m.15,0a.18.18,0,0,0,.15.2.17.17,0,0,0,.19-.15.18.18,0,0,0-.14-.2.18.18,0,0,0-.2.15"/><path class="cls-1" d="M39,28.81l-.64.62s-.17-.05-.2,0-.15.34,0,.5.16.44,1.73-.77l.11.09-1.3.92a.49.49,0,0,1-.74-.18c-.24-.38,0-.89,1.08-1.22"/><path class="cls-1" d="M35.49,48.9l.28-.22.08.09h0l.33-.27v0l-.08-.09.27-.23v-.1L34.7,46s-.06,0-.15,0l-.13.11-.62.51,0,0c-.09.07,0,.14,0,.14l1.69,2.05Z"/><path class="cls-1" d="M60,49.16l.07.45-.16,0,0,0,.08.55,0,0,.16,0,.07.46a.15.15,0,0,0,.12,0l3.4-.52a.16.16,0,0,0,.08-.18l0-.22c-.06-.36-.16-1-.16-1V48.7c0-.14-.13-.14-.13-.14l-3.41.51c-.06,0-.09.09-.09.09"/><path class="cls-1" d="M47.91,63.43l.1.3-.11,0,0,0,.11.36h0l.11,0,.09.3.09,0,2.24-.7a.1.1,0,0,0,0-.12l-.05-.15c-.07-.24-.21-.68-.21-.68v0a.12.12,0,0,0-.11-.09l-2.24.7Z"/><path class="cls-1" d="M16.47,54.69l.34-.23.08.12,0,0,.41-.27v0l-.08-.12.34-.23v-.1l-1.67-2.5a.14.14,0,0,0-.17,0l-.16.1-.76.5-.06,0a.13.13,0,0,0-.06.16l1.66,2.5Z"/><path class="cls-1" d="M21.8,33.17s-.45.38,0,0a2,2,0,0,1,.94-.47,2.54,2.54,0,0,1,1.28.17l.29.3a.66.66,0,0,0,0,.23l.37.36a.29.29,0,0,0,.3,0l.38.36a.34.34,0,0,0,0,.27l.39.38a.31.31,0,0,0,.21,0l.61.59a.46.46,0,0,0,0,.25l.36.35a.33.33,0,0,0,.23-.05l.56.55a.87.87,0,0,0,0,.29l.4.39a.48.48,0,0,0,.29,0l.66.65a.77.77,0,0,0,.08.45l.46.45s.41-.05,1,.66a9.73,9.73,0,0,1,1.89,2.17,21.25,21.25,0,0,1,.32,2.39,1.08,1.08,0,0,0,.43.76l.28,0,.64.63v.26a2,2,0,0,1-.48.63l-.14.16a2.21,2.21,0,0,1-.63.49h-.26L32,46.18l0-.28a1.09,1.09,0,0,0-.76-.41,19.76,19.76,0,0,1-2.41-.26,9.9,9.9,0,0,1-2.21-1.84c-.72-.61-.68-1-.68-1l-.45-.44s-.31-.14-.46-.08l-.66-.64a.51.51,0,0,0,0-.29l-.4-.39a.72.72,0,0,0-.29,0L23.09,40a.29.29,0,0,0,.05-.24l-.35-.34a.46.46,0,0,0-.25,0l-.61-.6a.31.31,0,0,0,0-.21l-.39-.38a.36.36,0,0,0-.27,0l-.38-.37a.29.29,0,0,0,0-.3l-.36-.36a.6.6,0,0,0-.24.05L20,37a2.59,2.59,0,0,1-.21-1.28,2,2,0,0,1,.46-1c.39-.48,0,0,0,0Z"/><path class="cls-1" d="M45.35,61.09s.06.36,0,0a1.19,1.19,0,0,1,0-.65,1.54,1.54,0,0,1,.49-.62l.25-.06.12.1.3-.08c.1,0,.11-.16.11-.16l.31-.08a.27.27,0,0,0,.15.08l.33-.09,0-.12.51-.14a.26.26,0,0,0,.12.1l.29-.08,0-.14.47-.12.16.09.33-.08.08-.16.55-.14a.52.52,0,0,0,.27.1l.38-.1s.1-.23.68-.34a6.15,6.15,0,0,1,1.74-.31,11.64,11.64,0,0,1,1.37.6.68.68,0,0,0,.54,0l.1-.13.54-.14.14.08a1.09,1.09,0,0,1,.18.45l0,.13a1.55,1.55,0,0,1,.06.49l-.08.13-.54.14-.16-.07a.66.66,0,0,0-.46.28,11.4,11.4,0,0,1-.9,1.18,6.22,6.22,0,0,1-1.68.59c-.55.19-.75,0-.75,0l-.39.1s-.17.11-.18.21l-.56.15s-.07-.1-.14-.1l-.33.09a.35.35,0,0,0-.09.15l-.48.13a.18.18,0,0,0-.11-.11l-.29.08a.38.38,0,0,0-.06.14l-.51.14-.1-.09-.32.08a.2.2,0,0,0-.09.14l-.32.08A.17.17,0,0,0,47.4,63l-.31.08a.34.34,0,0,0-.05.14l-.25.07a1.52,1.52,0,0,1-.74-.3,1.28,1.28,0,0,1-.36-.54c-.13-.36,0,0,0,0Z"/><path class="cls-1" d="M29.12,48.24h0a.47.47,0,0,1,.24.08.57.57,0,0,1,.19.24v.1l-.05,0v.13l.05,0V49l0,0v.13l0,0v.2l0,0v.12l.05,0v.19l-.05,0V50l.05,0v.23l-.06.08v.16s.08.06.07.28a2.2,2.2,0,0,1-.05.69,4.32,4.32,0,0,1-.35.46.27.27,0,0,0-.05.2l0,0v.21l-.05,0a.55.55,0,0,1-.18,0H28.9a.55.55,0,0,1-.18,0l0-.05v-.21l0-.06a.24.24,0,0,0-.06-.19c-.08-.1-.32-.36-.37-.45a2.79,2.79,0,0,1-.06-.68c0-.23.05-.29.05-.29v-.15l-.07-.09V50l.05-.05v-.13l-.06-.05v-.19l0,0v-.12l0,0v-.21l0,0v-.12l0,0v-.13l.05,0v-.13l0,0v-.09a.63.63,0,0,1,.18-.26.47.47,0,0,1,.24-.08h.53Z"/><path class="cls-1" d="M24.13,25.65s-.07-.11,0,0a.39.39,0,0,1,.08.21.52.52,0,0,1,0,.27l-.07.06h-.05l-.09.07v.07l-.09.07h-.06l-.09.08v0l-.14.13-.05,0-.08.07v0l-.13.12h-.06l-.09.08V27l-.15.13h-.1l-.11.09s0,.09-.15.22a2.54,2.54,0,0,1-.5.37,4.35,4.35,0,0,1-.52,0,.27.27,0,0,0-.17.08V28l-.15.13h0a.42.42,0,0,1-.13-.11l0,0a.57.57,0,0,1-.1-.14v-.06l.14-.13h.06a.21.21,0,0,0,.1-.16,4.18,4.18,0,0,1,.1-.51,2.23,2.23,0,0,1,.43-.44c.14-.15.23-.13.23-.13l.1-.09,0-.1.15-.13h.06l.09-.08v-.07l.13-.11.05,0,.08-.07V25.7l.13-.12H23l.09-.08v-.05l.08-.08h.06l.09-.07v0l.07-.06a.46.46,0,0,1,.27,0,.36.36,0,0,1,.2.11h0Z"/><path class="cls-1" d="M20.17,54.2h0a.33.33,0,0,1-.17-.06.39.39,0,0,1-.13-.18v-.08l0,0v-.08l0-.05v-.08l0,0v-.09l0,0v-.15l0,0v-.09l0,0v-.14l0,0V53l0,0v-.16l0-.07v-.11s-.05,0,0-.2a1.91,1.91,0,0,1,.05-.49,2.5,2.5,0,0,1,.26-.33.18.18,0,0,0,.05-.14l0,0v-.15l0,0a.35.35,0,0,1,.14,0h0a.35.35,0,0,1,.14,0l0,0v.16l0,0a.17.17,0,0,0,0,.14,3.75,3.75,0,0,1,.26.33,1.83,1.83,0,0,1,0,.49c0,.16-.05.21-.05.21v.11l.05.06v.16l0,0v.1l0,0v.13l0,0v.09l0,0v.15l0,0v.09l0,0v.09l0,0v.09l0,0V54a.46.46,0,0,1-.14.18.33.33,0,0,1-.17.06h-.38Z"/><path class="cls-1" d="M35.24,26.53h0a.47.47,0,0,1-.11-.2.6.6,0,0,1,0-.29l.06-.06h.05l.08-.08v-.07l.07-.08h.07l.08-.09,0,0,.13-.14h.06l.07-.08,0-.05.12-.13H36l.08-.09v-.06l.14-.15.1,0,.1-.1s0-.09.13-.23a2.3,2.3,0,0,1,.46-.44,4.21,4.21,0,0,1,.53-.08.24.24,0,0,0,.16-.11v-.06l.13-.14h.06a.36.36,0,0,1,.14.09l0,0a1.08,1.08,0,0,1,.11.14V24l-.13.15H38a.25.25,0,0,0-.09.17,3.19,3.19,0,0,1,0,.54,2,2,0,0,1-.38.5c-.13.16-.22.15-.22.15l-.1.11v.1l-.14.15h-.06l-.08.09v.07l-.11.13h-.05l-.08.08v.05l-.12.14h0l-.08.09v.06l-.07.09h-.07l-.07.09v0l-.06.07a.58.58,0,0,1-.28.05.43.43,0,0,1-.21-.09c-.11-.08,0,0,0,0Z"/><path class="cls-1" d="M53,50.85s0,.22,0,0a.68.68,0,0,1,.05-.38,1,1,0,0,1,.32-.36l.16,0,.06.07.19,0,.06-.09L54,50l.09.05.2,0,0-.07.31-.06.07.06.18,0,0-.08.29,0,.09.06.2,0,0-.09.34-.07.16.07.23-.05s.07-.13.42-.17a3.3,3.3,0,0,1,1.06-.12,7.45,7.45,0,0,1,.8.4.41.41,0,0,0,.32,0l.06-.08.33-.06.08.05a.79.79,0,0,1,.09.28l0,.08a.79.79,0,0,1,0,.29l0,.08-.33.07-.1,0a.4.4,0,0,0-.28.14,5.77,5.77,0,0,1-.59.68,3.5,3.5,0,0,1-1,.29c-.34.1-.45,0-.45,0l-.24,0-.11.13-.34.06-.09-.06-.2,0-.06.09-.29.06-.06-.07-.18,0,0,.08-.31.06-.05,0-.2,0-.06.08-.19,0-.1-.05-.19,0,0,.09-.15,0a1,1,0,0,1-.44-.21.69.69,0,0,1-.19-.33c-.07-.23,0,0,0,0Z"/><path class="cls-1" d="M16.17,50.56s.24,0,0,0a.83.83,0,0,1-.42-.07,1,1,0,0,1-.37-.36l0-.16.07-.06,0-.21c0-.06-.09-.08-.09-.08l0-.2.06-.09,0-.22-.08,0,0-.33.07-.08,0-.19-.09,0L15,48.12l.07-.09,0-.22-.1-.07-.06-.37.08-.16L15,47s-.14-.08-.18-.46a4,4,0,0,1-.1-1.15,8.08,8.08,0,0,1,.47-.85.46.46,0,0,0,0-.35l-.09-.07L15,43.72l.07-.08a.7.7,0,0,1,.3-.09l.08,0a1.07,1.07,0,0,1,.32,0l.09.06.06.36-.06.1a.44.44,0,0,0,.15.31,7.67,7.67,0,0,1,.72.65A4,4,0,0,1,17,46.12c.09.37,0,.49,0,.49l0,.26s.06.11.13.13l.06.36-.07.09,0,.23.1.06.05.31-.07.07,0,.19.09,0,0,.34-.06,0,0,.22.08.07,0,.21s-.08,0-.07.1l0,.2.09,0,0,.17a1,1,0,0,1-.23.46.8.8,0,0,1-.38.2c-.23.06,0,0,0,0Z"/><path class="cls-1" d="M39.45,49.17l-1.62,3.56c.06.32.26.72,1,1.18a1.29,1.29,0,0,0,1.18.23l2.49-3a6.27,6.27,0,0,0-3-2"/><path class="cls-1" d="M38.38,61l-1.76-3.07a1.69,1.69,0,0,0-1.39.1c-.71.29-.79.75-.79.75l.89,3.41A5.71,5.71,0,0,0,38.38,61"/><path class="cls-1" d="M35.84,24l3.61-1.52A1.89,1.89,0,0,0,39.52,21c-.22-.82-.71-1-.71-1l-3.87.52a6.35,6.35,0,0,0,.9,3.5"/><path class="cls-1" d="M18.59,44.43l1.26-2.73a1.39,1.39,0,0,0-.75-.9,1,1,0,0,0-.9-.19L16.27,42.9a4.84,4.84,0,0,0,2.32,1.53"/><path class="cls-1" d="M23.67,55.67l.48,2.14A1,1,0,0,0,25,58a.71.71,0,0,0,.61-.3l.1-2.18a3.56,3.56,0,0,0-2,.14"/><path class="cls-1" d="M31.33,31.65l-.9-1.95a1,1,0,0,0-.84,0c-.45.13-.52.4-.52.4l.35,2.12a3.54,3.54,0,0,0,1.91-.56"/><path class="cls-1" d="M32.48,48.3l0-.1.08-.05L32,47.24l-.19.1-.62-1.15-1.73.93.6,1.12-.15.08.51,1,.12-.06.06.08s-1.57,1.42,2,8.29c0,0,.32.63.89.41s4.71-2.52,4.71-2.52.46-.28.29-.69S36.58,51,36.58,51a4.62,4.62,0,0,0-4.1-2.68m3.05,3.11c.11.22.35,1-.63.81S33,50.5,33,50.5c-.14-.23-.35-1.31.83-.89a2.9,2.9,0,0,1,1.73,1.8"/><path class="cls-1" d="M47.18,56.35l0,0,0,0,.3-.26,0-.06.38-.33-.49-.57-.37.31,0,0-.32.27,0,0,0,0s-.66-.47-2.95,1.42c0,0-.22.17-.09.37S45,59.08,45,59.08a.24.24,0,0,0,.29.05c.13-.09,1.27-1,1.27-1a1.79,1.79,0,0,0,.67-1.76m-.91,1.4c-.08.06-.35.21-.36-.17a1.6,1.6,0,0,1,.49-.87c.07-.07.46-.23.4.24a1.14,1.14,0,0,1-.53.8"/><path class="cls-1" d="M24.4,59.84h0l0,0L24,59.63l0,.08-.51-.2-.31.76.5.21,0,.06.42.17,0,0h.05s-.13.88,2.87,2.15c0,0,.27.12.4-.1s.84-2.09.84-2.09.08-.21-.08-.3-1.65-.72-1.65-.72a1.94,1.94,0,0,0-2.05.23m1.83.19c.09,0,.38.22,0,.43a1.67,1.67,0,0,1-1.09,0c-.11,0-.46-.32,0-.5a1.19,1.19,0,0,1,1.05.11"/><path class="cls-1" d="M61.11,53.17v0h0l-.12.27.06,0-.14.34.52.21.13-.33,0,0,.11-.29h0v0s.59.09,1.44-1.92c0,0,.08-.19-.07-.27s-1.39-.57-1.39-.57-.15,0-.21.06L61,51.8a1.3,1.3,0,0,0,.15,1.37M61.24,52c0-.06.15-.25.29,0a1.12,1.12,0,0,1,0,.73c0,.08-.22.31-.34,0a.82.82,0,0,1,.08-.7"/><path class="cls-1" d="M43.92,61.19v0h0l-.12-.44-.09,0-.15-.55-.83.21.14.54-.07,0,.12.46H43v0s-.81.44,0,3.72c0,0,.07.31.33.27s2.26-.59,2.26-.59.23-.07.2-.26-.42-1.82-.42-1.82a2,2,0,0,0-1.47-1.56m1,1.64c0,.1.05.45-.35.28a1.79,1.79,0,0,1-.65-.93c0-.11,0-.6.44-.3a1.29,1.29,0,0,1,.56.95"/><path class="cls-1" d="M33.1,27.19l0,.07,0,0,.18.65.14,0,.24.82,1.23-.36-.23-.79.11,0-.19-.68-.09,0,0-.05s1.19-.7-.12-5.57c0,0-.11-.45-.51-.39s-3.35,1-3.35,1-.34.11-.29.39.69,2.7.69,2.7a3,3,0,0,0,2.24,2.28m-1.51-2.41c0-.15-.09-.68.51-.43a2.62,2.62,0,0,1,1,1.37c.07.16,0,.88-.64.45a1.89,1.89,0,0,1-.86-1.39"/><path class="cls-1" d="M13.83,49.35v0h0l-.11-.18,0,0-.13-.22-.34.19.13.22,0,0,.11.19h0s-.3.3.46,1.65a.14.14,0,0,0,.18.07c.11,0,.92-.53.92-.53s.09-.06.06-.14l-.41-.75a.93.93,0,0,0-.84-.51m.63.6s.08.2-.12.17-.4-.34-.4-.34-.08-.25.16-.18a.59.59,0,0,1,.36.35"/><path class="cls-1" d="M27.52,35v0h0l.06.2h0l.08.25.38-.12L28,35.05h0L28,34.83h0v0s.36-.22-.08-1.7c0,0,0-.14-.16-.12l-1,.32s-.1,0-.09.13.24.82.24.82a.92.92,0,0,0,.71.68M27,34.22s0-.2.15-.13a.77.77,0,0,1,.32.41s0,.27-.19.14a.61.61,0,0,1-.28-.42"/><path class="cls-1" d="M13.58,38.52s-.22.42.3,1.3L12.2,44.93s.07.22.54.4.66.09.66.09l2.39-4.82c1-.25,1.12-.71,1.12-.71s1.81-4.22,2-4.87a.75.75,0,0,0-.33-.92l-2.12-.87a.75.75,0,0,0-.88.42c-.32.61-2,4.87-2,4.87"/><path class="cls-1" d="M43.24,22.59s.25.06.63-.33l2.87.18s.11-.07.14-.33,0-.36,0-.36L44,21.16c-.27-.47-.52-.48-.52-.48s-2.43-.37-2.79-.38a.41.41,0,0,0-.44.29l-.16,1.22a.4.4,0,0,0,.33.4c.36.09,2.8.38,2.8.38"/><path class="cls-1" d="M57.55,58.54s.08,0,.06-.24l.71-.71s0,0,0-.11a.17.17,0,0,0-.11-.07l-.8.6c-.19,0-.25,0-.25,0s-.66.55-.74.65a.14.14,0,0,0,0,.18l.29.32a.14.14,0,0,0,.18,0l.74-.65"/><path class="cls-1" d="M21.17,32.58s.11-.08.09-.37l1.08-1.08a.24.24,0,0,0-.08-.17c-.1-.11-.16-.11-.16-.11l-1.23.92c-.28-.07-.37,0-.37,0s-1,.84-1.14,1a.22.22,0,0,0,0,.28l.43.49a.21.21,0,0,0,.27,0c.17-.12,1.14-1,1.14-1"/><path class="cls-1" d="M19.29,48a1,1,0,0,0,.06,1.06.93.93,0,0,0,1,.3.32.32,0,0,1,.21.1.37.37,0,0,1,0,.26.92.92,0,0,0,.06,1.06.93.93,0,0,0,1,.31.33.33,0,0,1,.2.08l.37-.29c0-.09,0-.22.07-.29s.21-.32.24-.37l.1-.1h0l0,0,0,0h0l.13-.07.41-.15c.07,0,.22-.06.29,0l.37-.3a.35.35,0,0,1,0-.21.93.93,0,0,0-.05-1.08,1,1,0,0,0-1-.31.35.35,0,0,1-.24-.1.26.26,0,0,1,0-.23,1,1,0,0,0-.06-1.08.94.94,0,0,0-1-.31.34.34,0,0,1-.25-.11.31.31,0,0,1,0-.22.94.94,0,0,0-1.06-1.4.34.34,0,0,1-.23-.08l-.37.29c.05.09,0,.23-.06.3l-.24.36-.11.11h0l0,0,0,0h0l-.13.08-.41.15c-.08,0-.23.06-.31,0l-.36.29a.38.38,0,0,1,0,.24A.93.93,0,0,0,19,47.64a.37.37,0,0,1,.22.09.4.4,0,0,1,0,.27m2.64,2.83a.79.79,0,0,1-1.11-.13.79.79,0,1,1,1.11.13m-1-1.66c-.07-.08,0-.23.05-.31l.24-.36.11-.11h0l0,0,0,0h0l.13-.08.41-.14c.08,0,.25-.06.31,0h0c.07.09,0,.23-.05.31l-.24.36-.11.11h0l0,0,0,0h0l-.13.08-.41.14c-.08,0-.24.07-.31,0h0Zm-1.36-1.72c-.06-.09,0-.23.06-.31a3.75,3.75,0,0,1,.24-.36l.1-.11h0l0,0,0,0h0l.12-.08.42-.14c.08,0,.24-.07.31,0h0c.06.08,0,.23-.06.31l-.24.36-.1.1h0l0,0,0,0h0l-.12.08-.41.14c-.09,0-.25.06-.32,0h0Zm.14-1.13,0,0h0l.12-.08a.26.26,0,0,1,.21,0c.07,0,.13.06.13.09l-.14.07a.56.56,0,0,0-.18.12h0a.57.57,0,0,0-.16.14l-.1.12s-.05-.07-.05-.14a.29.29,0,0,1,0-.21Zm.55,1.27.15-.07a1.1,1.1,0,0,0,.17-.12h0a1,1,0,0,0,.15-.14l.1-.12s.05.07.06.14a.29.29,0,0,1-.05.21l-.1.1h0l0,0-.12.08a.38.38,0,0,1-.21,0c-.07,0-.12-.06-.13-.09m.7.55.1-.1h0l0,0,.12-.07a.33.33,0,0,1,.22,0c.06,0,.12.06.12.09l-.14.07a.77.77,0,0,0-.17.12h0a.69.69,0,0,0-.15.14l-.1.12s-.05-.07-.06-.14a.29.29,0,0,1,0-.21m1.16,1.16,0,0h0l-.12.08a.26.26,0,0,1-.21,0c-.07,0-.13-.06-.13-.09l.14-.07a.55.55,0,0,0,.17-.11h0a.56.56,0,0,0,.16-.14l.1-.12s0,.07.05.15a.26.26,0,0,1,0,.2Zm.8.46-.15.06-.17.12h0a.76.76,0,0,0-.16.14l-.1.12s-.05-.07-.06-.15a.28.28,0,0,1,.05-.2l.1-.1h0l0,0h0l.12-.08a.26.26,0,0,1,.21,0c.07,0,.13,0,.13.09m.83-1.4a.79.79,0,0,1-.13,1.11.8.8,0,0,1-1.12-.13.79.79,0,0,1,.13-1.11.8.8,0,0,1,1.12.13m-1.36-1.72a.79.79,0,1,1-1.11-.13.78.78,0,0,1,1.11.13M20,44.78a.79.79,0,0,1,1.11.13.8.8,0,0,1-1.25,1A.8.8,0,0,1,20,44.78m-1,1.09c0-.06.08,0,.14-.07a.77.77,0,0,0,.17-.12h0a1.22,1.22,0,0,0,.16-.14l.1-.13s0,.08.05.15a.26.26,0,0,1,0,.2l-.1.1,0,0h0l-.12.08a.28.28,0,0,1-.22,0c-.06,0-.12-.05-.12-.08m-.84,1.38a.79.79,0,1,1,1.24-1,.79.79,0,0,1-1.24,1m1.49.61A.79.79,0,1,1,19.46,49a.79.79,0,0,1,.14-1.11"/><path class="cls-1" d="M29.42,27.87a.56.56,0,0,0,.2.61.57.57,0,0,0,.66,0l.14,0,.07.15a.58.58,0,0,0,.21.62.59.59,0,0,0,.66,0h.13l.17-.23v-.18l.09-.25,0-.08h0v0h0l.06-.06.22-.15.17,0,.18-.23,0-.13a.58.58,0,0,0-.21-.62.56.56,0,0,0-.65,0l-.16,0-.06-.12a.57.57,0,0,0-.85-.66l-.16,0-.06-.13a.57.57,0,0,0-.85-.65h-.15l-.17.23v.19l-.08.25-.05.08h0v0h0l-.06.07-.22.15-.18,0-.17.23.05.14a.58.58,0,0,0,.21.61.57.57,0,0,0,.66,0l.14,0Zm2,1.25a.49.49,0,1,1-.78-.58.49.49,0,0,1,.78.58m-.83-.82,0-.2.08-.25.05-.08h0v0h0l.06-.07.23-.15.18,0h0l0,.19-.09.25,0,.08h0v0l0,0h0l-.06.06-.22.15-.19,0Zm-1.08-.81V27.3l.08-.25,0-.08h0l0,0v0h0l.06-.06.22-.15.19,0h0v.19l-.08.25,0,.08h0l0,0v0l-.06.06-.22.15-.19,0h0Zm-.1-.69h0l.06-.06.13,0,.09,0-.08.06-.08.1h0l-.07.11,0,.08L29.39,27v-.13Zm.53.67L30,27.4l.08-.09h0l.06-.11.05-.09.05.08v.12l-.05.08h0l-.06.07-.13,0Zm.5.21.05-.07h0v0l.06-.06.12,0,.09,0-.07.07-.09.09h0l-.06.11,0,.09-.06-.08Zm.87.5v0h0l-.06.06-.12,0-.09,0,.07-.06.08-.1h0l.07-.11,0-.09.06.08v.13Zm.54.14-.07.07-.08.1h0l-.07.1,0,.09-.06-.08v-.12l.05-.08h0l.06-.07.12,0Zm.27-.95a.48.48,0,1,1-.68.1.48.48,0,0,1,.68-.1m-1.07-.8a.48.48,0,1,1-.68.09.49.49,0,0,1,.68-.09m-1.75-.71a.48.48,0,1,1,.09.68.49.49,0,0,1-.09-.68m-.43.8L29,26.6l.08-.1h0l.07-.1,0-.09.06.07v.13l0,.08h0l-.06.07-.12,0Zm-.28.95a.48.48,0,1,1,.58-.77.48.48,0,1,1-.58.77m1,.13a.47.47,0,0,1,.67-.1.48.48,0,0,1,.1.68.48.48,0,0,1-.77-.58"/><path class="cls-1" d="M52.54,53.18a.3.3,0,0,0-.52.23l-.05.06h-.08a.32.32,0,0,0-.35-.07.3.3,0,0,0-.18.3l0,.06.07.14.08,0,.1.1,0,.05h0v0h0v0l0,.15,0,.09.06.14h.07a.29.29,0,0,0,.34.07.3.3,0,0,0,.19-.29l0-.07h.08a.31.31,0,0,0,.34.07.29.29,0,0,0,.19-.29L53,54H53a.31.31,0,0,0,.35.08.29.29,0,0,0,.18-.29l0-.07-.06-.14-.09,0-.1-.1,0,0h0v-.19l0-.09-.06-.14-.08,0a.3.3,0,0,0-.52.24l0,.06Zm-1.11.59a.26.26,0,0,1,.13-.34.27.27,0,0,1,.34.14.25.25,0,0,1-.14.34.24.24,0,0,1-.33-.14m.6-.16.09,0,.1.11,0,0h0v0l0,.14,0,.1h0l-.09,0-.1-.11,0,0h0l0,0v-.14l0-.1Zm.66-.28.09,0,.1.11,0,0h0l0,.05v.14l0,.1h0l-.09,0-.1-.1,0,0h0l0,0v-.14l0-.1Zm.35.13h0l0,.05,0,.06,0,0v0l0-.06h0l0-.06,0,0H53l.06,0Zm-.45.07v0l0,.07h0l0,.06,0,0h0l-.06,0,0,0h0v0l0-.06Zm-.24.18,0,0h0l0,.05,0,.07,0,0v0l0-.07h0l0-.07,0,0h0Zm-.46.27h0v-.05l0-.06,0,0v.06l0,.06h0L52,54l0,0H52l-.06,0Zm-.21.21v0l0-.07h0l0-.06,0,0h.05l.06,0,0,0h0v0l0,.07Zm.37.38a.25.25,0,0,1-.34-.13.26.26,0,1,1,.47-.21.25.25,0,0,1-.13.34m.66-.28a.26.26,0,0,1-.21-.48.26.26,0,1,1,.21.48m.79-.63a.26.26,0,0,1-.13.35.27.27,0,0,1-.34-.14.25.25,0,0,1,.13-.34.25.25,0,0,1,.34.13m-.25-.41v0l0,.07h0l0,.06,0,0h-.06l-.06,0,0,0h0v0l0-.06Zm-.37-.38a.26.26,0,0,1,.21.47.26.26,0,0,1-.21-.47m-.32.42a.26.26,0,0,1-.13.34.28.28,0,0,1-.35-.14.27.27,0,0,1,.14-.34.25.25,0,0,1,.34.14"/><path class="cls-1" d="M41.07,57.6a.75.75,0,0,0-1.29.54.31.31,0,0,1-.12.15.27.27,0,0,1-.21,0,.77.77,0,0,0-.83-.19.75.75,0,0,0-.46.73l-.11.14.14.34c.08,0,.16.08.21.12l.22.26.06.11h0v0l0,0h0l0,.11s0,.28,0,.35l-.06.23.13.35.18,0a.74.74,0,0,0,1.3-.51.24.24,0,0,1,.13-.16.25.25,0,0,1,.19,0,.74.74,0,0,0,.84.2.75.75,0,0,0,.46-.71.28.28,0,0,1,.14-.16.23.23,0,0,1,.18,0,.74.74,0,0,0,1.3-.5.34.34,0,0,1,.12-.16l-.14-.35c-.08,0-.17-.06-.22-.11l-.22-.27-.06-.1h0v0h0l0-.12s0-.28,0-.34,0-.19.07-.23L42.88,57a.36.36,0,0,1-.19,0,.73.73,0,0,0-.82-.18.76.76,0,0,0-.47.73l-.12.14a.27.27,0,0,1-.21,0M38.31,59a.63.63,0,0,1,.35-.82.64.64,0,0,1,.83.35.64.64,0,0,1-1.18.47m1.49-.37c.08,0,.17.07.22.11l.23.27.06.1h0v0l0,.12a3.27,3.27,0,0,1,0,.35c0,.06,0,.2-.09.23h0c-.08,0-.18-.07-.22-.11l-.23-.27-.06-.1h0v-.06h0l0-.11s0-.28,0-.35,0-.2.08-.24h0ZM41.42,58c.08,0,.18.07.22.12l.23.26.06.1h0v.06h0l0,.12s0,.28,0,.35,0,.2-.09.23h0c-.08,0-.17-.07-.22-.11l-.23-.27-.05-.1h0v0h0l0-.12s0-.27,0-.34,0-.21.08-.24h0Zm.83.36v0l0,.11,0,.15-.1.08,0-.12a.41.41,0,0,0-.05-.16h0a.37.37,0,0,0-.07-.14l-.07-.11h.12l.15.08Zm-1.09.14,0,.13a.41.41,0,0,0,0,.16h0a.71.71,0,0,0,.07.15l.07.11h-.12L41.11,59l0-.1v0l0-.11.05-.16Zm-.58.42.05.1v0h0l0,.11,0,.16-.1.08,0-.12a1.42,1.42,0,0,0,0-.16h0a1.07,1.07,0,0,0-.07-.15l-.07-.1h.12Zm-1.15.63v0l0-.11,0-.16.1-.08,0,.13a.41.41,0,0,0,0,.16h0a.42.42,0,0,0,.08.15l.07.11h-.13l-.14-.07ZM38.9,60V59.9a1.31,1.31,0,0,0,0-.15h0a.71.71,0,0,0-.07-.15l-.08-.1h.13l.15.07,0,.1h0v0h0l0,.11L39,60Zm.89.94a.62.62,0,0,1-.82-.34.63.63,0,1,1,1.17-.48.63.63,0,0,1-.35.82m1.62-.65a.63.63,0,1,1-.47-1.17.62.62,0,0,1,.82.34.63.63,0,0,1-.35.83m2-1.48a.64.64,0,1,1-.83-.35.63.63,0,0,1,.83.35m-.61-1,0,.13c0,.05,0,.09.05.16h0a.91.91,0,0,0,.07.14l.08.11h-.13l-.15-.08,0-.1v0l0-.11.06-.16Zm-.87-1a.64.64,0,1,1-.35.83.65.65,0,0,1,.35-.83m-.8,1a.63.63,0,0,1-1.17.48.63.63,0,0,1,.35-.83.63.63,0,0,1,.82.35"/><path class="cls-1" d="M64.59,49l.09-.06-.11-.07a.79.79,0,0,0-.41-.23l-.11,0-.07.18a.53.53,0,0,0,0,.5v0l-.09,0,.12.06.11.06,0-.11,0,0a.43.43,0,0,0,.33-.11.54.54,0,0,0,.14-.24"/><path class="cls-1" d="M38.47,49.08c0-.13.15-.3.15-.3s-.31,0-.39,0a2.15,2.15,0,0,0-1.45,0,1.49,1.49,0,0,1-.38,0c.15.09.11.47.1.58a1.62,1.62,0,0,0,.77,1.32c.15.08.12.13.12.13s-.18.28-.18.28a1.13,1.13,0,0,1,.4,0,1.34,1.34,0,0,0,.41,0,.71.71,0,0,0-.28-.24l0-.15a1.39,1.39,0,0,0,.7-.81,1.77,1.77,0,0,0,0-.83"/><path class="cls-1" d="M41.92,61.71c-.11-.21.12-.58.12-.58s-.52.08-.67.11A3.78,3.78,0,0,0,39,62a2.56,2.56,0,0,1-.61.25c.29.09.4.74.44.93A2.79,2.79,0,0,0,40.67,65c.28.06.26.18.26.18-.17.13-.18.53-.18.53a2.45,2.45,0,0,1,.68-.2,2,2,0,0,0,.67-.2,1.22,1.22,0,0,0-.59-.28c-.06,0-.07-.13,0-.25a2.41,2.41,0,0,0,.79-1.67,3,3,0,0,0-.37-1.4"/><path class="cls-1" d="M19.68,37.67c-.12-.06-.14-.31-.14-.31s-.22.22-.28.28a2.21,2.21,0,0,0-.9,1.17,1.55,1.55,0,0,1-.21.33c.18-.06.45.21.53.29a1.64,1.64,0,0,0,1.54.24c.15-.07.18,0,.18,0s.1.32.1.32a1.3,1.3,0,0,1,.25-.33,1.08,1.08,0,0,0,.25-.33.71.71,0,0,0-.37.07s-.08,0-.1-.11a1.41,1.41,0,0,0-.19-1.07,1.76,1.76,0,0,0-.66-.54"/><path class="cls-1" d="M33.23,63.22c0,.11-.13.25-.13.25a.88.88,0,0,1,.33,0,1.79,1.79,0,0,0,1.21,0,1.33,1.33,0,0,1,.32,0c-.12-.08-.09-.39-.08-.49a1.34,1.34,0,0,0-.64-1.1c-.13-.06-.1-.11-.1-.11s.15-.23.15-.23a1.08,1.08,0,0,1-.34,0,.93.93,0,0,0-.34,0,.58.58,0,0,0,.24.2l0,.12a1.18,1.18,0,0,0-.58.68,1.5,1.5,0,0,0,0,.69"/><path class="cls-1" d="M27,48.72c.25,0,.54.35.54.35-.05-.2.12-.57.15-.73a4.07,4.07,0,0,0,.2-2.76,3.12,3.12,0,0,1,0-.73c-.2.27-.91.13-1.12.09a3.1,3.1,0,0,0-2.65,1.21c-.16.27-.27.2-.27.2-.07-.22-.48-.39-.48-.39a2.7,2.7,0,0,1-.06.77,2.47,2.47,0,0,0-.06.77,1.43,1.43,0,0,0,.52-.49c0-.07.16,0,.26.08a2.69,2.69,0,0,0,1.41,1.47,3.32,3.32,0,0,0,1.58.16"/><path class="cls-1" d="M25.9,25l-.07-.15.05,0v0l-.1-.18h0l-.06,0-.07-.15h0L24.49,25v.07l0,.08.17.34,0,0,.06,0L25.88,25Z"/><path class="cls-1" d="M29.72,36.93V37h-.13l0,.83,1.65.06,0-.83h-.13V37a1.72,1.72,0,0,0,1.1-.92s.11-2.9.11-3-.18-.18-.18-.18L29,32.74s-.18.06-.19.17-.11,3-.11,3a1.76,1.76,0,0,0,1,1"/><path class="cls-1" d="M51.88,52.37H52v.11l.72,0L52.63,51l-.72,0v.12h-.09a1.52,1.52,0,0,0-.87-.89l-2.6.12c-.11,0-.15.17-.15.17l.13,2.74s.06.15.16.15l2.6-.12a1.53,1.53,0,0,0,.78-1"/><path class="cls-1" d="M59.48,54l0,0,0,0-.26-.27-.54.51.26.27,0,0,0,0a.81.81,0,0,0-.05.65l.93,1H60l1-1v-.12l-.93-1a.78.78,0,0,0-.65,0"/><path class="cls-1" d="M22.87,41.23l0-.08.1,0-.26-.7-1.4.53.27.71.11,0,0,.09a1.57,1.57,0,0,0-.6,1.16s.94,2.45,1,2.55.22.09.22.09l2.68-1s.14-.11.1-.21l-1-2.55a1.59,1.59,0,0,0-1.22-.47"/><path class="cls-1" d="M29.05,62.08l-.07.11-.13-.09-.56.84L30,64.06l.56-.85-.13-.08.07-.11a2.09,2.09,0,0,0,1.73-.24l2-3.05c.08-.12-.07-.3-.07-.3L31,57.29s-.23-.07-.3.05l-2,3a2.11,2.11,0,0,0,.44,1.69"/><path class="cls-1" d="M12.9,47.92V48h-.06v.4h.79V48h-.07v0a.8.8,0,0,0,.51-.47V46L14,45.93H12.45l-.09.08,0,1.45a.81.81,0,0,0,.52.45"/><path class="cls-1" d="M27,23.79l-.07,0,0-.08L26.4,24l.46,1,.52-.23,0-.08.06,0a1.23,1.23,0,0,0,.9.4l1.87-.85c.08,0,.06-.17.06-.17l-.89-2s-.09-.1-.16-.07l-1.88.85a1.21,1.21,0,0,0-.29.94"/><path class="cls-1" d="M22.09,58.77l.06.07-.07.07.48.49,1-1L23,58,23,58,22.9,58A1.45,1.45,0,0,0,23,56.77L21.22,55c-.07-.06-.22,0-.22,0l-1.86,1.85s-.07.14,0,.21l1.76,1.77a1.47,1.47,0,0,0,1.19-.07"/><path class="cls-1" d="M37.68,62.83v-.08h.08l0-.57-1.13,0,0,.57h.09v.07a1.18,1.18,0,0,0-.76.63s-.07,2-.07,2.07.12.12.12.12l2.17.08s.13,0,.13-.11.08-2.07.08-2.07a1.2,1.2,0,0,0-.72-.68"/><path class="cls-1" d="M45.45,54.58l0,0,0,0-.21.15.29.41.21-.14,0,0,0,0a.56.56,0,0,0,.43.11l.77-.53v-.07l-.54-.81h-.08l-.77.52a.55.55,0,0,0-.06.44"/><path class="cls-2" d="M55.16,54.71c-1.87.22-3.31,1-3.21,1.81s1.68,1.22,3.55,1,3.3-1,3.21-1.81-1.68-1.22-3.55-1M53,56.63a.29.29,0,0,1-.41.09.3.3,0,1,1,.32-.5.29.29,0,0,1,.09.41m4.54-.79a11.87,11.87,0,0,0-4.18.56s-.08,0,0-.06a6.76,6.76,0,0,1,4.16-.54Zm.83,0a.3.3,0,1,1-.5-.32.3.3,0,0,1,.5.32"/><path class="cls-2" d="M27.19,49.91c-.53-.65-2.24-.13-3.82,1.15S21,53.93,21.49,54.58s2.25.14,3.82-1.15,2.42-2.86,1.88-3.52m-5,4.51a.33.33,0,0,1,0-.65.33.33,0,1,1,0,.65m.51-.74s-.08,0,0,0a7.32,7.32,0,0,1,3.49-2.91l0,0a13,13,0,0,0-3.5,2.94m3.93-3.11a.32.32,0,0,1-.32-.32.32.32,0,1,1,.64,0,.32.32,0,0,1-.32.32"/><path class="cls-2" d="M43.92,51.08c-.63-.06-1.16.11-1.18.37s.47.52,1.1.58S45,51.91,45,51.65s-.48-.52-1.11-.57m-.86.48h-.14v-.14h.14Zm.14-.05v0a2.25,2.25,0,0,1,1.41.11h0a4.12,4.12,0,0,0-1.42-.1m1.69.15h-.14v-.14h.14Z"/><path class="cls-2" d="M20.69,28.52c-.49-.35-1.58.32-2.43,1.5s-1.14,2.42-.65,2.77,1.58-.31,2.43-1.49,1.14-2.43.65-2.78m-2.65,4a.23.23,0,1,1,.16-.29.23.23,0,0,1-.16.29m.22-.61,0,0a5.23,5.23,0,0,1,1.87-2.65h0A9.5,9.5,0,0,0,18.26,32m2.14-2.87a.23.23,0,0,1-.29-.16.23.23,0,0,1,.17-.28.22.22,0,0,1,.28.16.23.23,0,0,1-.16.28"/><path class="cls-1" d="M27,27.73c-.06-.08,0-.12.05-.08s.63.45.88.64c-.1-.86-.07-2-1-2.41a1.5,1.5,0,0,0-1.71.73,3.7,3.7,0,0,1-.49.48,7.16,7.16,0,0,1,.82.06c.13,0,.1.09,0,.08a4.15,4.15,0,0,0-1.29.08l-.16.08A2.84,2.84,0,1,0,28,28.54a3.43,3.43,0,0,0-1-.81M25.41,32c-.19-.12,0-.21,0-.21a1.77,1.77,0,0,0,2-1.78c0-.12.12,0,.12,0-.16,2.17-2,2.12-2.13,2m.74-5.09a.44.44,0,0,1,.18-.62.46.46,0,0,1,.62.18.46.46,0,0,1-.18.62.45.45,0,0,1-.62-.18"/><path class="cls-1" d="M27.74,54.12c-.07,0-.08,0,0-.07s.54-.22.77-.3c-.6-.29-1.34-.79-2-.34a1.15,1.15,0,0,0-.23,1.4,4,4,0,0,1,.11.52c.18-.28.35-.48.37-.51s.1,0,.07,0a3.22,3.22,0,0,0-.48.86v.13a2.16,2.16,0,1,0,2.33-2,2.81,2.81,0,0,0-.94.31m2.07,2.74c-.16.07-.14-.09-.14-.09a1.35,1.35,0,0,0-.32-2c-.06-.07,0-.08,0-.08a1.42,1.42,0,0,1,.43,2.19m-3-2.56a.35.35,0,1,1,0-.69.35.35,0,0,1,0,.69"/><path class="cls-1" d="M18.77,56.38h0l0,.18c.09-.11.22-.24.16-.39a.22.22,0,0,0-.28-.11h-.11l.09.1v0L18.51,56h0a.45.45,0,0,0-.56.31.45.45,0,0,0,.3.56.46.46,0,0,0,.57-.3.8.8,0,0,0,0-.2m-.66.29,0,0a.29.29,0,0,0,.43,0h0a.3.3,0,0,1-.47,0m.66-.49.09,0,.05.09-.09.05Z"/><path class="cls-1" d="M50.19,55.15v0c.06,0,.42.1.59.14-.24-.42-.48-1-1-1s-.63.45-.71.74a1.61,1.61,0,0,1-.15.36c.23-.09.41-.14.44-.15s.07,0,0,0a2.4,2.4,0,0,0-.64.32l-.06.08a1.57,1.57,0,1,0,2.23-.26,1.94,1.94,0,0,0-.69-.2m.12,2.5c-.13,0-.05-.11-.05-.11a1,1,0,0,0,.64-1.34c0-.07.05,0,.05,0a1,1,0,0,1-.64,1.49m-.74-2.75a.26.26,0,0,1,0-.36.24.24,0,0,1,.35,0,.25.25,0,0,1,0,.35.27.27,0,0,1-.36,0"/><path class="cls-1" d="M19.15,55.22a.27.27,0,0,1,.19.35.28.28,0,0,1-.35.2.29.29,0,0,1-.19-.35.28.28,0,0,1,.35-.2m0,.09a.19.19,0,0,0-.23.13.19.19,0,1,0,.36.1.19.19,0,0,0-.13-.23"/><path class="cls-1" d="M18.92,50.71a.42.42,0,0,1,.29.52A.42.42,0,1,1,18.4,51a.42.42,0,0,1,.52-.29m0,.12a.3.3,0,0,0-.36.21.29.29,0,0,0,.21.35.27.27,0,0,0,.35-.2.29.29,0,0,0-.2-.36"/><path class="cls-2" d="M19.54,52.08c0-.94-.76-.93-.76-.93-.27,0-.57.12-.74,1.25s.66,3.33,1,3.11.5-2.48.47-3.43m-.81-.67a.14.14,0,0,1,.18-.1.15.15,0,0,1,.11.18.16.16,0,0,1-.19.11.15.15,0,0,1-.1-.19M19,55.35a.12.12,0,0,1-.09-.14l.15-.08a.11.11,0,0,1,.08.14Z"/><path class="cls-1" d="M18.76,50.53a.26.26,0,0,1,.18.32.26.26,0,1,1-.18-.32m0,.12a.14.14,0,0,0-.17.09.14.14,0,0,0,.1.18.16.16,0,0,0,.17-.1.13.13,0,0,0-.1-.17"/><path class="cls-1" d="M19,49.91l-.43-.57s0-.13,0-.17-.25-.15-.39-.07-.36.08.45,1.45l-.09.08L18,49.51a.41.41,0,0,1,.21-.59c.32-.14.71.11.87,1"/><path class="cls-1" d="M38.23,57.61a.5.5,0,0,1-.38.59.5.5,0,0,1-.58-.38.49.49,0,0,1,.37-.58.49.49,0,0,1,.59.37m-.16,0a.33.33,0,0,0-.39-.24.32.32,0,0,0-.25.39.34.34,0,0,0,.39.25.33.33,0,0,0,.25-.4"/><path class="cls-1" d="M44.89,53.61a.72.72,0,0,1-.55.86.72.72,0,1,1,.55-.86m-.21,0a.5.5,0,0,0-.6-.38.5.5,0,1,0,.22,1,.51.51,0,0,0,.38-.6"/><path class="cls-2" d="M44.12,53.76c-.21-.42-.65-.77-2.51-.11s-4.53,3.7-3.88,4.08,4.17-1.25,5.58-2.06.81-1.91.81-1.91m-6,3.87a.21.21,0,0,1-.24-.15.22.22,0,0,1,.16-.25.21.21,0,0,1,.24.16.21.21,0,0,1-.16.24m5.65-3.23a.26.26,0,0,1-.11-.51.26.26,0,0,1,.11.51"/><path class="cls-1" d="M45,53.22a.45.45,0,0,1-.34.54.47.47,0,0,1-.55-.34.45.45,0,0,1,.35-.54.44.44,0,0,1,.54.34m-.21.05a.24.24,0,1,0-.18.28.23.23,0,0,0,.18-.28"/><path class="cls-1" d="M46.21,53.14l.5-1.12s.24,0,.24-.16,0-.51-.2-.65-.41-.5-1.84,1.85L44.72,53l1.22-1.83A.68.68,0,0,1,47,51c.49.37.42,1.16-.78,2.12"/><path class="cls-1" d="M41.79,22.8a.18.18,0,0,1,.35,0,.18.18,0,1,1-.35,0m.06,0a.12.12,0,0,0,.23,0L42,22.68a.11.11,0,0,0-.11.12"/><path class="cls-1" d="M39.25,23.82a.26.26,0,0,1,.24-.27.24.24,0,0,1,.26.24.26.26,0,0,1-.24.27.26.26,0,0,1-.26-.24m.07,0a.18.18,0,0,0,.36,0,.19.19,0,0,0-.19-.17.19.19,0,0,0-.17.2"/><path class="cls-2" d="M42,22.79c-.21-.17-1.53.2-2.07.4s-.39.62-.39.62c0,.16.18.3.87.18s1.78-1,1.59-1.2m-2.29,1-.1-.09.09-.09.09.08Zm2.14-.85-.07-.06.07-.08.07.07Z"/><path class="cls-1" d="M39.17,23.94a.17.17,0,0,1,.15-.17.17.17,0,0,1,.17.16.16.16,0,0,1-.15.17.17.17,0,0,1-.17-.16m.08,0,.09.08.08-.09-.09-.08Z"/><path class="cls-1" d="M38.76,23.91l-.24.36-.09,0c0,.05,0,.18,0,.24s.12.19.75-.54l.06,0-.53.57a.24.24,0,0,1-.37,0c-.15-.16-.08-.43.39-.69"/><path class="cls-1" d="M31.52,64.5l3.07.59.12-.66-3.06-.58Zm-.06-.83-.25,0a.18.18,0,0,0-.21.14l-.11.55a.19.19,0,0,0,.15.22l.24,0a.18.18,0,0,0,.19-.08l.13-.68a.18.18,0,0,0-.14-.15m3.87,1-.16,0h0a.19.19,0,0,0-.15-.22l-.19,0-.13.66.19,0a.19.19,0,0,0,.22-.15h0l.15.08a.22.22,0,0,0,.27-.15.22.22,0,0,0-.2-.24m0,0,.13.09h0l-.18-.06h0Zm-.06.29-.11,0h.07a.42.42,0,0,0,.19,0h0Zm.14-.08h-.17l-.11,0,0-.11h.12a.38.38,0,0,1,.16.06l0,0h0Z"/><path class="cls-1" d="M59,51.92l-3.86.81.17.82,3.86-.8Zm.47.94.31-.07a.23.23,0,0,0,.18-.27l-.15-.7a.23.23,0,0,0-.27-.18l-.31.07a.25.25,0,0,0-.18.19l.18.86a.24.24,0,0,0,.24.1m-5,.7a.27.27,0,0,0,.18-.11h0a.23.23,0,0,0,.27.18l.25-.06L55,52.76l-.24.05a.23.23,0,0,0-.18.27h0a.37.37,0,0,0-.21,0,.29.29,0,0,0-.24.32.27.27,0,0,0,.34.18m0-.06a.23.23,0,0,1-.2,0h0a.66.66,0,0,0,.24,0l.09,0Zm-.08-.37h.06a.69.69,0,0,0-.23.09h0a.24.24,0,0,1,.17-.11m-.13.16a.52.52,0,0,1,.2-.07l.15,0,0,.14-.14,0a.86.86,0,0,1-.22,0l-.08,0h0Z"/><path class="cls-1" d="M32.19,31.89l1-2.47-.53-.2-.95,2.46Zm-.69-.08-.08.2a.16.16,0,0,0,.09.2l.44.18a.16.16,0,0,0,.2-.09l.08-.2,0-.17-.55-.21Zm1.43-3.07v.14h0a.16.16,0,0,0-.2.09l-.06.16.53.21.06-.16a.16.16,0,0,0-.09-.2h0l.09-.11a.19.19,0,0,0-.09-.25.19.19,0,0,0-.23.13m0,0,.1-.09h0L33,28.8l0,.06Zm.24.1-.06.08,0-.06,0-.15h0Zm-.05-.13,0,.14,0,.09-.09,0,0-.09.07-.13.06,0h0Z"/><path class="cls-3" d="M41.3,68.07l0,.24-.09,0h0l0,.29h.11l0,.24.06,0,1.8-.26s0,0,0-.1l0-.11c0-.19-.08-.55-.08-.55v0a.07.07,0,0,0-.07-.07l-1.8.25Z"/><path class="cls-3" d="M43.88,6.7,44.09,9a1.1,1.1,0,0,0,.84.32.76.76,0,0,0,.68-.23L46,6.83a3.7,3.7,0,0,0-2.13-.13"/><path class="cls-3" d="M54.43,12.75h0a.35.35,0,0,1-.15.16A.55.55,0,0,1,54,13l-.08,0v0l-.1-.05-.06,0-.1,0,0-.05-.1-.05,0,0-.16-.07V12.6l-.09,0,0,0-.15-.07,0,0-.1-.05-.05,0-.18-.08,0-.08-.12-.06s-.07,0-.24-.06a2.12,2.12,0,0,1-.52-.3c0-.07-.17-.35-.22-.44a.24.24,0,0,0-.13-.12h-.06l-.16-.08,0-.05a.69.69,0,0,1,.06-.15v0a.7.7,0,0,1,.09-.14l0,0,.17.08,0,0a.2.2,0,0,0,.18,0,4.15,4.15,0,0,1,.48-.11,2.42,2.42,0,0,1,.56.21c.18.07.2.15.2.15l.11.06h.1l.17.08,0,.05.1.05.06,0,.15.07v.05l.08,0,0,0,.16.07v0l.1,0h0l.1,0,0,.05.1.05,0,0,.08,0a.54.54,0,0,1,.12.23.35.35,0,0,1,0,.22h0Z"/><path class="cls-3" d="M58.58,15l.05,0,0,0,.42.26,0-.09.52.32.49-.78-.5-.31,0-.07-.43-.28,0,.06,0,0s.31-.94-2.73-2.92c0,0-.28-.19-.46,0s-1.33,2.12-1.33,2.12-.13.22,0,.35,1.67,1.11,1.67,1.11a2.17,2.17,0,0,0,2.29.14m-2-.56c-.1-.06-.38-.32.07-.48a1.91,1.91,0,0,1,1.18.26c.11.06.45.45-.13.55a1.34,1.34,0,0,1-1.12-.33"/><path class="cls-3" d="M36.77,8.14v0h0v.27h.06v.33h.5V8.44h0V8.16h0v0S37.83,8,37.83,6c0,0,0-.18-.16-.2s-1.35,0-1.35,0-.14,0-.15.12,0,1.08,0,1.08a1.17,1.17,0,0,0,.61,1.08m-.33-1.05c0-.07,0-.27.24-.11a1,1,0,0,1,.24.61c0,.07-.08.34-.29.11a.75.75,0,0,1-.19-.61"/><path class="cls-3" d="M66.31,23.28a.71.71,0,0,0,.11-.79.68.68,0,0,0-.7-.38.18.18,0,0,1-.14-.11.25.25,0,0,1,0-.19A.69.69,0,0,0,65,20.64l-.14-.09-.31.15c0,.08-.06.16-.1.21l-.23.23-.09.06h0l-.1,0-.32,0-.22-.05-.31.16v.16a.7.7,0,0,0-.13.79.68.68,0,0,0,.69.38c.07,0,.14.06.16.11a.28.28,0,0,1,0,.18.7.7,0,0,0-.13.79.69.69,0,0,0,.69.39.3.3,0,0,1,.17.11.28.28,0,0,1,0,.18.7.7,0,0,0,.56,1.18l.15.09.32-.15c0-.07,0-.17.09-.21l.23-.23.09-.06h0l0,0h0l.11,0,.32,0,.22.05.31-.15,0-.18a.69.69,0,0,0-.59-1.16l-.15-.11a.26.26,0,0,1,0-.19M64.82,20.8a.59.59,0,1,1-.27.79.59.59,0,0,1,.27-.79m.45,1.36c0,.07,0,.17-.09.21L65,22.6l-.1.06h0l0,0h0l-.1,0-.32,0c-.07,0-.19,0-.23-.06h0c0-.07,0-.17.09-.21l.23-.23.09-.06h0l0,0h0l.1,0,.33,0c.06,0,.18,0,.22.06h0ZM66,23.62c0,.08,0,.17-.08.22l-.24.23-.08.06h0l0,0-.11,0-.32,0c-.06,0-.19,0-.23-.06h0c0-.07,0-.17.09-.22l.23-.22.09-.07h0l.1,0,.32,0c.07,0,.19,0,.23.05Zm-.27.81h0l-.09,0-.16,0-.08-.08.12,0,.14-.06h0l.13-.07.1-.08v.12l-.06.14-.09.06Zm-.21-1-.11,0-.15.06h0l-.13.08-.1.07,0-.11.07-.15.09,0h0l.1,0,.15,0Zm-.42-.52L65,23h0l-.09,0-.16,0-.07-.09.11,0,.14-.06h0l.13-.08.1-.08v.12Zm-.67-1h0l.1-.05.15.05.08.08-.11,0-.15.06h0l-.13.08-.1.07,0-.11.07-.14Zm-.51-.46.12,0,.14-.06h0l.13-.08.09-.08,0,.12-.06.14-.09.06h0l-.09,0-.16,0Zm-.82.89a.59.59,0,0,1,1.06-.52.59.59,0,1,1-1.06.52m.72,1.47a.59.59,0,1,1,.79.27.6.6,0,0,1-.79-.27m1.52,1.74a.59.59,0,0,1-.79-.27.59.59,0,1,1,1-.52.59.59,0,0,1-.26.79m.91-.64-.12,0L66,25h0l-.13.08-.1.08V25l.06-.14.09-.05h0l.09,0,.15,0Zm.82-.87a.59.59,0,1,1-1.06.52A.59.59,0,1,1,67.05,24m-1-.68a.59.59,0,1,1,.27-.79.6.6,0,0,1-.27.79"/><path class="cls-3" d="M28,64.59a.68.68,0,0,0-.42-.66.7.7,0,0,0-.79.17.21.21,0,0,1-.17,0A.28.28,0,0,1,26.5,64a.7.7,0,0,0-.43-.67.71.71,0,0,0-.78.17l-.16,0-.13.32.06.21c0,.07,0,.29,0,.33l0,.1v.05h0l-.06.1-.21.24s-.12.12-.2.11l-.13.32.1.13a.71.71,0,0,0,.42.68.69.69,0,0,0,.78-.17.26.26,0,0,1,.19,0L26,66a.69.69,0,0,0,1.2.51.28.28,0,0,1,.2,0l.11.13a.7.7,0,0,0,.43.69.71.71,0,0,0,.77-.17l.17,0,.14-.32c-.06,0-.07-.16-.07-.22s0-.28,0-.32l0-.11h0v-.05h0l.06-.11.21-.24s.13-.12.2-.1l.14-.32-.11-.15a.69.69,0,0,0-1.21-.48h-.17a.3.3,0,0,1-.13-.16m-2.75-.87a.6.6,0,0,1,.78-.33.62.62,0,0,1,.32.78.61.61,0,0,1-.78.32.6.6,0,0,1-.32-.77m1.23.72c.08,0,.08.16.08.22a2.88,2.88,0,0,1,0,.33l0,.1h0v0h0l-.06.1-.21.24c-.05,0-.14.13-.21.1h0c-.08,0-.08-.16-.08-.23L26,65l0-.1v-.05h0l.06-.1.22-.24c0-.05.13-.14.2-.11h0Zm1.51.63c.08,0,.08.16.08.22l0,.32,0,.11h0v0h0l-.06.1-.21.24s-.14.13-.21.1h0c-.08,0-.08-.16-.08-.23l0-.32,0-.11h0V65.5h0l.06-.1.21-.24s.14-.13.21-.11h0Zm.33.78v0l0,.09-.14.07H28l.07-.1.06-.13h0l.05-.15,0-.12.09.08.05.15Zm-.83-.62-.07.09-.06.14h0l-.05.15,0,.12-.09-.08-.05-.15,0-.1v0h0l.05-.09.14-.07Zm-.65-.11,0,.11h0v0l-.05.09-.14.08-.11,0,.06-.1.07-.13h0l.05-.15,0-.11.09.07Zm-1.18-.33v0l0-.09.14-.07H26l-.07.1-.06.14h0L25.8,65l0,.12L25.69,65l-.05-.15Zm-.69,0,.07-.1.07-.14h0a.86.86,0,0,0,.05-.15l0-.12.09.07.05.15,0,.11h0v0l-.05.1-.14.07ZM25,66a.59.59,0,0,1-.31-.78.58.58,0,0,1,.77-.31.59.59,0,0,1,.32.77A.61.61,0,0,1,25,66m1.52.62a.58.58,0,0,1-.32-.77.59.59,0,0,1,.77-.32.59.59,0,1,1-.45,1.09m2.28.31a.6.6,0,0,1-.77.32.59.59,0,1,1,.45-1.09.59.59,0,0,1,.32.77M29,65.85,29,66l-.07.13h0a.43.43,0,0,0-.05.15l0,.12-.09-.07-.05-.15,0-.1v0l.05-.1.14-.07Zm0-1.2a.58.58,0,0,1,.31.77.58.58,0,0,1-.77.32.6.6,0,0,1-.32-.77.61.61,0,0,1,.78-.32m-1.19.15a.6.6,0,1,1-1.1-.46.6.6,0,0,1,1.1.46"/><path class="cls-3" d="M66.8,50.34l0,0v0l.22.14,0-.05.28.18.27-.43-.28-.17,0,0-.24-.14v0h0s.17-.51-1.48-1.58c0,0-.15-.11-.24,0s-.73,1.14-.73,1.14-.06.13,0,.19l.91.61a1.18,1.18,0,0,0,1.24.08M65.73,50s-.2-.17,0-.25a1,1,0,0,1,.64.13c.06,0,.24.25-.07.3a.74.74,0,0,1-.61-.18"/><path class="cls-3" d="M61.13,61.46l0,0M60.84,61l0,0v0l-.22.14"/><path class="cls-3" d="M66.22,51.21c-.06-.16.14-.38.14-.38s-.37,0-.47,0a2.51,2.51,0,0,0-1.72.25,1.64,1.64,0,0,1-.45.1c.19.1.2.55.21.68A1.93,1.93,0,0,0,65,53.32c.18.07.15.14.15.14s-.17.35-.17.35a1.6,1.6,0,0,1,.48-.07,1.41,1.41,0,0,0,.48-.07.88.88,0,0,0-.37-.24s0-.1,0-.18a1.68,1.68,0,0,0,.72-1,2.2,2.2,0,0,0-.11-1"/><path class="cls-3" d="M60.44,59.71c.12,0,.14.28.14.28s.2-.21.25-.27a2,2,0,0,0,.8-1.13,1.36,1.36,0,0,1,.18-.32c-.16.06-.43-.18-.51-.25a1.52,1.52,0,0,0-1.44-.16c-.14.07-.17,0-.17,0s-.11-.29-.11-.29a1.1,1.1,0,0,1-.22.32,1.13,1.13,0,0,0-.22.31.76.76,0,0,0,.35-.07s.07,0,.09.1a1.33,1.33,0,0,0,.22,1,1.85,1.85,0,0,0,.64.48"/><path class="cls-3" d="M7.32,38.76c.09.15-.07.42-.07.42a1.41,1.41,0,0,1,.49-.09,2.75,2.75,0,0,0,1.75-.6,1.81,1.81,0,0,1,.45-.2c-.22-.06-.32-.53-.35-.67a2.07,2.07,0,0,0-1.44-1.31c-.21,0-.19-.12-.19-.12s.11-.39.11-.39a2.06,2.06,0,0,1-.49.16,1.41,1.41,0,0,0-.49.17,1,1,0,0,0,.44.19s.06.09,0,.18A1.74,1.74,0,0,0,7,37.75a2.2,2.2,0,0,0,.3,1"/><path class="cls-3" d="M38.46,6.43l0,.65h-.23l0,0,0,.78.06,0h.23l0,.66a.18.18,0,0,0,.15.09l4.84-.19a.2.2,0,0,0,.13-.24V7.93c0-.52-.06-1.46-.06-1.46V6.35a.22.22,0,0,0-.16-.22l-4.84.2a.16.16,0,0,0-.14.1"/><path class="cls-3" d="M64.91,53.88l-.57-.31.11-.2V53.3l-.68-.38-.06,0-.11.2L63,52.84a.17.17,0,0,0-.16.08l-2.34,4.24a.22.22,0,0,0,.13.24l.27.15,1.29.71.09.06a.21.21,0,0,0,.28,0s2.29-4.16,2.34-4.24a.18.18,0,0,0,0-.18"/><path class="cls-3" d="M8.65,47.24l.24-.08,0,.09h0l.29-.09v0l0-.09L9.45,47l0-.07-.56-1.78a.09.09,0,0,0-.1,0l-.12,0-.54.16,0,0a.09.09,0,0,0-.07.08l.56,1.78Z"/><path class="cls-3" d="M63,20.38l.05.06-.07.07.42.51,1-.84L64,19.67l-.08.07-.05-.07A1.41,1.41,0,0,0,64,18.54l-1.53-1.85c-.06-.07-.21,0-.21,0l-1.94,1.61s-.08.14,0,.21l1.53,1.85a1.39,1.39,0,0,0,1.14,0"/><path class="cls-3" d="M68.45,45.34l0-.07.1,0,.22-.62-1.23-.45-.23.62.1,0,0,.07a1.41,1.41,0,0,0-1.07.43l-.82,2.25c0,.09.09.19.09.19l2.37.86s.16,0,.19-.08L69,46.35a1.4,1.4,0,0,0-.54-1"/><path class="cls-3" d="M18.41,59l-.06-.06.07-.08L18,58.38l-.92.94.47.46.08-.07.05.06a1.39,1.39,0,0,0-.05,1.14l1.72,1.68c.07.07.2,0,.2,0l1.77-1.8s.07-.14,0-.21L19.55,58.9a1.38,1.38,0,0,0-1.14.08"/><path class="cls-3" d="M54.42,11.35v0h0l-.07.17.32.13.07-.16h0v0a.36.36,0,0,0,.29-.1l.25-.58,0-.06-.62-.26-.05,0-.25.58a.37.37,0,0,0,.13.28"/><path class="cls-3" d="M40.34,66.3s.24-.1.68.23l2.87-.62s.11,0,.19.31,0,.36,0,.36l-2.75,1c-.19.52-.44.57-.44.57s-2.39.74-2.76.81a.41.41,0,0,1-.47-.23l-.35-1.2a.41.41,0,0,1,.27-.46c.34-.14,2.75-.8,2.75-.8"/><path class="cls-3" d="M68.79,42.64v0h0V43h.06v.38h.59V43h0v-.32h0v0s.61-.14.68-2.42c0,0,0-.21-.17-.23s-1.57,0-1.57,0-.16,0-.18.13-.05,1.26-.05,1.26a1.34,1.34,0,0,0,.66,1.27m-.33-1.23c0-.08.05-.31.28-.12A1.19,1.19,0,0,1,69,42c0,.08-.1.38-.34.11a.81.81,0,0,1-.19-.71"/><path class="cls-3" d="M44.4,67l0,0v0l-.44.17,0,.09-.54.22.33.81.53-.21,0,.07.45-.18,0,0,0,0s.56.77,3.78-.48c0,0,.29-.11.22-.37s-.9-2.21-.9-2.21-.1-.22-.29-.17-1.78.67-1.78.67A2,2,0,0,0,44.4,67m1.52-1.2c.11,0,.46-.11.33.32s-.85.77-.85.77-.6.1-.35-.41a1.3,1.3,0,0,1,.87-.68"/><path class="cls-3" d="M8.36,35V35h0l0,.46h.1l0,.58.88,0,0-.56h.08l0-.48H9.31v0s.92-.18,1.16-3.62c0,0,0-.32-.25-.36s-2.38-.13-2.38-.13-.24,0-.27.2S7.42,33,7.42,33a2,2,0,0,0,.94,2m-.45-1.89c0-.11.1-.46.44-.16A1.76,1.76,0,0,1,8.68,34c0,.12-.16.58-.51.15a1.31,1.31,0,0,1-.26-1.09"/><path class="cls-3" d="M67.31,41v0h0v.18l.36,0,0-.18h0v0a.41.41,0,0,0,.26-.2l.05-.67,0,0-.7,0,0,0,0,.68a.36.36,0,0,0,.22.22"/><path class="cls-3" d="M15.87,59.46c.1,0,.1.26.1.26s.19-.17.24-.21a1.83,1.83,0,0,0,.79-.9,1,1,0,0,1,.18-.25c-.14,0-.35-.2-.41-.26a1.3,1.3,0,0,0-1.22-.27c-.13,0-.15,0-.15,0s-.06-.26-.06-.26a1.2,1.2,0,0,1-.22.25,1,1,0,0,0-.22.25.53.53,0,0,0,.3,0l.07.1a1.2,1.2,0,0,0,.1.87,1.5,1.5,0,0,0,.5.47"/><path class="cls-3" d="M16.61,57.43l0,0,0,0,.22.21.05,0,.27.27.4-.42-.26-.26,0,0L17.11,57l0,0,0,0s.31-.53-1.28-2.17a.22.22,0,0,0-.29,0c-.14.11-1.11,1.12-1.11,1.12a.18.18,0,0,0,0,.22c.08.1.87.91.87.91a1.37,1.37,0,0,0,1.38.4m-1.12-.62c-.05-.05-.19-.24.11-.28a1.2,1.2,0,0,1,.69.32c.06,0,.21.34-.16.32a.84.84,0,0,1-.64-.36"/><path class="cls-3" d="M14.37,57.33l0,0,0,0,.13.13.27-.24-.12-.14,0,0,0,0a.39.39,0,0,0,0-.32l-.46-.5h0l-.53.47v.06l.45.5a.38.38,0,0,0,.32,0"/><path class="cls-3" d="M59.77,15.89l1.34.74a.73.73,0,0,0,.49-.35.52.52,0,0,0,.13-.46l-1.1-1.06a2.5,2.5,0,0,0-.86,1.13"/><path class="cls-3" d="M32.17,65.46s-1.72-.51-1.93-.55-.29.2-.29.2-.7,2.1-.75,2.39.26.37.26.37c3.48,1,4,.19,4,.19l0,0,0,.06.49.15,0-.08.57.18.28-.88-.58-.18,0-.1-.47-.15v0h-.05a2.18,2.18,0,0,0-1.59-1.66M33,66.62c.29.51-.22.51-.34.46a1.9,1.9,0,0,1-1-.74c-.17-.44.21-.39.32-.36a1.38,1.38,0,0,1,1,.64"/><path class="cls-3" d="M34.68,67.23l0-.29H34.6l0,0,0-.35,0,0h.1l0-.29.08,0,2.18.19s.06,0,0,.11v.14c0,.23-.05.66-.05.66v.05a.1.1,0,0,1-.08.1l-2.18-.19Z"/><path class="cls-3" d="M67.21,35.89l.27,3.27a1.57,1.57,0,0,0,1.2.45,1,1,0,0,0,.95-.31l.6-3.21a5.26,5.26,0,0,0-3-.2"/><path class="cls-3" d="M24.78,62.71l-3-1.46a1.56,1.56,0,0,0-1,.8,1.08,1.08,0,0,0-.23,1l2.45,2.16a5.22,5.22,0,0,0,1.73-2.48"/><path class="cls-3" d="M69.44,30.26s0-.39-.74-.78l-1-4.26s-.14-.11-.54,0-.5.21-.5.21L67,29.73c-.58.58-.48,1-.48,1s.49,3.68.63,4.21a.6.6,0,0,0,.61.5l1.84-.27a.62.62,0,0,0,.44-.66c0-.55-.64-4.21-.64-4.21"/><path class="cls-3" d="M13.5,55.51s.27-.12,0,0a1,1,0,0,1-.51.1,1.27,1.27,0,0,1-.58-.26l-.11-.18.06-.11-.13-.22a.14.14,0,0,0-.14-.05l-.13-.22,0-.14-.13-.23h-.1l-.22-.37.05-.11-.12-.21h-.11l-.2-.35,0-.13L11,52.77l-.14,0-.23-.4c.05-.06,0-.22,0-.22l-.15-.28s-.21,0-.41-.46a4.78,4.78,0,0,1-.6-1.29,7.3,7.3,0,0,1,.18-1.19.54.54,0,0,0-.11-.42l-.13,0L9.25,48l0-.13a1.17,1.17,0,0,1,.31-.23l.1-.06a1,1,0,0,1,.36-.15l.12,0,.23.39,0,.14a.53.53,0,0,0,.3.3,8.17,8.17,0,0,1,1.12.45,5.11,5.11,0,0,1,.8,1.18c.26.39.19.58.19.58l.15.28s.13.11.21.09l.23.41-.05.13.14.24.14,0,.2.34-.06.11.12.21a.2.2,0,0,0,.13,0l.21.37-.05.1.13.24a.19.19,0,0,0,.13,0l.13.22s-.07.08,0,.15l.13.22.12,0,.1.18a1.22,1.22,0,0,1-.07.63,1,1,0,0,1-.35.39c-.25.18,0,0,0,0Z"/><path class="cls-3" d="M24.52,10s.09.28,0,0a1,1,0,0,1,0-.52,1.28,1.28,0,0,1,.34-.55L25,8.86l.1.06.24-.09c.07,0,.07-.13.07-.13l.24-.1.13,0,.25-.1,0-.1.39-.16.11.07.22-.09,0-.12L27.18,8l.14.06.25-.1.05-.13.43-.17.22,0,.3-.12s.06-.2.5-.34a4.89,4.89,0,0,1,1.37-.42,9.91,9.91,0,0,1,1.16.34.55.55,0,0,0,.42,0L32.09,7l.42-.17.12.06a.93.93,0,0,1,.19.34l0,.1a.93.93,0,0,1,.1.38l-.05.12L32.49,8l-.13,0a.51.51,0,0,0-.34.26,10.16,10.16,0,0,1-.6,1,5.28,5.28,0,0,1-1.28.64c-.42.2-.6.1-.6.1l-.3.12s-.12.11-.12.19l-.43.18-.13-.07-.26.1-.05.14-.37.15-.09-.07-.23.09a.19.19,0,0,0,0,.12l-.4.16L27.05,11l-.26.1a.18.18,0,0,0-.06.12l-.24.09a.15.15,0,0,0-.14,0l-.24.1,0,.12-.2.07a1.21,1.21,0,0,1-.62-.16,1,1,0,0,1-.34-.39c-.14-.28,0,0,0,0Z"/><path class="cls-3" d="M9.58,26.93l0,.09-.1,0-.3.69,1.34.57.3-.69-.11,0,0-.09A1.53,1.53,0,0,0,11.92,27L13,24.48c0-.1-.09-.22-.09-.22l-2.57-1.09s-.18,0-.22.08L9.05,25.76a1.55,1.55,0,0,0,.53,1.17"/><path class="cls-3" d="M8.19,30.47l2.38-.09a1.11,1.11,0,0,0,.37-.85c.06-.52-.19-.7-.19-.7l-2.31-.54a3.78,3.78,0,0,0-.25,2.18"/><path class="cls-3" d="M57.89,62.34l1.9-2.19a1.41,1.41,0,0,0-.45-1c-.42-.48-.79-.41-.79-.41l-2.38,1.6a4.65,4.65,0,0,0,1.72,2"/><path class="cls-4" d="M59.89,16.32c-.57-.63-1.25-1-1.51-.72s0,1,.56,1.58,1.24,1,1.51.72,0-.94-.56-1.58M58.6,16a.15.15,0,0,1-.14-.13.14.14,0,0,1,.13-.15.14.14,0,0,1,.14.13.14.14,0,0,1-.13.15m1.48,1.48a5.39,5.39,0,0,0-1.3-1.41l0,0a3.13,3.13,0,0,1,1.29,1.41Zm.22.3a.13.13,0,0,1-.14-.12.14.14,0,0,1,.13-.15.14.14,0,0,1,.14.13.13.13,0,0,1-.13.14"/><path class="cls-4" d="M36.07,67.87c-.64-.07-1.18.09-1.21.35s.46.54,1.1.62,1.18-.08,1.21-.35-.46-.54-1.1-.62m-.89.47H35v-.15h.15Zm.14,0v0a2.41,2.41,0,0,1,1.43.16h0a4.21,4.21,0,0,0-1.44-.15M37,68.5h-.14v-.15H37Z"/><path class="cls-3" d="M33.55,8.2l0,0s-.17-.33-.24-.46c-.14.39-.4.87-.08,1.23s.63.16.87.06a1.12,1.12,0,0,1,.31-.1L34,8.75v0a2.36,2.36,0,0,0,.55.24h.09A1.33,1.33,0,1,0,33.3,7.64a1.67,1.67,0,0,0,.25.56M35.1,6.77c.06.09,0,.08,0,.08a.84.84,0,0,0-1.22.32h-.05a.87.87,0,0,1,1.31-.39m-1.39,2a.21.21,0,0,1-.2.22.21.21,0,0,1-.22-.21.2.2,0,0,1,.2-.22.21.21,0,0,1,.22.21"/><path class="cls-3" d="M46.7,8.81a.33.33,0,0,1-.46.1.34.34,0,0,1-.09-.46.33.33,0,0,1,.46-.1.34.34,0,0,1,.09.46m-.09-.06a.21.21,0,0,0-.06-.3.22.22,0,0,0-.31.06.21.21,0,0,0,.06.3.22.22,0,0,0,.31-.06"/><path class="cls-3" d="M51.8,10.18a.5.5,0,0,1-.68.14.49.49,0,1,1,.68-.14m-.13-.08a.35.35,0,0,0-.09-.48.34.34,0,0,0-.47.1.33.33,0,0,0,.09.47.34.34,0,0,0,.47-.09"/><path class="cls-4" d="M50.23,8.6c-1.2-.6-3.94-.47-3.82,0s2.58,1.45,3.64,1.75,1.31-.5,1.31-.5c.11-.31.07-.69-1.13-1.28m-3.39.14a.14.14,0,0,1-.19,0l0-.19a.13.13,0,0,1,.19,0ZM51.13,10a.18.18,0,0,1-.24,0,.19.19,0,0,1,0-.25.2.2,0,0,1,.25,0,.17.17,0,0,1,0,.24"/><path class="cls-3" d="M52.06,10.07A.31.31,0,1,1,52,9.64a.31.31,0,0,1,.09.43M51.94,10a.16.16,0,1,0-.27-.18.16.16,0,0,0,0,.22.17.17,0,0,0,.23,0"/><path class="cls-3" d="M52.65,10.6l.78-.28s.13.11.19,0,.27-.22.23-.4,0-.44-1.78,0l0-.12,1.47-.27a.47.47,0,0,1,.57.44c0,.42-.37.76-1.41.62"/><path class="cls-3" d="M56.34,62.39a.38.38,0,1,1,.75-.07.38.38,0,0,1-.75.07m.12,0a.26.26,0,0,0,.28.23.26.26,0,0,0-.05-.51.26.26,0,0,0-.23.28"/><path class="cls-3" d="M50.84,64.78a.56.56,0,0,1,1.11-.1.56.56,0,1,1-1.11.1m.17,0a.39.39,0,0,0,.77-.07.39.39,0,1,0-.77.07"/><path class="cls-4" d="M56.73,62.34c-.45-.36-3.32.54-4.47,1s-.81,1.38-.81,1.38c.11.35.42.66,1.9.34s3.84-2.38,3.38-2.74M51.8,64.69a.2.2,0,0,1-.22-.18.21.21,0,0,1,.19-.22.19.19,0,0,1,.21.18.2.2,0,0,1-.18.22m4.64-2a.15.15,0,0,1-.17-.14.16.16,0,1,1,.31,0,.15.15,0,0,1-.14.17"/><path class="cls-3" d="M50.69,65.06a.35.35,0,0,1,.32-.38.36.36,0,0,1,.38.32.35.35,0,0,1-.32.38.34.34,0,0,1-.38-.32m.17,0a.17.17,0,0,0,.19.16.17.17,0,0,0,.17-.19.19.19,0,0,0-.2-.17.18.18,0,0,0-.16.2"/><path class="cls-3" d="M49.79,65l-.5.8s-.19,0-.2.1-.08.39.08.52.27.42,1.6-1.23l.13.07-1.11,1.28a.54.54,0,0,1-.82,0c-.33-.33-.2-.93.82-1.54"/><path class="cls-3" d="M7.79,40.26a.32.32,0,0,1-.34-.32.33.33,0,1,1,.34.32m0-.11a.22.22,0,1,0-.23-.21.22.22,0,0,0,.23.21"/><path class="cls-3" d="M9.63,45.23a.48.48,0,0,1-.5-.47.49.49,0,0,1,.47-.51.5.5,0,0,1,.51.48.49.49,0,0,1-.48.5m0-.15a.34.34,0,0,0,.33-.35.34.34,0,0,0-.35-.33.35.35,0,0,0-.34.35.35.35,0,0,0,.36.33"/><path class="cls-4" d="M10,43c-.21-1.33-1.91-3.5-2.25-3.12s.32,3,.68,4,1.17.78,1.17.78c.32-.08.61-.33.4-1.66m-2.09-2.7a.14.14,0,1,1,0-.27.14.14,0,1,1,0,.27m1.5,4.23a.19.19,0,0,1-.19-.17.18.18,0,0,1,.17-.18.19.19,0,0,1,.19.17.18.18,0,0,1-.17.18"/><path class="cls-3" d="M9.87,45.38a.31.31,0,0,1-.32-.3.32.32,0,0,1,.3-.32.31.31,0,0,1,.32.3.3.3,0,0,1-.3.32m0-.15a.14.14,0,0,0,.15-.16.16.16,0,0,0-.16-.16.17.17,0,0,0-.16.17.16.16,0,0,0,.17.15"/><path class="cls-3" d="M9.78,46.17l.68.48s0,.17.08.18.34.09.47,0,.38-.21-1-1.47l.07-.11,1.07,1a.48.48,0,0,1,0,.73c-.31.28-.83.13-1.32-.8"/><path class="cls-3" d="M65.53,26.71,66.07,29l.49-.12L66,26.6Zm.56-.29,0-.19a.15.15,0,0,0-.17-.11l-.42.1a.15.15,0,0,0-.11.17l.05.19.11.1.52-.12Zm.49,3-.07-.11h0a.15.15,0,0,0,.1-.17l0-.15-.5.11,0,.15a.13.13,0,0,0,.16.11h0v.13c0,.09.11.16.19.14a.17.17,0,0,0,.11-.21m0,0,0,.12h0v-.21Zm-.22.05v0l0,.14h0Zm.1.08,0-.13v-.09l.09,0,0,.09v.13l0,.05h0Z"/><path class="cls-1" d="M39.11,44s-.11.25,0,0a.91.91,0,0,1,.28-.4,1.17,1.17,0,0,1,.56-.19l.18,0,0,.11.22.07a.15.15,0,0,0,.13-.06l.23.07.06.1.24.07.08-.06.38.12,0,.1.22.07.08-.07.35.1.06.12.25.07.11-.06.41.12c0,.08.13.17.13.17l.28.08s.16-.1.56,0a4.62,4.62,0,0,1,1.23.48c.14.14.51.72.64.91a.49.49,0,0,0,.33.21l.13,0,.39.12,0,.1a.84.84,0,0,1-.06.36l0,.1a1.21,1.21,0,0,1-.15.33l-.11,0L46,47.15,46,47a.52.52,0,0,0-.39,0,8.59,8.59,0,0,1-1,.41,4.51,4.51,0,0,1-1.29-.28c-.42-.09-.49-.27-.49-.27l-.28-.08-.21.07-.41-.13-.05-.12-.25-.07-.11.06-.35-.1,0-.1-.22-.07-.09.07-.37-.12,0-.09-.24-.07-.11,0-.24-.07a.14.14,0,0,0-.07-.12l-.22-.07-.09.07-.18,0a1.2,1.2,0,0,1-.36-.48.89.89,0,0,1,0-.48c.06-.28,0,0,0,0Z"/><path class="cls-1" d="M47.69,29.92s.11.3.78.44l1.72,3.17s.13.07.44-.07.35-.28.35-.28l-1.25-3.39c.33-.59.16-.87.16-.87s-1.22-2.82-1.45-3.21a.51.51,0,0,0-.61-.26l-1.4.63a.51.51,0,0,0-.2.62c.15.44,1.46,3.22,1.46,3.22"/><path class="cls-1" d="M38.25,39.39c-.21-.22.07-.27.07-.27a2.4,2.4,0,0,0,3.27-1.57c.09-.14.16,0,.16,0-1,2.75-3.33,2-3.5,1.83"/><path class="cls-1" d="M56.19,33.36s.09,0,.05,0a9.2,9.2,0,0,1-3.94,4.06l0,0a16.19,16.19,0,0,0,3.94-4.09"/><path class="cls-1" d="M38.72,44.74a14.21,14.21,0,0,1,1.32-1c.37-.19,1.06-.65,1.09-.87s-.13-1.14.43-1.47,1.11-.58,1.31-.7l.18-.11h0l.13-.09,0,.16a1.26,1.26,0,0,1,.05.33.35.35,0,0,1-.14.31L43,41.07a.19.19,0,0,0,0-.1v-.1l0,0c-.22.13-.87.46-1.32.7s-.24.93-.31,1.32-.84.8-1.21,1a14.65,14.65,0,0,0-1.28,1h0Z"/><path class="cls-1" d="M40.19,46.29a1.62,1.62,0,0,1,.54-.63c.27-.14.65-.49.63-.67V44.9l.09,0a5,5,0,0,0,.83-.44l1.44-.91h0l.13.21-1.44.9a3.8,3.8,0,0,1-.81.44c-.08.36-.48.63-.75.8a1.46,1.46,0,0,0-.44.52Z"/><path class="cls-1" d="M42.78,34.82a2.23,2.23,0,0,0-.51.06,1.23,1.23,0,0,1-.29,0c-.17,0-.24-.08-.41-.18a8.13,8.13,0,0,1-1.07-.53c-.65-.43-.59-1.18-.76-2.31a22.68,22.68,0,0,1-.13-2.73c0-.38,0-.67,0-.77a.32.32,0,0,0,0-.13h-.06L39.46,28h.09a.29.29,0,0,1,.21.08.41.41,0,0,1,.1.31v.77a22,22,0,0,0,.12,2.7c.16,1.17.15,1.82.65,2.13a8.43,8.43,0,0,0,1.06.53c.21.12.23.15.29.14a.92.92,0,0,0,.24,0,2.65,2.65,0,0,1,.56-.06,1.64,1.64,0,0,1,1.28.51l-.19.16a1.4,1.4,0,0,0-1.09-.43"/><path class="cls-1" d="M45.64,31.16a1.32,1.32,0,0,1,.3-.84,2.8,2.8,0,0,0,.57-1,14.59,14.59,0,0,0,.29-1.72c0-.17,0-.35,0-.54,0-.43,0-.85-.06-1.16v-.14a3.19,3.19,0,0,1,.1-.79l.31,0a2.31,2.31,0,0,0-.17.77v.12c0,.32.06.74.06,1.18a5.15,5.15,0,0,1,0,.56c0,.63-.15,1.52-.19,1.76a9.25,9.25,0,0,1-.72,1.14,1.09,1.09,0,0,0-.25.68.55.55,0,0,0,0,.12h0l-.24,0a1.54,1.54,0,0,1,0-.17"/><path class="cls-1" d="M50.28,32.58c-.19-.55,0-2.47-.3-2.79a.61.61,0,0,1-.09-.35c0-.57.52-1.42.5-1.64s-.42-.46-.83-.84a7.07,7.07,0,0,0-.74-.63l.13-.21a7.17,7.17,0,0,1,.79.67c.33.35.87.51.9,1s-.51,1.18-.51,1.64a.34.34,0,0,0,0,.2c.35.52.15,2.42.33,2.85s.1,1.36.28,1.5l-.18.17c-.31-.35-.15-1.13-.33-1.58m-1.46-6.25Z"/><path class="cls-1" d="M56.82,37.25V37.1a1.56,1.56,0,0,0-.11-.52,22.51,22.51,0,0,0-.67-2.15,2.15,2.15,0,0,1-.24-1c0-.25.23-1.07.29-1.5a8.57,8.57,0,0,0,0-.94c0-.26,0-.46,0-.46h.25v.47a9.75,9.75,0,0,1,0,1c-.06.43-.29,1.3-.28,1.46a1.92,1.92,0,0,0,.2.92A20.23,20.23,0,0,1,57,36.49a1.8,1.8,0,0,1,.12.61v.17Z"/><path class="cls-3" d="M10.37,15l-.84.83A2.53,2.53,0,0,0,7.66,15a2.16,2.16,0,0,0-1.57.62,2.15,2.15,0,0,0,0,3.05,2.19,2.19,0,0,0,1.61.64,2,2,0,0,0,1-.26,1.89,1.89,0,0,0,.69-.82H7.64V17.1h3.18v.26a3.18,3.18,0,0,1-.43,1.58,3,3,0,0,1-1.12,1.13,3.14,3.14,0,0,1-1.6.39A3.49,3.49,0,0,1,5.93,20a3.15,3.15,0,0,1-1.22-1.21,3.41,3.41,0,0,1-.45-1.71,3.19,3.19,0,0,1,.83-2.18,3.29,3.29,0,0,1,2.56-1.1,4,4,0,0,1,1.54.3,3.46,3.46,0,0,1,1.18.89"/><path class="cls-3" d="M11.27,14h1.27a4.11,4.11,0,0,1,1.49.19,1.41,1.41,0,0,1,.72.62,1.85,1.85,0,0,1,.27,1,1.72,1.72,0,0,1-.35,1.1,1.82,1.82,0,0,1-.94.61,5.65,5.65,0,0,1-1.26.1V20.3h-1.2Zm1.2,2.46h.38a2.26,2.26,0,0,0,.63-.06.51.51,0,0,0,.27-.21.61.61,0,0,0,.1-.36.57.57,0,0,0-.28-.54,1.67,1.67,0,0,0-.76-.12h-.34Z"/><polygon class="cls-3" points="16.15 13.99 17.32 13.99 18.78 18.39 20.26 13.99 21.43 13.99 22.49 20.3 21.32 20.3 20.65 16.31 19.31 20.3 18.25 20.3 16.92 16.31 16.23 20.3 15.05 20.3 16.15 13.99"/><polygon class="cls-3" points="23.49 13.99 24.69 13.99 24.69 19.16 26.44 19.16 26.44 20.3 23.49 20.3 23.49 13.99"/><path class="cls-1" d="M83.79,28.53A4.8,4.8,0,0,1,82,29.87a7,7,0,0,1-3.05.59A5.23,5.23,0,0,1,75.13,29a5,5,0,0,1-1.49-3.79V22.54a5.18,5.18,0,0,1,1.43-3.78,4.9,4.9,0,0,1,3.68-1.47,5.13,5.13,0,0,1,3.58,1.14,4,4,0,0,1,1.27,3l0,.05H81.16a2.39,2.39,0,0,0-.65-1.61,2.23,2.23,0,0,0-1.69-.6,2.29,2.29,0,0,0-1.9.91,3.67,3.67,0,0,0-.72,2.34v2.69a3.62,3.62,0,0,0,.74,2.36,2.47,2.47,0,0,0,2,.91,4.73,4.73,0,0,0,1.44-.18,2.1,2.1,0,0,0,.82-.46V25.48H79V23.7h4.83Z"/><path class="cls-1" d="M88.56,28.3h5.7v2H86V17.48h2.56Z"/><path class="cls-1" d="M105.51,25A5.36,5.36,0,0,1,104,28.92a5.12,5.12,0,0,1-3.87,1.54,5.05,5.05,0,0,1-3.84-1.54A5.36,5.36,0,0,1,94.83,25v-2.3a5.41,5.41,0,0,1,1.47-3.89,5.06,5.06,0,0,1,3.84-1.55A5.13,5.13,0,0,1,104,18.84a5.35,5.35,0,0,1,1.5,3.89Zm-2.57-2.31a3.93,3.93,0,0,0-.74-2.46,2.48,2.48,0,0,0-2.06-1,2.41,2.41,0,0,0-2,.95,4,4,0,0,0-.72,2.47V25a4,4,0,0,0,.73,2.48,2.39,2.39,0,0,0,2,1,2.43,2.43,0,0,0,2-1,3.89,3.89,0,0,0,.74-2.48Z"/><path class="cls-1" d="M107.51,30.28V17.48h4.33a6.07,6.07,0,0,1,3.52.88A3,3,0,0,1,116.63,21a2.77,2.77,0,0,1-.47,1.58,2.82,2.82,0,0,1-1.37,1.05,2.76,2.76,0,0,1,1.73,1.06,3.16,3.16,0,0,1,.57,1.87,3.31,3.31,0,0,1-1.21,2.78,5.48,5.48,0,0,1-3.44,1Zm2.57-7.44h1.84a2.6,2.6,0,0,0,1.59-.42,1.44,1.44,0,0,0,.55-1.23,1.52,1.52,0,0,0-.56-1.31,2.72,2.72,0,0,0-1.66-.42h-1.76Zm0,1.78V28.3h2.36a2.44,2.44,0,0,0,1.56-.44,1.62,1.62,0,0,0,.54-1.32,2.06,2.06,0,0,0-.46-1.43,1.89,1.89,0,0,0-1.44-.49Z"/><path class="cls-1" d="M125.93,27.52h-4.5l-.87,2.76H118l4.41-12.8H125l4.39,12.8H126.8Zm-3.86-2h3.22l-1.58-5h0Z"/><path class="cls-1" d="M133.15,28.3h5.7v2h-8.27V17.48h2.57Z"/><path class="cls-1" d="M147.37,25.64v4.64H144.8V17.48h5.1a5,5,0,0,1,3.47,1.12,3.76,3.76,0,0,1,1.27,3,3.72,3.72,0,0,1-1.27,2.95,5.08,5.08,0,0,1-3.47,1.12Zm0-2h2.53a2.14,2.14,0,0,0,1.63-.59,2.06,2.06,0,0,0,.55-1.49,2.15,2.15,0,0,0-.55-1.52,2.09,2.09,0,0,0-1.63-.6h-2.53Z"/><path class="cls-1" d="M161.92,27.52h-4.49l-.87,2.76H154l4.41-12.8H161l4.39,12.8h-2.59Zm-3.86-2h3.22l-1.58-5h0Z"/><path class="cls-1" d="M169.14,25.16v5.12h-2.56V17.48h4.82a5.26,5.26,0,0,1,3.42,1,3.35,3.35,0,0,1,1.24,2.78,2.77,2.77,0,0,1-.52,1.7A3.57,3.57,0,0,1,174,24.11a2.78,2.78,0,0,1,1.63,1.12,3.55,3.55,0,0,1,.5,1.93v.95a4.52,4.52,0,0,0,.14,1.12,1.52,1.52,0,0,0,.5.86v.19h-2.65a1.47,1.47,0,0,1-.45-.94,8,8,0,0,1-.11-1.25v-.91a2,2,0,0,0-.52-1.49,2,2,0,0,0-1.47-.53Zm0-2h2.22a2.45,2.45,0,0,0,1.61-.45,1.72,1.72,0,0,0,.53-1.36A1.86,1.86,0,0,0,173,20a2.16,2.16,0,0,0-1.57-.52h-2.26Z"/><path class="cls-1" d="M187,19.46h-3.62V30.28h-2.56V19.46h-3.61v-2H187Z"/><path class="cls-1" d="M198.82,30.28h-2.56l-5.16-8.75H191v8.74h-2.56V17.48H191l5.17,8.74h0V17.48h2.56Z"/><path class="cls-1" d="M209.09,24.65h-5.3V28.3H210v2h-8.76V17.48H210v2h-6.18v3.21h5.3Z"/><path class="cls-1" d="M214.12,25.16v5.12h-2.56V17.48h4.82a5.31,5.31,0,0,1,3.43,1A3.37,3.37,0,0,1,221,21.26a2.77,2.77,0,0,1-.52,1.7A3.51,3.51,0,0,1,219,24.11a2.78,2.78,0,0,1,1.63,1.12,3.55,3.55,0,0,1,.5,1.93v.95a5,5,0,0,0,.14,1.12,1.58,1.58,0,0,0,.5.86v.19h-2.64a1.42,1.42,0,0,1-.46-.94,8,8,0,0,1-.11-1.25v-.91a2,2,0,0,0-.52-1.49,2,2,0,0,0-1.47-.53Zm0-2h2.22a2.44,2.44,0,0,0,1.61-.45,1.69,1.69,0,0,0,.53-1.36A1.82,1.82,0,0,0,218,20a2.14,2.14,0,0,0-1.57-.52h-2.26Z"/><path class="cls-1" d="M230.37,26.94a1.48,1.48,0,0,0-.53-1.19,5.23,5.23,0,0,0-1.83-.84,10.53,10.53,0,0,1-3.45-1.57,3,3,0,0,1-1.17-2.48,3.06,3.06,0,0,1,1.34-2.57,5.59,5.59,0,0,1,3.42-1,5.15,5.15,0,0,1,3.44,1.13,3.34,3.34,0,0,1,1.28,2.76l0,.05h-2.48a1.84,1.84,0,0,0-.6-1.43,2.33,2.33,0,0,0-1.66-.55,2.47,2.47,0,0,0-1.59.45,1.45,1.45,0,0,0-.57,1.17,1.24,1.24,0,0,0,.61,1.07,8.22,8.22,0,0,0,2.07.88,8,8,0,0,1,3.21,1.56,3.21,3.21,0,0,1,1.09,2.54,3,3,0,0,1-1.29,2.59,5.71,5.71,0,0,1-3.43.95,6.21,6.21,0,0,1-3.64-1.08,3.35,3.35,0,0,1-1.52-3l0-.05h2.5a2,2,0,0,0,.7,1.68,3.15,3.15,0,0,0,1.94.53,2.61,2.61,0,0,0,1.6-.43A1.39,1.39,0,0,0,230.37,26.94Z"/><path class="cls-1" d="M245.22,30.28h-2.56V25h-5.22v5.32h-2.56V17.48h2.56V23h5.22v-5.5h2.56Z"/><path class="cls-1" d="M250.34,30.28h-2.56V17.48h2.56Z"/><path class="cls-1" d="M255.47,25.64v4.64H252.9V17.48H258a5,5,0,0,1,3.47,1.12,3.8,3.8,0,0,1,1.27,3,3.75,3.75,0,0,1-1.27,2.95A5.08,5.08,0,0,1,258,25.64Zm0-2H258a2.15,2.15,0,0,0,1.63-.59,2.11,2.11,0,0,0,.55-1.49,2.15,2.15,0,0,0-.55-1.52,2.11,2.11,0,0,0-1.63-.6h-2.53Z"/><path class="cls-1" d="M84.26,51a5.36,5.36,0,0,1-1.49,3.89,5.15,5.15,0,0,1-3.87,1.54,5.09,5.09,0,0,1-3.85-1.54A5.39,5.39,0,0,1,73.58,51v-2.3a5.41,5.41,0,0,1,1.47-3.89,5.06,5.06,0,0,1,3.84-1.55,5.14,5.14,0,0,1,3.87,1.55,5.35,5.35,0,0,1,1.5,3.89Zm-2.57-2.31a3.88,3.88,0,0,0-.75-2.46,2.44,2.44,0,0,0-2-1,2.4,2.4,0,0,0-2,1,4,4,0,0,0-.72,2.47V51a4,4,0,0,0,.73,2.48,2.39,2.39,0,0,0,2,1,2.44,2.44,0,0,0,2-1A4,4,0,0,0,81.69,51Z"/><path class="cls-1" d="M96.61,56.28H94.05l-5.17-8.75h0v8.74H86.26V43.48h2.57L94,52.22h0V43.48h2.56Z"/><path class="cls-1" d="M106.84,43.48l3.26,9.43h.05l3.29-9.43h3.35v12.8h-2.56V52.46l.24-5.65h0L111,56.28h-1.72l-3.41-9.44h0l.24,5.61v3.82h-2.56V43.48Z"/><path class="cls-1" d="M126.06,53.52h-4.49l-.87,2.76h-2.6l4.41-12.8h2.63l4.38,12.8h-2.59Zm-3.86-2h3.22l-1.58-5h0Z"/><path class="cls-1" d="M133.28,51.16v5.12h-2.56V43.48h4.82a5.26,5.26,0,0,1,3.42,1,3.35,3.35,0,0,1,1.24,2.78,2.77,2.77,0,0,1-.52,1.7,3.51,3.51,0,0,1-1.52,1.15,2.78,2.78,0,0,1,1.63,1.12,3.55,3.55,0,0,1,.5,1.93v1a5,5,0,0,0,.14,1.12,1.52,1.52,0,0,0,.5.86v.19h-2.65a1.47,1.47,0,0,1-.45-.94,8,8,0,0,1-.11-1.25v-.91a2,2,0,0,0-.52-1.49,2,2,0,0,0-1.47-.53Zm0-2h2.22a2.45,2.45,0,0,0,1.61-.45,1.72,1.72,0,0,0,.53-1.36,1.86,1.86,0,0,0-.53-1.39,2.16,2.16,0,0,0-1.57-.52h-2.26Z"/><path class="cls-1" d="M145.34,56.28h-2.57V43.48h2.57Z"/><path class="cls-1" d="M158.24,56.28h-2.55l-5.17-8.75h-.06v8.74H147.9V43.48h2.56l5.17,8.74h.06V43.48h2.55Z"/><path class="cls-1" d="M168.51,50.65h-5.3V54.3h6.2v2h-8.77V43.48h8.75v2h-6.18v3.21h5.3Z"/><path class="cls-1" d="M178,54.3h5.69v2h-8.26V43.48H178Z"/><path class="cls-1" d="M187.92,56.28h-2.56V43.48h2.56Z"/><path class="cls-1" d="M199.32,45.46H195.7V56.28h-2.56V45.46h-3.61v-2h9.79Z"/><path class="cls-1" d="M209.76,45.46h-3.62V56.28h-2.56V45.46H200v-2h9.79Z"/><path class="cls-1" d="M219.06,50.65h-5.3V54.3H220v2H211.2V43.48h8.74v2h-6.18v3.21h5.3Z"/><path class="cls-1" d="M224.1,51.16v5.12h-2.57V43.48h4.83a5.26,5.26,0,0,1,3.42,1A3.38,3.38,0,0,1,231,47.26a2.84,2.84,0,0,1-.52,1.7A3.57,3.57,0,0,1,229,50.11a2.81,2.81,0,0,1,1.63,1.12,3.55,3.55,0,0,1,.49,1.93v1a4.55,4.55,0,0,0,.15,1.12,1.52,1.52,0,0,0,.5.86v.19H229.1a1.47,1.47,0,0,1-.46-.94,8,8,0,0,1-.1-1.25v-.91a2.08,2.08,0,0,0-.52-1.49,2,2,0,0,0-1.48-.53Zm0-2h2.21a2.47,2.47,0,0,0,1.62-.45,1.72,1.72,0,0,0,.53-1.36,1.86,1.86,0,0,0-.53-1.39,2.16,2.16,0,0,0-1.57-.52H224.1Z"/></svg>