<svg id="Layer_1" data-name="Layer 1" xmlns="http://www.w3.org/2000/svg" viewBox="0 0 270.77 87.43"><defs><style>.cls-1{fill:#106d9b;}.cls-2{fill:#005b70;}.cls-3{fill:#00b490;}.cls-4{fill:#15a180;}</style></defs><path class="cls-1" d="M45.84,50.71a5.66,5.66,0,0,0,.48-.77,2,2,0,0,0,.18-.75h0v0l0,0a3.73,3.73,0,0,1,.38-1s.72-1,.75-1.12.22-.76.43-1.4a3.64,3.64,0,0,1,.78-1.5,1.08,1.08,0,0,0,.51-1c.08-.53.86-1.23,1-1.53a2.3,2.3,0,0,0,.31-.89v-.11s-.06-.06-.16-.19l-.08-.19a.42.42,0,0,1,.26-.33,1.85,1.85,0,0,0,.2-.12c.12-.18.62-.64.69-1s0-.69.3-.91a1.11,1.11,0,0,0,.47-.67A3.73,3.73,0,0,1,52.94,36a1.18,1.18,0,0,0,.18-.54v-.19a4.23,4.23,0,0,1,.42-1.62,4.16,4.16,0,0,0,.59-1.27,6.06,6.06,0,0,1,.2-.88v-.12A3,3,0,0,0,54,30.11l-.44-.63.24-.16s.19.29.43.62a3.18,3.18,0,0,1,.37,1.48v.16a7.9,7.9,0,0,0-.19.84,4,4,0,0,1-.64,1.42,4,4,0,0,0-.37,1.47v0l0,.14a1.42,1.42,0,0,1-.23.69,3.64,3.64,0,0,0-.41,1,5.37,5.37,0,0,1-.68.9c-.11.07-.09.22-.18.73A3.23,3.23,0,0,1,51.17,40a.86.86,0,0,1-.26.19l-.15.1,0,0c.09.11.12.13.17.2a.49.49,0,0,1,0,.27,2.5,2.5,0,0,1-.36,1c-.21.36-1,1.11-1,1.42A1.35,1.35,0,0,1,49,44.37a4,4,0,0,0-.67,1.36c-.21.63-.37,1.25-.42,1.4-.11.31-1,1.87-1.15,2.1a2.12,2.12,0,0,1-.2.84,6.12,6.12,0,0,1-.51.81Z"/><path class="cls-1" d="M47.09,52.27a16.05,16.05,0,0,1,1.54-1.19c.42-.22,1.23-.75,1.27-1s-.14-1.33.5-1.72l1.53-.81.24-.15.16-.09.05.18a1,1,0,0,1,.06.38.4.4,0,0,1-.16.37L52.14,48v-.24l-.07,0c-.25.15-1,.53-1.54.82s-.27,1.08-.36,1.54-1,.93-1.41,1.19a16.43,16.43,0,0,0-1.5,1.16h0Z"/><path class="cls-1" d="M56.11,56.33a16.68,16.68,0,0,1-2.49-.5c-.08,0-.16,0-.21-.19v0s0-.43-.06-.92v-.12a4,4,0,0,0-.73.26,1.68,1.68,0,0,1-.85.18h-.2l0-.29h.18a1.47,1.47,0,0,0,.69-.13,4.44,4.44,0,0,1,.85-.31,1.89,1.89,0,0,0-.25-.77,5,5,0,0,0-2.23-.82h-.07a2.17,2.17,0,0,1-.59.1,1.77,1.77,0,0,1-.59.09,1.55,1.55,0,0,1-.8-.2,6.84,6.84,0,0,1-1-.69l-.07,0,0-.09.21-.91c.1-.43.2-.9.21-1v0l-.08-.08a2,2,0,0,0-.34-.22,1.8,1.8,0,0,0-.72-.27H46.6l-.85-.58a1,1,0,0,1-.63.39l-.11,0V48.9l.11,0a.63.63,0,0,0,.3-.19c.11-.1.2-.2.2-.2l.08-.1,1,.67H47a2.58,2.58,0,0,1,1.24.56.45.45,0,0,1,.2.3c0,.22-.33,1.56-.41,1.91a6.81,6.81,0,0,0,.86.6,1.34,1.34,0,0,0,.66.16,2,2,0,0,0,.52-.07h0a2.17,2.17,0,0,0,.53-.09l.15,0a5.1,5.1,0,0,1,2.44.92,1.8,1.8,0,0,1,.31.87,1.63,1.63,0,0,0,.51-.23,1.9,1.9,0,0,1,.83-.35H55l0,.07a4.9,4.9,0,0,0,1.47,1.13,9.16,9.16,0,0,0,1,.47l0,0,0,0a.78.78,0,0,1,.13.37.31.31,0,0,1-.26.31,6.8,6.8,0,0,0-.79.23h0l-.51.1Zm-2.38-.77a1.54,1.54,0,0,0,.28.09c.24.07.56.13.88.19a8.15,8.15,0,0,0,1.23.12l1.28-.25h0l0-.13,0-.05a7.27,7.27,0,0,1-2.48-1.61l-.13,0a1.82,1.82,0,0,0-.49.24,2.3,2.3,0,0,1-.63.29l0,.18c0,.4,0,.76,0,.89Z"/><path class="cls-1" d="M49,53.92a1.93,1.93,0,0,1,.64-.73c.32-.17.76-.58.74-.79v-.11l.1,0,.23-.09a6.39,6.39,0,0,0,.74-.41c.67-.44,1.68-1.06,1.68-1.06l.15.25s-1,.62-1.67,1a6.37,6.37,0,0,1-1,.51c-.09.41-.55.73-.87.93a1.27,1.27,0,0,0-.37.36l-.15.25Z"/><path class="cls-1" d="M50.71,48.3v0c0-.16-.52-.79-1.13-1.27a7.64,7.64,0,0,0-1.42-1,.75.75,0,0,1-.4-.23,3.64,3.64,0,0,1-.4-.45,6.34,6.34,0,0,1-.57-.79,6,6,0,0,0-.72-.67l-.65-.55a1.39,1.39,0,0,1-.76-.32,1.65,1.65,0,0,0-.87-.21h-.13l0-.29h.15a1.8,1.8,0,0,1,1.06.27,1.21,1.21,0,0,0,.43.23.91.91,0,0,0,.2,0h0l0,0,.69.58a5.92,5.92,0,0,1,.79.76,5.45,5.45,0,0,0,1.06,1.28l.05,0a1,1,0,0,1,.43.19c.18.11.4.26.63.43a10.58,10.58,0,0,1,1.36,1.18,1.36,1.36,0,0,1,.41.74v.08Z"/><path class="cls-1" d="M51.43,54.85a5.24,5.24,0,0,0-.33-1.06,4.25,4.25,0,0,0-.42-.94c-.14-.29-.51-.55-.52-1l0-.22a5.85,5.85,0,0,0,.3-1.43.73.73,0,0,0,0-.21,1,1,0,0,0-.27-.22c-.09-.05-.15-.07-.14-.06a5.85,5.85,0,0,1-1.6-.93,5.16,5.16,0,0,1-1.12-1,2,2,0,0,0-.65-.44,7.64,7.64,0,0,0-.94-.4A4,4,0,0,1,44.61,46c-.38-.39-.7-.75-.7-.76l-.07-.08.06-.09s.64-1,1-1.56a2,2,0,0,1,.3-.37,3.23,3.23,0,0,0,.38-.51,2.22,2.22,0,0,0,.32-.78.9.9,0,0,1,.34-.59,2.63,2.63,0,0,1-.43-.12c-.58-.19-1.94-.71-1.94-.71L44,40.2s1.35.52,1.92.71a2.37,2.37,0,0,0,.7.15h.05l.08.27a1,1,0,0,0-.26.16.6.6,0,0,0-.28.43,3.17,3.17,0,0,1-.83,1.49v0l-.06.07-.15.22c-.13.17-.28.41-.44.64l-.53.81c.12.13.36.4.63.67a3.94,3.94,0,0,0,1,.82,7,7,0,0,1,1,.41,1.9,1.9,0,0,1,.77.57,7.9,7.9,0,0,0,2.56,1.8,1.36,1.36,0,0,1,.62.36,1.89,1.89,0,0,1,.08.41s-.26,1.18-.37,1.52l0,.13c0,.23.29.49.49.86a5,5,0,0,1,.44,1,5.88,5.88,0,0,1,.34,1.15.33.33,0,0,0,.08.26h0l-.16.24a.59.59,0,0,1-.21-.5"/><path class="cls-1" d="M45.44,49.57m-.28-.09s.49-2.14.59-2.48l.18-.1a6.06,6.06,0,0,1,.35-1.52,4.64,4.64,0,0,0,.5-.88,4.21,4.21,0,0,1,.78-1.89,3.43,3.43,0,0,0,.31-.23.34.34,0,0,0,.07-.16A3,3,0,0,1,48.66,41l.24-.19.09-.08.09.08a1.53,1.53,0,0,0,.2.13,3.53,3.53,0,0,0,.7.27,1.55,1.55,0,0,1,.7.4,1.24,1.24,0,0,0,.52.37,3.8,3.8,0,0,1,1.17.9l0,.22a1.26,1.26,0,0,1-.47.18.18.18,0,0,1-.19-.12l.17-.06,0,0V43h0L52,43a3.2,3.2,0,0,0-1-.69,1.78,1.78,0,0,1-.6-.43,1.21,1.21,0,0,0-.57-.33,3.45,3.45,0,0,1-.92-.39l-.15.12a2.83,2.83,0,0,0-.62,1,.6.6,0,0,1-.15.32,3.82,3.82,0,0,1-.34.25,4.4,4.4,0,0,0-.66,1.66c0,.31-.32.6-.54,1A6.32,6.32,0,0,0,46.2,47c-.09.34-.75,2.76-.75,2.78Z"/><path class="cls-1" d="M48.81,41.27,48.68,41l0,0,0-.08-.05-.11a1.44,1.44,0,0,0-.76-.57h0c-.14.06-.38.1-.59.18s-.37.18-.38.25c-.09.34-.13.57-.13.57l-.28,0A3.87,3.87,0,0,0,46,40.13c-.4-.51-.55-1-.91-1.49a2.21,2.21,0,0,0-.47-.44.88.88,0,0,0-.18-.1l.09-.27a2,2,0,0,1,.79.64c.4.5.54,1,.9,1.48a3.27,3.27,0,0,1,.44.74l0-.11a.81.81,0,0,1,.57-.45c.23-.08.48-.14.57-.17l.13,0a1.62,1.62,0,0,1,1,.7.48.48,0,0,1,.09.27.41.41,0,0,1-.24.37Z"/><path class="cls-1" d="M48.17,49.88a2.46,2.46,0,0,1,.49-1.09,3.44,3.44,0,0,0,.42-1c.15-.47.27-.93.29-1a2.86,2.86,0,0,1,.68-.83c.34-.33.71-.66.9-.83l.19.22c-.19.16-.56.49-.88.81a3.69,3.69,0,0,0-.6.68,6.28,6.28,0,0,1-.19,1.09A6.63,6.63,0,0,1,48.84,49a1.25,1.25,0,0,0-.28.52,2.8,2.8,0,0,0-.1.4h0Z"/><path class="cls-1" d="M51.77,40.6a3.09,3.09,0,0,0-.6.06,1.65,1.65,0,0,1-.33.05c-.2,0-.28-.1-.49-.21a9.34,9.34,0,0,1-1.25-.63c-.76-.5-.68-1.37-.88-2.68A25.88,25.88,0,0,1,48.07,34c0-.45,0-.8,0-.93s0-.14,0-.15H48l-.08-.27.11,0a.35.35,0,0,1,.24.1.43.43,0,0,1,.12.35V34a24.7,24.7,0,0,0,.15,3.12c.18,1.37.16,2.13.75,2.49a9.89,9.89,0,0,0,1.24.62c.24.14.26.18.34.17l.27,0a2.89,2.89,0,0,1,.66-.07,2,2,0,0,1,1.5.59l-.22.19a1.63,1.63,0,0,0-1.28-.49"/><path class="cls-1" d="M47.8,40a3.86,3.86,0,0,0,.73-.69,12.76,12.76,0,0,0,1.37-2.2,8.49,8.49,0,0,1,.59-1.6,11.78,11.78,0,0,0,.85-2.6h0a9.16,9.16,0,0,0,.35-1.44v-.05c-.06-.17-.24-.23-.6-.63l-.11,0a1,1,0,0,0-.31.06l-.06-.25a.94.94,0,0,1,.37-.09.44.44,0,0,1,.33.13c.31.37.51.41.65.72l0,.15a7.55,7.55,0,0,1-.35,1.51,11.65,11.65,0,0,1-.87,2.66,8.23,8.23,0,0,0-.57,1.57,13,13,0,0,1-1.41,2.29,4.27,4.27,0,0,1-.8.75Z"/><path class="cls-1" d="M58,34.24A8.56,8.56,0,0,1,56,34c-.78-.27-.81-.81-1.19-1.14a3.63,3.63,0,0,0-1.2-.64A5.5,5.5,0,0,1,52,30.94l0,0a1.39,1.39,0,0,0-.16.28c-.11.23-.22.51-.28.67a1.52,1.52,0,0,1-.94.8,7.22,7.22,0,0,1-2,.17h-.55v-.29h.54a7.67,7.67,0,0,0,1.84-.14c.39-.19.67-.32.79-.64a5,5,0,0,1,.48-1,.38.38,0,0,1,.28-.18.24.24,0,0,1,.21.14A5.7,5.7,0,0,0,53.68,32a3.91,3.91,0,0,1,1.3.7c.48.45.45.86,1.1,1.07a7.84,7.84,0,0,0,2,.24h.43a5.7,5.7,0,0,0,1.3-.15,3.16,3.16,0,0,0,.8-.34.91.91,0,0,0,.38-.33c.07-.29.6-1.18.68-1.53s.19-.72.52-.87h0a.69.69,0,0,1-.12-.43v-.38h.29v.38c0,.24.1.32.14.34h0l.33.13-.33.14-.24.09c-.16.05-.18.35-.27.73,0,0-.72,1.28-.76,1.47s-.26.35-.51.51a3.4,3.4,0,0,1-.88.36,5.3,5.3,0,0,1-1.37.17l-.45,0"/><path class="cls-1" d="M49.5,43.34a1.1,1.1,0,0,1-.59-.17c-.11-.08,0-.05-.11-.06a.89.89,0,0,1-.41-.19,5.16,5.16,0,0,1-.51-.38,4.71,4.71,0,0,1-.81-.78,1,1,0,0,0-.32-.28,1.42,1.42,0,0,0-.21-.11l.1-.27a1.59,1.59,0,0,1,.67.51,6,6,0,0,0,1.48,1.2h0a.36.36,0,0,1,.28.12s.12.08.45.11c.64.07,1.21.67,1.57.65l.17-.05a2.6,2.6,0,0,0,.46-.9c.17-.44.3-.9.38-1.09a1.57,1.57,0,0,1,1-.8.57.57,0,0,0,.32-.24.71.71,0,0,0,.09-.17s0-.17,0-.35a2,2,0,0,0-.14-.77c-.22-.48-.46-.49-.79-.82s-.43-.19-.9-.35a1.6,1.6,0,0,1-1.09-.73,1.34,1.34,0,0,0-.35-.41l-.19-.1.1-.27a1.51,1.51,0,0,1,.7.64c.21.38.48.45.92.6s.68.09,1,.42.58.33.84.9a2.18,2.18,0,0,1,.17.89,2.77,2.77,0,0,1,0,.41h0a.9.9,0,0,1-.61.61,1.23,1.23,0,0,0-.81.63c-.07.15-.22.63-.39,1.08a2.23,2.23,0,0,1-.58,1,.6.6,0,0,1-.31.08c-.57,0-1.1-.62-1.6-.64"/><path class="cls-1" d="M53.61,40a1.22,1.22,0,0,1,.73-.77l.28-.18c.5-.15.35.06.84-.37s.67-.58.82-.7a12.54,12.54,0,0,0-.77-1.17l-.71-.38a9.45,9.45,0,0,0-1.5-.47h0a1.9,1.9,0,0,0-1,.66c-.26.3-.75.3-1.22.31h-.62l-.25,0a.72.72,0,0,1-.35.11l-.53.05c-.38,0-.81,0-1,.06h-.09a5.54,5.54,0,0,1-1.76-.59l-.15,0a2.17,2.17,0,0,0-.87.32,4.1,4.1,0,0,0-.49.33l-.18-.23a3.5,3.5,0,0,1,1.54-.71.63.63,0,0,1,.27.06,5.55,5.55,0,0,0,1.64.57h.06l1-.06a3.1,3.1,0,0,0,.78-.09h0c.14-.1.25-.07.43-.09h.62c.45,0,.91-.06,1-.19a2.12,2.12,0,0,1,1.14-.77h.08a11.71,11.71,0,0,1,1.86.49,1.31,1.31,0,0,1,.7.39,13.22,13.22,0,0,1,.73,1.41l0,.1-.09.07s-.43.34-.9.76a1.72,1.72,0,0,1-1,.56,1.3,1.3,0,0,0-.54.4,2.05,2.05,0,0,0-.24.31Z"/><path class="cls-1" d="M55.2,36.23a1.62,1.62,0,0,1,.35-1A3.06,3.06,0,0,0,56.22,34a17.48,17.48,0,0,0,.34-2c0-.21,0-.42,0-.63,0-.5,0-1-.07-1.36v-.16a3,3,0,0,1,.21-1L57,29a2.74,2.74,0,0,0-.19.9V30c0,.38.06.88.06,1.39,0,.22,0,.43,0,.65a17.91,17.91,0,0,1-.33,2,3.51,3.51,0,0,1-.73,1.36,1.26,1.26,0,0,0-.29.8.66.66,0,0,0,0,.14l-.28.06a1,1,0,0,1,0-.2"/><path class="cls-1" d="M53,51.08c0-.28-.85-2.14-1.23-3.29,0,0-.57-1.5-.82-2.34a2.5,2.5,0,0,1-.1-.69,2.9,2.9,0,0,1,.17-1h0l.26.11a2.33,2.33,0,0,0-.15.84,2.23,2.23,0,0,0,.08.61c.23.78.52,1.08.91,2.24s1.1,3,1.16,3.43A9.77,9.77,0,0,0,55,53.63l-.18.23A9.66,9.66,0,0,1,53,51.08"/><path class="cls-1" d="M61.89,44.44s-.5-.43-.84-.77h0l-.09,0,0,0a1,1,0,0,1-.62.22h-.2v-.13a7.52,7.52,0,0,1,.11-1.33c-.17-.26-.43-.44-.56-.65,0,0-.11-.38-.14-.46l.25-.09h0v0l0,.07.15.23c.08.14.2.31.31.48.13-.58.28-1,.32-1.16a8.15,8.15,0,0,1,.51-1.26l0-.06h.07l1.15-.22c.62-.12.83-.75.93-1.25s.69-1.9.91-2.47a2.74,2.74,0,0,0,.11-.34h0A1.93,1.93,0,0,1,64,35.1a1,1,0,0,1-.38-.89,1.69,1.69,0,0,1,.09-.56l0-.11a12.07,12.07,0,0,0-.64-1.86,1.21,1.21,0,0,0-.64-.75h0l-.06-.28h.07a1.35,1.35,0,0,1,.92,1,9.49,9.49,0,0,1,.64,1.93l0,.2a1.45,1.45,0,0,0-.08.47.75.75,0,0,0,.25.65l.23.13a.31.31,0,0,1,.16.24,1.8,1.8,0,0,1-.13.45,25,25,0,0,0-.76,2.47s-.47,1.26-1.29,1.43l-1.08.21a7.09,7.09,0,0,0-.46,1.12c0,.09-.06.21-.1.36l.13.06a2.33,2.33,0,0,0,.37.13c.67.18,1.17.25,1.5.32a4.52,4.52,0,0,1,.47.11.39.39,0,0,1,.34.35l0,.13a2.52,2.52,0,0,1-.47.88c-.2.19-1,1.17-1,1.17l-.1.11Zm-.37-.72.45.4c.21-.26.74-.9.92-1.08a2.24,2.24,0,0,0,.4-.77v-.05l-.13-.06c-.12,0-.29-.06-.44-.1-.32-.07-.83-.14-1.52-.32l-.39-.13v.12c0,.37.33,1.25.38,1.62v0l.36.35m-1.15-.11a.57.57,0,0,0,.33-.14l.1-.08a.34.34,0,0,1-.08-.17l-.29-.44a6.88,6.88,0,0,0-.06.83m.31-1c0-.17-.1-.35-.14-.52,0,.08,0,.16,0,.24l.18.28"/><path class="cls-1" d="M60.1,38.85c-.39-.2-1.06,0-1.43-.21a5.78,5.78,0,0,0-1.47-.55l-.71,0h0l0-.28h0a1.43,1.43,0,0,0,.47-.11l.19,0a4.88,4.88,0,0,1,1.63.61,13.86,13.86,0,0,1,1.45.28h0c.11,0,.41-.25.67-.62s.51-.83.68-1.12A3.23,3.23,0,0,0,62,35.54h0a4.36,4.36,0,0,1,.1-1.22A22.73,22.73,0,0,1,62.9,32a15.88,15.88,0,0,0,.64-1.49l.27.1a16.08,16.08,0,0,1-.66,1.53,12.33,12.33,0,0,0-.7,2.19,11.84,11.84,0,0,0-.21,1.19A3.42,3.42,0,0,1,61.86,37a12.29,12.29,0,0,1-.7,1.15c-.28.39-.55.72-.9.75Zm2.09-3.41-.06,0Z"/><path class="cls-1" d="M60.88,38.88a3.8,3.8,0,0,0-.15-1,7.72,7.72,0,0,1-.13-1.72,4.07,4.07,0,0,0-.2-1.54.65.65,0,0,1-.12-.4,3.26,3.26,0,0,1,.31-1.11,3.65,3.65,0,0,0,.28-.81c0-.29-.49-.53-1-1a7.26,7.26,0,0,0-.87-.74l.16-.24a8.1,8.1,0,0,1,.92.78c.39.41,1,.6,1,1.18a3.3,3.3,0,0,1-.31.92,2.82,2.82,0,0,0-.28,1,.35.35,0,0,0,.06.23,4,4,0,0,1,.26,1.7A6.92,6.92,0,0,0,61,37.81a4.1,4.1,0,0,1,.15,1,1.42,1.42,0,0,0,.17.7l-.2.2a1.45,1.45,0,0,1-.25-.88"/><path class="cls-1" d="M58.58,38.49h0l.27-.11a5.11,5.11,0,0,0,.45.82,5.9,5.9,0,0,0,1.51,1.56l-.16.24a6.32,6.32,0,0,1-2.07-2.51"/><path class="cls-1" d="M59.5,41.33a4.48,4.48,0,0,1-.43-1.45.47.47,0,0,1,.21-.45l.14.25s-.06.06-.06.2a2.56,2.56,0,0,0,.2.83c.06.17.12.31.16.4l.13-.09a2.15,2.15,0,0,1,.43-.44h0l.17.22a1.69,1.69,0,0,0-.35.36.57.57,0,0,1-.47.24h-.09Z"/><path class="cls-1" d="M63.39,42.18l.48-.16a1.2,1.2,0,0,0,.5-.29l.26.1a1.12,1.12,0,0,1-.66.46c-.26.1-.51.16-.51.17Z"/><path class="cls-1" d="M63.31,45.57l-.09,0,0-.1.08-.36V45A14.87,14.87,0,0,0,63,43l.28-.07a13.65,13.65,0,0,1,.37,2v.13c0,.12,0,.2-.05.25l.25.11a2.59,2.59,0,0,0,.8.15,1.71,1.71,0,0,0,.49-.07,6.67,6.67,0,0,0,.06-.83,19.61,19.61,0,0,1,.38-2.24,1.63,1.63,0,0,0-.12-.24c0-.11-.57-.32-.9-.43a.67.67,0,0,1-.27-.16l0-.16c0-.25.19-.34.2-.52a13.65,13.65,0,0,0,.31-1.81.84.84,0,0,0,0-.19,14.48,14.48,0,0,0-.76-1.6,2.44,2.44,0,0,0-1-.5c-.5-.16-1-.27-1-.27l.06-.28s.49.11,1,.28,1,.34,1.2.66A14.27,14.27,0,0,1,65,38.91a1,1,0,0,1,0,.25A15.56,15.56,0,0,1,64.68,41a.88.88,0,0,1-.14.35l-.07.13h0l.12,0,.36.14a1.28,1.28,0,0,1,.69.43l.14.28,0,0v.05a22.66,22.66,0,0,0-.4,2.23,7.62,7.62,0,0,1-.07,1v.08l-.08,0a2.06,2.06,0,0,1-.67.12,3.1,3.1,0,0,1-1.29-.34"/><path class="cls-1" d="M64.37,35.13a2.48,2.48,0,0,0,.67-.29l.09-.11v-.45a.57.57,0,0,1,.15-.49,4,4,0,0,0,.48-.5c.18-.2.28-.28.28-.29l.19.23a2.51,2.51,0,0,0-.26.25,4.52,4.52,0,0,1-.52.54l0,.06a1,1,0,0,0,0,.2c0,.1,0,.22,0,.33v.13c0,.29-.31.4-.53.51a2.84,2.84,0,0,1-.44.16Z"/><path class="cls-1" d="M65.56,42.39a3,3,0,0,0,.24-.62c.1-.35.25-1.49.32-1.92a3.19,3.19,0,0,0,.06-.51,1.69,1.69,0,0,0,0-.34,1.85,1.85,0,0,1,0-.44c0-.56.07-1.42.13-2a4.51,4.51,0,0,1,1-1.82,5.1,5.1,0,0,1-1.74-.95l.18-.22a4.88,4.88,0,0,0,1.84.94l.25,0-.17.19a8,8,0,0,0-.49.65,3.08,3.08,0,0,0-.55,1.19c-.07.59-.13,1.45-.13,2a1.79,1.79,0,0,0,0,.38,2.17,2.17,0,0,1,0,.4,3.67,3.67,0,0,1-.07.56c-.07.42-.21,1.55-.32,2a4.56,4.56,0,0,1-.27.68Z"/><path class="cls-1" d="M67.76,39.45a.69.69,0,0,0-.28-.09c-.06,0-.1,0-.2.09a.87.87,0,0,1-.49.22,1.37,1.37,0,0,1-.31,0h-1a2.13,2.13,0,0,1-.91-.37h0a8.23,8.23,0,0,1-1,.16.61.61,0,0,1-.64-.4l.27-.07v0l.05.06a.4.4,0,0,0,.31.1c.31,0,.68-.15,1-.15l.2.05a2.05,2.05,0,0,0,.76.32h0a1.57,1.57,0,0,1,.33,0h.92a.68.68,0,0,0,.37-.17.61.61,0,0,1,.37-.15,1,1,0,0,1,.4.11,3.44,3.44,0,0,0,1.05.26h0a.87.87,0,0,0,0-.18A3.62,3.62,0,0,0,68.73,38a21.08,21.08,0,0,1-1-2,2,2,0,0,1-.16-.48c0-.14.06-.29.06-.47a.67.67,0,0,0-.15-.44c-.29-.38-1.28-1-1.6-1.33s-1-1.18-1.28-1.57a5.79,5.79,0,0,0-1-.83A5.35,5.35,0,0,0,62,30c-.42,0-2-.33-2.74-.42a1.47,1.47,0,0,1,0,.32,1,1,0,0,1,0,.33c-.13.39-.18,1.44-.33,1.91a6.15,6.15,0,0,0-.24,1.44,1.56,1.56,0,0,1-.08.51,14.07,14.07,0,0,1,.18,1.5c0,.41.19,2.84.19,2.84l-.28,0s-.2-2.42-.2-2.87-.18-1.49-.18-1.49v0l0,0a1.18,1.18,0,0,0,.08-.44A6.38,6.38,0,0,1,58.67,32c.14-.39.18-1.45.34-1.91a.75.75,0,0,0,0-.24.84.84,0,0,0-.06-.3l-.06-.1-.17-.24h.3c.54,0,2.56.41,3,.45a4.92,4.92,0,0,1,1.74.9,5,5,0,0,1,1,.86c.26.37,1,1.23,1.27,1.55s1.25.89,1.6,1.34a1,1,0,0,1,.22.62,3.46,3.46,0,0,1-.06.47v0l0,.08c0,.07.07.16.11.27l.34.77A12.58,12.58,0,0,0,69,37.81a3.88,3.88,0,0,1,.29,1.45,1.66,1.66,0,0,1,0,.24.26.26,0,0,1-.14.2l-.17,0a4,4,0,0,1-1.17-.28"/><path class="cls-1" d="M65.13,45.54a5.62,5.62,0,0,1,1-.6c.42-.17,1.45-.92,2-1.17.19-.08.25-.15.25-.16h0a.46.46,0,0,1-.06-.21v-.22a1.61,1.61,0,0,0-.12-.6c-.15-.4-.57-2.18-.78-2.51a2.48,2.48,0,0,1-.28-1.23c0-.29.26-1.25.33-1.74a9,9,0,0,0,0-1.1c0-.3,0-.54,0-.54h.29V36a10,10,0,0,1,0,1.14c-.08.51-.34,1.51-.34,1.7a2.26,2.26,0,0,0,.24,1.08,23.37,23.37,0,0,1,.81,2.56,2.2,2.2,0,0,1,.14.7,1.25,1.25,0,0,1,0,.21h0a.78.78,0,0,1,.06.22c0,.18-.15.29-.43.41-.52.23-1.54,1-2,1.18a1.57,1.57,0,0,1-.94.56Z"/><path class="cls-1" d="M68.49,43.66A6,6,0,0,0,69,40.93c0-.76-.06-1.35-.06-1.35l.29,0s.06.61.06,1.38a6.2,6.2,0,0,1-.68,2.87Z"/><path class="cls-1" d="M43.5,42.83a13.57,13.57,0,0,1,2.81-8.44c3.54-4.55,7.36-5.53,9.95-5.53a9,9,0,0,1,3.16.53l-.12.27a7.38,7.38,0,0,0-2.76-.41L56,29.3c-2.52,0-5.94.79-9.44,5.27a13.28,13.28,0,0,0-2.63,8.3l-.13,0c0,6.3,4,12.36,9.93,12.67l0,.29c-6.77-.69-10.2-6.55-10.19-13"/><path class="cls-1" d="M51.78,31.18l.21-.11L52.1,31l.2.2a1.12,1.12,0,0,1-.45.28Z"/><path class="cls-1" d="M50.68,52.21l0,0h0l-.14,0h-.15l0-.28h.19a.63.63,0,0,1,.23,0,.23.23,0,0,1,.18.22v.09Z"/><path class="cls-1" d="M48,43a.91.91,0,0,1-.42-.18l.17-.23.1.06.14.06v-.09h.29v0a.35.35,0,0,1-.07.23L48,43Z"/><path class="cls-1" d="M47.85,37.21a.63.63,0,0,1-.06-.25h.29v0l0,.09c0,.05,0,.09.18.1v.29h0a.47.47,0,0,1-.43-.26"/><path class="cls-1" d="M55.89,37.92c0-.18.16-.31.39-.34l0,.28-.15,0h0l0,.09.06.06-.18.22a.52.52,0,0,1-.22-.37"/><path class="cls-1" d="M57.91,34.15l.27-.1a.72.72,0,0,0,.09.16.3.3,0,0,0,.22.14h.06l0,.28h-.1a.69.69,0,0,1-.58-.48m0,0Z"/><path class="cls-1" d="M59,38.44l.09-.12a.73.73,0,0,1-.26,0s-.09,0-.11-.14.09-.12.09-.14l.06.14h0l0-.13h.23l.18,0,.09.18a.74.74,0,0,1-.22.38Z"/><path class="cls-1" d="M65.59,34.19a.9.9,0,0,1-.25,0l.08-.27h.22v0l.25,0a.28.28,0,0,1-.29.23Z"/><path class="cls-1" d="M44.92,36.89l0-.14.12-.09-.12.09,0,.14-.06,0,0,0a.5.5,0,0,1-.09-.27l.1-.21a.44.44,0,0,1,.26-.07h.08c.26,0,.45.1.47.31a.32.32,0,0,1-.21.28.52.52,0,0,1-.24.05,1.4,1.4,0,0,1-.28,0m.28-.26h.11l0,0a.56.56,0,0,0-.19,0H45v0Z"/><path class="cls-1" d="M51.93,41.5c.22-1.37.78-3.15-.51-4.14-1.07-.82-2.2-.14-2.93.37a6.58,6.58,0,0,1-1,.53,4.93,4.93,0,0,1-.75.14l-.27.05a4.52,4.52,0,1,0,5.42,3.46,1.13,1.13,0,0,1,0-.41M46.48,46c-.24-.27.09-.32.09-.32a2.84,2.84,0,0,0,3.86-1.85c.1-.17.19,0,.19,0-1.18,3.25-3.93,2.39-4.14,2.17m3.35-7.47a.73.73,0,1,1,.87.55.73.73,0,0,1-.87-.55"/><path class="cls-1" d="M55,32.4a.44.44,0,0,1,.48-.35.43.43,0,0,1,.36.48.42.42,0,0,1-.48.35A.43.43,0,0,1,55,32.4m.15,0a.27.27,0,0,0,.23.31.28.28,0,0,0,.32-.23.3.3,0,0,0-.24-.32.28.28,0,0,0-.31.24"/><path class="cls-1" d="M48.49,33.54a.62.62,0,0,1,1.22.19.62.62,0,0,1-1.22-.19m.18,0a.44.44,0,0,0,.36.49.43.43,0,0,0,.49-.36.42.42,0,0,0-.36-.49.43.43,0,0,0-.49.36"/><path class="cls-1" d="M55.48,32.46c-.4-.51-3.72-.29-5.1-.07s-1.22,1.26-1.22,1.26c0,.41.27.82,2,.87s4.76-1.55,4.37-2.06m-5.93,1.23a.23.23,0,0,1-.19-.25.24.24,0,0,1,.26-.19.23.23,0,0,1,.18.26.22.22,0,0,1-.25.18m5.51-.93a.17.17,0,0,1-.14-.2.17.17,0,1,1,.14.2"/><path class="cls-1" d="M48.25,33.8a.39.39,0,0,1,.77.12.39.39,0,1,1-.77-.12m.18,0a.2.2,0,0,0,.17.23.19.19,0,0,0,.23-.17.2.2,0,0,0-.17-.23.2.2,0,0,0-.23.17"/><path class="cls-1" d="M47.3,33.51l-.75.73s-.21-.05-.24.06-.18.4-.05.58.18.52,2-.91l.13.11L46.9,35.17A.59.59,0,0,1,46,35c-.28-.45,0-1.05,1.28-1.45"/><path class="cls-1" d="M43.21,57.24l.33-.27.1.11,0,0,.39-.33v0L44,56.62l.32-.28v-.11l-2-2.41a.13.13,0,0,0-.17,0L42,54l-.73.61-.06,0a.15.15,0,0,0,0,.17l2,2.41Z"/><path class="cls-1" d="M72.16,57.54l.08.54-.19,0,0,0,.1.65,0,0,.19,0,.09.54a.15.15,0,0,0,.13.06l4-.61a.18.18,0,0,0,.09-.21l0-.26c-.06-.43-.18-1.22-.18-1.22V57c0-.17-.16-.17-.16-.17l-4,.6c-.08,0-.11.11-.11.11"/><path class="cls-1" d="M57.88,74.39l.11.35-.12,0,0,0,.13.42,0,0,.12,0,.12.35.09,0L61,74.77a.11.11,0,0,0,0-.15L61,74.45c-.08-.29-.25-.81-.25-.81v-.06a.13.13,0,0,0-.13-.1l-2.65.83Z"/><path class="cls-1" d="M20.76,64.07l.4-.27.09.14,0,0,.49-.31v0l-.09-.14.4-.27v-.13l-2-2.94a.15.15,0,0,0-.2,0l-.19.13-.9.59-.07,0a.17.17,0,0,0-.08.19l2,2.95Z"/><path class="cls-1" d="M27.05,38.66s-.54.45,0,0a2.42,2.42,0,0,1,1.11-.56,3,3,0,0,1,1.51.21l.35.34a.87.87,0,0,0-.05.29l.44.42a.36.36,0,0,0,.35,0l.45.43a.42.42,0,0,0,0,.32l.46.45a.4.4,0,0,0,.25-.05l.72.7a.5.5,0,0,0,0,.29l.41.41a.37.37,0,0,0,.28-.06l.67.65a.82.82,0,0,0,0,.35l.47.45a.55.55,0,0,0,.34,0l.79.77c-.08.18.09.53.09.53l.54.53s.48-.06,1.22.77a11.92,11.92,0,0,1,2.23,2.56,24.48,24.48,0,0,1,.38,2.83,1.26,1.26,0,0,0,.5.9l.33,0,.76.74v.31a2.61,2.61,0,0,1-.56.75l-.18.18a2.78,2.78,0,0,1-.73.58h-.31L39.1,54l-.05-.33a1.23,1.23,0,0,0-.89-.48,22.44,22.44,0,0,1-2.84-.31,11.94,11.94,0,0,1-2.62-2.17c-.84-.72-.8-1.2-.8-1.2L31.36,49s-.35-.16-.53-.09l-.78-.76a.59.59,0,0,0,0-.34l-.47-.46a.82.82,0,0,0-.35,0l-.67-.65a.32.32,0,0,0,.06-.27L28.22,46a.75.75,0,0,0-.3,0l-.72-.7a.34.34,0,0,0,.05-.25l-.46-.45a.43.43,0,0,0-.32,0L26,44.22a.33.33,0,0,0,0-.35l-.43-.43a.7.7,0,0,0-.28.06l-.36-.34a3.06,3.06,0,0,1-.24-1.51,2.39,2.39,0,0,1,.54-1.12c.46-.57,0,0,0,0Z"/><path class="cls-1" d="M54.85,71.62s.07.43,0,0a1.4,1.4,0,0,1,.06-.76,1.78,1.78,0,0,1,.59-.74l.29-.07.13.12.36-.1a.19.19,0,0,0,.12-.18l.37-.1a.28.28,0,0,0,.18.09l.39-.1,0-.15.6-.15a.39.39,0,0,0,.14.11l.35-.09.06-.17.55-.14.19.11.39-.1.09-.19.66-.17c.07.1.31.12.31.12l.45-.12s.12-.27.8-.4A7.53,7.53,0,0,1,64,68.06a14,14,0,0,1,1.62.71.76.76,0,0,0,.63,0l.13-.16.63-.16.16.09a1.43,1.43,0,0,1,.22.54l0,.15a1.57,1.57,0,0,1,.07.57l-.1.16-.63.17-.19-.08a.77.77,0,0,0-.54.32A12.25,12.25,0,0,1,65,71.78a7.42,7.42,0,0,1-2,.7c-.65.21-.89,0-.89,0l-.45.11s-.2.14-.22.26l-.65.17s-.09-.11-.17-.11l-.4.1a.61.61,0,0,0-.1.18l-.56.15a.21.21,0,0,0-.13-.12l-.35.09a.46.46,0,0,0-.06.17l-.61.16-.11-.11-.38.1a.27.27,0,0,0-.12.17l-.37.09a.2.2,0,0,0-.19-.1l-.36.1a.37.37,0,0,0-.06.16l-.3.08a1.82,1.82,0,0,1-.87-.35,1.47,1.47,0,0,1-.42-.64c-.16-.43,0,0,0,0Z"/><path class="cls-1" d="M35.69,56.45h0a.73.73,0,0,1,.29.09.78.78,0,0,1,.22.29V57l-.06,0v.14l.06.07v.14l-.06.06v.16l.05,0v.24l-.06,0V58l.06,0v.23l-.06,0v.16l.06.06v.26l-.07.1v.18s.09.07.08.34a3,3,0,0,1-.05.81c-.06.11-.33.43-.41.54a.33.33,0,0,0-.07.24l0,.06v.25l-.05.06a1,1,0,0,1-.22,0h-.06a.55.55,0,0,1-.22,0l-.06-.05v-.25l.05-.07a.31.31,0,0,0-.07-.23,6.42,6.42,0,0,1-.44-.52,3.46,3.46,0,0,1-.08-.81c0-.27.07-.34.07-.34v-.18l-.08-.11v-.26l0-.05v-.16l-.06-.06v-.22l.06,0V57.9l-.06,0v-.24l0,0v-.15l-.05-.06v-.15l.06-.06V57l-.05,0v-.12a.71.71,0,0,1,.21-.3.57.57,0,0,1,.28-.09c.17,0,0,0,0,0Z"/><path class="cls-1" d="M29.8,29.78s-.08-.12,0,0a.57.57,0,0,1,.1.25.6.6,0,0,1-.07.32l-.08.07H29.7l-.09.09,0,.07-.1.09h-.07l-.1.09v.05l-.17.15-.06,0L29,31v.06l-.15.13h-.08l-.1.1v.07l-.17.15-.12,0-.12.1s0,.11-.19.25a2.8,2.8,0,0,1-.58.44,4.16,4.16,0,0,1-.62,0,.3.3,0,0,0-.2.1v.07l-.17.15h-.07a.4.4,0,0,1-.15-.13l0,0a.63.63,0,0,1-.11-.17v-.06l.17-.16h.07a.28.28,0,0,0,.12-.18,5.12,5.12,0,0,1,.11-.61,2.72,2.72,0,0,1,.51-.53c.17-.17.27-.15.27-.15l.12-.1,0-.12.18-.15h.07l.11-.09v-.07l.15-.14.06,0,.09-.08v-.07l.16-.14.06,0,.1-.1v-.06l.1-.09h.08l.09-.09v-.06l.07-.07a.67.67,0,0,1,.33,0,.52.52,0,0,1,.24.13h0Z"/><path class="cls-1" d="M25.13,63.49h0a.42.42,0,0,1-.2-.07.5.5,0,0,1-.15-.22v-.08l0,0V63l0-.05v-.1l0,0v-.11l0,0v-.17l0,0v-.1l0,0v-.16l0,0V62l0,0v-.19l.05-.08v-.13s-.06,0,0-.24a2.09,2.09,0,0,1,.05-.58,3.45,3.45,0,0,1,.31-.38.21.21,0,0,0,.05-.17l0-.05V60l0,0h.2a.41.41,0,0,1,.16,0l0,0v.18l0,0a.18.18,0,0,0,.05.16,4.41,4.41,0,0,1,.29.4,1.86,1.86,0,0,1,0,.58c0,.19-.05.24-.05.24v.13l.05.08V62l-.05,0v.12l0,0v.16l0,0v.1l0,0v.18l0,0v.11l0,0V63l0,0v.11l0,0v.08a.57.57,0,0,1-.16.21.42.42,0,0,1-.2.07h-.45Z"/><path class="cls-1" d="M42.92,30.83s.11.11,0,0a.49.49,0,0,1-.14-.24.7.7,0,0,1,0-.33l.07-.08H43l.09-.1V30l.09-.1h.08l.09-.1v-.06l.15-.16h.06l.09-.1,0-.06.14-.15h.08l.09-.11v-.08l.16-.17.11,0,.12-.12s0-.11.16-.28A2.39,2.39,0,0,1,45,28a4,4,0,0,1,.63-.1.32.32,0,0,0,.19-.12v-.08L46,27.5H46a.57.57,0,0,1,.17.12l0,0a.72.72,0,0,1,.13.16v.07l-.15.17h-.07a.27.27,0,0,0-.1.21,6,6,0,0,1,0,.62,2.72,2.72,0,0,1-.46.6c-.15.19-.25.18-.25.18l-.12.13v.11l-.16.18h-.08l-.1.11v.08l-.14.15h-.06l-.09.09,0,.07-.15.16h-.06l-.09.11v.07l-.09.1h-.08l-.08.1v.06l-.07.08a.73.73,0,0,1-.33.06.52.52,0,0,1-.25-.11c-.13-.09,0,0,0,0Z"/><path class="cls-1" d="M63.89,59.54s0,.26,0,0a.83.83,0,0,1,.07-.46,1,1,0,0,1,.38-.42l.18,0,.07.07.22,0,.08-.11.23,0,.1.06.23-.05,0-.09.37-.07.07.08.22,0,0-.09.34-.07.1.08.24,0,.06-.11.4-.08.19.08.27,0s.08-.16.49-.21a3.8,3.8,0,0,1,1.25-.14,7.06,7.06,0,0,1,1,.48.51.51,0,0,0,.38,0l.08-.09.38-.08.09.06a.87.87,0,0,1,.12.33l0,.09a1.14,1.14,0,0,1,0,.35L71.5,59l-.38.08L71,59a.48.48,0,0,0-.34.17A8,8,0,0,1,70,60a4.18,4.18,0,0,1-1.21.34c-.4.11-.54,0-.54,0l-.27,0-.14.15-.4.07-.1-.07-.24.05L67,60.7l-.34.06-.07-.07-.21,0,0,.1L66,60.9l-.06-.07-.24.05L65.6,61l-.22.05L65.27,61,65,61l0,.1-.18,0a1.17,1.17,0,0,1-.51-.24,1,1,0,0,1-.23-.4c-.07-.27,0,0,0,0Z"/><path class="cls-1" d="M20.4,59.2s.28,0,0,0a1,1,0,0,1-.49-.08,1.2,1.2,0,0,1-.44-.43l0-.19.08-.08,0-.24a.13.13,0,0,0-.11-.09l0-.24.07-.11-.05-.26-.09,0-.07-.4.09-.09,0-.22-.1,0-.07-.37.09-.11,0-.26L19,55.87l-.07-.44.09-.19-.05-.3s-.17-.1-.21-.54A4.94,4.94,0,0,1,18.63,53a11.14,11.14,0,0,1,.55-1,.48.48,0,0,0,.05-.41l-.1-.09-.07-.42.08-.1a1.06,1.06,0,0,1,.35-.11h.1a1,1,0,0,1,.38,0l.1.08.07.41-.06.12a.5.5,0,0,0,.17.37,10.88,10.88,0,0,1,.85.77A4.75,4.75,0,0,1,21.43,54c.1.44,0,.58,0,.58l0,.3s.08.14.16.16l.07.43-.08.11,0,.26.11.07.06.37-.08.08,0,.23.11.05.06.4-.07.07,0,.25.1.09,0,.24s-.08,0-.08.12L22,58l.11,0,0,.19a1.19,1.19,0,0,1-.28.55.94.94,0,0,1-.44.23c-.28.08,0,0,0,0Z"/><path class="cls-1" d="M47.89,57.55,46,61.76a2.21,2.21,0,0,0,1.16,1.38,1.53,1.53,0,0,0,1.4.28l2.94-3.55a7.48,7.48,0,0,0-3.58-2.32"/><path class="cls-1" d="M46.62,71.49l-2.08-3.62a2,2,0,0,0-1.63.12c-.85.34-.94.88-.94.88l1.05,4a6.78,6.78,0,0,0,3.6-1.41"/><path class="cls-1" d="M43.63,27.88l4.26-1.8A2.23,2.23,0,0,0,48,24.27c-.26-1-.84-1.14-.84-1.14l-4.56.6a7.48,7.48,0,0,0,1.06,4.15"/><path class="cls-1" d="M23.25,52l1.5-3.21a1.68,1.68,0,0,0-.88-1.07,1.16,1.16,0,0,0-1.07-.22l-2.28,2.7A5.75,5.75,0,0,0,23.25,52"/><path class="cls-1" d="M29.26,65.23l.56,2.53a1.25,1.25,0,0,0,1,.23.84.84,0,0,0,.71-.35l.13-2.58a4.17,4.17,0,0,0-2.39.17"/><path class="cls-1" d="M38.3,36.87l-1.07-2.31a1.21,1.21,0,0,0-1,0c-.53.16-.61.48-.61.48l.42,2.5a4.18,4.18,0,0,0,2.25-.66"/><path class="cls-1" d="M39.66,56.52l-.06-.11.09-.06-.58-1.08-.22.12L38.16,54l-2,1.1.71,1.32-.18.09.61,1.13.14-.07.07.09s-1.85,1.68,2.33,9.79c0,0,.37.75,1.05.49s5.55-3,5.55-3,.55-.32.36-.81-2.26-4.5-2.26-4.5a5.46,5.46,0,0,0-4.83-3.17m3.6,3.67c.13.26.42,1.17-.74,1s-2.28-2-2.28-2c-.17-.27-.41-1.54,1-1a3.39,3.39,0,0,1,2,2.11"/><path class="cls-1" d="M57,66l0,0,0,0,.35-.31-.06-.07.45-.38-.58-.68-.44.37-.05-.06-.38.32,0,0,0,0s-.78-.56-3.48,1.67c0,0-.25.2-.1.43s1.57,1.85,1.57,1.85.17.18.34.06,1.5-1.21,1.5-1.21A2.1,2.1,0,0,0,57,66m-1.09,1.65c-.08.07-.4.25-.42-.2a1.82,1.82,0,0,1,.58-1c.09-.09.54-.28.47.28a1.32,1.32,0,0,1-.63.94"/><path class="cls-1" d="M30.12,70.15l-.06,0,0,0-.48-.19,0,.1-.6-.24-.37.9.59.24,0,.08.5.2,0-.06h0s-.14,1,3.4,2.54c0,0,.32.14.47-.12s1-2.47,1-2.47.08-.25-.11-.36-1.94-.84-1.94-.84a2.3,2.3,0,0,0-2.42.27m2.16.22c.1,0,.44.27,0,.51a2,2,0,0,1-1.29,0c-.12,0-.54-.39,0-.6a1.47,1.47,0,0,1,1.24.13"/><path class="cls-1" d="M73.46,62.28v0l0,0-.14.33.07,0-.16.4.61.25.16-.39.05,0,.14-.33,0,0v0s.7.1,1.71-2.28c0,0,.1-.21-.08-.31s-1.65-.67-1.65-.67-.17-.06-.24.07-.57,1.3-.57,1.3a1.54,1.54,0,0,0,.18,1.62m.15-1.44c0-.08.18-.31.34,0a1.39,1.39,0,0,1,0,.87c0,.08-.26.37-.4,0a.94.94,0,0,1,.09-.82"/><path class="cls-1" d="M53.16,71.74v0l.05,0-.14-.52-.11,0-.17-.65-1,.26.16.63-.08,0L52,72h.06l0,0s-1,.52,0,4.4c0,0,.08.36.39.32s2.67-.7,2.67-.7.27-.09.24-.31-.5-2.15-.5-2.15a2.41,2.41,0,0,0-1.74-1.84m1.16,1.93c0,.13.06.54-.41.33a2.07,2.07,0,0,1-.77-1.09c0-.13,0-.7.52-.35a1.49,1.49,0,0,1,.66,1.11"/><path class="cls-1" d="M40.39,31.6l0,.08-.07,0,.22.77.16,0,.28,1L42.47,33,42.2,32l.13,0-.23-.81-.1,0,0-.07s1.41-.82-.14-6.57c0,0-.13-.53-.6-.46s-4,1.14-4,1.14-.39.13-.34.47.82,3.18.82,3.18a3.55,3.55,0,0,0,2.64,2.69M38.6,28.76c0-.18-.1-.8.61-.51a3.08,3.08,0,0,1,1.17,1.61c.08.2.06,1-.76.53a2.26,2.26,0,0,1-1-1.63"/><path class="cls-1" d="M17.64,57.76v0h0l-.13-.22,0,0-.16-.26-.4.23.15.26,0,0,.12.22h0s-.35.35.54,2c0,0,.08.15.21.09s1.1-.64,1.1-.64.11-.06.06-.16-.48-.89-.48-.89a1.1,1.1,0,0,0-1-.6m.75.71c0,.05.09.23-.15.2s-.47-.39-.47-.39-.09-.31.19-.22a.73.73,0,0,1,.43.41"/><path class="cls-1" d="M33.8,40.76v0h0l.07.24,0,0,.1.29.44-.13-.09-.29h0l-.08-.25h0v0s.42-.26-.1-2c0,0,0-.16-.19-.14s-1.21.38-1.21.38-.11,0-.09.15S33,40,33,40a1.1,1.1,0,0,0,.84.8m-.57-.85c0-.06,0-.25.18-.16s.37.48.37.48,0,.32-.23.17a.65.65,0,0,1-.32-.49"/><path class="cls-1" d="M17.35,45s-.27.5.34,1.53l-2,6s.09.25.64.47.78.11.78.11L20,47.43c1.16-.29,1.32-.83,1.32-.83s2.14-5,2.36-5.75a.9.9,0,0,0-.39-1.09l-2.5-1a.88.88,0,0,0-1,.49C19.32,40,17.35,45,17.35,45"/><path class="cls-1" d="M52.36,26.17s.29.07.74-.39l3.4.21s.12-.07.16-.39,0-.42,0-.42l-3.33-.69c-.31-.57-.61-.57-.61-.57s-2.87-.44-3.3-.45a.47.47,0,0,0-.51.35l-.2,1.43a.48.48,0,0,0,.4.48c.42.09,3.3.44,3.3.44"/><path class="cls-1" d="M69.25,68.62s.09-.07.08-.29l.84-.84a.23.23,0,0,0-.07-.13c-.07-.08-.12-.08-.12-.08L69,68c-.22,0-.29,0-.29,0s-.78.66-.88.76a.17.17,0,0,0,0,.22l.33.38a.18.18,0,0,0,.22,0c.12-.09.87-.76.87-.76"/><path class="cls-1" d="M26.3,38s.14-.09.11-.43l1.28-1.28s0-.07-.1-.2-.19-.13-.19-.13L26,37c-.33-.08-.44,0-.44,0s-1.18,1-1.34,1.15a.25.25,0,0,0,0,.33l.51.58a.24.24,0,0,0,.32,0C25.15,39,26.3,38,26.3,38"/><path class="cls-1" d="M24.09,56.17a1.1,1.1,0,0,0,.07,1.25,1.09,1.09,0,0,0,1.22.36.38.38,0,0,1,.26.12.48.48,0,0,1,.05.3,1.08,1.08,0,0,0,.07,1.25,1.11,1.11,0,0,0,1.22.37.46.46,0,0,1,.24.09l.43-.34c0-.11,0-.26.09-.34A4,4,0,0,1,28,58.8l.12-.13h0l0,0,0,0h0l.15-.09.49-.17c.09,0,.26-.07.35,0l.43-.34a.44.44,0,0,1,0-.26,1.1,1.1,0,0,0-.07-1.27,1.09,1.09,0,0,0-1.2-.36A.43.43,0,0,1,28,56a.42.42,0,0,1-.05-.28,1.1,1.1,0,0,0-1.26-1.64.43.43,0,0,1-.29-.12.35.35,0,0,1-.05-.27,1.12,1.12,0,0,0-.06-1.27,1.1,1.1,0,0,0-1.2-.37.49.49,0,0,1-.27-.1l-.43.34c.06.11,0,.27-.08.35s-.24.38-.28.43l-.12.13h0l0,0,0,0h0l-.15.09-.48.17c-.1,0-.27.07-.36,0l-.44.34a.4.4,0,0,1,0,.29,1.09,1.09,0,0,0,1.3,1.6.37.37,0,0,1,.25.12.45.45,0,0,1,.06.31m3.11,3.34a.93.93,0,1,1,.16-1.31.93.93,0,0,1-.16,1.31m-1.13-1.95c-.08-.11,0-.28.06-.37l.29-.43.12-.12h0l0,0,0,0h0l.15-.1.49-.17c.1,0,.29-.07.37,0h0c.08.1,0,.27-.07.36s-.24.38-.28.43l-.12.13h0l0,0,0,0h0l-.15.09-.48.17c-.1,0-.29.08-.37,0h0Zm-1.6-2c-.08-.1,0-.28.07-.36s.24-.38.27-.44l.13-.12h0l0,0,0,0h0l.15-.09.49-.17c.09,0,.29-.08.37,0h0c.07.09,0,.27-.07.36s-.24.38-.28.43l-.12.12h0l0,0,0,0h0l-.15.09-.48.17c-.1,0-.29.07-.37,0h0Zm.16-1.33,0,0,0,0,.15-.09a.36.36,0,0,1,.25,0c.08,0,.15.07.15.1l-.17.09a.71.71,0,0,0-.21.13h0a.59.59,0,0,0-.18.17l-.12.14s-.06-.09-.06-.17a.31.31,0,0,1,.05-.24Zm.65,1.5.17-.09a.57.57,0,0,0,.2-.13h0a.8.8,0,0,0,.19-.16l.12-.15s.05.09.06.17a.31.31,0,0,1-.05.24l-.12.12,0,0,0,0-.14.09a.36.36,0,0,1-.25,0c-.08,0-.15-.07-.15-.1m.83.65.12-.12,0,0h0l.15-.09a.28.28,0,0,1,.25,0c.07,0,.14.06.15.1l-.17.08a1.05,1.05,0,0,0-.2.14h0a.73.73,0,0,0-.18.16l-.12.14s-.06-.08-.06-.17a.32.32,0,0,1,.05-.24m1.36,1.37,0,0h0l-.14.09a.31.31,0,0,1-.25,0c-.08,0-.15-.07-.15-.1l.17-.08a.73.73,0,0,0,.2-.14h0a1.52,1.52,0,0,0,.18-.17l.11-.15s.06.09.07.18a.32.32,0,0,1-.05.24Zm1,.54-.17.07a1.52,1.52,0,0,0-.21.14h0a1.19,1.19,0,0,0-.19.16l-.12.15s0-.09-.06-.17a.32.32,0,0,1,.05-.24l.12-.12h0l0,0,0,0h0l.15-.09a.33.33,0,0,1,.24,0c.09,0,.16.07.16.11m1-1.65a.93.93,0,1,1-1.47,1.15,1,1,0,0,1,.16-1.31.93.93,0,0,1,1.31.16m-1.59-2a.94.94,0,1,1-1.47,1.16.93.93,0,0,1,.15-1.31,1,1,0,0,1,1.32.15m-2.92-2.19a.94.94,0,1,1-.15,1.32,1,1,0,0,1,.15-1.32m-1.2,1.28c0-.06.09-.06.17-.08a1.05,1.05,0,0,0,.2-.14h0a.83.83,0,0,0,.19-.17l.12-.15a.28.28,0,0,1,.06.18.32.32,0,0,1-.05.24l-.12.12,0,0h0l-.15.1a.36.36,0,0,1-.25,0c-.08,0-.15-.07-.15-.11m-1,1.63a.93.93,0,1,1,1.31.16.93.93,0,0,1-1.31-.16m1.76.73a.93.93,0,1,1-.16,1.31A.93.93,0,0,1,24.45,56"/><path class="cls-1" d="M36,32.4a.69.69,0,0,0,.25.73.65.65,0,0,0,.77,0l.17,0,.08.17a.67.67,0,0,0,.24.73.69.69,0,0,0,.78,0l.16,0,.2-.27v-.22l.1-.3,0-.09h0l0,0v0h0l.08-.08.26-.18.2,0,.21-.27-.06-.15a.69.69,0,0,0-.24-.74.68.68,0,0,0-.77,0l-.19,0-.07-.15a.68.68,0,0,0-.24-.74.66.66,0,0,0-.77,0l-.19,0L37,30.58a.67.67,0,0,0-.24-.74.68.68,0,0,0-.76,0h-.17l-.21.27v.22l-.09.29-.06.1h0l0,0,0,0h0l-.07.07-.26.18-.22.05-.2.28.06.16a.68.68,0,0,0,.25.72.66.66,0,0,0,.78,0l.16,0Zm2.38,1.48a.57.57,0,1,1-.92-.68.57.57,0,0,1,.8-.12.58.58,0,0,1,.12.8m-1-1v-.23l.09-.29.05-.1h0l0,0v0h0l.08-.08.26-.17.22-.05h0l0,.22-.1.3-.06.09h0l0,0v0h0l-.08.07-.26.18-.22.05ZM36.17,32l0-.23.09-.29.06-.1h0v0l0,0h0l.07-.08.26-.17.23-.05h0l0,.22-.1.3-.05.09h0l0,0v0l-.08.07-.25.18-.22,0Zm-.12-.81v0h0l.07-.08.15,0,.11,0-.09.07-.1.11h0l-.08.13,0,.1L36,31.39v-.15Zm.62.78.09-.08.1-.11h0L37,31.6l0-.1.06.09v.15l0,.09h0v0l-.07.07-.15,0Zm.59.26.06-.09v0h0l.07-.08.14,0,.11,0-.09.07-.09.11h0l-.08.12,0,.11-.07-.09Zm1,.59h0l-.07.08-.14,0-.11,0L38,32.8l.1-.11h0l.08-.13,0-.11.07.1v.15Zm.65.16-.09.08-.1.11h0l-.08.13,0,.1-.07-.09v-.15l.06-.09h0l.07-.08.14,0Zm.32-1.12a.57.57,0,1,1-.8.11.57.57,0,0,1,.8-.11M38,30.87a.57.57,0,0,1,.11.8.56.56,0,0,1-.79.11.57.57,0,0,1-.12-.8.57.57,0,0,1,.8-.11M35.91,30a.57.57,0,0,1,.8-.11.56.56,0,0,1,.12.8.57.57,0,0,1-.8.11.56.56,0,0,1-.12-.8m-.5.95.08-.07.1-.12h0l.08-.13,0-.1.06.09,0,.15-.06.09h0v0l-.07.08-.15,0Zm-.33,1.12a.57.57,0,1,1,.68-.91.56.56,0,0,1,.12.8.57.57,0,0,1-.8.11m1.15.15a.57.57,0,0,1,.92.68.57.57,0,1,1-.92-.68"/><path class="cls-1" d="M63.35,62.28a.38.38,0,0,0-.41-.08.36.36,0,0,0-.21.36l-.06.07h-.1a.37.37,0,0,0-.41-.09.38.38,0,0,0-.22.36l0,.07.08.16.1.06.11.13,0,0h0v0h0l0,.06v.16l0,.12.07.16h.08a.37.37,0,0,0,.41.09.36.36,0,0,0,.22-.35l.06-.08h.09a.35.35,0,0,0,.41.08.37.37,0,0,0,.22-.34l.06-.09h.09a.36.36,0,0,0,.63-.25l0-.08-.07-.17-.1,0-.12-.13,0,0h0l0-.06v-.17l0-.11L64.22,62h-.09a.35.35,0,0,0-.4-.08.35.35,0,0,0-.22.35l-.06.07ZM62,63a.31.31,0,0,1,.57-.25.32.32,0,0,1-.17.41A.32.32,0,0,1,62,63m.72-.2.11.06L63,63,63,63h0v.05l0,.17,0,.11h0l-.11,0-.12-.13,0-.05h0v0h0v-.05l0-.17,0-.11h0Zm.78-.33.11,0,.11.13,0,0h0l0,.06v.16l0,.12h0l-.12,0-.11-.12,0-.05h0v0h0v-.22l0-.12Zm.41.16h0l0,0,0,.08,0,0v-.06l0-.07h0l0-.07,0-.05h.06l.07,0Zm-.53.08v.06l0,.08h0l0,.07,0,0h-.06l-.07,0,0,0h0v0l0-.08Zm-.28.21,0,.05h0l0,.06,0,.08,0,0v-.06l0-.07h0l0-.07,0,0h.06Zm-.55.32v0h0v-.06l0-.07,0,0v.06l0,.07h0l0,.07,0,0h-.06l-.07,0Zm-.25.25v-.06l0-.08h0l0-.08,0,0h.06l.07,0,0,0h0l0,0,0,.08Zm.44.45a.3.3,0,0,1-.4-.16.29.29,0,0,1,.16-.4.3.3,0,0,1,.4.16.31.31,0,0,1-.16.4m.78-.33A.31.31,0,0,1,63.3,63a.31.31,0,0,1,.24.57m.94-.74a.31.31,0,0,1-.16.4.3.3,0,0,1-.4-.16.3.3,0,0,1,.56-.24m-.3-.49v.06l0,.08h0l0,.08,0,0h-.06l-.07,0,0,0h0v0l0-.08Zm-.44-.45a.31.31,0,0,1,.41.16.32.32,0,0,1-.16.4.29.29,0,0,1-.4-.16.3.3,0,0,1,.15-.4m-.37.49a.31.31,0,0,1-.57.24.31.31,0,0,1,.17-.4.31.31,0,0,1,.4.16"/><path class="cls-1" d="M49.8,67.51a.88.88,0,0,0-1-.22.87.87,0,0,0-.55.86c0,.07-.08.14-.15.16a.26.26,0,0,1-.24,0,.89.89,0,0,0-1-.23.88.88,0,0,0-.55.86l-.12.16.16.41c.09,0,.19.09.24.14l.27.31.07.12h0v0l0,0h0l0,.13s0,.33,0,.41l-.08.27.16.41.2,0a.89.89,0,0,0,1,.23.88.88,0,0,0,.55-.84.32.32,0,0,1,.15-.19.31.31,0,0,1,.23,0,.86.86,0,0,0,1,.23A.88.88,0,0,0,50.8,70a.37.37,0,0,1,.16-.2.34.34,0,0,1,.22,0,.88.88,0,0,0,1.54-.6.49.49,0,0,1,.13-.18l-.16-.41c-.09,0-.2-.08-.26-.13l-.26-.32-.07-.12h0v0l0,0h0l0-.14s0-.33,0-.4,0-.23.08-.28l-.16-.41a.39.39,0,0,1-.23,0,.87.87,0,0,0-1-.22.88.88,0,0,0-.55.86l-.14.17a.33.33,0,0,1-.25,0m-3.26,1.65a.75.75,0,0,1,.42-1,.74.74,0,1,1-.42,1m1.76-.44c.09,0,.2.08.26.13l.27.32.07.12h0v.06l0,.14a4.1,4.1,0,0,1,0,.41c0,.07,0,.23-.1.27h0c-.1,0-.21-.08-.27-.13l-.26-.31-.07-.13h0l0,0v0h0l0-.14a2.42,2.42,0,0,1,0-.4c0-.08,0-.24.09-.28h0ZM50.21,68c.1,0,.21.07.27.13l.27.31.06.12h0l0,0v0h0l0,.14c0,.05,0,.33,0,.41s0,.24-.1.28h0c-.09,0-.2-.07-.26-.13L50.25,69l-.06-.12h0v-.06h0l0-.13s0-.33,0-.41,0-.24.1-.28Zm1,.42v0l0,.13-.07.19-.11.09,0-.15a.48.48,0,0,0-.06-.18h0a.74.74,0,0,0-.09-.18l-.09-.12.15,0,.18.09Zm-1.3.16,0,.15a.58.58,0,0,0,.06.19h0a.61.61,0,0,0,.08.18l.09.12H50l-.17-.09L49.79,69v0l0-.14.06-.18Zm-.68.49.06.12v0l0,.12-.06.2-.12.09,0-.15a1,1,0,0,0-.06-.19h0a.54.54,0,0,0-.09-.17l-.08-.13H49Zm-1.35.75v0l0-.13.06-.19.12-.09,0,.15a1,1,0,0,0,.06.19h0a.5.5,0,0,0,.09.18l.08.13H48.1l-.17-.09Zm-.63.6,0-.14a.82.82,0,0,0-.06-.19h0a1.05,1.05,0,0,0-.08-.18L47,69.72h.15l.17.09.06.12h0v0h0l0,.13-.06.19Zm1,1.12a.75.75,0,1,1,.41-1,.74.74,0,0,1-.41,1m1.92-.78a.74.74,0,1,1,.41-1,.74.74,0,0,1-.41,1M52.54,69a.75.75,0,1,1-1-.42.76.76,0,0,1,1,.42m-.72-1.21,0,.14a.38.38,0,0,0,.06.19v0h0a.61.61,0,0,0,.08.18l.08.12h-.14l-.18-.09-.06-.12v0l0-.13.07-.19Zm-1-1.13a.75.75,0,0,1,1,.42.74.74,0,1,1-1.38.56.75.75,0,0,1,.41-1m-.94,1.19a.77.77,0,0,1-.42,1,.75.75,0,0,1-.56-1.39.76.76,0,0,1,1,.41"/><path class="cls-1" d="M77.56,57.39l.11-.07-.12-.09a.78.78,0,0,0-.49-.26l-.14-.06-.07.22a.64.64,0,0,0,0,.58v.07l-.1.06.13.07L77,58l0-.13,0-.05a.51.51,0,0,0,.38-.13.59.59,0,0,0,.16-.28"/><path class="cls-1" d="M46.73,57.45c0-.16.18-.36.18-.36a1.36,1.36,0,0,1-.46-.05,2.55,2.55,0,0,0-1.72,0,1.69,1.69,0,0,1-.44.06c.17.11.13.55.12.69a1.87,1.87,0,0,0,.9,1.55c.18.09.14.16.14.16s-.21.32-.21.32a1.63,1.63,0,0,1,.48,0,1.45,1.45,0,0,0,.48,0,1,1,0,0,0-.34-.29l0-.17a1.67,1.67,0,0,0,.83-1,2.06,2.06,0,0,0,0-1"/><path class="cls-1" d="M50.81,72.35c-.14-.25.14-.68.14-.68a2.25,2.25,0,0,1-.79.13,4.47,4.47,0,0,0-2.86.85,3.14,3.14,0,0,1-.73.3c.35.11.48.88.53,1.1a3.33,3.33,0,0,0,2.23,2.2c.33.07.3.2.3.2-.2.15-.21.63-.21.63a3.58,3.58,0,0,1,.8-.24,2.44,2.44,0,0,0,.79-.23,1.48,1.48,0,0,0-.69-.33c-.07,0-.08-.16,0-.3a2.86,2.86,0,0,0,.94-2,3.6,3.6,0,0,0-.43-1.65"/><path class="cls-1" d="M24.55,44c-.15-.07-.16-.37-.16-.37s-.27.25-.34.33A2.6,2.6,0,0,0,23,45.32a1.7,1.7,0,0,1-.25.39c.21-.07.54.25.63.34a1.93,1.93,0,0,0,1.81.28c.18-.08.22,0,.22,0s.12.37.12.37a1.34,1.34,0,0,1,.29-.39,1.44,1.44,0,0,0,.3-.38.8.8,0,0,0-.44.08s-.1,0-.11-.14a1.73,1.73,0,0,0-.23-1.26,2.15,2.15,0,0,0-.78-.63"/><path class="cls-1" d="M40.55,74.14c0,.13-.16.3-.16.3a1,1,0,0,1,.39,0,2.09,2.09,0,0,0,1.43,0,1.49,1.49,0,0,1,.38,0c-.15-.09-.11-.46-.1-.57a1.59,1.59,0,0,0-.76-1.31c-.15-.07-.11-.13-.11-.13s.17-.27.17-.27a1.47,1.47,0,0,1-.4,0,1.29,1.29,0,0,0-.4,0,.71.71,0,0,0,.28.24l0,.14a1.39,1.39,0,0,0-.69.8,1.72,1.72,0,0,0,0,.82"/><path class="cls-1" d="M33.2,57c.3,0,.64.42.64.42a2.35,2.35,0,0,1,.18-.86,4.89,4.89,0,0,0,.23-3.27,3.63,3.63,0,0,1,0-.86c-.24.32-1.08.16-1.33.11A3.61,3.61,0,0,0,29.78,54c-.2.31-.32.23-.32.23-.09-.26-.57-.46-.57-.46a3.51,3.51,0,0,1-.07.92,2.77,2.77,0,0,0-.07.9,1.65,1.65,0,0,0,.61-.58c0-.08.19,0,.31.09a3.16,3.16,0,0,0,1.66,1.74A3.86,3.86,0,0,0,33.2,57"/><path class="cls-1" d="M31.89,29l-.09-.17.06,0v0l-.1-.21h0l-.06,0-.09-.18h-.05l-1.32.69v.08l0,.09.21.4v0l.08,0L31.87,29Z"/><path class="cls-1" d="M36.4,43.1v.12h-.15l0,1,1.95.07,0-1H38v-.12a2.09,2.09,0,0,0,1.31-1.09s.12-3.42.12-3.56-.21-.21-.21-.21l-3.74-.14s-.22.06-.23.2-.13,3.56-.13,3.56A2.09,2.09,0,0,0,36.4,43.1"/><path class="cls-1" d="M62.56,61.33h.11v.13l.85,0-.08-1.68-.85,0v.13H62.5a1.79,1.79,0,0,0-1-1L58.4,59c-.12,0-.17.2-.17.2l.15,3.23s.07.18.19.18l3.07-.15a1.77,1.77,0,0,0,.92-1.14"/><path class="cls-1" d="M71.53,63.23l0,0,.05,0-.3-.33-.64.61.3.32.06-.05,0,.05a.91.91,0,0,0-.06.76L72,65.67h.14l1.23-1.16v-.14L72.3,63.2a.94.94,0,0,0-.77,0"/><path class="cls-1" d="M28.31,48.18l0-.1.13,0-.32-.83-1.64.63.31.83.13,0,0,.1a1.87,1.87,0,0,0-.71,1.37s1.11,2.89,1.15,3,.25.11.25.11L30.78,52s.16-.13.12-.24-1.15-3-1.15-3a1.87,1.87,0,0,0-1.44-.55"/><path class="cls-1" d="M35.61,72.79l-.08.13-.15-.1-.67,1,2,1.32.66-1-.16-.1.09-.13a2.47,2.47,0,0,0,2-.28l2.4-3.6c.09-.14-.08-.36-.08-.36l-3.78-2.52s-.27-.08-.36.06l-2.4,3.6a2.52,2.52,0,0,0,.52,2"/><path class="cls-1" d="M16.54,56.08v.06h-.07v.47h.93v-.48h-.07v-.06a1,1,0,0,0,.6-.54l0-1.71-.11-.1-1.79,0-.1.1,0,1.7a1,1,0,0,0,.61.54"/><path class="cls-1" d="M33.21,27.59l-.08,0,0-.09-.61.27L33,29l.61-.28,0-.09.07,0a1.42,1.42,0,0,0,1.07.48l2.21-1c.09,0,.06-.2.06-.2l-1-2.32s-.11-.12-.2-.08l-2.21,1a1.44,1.44,0,0,0-.35,1.11"/><path class="cls-1" d="M27.39,68.89l.07.07-.09.09.58.58,1.14-1.14-.58-.58-.09.09-.07-.07a1.68,1.68,0,0,0,.09-1.4l-2.08-2.09c-.08-.08-.25,0-.25,0l-2.2,2.18s-.09.17,0,.25S26,69,26,69a1.7,1.7,0,0,0,1.4-.08"/><path class="cls-1" d="M45.8,73.68v-.09h.11l0-.67-1.33,0,0,.67h.11v.08a1.42,1.42,0,0,0-.89.75s-.08,2.34-.09,2.44.15.14.15.14l2.56.1s.15,0,.15-.14.09-2.44.09-2.44a1.39,1.39,0,0,0-.84-.8"/><path class="cls-1" d="M55,63.93l0,0,0,0-.25.17.33.49.25-.17,0,0,0,0a.64.64,0,0,0,.5.13l.91-.62v-.09l-.64-1-.09,0-.91.62a.64.64,0,0,0-.07.51"/><path class="cls-2" d="M66.43,64.09c-2.2.26-3.9,1.22-3.78,2.14s2,1.44,4.18,1.17,3.9-1.23,3.79-2.14-2-1.44-4.19-1.17m-2.6,2.27a.35.35,0,0,1-.48.11.36.36,0,0,1-.11-.49.35.35,0,0,1,.49-.11.35.35,0,0,1,.1.49m5.37-.94a14.22,14.22,0,0,0-4.94.67s-.09,0,0-.07a8,8,0,0,1,4.92-.64Zm1,0a.36.36,0,0,1-.49.11.37.37,0,0,1-.11-.49.36.36,0,1,1,.6.38"/><path class="cls-2" d="M33.42,58.43c-.64-.77-2.66-.16-4.51,1.36s-2.85,3.38-2.22,4.15,2.65.17,4.51-1.35,2.85-3.39,2.22-4.16m-6,5.32a.39.39,0,1,1,.38-.39.39.39,0,0,1-.38.39m.61-.88s-.09,0,0,0a8.6,8.6,0,0,1,4.13-3.44l0,0a15.39,15.39,0,0,0-4.13,3.46m4.63-3.66a.39.39,0,0,1-.38-.39.38.38,0,0,1,.76,0,.37.37,0,0,1-.38.39"/><path class="cls-2" d="M53.17,59.8c-.75-.06-1.37.14-1.4.45s.56.61,1.3.67,1.37-.13,1.4-.44-.56-.61-1.3-.68m-1,.57H52v-.16h.17Zm.16-.06v0a2.7,2.7,0,0,1,1.66.13h0a4.84,4.84,0,0,0-1.68-.12m2,.19h-.17v-.17h.17Z"/><path class="cls-2" d="M25.73,33.18c-.57-.42-1.86.37-2.86,1.76s-1.34,2.86-.76,3.28S24,37.84,25,36.45s1.34-2.86.76-3.27m-3.12,4.76a.27.27,0,0,1-.33-.19.27.27,0,1,1,.33.19m.26-.72,0,0a6.27,6.27,0,0,1,2.22-3.13h0a11.05,11.05,0,0,0-2.21,3.15m2.52-3.38a.27.27,0,0,1-.33-.19.28.28,0,0,1,.19-.34.26.26,0,0,1,.33.2.26.26,0,0,1-.19.33"/><path class="cls-1" d="M33.17,32.24c-.06-.09,0-.14.07-.09s.74.53,1,.75c-.12-1-.09-2.4-1.2-2.85a1.8,1.8,0,0,0-2,.86,4,4,0,0,1-.58.58,8.58,8.58,0,0,1,1,.07c.15,0,.12.1,0,.09a5.42,5.42,0,0,0-1.53.09l-.18.1a3.35,3.35,0,1,0,4.57,1.36,4.07,4.07,0,0,0-1.18-1m-1.85,5c-.24-.15,0-.25,0-.25a2.1,2.1,0,0,0,2.38-2.11c0-.13.13,0,.13,0-.18,2.55-2.31,2.5-2.5,2.39m.86-6a.54.54,0,0,1,.21-.73.54.54,0,0,1,.52.94.54.54,0,0,1-.73-.21"/><path class="cls-1" d="M34.06,63.39c-.08,0-.09,0,0-.07s.65-.27.92-.37c-.71-.34-1.58-.93-2.32-.39a1.35,1.35,0,0,0-.28,1.65,3.87,3.87,0,0,1,.13.61,5.47,5.47,0,0,1,.44-.59c.08-.09.11,0,.08,0a4,4,0,0,0-.57,1v.16A2.55,2.55,0,1,0,35.17,63a3.18,3.18,0,0,0-1.11.36m2.44,3.24c-.18.09-.16-.1-.16-.1A1.6,1.6,0,0,0,36,64.14c-.07-.08,0-.1,0-.1a1.67,1.67,0,0,1,.5,2.59m-3.49-3a.42.42,0,0,1-.39-.44.42.42,0,0,1,.44-.38.41.41,0,0,1,.38.44.4.4,0,0,1-.43.38"/><path class="cls-1" d="M23.47,66.06h0l0,.2c.1-.13.26-.28.19-.46s-.22-.14-.33-.13h-.13l.1.11v0l-.18-.16h0a.52.52,0,0,0-.66.36.53.53,0,1,0,1,.31.68.68,0,0,0,0-.24m-.78.35,0,0a.33.33,0,0,0,.51,0l0,0a.37.37,0,0,1-.56,0m.78-.58.11-.06.06.11-.11.06Z"/><path class="cls-1" d="M60.57,64.62v-.07l.69.16c-.28-.49-.56-1.21-1.23-1.19s-.74.53-.84.88a2.21,2.21,0,0,1-.18.42,4.42,4.42,0,0,1,.51-.17c.09,0,.09,0,0,0a2.7,2.7,0,0,0-.76.38l-.07.09a1.86,1.86,0,1,0,2.63-.3,2.27,2.27,0,0,0-.81-.23m.14,2.94c-.15,0-.06-.13-.06-.13a1.15,1.15,0,0,0,.75-1.58c0-.09.06,0,.06,0a1.22,1.22,0,0,1-.75,1.76m-.87-3.25a.29.29,0,0,1-.05-.42.3.3,0,1,1,.05.42"/><path class="cls-1" d="M23.92,64.69a.34.34,0,0,1-.18.65.33.33,0,0,1-.23-.41.33.33,0,0,1,.41-.24m0,.11a.23.23,0,0,0-.28.16.23.23,0,0,0,.16.27.22.22,0,0,0,.27-.16.21.21,0,0,0-.15-.27"/><path class="cls-1" d="M23.64,59.37a.49.49,0,1,1-.26,1,.49.49,0,0,1-.35-.61.5.5,0,0,1,.61-.34m0,.14a.35.35,0,1,0,.24.43.35.35,0,0,0-.24-.43"/><path class="cls-2" d="M24.38,61c0-1.11-.89-1.1-.89-1.1-.33,0-.68.14-.88,1.48s.78,3.93,1.22,3.67.59-2.94.55-4.05m-1-.79a.18.18,0,0,1,.22-.12.17.17,0,0,1,.12.21.18.18,0,1,1-.34-.09m.31,4.65a.14.14,0,0,1-.1-.17l.17-.1a.14.14,0,0,1,.1.17Z"/><path class="cls-1" d="M23.46,59.15a.32.32,0,0,1,.21.39.32.32,0,0,1-.38.22.31.31,0,0,1-.22-.39.33.33,0,0,1,.39-.22m0,.15a.17.17,0,0,0-.21.11.16.16,0,0,0,.12.2.15.15,0,0,0,.2-.11.17.17,0,0,0-.11-.2"/><path class="cls-1" d="M23.78,58.42l-.51-.66s.06-.16,0-.2-.3-.18-.46-.09-.43.09.53,1.71l-.11.09L22.5,58a.48.48,0,0,1,.25-.69c.38-.17.84.12,1,1.16"/><path class="cls-1" d="M46.44,67.52a.58.58,0,1,1-1.13.25.59.59,0,0,1,.44-.69.57.57,0,0,1,.69.44m-.19,0a.37.37,0,0,0-.45-.29.39.39,0,0,0-.3.46A.4.4,0,0,0,46,68a.38.38,0,0,0,.29-.46"/><path class="cls-1" d="M54.31,62.79a.85.85,0,1,1-1.66.37.85.85,0,0,1,1.66-.37m-.25.06a.6.6,0,0,0-.71-.45.59.59,0,0,0-.45.7.6.6,0,0,0,.71.45.59.59,0,0,0,.45-.7"/><path class="cls-2" d="M53.4,63c-.25-.5-.76-.91-3-.13s-5.35,4.37-4.59,4.82,4.93-1.48,6.6-2.44S53.4,63,53.4,63m-7.07,4.57a.24.24,0,0,1-.28-.18.24.24,0,1,1,.47-.11.25.25,0,0,1-.19.29M53,63.72a.3.3,0,0,1-.36-.23.3.3,0,1,1,.59-.13.29.29,0,0,1-.23.36"/><path class="cls-1" d="M54.49,62.34a.55.55,0,0,1-.41.64.54.54,0,0,1-.64-.41.54.54,0,1,1,1.05-.23m-.26,0a.27.27,0,0,0-.33-.21.28.28,0,0,0-.21.33.28.28,0,1,0,.54-.12"/><path class="cls-1" d="M55.86,62.24l.6-1.32s.29,0,.28-.19,0-.6-.23-.77-.49-.59-2.18,2.19l-.22-.09,1.44-2.15a.81.81,0,0,1,1.24-.18c.58.44.49,1.37-.93,2.51"/><path class="cls-1" d="M50.65,26.42a.2.2,0,0,1,.19-.21.2.2,0,0,1,.22.19.22.22,0,0,1-.19.22.21.21,0,0,1-.22-.2m.07,0a.14.14,0,0,0,.14.13A.14.14,0,0,0,51,26.4l-.14-.12a.13.13,0,0,0-.13.14"/><path class="cls-1" d="M47.65,27.62a.3.3,0,0,1,.28-.32.29.29,0,0,1,.31.29.29.29,0,0,1-.28.31.29.29,0,0,1-.31-.28m.09,0a.2.2,0,0,0,.22.19.21.21,0,0,0,.2-.22.23.23,0,0,0-.23-.2.21.21,0,0,0-.19.23"/><path class="cls-2" d="M50.87,26.41c-.24-.21-1.8.23-2.44.47s-.46.73-.46.73c.06.19.22.36,1,.21s2.1-1.21,1.87-1.41m-2.7,1.18-.12-.1.1-.12.12.1Zm2.53-1-.09-.08.08-.09.09.08Z"/><path class="cls-1" d="M47.56,27.77a.19.19,0,0,1,.18-.2.2.2,0,0,1,.2.18.2.2,0,0,1-.18.2.18.18,0,0,1-.2-.18m.09,0,.1.09.1-.1-.11-.1Z"/><path class="cls-1" d="M47.07,27.73l-.28.42-.11.05c0,.06,0,.21,0,.28s.14.23.88-.63l.07,0-.62.67a.29.29,0,0,1-.44,0c-.18-.19-.1-.51.46-.82"/><path class="cls-1" d="M38.53,75.65l3.61.69.15-.77-3.61-.69Zm-.08-1-.29,0a.22.22,0,0,0-.25.17l-.13.65a.22.22,0,0,0,.18.25l.29.06a.2.2,0,0,0,.22-.1l.15-.8a.21.21,0,0,0-.17-.18M43,75.87l-.2,0h0a.23.23,0,0,0-.17-.26l-.23,0-.15.77.23,0a.2.2,0,0,0,.25-.16h0l.18.1a.26.26,0,0,0,.32-.18.27.27,0,0,0-.23-.29m0,.06.16.11h0A.86.86,0,0,0,43,76h-.09Zm-.07.35-.13-.06h.08a.62.62,0,0,0,.23,0h0Zm.17-.1h-.2l-.14,0,0-.13H43a.42.42,0,0,1,.19.07l.06,0h0Z"/><path class="cls-1" d="M71,60.8l-4.56,1,.2,1,4.56-.95Zm.56,1.11.36-.08a.27.27,0,0,0,.21-.32l-.17-.83a.27.27,0,0,0-.32-.21l-.37.08a.28.28,0,0,0-.21.22l.21,1a.28.28,0,0,0,.29.13m-5.92.83a.45.45,0,0,0,.22-.13h0a.27.27,0,0,0,.32.22l.29-.07-.2-1-.29.06a.27.27,0,0,0-.21.32h0a.36.36,0,0,0-.25,0,.34.34,0,0,0-.29.37.35.35,0,0,0,.41.22m0-.08a.29.29,0,0,1-.23,0h0a1,1,0,0,0,.29,0l.1,0Zm-.09-.43h.18l-.11,0a.88.88,0,0,0-.26.09h0a.26.26,0,0,1,.2-.13m-.15.19a.6.6,0,0,1,.24-.09l.17,0,0,.17-.17.05a.82.82,0,0,1-.26,0l-.09,0h0Z"/><path class="cls-1" d="M39.32,37.15l1.13-2.91L39.83,34,38.7,36.91Zm-.82-.09-.09.24a.17.17,0,0,0,.1.23l.53.21a.18.18,0,0,0,.23-.11l.09-.23,0-.2L38.67,37Zm1.69-3.63v.17h0a.17.17,0,0,0-.23.11l-.08.18.62.25.07-.19a.18.18,0,0,0-.1-.24h0l.11-.13a.24.24,0,0,0-.11-.3.22.22,0,0,0-.27.15m.05,0,.11-.12h0l-.1.17,0,.06Zm.28.11-.08.1,0-.07.05-.19h0Zm-.06-.16,0,.17,0,.11-.11,0,0-.11.08-.15.06,0h0Z"/><path class="cls-3" d="M50.07,79.87l0,.28-.09,0h0l0,.35h0l.1,0,0,.29.07,0,2.13-.3a.11.11,0,0,0,.05-.12l0-.13c0-.23-.1-.65-.1-.65v0a.09.09,0,0,0-.09-.09l-2.12.3Z"/><path class="cls-3" d="M53.11,7.41l.25,2.72a1.25,1.25,0,0,0,1,.37.86.86,0,0,0,.8-.26l.47-2.68a4.49,4.49,0,0,0-2.52-.15"/><path class="cls-3" d="M65.58,14.56s.07-.13,0,0a.44.44,0,0,1-.17.18.56.56,0,0,1-.31.06l-.09,0V14.7l-.12,0-.07,0-.11-.05,0-.06-.12-.06,0,0-.19-.08v-.06l-.11-.05,0,0L64,14.28l0-.07-.12-.06-.06,0-.21-.09,0-.1-.14-.07s-.09.05-.29-.06a2.78,2.78,0,0,1-.61-.35A3.73,3.73,0,0,1,62.2,13a.27.27,0,0,0-.16-.14l-.07,0-.19-.1,0-.05a.87.87,0,0,1,.07-.19v0a.87.87,0,0,1,.11-.16l.06,0,.2.1,0,0a.26.26,0,0,0,.21,0,4.22,4.22,0,0,1,.57-.13,2.61,2.61,0,0,1,.66.25c.21.08.23.18.23.18l.14.06.12,0,.2.1,0,.07.12,0,.07,0,.17.08v.06l.11,0,0,0,.19.09v.05l.12.06.06,0,.11.06,0,.06.12,0,0,0,.09,0a.69.69,0,0,1,.15.27.57.57,0,0,1,0,.26c0,.14,0,0,0,0Z"/><path class="cls-3" d="M70.47,17.16l0,0,0,0,.49.31.06-.11.61.39.58-.92-.59-.38,0-.08-.51-.32,0,.06-.05,0s.36-1.11-3.23-3.45a.41.41,0,0,0-.54,0c-.21.26-1.57,2.5-1.57,2.5s-.15.26,0,.42,2,1.31,2,1.31a2.57,2.57,0,0,0,2.7.17m-2.32-.66c-.11-.08-.44-.38.08-.57a2.27,2.27,0,0,1,1.41.3c.13.07.52.53-.16.65a1.63,1.63,0,0,1-1.33-.38"/><path class="cls-3" d="M44.72,9.12v0h0v.32h.07v.4l.59,0V9.46h0V9.13h0v0S46,8.94,46,6.62c0,0,0-.22-.18-.23s-1.6,0-1.6,0-.16,0-.18.14,0,1.28,0,1.28a1.39,1.39,0,0,0,.72,1.28m-.38-1.25c0-.08,0-.31.28-.13a1.17,1.17,0,0,1,.27.72c0,.08-.08.4-.34.13a.83.83,0,0,1-.21-.72"/><path class="cls-3" d="M79.59,27a.82.82,0,0,0,.14-.92.83.83,0,0,0-.83-.46.25.25,0,0,1-.17-.12.36.36,0,0,1,0-.23.82.82,0,0,0,.15-.93.83.83,0,0,0-.83-.45l-.16-.11-.37.19c0,.08-.07.18-.11.23l-.28.27-.11.08h0l0,0h0l-.13,0-.38,0-.25-.06-.37.19V25a.81.81,0,0,0,.67,1.38.23.23,0,0,1,.18.34.82.82,0,0,0-.15.94.8.8,0,0,0,.81.45.33.33,0,0,1,.2.14.24.24,0,0,1,0,.2.82.82,0,0,0-.15.94.81.81,0,0,0,.81.46l.18.11.37-.18c0-.09.07-.2.11-.25l.27-.27.11-.07,0,0h0l.14,0,.37-.05.26.07.37-.19,0-.21a.8.8,0,0,0,.14-.92.83.83,0,0,0-.84-.45l-.16-.13a.31.31,0,0,1,0-.23m-1.76-2.92a.71.71,0,0,1,.94.32.7.7,0,1,1-.94-.32m.53,1.6c0,.09,0,.2-.1.26l-.27.27-.12.07h0l0,0h0l-.12,0-.38.05c-.08,0-.22,0-.27-.08h0c0-.08,0-.2.1-.25l.27-.27.11-.07h0l0,0h0l.12,0,.38-.05c.07,0,.22,0,.27.07Zm.85,1.73c0,.09,0,.2-.1.26l-.27.27-.11.07h0l0,0h0l-.12,0-.38.05c-.07,0-.22,0-.27-.07h0c-.05-.09,0-.2.1-.26l.27-.27.12-.07h0l.12,0,.38-.05c.08,0,.22,0,.27.07Zm-.32.95h0l-.12,0-.18,0-.09-.1.13,0,.17-.06h0l.16-.09.11-.09,0,.13-.07.18-.11.06Zm-.24-1.19-.14,0-.17.07h0l-.16.09-.11.09,0-.14.08-.17.1-.07h0l.12-.05.18.05Zm-.51-.61-.1.07h0l-.12,0-.18,0-.09-.1.13,0,.17-.07h0l.16-.09.11-.08,0,.13Zm-.78-1.21h0l.12-.05.18.05.09.1-.13,0-.17.07h0l-.16.09-.11.08,0-.13.08-.17Zm-.61-.53.14,0,.17-.07h0l.16-.09.11-.09,0,.14-.08.17-.1.07h0l-.12,0-.18,0Zm-1,1A.7.7,0,1,1,77,25.23a.7.7,0,1,1-1.25.61m.85,1.74A.7.7,0,0,1,77.89,27a.7.7,0,1,1-1.25.62m1.78,2.05a.7.7,0,0,1-.93-.32.69.69,0,0,1,.32-.93.7.7,0,1,1,.61,1.25m1.08-.75-.14,0-.17.07h0l-.15.09-.12.09,0-.14.07-.17.12-.06h0l.11-.05.18.05Zm1-1a.69.69,0,0,1-.32.93.7.7,0,0,1-.93-.32.7.7,0,1,1,1.25-.61m-1.17-.8a.71.71,0,0,1-.93-.32.7.7,0,0,1,.32-.94.69.69,0,0,1,.93.32.7.7,0,0,1-.32.94"/><path class="cls-3" d="M34.38,75.76a.84.84,0,0,0-.5-.79.83.83,0,0,0-.92.21.27.27,0,0,1-.21,0A.34.34,0,0,1,32.6,75a.84.84,0,0,0-.5-.79.83.83,0,0,0-.92.21l-.2,0-.16.38.08.25a3.67,3.67,0,0,1,0,.38l0,.13v.06h0l-.06.11-.25.29c-.05.05-.15.14-.24.12l-.15.38.11.16a.84.84,0,0,0,.51.8.83.83,0,0,0,.92-.2.29.29,0,0,1,.22,0l.13.16a.82.82,0,0,0,1.42.6.34.34,0,0,1,.24,0l.13.15a.82.82,0,0,0,1.42.62l.2,0,.16-.38c-.07-.05-.08-.19-.08-.25s0-.34,0-.39l0-.13h0v0l0,0h0l.06-.12.26-.28c0-.06.15-.15.23-.13l.16-.38-.13-.17a.81.81,0,0,0-.5-.79.83.83,0,0,0-.92.22h-.21c-.07,0-.11-.1-.15-.18m-3.24-1a.7.7,0,1,1,1.29.54.7.7,0,0,1-.91.37.69.69,0,0,1-.38-.91m1.45.86c.09,0,.09.19.09.26a3.67,3.67,0,0,1,0,.38l0,.13h0l0,0v0h0l-.07.11-.25.29c-.06,0-.16.16-.25.12h0c-.09,0-.1-.19-.09-.27l0-.38,0-.13v-.06h0l.07-.11.25-.29c.05-.06.16-.16.25-.13h0Zm1.78.74c.09,0,.09.19.09.27l0,.37,0,.13h0l0,0v0h0l-.07.11-.25.29c-.05,0-.16.16-.25.12h0c-.09,0-.09-.19-.09-.27l0-.38,0-.13h0v-.06h0l.07-.11.25-.29c.06-.06.16-.16.25-.12Zm.38.93h0v0l-.06.11-.17.08h-.13l.08-.12.08-.16h0l.07-.17,0-.14.1.09.06.17Zm-1-.74-.08.11-.08.17h0l-.07.17,0,.14-.1-.09-.06-.17,0-.13v0h0l.06-.11.17-.08ZM33,76.38l0,.13h0v0l-.06.1-.17.09H32.6l.07-.12.09-.16h0l.06-.17,0-.14.1.09ZM31.62,76v0l.06-.11.16-.08H32l-.08.11-.08.17h0l-.06.17,0,.14-.11-.09-.06-.18Zm-.81,0,.08-.12.08-.16h0a.5.5,0,0,0,.06-.17l0-.14.11.08.06.18,0,.13h0v0l-.06.12L31,76Zm0,1.43a.71.71,0,0,1-.37-.92.7.7,0,0,1,1.29.54.72.72,0,0,1-.92.38m1.79.74a.7.7,0,1,1,.91-.38.71.71,0,0,1-.91.38m2.69.36a.7.7,0,0,1-.91.38A.69.69,0,0,1,34,78a.7.7,0,1,1,1.29.53m.32-1.27-.08.12-.08.16h0a.62.62,0,0,0-.06.18l0,.14-.1-.09-.06-.18,0-.11v0l0,0,0-.11.17-.08Zm0-1.42a.69.69,0,0,1,.37.91.7.7,0,1,1-.37-.91M34.21,76a.7.7,0,1,1-.38-.91.69.69,0,0,1,.38.91"/><path class="cls-3" d="M80.17,58.93l0,0v0l.26.16,0,0,.33.21.32-.51-.32-.2,0,0-.27-.18,0,0,0,0s.2-.6-1.75-1.87a.21.21,0,0,0-.29,0c-.11.14-.85,1.35-.85,1.35s-.08.14,0,.22,1.07.72,1.07.72a1.39,1.39,0,0,0,1.46.09m-1.25-.36c-.06,0-.25-.2,0-.3a1.17,1.17,0,0,1,.76.16c.07,0,.28.29-.09.36a.83.83,0,0,1-.71-.22"/><path class="cls-3" d="M73.48,72.06l0,0m-.33-.56,0,0,0,0-.26.17"/><path class="cls-3" d="M79.49,60c-.07-.18.16-.45.16-.45a1.46,1.46,0,0,1-.55,0,3.08,3.08,0,0,0-2,.28,1.91,1.91,0,0,1-.53.13c.23.11.24.64.24.8a2.29,2.29,0,0,0,1.3,1.72c.22.08.18.17.18.17s-.2.41-.2.41a2.1,2.1,0,0,1,.57-.08,1.67,1.67,0,0,0,.56-.08,1,1,0,0,0-.43-.29c-.05,0-.05-.12,0-.21a2,2,0,0,0,.85-1.24A2.6,2.6,0,0,0,79.49,60"/><path class="cls-3" d="M72.66,70c.15.06.17.34.17.34s.24-.25.3-.32a2.43,2.43,0,0,0,.94-1.34,1.59,1.59,0,0,1,.22-.37c-.19.07-.51-.21-.6-.3A1.85,1.85,0,0,0,72,67.81c-.16.08-.2,0-.2,0s-.12-.34-.12-.34a1.88,1.88,0,0,1-.27.37,1.4,1.4,0,0,0-.26.37.87.87,0,0,0,.41-.09s.09,0,.11.12a1.58,1.58,0,0,0,.26,1.17,2,2,0,0,0,.75.56"/><path class="cls-3" d="M10,45.26c.1.18-.09.5-.09.5a1.56,1.56,0,0,1,.58-.11,3.29,3.29,0,0,0,2.07-.71,1.92,1.92,0,0,1,.52-.23c-.26-.07-.38-.63-.41-.79a2.46,2.46,0,0,0-1.7-1.55c-.24,0-.22-.14-.22-.14s.13-.47.13-.47a2.08,2.08,0,0,1-.58.2,1.9,1.9,0,0,0-.57.19,1.07,1.07,0,0,0,.51.23c.06,0,.07.11,0,.21a2.12,2.12,0,0,0-.63,1.48A2.6,2.6,0,0,0,10,45.26"/><path class="cls-3" d="M46.71,7.09l0,.77-.28,0-.06,0,0,.92.06,0h.27l0,.77a.22.22,0,0,0,.18.11l5.72-.23a.25.25,0,0,0,.15-.28V8.87c0-.62-.07-1.73-.07-1.73V7a.25.25,0,0,0-.19-.26L46.88,7a.22.22,0,0,0-.17.12"/><path class="cls-3" d="M77.94,63.12l-.67-.38.13-.23v-.09L76.58,62l-.06,0-.14.23-.67-.37a.24.24,0,0,0-.19.1l-2.76,5a.25.25,0,0,0,.15.28l.33.18,1.51.83.12.07a.25.25,0,0,0,.33,0l2.76-5a.19.19,0,0,0,0-.2"/><path class="cls-3" d="M11.53,55.27l.28-.09,0,.1,0,0,.34-.11v0l0-.09.29-.09,0-.08-.66-2.11s0-.06-.12,0l-.13,0-.64.2,0,0c-.09,0-.08.09-.08.09l.65,2.11Z"/><path class="cls-3" d="M75.65,23.56l.07.08-.1.08.5.6,1.2-1-.5-.6-.09.07-.06-.07a1.65,1.65,0,0,0,.2-1.34l-1.81-2.18c-.07-.09-.24,0-.24,0l-2.29,1.9s-.1.15,0,.24l1.81,2.18a1.6,1.6,0,0,0,1.34,0"/><path class="cls-3" d="M82.12,53l0-.09.11,0,.27-.73-1.46-.54-.27.74.12,0,0,.09a1.65,1.65,0,0,0-1.25.5l-1,2.67c0,.1.11.22.11.22l2.8,1s.18,0,.22-.09l1-2.66a1.64,1.64,0,0,0-.64-1.2"/><path class="cls-3" d="M23.05,69.13,23,69.06l.08-.09-.55-.54-1.09,1.1.56.55.08-.08.07.06a1.65,1.65,0,0,0-.06,1.36l2,2c.08.08.24,0,.24,0l2.08-2.13s.08-.16,0-.24l-2-2a1.62,1.62,0,0,0-1.35.09"/><path class="cls-3" d="M65.56,12.91l0,0,0,0-.08.2.38.16.08-.19h0v0a.48.48,0,0,0,.34-.12l.3-.69,0-.06-.73-.32-.06,0-.3.7a.44.44,0,0,0,.16.33"/><path class="cls-3" d="M48.94,77.77s.29-.11.81.28l3.38-.74s.13.06.22.37,0,.43,0,.43l-3.24,1.21c-.23.62-.53.68-.53.68s-2.82.87-3.25,1a.48.48,0,0,1-.56-.28l-.41-1.41a.49.49,0,0,1,.33-.54c.4-.16,3.24-1,3.24-1"/><path class="cls-3" d="M82.53,49.85v0h0v.36h.07v.45h.69v-.44h.06v-.38h0v0s.72-.17.8-2.86c0,0,0-.25-.2-.27s-1.86,0-1.86,0-.18,0-.2.16-.07,1.48-.07,1.48a1.61,1.61,0,0,0,.79,1.51m-.4-1.46c0-.09.06-.36.33-.14a1.42,1.42,0,0,1,.3.84c0,.1-.12.46-.4.14a1,1,0,0,1-.23-.84"/><path class="cls-3" d="M53.73,78.61l-.06,0v0l-.51.2,0,.11-.64.25.39,1,.62-.25,0,.08.53-.22,0-.06,0,0s.66.91,4.46-.57c0,0,.35-.12.27-.44S57.81,76,57.81,76s-.12-.26-.35-.2-2.1.78-2.1.78a2.44,2.44,0,0,0-1.63,2m1.8-1.43c.12,0,.53-.12.39.38s-1,.92-1,.92-.71.11-.42-.49a1.59,1.59,0,0,1,1-.81"/><path class="cls-3" d="M11.18,40.8v.06h0l0,.55h.12l-.05.68,1,.06,0-.67h.09l0-.58h-.07v0s1.1-.21,1.37-4.28c0,0,0-.37-.29-.42S10.57,36,10.57,36s-.28,0-.32.23-.18,2.24-.18,2.24a2.43,2.43,0,0,0,1.11,2.32m-.52-2.23c0-.13.11-.54.5-.19a2.1,2.1,0,0,1,.41,1.3c0,.14-.2.68-.62.17a1.47,1.47,0,0,1-.29-1.28"/><path class="cls-3" d="M80.78,47.85v0h0l0,.22.43,0,0-.22h0v0a.45.45,0,0,0,.3-.23l.06-.79-.05,0-.83-.07,0,0-.06.79a.43.43,0,0,0,.26.27"/><path class="cls-3" d="M20.05,69.7c.12.06.11.31.11.31s.23-.2.29-.25a2.15,2.15,0,0,0,.93-1.06,1.23,1.23,0,0,1,.22-.3c-.17,0-.41-.23-.49-.31a1.59,1.59,0,0,0-1.44-.32c-.15.06-.17,0-.17,0s-.08-.31-.08-.31a1.29,1.29,0,0,1-.26.3,1.33,1.33,0,0,0-.26.29.75.75,0,0,0,.36,0l.08.11a1.39,1.39,0,0,0,.12,1,1.81,1.81,0,0,0,.59.55"/><path class="cls-3" d="M20.93,67.3l0,0,0,0,.25.25.06,0,.32.32.48-.49-.31-.31,0,0-.27-.27,0,0,0,0s.37-.63-1.51-2.56a.27.27,0,0,0-.34,0c-.16.13-1.31,1.33-1.31,1.33a.2.2,0,0,0,0,.25c.1.12,1,1.08,1,1.08a1.63,1.63,0,0,0,1.64.47m-1.34-.72c-.05-.07-.21-.3.13-.34a1.35,1.35,0,0,1,.82.38c.07.06.25.39-.18.37a1,1,0,0,1-.77-.41"/><path class="cls-3" d="M18.28,67.18l0,0,0,0,.15.16.32-.29-.14-.16,0,0,0,0a.51.51,0,0,0,.05-.38L18.06,66H18l-.62.56v.06l.53.6a.45.45,0,0,0,.38,0"/><path class="cls-3" d="M71.88,18.27l1.58.87a.88.88,0,0,0,.58-.42.58.58,0,0,0,.15-.54l-1.3-1.25a3,3,0,0,0-1,1.34"/><path class="cls-3" d="M39.29,76.79s-2-.61-2.27-.65-.35.23-.35.23-.83,2.48-.89,2.82.32.44.32.44c4.1,1.23,4.71.23,4.71.23l0,0,0,.08.57.17,0-.08.67.21.33-1L41.75,79l0-.12-.54-.17,0,.05-.07,0a2.54,2.54,0,0,0-1.87-1.95m1,1.37c.35.6-.25.59-.39.54s-.89-.32-1.13-.88.24-.46.37-.43a1.66,1.66,0,0,1,1.15.77"/><path class="cls-3" d="M42.26,78.87l0-.34h-.13l0,0,0-.41,0,0h.13l0-.34.09,0L45,77.9a.12.12,0,0,1,.07.13v.17c0,.28-.07.78-.07.78V79a.11.11,0,0,1-.09.12l-2.57-.23Z"/><path class="cls-3" d="M80.66,41.87,81,45.73a1.83,1.83,0,0,0,1.41.54,1.26,1.26,0,0,0,1.13-.37l.7-3.79a6.15,6.15,0,0,0-3.56-.24"/><path class="cls-3" d="M30.57,73.53l-3.48-1.71a1.86,1.86,0,0,0-1.19.93,1.26,1.26,0,0,0-.26,1.16l2.89,2.55a6.19,6.19,0,0,0,2-2.93"/><path class="cls-3" d="M83.29,35.22s0-.45-.87-.92l-1.13-5s-.16-.14-.64-.06-.58.25-.58.25l.39,5.13c-.68.69-.57,1.13-.57,1.13s.58,4.35.74,5a.72.72,0,0,0,.73.59L83.52,41a.74.74,0,0,0,.53-.78c0-.65-.76-5-.76-5"/><path class="cls-3" d="M17.25,65s.32-.14,0,0a1.25,1.25,0,0,1-.6.12,1.43,1.43,0,0,1-.69-.31l-.13-.21.07-.13-.16-.26a.16.16,0,0,0-.16-.06l-.15-.27,0-.16-.16-.27h-.12L14.91,63l.06-.13-.15-.25h-.14l-.23-.41.05-.16-.16-.28-.16,0-.27-.47a.47.47,0,0,0,0-.27l-.19-.33s-.24,0-.48-.54a5.63,5.63,0,0,1-.71-1.52,10.46,10.46,0,0,1,.21-1.41.64.64,0,0,0-.12-.49l-.15-.07-.26-.46,0-.14a1.1,1.1,0,0,1,.37-.28l.11-.07a1.15,1.15,0,0,1,.43-.17l.15,0,.26.46,0,.16a.64.64,0,0,0,.37.36,11.18,11.18,0,0,1,1.31.53,5.73,5.73,0,0,1,.95,1.4c.31.46.22.68.22.68l.19.33s.14.12.24.11l.27.48-.06.16.17.28.16,0,.23.4-.06.12.14.25a.22.22,0,0,0,.15,0l.25.44-.06.11.16.28a.22.22,0,0,0,.15,0l.15.27s-.08.09,0,.17l.15.26.14,0,.12.21a1.43,1.43,0,0,1-.09.75,1.14,1.14,0,0,1-.41.46c-.29.21,0,0,0,0Z"/><path class="cls-3" d="M30.26,11.33s.1.33,0,0a1.15,1.15,0,0,1,0-.62,1.53,1.53,0,0,1,.4-.64l.22-.09L31,10l.28-.11c.09,0,.08-.16.08-.16l.29-.12.15.06.29-.12,0-.12.47-.19.12.08L33,9.25l0-.14.44-.17.15.07.3-.12.06-.16.51-.2.26.06L35,8.45s.07-.23.6-.4a5.79,5.79,0,0,1,1.61-.5,11.42,11.42,0,0,1,1.36.4.66.66,0,0,0,.51,0l.08-.14.49-.2.14.06a1.15,1.15,0,0,1,.23.41l0,.11a1.45,1.45,0,0,1,.12.45l-.07.15-.49.19-.15,0a.64.64,0,0,0-.41.31,10.87,10.87,0,0,1-.71,1.22,5.59,5.59,0,0,1-1.51.76c-.5.24-.7.12-.7.12l-.35.14s-.15.13-.15.23l-.51.2L35,11.8l-.3.12-.07.16-.43.17-.11-.08-.27.11a.28.28,0,0,0,0,.14l-.46.18-.11-.07-.29.12a.24.24,0,0,0-.08.14l-.28.12a.18.18,0,0,0-.17-.06l-.28.11,0,.14-.23.09a1.45,1.45,0,0,1-.73-.19,1.15,1.15,0,0,1-.4-.47c-.17-.32,0,0,0,0Z"/><path class="cls-3" d="M12.62,31.3l0,.11-.12-.06-.35.82,1.58.68L14,32,13.91,32l.05-.1a1.85,1.85,0,0,0,1.43-.5l1.27-3c.05-.11-.11-.25-.11-.25l-3-1.3s-.21,0-.25.1-1.27,3-1.27,3a1.84,1.84,0,0,0,.62,1.38"/><path class="cls-3" d="M11,35.47l2.81-.1a1.3,1.3,0,0,0,.44-1,.89.89,0,0,0-.23-.84l-2.72-.63a4.5,4.5,0,0,0-.3,2.57"/><path class="cls-3" d="M69.66,73.1l2.23-2.59a1.6,1.6,0,0,0-.53-1.21c-.49-.57-.93-.49-.93-.49L67.62,70.7a5.52,5.52,0,0,0,2,2.4"/><path class="cls-4" d="M72,18.77c-.67-.75-1.48-1.13-1.78-.85s0,1.12.65,1.87,1.48,1.13,1.79.85,0-1.12-.66-1.87M70.5,18.4a.16.16,0,0,1-.17-.15.16.16,0,0,1,.15-.17.15.15,0,0,1,.17.15.16.16,0,0,1-.15.17m1.74,1.75a6.41,6.41,0,0,0-1.53-1.66l0,0a3.61,3.61,0,0,1,1.52,1.66Zm.26.36a.16.16,0,0,1-.16-.15.16.16,0,0,1,.15-.17.16.16,0,0,1,.17.15.17.17,0,0,1-.16.17"/><path class="cls-4" d="M43.9,79.63c-.76-.08-1.4.1-1.43.42s.54.63,1.3.72,1.39-.1,1.43-.41-.55-.64-1.3-.73m-1,.55h-.17V80h.17Zm.16-.05v0a2.77,2.77,0,0,1,1.69.19h0a4.94,4.94,0,0,0-1.7-.17m2,.24h-.16V80.2H45Z"/><path class="cls-3" d="M40.92,9.18l-.05,0s-.2-.38-.28-.53c-.16.45-.47,1-.1,1.44a.83.83,0,0,0,1,.07,2.26,2.26,0,0,1,.37-.11,3.09,3.09,0,0,1-.39-.24V9.78a2.34,2.34,0,0,0,.66.29h.1a1.57,1.57,0,1,0-1.62-1.54,1.92,1.92,0,0,0,.29.65m1.83-1.69c.07.11,0,.1,0,.1A1,1,0,0,0,41.26,8L41.2,8a1,1,0,0,1,1.55-.46M41.11,9.82a.25.25,0,0,1-.24.26.26.26,0,0,1-.26-.25.25.25,0,0,1,.25-.26.25.25,0,0,1,.25.25"/><path class="cls-3" d="M56.45,9.91a.4.4,0,0,1-.55.11.41.41,0,0,1-.1-.55.39.39,0,0,1,.54-.11.4.4,0,0,1,.11.55m-.11-.08a.27.27,0,0,0-.07-.36.27.27,0,0,0-.37.08.26.26,0,0,0,.08.36.25.25,0,0,0,.36-.08"/><path class="cls-3" d="M62.46,11.52a.57.57,0,0,1-.8.16.59.59,0,0,1-.16-.8.58.58,0,0,1,.8-.16.57.57,0,0,1,.16.8m-.14-.1a.39.39,0,0,0-.12-.55.38.38,0,0,0-.55.11.4.4,0,1,0,.67.44"/><path class="cls-4" d="M60.62,9.65C59.2,9,56,9.1,56.1,9.69s3,1.71,4.3,2.07,1.54-.6,1.54-.6c.14-.35.09-.8-1.32-1.51m-4,.17a.17.17,0,0,1-.23,0l0-.22a.17.17,0,0,1,.23-.05Zm5.07,1.44a.21.21,0,1,1-.34-.23.21.21,0,1,1,.34.23"/><path class="cls-3" d="M62.77,11.39a.36.36,0,0,1-.61-.4.37.37,0,0,1,.51-.1.36.36,0,0,1,.1.5m-.14-.09a.2.2,0,0,0-.06-.27.19.19,0,0,0-.26.05.19.19,0,1,0,.32.22"/><path class="cls-3" d="M63.47,12l.92-.33s.15.12.23.05.31-.27.27-.48,0-.52-2.1,0l-.06-.15,1.73-.32a.56.56,0,0,1,.67.53c.05.49-.44.89-1.66.73"/><path class="cls-3" d="M67.82,73.16a.45.45,0,1,1,.49.4.46.46,0,0,1-.49-.4m.15,0a.31.31,0,0,0,.32.28.3.3,0,0,0,.27-.33.3.3,0,0,0-.32-.27.31.31,0,0,0-.27.32"/><path class="cls-3" d="M61.33,76a.66.66,0,0,1,1.31-.11.65.65,0,0,1-.59.71.67.67,0,0,1-.72-.6m.2,0a.46.46,0,0,0,.5.41.44.44,0,0,0,.41-.49.45.45,0,0,0-.49-.42.46.46,0,0,0-.42.5"/><path class="cls-4" d="M68.29,73.1c-.53-.42-3.92.64-5.28,1.21s-1,1.62-1,1.62c.14.41.49.78,2.25.4s4.53-2.8,4-3.23m-5.82,2.77a.24.24,0,0,1-.26-.21.24.24,0,0,1,.22-.26.24.24,0,0,1,.25.22.23.23,0,0,1-.21.25m5.47-2.35a.19.19,0,1,1,.17-.2.19.19,0,0,1-.17.2"/><path class="cls-3" d="M61.15,76.32a.42.42,0,0,1,.83-.08.42.42,0,1,1-.83.08m.2,0a.2.2,0,0,0,.24.19.21.21,0,0,0,0-.42.21.21,0,0,0-.2.23"/><path class="cls-3" d="M60.09,76.25l-.59,1s-.22,0-.24.12-.08.45.11.61.31.49,1.88-1.46l.16.09L60.1,78.07a.63.63,0,0,1-1,0c-.39-.39-.24-1.09,1-1.82"/><path class="cls-3" d="M10.51,47a.4.4,0,0,1-.41-.38.41.41,0,0,1,.38-.41.39.39,0,0,1,.41.38.39.39,0,0,1-.38.41m0-.13a.27.27,0,0,0,.25-.27.27.27,0,0,0-.27-.26.26.26,0,0,0-.25.27.26.26,0,0,0,.27.26"/><path class="cls-3" d="M12.68,52.9a.57.57,0,0,1-.59-.56.57.57,0,0,1,.56-.6.6.6,0,0,1,.6.57.58.58,0,0,1-.57.59m0-.17a.41.41,0,0,0,0-.81.4.4,0,0,0-.39.41.41.41,0,0,0,.42.4"/><path class="cls-4" d="M13.14,50.31c-.25-1.57-2.25-4.14-2.65-3.69s.37,3.49.8,4.73,1.38.92,1.38.92c.37-.1.71-.4.47-2m-2.46-3.19a.17.17,0,0,1-.17-.16.15.15,0,0,1,.16-.17.16.16,0,0,1,.16.16.15.15,0,0,1-.15.17m1.76,5a.21.21,0,1,1,0-.42.21.21,0,0,1,0,.42"/><path class="cls-3" d="M13,53.08a.36.36,0,0,1-.38-.36.37.37,0,0,1,.73,0,.37.37,0,0,1-.35.38m0-.18a.19.19,0,0,0,.19-.19.2.2,0,0,0-.39,0,.19.19,0,0,0,.2.18"/><path class="cls-3" d="M12.86,54l.8.57s0,.2.1.21.4.1.54,0,.46-.26-1.19-1.74l.09-.13,1.26,1.23a.55.55,0,0,1,0,.85c-.37.33-1,.16-1.56-.94"/><path class="cls-3" d="M78.68,31l.63,2.74.59-.13-.64-2.74Zm.66-.35,0-.22a.18.18,0,0,0-.2-.13l-.5.12a.16.16,0,0,0-.12.19l0,.23.14.12.61-.14Zm.58,3.57-.08-.13h0a.18.18,0,0,0,.13-.2l0-.18-.58.14,0,.17a.17.17,0,0,0,.2.13h0v.15a.2.2,0,0,0,.22.17.21.21,0,0,0,.13-.25m0,0,0,.14h0v-.18l0-.06Zm-.26.06v0l.06.17h0Zm.12.09-.06-.15v-.1l.1,0,0,.1,0,.15,0,.06h0Z"/><path class="cls-1" d="M47.48,51.47s-.12.3,0,0a1.13,1.13,0,0,1,.34-.47,1.37,1.37,0,0,1,.65-.23l.22.06,0,.13L49,51a.16.16,0,0,0,.15-.07l.27.08.08.12.28.09.09-.07.44.13,0,.13.25.07.1-.08.41.13.08.14.28.08.14-.07.48.14c0,.09.15.2.15.2l.33.1s.19-.13.67.05a5.46,5.46,0,0,1,1.45.57,10.23,10.23,0,0,1,.75,1.08.62.62,0,0,0,.4.25l.14-.05.46.14.07.12a1.07,1.07,0,0,1-.07.42l0,.12a1.13,1.13,0,0,1-.18.39l-.12.06-.47-.13L55.56,55a.62.62,0,0,0-.47,0,9.33,9.33,0,0,1-1.22.48,5.29,5.29,0,0,1-1.52-.33c-.5-.11-.58-.32-.58-.32l-.33-.09-.24.07-.49-.14-.06-.14-.29-.09-.14.08-.41-.13,0-.12-.26-.08-.11.08L49,54.17l0-.11L48.65,54l-.13.06L48.24,54s0-.11-.08-.14l-.26-.08-.11.08-.21-.06a1.31,1.31,0,0,1-.42-.56,1.11,1.11,0,0,1,0-.57c.06-.33,0,0,0,0Z"/><path class="cls-1" d="M57.62,34.82s.12.36.91.53l2,3.74s.16.08.52-.09.42-.33.42-.33l-1.48-4c.39-.71.19-1,.19-1s-1.44-3.33-1.72-3.8a.61.61,0,0,0-.71-.31l-1.65.75a.6.6,0,0,0-.24.74c.18.51,1.73,3.79,1.73,3.79"/><path class="cls-1" d="M46.47,46c-.25-.27.09-.32.09-.32a2.84,2.84,0,0,0,3.86-1.85c.1-.17.18,0,.18,0-1.18,3.25-3.93,2.39-4.13,2.17"/><path class="cls-1" d="M67.65,38.88s.11-.05.06.07a10.86,10.86,0,0,1-4.66,4.79l-.06,0a19,19,0,0,0,4.66-4.83"/><path class="cls-1" d="M47,52.33a17.77,17.77,0,0,1,1.56-1.21c.43-.22,1.25-.75,1.29-1s-.15-1.34.51-1.74,1.31-.68,1.54-.82l.22-.13,0,0,.16-.09.05.18a1.57,1.57,0,0,1,.06.39.4.4,0,0,1-.16.37L52.13,48s0,0,0-.12v-.12l-.07,0c-.25.15-1,.54-1.56.83s-.27,1.09-.36,1.55-1,.95-1.43,1.21a16.59,16.59,0,0,0-1.51,1.17h0Z"/><path class="cls-1" d="M48.75,54.15a2.21,2.21,0,0,1,.64-.74c.33-.17.78-.58.75-.79v-.11l.11,0a4.61,4.61,0,0,0,1-.51c.68-.44,1.7-1.07,1.7-1.07h0l.15.25s-1,.62-1.69,1.06a5.8,5.8,0,0,1-1,.52c-.09.42-.56.74-.88.94a1.8,1.8,0,0,0-.53.61Z"/><path class="cls-1" d="M51.82,40.61a2.91,2.91,0,0,0-.6.07,1.85,1.85,0,0,1-.34,0c-.21,0-.29-.1-.49-.21a9.86,9.86,0,0,1-1.27-.63c-.77-.51-.69-1.39-.89-2.72a26.86,26.86,0,0,1-.15-3.23V33a.27.27,0,0,0,0-.15l0,0h0l-.08-.27.1,0a.35.35,0,0,1,.25.1.49.49,0,0,1,.12.36v.91a26,26,0,0,0,.15,3.19c.19,1.38.16,2.15.76,2.51a9,9,0,0,0,1.25.63c.24.14.27.17.35.17l.27,0a2.92,2.92,0,0,1,.67-.08,1.92,1.92,0,0,1,1.51.61l-.22.19a1.64,1.64,0,0,0-1.29-.51"/><path class="cls-1" d="M55.19,36.29a1.6,1.6,0,0,1,.35-1,3.28,3.28,0,0,0,.68-1.23c.05-.31.29-1.32.34-2,0-.2,0-.42,0-.63,0-.51,0-1-.07-1.38v-.16a3.81,3.81,0,0,1,.12-.94L57,29a3.08,3.08,0,0,0-.19.91V30c0,.37.07.88.07,1.4,0,.22,0,.44,0,.65-.05.75-.18,1.8-.23,2.08a10.19,10.19,0,0,1-.85,1.34,1.28,1.28,0,0,0-.29.81,1,1,0,0,0,0,.15h0l-.28.05a.54.54,0,0,1,0-.2"/><path class="cls-1" d="M60.67,38c-.23-.66,0-2.93-.35-3.3a.74.74,0,0,1-.11-.41,13.61,13.61,0,0,1,.6-1.94c0-.29-.5-.54-1-1a9.73,9.73,0,0,0-.89-.75l.17-.24a9.55,9.55,0,0,1,.92.78c.4.42,1,.61,1.07,1.2s-.61,1.4-.6,1.94a.38.38,0,0,0,.06.24c.41.61.17,2.85.38,3.36s.12,1.61.33,1.77l-.2.2c-.37-.42-.19-1.33-.4-1.86m-1.73-7.39Z"/><path class="cls-1" d="M68.39,43.47V43.3a1.84,1.84,0,0,0-.12-.61c-.15-.4-.58-2.21-.79-2.54a2.45,2.45,0,0,1-.29-1.24c0-.3.27-1.27.34-1.77a9.12,9.12,0,0,0,0-1.11c0-.31,0-.55,0-.55h.29s0,.25,0,.56a10.33,10.33,0,0,1,0,1.16c-.08.51-.34,1.53-.34,1.72A2.26,2.26,0,0,0,67.73,40a22.63,22.63,0,0,1,.82,2.6,2,2,0,0,1,.14.71v.2Z"/><path class="cls-3" d="M13.56,17.23l-1,1a2.94,2.94,0,0,0-2.21-1A2.5,2.5,0,0,0,8.51,18a2.36,2.36,0,0,0-.75,1.77,2.47,2.47,0,0,0,.77,1.83,2.64,2.64,0,0,0,1.91.75A2.31,2.31,0,0,0,11.68,22a2.19,2.19,0,0,0,.81-1H10.33V19.69h3.75V20a3.73,3.73,0,0,1-.5,1.86,3.61,3.61,0,0,1-1.32,1.34,3.78,3.78,0,0,1-1.89.46,4.18,4.18,0,0,1-2.07-.51,3.73,3.73,0,0,1-1.44-1.43,4.08,4.08,0,0,1-.52-2,3.74,3.74,0,0,1,1-2.57,3.86,3.86,0,0,1,3-1.3,4.58,4.58,0,0,1,1.82.36,4.17,4.17,0,0,1,1.4,1"/><path class="cls-3" d="M14.61,16h1.51a5,5,0,0,1,1.76.22,1.78,1.78,0,0,1,.85.73A2.25,2.25,0,0,1,19,18.18a2,2,0,0,1-.41,1.3,2.17,2.17,0,0,1-1.1.72,7.07,7.07,0,0,1-1.5.11v3.16H14.61ZM16,18.93h.45a2.42,2.42,0,0,0,.74-.08.64.64,0,0,0,.33-.25.74.74,0,0,0,.12-.42.67.67,0,0,0-.34-.63,1.86,1.86,0,0,0-.9-.15H16Z"/><polygon class="cls-3" points="20.38 16.02 21.76 16.02 23.48 21.21 25.23 16.02 26.61 16.02 27.86 23.47 26.49 23.47 25.69 18.76 24.11 23.47 22.86 23.47 21.29 18.76 20.47 23.47 19.08 23.47 20.38 16.02"/><polygon class="cls-3" points="29.04 16.02 30.46 16.02 30.46 22.12 32.53 22.12 32.53 23.47 29.04 23.47 29.04 16.02"/><path class="cls-1" d="M109,39.12A9,9,0,0,1,93.32,32.8a9.11,9.11,0,0,1,16.37-5.38l-.8.61a7.68,7.68,0,0,0-6.59-3.23,7.78,7.78,0,0,0-8,8,7.77,7.77,0,0,0,2.26,5.73,7.89,7.89,0,0,0,5.75,2.25,7.65,7.65,0,0,0,6-2.47,7.19,7.19,0,0,0,2-4.21h-5.78v-1h6.88a8.41,8.41,0,0,1-2.33,6"/><rect class="cls-1" x="113.51" y="23.43" width="0.98" height="18.12"/><path class="cls-1" d="M126.24,40.2a5.06,5.06,0,0,1-3.72,1.52,5.23,5.23,0,0,1-3.69-8.92,4.91,4.91,0,0,1,3.69-1.54,5.26,5.26,0,0,1,3.72,8.94m-.71-6.71a4.05,4.05,0,0,0-3-1.25,4,4,0,0,0-3,1.27,4.21,4.21,0,1,0,6,0"/><path class="cls-1" d="M139,40.2a5.25,5.25,0,0,1-7.85-.52v1.86h-1V23.43h1v9.89a5.27,5.27,0,0,1,7.83-.54,5.31,5.31,0,0,1,0,7.42m-.73-6.69a4.08,4.08,0,0,0-3-1.24,4,4,0,0,0-3,1.22,4.25,4.25,0,1,0,6,0"/><path class="cls-1" d="M151.66,41.54V39.8a5.23,5.23,0,1,1-7.77-7,5.29,5.29,0,0,1,7.77.4V31.43h1V41.54Zm-1.06-8a4.24,4.24,0,0,0-6,0,4.25,4.25,0,0,0,3,7.25,4,4,0,0,0,3-1.23,4.22,4.22,0,0,0,0-6"/><rect class="cls-1" x="156.04" y="23.43" width="0.98" height="18.12"/><path class="cls-1" d="M174.84,31.58a4.86,4.86,0,0,1-3.38,1.22h-3.28v8.74h-1V24.06h4.26a5,5,0,0,1,3.38,1.18,4,4,0,0,1,1.37,3.16,4,4,0,0,1-1.37,3.18m-.76-5.68a4,4,0,0,0-2.64-.83h-3.26V31.8h3.26a4.11,4.11,0,0,0,2.69-.88,3.15,3.15,0,0,0,1.08-2.52,3,3,0,0,0-1.13-2.5"/><path class="cls-1" d="M184.17,41.54V39.8a5.21,5.21,0,1,1,0-6.6V31.43h1V41.54Zm-1.06-8a4.24,4.24,0,0,0-6,0,4.25,4.25,0,0,0,3,7.25,4.23,4.23,0,0,0,3-7.23"/><path class="cls-1" d="M193.05,32.93a3.61,3.61,0,0,0-.83-.47,2.6,2.6,0,0,0-.93-.17,1.33,1.33,0,0,0-.78.26,2.55,2.55,0,0,0-.64.63,3.57,3.57,0,0,0-.43.85,2.81,2.81,0,0,0-.16.86v6.65h-1V31.43h1V32.8a4,4,0,0,1,.84-1,1.63,1.63,0,0,1,1.12-.47,4,4,0,0,1,1.25.17,4.78,4.78,0,0,1,1.1.61Z"/><polygon class="cls-1" points="197.51 32.44 197.51 41.54 196.5 41.54 196.5 32.44 195.13 32.44 195.13 31.43 196.5 31.43 196.5 27 197.51 27 197.51 31.43 199.86 31.43 199.86 32.44 197.51 32.44"/><path class="cls-1" d="M209,41.54v-6q0-3.21-2.89-3.21a2.71,2.71,0,0,0-2.15.83,3.26,3.26,0,0,0-.76,2.28v6.14h-1V31.43h1v1.23c.45-.9,1.43-1.35,2.91-1.35A3.75,3.75,0,0,1,209,32.39a4.24,4.24,0,0,1,1,3v6.14Z"/><path class="cls-1" d="M213.59,36.28a4.66,4.66,0,0,0,1.1,3.26,4.15,4.15,0,0,0,3.16,1.22,4.78,4.78,0,0,0,1.86-.34,4.31,4.31,0,0,0,1.89-1.79l.9.42a4.85,4.85,0,0,1-2.93,2.44,5.41,5.41,0,0,1-1.72.25,5,5,0,0,1-3.74-1.49,5.23,5.23,0,0,1,3.74-9,5.19,5.19,0,0,1,3.72,1.4,4.72,4.72,0,0,1,1.5,3.62Zm6.91-3.21a4.44,4.44,0,0,0-2.65-.83,4,4,0,0,0-4.11,3.09h8.2a3.38,3.38,0,0,0-1.44-2.26"/><path class="cls-1" d="M230.29,32.93a3.61,3.61,0,0,0-.83-.47,2.69,2.69,0,0,0-.93-.17,1.38,1.38,0,0,0-.79.26,2.69,2.69,0,0,0-.63.63,3.24,3.24,0,0,0-.43.85,2.54,2.54,0,0,0-.16.86v6.65h-1V31.43h1V32.8a4.18,4.18,0,0,1,.83-1,1.65,1.65,0,0,1,1.13-.47,4,4,0,0,1,1.25.17,5,5,0,0,1,1.1.61Z"/><path class="cls-1" d="M237.05,40.91a3.55,3.55,0,0,1-2.35.83,3.79,3.79,0,0,1-3.53-2.13l.86-.52a3.36,3.36,0,0,0,1,1.18,2.69,2.69,0,0,0,1.67.47c1.53,0,2.3-.66,2.3-2a1.88,1.88,0,0,0-.81-1.5c-.16-.09-.4-.2-.7-.33l-1.11-.43a6,6,0,0,1-1.77-.88,2.21,2.21,0,0,1-.78-1.83,2.35,2.35,0,0,1,.78-1.77,2.72,2.72,0,0,1,2-.75,3.9,3.9,0,0,1,2.86,1.17l-.73.64a2.88,2.88,0,0,0-2.13-.83c-1.18,0-1.76.51-1.76,1.54a1.4,1.4,0,0,0,.53,1.12,5.07,5.07,0,0,0,1.4.67,14,14,0,0,1,1.37.54,6.24,6.24,0,0,1,.81.46A2.6,2.6,0,0,1,238,38.78a2.67,2.67,0,0,1-.95,2.13"/><path class="cls-1" d="M247.5,41.57v-6.1c0-2.14-1-3.2-3-3.2a3.18,3.18,0,0,0-2.1.73,2.38,2.38,0,0,0-.91,2v6.58h-1V23.43h1v9.35a3.24,3.24,0,0,1,3-1.49q4,0,4,4.08v6.2Z"/><path class="cls-1" d="M250.9,29.62a.91.91,0,0,1-.56-.22.89.89,0,0,1-.25-.59c0-.44.27-.71.81-.8s.68.27.81.8a.72.72,0,0,1-.81.81m-.51,1.81h1V41.54h-1Z"/><path class="cls-1" d="M262.56,40.2a5.28,5.28,0,0,1-7.89-.54v6.63h-1V31.43h1v1.91a5.29,5.29,0,0,1,7.86-.56,5.33,5.33,0,0,1,0,7.42m-.74-6.69a4.08,4.08,0,0,0-3-1.24,4,4,0,0,0-3,1.22,4.25,4.25,0,1,0,6,0"/><path class="cls-1" d="M102.2,62.21a5.08,5.08,0,0,1-3.72,1.52,5,5,0,0,1-3.7-1.5,5.28,5.28,0,0,1,0-7.41,4.94,4.94,0,0,1,3.7-1.55,5.27,5.27,0,0,1,3.72,8.94m-.71-6.71a4.29,4.29,0,1,0,1.22,3,4.12,4.12,0,0,0-1.22-3"/><path class="cls-1" d="M113.14,63.56V57.51q0-3.21-2.89-3.21a2.69,2.69,0,0,0-2.15.84,3.21,3.21,0,0,0-.76,2.27v6.15h-1V53.45h1v1.22c.45-.9,1.43-1.35,2.91-1.35a3.75,3.75,0,0,1,2.89,1.08,4.24,4.24,0,0,1,1,3v6.15Z"/><polygon class="cls-1" points="142.79 63.56 139.07 48.87 133.31 64 127.56 48.84 123.81 63.56 122.81 63.56 127.25 45.34 133.31 61.16 139.14 45.32 143.81 63.56 142.79 63.56"/><path class="cls-1" d="M154.56,63.56V61.82a5.2,5.2,0,0,1-9.25-3.31,5,5,0,0,1,1.49-3.69,5.27,5.27,0,0,1,7.76.39V53.45h1V63.56Zm-1.05-8a4.23,4.23,0,1,0,0,6,4.21,4.21,0,0,0,0-6"/><path class="cls-1" d="M163.45,54.94a3.61,3.61,0,0,0-.83-.47,2.69,2.69,0,0,0-.93-.17,1.38,1.38,0,0,0-.79.26,2.56,2.56,0,0,0-.63.64,3,3,0,0,0-.43.84,2.59,2.59,0,0,0-.16.86v6.66h-1V53.45h1v1.37a4,4,0,0,1,.83-1,1.65,1.65,0,0,1,1.13-.47,4,4,0,0,1,1.25.17,4.69,4.69,0,0,1,1.1.62Z"/><path class="cls-1" d="M167.07,51.63a.91.91,0,0,1-.56-.22.86.86,0,0,1-.25-.58q0-.66.81-.81.62,0,.81.81a.71.71,0,0,1-.81.8m-.51,1.82h1V63.56h-1Z"/><path class="cls-1" d="M176.64,63.56V57.51q0-3.21-2.88-3.21a2.72,2.72,0,0,0-2.16.84,3.21,3.21,0,0,0-.76,2.27v6.15h-1V53.45h1v1.22c.46-.9,1.43-1.35,2.92-1.35a3.74,3.74,0,0,1,2.88,1.08,4.25,4.25,0,0,1,1,3v6.15Z"/><path class="cls-1" d="M181.2,58.29a4.61,4.61,0,0,0,1.1,3.26,4.11,4.11,0,0,0,3.16,1.22,4.85,4.85,0,0,0,1.86-.34,4.19,4.19,0,0,0,1.88-1.79l.91.42a4.91,4.91,0,0,1-2.94,2.45,5.7,5.7,0,0,1-1.71.24,5.24,5.24,0,1,1,0-10.48,5.19,5.19,0,0,1,3.72,1.4,4.75,4.75,0,0,1,1.49,3.62Zm6.9-3.2a4.37,4.37,0,0,0-2.64-.84,4,4,0,0,0-4.12,3.09h8.21a3.43,3.43,0,0,0-1.45-2.25"/><polygon class="cls-1" points="199.73 63.56 199.61 45.86 200.59 45.86 200.71 62.55 205.63 62.55 205.63 63.56 199.73 63.56"/><path class="cls-1" d="M207.51,51.63a.93.93,0,0,1-.56-.22.81.81,0,0,1-.24-.58c0-.44.27-.71.8-.81s.68.27.81.81a.71.71,0,0,1-.81.8M207,53.45h1V63.56h-1Z"/><polygon class="cls-1" points="212.97 54.45 212.97 63.56 211.97 63.56 211.97 54.45 210.6 54.45 210.6 53.45 211.97 53.45 211.97 49.01 212.97 49.01 212.97 53.45 215.32 53.45 215.32 54.45 212.97 54.45"/><polygon class="cls-1" points="219.22 54.45 219.22 63.56 218.21 63.56 218.21 54.45 216.84 54.45 216.84 53.45 218.21 53.45 218.21 49.01 219.22 49.01 219.22 53.45 221.57 53.45 221.57 54.45 219.22 54.45"/><path class="cls-1" d="M224.14,58.29a4.66,4.66,0,0,0,1.1,3.26,4.11,4.11,0,0,0,3.16,1.22,4.85,4.85,0,0,0,1.86-.34,4.19,4.19,0,0,0,1.88-1.79l.91.42a4.91,4.91,0,0,1-2.94,2.45,5.65,5.65,0,0,1-1.71.24,5.24,5.24,0,1,1,0-10.48,5.19,5.19,0,0,1,3.72,1.4,4.75,4.75,0,0,1,1.49,3.62Zm6.9-3.2a4.37,4.37,0,0,0-2.64-.84,4,4,0,0,0-4.12,3.09h8.21A3.43,3.43,0,0,0,231,55.09"/><path class="cls-1" d="M240.84,54.94a3.67,3.67,0,0,0-.84-.47,2.6,2.6,0,0,0-.93-.17,1.33,1.33,0,0,0-.78.26,2.43,2.43,0,0,0-.64.64,3.33,3.33,0,0,0-.43.84,2.87,2.87,0,0,0-.16.86v6.66h-1V53.45h1v1.37a4.09,4.09,0,0,1,.84-1,1.63,1.63,0,0,1,1.12-.47,3.92,3.92,0,0,1,1.25.17,4.5,4.5,0,0,1,1.1.62Z"/></svg>