<svg id="Layer_1" data-name="Layer 1" xmlns="http://www.w3.org/2000/svg" viewBox="0 0 488 249"><defs><style>.cls-1{fill:#106d9b;}.cls-2{fill:#0e6c9a;}.cls-3{fill:#005b70;}.cls-4{fill:#00b490;}.cls-5{fill:#15a180;}.cls-6{isolation:isolate;}.cls-7{fill:#046799;}</style></defs><path class="cls-1" d="M130.61,147a19,19,0,0,0,1.44-2.31,5.79,5.79,0,0,0,.53-2.25h0v-.11l.06-.1a11.65,11.65,0,0,1,1.14-2.88s2.17-3,2.27-3.36.64-2.29,1.29-4.18,1.38-3.81,2.32-4.51a3.24,3.24,0,0,0,1.54-2.88c.23-1.59,2.58-3.67,3.07-4.6a6.56,6.56,0,0,0,.94-2.65v-.34s-.18-.18-.47-.55a.88.88,0,0,1-.23-.58,1.23,1.23,0,0,1,.76-1,3,3,0,0,0,.59-.38c.38-.52,1.87-1.91,2.09-3.14s.09-2,.89-2.71a3.52,3.52,0,0,0,1.41-2,12.09,12.09,0,0,1,1.64-3.46,3.37,3.37,0,0,0,.54-1.6l0-.22a2.1,2.1,0,0,1,0-.36A12.61,12.61,0,0,1,153.62,96c.7-1.1,1.83-3.2,1.8-3.79a15.77,15.77,0,0,1,.58-2.66,3.13,3.13,0,0,0,0-.35,9,9,0,0,0-.95-3.92c-.72-1-1.29-1.88-1.29-1.88l.71-.48s.57.86,1.29,1.85a9.69,9.69,0,0,1,1.11,4.43,3.84,3.84,0,0,1,0,.5,16.11,16.11,0,0,0-.57,2.51c-.05,1.14-1.22,3-1.94,4.25a12.39,12.39,0,0,0-1.1,4.4V101a2.1,2.1,0,0,1,.05.43,4.38,4.38,0,0,1-.68,2,10,10,0,0,0-1.22,3,17.16,17.16,0,0,1-2.05,2.7c-.34.21-.26.64-.55,2.19s-2,3.12-2.22,3.46a2.44,2.44,0,0,1-.76.57,2,2,0,0,0-.45.3l0,.05c.28.34.37.39.52.6a1.41,1.41,0,0,1,.15.82A7.24,7.24,0,0,1,145,120.3c-.65,1.08-2.9,3.31-2.94,4.25a4.13,4.13,0,0,1-1.92,3.49c-.51.31-1.38,2.22-2,4.08s-1.13,3.72-1.28,4.18c-.32.92-3,5.6-3.43,6.31a6.71,6.71,0,0,1-.62,2.51,17.78,17.78,0,0,1-1.51,2.43Z"/><path class="cls-1" d="M134.35,151.7a49,49,0,0,1,4.63-3.56c1.27-.66,3.69-2.24,3.81-3,.31-.92-.44-4,1.5-5.16,1.58-.86,3.9-2,4.58-2.43l.72-.43.48-.29.16.54a5,5,0,0,1,.18,1.15,1.26,1.26,0,0,1-.48,1.1l-.45-.74,0-.06a1.87,1.87,0,0,0,0-.3,2.28,2.28,0,0,0,0-.36l-.2.13c-.76.45-3,1.59-4.61,2.44-1.22.55-.83,3.24-1.09,4.62-.46,1.51-2.92,2.8-4.23,3.57a50.13,50.13,0,0,0-4.48,3.47h0Z"/><path class="cls-1" d="M161.39,163.88s-5.75-.79-7.47-1.5c-.23-.14-.46-.16-.62-.58v-.1s0-1.3-.16-2.76l0-.36a9.81,9.81,0,0,0-2.19.78,5.1,5.1,0,0,1-2.56.52c-.34,0-.58,0-.58,0l.06-.86h.52a4.63,4.63,0,0,0,2.09-.37,12.11,12.11,0,0,1,2.54-.93,5.51,5.51,0,0,0-.75-2.3c-.82-1-5.41-2.52-6.69-2.48a.64.64,0,0,0-.2,0,6.88,6.88,0,0,1-1.78.3,6.54,6.54,0,0,1-1.77.25,4.68,4.68,0,0,1-2.39-.6,22,22,0,0,1-2.94-2.05l-.2-.17.07-.26s.32-1.32.64-2.72.61-2.72.64-3l0,0a2.15,2.15,0,0,0-.26-.25,6.4,6.4,0,0,0-1-.67,5.86,5.86,0,0,0-2.16-.81h-1.28l-2.53-1.72a3.2,3.2,0,0,1-1.89,1.18,1.12,1.12,0,0,1-.35-.06l0-.72.32-.08a1.85,1.85,0,0,0,.89-.55,4.88,4.88,0,0,0,.6-.62l.24-.3,2.95,2h1a7.7,7.7,0,0,1,3.71,1.68c.29.27.55.44.6.91,0,.65-1,4.66-1.24,5.73a21.75,21.75,0,0,0,2.6,1.79,3.82,3.82,0,0,0,2,.48,5.5,5.5,0,0,0,1.57-.23l.07,0h.07a6.54,6.54,0,0,0,1.6-.27,2,2,0,0,1,.44-.05c1.7,0,6,1.39,7.32,2.76a5.59,5.59,0,0,1,.94,2.62,5.72,5.72,0,0,0,1.52-.7,5.65,5.65,0,0,1,2.48-1.05l.25,0,.15.2a14.06,14.06,0,0,0,4.4,3.38,29.6,29.6,0,0,0,3,1.43l.13,0,.07.13a2.4,2.4,0,0,1,.38,1.11.87.87,0,0,1-.77.9,20.24,20.24,0,0,0-2.36.7h0l-1.54.3Zm-7.13-2.3a5.07,5.07,0,0,0,.85.27c.71.2,1.67.39,2.62.57a27,27,0,0,0,3.7.35s3-.61,3.82-.75l.05,0v0a1.14,1.14,0,0,0-.12-.41l-.06-.14c-.86-.36-5.39-2.3-7.44-4.82l-.4.11a5.06,5.06,0,0,0-1.44.74,7.63,7.63,0,0,1-1.92.86c0,.18.05.37.07.54.12,1.19.15,2.27.16,2.66Z"/><path class="cls-1" d="M140,156.65a5.93,5.93,0,0,1,1.9-2.19c1-.51,2.29-1.74,2.22-2.35v-.33l.31-.09s.21-.06.69-.28a19.85,19.85,0,0,0,2.21-1.24c2-1.3,5-3.17,5-3.17l.45.74s-3,1.86-5,3.15a16.93,16.93,0,0,1-2.87,1.54c-.26,1.23-1.65,2.19-2.61,2.78a3.69,3.69,0,0,0-1.09,1.1,5.26,5.26,0,0,0-.46.72Z"/><path class="cls-1" d="M145.22,139.82v-.08c.1-.48-1.55-2.35-3.38-3.81a22.51,22.51,0,0,0-4.26-2.93,2,2,0,0,1-1.18-.68,13.65,13.65,0,0,1-1.22-1.34,19.61,19.61,0,0,1-1.7-2.38,21.77,21.77,0,0,0-2.16-2c-.84-.72-1.65-1.39-1.93-1.63a4.17,4.17,0,0,1-2.29-1,4.56,4.56,0,0,0-2.6-.62h-.4l-.07-.85a2.71,2.71,0,0,1,.47,0,5.33,5.33,0,0,1,3.15.82A3.51,3.51,0,0,0,129,124a2.82,2.82,0,0,0,.6.09h.15l.12.1s1,.83,2.06,1.73a16.29,16.29,0,0,1,2.36,2.29,17.84,17.84,0,0,0,3.18,3.84c.12.08.17.09.17.08a3.16,3.16,0,0,1,1.27.57c.54.32,1.2.77,1.9,1.29a30.22,30.22,0,0,1,4.06,3.54,3.92,3.92,0,0,1,1.25,2.2l0,.24Z"/><path class="cls-1" d="M147.37,159.43a16.1,16.1,0,0,0-1-3.18,13.31,13.31,0,0,0-1.27-2.8c-.4-.89-1.53-1.66-1.57-3a1.81,1.81,0,0,1,.11-.65,17.18,17.18,0,0,0,.88-4.3,1.15,1.15,0,0,0-.09-.61,2.82,2.82,0,0,0-.8-.67,3.4,3.4,0,0,0-.41-.19,16.87,16.87,0,0,1-4.79-2.77,16.07,16.07,0,0,1-3.38-3.05,5.68,5.68,0,0,0-1.95-1.34,20.15,20.15,0,0,0-2.82-1.18,12,12,0,0,1-3.36-2.67c-1.14-1.16-2.12-2.26-2.12-2.27l-.21-.24.18-.27s1.92-3,3.06-4.68a5,5,0,0,1,.9-1.11,9.28,9.28,0,0,0,1.13-1.53,6.63,6.63,0,0,0,1-2.33,2.79,2.79,0,0,1,1-1.78,10.23,10.23,0,0,1-1.28-.35c-1.74-.58-5.8-2.13-5.8-2.13l.31-.81s4,1.55,5.76,2.12a6.93,6.93,0,0,0,2.12.44h.14l.23.81a4.43,4.43,0,0,0-.79.47,2.05,2.05,0,0,0-.84,1.32,7.2,7.2,0,0,1-1.1,2.69,7.4,7.4,0,0,1-1.37,1.78l0,0-.16.2c-.13.16-.29.4-.48.66-.38.53-.84,1.24-1.29,1.93-.66,1-1.29,2-1.59,2.44.35.39,1.07,1.17,1.88,2a11.74,11.74,0,0,0,3,2.47,19.7,19.7,0,0,1,3,1.23,5.59,5.59,0,0,1,2.32,1.72,18.46,18.46,0,0,0,3.13,2.75,16.45,16.45,0,0,0,4.53,2.63,3.85,3.85,0,0,1,1.86,1.1,5.84,5.84,0,0,1,.25,1.2s-.79,3.54-1.12,4.57a1.36,1.36,0,0,0-.06.38c-.06.71.88,1.49,1.47,2.59a13.51,13.51,0,0,1,1.32,2.94c.41,1.4,1,2.38,1,3.43a1,1,0,0,0,.24.78h0l-.49.72a1.8,1.8,0,0,1-.62-1.51"/><path class="cls-1" d="M129.4,143.61m-.82-.25s1.48-6.44,1.77-7.44l.53-.31c.26-.89.25-3.09,1-4.54a15.47,15.47,0,0,0,1.52-2.66c.07-.82,1.07-4.62,2.34-5.67a8.79,8.79,0,0,0,.91-.67c.1-.11.13-.15.2-.5a9.2,9.2,0,0,1,2.17-3.55l.71-.58.28-.22.28.23a5.6,5.6,0,0,0,.6.39,11.44,11.44,0,0,0,2.11.82,4.49,4.49,0,0,1,2.09,1.2,4.22,4.22,0,0,0,1.54,1.11,12.08,12.08,0,0,1,3.53,2.67l-.1.66a3.93,3.93,0,0,1-1.43.56.56.56,0,0,1-.56-.38l.51-.16,0-.11V124l0,0a5.15,5.15,0,0,0,.49-.19,10.41,10.41,0,0,0-2.84-2,5.27,5.27,0,0,1-1.81-1.29,3.65,3.65,0,0,0-1.73-1,10.79,10.79,0,0,1-2.74-1.17c-.1.08-.24.21-.46.37a8.81,8.81,0,0,0-1.86,3,1.62,1.62,0,0,1-.44.94,9.68,9.68,0,0,1-1,.77c-.74.39-2.05,4.63-2,5-.07.93-1,1.79-1.64,3.08-.65,1.13-.66,3.24-1,4.36s-2.24,8.28-2.27,8.33Z"/><path class="cls-1" d="M139.52,118.74m-.38-.77.13-.1.11-.24a.62.62,0,0,0-.12-.33c-.41-.69-1.84-1.78-2.29-1.72l-.06,0c-.43.17-1.13.3-1.76.53s-1.12.53-1.15.76a15.85,15.85,0,0,0-.39,1.7l-.85,0a11.45,11.45,0,0,0-1.66-3.32c-1.21-1.52-1.65-3.11-2.73-4.45a6.45,6.45,0,0,0-1.41-1.33,3.27,3.27,0,0,0-.54-.29l.26-.82a5.53,5.53,0,0,1,2.36,1.9c1.21,1.53,1.64,3.11,2.73,4.45a10.44,10.44,0,0,1,1.3,2.23c0-.11.06-.23.1-.35a2.43,2.43,0,0,1,1.7-1.35c.68-.24,1.43-.4,1.7-.51a1.05,1.05,0,0,1,.4-.08,4.89,4.89,0,0,1,3,2.11,1.5,1.5,0,0,1,.27.8,1.33,1.33,0,0,1-.73,1.11Z"/><path class="cls-1" d="M137.61,144.56s.38-2.32,1.45-3.27a10.1,10.1,0,0,0,1.28-3c.44-1.38.81-2.79.86-3.11a8.49,8.49,0,0,1,2-2.49c1-1,2.12-2,2.7-2.49l.56.65c-.56.49-1.67,1.49-2.65,2.45a10.23,10.23,0,0,0-1.79,2,18.54,18.54,0,0,1-.57,3.26,19,19,0,0,1-1.88,3.31,3.7,3.7,0,0,0-.84,1.57,9.51,9.51,0,0,0-.31,1.19h0Z"/><path class="cls-1" d="M148.4,116.72a9,9,0,0,0-1.8.19,5.26,5.26,0,0,1-1,.15c-.6,0-.85-.29-1.46-.63a27.6,27.6,0,0,1-3.75-1.88c-2.27-1.51-2-4.1-2.64-8A77.31,77.31,0,0,1,137.3,97c0-1.36,0-2.41,0-2.78s-.08-.42-.11-.45l-.12,0H137l-.24-.82a.89.89,0,0,1,.32,0,1,1,0,0,1,.71.29,1.37,1.37,0,0,1,.38,1.07c0,.4,0,1.42,0,2.78a76.33,76.33,0,0,0,.44,9.36c.56,4.11.49,6.38,2.24,7.46a29.89,29.89,0,0,0,3.72,1.85c.73.43.8.53,1,.52a4.7,4.7,0,0,0,.81-.13,9.39,9.39,0,0,1,2-.21,5.76,5.76,0,0,1,4.47,1.78l-.65.57a4.9,4.9,0,0,0-3.82-1.49"/><path class="cls-1" d="M136.49,114.85a12.42,12.42,0,0,0,2.2-2.06c.71-1,3.74-5.22,4.1-6.61a25.33,25.33,0,0,1,1.75-4.8,33.51,33.51,0,0,0,2.55-7.8v0l0,0a26.82,26.82,0,0,0,1-4.31.85.85,0,0,0,0-.15c-.17-.5-.72-.68-1.79-1.88a.41.41,0,0,0-.34-.12,3.78,3.78,0,0,0-.93.16l-.18-.74A2.74,2.74,0,0,1,146,86.2a1.26,1.26,0,0,1,1,.42c.95,1.09,1.54,1.21,1.95,2.14a1.26,1.26,0,0,1,.07.46,22.88,22.88,0,0,1-1.05,4.52,34.38,34.38,0,0,1-2.61,8,25,25,0,0,0-1.71,4.67c-.5,1.77-3.5,5.86-4.23,6.89a12.67,12.67,0,0,1-2.39,2.25Z"/><path class="cls-1" d="M167.15,97.67a24.1,24.1,0,0,1-6.13-.73c-2.36-.81-2.46-2.43-3.59-3.4a10.33,10.33,0,0,0-3.59-1.92,16.2,16.2,0,0,1-4.78-3.83l-.1.13a5.2,5.2,0,0,0-.49.85c-.34.7-.65,1.53-.84,2-.51,1.35-1.68,1.83-2.79,2.39s-3.92.47-5.88.49c-1,0-1.66,0-1.66,0l0-.86s.67,0,1.63,0c1.87,0,5-.1,5.49-.4,1.18-.59,2-1,2.37-1.92a15.47,15.47,0,0,1,1.44-3.09,1.13,1.13,0,0,1,.85-.55.75.75,0,0,1,.64.41,16.29,16.29,0,0,0,4.36,3.54A11.42,11.42,0,0,1,158,92.9c1.44,1.34,1.35,2.58,3.29,3.22a23.67,23.67,0,0,0,5.93.69c.42,0,.85.06,1.28.06a16.45,16.45,0,0,0,3.9-.47,9.81,9.81,0,0,0,2.4-1,2.82,2.82,0,0,0,1.14-1c.22-.87,1.79-3.55,2-4.6s.56-2.17,1.55-2.59l.08,0a2.23,2.23,0,0,1-.35-1.29V84.75h.86V85.9a1.11,1.11,0,0,0,.41,1h0l1,.4-1,.4-.72.3c-.46.14-.53,1-.8,2.18,0,0-2.16,3.84-2.27,4.4s-.78,1.06-1.55,1.53a10.34,10.34,0,0,1-2.62,1.09,16.81,16.81,0,0,1-4.11.5q-.67,0-1.35-.06"/><path class="cls-1" d="M141.59,124.93a3.24,3.24,0,0,1-1.78-.49c-.33-.25-.1-.17-.33-.2a2.7,2.7,0,0,1-1.23-.55c-.46-.31-1-.72-1.53-1.15a14.53,14.53,0,0,1-2.43-2.34,2.71,2.71,0,0,0-.94-.83,5.41,5.41,0,0,0-.64-.33l.31-.8a4.62,4.62,0,0,1,2,1.5,18.6,18.6,0,0,0,4.42,3.63h0a1.11,1.11,0,0,1,.85.37c.12.09.37.24,1.34.32,1.94.22,3.64,2,4.7,1.94a1,1,0,0,0,.51-.13,7.56,7.56,0,0,0,1.38-2.7c.5-1.34.92-2.71,1.16-3.27a4.6,4.6,0,0,1,3-2.4,1.67,1.67,0,0,0,.95-.71,2.65,2.65,0,0,0,.26-.51,6.15,6.15,0,0,0,.08-1.05,5.86,5.86,0,0,0-.43-2.31c-.67-1.45-1.36-1.49-2.36-2.45-.71-.74-1.29-.59-2.7-1s-2.46-.77-3.25-2.21a3.86,3.86,0,0,0-1.08-1.21,3.47,3.47,0,0,0-.56-.32l.3-.81a4.44,4.44,0,0,1,2.09,1.92c.65,1.14,1.45,1.36,2.77,1.82s2,.26,3,1.24c.74.76,1.76,1,2.53,2.71a6.86,6.86,0,0,1,.51,2.67c0,.7-.08,1.19-.08,1.22v.05a2.82,2.82,0,0,1-1.84,1.83,3.83,3.83,0,0,0-2.45,1.91c-.19.45-.63,1.88-1.14,3.23s-1,2.65-1.77,3.15a1.89,1.89,0,0,1-.92.24c-1.71-.06-3.3-1.87-4.78-1.94"/><path class="cls-1" d="M153.9,114.82a3.69,3.69,0,0,1,2.18-2.33l.86-.52c1.5-.46,1,.17,2.5-1.12,1-.95,2-1.74,2.48-2.1-.36-.77-2.31-3.51-2.31-3.51l-2.15-1.13c-1.35-.41-3.71-1.44-4.48-1.42h-.07a5.7,5.7,0,0,0-2.9,2c-.78.89-2.26.89-3.65.92-.69,0-1.36,0-1.86,0a3.21,3.21,0,0,0-.75.06,2.36,2.36,0,0,1-1.05.32c-.45.07-1,.12-1.58.15-1.16.07-2.43.11-3,.18l-.28,0c-1.53,0-3.75-1.11-5.26-1.78a1.17,1.17,0,0,0-.46-.09,6.09,6.09,0,0,0-2.59,1,16.29,16.29,0,0,0-1.5,1l-.52-.68s2.61-2.08,4.61-2.12a1.8,1.8,0,0,1,.82.17c1.47.68,3.76,1.71,4.9,1.69H138c.64-.07,1.77-.11,2.86-.17a9.51,9.51,0,0,0,2.35-.29h0c.42-.31.74-.22,1.3-.26s1.2,0,1.86,0c1.34,0,2.73-.19,3-.59a6.45,6.45,0,0,1,3.42-2.31l.23,0a35.73,35.73,0,0,1,5.57,1.46,3.85,3.85,0,0,1,2.1,1.19,38.87,38.87,0,0,1,2.19,4.22l.15.31-.27.21s-1.29,1-2.71,2.28a5.26,5.26,0,0,1-3,1.66,4,4,0,0,0-1.64,1.19,7.18,7.18,0,0,0-.71.93Z"/><path class="cls-1" d="M158.68,103.63a4.74,4.74,0,0,1,1-2.94,9.59,9.59,0,0,0,2-3.66,55.43,55.43,0,0,0,1-6c.05-.62.07-1.26.06-1.88,0-1.52-.09-3-.19-4.09a3.62,3.62,0,0,1,0-.47,8.82,8.82,0,0,1,.62-3l.8.33a8.06,8.06,0,0,0-.56,2.7c0,.13,0,.26,0,.4.1,1.12.2,2.61.2,4.16,0,.64,0,1.3-.06,1.94a59.39,59.39,0,0,1-1,6.07,10.28,10.28,0,0,1-2.19,4.06,3.76,3.76,0,0,0-.86,2.4,1.6,1.6,0,0,0,0,.42l-.85.17a2.57,2.57,0,0,1,0-.59"/><path class="cls-1" d="M152.12,148.14c-.11-.85-2.55-6.42-3.69-9.86,0,0-1.72-4.49-2.48-7a7.41,7.41,0,0,1-.29-2.06,7.74,7.74,0,0,1,.53-2.87h0l.78.34a7.8,7.8,0,0,0-.44,2.52,6.37,6.37,0,0,0,.25,1.82c.69,2.35,1.55,3.23,2.72,6.73s3.28,9.12,3.47,10.27c0,.71,3.58,6.52,5.16,7.77l-.55.67c-1.86-1.62-5.22-7-5.46-8.32"/><path class="cls-1" d="M178.72,128.23s-1.5-1.27-2.52-2.3h-.1a.61.61,0,0,1-.25-.07l-.09.08a2.71,2.71,0,0,1-1.86.67h-.22l-.39,0v-.39a23.82,23.82,0,0,1,.34-4c-.51-.76-1.28-1.32-1.68-1.93,0,0-.32-1.15-.42-1.38l.74-.26.08,0,0,.06.13.21c.1.17.25.41.43.68.26.42.6.92.93,1.45.39-1.74.85-3,.95-3.48a25.42,25.42,0,0,1,1.54-3.78l.1-.19.22,0s1.29-.22,3.43-.65c1.86-.35,2.48-2.25,2.78-3.73s2.08-5.69,2.72-7.41a6.41,6.41,0,0,0,.34-1h0a7.06,7.06,0,0,1-.74-.4A3.08,3.08,0,0,1,184,97.58a5.33,5.33,0,0,1,.26-1.68,1,1,0,0,0,0-.32c0-1.29-1.55-4.23-1.89-5.58-.22-1.13-1.65-2.32-1.94-2.24h0l-.19-.84.2,0c1.09.09,2.33,1.4,2.77,2.9.26,1.16,1.91,4,1.92,5.79a2.2,2.2,0,0,1-.07.58,4.31,4.31,0,0,0-.23,1.42,2.26,2.26,0,0,0,.74,2c.29.18.49.26.7.38a.83.83,0,0,1,.46.72,4.6,4.6,0,0,1-.39,1.36,75.33,75.33,0,0,0-2.26,7.39s-1.42,3.8-3.88,4.3c-1.64.33-2.78.53-3.24.61a22.67,22.67,0,0,0-1.37,3.36c-.06.28-.17.64-.3,1.09.18.06.18.11.39.18a5.63,5.63,0,0,0,1.1.38c2,.53,3.51.75,4.51,1,.41.09.95.17,1.41.31s1,.4,1,1.06a1.22,1.22,0,0,1-.07.38,7.2,7.2,0,0,1-1.4,2.64c-.6.6-3,3.51-3,3.52l-.29.34Zm-1.11-2.14c.51.48,1,.92,1.34,1.2.64-.78,2.22-2.7,2.77-3.24a6.59,6.59,0,0,0,1.19-2.32l0-.09-.05-.06a1.25,1.25,0,0,0-.37-.18c-.36-.12-.88-.19-1.34-.29-.94-.21-2.47-.43-4.54-1a8.43,8.43,0,0,1-1.17-.4l0,.13a.5.5,0,0,0,0,.25c0,1.11,1,3.75,1.14,4.84V125c.3.32.69.7,1.08,1.07m-3.45-.35a1.63,1.63,0,0,0,1-.4,1.3,1.3,0,0,1,.31-.24,1.29,1.29,0,0,1-.23-.53l-.88-1.32a23.48,23.48,0,0,0-.18,2.49m.92-2.93c-.15-.52-.29-1-.39-1.55-.05.23-.11.48-.14.72l.53.83"/><path class="cls-1" d="M173.37,111.49c-1.18-.6-3.2-.14-4.3-.64,0,0-3.29-1.68-4.41-1.66,0,0-1.85.12-2.11.12h-.14l.09-.86h.05a4.43,4.43,0,0,0,1.39-.32,1.65,1.65,0,0,1,.58-.1c1.58,0,4.09,1.45,4.88,1.83.61.35,2.84.16,4.34.84l.11,0c.31.07,1.22-.74,2-1.86a37,37,0,0,0,2-3.36,9.29,9.29,0,0,0,1-3.94v0a12.63,12.63,0,0,1,.29-3.63,70.25,70.25,0,0,1,2.57-6.83,45.32,45.32,0,0,0,1.9-4.45l.81.31a47.52,47.52,0,0,1-2,4.58,35.23,35.23,0,0,0-2.09,6.55c-.42,1.86-.64,3.47-.64,3.57a10.12,10.12,0,0,1-1.14,4.3,39.46,39.46,0,0,1-2.08,3.44c-.86,1.15-1.64,2.17-2.69,2.23a1.12,1.12,0,0,1-.48-.1m6.25-10.22-.19-.12Z"/><path class="cls-1" d="M175.7,111.57a12,12,0,0,0-.44-2.9,22.66,22.66,0,0,1-.4-5.17c0-2-.22-4.12-.62-4.59a2,2,0,0,1-.34-1.21,9.73,9.73,0,0,1,.91-3.32,11,11,0,0,0,.86-2.45c.09-.86-1.48-1.59-2.9-2.93a21.61,21.61,0,0,0-2.63-2.21l.49-.71a24.34,24.34,0,0,1,2.76,2.31c1.16,1.24,3,1.81,3.14,3.54a10,10,0,0,1-.92,2.77,9.44,9.44,0,0,0-.86,3,1.28,1.28,0,0,0,.18.7c.68,1,.71,3,.79,5.08a22.82,22.82,0,0,0,.35,4.89,11.74,11.74,0,0,1,.47,3.13,3.94,3.94,0,0,0,.51,2.1l-.61.61a4.32,4.32,0,0,1-.74-2.64"/><path class="cls-1" d="M168.8,110.4h0l.8-.32a16,16,0,0,0,1.36,2.46,17.78,17.78,0,0,0,4.52,4.67l-.49.71a18.71,18.71,0,0,1-6.19-7.52"/><path class="cls-1" d="M171.55,118.91a13.35,13.35,0,0,1-1.28-4.34,1.45,1.45,0,0,1,.62-1.36l.43.75c-.08,0-.19.2-.19.61a8.29,8.29,0,0,0,.6,2.5c.17.5.35.92.47,1.19a.57.57,0,0,0,.4-.27,6.39,6.39,0,0,1,1.3-1.32v0l.52.68a6.2,6.2,0,0,0-1.08,1.06,1.63,1.63,0,0,1-1.38.72l-.29,0Z"/><path class="cls-1" d="M183.21,121.46s.7-.19,1.44-.47a3.52,3.52,0,0,0,1.49-.88l.81.3c-.34.73-1.2,1-2,1.38a14.54,14.54,0,0,1-1.54.5Z"/><path class="cls-1" d="M183,131.61l-.27-.15.06-.3.21-1.07a.7.7,0,0,0,0-.24,43.55,43.55,0,0,0-1.09-5.83l.83-.21a43.64,43.64,0,0,1,1.12,6c0,.14,0,.27,0,.4-.08.36-.13.6-.16.75a7,7,0,0,0,.76.32,7.08,7.08,0,0,0,2.4.45,5,5,0,0,0,1.46-.21,20.38,20.38,0,0,0,.17-2.47,61.47,61.47,0,0,1,1.16-6.73c0-.11-.15-.33-.36-.72-.06-.33-1.72-.94-2.7-1.28a2,2,0,0,1-.81-.49.79.79,0,0,1-.17-.49c.09-.74.59-1,.62-1.54a40.68,40.68,0,0,0,.92-5.42,2.82,2.82,0,0,0,0-.58c-.28-1.25-1.77-3.52-2.28-4.81,0-.24-1.58-1-3.06-1.47s-2.95-.83-2.95-.83l.19-.84s1.48.34,3,.84,3.13,1,3.6,2c.44,1.14,2,3.4,2.33,4.93a3.06,3.06,0,0,1,.07.77,40.68,40.68,0,0,1-.92,5.52,2.88,2.88,0,0,1-.4,1,3.1,3.1,0,0,0-.22.36l.08.05a1.86,1.86,0,0,0,.36.15c.3.13.7.26,1.1.41a3.83,3.83,0,0,1,2.05,1.29l.43.86.07.14,0,.15s-1.18,5.42-1.18,6.69a22,22,0,0,1-.22,2.87l0,.25-.24.08a5.82,5.82,0,0,1-2,.35,8.64,8.64,0,0,1-3.86-1"/><path class="cls-1" d="M186.16,100.35a7.87,7.87,0,0,0,2-.9c.21-.16.28-.31.27-.33s0-.21,0-.34c0-.31,0-.65,0-1,0-.52,0-1.05.46-1.46a17.18,17.18,0,0,0,1.44-1.51c.55-.61.84-.83.85-.86l.55.68a6.42,6.42,0,0,0-.76.76A14.26,14.26,0,0,1,189.39,97a.39.39,0,0,0-.07.18,3.32,3.32,0,0,0,0,.6c0,.31,0,.65,0,1,0,.13,0,.26,0,.39-.12.86-.91,1.19-1.57,1.52a8.21,8.21,0,0,1-1.34.49Z"/><path class="cls-1" d="M189.72,122.1a10.44,10.44,0,0,0,.72-1.86c.31-1,.74-4.46,1-5.76a9.84,9.84,0,0,0,.18-1.52,5.61,5.61,0,0,0-.12-1,6.08,6.08,0,0,1-.1-1.34,60.18,60.18,0,0,1,.42-6c.24-2,2-4.39,2.88-5.45a16.17,16.17,0,0,1-5.21-2.84l.55-.66s2.87,2.37,5.5,2.81l.76.13-.5.58a21.9,21.9,0,0,0-1.49,2,9.27,9.27,0,0,0-1.64,3.58c-.2,1.75-.4,4.32-.4,5.91a6.3,6.3,0,0,0,.07,1.17,6.23,6.23,0,0,1,.15,1.19,10.51,10.51,0,0,1-.21,1.66c-.21,1.29-.64,4.65-1,5.86a12.64,12.64,0,0,1-.79,2Z"/><path class="cls-1" d="M196.33,113.28a2.34,2.34,0,0,0-.85-.27,1.07,1.07,0,0,0-.61.28,2.67,2.67,0,0,1-1.48.66,6.86,6.86,0,0,1-.9,0l-2,0a6.54,6.54,0,0,0-.88,0h-.2a6.32,6.32,0,0,1-2.73-1.1s0,0-.13,0a28.64,28.64,0,0,1-2.86.46,1.8,1.8,0,0,1-1.92-1.19l.83-.21,0,.06.14.18a1.18,1.18,0,0,0,.93.3c.95,0,2-.44,2.86-.45a1,1,0,0,1,.6.15,6,6,0,0,0,2.26,1h.09a9.09,9.09,0,0,1,1,0l2,0a6.28,6.28,0,0,0,.77,0,1.91,1.91,0,0,0,1.11-.51,1.77,1.77,0,0,1,1.11-.44,3.2,3.2,0,0,1,1.2.33,10.54,10.54,0,0,0,3.13.77h.1a2.47,2.47,0,0,0,0-.53,11.33,11.33,0,0,0-.72-3.84,61.32,61.32,0,0,1-3-6.15,5.82,5.82,0,0,1-.49-1.43c0-.44.19-.88.19-1.4a2.11,2.11,0,0,0-.48-1.35c-.86-1.13-3.81-2.9-4.77-4s-3-3.55-3.85-4.71-2.58-2.06-3-2.49c-.17-.21-3.63-2.42-4.69-2.45-1.23-.1-6.07-1-8.22-1.26a3.28,3.28,0,0,1,.15,1,2.89,2.89,0,0,1-.16,1c-.41,1.19-.54,4.34-1,5.75a18.77,18.77,0,0,0-.7,4.32,4.48,4.48,0,0,1-.26,1.52,36.51,36.51,0,0,1,.55,4.51c0,1.23.57,8.5.57,8.5l-.85.07s-.58-7.23-.58-8.57a44.19,44.19,0,0,0-.56-4.49v-.12l.05-.12a3.84,3.84,0,0,0,.23-1.3,19.79,19.79,0,0,1,.74-4.6c.4-1.17.54-4.33,1-5.73a2.16,2.16,0,0,0,.12-.71,2.37,2.37,0,0,0-.18-.89,1,1,0,0,0-.17-.32l-.51-.72.89,0c1.61.08,7.68,1.23,9,1.34,1.64.18,4.74,2.26,5.23,2.7a15.54,15.54,0,0,1,3.11,2.59c.78,1.09,2.94,3.69,3.79,4.64s3.74,2.66,4.82,4a2.92,2.92,0,0,1,.64,1.88,12.18,12.18,0,0,1-.18,1.39l0,.06a1.53,1.53,0,0,0,.09.24,8.22,8.22,0,0,0,.32.81c.26.65.64,1.47,1,2.3.78,1.65,1.65,3.38,1.87,3.68a11,11,0,0,1,.88,4.34,3.08,3.08,0,0,1-.06.71.74.74,0,0,1-.43.61,1.5,1.5,0,0,1-.51.07,11.26,11.26,0,0,1-3.48-.83"/><path class="cls-1" d="M188.44,131.55a16.14,16.14,0,0,1,3-1.81c1.27-.52,4.37-2.76,6.09-3.52a2.36,2.36,0,0,0,.77-.46h0a1.71,1.71,0,0,1-.18-.65V125a4.06,4.06,0,0,0,0-.51,5.14,5.14,0,0,0-.37-1.81c-.44-1.2-1.7-6.56-2.33-7.53a7.24,7.24,0,0,1-.86-3.68c0-.87.81-3.74,1-5.23a28.84,28.84,0,0,0,.14-3.28c0-.92,0-1.64,0-1.64l.85,0s0,.73,0,1.66a27.26,27.26,0,0,1-.15,3.4c-.22,1.54-1,4.55-1,5.11a6.69,6.69,0,0,0,.72,3.22c.81,1.32,2,6.59,2.42,7.69a6,6,0,0,1,.42,2.11,5.35,5.35,0,0,1,0,.61v0a4,4,0,0,1,.18.66c0,.55-.46.87-1.29,1.24-1.58.68-4.63,2.9-6.1,3.53a4.75,4.75,0,0,1-2.82,1.69Z"/><path class="cls-1" d="M198.49,125.89c1.14-1.88,1.44-5.41,1.44-8.17,0-2.28-.19-4-.19-4l.86-.09s.19,1.81.19,4.13a18.86,18.86,0,0,1-2,8.59Z"/><path class="cls-1" d="M123.6,123.43A40.74,40.74,0,0,1,132,98.13c10.63-13.64,22.08-16.58,29.84-16.58a26.58,26.58,0,0,1,9.45,1.58l-.34.8a22.85,22.85,0,0,0-8.29-1.21l-1.69.13c-7.55,0-17.79,2.37-28.28,15.81-5.71,7.31-7.87,16.22-7.87,24.89l-.39-.12c0,18.87,12.08,37,29.74,38l-.05.86c-20.28-2.06-30.56-19.63-30.54-38.82"/><path class="cls-1" d="M148.41,88.5a2,2,0,0,0,.65-.34l.31-.27.61.61a3.37,3.37,0,0,1-1.35.83Z"/><path class="cls-1" d="M145.13,151.52l-.09.09h0a1.27,1.27,0,0,0-.39-.05,2.75,2.75,0,0,0-.46,0l-.12-.86a5.65,5.65,0,0,1,.58,0,2.07,2.07,0,0,1,.67.09.72.72,0,0,1,.54.68l0,.25Z"/><path class="cls-1" d="M137,124a2.51,2.51,0,0,1-1.25-.53l.52-.69a1.86,1.86,0,0,0,.29.19,1.47,1.47,0,0,0,.41.16v-.25h.86V123a1.13,1.13,0,0,1-.21.72.83.83,0,0,1-.6.27Z"/><path class="cls-1" d="M136.64,106.56a1.62,1.62,0,0,1-.18-.73h.86v.09l.08.25a.52.52,0,0,0,.55.3v.86h0a1.39,1.39,0,0,1-1.29-.77"/><path class="cls-1" d="M160.74,108.69c0-.53.49-.92,1.16-1l.17.85a1,1,0,0,0-.45.17h0a.6.6,0,0,0,.15.27,2.05,2.05,0,0,0,.19.2l-.55.66a1.75,1.75,0,0,1-.65-1.13"/><path class="cls-1" d="M166.79,97.4l.81-.3a1.94,1.94,0,0,0,.26.47.94.94,0,0,0,.69.42l.15,0,.14.85a1.36,1.36,0,0,1-.29,0,2.12,2.12,0,0,1-1.76-1.45m0,0Z"/><path class="cls-1" d="M170,110.26s.18-.19.29-.36a2.71,2.71,0,0,1-.8-.06s-.27,0-.32-.43.27-.36.28-.4l.16.4h0l.13-.39h0c.08,0,.29,0,.67,0a1,1,0,0,1,.55.15.64.64,0,0,1,.27.52,2.17,2.17,0,0,1-.66,1.16Z"/><path class="cls-1" d="M189.81,97.52a2.47,2.47,0,0,1-.75-.12l.25-.82.17,0a1.75,1.75,0,0,0,.33,0l.13,0h0l.05.1.75.08a.87.87,0,0,1-.89.71Z"/><path class="cls-1" d="M127.85,105.6l.1-.42.35-.25-.35.25-.1.42-.16,0-.09-.14a1.38,1.38,0,0,1-.29-.79.82.82,0,0,1,.31-.64,1.24,1.24,0,0,1,.78-.22h.23c.78,0,1.37.3,1.41.93a1,1,0,0,1-.61.85,1.76,1.76,0,0,1-.72.15,4.69,4.69,0,0,1-.86-.11m.86-.76a.68.68,0,0,0,.33,0l.08,0a1.92,1.92,0,0,0-.57-.11h-.15a.51.51,0,0,0-.22,0l0,.13a2.28,2.28,0,0,0,.48,0"/><path class="cls-1" d="M148.87,119.44c.67-4.11,2.35-9.45-1.52-12.41-3.21-2.46-6.62-.43-8.81,1.1a17.76,17.76,0,0,1-2.92,1.58,11.86,11.86,0,0,1-2.25.43c-.28,0-.55.09-.82.15a13.54,13.54,0,1,0,16.26,10.38,3.29,3.29,0,0,1,.06-1.23m-16.33,13.5c-.74-.8.27-1,.27-1,9.29,2.74,11.26-5.06,11.56-5.54s.56,0,.56,0c-3.53,9.75-11.77,7.17-12.39,6.5m10-22.38a2.19,2.19,0,0,1,1.65-2.61,2.17,2.17,0,0,1,1,4.24,2.18,2.18,0,0,1-2.62-1.63"/><path class="cls-1" d="M158.17,92.17a1.29,1.29,0,0,1,1.44-1.06,1.26,1.26,0,1,1-1.44,1.06m.43.06a.83.83,0,0,0,1.65.25.84.84,0,0,0-.7-1,.83.83,0,0,0-1,.7"/><path class="cls-1" d="M138.56,95.57a1.85,1.85,0,1,1,1.54,2.11,1.84,1.84,0,0,1-1.54-2.11m.55.09a1.29,1.29,0,1,0,1.46-1.08,1.28,1.28,0,0,0-1.46,1.08"/><path class="cls-1" d="M159.5,92.33c-1.18-1.52-11.15-.86-15.26-.22s-3.69,3.8-3.69,3.8c.09,1.22.82,2.46,5.88,2.6s14.24-4.66,13.07-6.18M141.74,96a.65.65,0,0,1-.56-.75.66.66,0,1,1,1.3.2.64.64,0,0,1-.74.55m16.52-2.78a.53.53,0,0,1-.43-.6.51.51,0,0,1,.59-.44.53.53,0,0,1,.44.6.54.54,0,0,1-.6.44"/><path class="cls-1" d="M137.83,96.36a1.17,1.17,0,0,1,1.34-1,1.16,1.16,0,0,1-.35,2.3,1.17,1.17,0,0,1-1-1.33m.56.09a.61.61,0,0,0,.51.69.6.6,0,0,0,.69-.51.61.61,0,1,0-1.2-.18"/><path class="cls-1" d="M135,95.48l-2.25,2.2s-.61-.17-.72.16-.54,1.2-.13,1.75.54,1.56,6.12-2.73l.38.34-4.59,3.25a1.77,1.77,0,0,1-2.65-.62c-.82-1.35.06-3.16,3.84-4.35"/><path class="cls-1" d="M122.74,166.59l1-.8.29.34.1,0,1.19-1,0-.12-.28-.34,1-.83a.32.32,0,0,0,0-.32c-.14-.15-6-7.24-6-7.24a.41.41,0,0,0-.52.08l-.47.38-2.19,1.81-.17.13a.42.42,0,0,0-.15.51s5.85,7.08,6,7.24a.34.34,0,0,0,.32.09"/><path class="cls-1" d="M209.51,167.5l.24,1.61-.57.09a.15.15,0,0,0-.12.1l.29,2a.16.16,0,0,0,.15.07l.56-.09.27,1.63a.49.49,0,0,0,.39.19c.25-.05,12.06-1.84,12.06-1.84a.55.55,0,0,0,.28-.64l-.12-.77c-.2-1.29-.55-3.66-.55-3.66l0-.27a.55.55,0,0,0-.46-.52s-11.8,1.8-12.07,1.82-.31.32-.31.32"/><path class="cls-1" d="M166.7,218l.33,1.05-.37.13-.08.08.39,1.28.12,0,.37-.11.34,1.07a.31.31,0,0,0,.29.09c.16-.06,7.95-2.47,7.95-2.47a.39.39,0,0,0,.12-.46l-.16-.51-.74-2.41,0-.19a.36.36,0,0,0-.37-.29l-8,2.47c-.16,0-.19.24-.19.24"/><path class="cls-1" d="M55.45,187.06l1.2-.79.28.42.11.06,1.45-.95v-.14l-.28-.41,1.19-.82a.37.37,0,0,0,0-.37c-.14-.18-5.91-8.83-5.91-8.83a.47.47,0,0,0-.61,0l-.56.38-2.68,1.77-.21.14a.47.47,0,0,0-.24.55s5.78,8.65,5.9,8.85a.39.39,0,0,0,.36.13"/><path class="cls-2" d="M74.3,110.91s-1.61,1.37.06,0a7.32,7.32,0,0,1,3.34-1.69,8.91,8.91,0,0,1,4.52.63l1,1a2.09,2.09,0,0,0-.14.84l1.3,1.28a1,1,0,0,0,1.06,0l1.33,1.29a1.32,1.32,0,0,0,.07,1l1.38,1.35a1.09,1.09,0,0,0,.74-.15l2.17,2.09a1.73,1.73,0,0,0-.13.89l1.25,1.21a1,1,0,0,0,.82-.18l2,2a2.47,2.47,0,0,0,0,1l1.4,1.36a1.7,1.7,0,0,0,1,0l2.35,2.3c-.21.55.29,1.59.29,1.59l1.61,1.58s1.45-.17,3.67,2.32c3.64,3.65,6.18,6.25,6.68,7.68s.93,6.74,1.12,8.49a3.79,3.79,0,0,0,1.52,2.66l1,.12,2.27,2.22v.92a7.36,7.36,0,0,1-1.69,2.23l-.52.56a8,8,0,0,1-2.2,1.73h-.92L110.42,157l-.14-1a3.79,3.79,0,0,0-2.68-1.45c-1.77-.15-7.07-.45-8.53-.92s-4.09-3-7.83-6.5c-2.54-2.17-2.39-3.61-2.39-3.61l-1.62-1.58s-1.07-.49-1.61-.26l-2.35-2.29s.22-.68,0-1L81.9,137a2.68,2.68,0,0,0-1,0l-2-2a1,1,0,0,0,.17-.82L77.79,133a1.84,1.84,0,0,0-.87.14L74.75,131a1.05,1.05,0,0,0,.15-.75l-1.38-1.35a1.4,1.4,0,0,0-1,0l-1.34-1.29a1.05,1.05,0,0,0-.06-1.07l-1.31-1.27a2.14,2.14,0,0,0-.83.17l-1.07-1a8.89,8.89,0,0,1-.72-4.52,7.15,7.15,0,0,1,1.6-3.35c1.39-1.7.06-.07.06-.07Z"/><path class="cls-1" d="M157.61,209.71s.22,1.28,0-.06a4.4,4.4,0,0,1,.18-2.3,5.5,5.5,0,0,1,1.76-2.19l.89-.22a1.39,1.39,0,0,0,.4.35l1.08-.29c.33-.11.36-.54.36-.54l1.11-.3a.83.83,0,0,0,.53.27l1.16-.3a.67.67,0,0,0,.14-.44l1.81-.47a1.09,1.09,0,0,0,.43.34l1-.27a.65.65,0,0,0,.17-.5l1.66-.43a1.45,1.45,0,0,0,.56.33l1.16-.3c.21-.13.3-.55.3-.55l2-.52c.22.3.93.36.93.36l1.36-.36s.36-.81,2.38-1.2c3.09-.75,5.27-1.27,6.19-1.07a39.29,39.29,0,0,1,4.84,2.11,2.39,2.39,0,0,0,1.9.05l.38-.49,1.89-.5.49.29a4.51,4.51,0,0,1,.65,1.6l.13.46a4.55,4.55,0,0,1,.2,1.72l-.28.48-1.9.5-.57-.24a2.28,2.28,0,0,0-1.61,1,44.2,44.2,0,0,1-3.21,4.21c-.72.62-2.87,1.22-5.93,2.07-2,.65-2.67.12-2.67.12l-1.36.35s-.6.41-.65.77l-2,.51s-.28-.34-.52-.34l-1.18.31a1.36,1.36,0,0,0-.3.55l-1.68.43a.7.7,0,0,0-.38-.36l-1,.29a1.1,1.1,0,0,0-.2.49l-1.81.48s-.13-.28-.35-.31l-1.14.29a.82.82,0,0,0-.34.5l-1.11.28a.64.64,0,0,0-.58-.3l-1.08.29a1.26,1.26,0,0,0-.18.5l-.89.23a5.5,5.5,0,0,1-2.61-1,4.64,4.64,0,0,1-1.27-1.92c-.46-1.28,0,0,0,0Z"/><path class="cls-1" d="M100.18,164.25s-.5,0,0,0a1.72,1.72,0,0,1,.85.26,2.15,2.15,0,0,1,.66.87v.35l-.17.12v.44c0,.13.18.18.18.18v.44a.43.43,0,0,0-.16.17v.47l.16.09,0,.73a.48.48,0,0,0-.18.12v.42l.18.1v.67l-.17.18v.47l.18.16v.78c-.12.06-.21.32-.21.32v.53s.27.22.23,1a8.46,8.46,0,0,1-.15,2.42,17.32,17.32,0,0,1-1.23,1.62.91.91,0,0,0-.19.71l.15.19v.76l-.16.16a1.93,1.93,0,0,1-.66.09h-.17a1.84,1.84,0,0,1-.67-.07l-.15-.16,0-.75.14-.19a.94.94,0,0,0-.21-.7,14.93,14.93,0,0,1-1.29-1.58,8,8,0,0,1-.24-2.42c-.07-.79.19-1,.19-1v-.54s-.1-.26-.23-.32v-.78l.18-.16v-.47a.54.54,0,0,0-.19-.17v-.67l.17-.11v-.41a.39.39,0,0,0-.17-.12v-.73l.15-.1v-.46a.32.32,0,0,0-.16-.17v-.44s.16-.06.16-.19v-.44l-.17-.11,0-.35a2,2,0,0,1,.64-.89,1.67,1.67,0,0,1,.83-.3c.52-.06,0,0,0,0Z"/><path class="cls-1" d="M82.55,84.3s-.26-.37,0,0a1.57,1.57,0,0,1,.3.75,1.86,1.86,0,0,1-.21,1l-.23.21-.18,0-.3.25,0,.23-.29.26h-.22l-.3.28v.16l-.48.43-.19,0-.28.25,0,.19-.45.39-.23,0-.32.28v.23l-.53.46a.57.57,0,0,0-.35,0l-.36.32s0,.32-.57.75a7.08,7.08,0,0,1-1.76,1.31,15.36,15.36,0,0,1-1.84.1.81.81,0,0,0-.59.29l0,.2-.5.45h-.21a1.47,1.47,0,0,1-.45-.39l-.11-.13a1.83,1.83,0,0,1-.34-.51l0-.19.51-.45.21,0a.8.8,0,0,0,.37-.55A13.87,13.87,0,0,1,73,88.92a8.07,8.07,0,0,1,1.52-1.58c.51-.51.82-.45.82-.45l.37-.32s.12-.23.07-.34l.54-.47.22,0,.32-.28a.66.66,0,0,0,0-.23l.45-.39a.21.21,0,0,0,.18.05l.28-.24a.47.47,0,0,0,0-.2l.48-.43.17,0,.3-.28,0-.2.29-.27s.13.09.23,0l.29-.27v-.17l.22-.21a1.91,1.91,0,0,1,1-.08,1.46,1.46,0,0,1,.7.39c.34.33,0,0,0,0Z"/><path class="cls-1" d="M68.53,185.33s.37,0,0,0a1.21,1.21,0,0,1-.61-.21,1.49,1.49,0,0,1-.45-.64v-.26l.13-.07v-.31a.17.17,0,0,0-.12-.15v-.31l.12-.12v-.33l-.11-.08v-.52l.12-.09v-.3l-.12-.08v-.48l.14-.12v-.34l-.13-.11v-.57c.09,0,.17-.23.17-.23v-.39s-.19-.16-.15-.73a5.71,5.71,0,0,1,.18-1.74,10.22,10.22,0,0,1,.92-1.14.64.64,0,0,0,.15-.5l-.1-.14v-.54l.11-.12a1.18,1.18,0,0,1,.48,0l.13,0a1.47,1.47,0,0,1,.47.08l.11.1v.55l-.11.15a.66.66,0,0,0,.14.5,11.32,11.32,0,0,1,.89,1.17,6.28,6.28,0,0,1,.11,1.74c0,.58-.16.73-.16.73v.39l.15.23v.56l-.13.12v.34l.12.13v.47l-.12.08v.3l.12.09v.52l-.1.07v.33l.11.13v.32a.17.17,0,0,0-.12.13v.31l.12.09v.25a1.62,1.62,0,0,1-.47.63,1.32,1.32,0,0,1-.61.2c-.38,0,0,0,0,0Z"/><path class="cls-1" d="M121.86,87.44s.32.35,0,0a1.56,1.56,0,0,1-.39-.72,1.85,1.85,0,0,1,.1-1l.21-.24.19,0,.27-.3a.23.23,0,0,0,0-.24l.27-.3a.31.31,0,0,0,.22,0l.29-.31-.05-.17.45-.49.2,0,.25-.28a.22.22,0,0,0,0-.19l.42-.46h.23l.29-.32,0-.23.49-.53c.12,0,.34-.08.34-.08l.34-.37s-.05-.31.49-.81A7.06,7.06,0,0,1,128,78.88a16.14,16.14,0,0,1,1.87-.32.81.81,0,0,0,.56-.35l0-.22.48-.52h.2a1.61,1.61,0,0,1,.5.34l.13.12a1.68,1.68,0,0,1,.4.47v.2l-.46.52-.22,0a.82.82,0,0,0-.3.6,16.18,16.18,0,0,1-.13,1.89,8.19,8.19,0,0,1-1.37,1.77c-.46.57-.78.55-.78.55l-.33.38a.61.61,0,0,0-.05.35l-.49.54h-.21l-.3.32,0,.23-.42.45-.17,0-.27.28,0,.2-.44.49-.17,0-.29.31v.21l-.27.3a.26.26,0,0,0-.24,0l-.26.3,0,.19-.22.24a2.16,2.16,0,0,1-1,.2,1.71,1.71,0,0,1-.75-.33c-.38-.29,0,0,0,0Z"/><path class="cls-1" d="M184.73,173.49s.08.78,0,0a2.69,2.69,0,0,1,.18-1.37,3.2,3.2,0,0,1,1.14-1.25l.54-.1a.75.75,0,0,0,.22.21l.67-.12c.2-.06.24-.32.24-.32l.67-.14a.47.47,0,0,0,.31.18l.7-.14c.11-.07.11-.26.11-.26l1.1-.21a.56.56,0,0,0,.23.22l.64-.13a.41.41,0,0,0,.12-.29l1-.2a.91.91,0,0,0,.31.23l.71-.15c.14-.07.2-.32.2-.32l1.2-.23c.12.17.55.24.55.24l.82-.17s.25-.47,1.47-.62a12.8,12.8,0,0,1,3.75-.43,23.72,23.72,0,0,1,2.83,1.45,1.44,1.44,0,0,0,1.13.09l.24-.28,1.16-.23.28.19a2.54,2.54,0,0,1,.34,1l0,.28a2.69,2.69,0,0,1,.06,1l-.18.28-1.16.23-.33-.16a1.4,1.4,0,0,0-1,.51,26.5,26.5,0,0,1-2.07,2.41,13,13,0,0,1-3.63,1c-1.2.32-1.6,0-1.6,0l-.83.16s-.37.22-.41.44l-1.2.22s-.16-.2-.3-.22l-.71.14a1.16,1.16,0,0,0-.22.33l-1,.2a.42.42,0,0,0-.22-.23l-.63.13a.67.67,0,0,0-.15.29l-1.1.22s-.07-.16-.19-.19l-.71.13a.53.53,0,0,0-.21.28l-.67.13a.4.4,0,0,0-.34-.2l-.66.13a.71.71,0,0,0-.13.3l-.54.1a3.21,3.21,0,0,1-1.52-.72,2.68,2.68,0,0,1-.7-1.2c-.22-.79,0,0,0,0Z"/><path class="cls-1" d="M54.38,172.47s.84-.07,0,0a3,3,0,0,1-1.48-.24A3.53,3.53,0,0,1,51.55,171l-.09-.58a.86.86,0,0,0,.24-.23l-.12-.73c0-.22-.33-.27-.33-.27l-.12-.72a.57.57,0,0,0,.2-.33l-.13-.76a.4.4,0,0,0-.28-.13l-.2-1.19a.82.82,0,0,0,.25-.26l-.12-.69a.4.4,0,0,0-.3-.14l-.19-1.11a.84.84,0,0,0,.25-.32l-.13-.78c-.07-.14-.34-.22-.34-.22l-.22-1.3c.2-.13.28-.59.28-.59l-.15-.89s-.5-.29-.63-1.62a14.24,14.24,0,0,1-.35-4.07,29.94,29.94,0,0,1,1.65-3,1.57,1.57,0,0,0,.14-1.23l-.29-.27-.21-1.26.21-.29a2.9,2.9,0,0,1,1.07-.33l.31,0a3,3,0,0,1,1.12,0l.3.22.21,1.25-.18.35a1.53,1.53,0,0,0,.52,1.11,27.39,27.39,0,0,1,2.53,2.31,14.29,14.29,0,0,1,1,4c.31,1.3-.07,1.74-.07,1.74l.14.9s.23.41.46.46l.23,1.29s-.24.17-.26.32l.13.79a1,1,0,0,0,.35.23l.18,1.11a.4.4,0,0,0-.25.22l.11.69a.78.78,0,0,0,.32.17l.2,1.19s-.19.07-.22.21l.12.76a.52.52,0,0,0,.3.24l.13.73s-.26.14-.24.37l.12.72a.89.89,0,0,0,.32.14l.1.58a3.51,3.51,0,0,1-.84,1.63,2.81,2.81,0,0,1-1.32.71c-.84.22,0,0,0,0Z"/><path class="cls-1" d="M136.75,167.53,131,180.15c.24,1.11.92,2.52,3.48,4.15s4.17.81,4.17.81l8.82-10.62a22.36,22.36,0,0,0-10.73-7"/><path class="cls-1" d="M133,209.32l-6.25-10.87c-1-.42-2.35-.65-4.89.37s-2.8,2.64-2.8,2.64l3.14,12.08a20.3,20.3,0,0,0,10.8-4.22"/><path class="cls-1" d="M124,78.59l12.77-5.39c.58-1,1-2.48.25-5.41s-2.51-3.43-2.51-3.43L120.8,66.18A22.3,22.3,0,0,0,124,78.59"/><path class="cls-1" d="M62.92,150.75l4.49-9.63c-.18-.87-.69-2-2.65-3.21s-3.2-.65-3.2-.65l-6.84,8.09a17.11,17.11,0,0,0,8.2,5.4"/><path class="cls-1" d="M80.91,190.55l1.7,7.58a3.66,3.66,0,0,0,3,.68,2.52,2.52,0,0,0,2.14-1l.37-7.73a12.48,12.48,0,0,0-7.16.51"/><path class="cls-1" d="M108,105.54l-3.19-6.9a3.52,3.52,0,0,0-3,0C100.25,99.07,100,100,100,100l1.26,7.47a12.25,12.25,0,0,0,6.75-2"/><path class="cls-1" d="M112.1,164.45l-.18-.35.28-.15-1.75-3.26-.67.38L107.6,157l-6.14,3.29,2.12,3.95-.53.28,1.82,3.41.41-.22.21.28s-5.54,5,7,29.33c0,0,1.1,2.24,3.13,1.45s16.65-8.91,16.65-8.91,1.64-1,1.06-2.43-6.75-13.5-6.75-13.5-4.16-9.63-14.48-9.49m10.79,11c.38.78,1.24,3.5-2.23,2.88-3.81-.9-6.83-6.09-6.83-6.09-.52-.81-1.24-4.61,2.92-3.13a10.27,10.27,0,0,1,6.14,6.34"/><path class="cls-1" d="M164.12,193l.12-.1.08.09,1.07-.92-.19-.22,1.34-1.15-1.73-2-1.31,1.11-.15-.17-1.13,1,.12.14-.09.1s-2.34-1.67-10.44,5c0,0-.75.6-.29,1.3s4.7,5.52,4.7,5.52.5.54,1,.2,4.52-3.63,4.52-3.63a6.3,6.3,0,0,0,2.38-6.2m-3.25,4.94c-.27.21-1.21.75-1.26-.61s1.73-3,1.73-3c.25-.27,1.62-.84,1.41.84a4,4,0,0,1-1.88,2.82"/><path class="cls-1" d="M83.49,205.31l-.16-.06,0-.13-1.44-.58-.12.3-1.8-.72-1.09,2.71,1.75.71-.1.25,1.51.6.07-.18.15,0s-.44,3.12,10.18,7.62c0,0,1,.41,1.41-.38s3-7.39,3-7.39.26-.75-.31-1.07-5.83-2.54-5.83-2.54-3.95-2-7.25.83M90,206c.32.16,1.34.81,0,1.54-1.47.74-3.85-.12-3.85-.12-.38-.12-1.65-1.16.1-1.81A4.45,4.45,0,0,1,90,206"/><path class="cls-1" d="M213.39,181.71l0,.11-.09,0-.4,1,.21.09-.49,1.2,1.82.74.48-1.17.16.07.41-1-.12,0,0-.09s2.1.29,5.12-6.82c0,0,.29-.65-.24-.95s-5-2-5-2-.51-.17-.72.2-1.72,3.91-1.72,3.91a4.63,4.63,0,0,0,.54,4.86m.46-4.33c.09-.22.54-.9,1,0a4.1,4.1,0,0,1-.1,2.59c-.08.25-.78,1.1-1.21-.08a2.87,2.87,0,0,1,.28-2.48"/><path class="cls-1" d="M152.57,210.08l0-.18.13,0-.41-1.57-.33.09-.51-1.94-2.94.77.5,1.9-.27.07.44,1.63.19,0,.06.13s-2.87,1.58,0,13.19c0,0,.24,1.08,1.18,1s8-2.11,8-2.11.79-.24.7-.92-1.5-6.44-1.5-6.44-.8-4.51-5.19-5.5m3.47,5.78c.08.37.17,1.61-1.24,1s-2.29-3.29-2.29-3.29c-.14-.39-.07-2.09,1.56-1a4.54,4.54,0,0,1,2,3.33"/><path class="cls-1" d="M114.29,89.75c0,.13.07.25.07.25l-.19.06.65,2.31.48-.14.84,2.9,4.37-1.26-.8-2.81.37-.11-.68-2.43-.3.09-.1-.21s4.23-2.44-.41-19.69c0,0-.4-1.58-1.8-1.37s-11.87,3.4-11.87,3.4-1.17.4-1,1.41,2.45,9.56,2.45,9.56,1.33,6.72,7.93,8m-5.37-8.51c-.13-.55-.31-2.4,1.83-1.52,2.31,1.1,3.51,4.83,3.51,4.83.22.58.17,3.11-2.29,1.59a6.73,6.73,0,0,1-3-4.9"/><path class="cls-1" d="M46.1,168.17l0-.07,0,0-.37-.64-.13.08-.47-.8-1.21.71.45.77-.1.06.39.66.08,0,0,0s-1.07,1.05,1.61,5.83c0,0,.24.45.64.27s3.27-1.9,3.27-1.9.32-.2.2-.5S49.06,170,49.06,170a3.27,3.27,0,0,0-3-1.8m2.23,2.13c.08.15.28.69-.42.58s-1.42-1.17-1.42-1.17c-.11-.16-.28-.91.57-.64a2,2,0,0,1,1.27,1.23"/><path class="cls-1" d="M94.53,117.21l0,.09h-.06l.23.7.14,0,.28.87,1.33-.42-.27-.85.12,0-.24-.74-.09,0,0-.06s1.28-.79-.3-6c0,0-.14-.48-.57-.41s-3.61,1.15-3.61,1.15-.35.13-.29.44.83,2.91.83,2.91a3.27,3.27,0,0,0,2.51,2.39m-1.72-2.55c0-.17-.12-.75.54-.49a2.83,2.83,0,0,1,1.12,1.45c.08.18.08.95-.69.51a2,2,0,0,1-1-1.47"/><path class="cls-1" d="M45.21,129.86s-.8,1.5,1,4.59l-5.94,18.09s.25.76,1.9,1.41,2.35.33,2.35.33L53,137.21c3.49-.89,4-2.51,4-2.51s6.39-14.92,7.06-17.22a2.66,2.66,0,0,0-1.17-3.25l-7.5-3.08a2.67,2.67,0,0,0-3.13,1.48c-1.12,2.14-7,17.23-7,17.23"/><path class="cls-1" d="M150.16,73.48s.87.21,2.23-1.17l10.17.64s.36-.23.47-1.18-.14-1.25-.14-1.25l-10-2.09c-.93-1.68-1.83-1.71-1.83-1.71s-8.61-1.3-9.89-1.34a1.43,1.43,0,0,0-1.53,1.05l-.59,4.3a1.44,1.44,0,0,0,1.2,1.42c1.26.29,9.89,1.33,9.89,1.33"/><path class="cls-1" d="M200.8,200.7s.26-.19.22-.86l2.52-2.51s0-.15-.21-.39-.36-.26-.36-.26l-2.85,2.13c-.67-.14-.88.08-.88.08s-2.33,2-2.63,2.29a.47.47,0,0,0-.08.63l1,1.15a.5.5,0,0,0,.65,0c.37-.27,2.63-2.28,2.63-2.28"/><path class="cls-1" d="M72.06,108.82s.4-.27.33-1.3l3.82-3.82s0-.23-.3-.6-.55-.39-.55-.39L71,106c-1-.23-1.33.12-1.33.12s-3.56,3-4,3.47a.75.75,0,0,0-.12,1l1.52,1.74a.75.75,0,0,0,1,0c.57-.4,4-3.47,4-3.47"/><path class="cls-1" d="M65.42,163.4a3.29,3.29,0,0,0,3.87,4.82,1.23,1.23,0,0,1,.77.35,1.3,1.3,0,0,1,.16.91,3.29,3.29,0,0,0,3.86,4.85,1.17,1.17,0,0,1,.72.28l1.3-1c-.14-.31.11-.78.25-1s.73-1.14.84-1.29a2.44,2.44,0,0,1,.36-.37v0l.11-.07.1-.07h0a3,3,0,0,1,.46-.27c.16-.07,1.16-.43,1.45-.51s.78-.22,1,0l1.3-1a1.29,1.29,0,0,1-.1-.77,3.3,3.3,0,0,0-3.8-4.9,1.22,1.22,0,0,1-.84-.36,1.08,1.08,0,0,1-.16-.82,3.3,3.3,0,0,0-3.78-4.92,1.27,1.27,0,0,1-.86-.37,1.09,1.09,0,0,1-.16-.81,3.3,3.3,0,0,0-3.76-4.93,1.36,1.36,0,0,1-.81-.28l-1.3,1c.18.3-.09.79-.22,1.05s-.74,1.13-.86,1.28a2.07,2.07,0,0,1-.36.38h0l-.11.07-.09.09h0a2.43,2.43,0,0,1-.45.26c-.17.07-1.16.44-1.45.52s-.82.21-1.08,0l-1.3,1a1.27,1.27,0,0,1,.08.85,3.33,3.33,0,0,0,.24,3.75,3.29,3.29,0,0,0,3.66,1.07,1.13,1.13,0,0,1,.76.34,1.37,1.37,0,0,1,.16.94m9.34,10a2.8,2.8,0,1,1,.48-3.92,2.8,2.8,0,0,1-.48,3.92m-3.41-5.85c-.22-.31.05-.83.2-1.09s.73-1.14.85-1.29a2,2,0,0,1,.36-.37h0l.09-.08.1-.08v0a2.66,2.66,0,0,1,.45-.28c.17-.07,1.16-.43,1.45-.51s.87-.23,1.11.06l0,0v0c.23.3,0,.82-.2,1.08s-.73,1.14-.84,1.29a2.57,2.57,0,0,1-.37.37v0l-.09.07-.1.08h0a2.54,2.54,0,0,1-.45.27c-.16.07-1.15.43-1.45.51s-.86.24-1.11-.05v0Zm-4.79-6.09c-.23-.32,0-.84.2-1.1s.72-1.14.83-1.29a2.7,2.7,0,0,1,.38-.37h0l.11-.07.09-.09h0a3.53,3.53,0,0,1,.45-.27c.17-.07,1.17-.43,1.46-.51s.86-.22,1.11.06v0l0,0c.22.29-.06.82-.21,1.09s-.73,1.14-.83,1.29a4.27,4.27,0,0,1-.37.37h0l-.11.08-.09.07h0a2.54,2.54,0,0,1-.45.27c-.18.06-1.16.42-1.45.51s-.87.23-1.12-.06v0Zm.48-4,.06-.06.08-.05a2.65,2.65,0,0,1,.43-.28,1,1,0,0,1,.74,0c.24.07.45.2.46.3s-.29.17-.51.26a1.92,1.92,0,0,0-.61.4l0,0,0,0a2.07,2.07,0,0,0-.55.49c-.13.2-.18.5-.36.43s-.17-.26-.19-.51a1,1,0,0,1,.14-.73,2,2,0,0,1,.37-.35M69,162c0-.19.29-.16.51-.25a2.25,2.25,0,0,0,.61-.41l0,0,0,0a2.66,2.66,0,0,0,.54-.49c.14-.2.18-.5.36-.45s.17.26.19.53a1,1,0,0,1-.14.72,3,3,0,0,1-.37.35l-.07.06-.07,0a3.18,3.18,0,0,1-.43.28,1,1,0,0,1-.74,0c-.24-.08-.45-.21-.46-.31m2.48,2a2.47,2.47,0,0,1,.37-.35l.06-.06.07-.06a4.5,4.5,0,0,1,.43-.27,1,1,0,0,1,.75,0c.23.09.44.21.45.31s-.28.18-.51.25a2.39,2.39,0,0,0-.61.42l0,0,0,0a2.41,2.41,0,0,0-.54.49c-.14.21-.19.51-.36.44s-.18-.26-.2-.51a1,1,0,0,1,.15-.73M75.56,168l-.07.06-.08,0a2.09,2.09,0,0,1-.42.29,1,1,0,0,1-.74,0c-.25-.08-.45-.21-.46-.32s.28-.16.51-.24a2.6,2.6,0,0,0,.61-.41l0,0,0,0a2.49,2.49,0,0,0,.55-.5c.13-.2.17-.49.35-.44s.17.27.2.53a1.06,1.06,0,0,1-.14.72,3,3,0,0,1-.37.35m2.84,1.62c0,.19-.29.16-.52.23a3.5,3.5,0,0,0-.6.42l0,0,0,0a3.53,3.53,0,0,0-.55.49c-.13.21-.17.51-.36.44s-.17-.26-.2-.51a1,1,0,0,1,.15-.73,3,3,0,0,1,.37-.35h0l.07-.05.07-.06h0a3.07,3.07,0,0,1,.43-.26,1,1,0,0,1,.74,0c.25.08.45.2.46.32m2.92-4.94a2.8,2.8,0,1,1-3.93-.47,2.8,2.8,0,0,1,3.93.47m-4.79-6.1a2.8,2.8,0,1,1-3.93-.47,2.79,2.79,0,0,1,3.93.47M67.8,152a2.8,2.8,0,1,1-.47,3.94A2.8,2.8,0,0,1,67.8,152m-3.6,3.84c0-.2.28-.17.51-.25a2.32,2.32,0,0,0,.61-.41l0,0,0,0a2,2,0,0,0,.54-.5c.14-.19.18-.5.36-.43s.18.26.19.52a1,1,0,0,1-.14.72,1.7,1.7,0,0,1-.36.35l-.08.06-.06,0a2,2,0,0,1-.43.28,1,1,0,0,1-.75,0c-.23-.09-.45-.2-.45-.31m-3,4.89a2.81,2.81,0,1,1,3.93.47,2.82,2.82,0,0,1-3.93-.47m5.27,2.16a2.8,2.8,0,1,1-.47,3.94,2.8,2.8,0,0,1,.47-3.94"/><path class="cls-1" d="M101.25,92.16a2,2,0,0,0,3.06,2.24.68.68,0,0,1,.5.08.77.77,0,0,1,.24.52,2,2,0,0,0,.73,2.18,2,2,0,0,0,2.33.07.74.74,0,0,1,.47,0l.6-.81c-.14-.16-.05-.48,0-.64s.25-.8.3-.9a1.58,1.58,0,0,1,.15-.28h0l.05-.07,0-.06h0l.22-.23c.09-.07.62-.44.77-.53s.44-.24.62-.16l.61-.82a.77.77,0,0,1-.18-.44,2,2,0,0,0-.72-2.2,2,2,0,0,0-2.3-.08.74.74,0,0,1-.56-.09.65.65,0,0,1-.22-.45,2,2,0,0,0-3-2.31.78.78,0,0,1-.57-.07.74.74,0,0,1-.22-.46,2,2,0,0,0-.71-2.22,2,2,0,0,0-2.29-.1.82.82,0,0,1-.52,0l-.6.81c.14.16.07.48,0,.66s-.25.78-.29.89a1.39,1.39,0,0,1-.16.28h0l0,.06,0,.07h0l-.21.23c-.09.07-.62.44-.78.54s-.45.25-.64.15l-.61.81a.82.82,0,0,1,.19.49,2,2,0,0,0,3.07,2.22.58.58,0,0,1,.73.61m7.11,4.44a1.71,1.71,0,0,1-2.74-2.06A1.7,1.7,0,0,1,108,94.2a1.72,1.72,0,0,1,.35,2.4m-2.94-2.92c-.18-.14-.11-.5,0-.68s.25-.79.29-.89a2.72,2.72,0,0,1,.15-.28h0l0-.06,0-.06h0l.22-.24c.1-.06.63-.44.79-.53s.47-.27.66-.14v0h0c.18.15.11.5.05.68a8.37,8.37,0,0,1-.3.89.68.68,0,0,1-.16.28h0l0,.06,0,.06h0l-.22.22a8,8,0,0,1-.78.54c-.15.09-.46.27-.66.14Zm-3.8-2.85c-.18-.13-.1-.49-.06-.67s.25-.79.29-.9A2.62,2.62,0,0,1,102,89h0l0-.06,0-.06h0l.22-.23.78-.53c.15-.1.47-.27.67-.14h0c.19.15.1.5,0,.68s-.25.79-.29.89l-.16.27h0l-.06.07,0,.06-.23.22c-.09.08-.61.44-.77.54s-.47.28-.66.14h0Zm-.35-2.43,0,0,0,0,.21-.23A.56.56,0,0,1,102,88c.15,0,.29,0,.32.12s-.14.14-.27.23a1.68,1.68,0,0,0-.29.33v0l0,0a1.39,1.39,0,0,0-.24.38c0,.14,0,.33-.14.31s-.15-.13-.2-.27a.6.6,0,0,1,0-.45,1.2,1.2,0,0,1,.16-.27m1.86,2.34c0-.11.15-.14.27-.23a1.22,1.22,0,0,0,.29-.33l0,0v0a1.3,1.3,0,0,0,.24-.38c.06-.14,0-.33.15-.31s.14.12.2.27a.71.71,0,0,1,0,.45,1,1,0,0,1-.17.26l0,0,0,0-.21.24a.69.69,0,0,1-.44.1c-.16,0-.3-.06-.33-.12m1.78.77a1,1,0,0,1,.16-.26l0,0,0,0,.22-.23a.61.61,0,0,1,.43-.11c.16,0,.3.05.32.12s-.14.14-.26.22a2.11,2.11,0,0,0-.28.34l0,0,0,0a1.55,1.55,0,0,0-.24.38c0,.14,0,.33-.15.32s-.14-.13-.19-.28a.6.6,0,0,1,0-.45M108,93.28l0,0,0,0-.22.24a.6.6,0,0,1-.43.1c-.16,0-.3,0-.32-.12s.13-.14.25-.22a1.19,1.19,0,0,0,.3-.35h0l0,0a1.93,1.93,0,0,0,.24-.38c0-.14,0-.33.14-.31s.14.12.2.28a.68.68,0,0,1,0,.44,2.46,2.46,0,0,1-.17.27m1.93.5c0,.12-.12.14-.25.21a1.9,1.9,0,0,0-.3.36v0h0a3.45,3.45,0,0,0-.25.38c0,.15,0,.32-.13.31s-.15-.12-.2-.27a.65.65,0,0,1,0-.45l.17-.27h0l0,0,0-.05h0l.21-.22a.56.56,0,0,1,.44-.1c.16,0,.29,0,.31.11m1-3.38a1.71,1.71,0,1,1-2.41.35,1.71,1.71,0,0,1,2.41-.35m-3.81-2.84a1.71,1.71,0,1,1-2.4.34,1.71,1.71,0,0,1,2.4-.34m-6.19-2.5a1.71,1.71,0,1,1,.34,2.4,1.7,1.7,0,0,1-.34-2.4M99.34,87.9c0-.11.14-.14.26-.22a1.86,1.86,0,0,0,.3-.35h0l0,0a1.35,1.35,0,0,0,.24-.37c0-.14,0-.33.14-.32s.14.13.19.28a.65.65,0,0,1,0,.45l-.16.27,0,0,0,0-.21.24a.63.63,0,0,1-.44.09c-.16,0-.3-.05-.32-.11m-1,3.36a1.71,1.71,0,1,1,2.4-.35,1.72,1.72,0,0,1-2.4.35m3.45.44a1.72,1.72,0,0,1,2.4-.34,1.71,1.71,0,1,1-2,2.74,1.73,1.73,0,0,1-.35-2.4"/><path class="cls-1" d="M183.08,181.72a1.08,1.08,0,0,0-1.2-.25,1.1,1.1,0,0,0-.65,1.07c0,.09-.1.18-.18.2a.32.32,0,0,1-.3,0,1.09,1.09,0,0,0-1.87.82.31.31,0,0,1-.15.2l.22.5c.1,0,.24.1.3.16l.33.38.09.15h0l0,.05v0h0l.06.16c0,.06,0,.41,0,.5s0,.27-.1.34l.22.49.25,0a1.07,1.07,0,0,0,1.21.26,1.06,1.06,0,0,0,.66-1.05.44.44,0,0,1,.19-.23.37.37,0,0,1,.27,0,1.09,1.09,0,0,0,1.88-.78.5.5,0,0,1,.19-.25.43.43,0,0,1,.27,0,1.08,1.08,0,0,0,1.88-.77.41.41,0,0,1,.17-.23l-.23-.5c-.1,0-.24-.1-.31-.16l-.33-.38-.08-.15h0l0,0,0,0h0l-.05-.16s0-.4,0-.5,0-.28.09-.34l-.22-.51a.39.39,0,0,1-.27,0,1.08,1.08,0,0,0-1.85.83.38.38,0,0,1-.18.21.43.43,0,0,1-.31,0m-4,2.11a.92.92,0,0,1,1.69-.73.92.92,0,0,1-1.69.73m2.14-.59c.12,0,.27.09.33.17l.34.37.09.14,0,.05v0h0l0,.16c0,.07,0,.42,0,.51s0,.3-.12.35h0c-.11,0-.25-.09-.33-.16l-.33-.37-.09-.15,0,0,0,0h0l0-.16c0-.07,0-.41,0-.51s0-.29.11-.34h0Zm2.34-1c.12,0,.26.09.34.16l.33.38.08.15,0,0,0,0,.05.17c0,.06,0,.4,0,.5s0,.3-.12.35h0c-.12,0-.26-.08-.33-.15l-.33-.37-.09-.15h0v0l0,0h0l-.05-.17c0-.06,0-.4,0-.5s0-.3.1-.35h0Zm1.23.49v.06l.05.16-.07.24-.14.11,0-.18-.07-.22v0h0a.46.46,0,0,0-.11-.21l-.1-.15.18,0a.28.28,0,0,1,.21.1Zm-1.59.24,0,.19a.91.91,0,0,0,.08.23h0a.75.75,0,0,0,.12.22l.1.15h-.18a.32.32,0,0,1-.22-.1l-.07-.15,0,0v0l-.05-.16.08-.24Zm-.84.63.09.14v0l.05.17-.07.23-.14.11,0-.18a.7.7,0,0,0-.08-.23h0a.57.57,0,0,0-.11-.22l-.09-.15.17,0a.34.34,0,0,1,.21.12m-1.63,1,0,0v0l-.05-.16.07-.24.14-.11,0,.18a1.27,1.27,0,0,0,.08.23h0c0,.1.06.17.11.21l.11.15-.18,0a.47.47,0,0,1-.22-.12Zm-.76.76,0-.18a1,1,0,0,0-.08-.24h0v0a.75.75,0,0,0-.11-.22l-.11-.14.18,0,.22.1.07.15,0,0v0h0l.05.15-.08.24Zm1.32,1.35a.92.92,0,1,1-.72-1.69.9.9,0,0,1,1.2.48.93.93,0,0,1-.48,1.21m2.34-1a.92.92,0,0,1-1.21-.49.92.92,0,0,1,1.69-.72.94.94,0,0,1-.48,1.21m2.81-2.22a.93.93,0,0,1-.48,1.21.92.92,0,0,1-.72-1.69.9.9,0,0,1,1.2.48m-.91-1.47,0,.19a1.78,1.78,0,0,0,.09.23h0a.57.57,0,0,0,.12.22l.1.14-.18,0-.22-.1-.08-.15v0l0,0,0-.16.08-.23Zm-1.29-1.35a.91.91,0,0,1,1.21.49.93.93,0,0,1-.48,1.2.92.92,0,1,1-.73-1.69m-1.13,1.49a.91.91,0,0,1-.49,1.2.92.92,0,0,1-1.21-.48.94.94,0,0,1,.49-1.21.93.93,0,0,1,1.21.49"/><path class="cls-1" d="M142.48,197.38a2.63,2.63,0,0,0-4.56,1.91,1,1,0,0,1-.43.51.94.94,0,0,1-.74-.08,2.63,2.63,0,0,0-4.58,1.89,1,1,0,0,1-.37.49l.5,1.23c.26-.05.57.26.72.42s.71.81.81.92a3,3,0,0,1,.2.37h0l0,.1,0,.09h0a2,2,0,0,1,.1.39c0,.16.08,1,.08,1.24s0,.65-.24.8l.49,1.24a.9.9,0,0,1,.61.09,2.64,2.64,0,0,0,4.61-1.83.93.93,0,0,1,.46-.57.89.89,0,0,1,.67.06,2.63,2.63,0,0,0,4.6-1.8,1,1,0,0,1,.48-.59.86.86,0,0,1,.66.05,2.62,2.62,0,0,0,3,.72,2.65,2.65,0,0,0,1.64-2.5,1.27,1.27,0,0,1,.4-.56l-.5-1.23c-.27.06-.59-.24-.76-.4s-.71-.82-.79-.94a1.9,1.9,0,0,1-.21-.36h0l0-.1-.05-.09h0a2.5,2.5,0,0,1-.11-.4c0-.15-.07-1-.07-1.23s0-.67.26-.82l-.5-1.23a1.13,1.13,0,0,1-.67-.13,2.62,2.62,0,0,0-2.91-.64,2.65,2.65,0,0,0-1.65,2.58.88.88,0,0,1-.43.49,1,1,0,0,1-.75-.09m-9.76,5a2.24,2.24,0,1,1,2.92,1.24,2.25,2.25,0,0,1-2.92-1.24M138,201c.28-.11.62.23.79.4s.71.81.79.93a1.61,1.61,0,0,1,.22.36h0l0,.09,0,.09a2,2,0,0,1,.09.42c0,.14.08,1,.08,1.23s0,.71-.3.83h0c-.28.1-.62-.23-.79-.4s-.71-.82-.8-.93a2.86,2.86,0,0,1-.21-.37h0l0-.08,0-.11h0a1.48,1.48,0,0,1-.11-.41c0-.14-.07-1-.06-1.22s0-.71.28-.84h0Zm5.74-2.33c.29-.1.63.22.79.4s.71.82.82.93.13.23.19.36h0l0,.1,0,.09h0c0,.16.1.32.12.42s.06,1,.06,1.23,0,.71-.3.83h0c-.28.1-.62-.23-.79-.39s-.7-.82-.8-.94a1.28,1.28,0,0,1-.19-.37h0l0-.09,0-.1h0a2.83,2.83,0,0,1-.11-.41c0-.14-.06-1-.06-1.22s0-.72.28-.85h.05Zm2.95,1.26,0,.06,0,.07a2.22,2.22,0,0,1,.12.39.78.78,0,0,1-.19.56c-.13.17-.27.3-.34.28s-.07-.25-.08-.44a1.89,1.89,0,0,0-.18-.56v-.06a2,2,0,0,0-.26-.53c-.13-.14-.34-.24-.26-.37s.24-.08.44,0a.85.85,0,0,1,.53.28,1.35,1.35,0,0,1,.18.36m-3.87.5c.14,0,.06.25.07.45a2,2,0,0,0,.19.56v.06a2,2,0,0,0,.25.53c.12.14.34.25.26.36s-.24.08-.44.05a.94.94,0,0,1-.53-.28,1.81,1.81,0,0,1-.18-.37l0-.06,0-.06c0-.13-.09-.26-.12-.4a.77.77,0,0,1,.2-.55c.11-.18.25-.31.34-.29m-2.05,1.47a1.92,1.92,0,0,1,.18.35l0,.07,0,.07a2.36,2.36,0,0,1,.1.38.78.78,0,0,1-.18.58c-.1.16-.25.29-.34.27s-.06-.25-.08-.45a1.79,1.79,0,0,0-.17-.55l0,0v0a2.18,2.18,0,0,0-.26-.53c-.13-.15-.34-.24-.25-.37s.24-.07.44,0a.94.94,0,0,1,.53.28m-4.06,2.23,0-.07,0-.06c0-.12-.09-.27-.12-.4a.9.9,0,0,1,.19-.56c.13-.17.26-.3.35-.27s.06.25.07.44a2.65,2.65,0,0,0,.17.56l0,0v0a1.54,1.54,0,0,0,.26.53c.13.15.34.24.25.38s-.23.06-.44,0a.82.82,0,0,1-.52-.27c-.07-.12-.13-.24-.19-.36M134.82,206c-.14,0-.06-.26-.07-.44a2,2,0,0,0-.18-.56v-.06a1.94,1.94,0,0,0-.26-.54c-.13-.13-.34-.24-.25-.37s.23-.07.44,0a.82.82,0,0,1,.52.27,3,3,0,0,1,.18.36h0l0,.07,0,.06h0c0,.12.09.27.12.39a.84.84,0,0,1-.2.56c-.11.17-.25.31-.34.29m3.14,3.34a2.24,2.24,0,1,1,1.24-2.92,2.25,2.25,0,0,1-1.24,2.92M143.7,207a2.24,2.24,0,1,1,1.24-2.93A2.23,2.23,0,0,1,143.7,207m7-5.24a2.24,2.24,0,1,1-2.92-1.24,2.25,2.25,0,0,1,2.92,1.24m-2.15-3.62c.16,0,.06.25.08.44a1.64,1.64,0,0,0,.18.56v0l0,0a2,2,0,0,0,.25.53c.13.15.35.24.25.37s-.24.08-.44,0a.76.76,0,0,1-.52-.27,1.78,1.78,0,0,1-.19-.36l0-.07,0-.06A2.52,2.52,0,0,1,148,199a.83.83,0,0,1,.19-.57c.11-.16.26-.29.34-.27m-3.08-3.37a2.24,2.24,0,1,1-1.24,2.92,2.25,2.25,0,0,1,1.24-2.92m-2.84,3.56a2.24,2.24,0,1,1-2.91-1.23,2.24,2.24,0,0,1,2.91,1.23"/><path class="cls-1" d="M225.7,167.06c0-.16.33-.22.33-.22s-.29-.21-.38-.26a2.4,2.4,0,0,0-1.46-.79,1.87,1.87,0,0,1-.41-.17c.1.18-.16.53-.23.64a1.88,1.88,0,0,0,0,1.76c.1.15,0,.2,0,.2s-.32.17-.32.17a1.52,1.52,0,0,1,.41.22,1.21,1.21,0,0,0,.41.22.86.86,0,0,0-.15-.41l.11-.12a1.61,1.61,0,0,0,1.16-.42,2,2,0,0,0,.48-.82"/><path class="cls-1" d="M133.27,167.23c-.11-.47.54-1.06.54-1.06a4.06,4.06,0,0,1-1.37-.16,7.71,7.71,0,0,0-5.15.12,4.9,4.9,0,0,1-1.33.17c.53.34.39,1.67.36,2.07A5.75,5.75,0,0,0,129,173c.52.27.41.47.41.47-.4.17-.64,1-.64,1a5,5,0,0,1,1.45,0,4.19,4.19,0,0,0,1.42,0,2.57,2.57,0,0,0-1-.86c-.13,0-.07-.3.1-.51a5,5,0,0,0,2.47-2.86,6.23,6.23,0,0,0,0-2.94"/><path class="cls-1" d="M145.5,211.9c-.4-.74.43-2,.43-2a6.94,6.94,0,0,1-2.38.37c-5.4,0-7.72,2-8.55,2.56a9.18,9.18,0,0,1-2.19.89c1.05.33,1.44,2.62,1.57,3.29a9.9,9.9,0,0,0,6.69,6.59c1,.21.9.61.9.61-.58.46-.63,1.9-.63,1.9a8.76,8.76,0,0,1,2.41-.72,7.3,7.3,0,0,0,2.37-.7,4.47,4.47,0,0,0-2.07-1c-.23,0-.26-.45-.07-.88,0,0,3-2.67,2.82-5.93a10.81,10.81,0,0,0-1.3-4.95"/><path class="cls-1" d="M66.8,126.85c-.44-.21-.49-1.11-.49-1.11-.13.37-.78.77-1,1a7.76,7.76,0,0,0-3.19,4.15,5.23,5.23,0,0,1-.74,1.17c.62-.2,1.59.75,1.88,1a5.87,5.87,0,0,0,5.43.84c.54-.25.64,0,.64,0-.12.42.36,1.1.36,1.1a5.16,5.16,0,0,1,.89-1.16,4.27,4.27,0,0,0,.88-1.15,2.62,2.62,0,0,0-1.32.24c-.11.08-.28-.13-.33-.4a5.07,5.07,0,0,0-.69-3.78,6.32,6.32,0,0,0-2.33-1.9"/><path class="cls-1" d="M114.75,217.26c.1.4-.45.9-.45.9a2.82,2.82,0,0,1,1.14.13,6.41,6.41,0,0,0,4.31-.11,4.42,4.42,0,0,1,1.12-.13c-.45-.29-.34-1.41-.3-1.74a4.76,4.76,0,0,0-2.27-3.9c-.44-.22-.34-.4-.34-.4.33-.14.53-.8.53-.8a4.26,4.26,0,0,1-1.21,0,3.44,3.44,0,0,0-1.19,0,2.12,2.12,0,0,0,.84.72c.1,0,.06.25-.09.42a4.16,4.16,0,0,0-2.06,2.4,5.15,5.15,0,0,0,0,2.46"/><path class="cls-1" d="M92.71,166c.92-.12,1.92,1.23,1.92,1.23a7,7,0,0,1,.56-2.58c2.07-5.54.93-8.7.7-9.77a9.63,9.63,0,0,1-.07-2.59c-.74,1-3.24.46-4,.33a10.86,10.86,0,0,0-9.35,4.29c-.59.92-1,.68-1,.68-.25-.77-1.7-1.37-1.7-1.37a10,10,0,0,1-.21,2.74,8.21,8.21,0,0,0-.2,2.71,4.86,4.86,0,0,0,1.82-1.75c.1-.22.57-.08.94.29,0,0,1.58,4.11,5,5.19a11.72,11.72,0,0,0,5.57.6"/><path class="cls-1" d="M88.82,81.85l-.28-.52.19-.1,0-.06-.32-.63h-.06l-.19.11-.28-.54h-.16l-3.94,2a.21.21,0,0,0,0,.26l.12.25c.23.43.62,1.19.62,1.19l0,.09a.21.21,0,0,0,.22.13l3.94-2Z"/><path class="cls-1" d="M102.33,124.21l0,.37h-.44l-.12,2.94,5.84.21.1-2.94-.45,0,0-.37a6.15,6.15,0,0,0,3.92-3.25s.36-10.26.38-10.66-.64-.65-.64-.65l-11.21-.41s-.66.18-.67.6-.4,10.67-.4,10.67a6.2,6.2,0,0,0,3.69,3.52"/><path class="cls-1" d="M180.74,178.86h.33l0,.38,2.53-.11-.23-5-2.54.12,0,.4h-.32a5.33,5.33,0,0,0-3.08-3.15l-9.21.43c-.36,0-.51.59-.51.59l.45,9.69s.21.55.56.54l9.22-.43a5.33,5.33,0,0,0,2.76-3.43"/><path class="cls-1" d="M207.62,184.55l-.11-.13.14-.14-.92-1-1.91,1.82.92,1,.15-.14.11.12a2.83,2.83,0,0,0-.19,2.3l3.32,3.49c.13.14.41,0,.41,0l3.67-3.47s.16-.28,0-.42-3.31-3.49-3.31-3.49a2.75,2.75,0,0,0-2.3.07"/><path class="cls-1" d="M78.08,139.46l-.12-.31.38-.15-1-2.49-4.93,1.88,1,2.49.38-.15.12.32a5.61,5.61,0,0,0-2.13,4.09s3.32,8.67,3.44,9,.77.32.77.32l9.48-3.6s.49-.4.35-.74-3.43-9-3.43-9a5.56,5.56,0,0,0-4.31-1.65"/><path class="cls-1" d="M100,213.22l-.26.38-.45-.3-2,3,5.89,4,2-3-.47-.3.27-.38a7.42,7.42,0,0,0,6.11-.86l7.19-10.77c.28-.43-.25-1.08-.25-1.08l-11.31-7.57s-.81-.23-1.08.19-7.2,10.78-7.2,10.78a7.48,7.48,0,0,0,1.56,6"/><path class="cls-1" d="M42.79,163.13v.18h-.22l0,1.42,2.79,0,0-1.41h-.22v-.18A2.94,2.94,0,0,0,47,161.47s-.05-4.92-.05-5.12-.33-.28-.33-.28l-5.36,0s-.33.1-.31.3.05,5.11.05,5.11a3,3,0,0,0,1.83,1.62"/><path class="cls-1" d="M92.77,77.74l-.24.11-.13-.28-1.83.83L92.21,82l1.84-.84-.13-.28.23-.11a4.21,4.21,0,0,0,3.18,1.42l6.63-3c.26-.11.2-.58.2-.58l-3.14-7s-.32-.35-.58-.24l-6.64,3a4.21,4.21,0,0,0-1,3.32"/><path class="cls-1" d="M75.31,201.52l.22.22-.26.26L77,203.73l3.43-3.4-1.73-1.73-.26.27-.22-.23a5.05,5.05,0,0,0,.26-4.19l-6.23-6.27c-.25-.24-.76,0-.76,0l-6.58,6.53s-.26.51,0,.75l6.23,6.26a5.11,5.11,0,0,0,4.21-.23"/><path class="cls-1" d="M130.5,215.87v-.27l.32,0,.07-2-4-.15-.06,2h.31v.26a4.19,4.19,0,0,0-2.68,2.23l-.26,7.31c0,.28.45.44.45.44l7.67.28s.45-.13.46-.41.26-7.32.26-7.32a4.19,4.19,0,0,0-2.52-2.4"/><path class="cls-1" d="M158,186.67l-.09.07-.08-.12-.75.51,1,1.47.74-.51-.07-.1.09-.07a1.9,1.9,0,0,0,1.51.38l2.72-1.86c.1-.07,0-.26,0-.26l-1.92-2.85s-.17-.13-.28-.06l-2.71,1.86a1.85,1.85,0,0,0-.21,1.54"/><path class="cls-3" d="M204.89,190.64c-.33-2.74-5.95-4.32-12.56-3.51s-11.69,3.68-11.35,6.42,6,4.32,12.56,3.52,11.69-3.69,11.35-6.43m-20.34,3.28a1.06,1.06,0,1,1-.33-1.45,1,1,0,0,1,.33,1.45m16.08-2.79s-9-.4-14.81,2c0,0-.27-.05,0-.2,1.6-.88,6.58-3,14.74-1.92.11,0,.11.09.07.13m2.94,0a1.06,1.06,0,0,1-1.8-1.13,1.06,1.06,0,0,1,1.46-.32,1.05,1.05,0,0,1,.34,1.45"/><path class="cls-3" d="M93.38,170.17c-1.9-2.31-7.95-.49-13.52,4.07s-8.54,10.14-6.65,12.44,7.94.5,13.52-4.06,8.54-10.13,6.65-12.45M75.56,186.11A1.15,1.15,0,1,1,76.69,185a1.15,1.15,0,0,1-1.13,1.15m1.83-2.62s-.28.11-.13-.18c1-1.74,4.26-6.6,12.37-10.3.1,0,.15,0,.14.08s-8.48,4.87-12.38,10.4m13.88-11a1.14,1.14,0,1,1,1.14-1.14,1.13,1.13,0,0,1-1.14,1.14"/><path class="cls-3" d="M152.58,174.28c-2.24-.18-4.12.41-4.2,1.34s1.67,1.83,3.91,2,4.11-.42,4.19-1.34-1.67-1.83-3.9-2m-3,1.71a.36.36,0,0,1-.5,0,.34.34,0,0,1,0-.5.35.35,0,0,1,.5,0,.37.37,0,0,1,0,.51m5.5.19a14.33,14.33,0,0,0-5-.37s-.08,0,0-.07a8.25,8.25,0,0,1,5,.38Zm1,.19a.36.36,0,0,1-.51-.5.36.36,0,1,1,.51.5"/><path class="cls-3" d="M70.36,94.48c-1.74-1.25-5.58,1.13-8.58,5.29s-4,8.58-2.3,9.82,5.57-1.12,8.59-5.3,4-8.57,2.29-9.81M61,108.76a.82.82,0,0,1-1-.57.82.82,0,1,1,1,.57m.78-2.15s-.16.13-.11-.1c.34-1.37,1.72-5.34,6.63-9.38l.11,0s-5,4.92-6.63,9.45m7.56-10.14a.82.82,0,0,1-1-.58.83.83,0,0,1,.58-1,.82.82,0,0,1,1,.59.81.81,0,0,1-.57,1"/><path class="cls-1" d="M92.65,91.66c-.19-.27-.06-.4.19-.27S95.08,93,96,93.66c-.35-3.06-.25-7.22-3.6-8.54-2.8-1.1-4.82,1-6.06,2.58a13.09,13.09,0,0,1-1.76,1.73,23.74,23.74,0,0,1,2.91.2c.46.09.37.31.15.27a15.43,15.43,0,0,0-4.58.29l-.55.28a10,10,0,1,0,13.7,4.08,12.27,12.27,0,0,0-3.52-2.89m-5.56,15c-.7-.43,0-.74,0-.74,7.19.05,7-5.91,7.11-6.32s.4-.11.4-.11c-.53,7.67-6.93,7.51-7.5,7.17m2.58-18a1.62,1.62,0,1,1,2.19.64,1.61,1.61,0,0,1-2.19-.64"/><path class="cls-1" d="M95.32,185c-.24,0-.28-.13-.09-.23s1.94-.78,2.74-1.08c-2.12-1-4.74-2.79-7-1.18-1.86,1.33-1.31,3.52-.83,4.94a10,10,0,0,1,.38,1.84,17.87,17.87,0,0,1,1.33-1.79c.24-.25.34-.11.23,0a11.84,11.84,0,0,0-1.69,3.06c0,.16,0,.31-.05.47A7.65,7.65,0,1,0,98.63,184,9.54,9.54,0,0,0,95.32,185m7.3,9.71c-.54.26-.47-.3-.47-.3,3-4.59-.91-6.91-1.13-7.15s.1-.31.1-.31c4.7,3.49,2,7.53,1.5,7.76M92.15,185.7a1.23,1.23,0,1,1,1.31-1.14,1.23,1.23,0,0,1-1.31,1.14"/><path class="cls-1" d="M63.57,193l0,0c0,.06.07.45.1.62.3-.38.78-.84.56-1.37a.85.85,0,0,0-1-.4,2.57,2.57,0,0,1-.39,0,3.54,3.54,0,0,1,.3.35v0a2.52,2.52,0,0,0-.55-.49l-.09,0a1.61,1.61,0,0,0-.92,3.08,1.62,1.62,0,0,0,2-1.07,2.18,2.18,0,0,0-.07-.72m-2.33,1.05c0-.13.08-.08.08-.08a1,1,0,0,0,1.52.09l.06,0a1.06,1.06,0,0,1-1.66,0m2.34-1.74a.27.27,0,0,1,.33-.17.25.25,0,0,1,.16.32.24.24,0,0,1-.32.17.25.25,0,0,1-.17-.32"/><path class="cls-1" d="M174.75,188.71c-.16-.1-.11-.19,0-.18s1.49.33,2.09.47c-.86-1.48-1.71-3.62-3.7-3.56-1.66.05-2.23,1.58-2.52,2.63a7.31,7.31,0,0,1-.53,1.26c.8-.32,1.44-.5,1.53-.53.25-.05.26.08.13.11a8.25,8.25,0,0,0-2.26,1.14l-.23.26a5.57,5.57,0,1,0,7.88-.9,6.73,6.73,0,0,0-2.43-.7m.42,8.82c-.43-.06-.16-.37-.16-.37,3.67-1.53,2.27-4.53,2.24-4.76s.19-.14.19-.14c1.4,4-1.9,5.33-2.27,5.27m-2.6-9.72a.91.91,0,0,1-.15-1.27.89.89,0,1,1,1.4,1.11.9.9,0,0,1-1.25.16"/><path class="cls-1" d="M64.91,188.94a1,1,0,0,1,.7,1.24,1,1,0,0,1-1.24.7,1,1,0,0,1,.54-1.94m-.09.32a.66.66,0,0,0-.82.47.65.65,0,0,0,.46.82.67.67,0,1,0,.36-1.29"/><path class="cls-1" d="M64.09,173a1.5,1.5,0,0,1,1,1.84,1.48,1.48,0,0,1-2.85-.8,1.5,1.5,0,0,1,1.83-1m-.12.44a1,1,0,0,0-1.28.72,1,1,0,1,0,1.28-.72"/><path class="cls-3" d="M66.3,177.84c-.11-3.33-2.68-3.3-2.68-3.3-1,0-2,.42-2.63,4.43s2.34,11.79,3.66,11,1.76-8.79,1.65-12.13m-2.51-1.72a.53.53,0,0,1-.37-.65.54.54,0,0,1,.65-.37.55.55,0,0,1,.38.65.53.53,0,0,1-.66.37m1.07,13a.42.42,0,1,1-.81-.22.41.41,0,0,1,.51-.28.4.4,0,0,1,.3.5"/><path class="cls-1" d="M63.53,172.34a.94.94,0,1,1-1.16.65.94.94,0,0,1,1.16-.65m-.12.43a.5.5,0,0,0-.61.34.49.49,0,0,0,.35.6.47.47,0,0,0,.59-.34.48.48,0,0,0-.33-.6"/><path class="cls-1" d="M64.5,170.15l-1.53-2s.19-.46-.07-.6-.89-.53-1.37-.26-1.3.28,1.58,5.14l-.31.26-2.14-4a1.44,1.44,0,0,1,.75-2.06c1.15-.52,2.51.36,3.09,3.48"/><path class="cls-1" d="M132.42,197.41a1.71,1.71,0,0,1-1.32,2.06,1.73,1.73,0,1,1,1.32-2.06m-.56.12a1.16,1.16,0,0,0-1.38-.87,1.15,1.15,0,1,0,1.38.87"/><path class="cls-1" d="M156,183.24a2.55,2.55,0,1,1-3-1.93,2.55,2.55,0,0,1,3,1.93m-.75.17a1.78,1.78,0,1,0-1.36,2.12,1.79,1.79,0,0,0,1.36-2.12"/><path class="cls-3" d="M153.27,183.79c-.74-1.51-2.29-2.74-8.87-.4s-16,13.09-13.75,14.46,14.78-4.44,19.76-7.31,2.86-6.75,2.86-6.75M132.1,197.48a.72.72,0,1,1,.54-.86.72.72,0,0,1-.54.86m20-11.45a.91.91,0,0,1-.4-1.78.92.92,0,0,1,1.1.7.91.91,0,0,1-.7,1.08"/><path class="cls-1" d="M156.53,181.88a1.61,1.61,0,1,1-1.92-1.23,1.6,1.6,0,0,1,1.92,1.23m-.76.15a.84.84,0,1,0-1.63.37.84.84,0,1,0,1.63-.37"/><path class="cls-1" d="M160.65,181.58l1.8-4s.85-.09.85-.58.1-1.79-.7-2.3-1.47-1.75-6.54,6.56l-.65-.25,4.3-6.47a2.45,2.45,0,0,1,3.72-.52c1.73,1.33,1.49,4.1-2.78,7.51"/><path class="cls-1" d="M145,74.24a.61.61,0,0,1,1.22-.07.61.61,0,1,1-1.22.07m.2,0a.41.41,0,1,0,.39-.43.42.42,0,0,0-.39.43"/><path class="cls-1" d="M136,77.83a.9.9,0,0,1,.85-1,.89.89,0,0,1,.94.85.87.87,0,0,1-.84.94.9.9,0,0,1-.95-.84m.27,0a.62.62,0,0,0,.66.58.64.64,0,0,0,.6-.66.65.65,0,0,0-.67-.59.64.64,0,0,0-.59.67"/><path class="cls-3" d="M145.69,74.19c-.72-.61-5.41.7-7.3,1.42S137,77.79,137,77.79c.17.57.64,1.09,3.07.65s6.31-3.65,5.61-4.25m-8.1,3.53a.31.31,0,0,1-.34-.3.32.32,0,0,1,.3-.34.32.32,0,0,1,0,.64m7.6-3a.25.25,0,0,1-.27-.24.24.24,0,0,1,.24-.26.25.25,0,0,1,.27.24.26.26,0,0,1-.24.26"/><path class="cls-1" d="M135.77,78.28a.56.56,0,0,1,.53-.6.57.57,0,1,1,.06,1.13.55.55,0,0,1-.59-.53m.27,0a.29.29,0,0,0,.31.28.28.28,0,0,0,.28-.3.3.3,0,1,0-.59,0"/><path class="cls-1" d="M134.31,78.15l-.84,1.27s-.31,0-.33.15-.14.62.11.85.42.68,2.65-1.92l.21.12-1.86,2a.87.87,0,0,1-1.33,0c-.53-.57-.28-1.52,1.39-2.46"/><path class="cls-1" d="M108.7,221.78l10.84,2.08.45-2.31-10.85-2.08Zm-.22-2.92-.87-.17a.66.66,0,0,0-.76.51l-.38,2a.66.66,0,0,0,.51.76l.88.16a.64.64,0,0,0,.66-.28l.47-2.42a.64.64,0,0,0-.51-.52m13.7,3.59a1,1,0,0,0-.59.09v0a.64.64,0,0,0-.51-.76l-.69-.14-.45,2.32.69.13a.64.64,0,0,0,.76-.5v0a.85.85,0,0,0,.53.29.77.77,0,0,0,1-.53.79.79,0,0,0-.7-.86m0,.18a.8.8,0,0,1,.48.31h0a2.38,2.38,0,0,0-.64-.24l-.26,0a.76.76,0,0,1,.43,0m-.2,1a.76.76,0,0,1-.38-.19l.25.06a2.26,2.26,0,0,0,.68,0h0a.72.72,0,0,1-.55.11m.52-.29a1.86,1.86,0,0,1-.62,0,1.78,1.78,0,0,1-.39-.13l.07-.39a2,2,0,0,1,.41,0,1.83,1.83,0,0,1,.59.21c.12.08.17.14.17.17v0h0a.35.35,0,0,1-.23.09"/><path class="cls-1" d="M206,177.29l-13.66,2.86.6,2.9,13.68-2.85Zm1.68,3.3,1.1-.24a.82.82,0,0,0,.63-.95l-.52-2.48a.82.82,0,0,0-1-.63l-1.1.23a.82.82,0,0,0-.63.66l.63,3a.83.83,0,0,0,.85.37m-17.74,2.49a1.2,1.2,0,0,0,.66-.39v0a.83.83,0,0,0,1,.64l.88-.19-.61-2.91-.87.18a.8.8,0,0,0-.63,1v0a1.16,1.16,0,0,0-.76-.09.91.91,0,1,0,.36,1.76m0-.22a.9.9,0,0,1-.71-.14h0a3.27,3.27,0,0,0,.86,0l.31-.09a.93.93,0,0,1-.48.26m-.27-1.31a.89.89,0,0,1,.54,0l-.32,0a2.74,2.74,0,0,0-.8.29h0a.89.89,0,0,1,.6-.39m-.46.58a2,2,0,0,1,.72-.27,2.52,2.52,0,0,1,.52-.06l.11.5a3.07,3.07,0,0,1-.51.16,2.37,2.37,0,0,1-.77,0,.45.45,0,0,1-.29-.13h0s.07-.13.23-.23"/><path class="cls-1" d="M111.07,106.39l3.39-8.73-1.86-.72-3.4,8.73Zm-2.46-.26-.28.7a.54.54,0,0,0,.31.7l1.58.63a.55.55,0,0,0,.7-.32l.28-.7a.56.56,0,0,0-.15-.6l-1.94-.76a.53.53,0,0,0-.5.35m5.07-10.88a.89.89,0,0,0,0,.51h0a.54.54,0,0,0-.71.31l-.22.56,1.85.73.22-.56a.55.55,0,0,0-.31-.71h0a.78.78,0,0,0,.33-.4.67.67,0,0,0-.31-.88.66.66,0,0,0-.82.45m.15,0a.63.63,0,0,1,.33-.35h0a1.29,1.29,0,0,0-.28.51l-.08.2a.81.81,0,0,1,0-.37m.84.32a.65.65,0,0,1-.23.3l.09-.21a1.55,1.55,0,0,0,.13-.55h0a.59.59,0,0,1,0,.47m-.17-.46a1.42,1.42,0,0,1-.11.51,1.68,1.68,0,0,1-.15.3l-.33-.12a1.81,1.81,0,0,1,.1-.34,1.67,1.67,0,0,1,.25-.45l.18-.11h0a.28.28,0,0,1,0,.21"/><path class="cls-4" d="M143.3,234.42l.13.85-.3.06-.07,0,.15,1,.08,0,.3-.05.13.87a.23.23,0,0,0,.21.09l6.37-.92a.3.3,0,0,0,.15-.34l-.07-.4-.28-1.93,0-.15c0-.27-.24-.27-.24-.27l-6.36.92a.26.26,0,0,0-.18.16"/><path class="cls-4" d="M152.41,17.26l.75,8.15a3.86,3.86,0,0,0,3,1.11,2.59,2.59,0,0,0,2.39-.8l1.41-8a13.27,13.27,0,0,0-7.54-.45"/><path class="cls-4" d="M189.77,38.67s.23-.38,0,0a1.53,1.53,0,0,1-.53.55,1.8,1.8,0,0,1-.92.19l-.28-.13,0-.18-.35-.16c-.09-.05-.21.07-.21.07l-.34-.17c0-.09-.09-.18-.09-.18l-.35-.17-.12.07-.58-.25a.3.3,0,0,0,0-.18L185.6,38l-.13.08-.52-.24-.07-.2-.36-.18a.34.34,0,0,0-.2.08l-.61-.3c0-.11-.17-.28-.17-.28l-.43-.21s-.27.14-.86-.19a7.44,7.44,0,0,1-1.82-1,13.69,13.69,0,0,1-.79-1.58.78.78,0,0,0-.47-.42l-.21,0-.58-.28-.07-.18a1.59,1.59,0,0,1,.19-.54l.05-.16a1.94,1.94,0,0,1,.32-.48l.18-.06.59.28.09.18a.8.8,0,0,0,.63.11,14.86,14.86,0,0,1,1.73-.41,8.21,8.21,0,0,1,1.95.75c.65.25.71.54.71.54l.42.2a.73.73,0,0,0,.35,0l.6.28.06.2.36.17.21-.07.52.25,0,.16.31.16.17-.09.56.27,0,.15.36.17.18,0,.35.16a.2.2,0,0,0,.1.2l.34.16.15-.1.28.14a1.87,1.87,0,0,1,.43.82,1.54,1.54,0,0,1-.08.76c-.16.43,0,0,0,0Z"/><path class="cls-4" d="M204.45,46.46l.15.1-.08.13,1.47.92.19-.32L208,48.45l1.74-2.77L208,44.56l.15-.24-1.53-1-.12.19-.15-.06s1.09-3.34-9.67-10.33c0,0-1-.66-1.62.13s-4.72,7.51-4.72,7.51-.44.78.13,1.24,5.9,3.92,5.9,3.92,3.94,3,8.11.51m-6.95-2c-.34-.23-1.33-1.13.24-1.69,1.75-.52,4.2.9,4.2.9.4.2,1.58,1.58-.47,2a4.76,4.76,0,0,1-4-1.16"/><path class="cls-4" d="M127.26,22.37v.1h-.08l0,.94h.19v1.17l1.78,0,0-1.15h.16l0-1h-.12v-.08s1.83-.5,1.82-7.46c0,0,0-.64-.55-.7s-4.79.1-4.79.1-.47,0-.51.42-.05,3.85-.05,3.85a4.14,4.14,0,0,0,2.16,3.82m-1.15-3.74c0-.23.12-.94.84-.39a3.6,3.6,0,0,1,.83,2.16c0,.25-.25,1.2-1,.38a2.56,2.56,0,0,1-.65-2.15"/><path class="cls-4" d="M231.78,75.91a2.46,2.46,0,0,0-2.09-4.13.81.81,0,0,1-.5-.37.94.94,0,0,1,0-.68,2.46,2.46,0,0,0-2.07-4.14.9.9,0,0,1-.47-.32l-1.11.54c.06.26-.2.57-.34.72s-.71.72-.82.81a1.26,1.26,0,0,1-.32.21l-.08,0-.08,0h0a1.84,1.84,0,0,1-.37.13c-.13,0-.9.13-1.14.14s-.6,0-.76-.17l-1.12.56a.87.87,0,0,1,0,.57,2.42,2.42,0,0,0-.44,2.79A2.46,2.46,0,0,0,222.5,74a1,1,0,0,1,.57.39,1,1,0,0,1,0,.63,2.46,2.46,0,0,0,2,4.17,1,1,0,0,1,.58.4.81.81,0,0,1,0,.61,2.46,2.46,0,0,0,2,4.18,1,1,0,0,1,.54.33l1.11-.53c-.07-.27.19-.59.32-.75l.82-.8a2.68,2.68,0,0,1,.33-.22l.08,0,.09,0h0a2.21,2.21,0,0,1,.39-.13c.13,0,.9-.13,1.13-.14s.63,0,.78.19l1.1-.56a1.19,1.19,0,0,1,.07-.63,2.43,2.43,0,0,0,.42-2.76A2.47,2.47,0,0,0,232.24,77a.9.9,0,0,1-.51-.37,1,1,0,0,1,.05-.7m-5.27-8.76a2.1,2.1,0,1,1-.95,2.8,2.11,2.11,0,0,1,.95-2.8M228.1,72c.11.26-.17.6-.32.77s-.72.72-.81.81a1.53,1.53,0,0,1-.34.21h0l-.09,0-.08.06h0l-.37.12c-.13,0-.9.13-1.13.14s-.66,0-.8-.22h0v0c-.13-.26.15-.6.32-.77s.7-.72.8-.81l.32-.21h0l.09,0,.08,0h0a2.82,2.82,0,0,1,.37-.13c.14,0,.92-.14,1.16-.15s.65,0,.79.22v0Zm2.54,5.19c.12.27-.16.6-.31.77s-.71.72-.82.81a2.54,2.54,0,0,1-.32.21v0l-.08,0L229,79l-.37.12c-.14,0-.92.13-1.14.14s-.67,0-.8-.22h0v0c-.12-.26.17-.6.32-.77s.72-.7.82-.8a1.7,1.7,0,0,1,.33-.22h0l.09,0,.09,0h0a1.55,1.55,0,0,1,.37-.12c.13,0,.91-.14,1.13-.15s.67,0,.8.21h0Zm-1,2.84-.07,0-.07,0a1.51,1.51,0,0,1-.34.14.76.76,0,0,1-.54-.14c-.16-.11-.3-.22-.28-.31s.22-.07.41-.09a2.29,2.29,0,0,0,.51-.2l0,0h0a1.52,1.52,0,0,0,.48-.27c.14-.14.2-.33.34-.26s.08.22.05.4a.81.81,0,0,1-.22.52,1.69,1.69,0,0,1-.32.19Zm-.74-3.57c0,.14-.23.07-.42.09a1.86,1.86,0,0,0-.5.22h0l0,0a1.35,1.35,0,0,0-.47.28c-.13.12-.2.34-.34.26a.57.57,0,0,1-.06-.41.74.74,0,0,1,.23-.5,1.36,1.36,0,0,1,.32-.21l.06,0,.06,0a1.22,1.22,0,0,1,.35-.14.75.75,0,0,1,.54.14c.15.1.29.22.28.3m-1.51-1.82a1.49,1.49,0,0,1-.31.2l-.06,0-.07,0a2.18,2.18,0,0,1-.34.14.86.86,0,0,1-.54-.14c-.16-.11-.29-.22-.27-.3s.21-.07.4-.1a2,2,0,0,0,.5-.21h0l0,0a1.55,1.55,0,0,0,.48-.27c.12-.13.21-.33.34-.26s.07.21,0,.4a.76.76,0,0,1-.23.51M225.09,71l.07,0,.06,0h0a1.63,1.63,0,0,1,.34-.14.66.66,0,0,1,.54.15c.17.09.3.21.29.29s-.23.07-.41.09a1.63,1.63,0,0,0-.51.22h-.06a1.51,1.51,0,0,0-.46.27c-.13.13-.21.34-.34.26a.54.54,0,0,1-.05-.4.72.72,0,0,1,.21-.51,1.9,1.9,0,0,1,.32-.19m-1.83-1.62c0-.13.25-.09.42-.1a1.35,1.35,0,0,0,.51-.21h.05a2.25,2.25,0,0,0,.48-.28c.12-.12.2-.33.32-.27a.57.57,0,0,1,.07.41.69.69,0,0,1-.22.51,2.2,2.2,0,0,1-.32.21l-.06,0-.06,0a2.09,2.09,0,0,1-.35.13.74.74,0,0,1-.54-.13c-.18-.1-.3-.23-.3-.3m-2.89,3.14a2.09,2.09,0,1,1,2.8,1,2.11,2.11,0,0,1-2.8-1m2.55,5.19a2.09,2.09,0,1,1,2.8,1,2.09,2.09,0,0,1-2.8-1m5.35,6.14a2.08,2.08,0,1,1,.95-2.79,2.08,2.08,0,0,1-.95,2.79m3.22-2.23c0,.14-.23.08-.41.11a1.4,1.4,0,0,0-.51.2l0,0h0a2.42,2.42,0,0,0-.47.28c-.12.13-.21.35-.34.27s-.08-.21-.05-.41a.77.77,0,0,1,.21-.51,1.77,1.77,0,0,1,.33-.19l.06,0,.07,0a2.18,2.18,0,0,1,.34-.14.87.87,0,0,1,.53.14c.17.11.3.23.29.31m2.93-3.1a2.09,2.09,0,1,1-2.8-1,2.1,2.1,0,0,1,2.8,1m-3.51-2.4a2.09,2.09,0,1,1,1-2.8,2.1,2.1,0,0,1-1,2.8"/><path class="cls-4" d="M96.28,222.12a2.5,2.5,0,0,0-1.51-2.37,2.46,2.46,0,0,0-2.77.63.73.73,0,0,1-.62.05.93.93,0,0,1-.44-.52,2.46,2.46,0,0,0-4.28-1.75.91.91,0,0,1-.57.08l-.48,1.14c.21.15.22.55.21.76s0,1-.07,1.14a1.8,1.8,0,0,1-.1.38l0,.08,0,.09h0a1.72,1.72,0,0,1-.19.34c-.09.11-.59.7-.76.86s-.43.42-.69.37l-.46,1.15a1,1,0,0,1,.34.47,2.46,2.46,0,0,0,4.26,1.8.87.87,0,0,1,.68-.07.8.8,0,0,1,.39.48,2.47,2.47,0,0,0,1.53,2.41,2.44,2.44,0,0,0,2.72-.6,1,1,0,0,1,.71-.07.79.79,0,0,1,.39.46,2.46,2.46,0,0,0,4.25,1.84,1,1,0,0,1,.62-.1l.48-1.14c-.23-.15-.24-.57-.24-.76s.06-1,.07-1.16a3.46,3.46,0,0,1,.11-.38h0l0-.1,0-.08h0a2.32,2.32,0,0,1,.2-.36c.09-.1.59-.69.76-.85s.45-.44.71-.37l.46-1.14a1.16,1.16,0,0,1-.36-.53,2.44,2.44,0,0,0-4.28-1.7.93.93,0,0,1-.63,0,1,1,0,0,1-.43-.55M86.55,219a2.09,2.09,0,1,1,1.14,2.73A2.11,2.11,0,0,1,86.55,219m4.35,2.55c.27.12.27.57.27.79a11.47,11.47,0,0,1-.09,1.15,1.41,1.41,0,0,1-.09.39h0l0,.07,0,.09h0c-.06.12-.15.25-.19.33s-.6.7-.77.86-.47.48-.74.36h0v0c-.27-.12-.28-.55-.27-.79s0-1,.06-1.14.08-.24.11-.38l0-.08,0-.1h0a1.6,1.6,0,0,1,.19-.33c.09-.11.6-.71.77-.87s.48-.47.74-.37h0Zm5.34,2.23c.26.12.27.56.27.8s-.06,1-.08,1.13a2.63,2.63,0,0,1-.1.37v0l0,.07,0,.09h0a2.47,2.47,0,0,1-.21.35l-.75.85c-.17.15-.48.47-.75.36h0c-.26-.13-.27-.56-.28-.8s.07-1,.09-1.14a1.34,1.34,0,0,1,.1-.38h0l0-.09.05-.09h0a1.44,1.44,0,0,1,.21-.34c.08-.11.59-.71.75-.87s.48-.46.74-.36h0Zm1.14,2.78,0,.05,0,.07a1.41,1.41,0,0,1-.17.32.75.75,0,0,1-.5.27c-.19,0-.36,0-.4-.05s.11-.21.24-.34a1.86,1.86,0,0,0,.24-.49v0l0,0a1.54,1.54,0,0,0,.18-.52c0-.18-.08-.38.08-.41s.2.11.3.27a.77.77,0,0,1,.18.52,2.65,2.65,0,0,1-.12.37m-2.9-2.21c.09.12-.13.21-.25.34a1.86,1.86,0,0,0-.24.49l0,0v0a1.66,1.66,0,0,0-.18.53c0,.16.08.38-.08.41s-.2-.11-.31-.27a.68.68,0,0,1-.16-.52,1.58,1.58,0,0,1,.11-.37l0-.06,0-.05h0a3.65,3.65,0,0,1,.18-.34.73.73,0,0,1,.5-.25c.18,0,.36,0,.41,0M92.15,224a2.26,2.26,0,0,1-.11.37l0,.05,0,.07a3.3,3.3,0,0,1-.18.32.82.82,0,0,1-.5.27c-.19,0-.36,0-.4,0s.12-.21.23-.35a2.22,2.22,0,0,0,.25-.49v0l0,0a1.36,1.36,0,0,0,.17-.53c0-.17-.06-.38.08-.41s.2.1.31.26a.78.78,0,0,1,.17.53M88,222.81l0-.06,0-.07a1.19,1.19,0,0,1,.18-.33.64.64,0,0,1,.49-.24c.18,0,.36,0,.41,0s-.12.21-.25.34a1.55,1.55,0,0,0-.24.5V223h0a1.37,1.37,0,0,0-.16.5c0,.19.06.4-.09.42s-.2-.12-.31-.26a.88.88,0,0,1-.18-.52,3.22,3.22,0,0,1,.12-.37m-2.44,0c-.07-.13.13-.23.25-.36a2,2,0,0,0,.25-.48v0l0,0a1.92,1.92,0,0,0,.17-.52c0-.18-.06-.39.07-.42s.21.1.33.26a.7.7,0,0,1,.16.53,2.24,2.24,0,0,1-.1.37l0,.06,0,.05a1.87,1.87,0,0,1-.17.35.84.84,0,0,1-.5.24.59.59,0,0,1-.42,0m-.1,4.27a2.11,2.11,0,0,1-1.12-2.75,2.08,2.08,0,0,1,2.72-1.11,2.09,2.09,0,1,1-1.6,3.86m5.35,2.21a2.08,2.08,0,1,1,2.72-1.11,2.08,2.08,0,0,1-2.72,1.11m8.06,1.09a2.08,2.08,0,1,1-1.11-2.72,2.08,2.08,0,0,1,1.11,2.72m.95-3.8c.08.12-.12.22-.24.36a1.21,1.21,0,0,0-.24.47l0,0v0h0a1.77,1.77,0,0,0-.17.53c0,.17.06.39-.08.42s-.2-.11-.32-.27a.76.76,0,0,1-.17-.53,3,3,0,0,1,.12-.36l0-.06,0-.07a2.15,2.15,0,0,1,.17-.34.84.84,0,0,1,.5-.24c.19,0,.37,0,.41,0m.15-4.26a2.09,2.09,0,1,1-2.73,1.12,2.09,2.09,0,0,1,2.73-1.12m-4.21.51a2.1,2.1,0,1,1-1.13-2.72,2.1,2.1,0,0,1,1.13,2.72"/><path class="cls-4" d="M233.52,171.68l.08.06,0,.07.79.49.1-.16,1,.63.95-1.51-1-.61.08-.13-.82-.52-.07.1-.08,0s.59-1.81-5.25-5.6c0,0-.52-.37-.86.07s-2.56,4.05-2.56,4.05-.23.43.08.67,3.19,2.14,3.19,2.14a4.15,4.15,0,0,0,4.39.29m-3.77-1.08c-.18-.13-.72-.62.13-.92a3.6,3.6,0,0,1,2.27.49c.21.12.86.87-.25,1.06a2.65,2.65,0,0,1-2.15-.63"/><path class="cls-4" d="M213.46,211l-.06-.1m-1-1.65-.08,0-.05-.06-.78.51"/><path class="cls-4" d="M231.47,174.75c-.2-.54.49-1.33.49-1.33a4.81,4.81,0,0,1-1.65,0,9.2,9.2,0,0,0-6.1.86,6,6,0,0,1-1.57.39c.67.32.71,1.93.72,2.4a6.88,6.88,0,0,0,3.89,5.16c.65.24.55.5.55.5-.45.26-.61,1.24-.61,1.24a5.41,5.41,0,0,1,1.71-.25,4.88,4.88,0,0,0,1.69-.24,3.15,3.15,0,0,0-1.32-.88c-.15,0-.13-.34.06-.61,0,0,2.3-1.51,2.52-3.72a7.4,7.4,0,0,0-.38-3.52"/><path class="cls-4" d="M211,204.82c.44.18.51,1,.51,1,.11-.35.7-.75.9-1a7.24,7.24,0,0,0,2.81-4,5.31,5.31,0,0,1,.64-1.11c-.56.21-1.51-.64-1.79-.9a5.45,5.45,0,0,0-5.12-.55c-.49.24-.59,0-.59,0,.09-.39-.38-1-.38-1a4.54,4.54,0,0,1-.79,1.12,4.11,4.11,0,0,0-.78,1.11,2.45,2.45,0,0,0,1.23-.27c.1-.07.27.11.33.35a4.77,4.77,0,0,0,.79,3.52,6.07,6.07,0,0,0,2.24,1.68"/><path class="cls-4" d="M23.07,130.7c.31.54-.25,1.5-.25,1.5a4.88,4.88,0,0,1,1.73-.34,9.82,9.82,0,0,0,6.2-2.11,6.28,6.28,0,0,1,1.56-.71c-.78-.2-1.13-1.88-1.23-2.37A7.29,7.29,0,0,0,26,122c-.73-.12-.67-.43-.67-.43.4-.34.39-1.4.39-1.4a5.71,5.71,0,0,1-1.74.59,5.29,5.29,0,0,0-1.71.59,3.39,3.39,0,0,0,1.54.67c.17,0,.21.32.07.64,0,0-2.11,2-1.89,4.42a7.89,7.89,0,0,0,1.09,3.58"/><path class="cls-4" d="M133.23,16.3l.1,2.31-.82,0a.19.19,0,0,0-.18.13l.11,2.77a.23.23,0,0,0,.2.11l.81,0,.1,2.31a.67.67,0,0,0,.55.34c.32,0,17.12-.7,17.12-.7a.76.76,0,0,0,.48-.84l0-1.12c-.08-1.84-.22-5.18-.22-5.18V16a.78.78,0,0,0-.57-.81l-17.13.71a.61.61,0,0,0-.51.36"/><path class="cls-4" d="M226.84,184.22l-2-1.12.38-.71a.23.23,0,0,0,0-.25l-2.42-1.33a.22.22,0,0,0-.19.11l-.4.71-2-1.11a.65.65,0,0,0-.56.29c-.16.3-8.29,15-8.29,15a.79.79,0,0,0,.47.86l1,.53,4.55,2.51.34.2a.77.77,0,0,0,1-.07l8.28-15a.57.57,0,0,0,0-.61"/><path class="cls-4" d="M27.77,160.69l.85-.26.09.3.07.06,1-.32,0-.08-.09-.3.86-.27a.28.28,0,0,0,.07-.24l-2-6.31a.28.28,0,0,0-.35-.1l-.41.13-1.91.59-.15.06a.29.29,0,0,0-.24.29s1.93,6.18,2,6.3a.24.24,0,0,0,.19.15"/><path class="cls-4" d="M220,65.67l.18.22-.27.23,1.49,1.82L225,65l-1.5-1.81-.28.23-.18-.22a4.94,4.94,0,0,0,.6-4l-5.42-6.55c-.21-.25-.72-.05-.72-.05l-6.87,5.7s-.3.46-.08.73l5.42,6.53a4.88,4.88,0,0,0,4,.16"/><path class="cls-4" d="M239.37,154l.1-.27.34.11.81-2.2-4.37-1.6-.81,2.21.34.13-.1.27a4.94,4.94,0,0,0-3.77,1.5s-2.8,7.68-2.92,8,.33.66.33.66l8.38,3.05s.56,0,.66-.29,2.92-8,2.92-8a4.84,4.84,0,0,0-1.91-3.57"/><path class="cls-4" d="M62.31,202.24,62.1,202l.25-.26-1.67-1.64-3.26,3.32,1.67,1.64.26-.25.2.2a5,5,0,0,0-.17,4.06s5.83,5.72,6.07,5.94.72,0,.72,0l6.24-6.38s.24-.49,0-.73L66.35,202a4.87,4.87,0,0,0-4,.27"/><path class="cls-4" d="M189.71,33.73l0,.06-.1,0-.25.58,1.14.49.25-.57-.08,0,0-.06a1.27,1.27,0,0,0,1-.35l.91-2.07-.08-.19-2.19-.94-.18.07-.9,2.08a1.29,1.29,0,0,0,.46,1"/><path class="cls-4" d="M139.9,228.14s.86-.34,2.42.83l10.14-2.2s.39.17.66,1.09,0,1.3,0,1.3l-9.71,3.63c-.69,1.84-1.58,2-1.58,2s-8.46,2.61-9.75,2.84a1.42,1.42,0,0,1-1.68-.81l-1.24-4.24a1.44,1.44,0,0,1,1-1.6c1.2-.51,9.72-2.86,9.72-2.86"/><path class="cls-4" d="M240.59,144.44v.13h-.09l0,1.08h.23l0,1.35,2.06,0,0-1.33h.17l0-1.14h-.13l0-.1s2.15-.5,2.4-8.57c0,0,0-.73-.6-.82S239,135,239,135s-.55,0-.61.48-.2,4.45-.2,4.45a4.81,4.81,0,0,0,2.37,4.51m-1.2-4.37c0-.26.18-1.08,1-.42a4.18,4.18,0,0,1,.87,2.54c0,.28-.33,1.37-1.19.39a3,3,0,0,1-.68-2.51"/><path class="cls-4" d="M154.26,230.64l-.16.08-.06-.13-1.53.61.12.33-1.89.75,1.17,2.9,1.86-.75.1.25,1.58-.66-.07-.18.12-.08s2,2.7,13.37-1.71c0,0,1-.39.8-1.33s-3.18-7.81-3.18-7.81-.36-.77-1-.59-6.32,2.35-6.32,2.35-4.46,1.39-4.88,6m5.39-4.26c.37-.13,1.61-.37,1.16,1.14s-3,2.74-3,2.74c-.39.19-2.13.33-1.25-1.45a4.59,4.59,0,0,1,3.1-2.43"/><path class="cls-4" d="M26.74,117.34v.18H26.6l-.09,1.64.35,0-.12,2,3.12.16.1-2h.27l.08-1.72h-.2l0-.14s3.28-.64,4.1-12.84c0,0,.1-1.1-.86-1.27S24.9,103,24.9,103s-.85,0-1,.69-.53,6.72-.53,6.72-.63,4.64,3.34,7m-1.58-6.7c0-.39.33-1.62,1.53-.57,1.24,1.22,1.19,3.89,1.19,3.89,0,.43-.59,2.06-1.83.53a4.59,4.59,0,0,1-.89-3.85"/><path class="cls-4" d="M235.35,138.47v.09h-.1l-.05.65,1.29.1,0-.65h-.09v-.08a1.44,1.44,0,0,0,.91-.69l.18-2.38c0-.09-.14-.15-.14-.15l-2.48-.19s-.15,0-.16.12-.18,2.39-.18,2.39a1.32,1.32,0,0,0,.79.81"/><path class="cls-4" d="M53.32,203.94c.35.2.34.92.34.92.12-.29.66-.58.85-.74A6.33,6.33,0,0,0,57.3,201a4.08,4.08,0,0,1,.65-.9c-.51.14-1.23-.68-1.45-.92a4.68,4.68,0,0,0-4.33-1c-.44.16-.51,0-.51,0,.12-.33-.23-.91-.23-.91a3.91,3.91,0,0,1-.78.88,3.66,3.66,0,0,0-.77.88,2,2,0,0,0,1.07-.13c.11-.05.22.13.25.34a4.15,4.15,0,0,0,.35,3.09,5.08,5.08,0,0,0,1.77,1.64"/><path class="cls-4" d="M55.94,196.76l.1.07-.07.06.77.77.17-.16,1,.95L59.31,197l-.94-.94.13-.11-.81-.8-.1.09-.08,0s1.13-1.9-4.52-7.67a.79.79,0,0,0-1-.13c-.49.4-3.92,4-3.92,4s-.37.41-.08.78,3.08,3.21,3.08,3.21a4.81,4.81,0,0,0,4.89,1.42m-4-2.18c-.17-.18-.65-.87.39-1a4.07,4.07,0,0,1,2.44,1.11c.23.19.77,1.2-.54,1.14A3,3,0,0,1,52,194.58"/><path class="cls-4" d="M48,196.41l.06.06-.08.07.44.49,1-.87-.44-.49-.07.07-.05-.06a1.42,1.42,0,0,0,.12-1.13l-1.6-1.78h-.2l-1.86,1.66,0,.2,1.6,1.78a1.38,1.38,0,0,0,1.13,0"/><path class="cls-4" d="M208.65,49.79l4.76,2.61a2.58,2.58,0,0,0,1.73-1.25,1.78,1.78,0,0,0,.44-1.61l-3.89-3.75a8.87,8.87,0,0,0-3,4"/><path class="cls-4" d="M111,225.19s-6.09-1.81-6.81-1.95-1,.7-1,.7-2.48,7.45-2.67,8.45,1,1.32,1,1.32c12.29,3.68,14.13.68,14.13.68l.14.08-.07.22,1.73.53.09-.26,2,.63,1-3.11-2.06-.66.11-.35-1.64-.51,0,.13-.19-.05c-.83-4.76-5.62-5.85-5.62-5.85m3.07,4.11c1,1.79-.76,1.78-1.18,1.62,0,0-2.67-.95-3.4-2.63s.73-1.38,1.13-1.28a4.89,4.89,0,0,1,3.45,2.29"/><path class="cls-4" d="M119.88,231.45l.09-1-.38,0-.08-.08.11-1.24.09-.05.37,0,.09-1a.3.3,0,0,1,.25-.14l7.72.67a.35.35,0,0,1,.21.39l0,.5c-.07.83-.2,2.33-.2,2.33l0,.18a.35.35,0,0,1-.27.35l-7.71-.67a.26.26,0,0,1-.22-.17"/><path class="cls-4" d="M235,120.54l1,11.57c.63.72,1.7,1.47,4.24,1.62s3.38-1.11,3.38-1.11l2.1-11.37a18.56,18.56,0,0,0-10.67-.71"/><path class="cls-4" d="M84.84,215.43,74.41,210.3c-.93.17-2.13.71-3.56,2.8s-.79,3.48-.79,3.48l8.67,7.64a18.57,18.57,0,0,0,6.11-8.79"/><path class="cls-4" d="M242.88,100.61s-.07-1.36-2.63-2.75l-3.37-15s-.49-.42-1.92-.19-1.76.74-1.76.74l1.19,15.38c-2.06,2.07-1.72,3.39-1.72,3.39s1.75,13,2.23,14.92a2.15,2.15,0,0,0,2.16,1.77l6.5-1a2.16,2.16,0,0,0,1.57-2.32c-.11-2-2.25-14.92-2.25-14.92"/><path class="cls-4" d="M44.91,190s1-.43,0,0a3.57,3.57,0,0,1-1.81.35,4.45,4.45,0,0,1-2.08-.92l-.36-.64a1.24,1.24,0,0,0,.18-.38l-.45-.79a.51.51,0,0,0-.5-.17l-.45-.8a.63.63,0,0,0,.09-.47l-.46-.83a.5.5,0,0,0-.38,0L37.89,184a.79.79,0,0,0,.19-.39l-.43-.76a.55.55,0,0,0-.42,0l-.69-1.22a1.21,1.21,0,0,0,.15-.49l-.48-.85a.87.87,0,0,0-.5-.11l-.8-1.41a1.34,1.34,0,0,0,.08-.8l-.56-1s-.71-.12-1.44-1.61c-1.22-2.25-2.08-3.83-2.12-4.59a31.82,31.82,0,0,1,.63-4.21,1.94,1.94,0,0,0-.36-1.48l-.46-.19-.78-1.37.12-.44a3.66,3.66,0,0,1,1.12-.84l.32-.19a3.74,3.74,0,0,1,1.29-.53l.44.13L34,163l-.06.49A1.87,1.87,0,0,0,35,164.56a31.44,31.44,0,0,1,3.94,1.61c.63.42,1.56,2,2.85,4.17.92,1.38.65,2.06.65,2.06l.56,1s.44.38.73.34l.81,1.43a.84.84,0,0,0-.16.48l.49.85a1.32,1.32,0,0,0,.5.13l.69,1.21a.51.51,0,0,0-.2.37l.43.75a.76.76,0,0,0,.44,0l.74,1.31a.54.54,0,0,0-.17.34l.47.83a.64.64,0,0,0,.45.16l.45.8a.53.53,0,0,0-.11.52l.45.78a1.22,1.22,0,0,0,.43,0l.36.64a4.4,4.4,0,0,1-.27,2.25A3.63,3.63,0,0,1,48.29,188c-.89.62,0,0,0,0Z"/><path class="cls-4" d="M83.93,29s.29,1,0,0a3.68,3.68,0,0,1-.09-1.85A4.46,4.46,0,0,1,85,25.17l.68-.27a1,1,0,0,0,.36.22l.84-.33a.51.51,0,0,0,.24-.47L88,24a.68.68,0,0,0,.45.15l.89-.35a.56.56,0,0,0,.08-.37l1.4-.56a.85.85,0,0,0,.37.23l.8-.32a.51.51,0,0,0,.08-.41l1.3-.52a1.29,1.29,0,0,0,.46.21l.91-.36a.86.86,0,0,0,.18-.47l1.51-.61c.21.2.79.18.79.18l1-.41s.21-.7,1.79-1.21c2.39-.91,4.08-1.55,4.83-1.48A34.28,34.28,0,0,1,109,18.87a1.94,1.94,0,0,0,1.51-.15l.25-.43,1.46-.59.43.18a3.64,3.64,0,0,1,.68,1.22l.14.34a3.51,3.51,0,0,1,.35,1.36l-.19.42-1.45.59-.48-.14a1.92,1.92,0,0,0-1.21.93,35.27,35.27,0,0,1-2.12,3.68c-.51.57-2.17,1.29-4.53,2.26-1.5.73-2.12.37-2.12.37l-1.05.43s-.44.38-.44.67l-1.52.61s-.26-.24-.45-.22l-.91.36a1.34,1.34,0,0,0-.2.48l-1.29.52a.48.48,0,0,0-.34-.24l-.8.31a.8.8,0,0,0-.11.43l-1.4.56a.55.55,0,0,0-.31-.22L92,33a.69.69,0,0,0-.22.43l-.85.34a.52.52,0,0,0-.5-.18l-.84.34a1.19,1.19,0,0,0-.09.42l-.69.26A4.43,4.43,0,0,1,86.59,34a3.61,3.61,0,0,1-1.21-1.4c-.5-1,0,0,0,0Z"/><path class="cls-4" d="M31.06,88.85l-.14.33L30.56,89l-1,2.45,4.74,2,1-2.46-.37-.15.14-.31a5.49,5.49,0,0,0,4.29-1.51s3.66-8.55,3.8-8.89-.31-.76-.31-.76l-9.1-3.88s-.62-.06-.76.29-3.8,8.9-3.8,8.9a5.42,5.42,0,0,0,1.88,4.13"/><path class="cls-4" d="M26.13,101.36l8.43-.3a4,4,0,0,0,1.32-3,2.7,2.7,0,0,0-.69-2.49L27,93.64a13.5,13.5,0,0,0-.89,7.72"/><path class="cls-4" d="M202,214.13l6.7-7.74c.06-.84-.13-2-1.59-3.65s-2.79-1.46-2.79-1.46L195.9,207a16.48,16.48,0,0,0,6.11,7.17"/><path class="cls-5" d="M209.08,51.31c-2-2.24-4.42-3.39-5.35-2.55s0,3.34,2,5.59,4.42,3.38,5.35,2.54,0-3.34-2-5.58m-4.56-1.12a.49.49,0,0,1-.5-.46.47.47,0,0,1,.46-.5.48.48,0,0,1,.5.46.49.49,0,0,1-.46.5m5.23,5.24a19.42,19.42,0,0,0-4.59-5s0-.11.07-.06a10.9,10.9,0,0,1,4.55,5Zm.79,1.09a.5.5,0,0,1-.51-.46.48.48,0,0,1,1-.05.48.48,0,0,1-.45.51"/><path class="cls-5" d="M124.79,233.73c-2.27-.26-4.18.29-4.29,1.23s1.64,1.91,3.9,2.17,4.18-.29,4.28-1.23-1.63-1.91-3.89-2.17m-3.13,1.64a.36.36,0,1,1-.5-.52.36.36,0,0,1,.51,0,.37.37,0,0,1,0,.52m5.57.35a14.69,14.69,0,0,0-5.09-.52s-.08,0,0-.07a8.28,8.28,0,0,1,5.06.55Zm1,.23a.36.36,0,0,1-.5,0,.37.37,0,0,1,0-.52.36.36,0,0,1,.5.53"/><path class="cls-4" d="M115.86,22.56c0,.15-.06.18-.14.07s-.59-1.15-.83-1.61c-.5,1.36-1.43,3.06-.3,4.33.92,1.06,2.23.59,3.08.21a5.63,5.63,0,0,1,1.1-.34,12.27,12.27,0,0,1-1.17-.71c-.18-.13-.1-.2,0-.14a7.39,7.39,0,0,0,2,.85c.1,0,.19,0,.3,0A4.71,4.71,0,1,0,115,20.6a5.76,5.76,0,0,0,.86,2m5.5-5.06c.2.31-.14.3-.14.3a3,3,0,0,0-4.33,1.13c-.13.14-.18-.05-.18-.05,1.84-3.08,4.49-1.65,4.65-1.38m-4.91,7a.76.76,0,0,1-1.51,0,.76.76,0,0,1,.73-.78.77.77,0,0,1,.78.74"/><path class="cls-4" d="M162.41,24.73a1.16,1.16,0,0,1-1.63.33,1.17,1.17,0,1,1,1.63-.33m-.32-.21a.79.79,0,0,0-1.31-.87.79.79,0,0,0,.21,1.09.8.8,0,0,0,1.1-.22"/><path class="cls-4" d="M180.44,29.57a1.73,1.73,0,0,1-2.89-1.92,1.73,1.73,0,0,1,2.89,1.92m-.44-.3a1.18,1.18,0,0,0-.34-1.66,1.21,1.21,0,1,0,.34,1.66"/><path class="cls-5" d="M174.9,24c-4.24-2.11-13.94-1.66-13.54.1s9.14,5.13,12.88,6.2,4.64-1.79,4.64-1.79c.4-1.06.26-2.41-4-4.51m-12,.49a.5.5,0,0,1-.68.14.48.48,0,0,1-.14-.67.49.49,0,1,1,.82.53m15.19,4.32a.62.62,0,0,1-.87.18.64.64,0,0,1-.16-.87.63.63,0,0,1,.87-.16.62.62,0,0,1,.16.85"/><path class="cls-4" d="M181.36,29.18A1.09,1.09,0,1,1,179.54,28a1.11,1.11,0,0,1,1.52-.3,1.08,1.08,0,0,1,.3,1.51m-.43-.28a.57.57,0,1,0-.79.16.58.58,0,0,0,.79-.16"/><path class="cls-4" d="M183.45,31.06l2.77-1s.46.37.69.13.92-.79.79-1.43.16-1.54-6.28-.09l-.18-.43,5.17-1a1.68,1.68,0,0,1,2,1.57c.16,1.47-1.31,2.67-5,2.19"/><path class="cls-4" d="M196.51,214.31a1.33,1.33,0,1,1,2.66-.23,1.33,1.33,0,1,1-2.66.23m.44,0a.89.89,0,1,0,1.77-.16.89.89,0,0,0-1-.81.9.9,0,0,0-.81,1"/><path class="cls-4" d="M177.06,222.78a2,2,0,1,1,2.13,1.79,1.95,1.95,0,0,1-2.13-1.79m.59-.05a1.37,1.37,0,1,0,1.25-1.49,1.37,1.37,0,0,0-1.25,1.49"/><path class="cls-5" d="M197.91,214.15c-1.6-1.27-11.75,1.91-15.84,3.61s-2.87,4.87-2.87,4.87c.41,1.23,1.48,2.33,6.74,1.2s13.57-8.41,12-9.68m-17.46,8.3a.71.71,0,1,1-.11-1.41.71.71,0,0,1,.11,1.41m16.41-7.06a.55.55,0,1,1,.51-.6.55.55,0,0,1-.51.6"/><path class="cls-4" d="M176.51,223.78a1.24,1.24,0,1,1,2.48-.22,1.24,1.24,0,1,1-2.48.22m.6,0a.63.63,0,0,0,.7.57.64.64,0,1,0-.11-1.28.63.63,0,0,0-.59.71"/><path class="cls-4" d="M173.33,223.59l-1.76,2.83s-.68,0-.72.36-.26,1.36.3,1.84.95,1.48,5.66-4.37l.47.26L173.35,229a1.9,1.9,0,0,1-2.91,0c-1.18-1.19-.72-3.29,2.89-5.46"/><path class="cls-4" d="M24.73,136a1.18,1.18,0,1,1-.08-2.36,1.18,1.18,0,0,1,.08,2.36m0-.4a.79.79,0,1,0-.81-.76.8.8,0,0,0,.81.76"/><path class="cls-4" d="M31.24,153.61a1.74,1.74,0,1,1,1.68-1.8,1.74,1.74,0,0,1-1.68,1.8m0-.53a1.2,1.2,0,0,0,1.16-1.24,1.21,1.21,0,1,0-1.16,1.24"/><path class="cls-5" d="M32.6,145.82c-.74-4.7-6.74-12.39-8-11s1.11,10.46,2.41,14.16,4.15,2.76,4.15,2.76c1.11-.29,2.13-1.18,1.39-5.88m-7.38-9.55a.49.49,0,0,1,0-1,.49.49,0,1,1,0,1m5.29,15a.63.63,0,1,1,0-1.25.63.63,0,0,1,0,1.25"/><path class="cls-4" d="M32.09,154.13A1.1,1.1,0,1,1,33.16,153a1.1,1.1,0,0,1-1.07,1.12m0-.52a.58.58,0,1,0-.59-.56.58.58,0,0,0,.59.56"/><path class="cls-4" d="M31.77,156.93l2.4,1.7s0,.59.3.65,1.18.29,1.63-.18,1.35-.76-3.58-5.21l.26-.4,3.79,3.69a1.67,1.67,0,0,1-.13,2.56c-1.11,1-2.93.48-4.67-2.81"/><path class="cls-4" d="M229,88.08l1.9,8.22,1.76-.4-1.91-8.23ZM231,87l-.15-.66a.5.5,0,0,0-.59-.37l-1.5.34a.49.49,0,0,0-.36.59l.15.67A.49.49,0,0,0,229,88l1.84-.42A.51.51,0,0,0,231,87m1.75,10.7a.75.75,0,0,0-.25-.4h0a.51.51,0,0,0,.38-.59l-.13-.53-1.75.41.12.53a.49.49,0,0,0,.59.36h0a.71.71,0,0,0,0,.46.6.6,0,0,0,.67.51.63.63,0,0,0,.39-.75m-.14,0a.53.53,0,0,1-.07.43h0a1.6,1.6,0,0,0,0-.52l0-.19a.62.62,0,0,1,.15.29m-.79.18a.52.52,0,0,1,0-.33l0,.19a1.93,1.93,0,0,0,.19.49h0a.49.49,0,0,1-.25-.35m.36.27a1.46,1.46,0,0,1-.18-.43,2,2,0,0,1,0-.32l.3-.07c0,.09.07.19.1.3a1.35,1.35,0,0,1,0,.47.3.3,0,0,1-.07.17h0s-.08,0-.14-.13"/><path class="cls-1" d="M135.53,149.31s-.36.9,0,0a3.28,3.28,0,0,1,1-1.39,4.07,4.07,0,0,1,2-.7l.66.19a1,1,0,0,0,.11.38l.81.25a.49.49,0,0,0,.44-.22l.81.25a.61.61,0,0,0,.24.37l.84.25a.42.42,0,0,0,.27-.21l1.33.4a1,1,0,0,0,.13.38l.78.22c.19,0,.29-.24.29-.24l1.24.37a1.09,1.09,0,0,0,.21.43l.86.25c.18,0,.4-.24.4-.24l1.45.44c0,.27.46.59.46.59l1,.3s.55-.38,2,.17c2.25.71,3.84,1.23,4.34,1.71a27.74,27.74,0,0,1,2.26,3.22,1.8,1.8,0,0,0,1.18.75l.45-.16,1.38.42.2.37a3.25,3.25,0,0,1-.21,1.27l-.09.34a3.65,3.65,0,0,1-.54,1.17l-.36.2-1.41-.41-.26-.38a1.79,1.79,0,0,0-1.41,0,30.74,30.74,0,0,1-3.66,1.44c-.68.12-2.3-.34-4.57-1-1.49-.34-1.74-1-1.74-1l-1-.29s-.54,0-.72.23l-1.45-.44s-.05-.32-.19-.42l-.87-.26a1.26,1.26,0,0,0-.41.23l-1.23-.37a.51.51,0,0,0-.1-.37l-.78-.24a.88.88,0,0,0-.32.25l-1.33-.4a.47.47,0,0,0-.1-.34l-.85-.25a.61.61,0,0,0-.39.18l-.83-.25a.46.46,0,0,0-.25-.41l-.79-.24a1,1,0,0,0-.32.24l-.64-.19a3.94,3.94,0,0,1-1.26-1.68,3.32,3.32,0,0,1-.06-1.71c.2-1,0,0,0,0Z"/><path class="cls-1" d="M165.92,99.41s.37,1.07,2.73,1.59l6.09,11.21s.49.24,1.56-.28,1.25-1,1.25-1l-4.44-12c1.17-2.11.59-3.09.59-3.09s-4.34-10-5.15-11.37a1.81,1.81,0,0,0-2.14-.93l-4.95,2.25a1.78,1.78,0,0,0-.71,2.2c.53,1.53,5.17,11.37,5.17,11.37"/><path class="cls-1" d="M132.5,132.94c-.74-.8.26-1,.26-1,9.3,2.74,11.26-5.06,11.57-5.54s.55,0,.55,0c-3.52,9.75-11.77,7.17-12.38,6.5"/><path class="cls-1" d="M196,111.59s.33-.18.18.19c-1,2.28-4.41,8.73-13.95,14.36-.13.07-.19,0-.18-.09s9.85-7.11,13.95-14.46"/><path class="cls-1" d="M134.15,151.88a48.49,48.49,0,0,1,4.69-3.61c1.29-.66,3.75-2.27,3.85-3.06.32-.94-.45-4,1.53-5.22,1.6-.87,3.94-2,4.63-2.46l.64-.38.09-.05.48-.3.16.55a4.72,4.72,0,0,1,.18,1.17,1.26,1.26,0,0,1-.47,1.1l-.47-.75a.61.61,0,0,0,.07-.35,2.51,2.51,0,0,0,0-.37l-.2.13c-.76.45-3.07,1.62-4.67,2.48-1.22.55-.82,3.27-1.08,4.66-.47,1.53-3,2.83-4.29,3.62a48.67,48.67,0,0,0-4.53,3.5h0Z"/><path class="cls-1" d="M139.35,157.36a6,6,0,0,1,1.92-2.22c1-.52,2.32-1.76,2.24-2.38v-.33l.32-.09a15.1,15.1,0,0,0,2.94-1.54c2-1.31,5.09-3.21,5.09-3.21h0l.46.73s-3,1.89-5.08,3.19a16.68,16.68,0,0,1-2.9,1.56c-.27,1.26-1.67,2.22-2.64,2.81a5.08,5.08,0,0,0-1.57,1.86Z"/><path class="cls-1" d="M148.54,116.77a9.31,9.31,0,0,0-1.82.2,5.51,5.51,0,0,1-1,.16c-.61,0-.85-.3-1.47-.65a27.13,27.13,0,0,1-3.79-1.89c-2.3-1.52-2.07-4.16-2.67-8.14a76.71,76.71,0,0,1-.46-9.67c0-1.35,0-2.37,0-2.74s-.09-.44-.11-.46l-.13,0H137l-.25-.83a1.14,1.14,0,0,1,1.05.24,1.46,1.46,0,0,1,.38,1.09c0,.38,0,1.4,0,2.74a77.4,77.4,0,0,0,.45,9.53c.57,4.15.5,6.46,2.28,7.55a28.55,28.55,0,0,0,3.75,1.87c.73.43.81.53,1,.52a3.88,3.88,0,0,0,.83-.13,9.33,9.33,0,0,1,2-.22,5.83,5.83,0,0,1,4.53,1.81l-.67.57a4.92,4.92,0,0,0-3.86-1.51"/><path class="cls-1" d="M158.64,103.82a4.7,4.7,0,0,1,1.06-3,9.73,9.73,0,0,0,2-3.7,55.74,55.74,0,0,0,1-6.07c0-.62.05-1.27.05-1.9,0-1.53-.1-3-.2-4.12,0-.16,0-.33,0-.48a10.51,10.51,0,0,1,.36-2.83l1.08.09a8.67,8.67,0,0,0-.57,2.74,2.91,2.91,0,0,0,0,.4c.08,1.12.19,2.63.19,4.2,0,.65,0,1.31-.06,2-.15,2.24-.53,5.39-.67,6.23a32.41,32.41,0,0,1-2.56,4,3.93,3.93,0,0,0-.87,2.43,2.58,2.58,0,0,0,0,.43h0l-.85.17a2.7,2.7,0,0,1-.05-.6"/><path class="cls-1" d="M175.06,108.83c-.68-2-.1-8.75-1-9.87a2,2,0,0,1-.35-1.22c0-2,1.84-5,1.79-5.84.1-.86-1.49-1.6-2.93-3a24.83,24.83,0,0,0-2.65-2.24l.49-.71a22.42,22.42,0,0,1,2.78,2.34c1.18,1.26,3.08,1.82,3.18,3.57-.06,1.37-1.81,4.21-1.79,5.84a1.14,1.14,0,0,0,.19.7c1.23,1.85.5,8.55,1.13,10.09.66,1.89.36,4.8,1,5.28l-.62.62c-1.11-1.25-.54-4-1.19-5.6M169.89,86.7Z"/><path class="cls-1" d="M198.2,125.35c0-.18,0-.35,0-.53a5.06,5.06,0,0,0-.37-1.82c-.45-1.22-1.71-6.64-2.36-7.63a7.35,7.35,0,0,1-.86-3.72c0-.88.81-3.78,1-5.28a29.89,29.89,0,0,0,.14-3.33c0-.93,0-1.65,0-1.65h0l.87,0s0,.74,0,1.67a33,33,0,0,1-.14,3.45c-.23,1.55-1,4.6-1,5.16a6.61,6.61,0,0,0,.72,3.26c.81,1.33,2,6.67,2.45,7.78a6.14,6.14,0,0,1,.42,2.13c0,.22,0,.43,0,.6Z"/><path class="cls-4" d="M33.87,46.69l-3,3a8.82,8.82,0,0,0-6.63-3,7.56,7.56,0,0,0-5.52,2.19,7.16,7.16,0,0,0-2.23,5.32,7.37,7.37,0,0,0,2.31,5.48,7.86,7.86,0,0,0,5.71,2.25A7,7,0,0,0,28.22,61a6.51,6.51,0,0,0,2.44-2.9H24.19v-4H35.43l0,1a10.9,10.9,0,0,1-1.52,5.56,10.57,10.57,0,0,1-3.93,4A11.14,11.14,0,0,1,24.34,66a12.68,12.68,0,0,1-6.2-1.51,11,11,0,0,1-4.31-4.31,12,12,0,0,1-1.59-6,11.23,11.23,0,0,1,2.93-7.72,11.57,11.57,0,0,1,9-3.9,13.82,13.82,0,0,1,5.46,1.08,12.62,12.62,0,0,1,4.19,3.13"/><path class="cls-4" d="M37,43h4.51a14.86,14.86,0,0,1,5.28.68,5.33,5.33,0,0,1,2.55,2.19,6.74,6.74,0,0,1,.93,3.62,6.07,6.07,0,0,1-1.22,3.89,6.29,6.29,0,0,1-3.32,2.15,18.66,18.66,0,0,1-4.48.35v9.46H37Zm4.25,8.74h1.35a7.33,7.33,0,0,0,2.22-.23,2.06,2.06,0,0,0,1-.76,2.18,2.18,0,0,0,.36-1.27,2,2,0,0,0-1-1.89,5.73,5.73,0,0,0-2.7-.44h-1.2Z"/><polygon class="cls-4" points="54.29 43.04 58.43 43.04 63.61 58.63 68.84 43.04 72.98 43.04 76.73 65.39 72.61 65.39 70.22 51.27 65.47 65.39 61.72 65.39 57.02 51.27 54.57 65.39 50.42 65.39 54.29 43.04"/><polygon class="cls-4" points="80.27 43.04 84.52 43.04 84.52 61.33 90.72 61.33 90.72 65.39 80.27 65.39 80.27 43.04"/><path class="cls-1" d="M171.9,173.32a4,4,0,1,0-4.17-3.93,4,4,0,0,0,4.17,3.93"/><g id="DIGITAL_PLATFORM" data-name="DIGITAL PLATFORM" class="cls-6"><g class="cls-6"><path class="cls-7" d="M263.35,79.67H274a12.53,12.53,0,0,1,5.3,1.14,14.48,14.48,0,0,1,4.34,3,14.14,14.14,0,0,1,2.92,4.41,13.59,13.59,0,0,1,0,10.5,13.73,13.73,0,0,1-2.9,4.42,14.14,14.14,0,0,1-4.33,3,12.61,12.61,0,0,1-5.34,1.14H263.35Zm7.2,21.59h1.65a9,9,0,0,0,3.34-.58A7,7,0,0,0,278,99.06a6.85,6.85,0,0,0,1.54-2.44,8.63,8.63,0,0,0,.53-3.1,8.48,8.48,0,0,0-.55-3.09,6.88,6.88,0,0,0-4-4.07,8.66,8.66,0,0,0-3.3-.59h-1.65Z"/><path class="cls-7" d="M299.41,79.67v27.69h-7.2V79.67Z"/><path class="cls-7" d="M318.69,91.86H333c0,1.47-.06,2.81-.18,4a13.93,13.93,0,0,1-.74,3.34,13.42,13.42,0,0,1-2.09,3.84,12.3,12.3,0,0,1-3.1,2.79,14.76,14.76,0,0,1-3.91,1.7,16.48,16.48,0,0,1-4.48.59,15.77,15.77,0,0,1-5.9-1.06,13.26,13.26,0,0,1-4.57-3,13.5,13.5,0,0,1-3-4.62,17.23,17.23,0,0,1,0-11.9,13.08,13.08,0,0,1,3-4.61,13.63,13.63,0,0,1,4.65-3,16.47,16.47,0,0,1,6.06-1.07,15.1,15.1,0,0,1,7.6,1.87,13,13,0,0,1,5.18,5.81l-6.83,2.82a7,7,0,0,0-2.48-3.26,6.18,6.18,0,0,0-3.47-1,7,7,0,0,0-2.94.61,6.36,6.36,0,0,0-2.26,1.73A8.37,8.37,0,0,0,312,90.17a11.18,11.18,0,0,0-.53,3.53A11,11,0,0,0,312,97a7.26,7.26,0,0,0,1.38,2.61,6.2,6.2,0,0,0,2.27,1.7,7.61,7.61,0,0,0,3.16.61,8.73,8.73,0,0,0,2.06-.24,5.59,5.59,0,0,0,1.78-.77,4.41,4.41,0,0,0,1.3-1.38,5.51,5.51,0,0,0,.7-2h-5.91Z"/><path class="cls-7" d="M344.72,79.67v27.69h-7.19V79.67Z"/><path class="cls-7" d="M361,85.77v21.59h-7.2V85.77h-5.91v-6.1h19v6.1Z"/><path class="cls-7" d="M385.81,102.55H375.53l-1.65,4.81h-7.67l10.53-27.69h7.86l10.54,27.69h-7.67Zm-1.91-5.47-3.23-9.22-3.23,9.22Z"/><path class="cls-7" d="M405.5,79.67v21.59h8.63v6.1H398.3V79.67Z"/></g><g class="cls-6"><path class="cls-7" d="M270.55,176.21h-7.2V148.53h11.46c3.1,0,5.49.8,7.14,2.42a10.65,10.65,0,0,1,0,13.66c-1.65,1.62-4,2.42-7.14,2.42h-4.26Zm0-15h2.38q4,0,4-3.45t-4-3.45h-2.38Z"/><path class="cls-7" d="M295.44,148.53v21.59h8.63v6.09H288.25V148.53Z"/><path class="cls-7" d="M325.88,171.4H315.6L314,176.21h-7.68l10.54-27.68h7.86l10.54,27.68h-7.67Zm-1.9-5.47-3.24-9.22-3.23,9.22Z"/><path class="cls-7" d="M347.66,154.62v21.59h-7.2V154.62h-5.91v-6.09h19v6.09Z"/><path class="cls-7" d="M372.63,154.62H364v4.63h7.9v6.09H364v10.87h-7.19V148.53h15.86Z"/><path class="cls-7" d="M375.64,162.37a14.46,14.46,0,0,1,1.14-5.75,14.32,14.32,0,0,1,3.16-4.64,14.5,14.5,0,0,1,4.83-3.11,17.58,17.58,0,0,1,12.35,0A14.68,14.68,0,0,1,402,152a14.22,14.22,0,0,1,3.18,4.64,15.07,15.07,0,0,1,0,11.5,14.22,14.22,0,0,1-3.18,4.64,14.68,14.68,0,0,1-4.87,3.11,17.58,17.58,0,0,1-12.35,0,14.5,14.5,0,0,1-4.83-3.11,14.32,14.32,0,0,1-3.16-4.64A14.46,14.46,0,0,1,375.64,162.37Zm7.53,0a7.49,7.49,0,0,0,.62,3,7.7,7.7,0,0,0,1.69,2.42,7.61,7.61,0,0,0,2.48,1.6,8,8,0,0,0,8.49-1.6,7.41,7.41,0,0,0,1.7-2.42,7.7,7.7,0,0,0,0-6.1,7.41,7.41,0,0,0-1.7-2.42,8.08,8.08,0,0,0-8.49-1.6,7.61,7.61,0,0,0-2.48,1.6,7.7,7.7,0,0,0-1.69,2.42A7.49,7.49,0,0,0,383.17,162.37Z"/><path class="cls-7" d="M433.88,176.21h-9l-6.86-10.65v10.65h-7.2V148.53h11.2a10.86,10.86,0,0,1,4,.68,7.59,7.59,0,0,1,4.53,4.57,9.42,9.42,0,0,1,.57,3.3,8.19,8.19,0,0,1-1.52,5.13,7.77,7.77,0,0,1-4.5,2.66ZM418.06,160.9h1.35a5.24,5.24,0,0,0,3.27-.88,3.39,3.39,0,0,0,0-5.07,5.24,5.24,0,0,0-3.27-.88h-1.35Z"/><path class="cls-7" d="M435.65,176.21l4.7-27.68h7.12L453,163.29l5.51-14.76h7.13l4.7,27.68h-7.16l-2.39-15.93-6.54,15.93H451.4l-6.21-15.93-2.38,15.93Z"/></g></g></svg>