<svg width="21" height="18" viewBox="0 0 21 18" fill="none" xmlns="http://www.w3.org/2000/svg">
<path d="M0.0222416 8.47193C0.126274 7.78058 0.550406 7.30995 1.23644 7.06284C1.31428 7.03438 1.35866 6.99551 1.38921 6.92263C1.5529 6.53114 1.72023 6.14173 1.88682 5.75232C2.05051 5.36916 2.2142 4.98669 2.38152 4.59589C1.80025 4.03086 1.50343 3.34923 1.54417 2.54958C1.58491 1.74508 1.94211 1.08427 2.59977 0.582408C3.20651 0.119421 3.90709 -0.0686895 4.67678 0.022242C5.61526 0.133303 6.31366 0.605314 6.79454 1.36956C6.81054 1.37164 6.81781 1.37441 6.82436 1.37372C7.29869 1.29945 7.77229 1.22448 8.24662 1.1516C8.77406 1.07038 9.3015 0.987782 9.82966 0.91351C9.93588 0.898239 9.99699 0.855203 10.0588 0.773295C10.5091 0.177034 11.1232 -0.0839605 11.8827 0.0264068C12.9448 0.181199 13.625 1.17242 13.3762 2.17475C13.3537 2.26568 13.35 2.33301 13.4497 2.37674C13.4686 2.38507 13.4839 2.40173 13.5006 2.41492C14.6064 3.26246 15.7115 4.11 16.8166 4.95892C16.8995 5.02278 16.9752 5.09567 17.069 5.17688C17.0639 5.17688 17.0712 5.17896 17.0777 5.17688C17.1054 5.16924 17.1323 5.16091 17.16 5.15189C17.6459 4.99363 18.1421 4.96378 18.6462 5.05332C20.1485 5.32057 21.2143 6.69703 20.9633 8.19844C20.8251 9.02308 20.377 9.6596 19.6458 10.1129C19.3352 10.3051 18.994 10.4273 18.6302 10.4933C18.5444 10.5085 18.5458 10.5099 18.5313 10.5877C18.5211 10.6411 18.5087 10.6952 18.4913 10.7466C18.0715 12.0058 17.6503 13.2642 17.2305 14.5234C17.2189 14.5581 17.2109 14.5949 17.2007 14.6331C17.2349 14.6518 17.2625 14.6678 17.2902 14.6823C18.0177 15.0634 18.3865 15.8124 18.2243 16.5926C18.0337 17.5089 17.0988 18.1475 16.0818 17.9705C15.1135 17.8018 14.4457 16.9313 14.5911 15.9832C14.597 15.9471 14.597 15.9096 14.5984 15.8804C13.7887 15.3855 12.9885 14.8968 12.194 14.4116C12.1759 14.4186 12.1678 14.4193 12.1628 14.4234C12.1366 14.4463 12.1104 14.4706 12.0842 14.4935C11.1748 15.3085 10.1025 15.6153 8.88028 15.389C7.05716 15.0509 5.73384 13.3503 6.09686 11.4366C6.10341 11.404 6.10487 11.3706 6.10923 11.3352C5.13875 10.8604 4.17554 10.3891 3.21233 9.91781C3.17741 9.94905 3.14831 9.97473 3.11921 9.99972C2.65725 10.4037 2.11671 10.5571 1.49979 10.4544C0.650801 10.3128 -0.139263 9.53604 0.0207863 8.47124L0.0222416 8.47193ZM14.9891 15.1141C15.339 14.7247 15.7886 14.5088 16.3313 14.4734C16.7722 13.1539 17.2109 11.8413 17.6547 10.5134C17.4051 10.4592 17.1665 10.4051 16.9417 10.3086C16.7176 10.2128 16.5074 10.0962 16.3146 9.95113C16.1189 9.80398 15.945 9.63669 15.7937 9.44789C15.6446 9.26255 15.526 9.05986 15.4198 8.83288C15.3739 8.8669 15.3368 8.89188 15.3034 8.91965C14.5839 9.52424 13.8651 10.1288 13.1456 10.7334C13.0998 10.7716 13.0554 10.8132 13.0045 10.8438C12.9528 10.875 12.9448 10.9056 12.9616 10.9625C13.0132 11.1367 13.0685 11.3109 13.1005 11.4893C13.2307 12.2168 13.126 12.9137 12.7833 13.5773C12.7593 13.6231 12.736 13.6689 12.7127 13.714C12.7622 13.7737 14.8523 15.06 14.9891 15.1141ZM12.5316 10.133C12.5658 10.1073 12.5942 10.0872 12.6204 10.065C13.4555 9.3632 14.29 8.66074 15.1266 7.96036C15.1797 7.91593 15.2022 7.87012 15.2022 7.8014C15.2044 6.95178 15.5384 6.24376 16.2018 5.67735C16.2178 5.66347 16.2338 5.64959 16.2484 5.63501C16.2528 5.63015 16.2542 5.62251 16.2637 5.60238C15.144 4.74374 14.0208 3.88232 12.8939 3.01812C12.293 3.52137 11.6179 3.67755 10.8809 3.38879C10.1425 3.09934 9.78165 2.53292 9.72709 1.76868C8.84899 1.90196 7.98327 2.03315 7.10591 2.16642C7.10809 2.21015 7.10736 2.24625 7.11245 2.28234C7.22958 3.14793 6.98005 3.90106 6.3544 4.53897C6.33985 4.55424 6.32457 4.56882 6.31075 4.58478C6.30638 4.58964 6.3042 4.59658 6.29547 4.61324C7.13137 5.98208 7.9709 7.35715 8.81553 8.73987C8.84536 8.73709 8.88028 8.7364 8.91447 8.73015C10.2822 8.48443 11.6302 8.9849 12.4596 10.0476C12.4807 10.0747 12.504 10.0997 12.5309 10.1323L12.5316 10.133ZM3.6772 8.5115C3.70775 8.70447 3.69611 8.90091 3.65174 9.09388C3.63064 9.1855 3.63137 9.18689 3.71794 9.22923C4.58585 9.65474 5.45375 10.0789 6.32239 10.5037C6.34712 10.5155 6.37404 10.5238 6.41333 10.5384C6.59229 10.2107 6.80836 9.92198 7.07317 9.66793C7.33798 9.41387 7.63916 9.20702 7.98327 9.03349C7.1772 7.71394 6.37768 6.4048 5.57234 5.08734C4.75244 5.44204 3.93546 5.44273 3.11048 5.08942C2.83621 5.73219 2.56631 6.36454 2.29204 7.00731C2.34442 7.02536 2.38371 7.03855 2.42299 7.05174C3.14176 7.30301 3.56153 7.79099 3.67575 8.51219L3.6772 8.5115Z" fill="#255B87"/>
</svg>
