<svg width="19" height="20" viewBox="0 0 19 20" fill="none" xmlns="http://www.w3.org/2000/svg">
<path d="M6.70769 11.4277H1.67539C0.748708 11.4277 0 12.1996 0 13.1409V18.2805C0 19.2281 0.754845 19.9937 1.67539 19.9937H6.70769C7.63437 19.9937 8.38307 19.2218 8.38307 18.2805V13.1409C8.38307 12.1933 7.62823 11.4277 6.70769 11.4277ZM7.26615 18.2868C7.26615 18.6006 7.01453 18.8579 6.70769 18.8579H1.67539C1.36854 18.8579 1.11693 18.6006 1.11693 18.2868V13.1472C1.11693 12.8334 1.36854 12.5761 1.67539 12.5761H6.70769C7.01453 12.5761 7.26615 12.8334 7.26615 13.1472V18.2868Z" fill="#255B87"/>
<path d="M6.70769 0H1.67539C0.754845 0 0 0.771886 0 1.71321V6.85912C0 7.80672 0.754845 8.57232 1.67539 8.57232H6.70769C7.63437 8.57232 8.38307 7.80044 8.38307 6.85912V1.71321C8.38307 0.76561 7.62823 0 6.70769 0ZM7.26615 6.85912C7.26615 7.17289 7.01453 7.43019 6.70769 7.43019H1.67539C1.36854 7.43019 1.11693 7.17289 1.11693 6.85912V1.71321C1.11693 1.39944 1.36854 1.14214 1.67539 1.14214H6.70769C7.01453 1.14214 7.26615 1.39944 7.26615 1.71321V6.85912Z" fill="#255B87"/>
<path d="M17.3187 0H12.2926C11.3659 0 10.6172 0.771886 10.6172 1.71321V6.85912C10.6172 7.80672 11.372 8.57232 12.2926 8.57232H17.3187C18.2454 8.57232 18.9941 7.80044 18.9941 6.85912V1.71321C18.9941 0.76561 18.2393 0 17.3187 0ZM17.8772 6.85912C17.8772 7.17289 17.6256 7.43019 17.3187 7.43019H12.2926C11.9857 7.43019 11.7341 7.17289 11.7341 6.85912V1.71321C11.7341 1.39944 11.9857 1.14214 12.2926 1.14214H17.3187C17.6256 1.14214 17.8772 1.39944 17.8772 1.71321V6.85912Z" fill="#255B87"/>
<path d="M17.3187 11.4277H12.2926C11.3659 11.4277 10.6172 12.1996 10.6172 13.1409V18.2805C10.6172 19.2281 11.372 19.9937 12.2926 19.9937H17.3187C18.2454 19.9937 18.9941 19.2218 18.9941 18.2805V13.1409C18.9941 12.1933 18.2393 11.4277 17.3187 11.4277ZM17.8772 18.2868C17.8772 18.6006 17.6256 18.8579 17.3187 18.8579H12.2926C11.9857 18.8579 11.7341 18.6006 11.7341 18.2868V13.1472C11.7341 12.8334 11.9857 12.5761 12.2926 12.5761H17.3187C17.6256 12.5761 17.8772 12.8334 17.8772 13.1472V18.2868Z" fill="#255B87"/>
</svg>
