<svg width="32" height="32" viewBox="0 0 32 32" fill="none" xmlns="http://www.w3.org/2000/svg">
<g id="Icons/32px/help" clip-path="url(#clip0_873_11679)">
<path id="Vector" d="M22 19.3335V31.3335" stroke="#00F1BF" stroke-linecap="round" stroke-linejoin="round"/>
<path id="Vector_2" d="M0.666016 31.3332V7.33317C0.666016 6.62593 0.946967 5.94765 1.44706 5.44755C1.94716 4.94746 2.62544 4.6665 3.33268 4.6665H13.3327" stroke="#00F1BF" stroke-linecap="round" stroke-linejoin="round"/>
<path id="Vector_3" d="M12.666 10H0.666016" stroke="#00F1BF" stroke-linecap="round" stroke-linejoin="round"/>
<path id="Vector_4" d="M10.666 25.3335C11.2594 25.3335 11.8394 25.1575 12.3327 24.8279C12.8261 24.4983 13.2106 24.0297 13.4377 23.4815C13.6647 22.9334 13.7241 22.3302 13.6084 21.7482C13.4926 21.1663 13.2069 20.6317 12.7873 20.2122C12.3678 19.7926 11.8332 19.5069 11.2513 19.3911C10.6693 19.2754 10.0661 19.3348 9.51797 19.5619C8.96979 19.7889 8.50125 20.1734 8.17161 20.6668C7.84196 21.1601 7.66602 21.7402 7.66602 22.3335C7.66602 22.7275 7.74361 23.1176 7.89438 23.4815C8.04514 23.8455 8.26612 24.1762 8.5447 24.4548C8.82327 24.7334 9.15399 24.9544 9.51797 25.1051C9.88194 25.2559 10.2721 25.3335 10.666 25.3335Z" stroke="#00F1BF" stroke-linecap="round" stroke-linejoin="round"/>
<path id="Vector_5" d="M16.666 31.3334C16.326 30.0001 15.5517 28.8181 14.4652 27.9739C13.3787 27.1297 12.0419 26.6714 10.666 26.6714C9.29009 26.6714 7.95336 27.1297 6.86686 27.9739C5.78036 28.8181 5.00599 30.0001 4.66602 31.3334" stroke="#00F1BF" stroke-linecap="round" stroke-linejoin="round"/>
<path id="Vector_6" d="M9.33398 7.3335H12.6673" stroke="#00F1BF" stroke-linecap="round" stroke-linejoin="round"/>
<path id="Vector_7" d="M23.244 0.666505C22.1914 0.670038 21.15 0.882873 20.1804 1.29263C19.2108 1.70238 18.3323 2.30087 17.5962 3.05327C16.8601 3.80567 16.2809 4.69696 15.8924 5.67527C15.5039 6.65359 15.3139 7.69939 15.3333 8.75184C15.2733 10.2406 15.6343 11.7162 16.3747 13.0092L14 17.9998L18.988 15.6238C20.0513 16.283 21.2531 16.6864 22.4988 16.8024C23.7445 16.9183 25 16.7436 26.1667 16.292C27.3334 15.8404 28.3794 15.1242 29.2224 14.1998C30.0654 13.2753 30.6823 12.1679 31.0247 10.9646C31.3671 9.76133 31.4256 8.49499 31.1956 7.26526C30.9655 6.03553 30.4533 4.87595 29.6991 3.87776C28.9449 2.87958 27.9694 2.07003 26.8493 1.5128C25.7292 0.955571 24.4951 0.665875 23.244 0.666505Z" stroke="#00F1BF" stroke-linecap="round" stroke-linejoin="round"/>
<path id="Vector_8" d="M21.334 7.3335C21.334 6.93793 21.4513 6.55125 21.671 6.22236C21.8908 5.89346 22.2032 5.63711 22.5686 5.48574C22.9341 5.33436 23.3362 5.29476 23.7242 5.37193C24.1121 5.4491 24.4685 5.63958 24.7482 5.91928C25.0279 6.19899 25.2184 6.55535 25.2956 6.94332C25.3727 7.33128 25.3331 7.73341 25.1817 8.09886C25.0304 8.46432 24.774 8.77667 24.4451 8.99644C24.1162 9.2162 23.7295 9.3335 23.334 9.3335" stroke="#00F1BF" stroke-linecap="round" stroke-linejoin="round"/>
<path id="Vector_9" d="M23.3333 11.3335C23.3993 11.3335 23.4637 11.353 23.5185 11.3897C23.5733 11.4263 23.6161 11.4784 23.6413 11.5393C23.6665 11.6002 23.6731 11.6672 23.6603 11.7319C23.6474 11.7965 23.6157 11.8559 23.569 11.9025C23.5224 11.9491 23.463 11.9809 23.3984 11.9938C23.3337 12.0066 23.2667 12 23.2058 11.9748C23.1449 11.9496 23.0928 11.9068 23.0562 11.852C23.0196 11.7972 23 11.7328 23 11.6668C23 11.5784 23.0351 11.4936 23.0976 11.4311C23.1601 11.3686 23.2449 11.3335 23.3333 11.3335Z" stroke="#00F1BF" stroke-linecap="round" stroke-linejoin="round"/>
</g>
<defs>
<clipPath id="clip0_873_11679">
<rect width="32" height="32" fill="white"/>
</clipPath>
</defs>
</svg>
