<svg width="46" height="67" viewBox="0 0 46 67" fill="none" xmlns="http://www.w3.org/2000/svg">
<path d="M44.096 0H9.37075C6.94323 0.00259385 4.61588 0.96807 2.89937 2.68459C1.18285 4.4011 0.217377 6.72845 0.214783 9.15597L0.214783 47.3317C0.217619 49.7592 1.18317 52.0864 2.89964 53.8029C4.6161 55.5193 6.9433 56.4849 9.37075 56.4877H11.661V65.7429C11.6609 65.9745 11.7294 66.2009 11.858 66.3936C11.9866 66.5862 12.1693 66.7364 12.3833 66.8252C12.5972 66.914 12.8326 66.9374 13.0598 66.8924C13.287 66.8474 13.4957 66.7361 13.6597 66.5724L16.9668 63.2708L20.2722 66.5721C20.4361 66.7357 20.6448 66.8471 20.872 66.8921C21.0992 66.9371 21.3347 66.9137 21.5486 66.8249C21.7625 66.7361 21.9453 66.5859 22.0738 66.3933C22.2024 66.2006 22.271 65.9742 22.2709 65.7426V56.4874H44.096C44.3466 56.4861 44.5898 56.4027 44.7885 56.25C44.9871 56.0973 45.1302 55.8836 45.1959 55.6418C45.2615 55.4 45.2461 55.1434 45.152 54.9112C45.0579 54.679 44.8903 54.484 44.6748 54.3561C44.5364 54.2702 44.4034 54.1758 44.2767 54.0735C43.3626 53.3505 41.1983 51.1916 41.1983 46.9153C41.1983 42.2301 43.8125 40.7995 44.3649 40.5487C44.4188 40.5248 44.4598 40.5076 44.4702 40.5031C44.6947 40.4252 44.8894 40.2794 45.0272 40.0858C45.1649 39.8923 45.239 39.6606 45.2392 39.423V1.14404C45.2392 0.840753 45.1189 0.549855 44.9045 0.335316C44.6901 0.120776 44.3993 0.00016239 44.096 0V0ZM2.50286 9.15597C2.50509 7.5559 3.06539 6.00672 4.0872 4.7754C5.10901 3.54409 6.52832 2.70777 8.10055 2.41056V38.1096C5.94358 38.4125 3.96196 39.4646 2.50286 41.0818V9.15597ZM19.9286 54.0735V62.918L17.7939 60.7867C17.5742 60.5677 17.2765 60.4447 16.9662 60.4447C16.6559 60.4447 16.3583 60.5677 16.1385 60.7867L14.0038 62.918V49.7867H19.9286V54.0735ZM22.2715 54.0735V48.6154C22.2715 48.3047 22.148 48.0067 21.9283 47.787C21.7086 47.5673 21.4106 47.4438 21.0999 47.4438H12.8319C12.5212 47.4438 12.2232 47.5673 12.0035 47.787C11.7838 48.0067 11.6603 48.3047 11.6603 48.6154V54.0735H9.39096C7.59746 54.0735 5.87741 53.361 4.60922 52.0928C3.34102 50.8246 2.62856 49.1046 2.62856 47.3111C2.62856 45.5176 3.34102 43.7975 4.60922 42.5293C5.87741 41.2611 7.59746 40.5487 9.39096 40.5487H40.8633C39.8301 41.8596 38.9127 43.8742 38.9127 46.9153C38.9127 50.2479 40.0151 52.5669 41.1435 54.0735H22.2715ZM42.9532 38.0092H10.6403V2.28685H42.9532V38.0092Z" fill="#67BEA1"/>
<path d="M30.0372 24.6661C29.9308 24.7722 29.8464 24.8983 29.7889 25.0371C29.7313 25.1759 29.7017 25.3247 29.7017 25.475C29.7017 25.6252 29.7313 25.774 29.7889 25.9128C29.8464 26.0516 29.9308 26.1777 30.0372 26.2838L35.3158 31.5624C35.5304 31.777 35.8214 31.8975 36.1248 31.8975C36.4282 31.8974 36.7192 31.7769 36.9337 31.5623C37.1482 31.3477 37.2687 31.0567 37.2687 30.7533C37.2687 30.4499 37.1481 30.1589 36.9335 29.9444L31.6549 24.6661C31.5488 24.5597 31.4227 24.4753 31.2839 24.4178C31.1451 24.3602 30.9963 24.3306 30.8461 24.3306C30.6958 24.3306 30.547 24.3602 30.4082 24.4178C30.2694 24.4753 30.1433 24.5597 30.0372 24.6661Z" fill="#67BEA1"/>
<path d="M24.1639 25.9917C25.5871 25.9917 26.9783 25.5697 28.1617 24.7791C29.345 23.9884 30.2674 22.8647 30.8121 21.5499C31.3568 20.2351 31.4995 18.7883 31.222 17.3924C30.9445 15.9966 30.2593 14.7143 29.2531 13.7078C28.247 12.7013 26.9649 12.0158 25.5691 11.7379C24.1734 11.46 22.7265 11.6022 21.4116 12.1465C20.0966 12.6909 18.9726 13.6129 18.1816 14.796C17.3906 15.9791 16.9682 17.3702 16.9678 18.7934C16.97 20.7014 17.7289 22.5307 19.0779 23.8801C20.4268 25.2295 22.2559 25.9889 24.1639 25.9917ZM24.1639 13.8844C25.135 13.8843 26.0843 14.1721 26.8918 14.7115C27.6993 15.251 28.3287 16.0177 28.7003 16.9149C29.072 17.812 29.1693 18.7992 28.9799 19.7517C28.7904 20.7041 28.3228 21.579 27.6362 22.2656C26.9495 22.9523 26.0746 23.4199 25.1222 23.6093C24.1698 23.7987 23.1826 23.7015 22.2854 23.3298C21.3883 22.9581 20.6215 22.3287 20.0821 21.5213C19.5427 20.7138 19.2548 19.7645 19.2549 18.7934C19.2567 17.492 19.7745 16.2444 20.6947 15.3242C21.6149 14.4039 22.8625 13.8862 24.1639 13.8844Z" fill="#67BEA1"/>
</svg>
