<?xml version="1.0" encoding="utf-8"?>
<!-- Generator: Adobe Illustrator 25.1.0, SVG Export Plug-In . SVG Version: 6.00 Build 0)  -->
<svg version="1.1" id="Layer_1" xmlns="http://www.w3.org/2000/svg" xmlns:xlink="http://www.w3.org/1999/xlink" x="0px" y="0px"
	 viewBox="0 0 32 32" style="enable-background:new 0 0 32 32;" xml:space="preserve">
<style type="text/css">
	.st0{fill:#FFFFFF;}
</style>
<g id="instagram">
	<g>
		<path class="st0" d="M24,5.3H8.1c-1.4,0-2.9,1.6-2.9,3v15.9c0,1.4,1.5,2.7,2.9,2.7H24c1.4,0,2.8-1.3,2.8-2.7V8.2
			C26.7,6.9,25.3,5.3,24,5.3z M16,12.5c1.9,0,3.6,1.6,3.6,3.6s-1.6,3.6-3.6,3.6S12.4,18,12.4,16S14.1,12.5,16,12.5z M24.4,23.5
			c0,0.3-0.5,0.8-0.8,0.8h-15c-0.3,0-0.9-0.5-0.9-0.8v-8.7H10c-0.2,0-0.3,1-0.3,1.5c0,3.5,2.9,6.2,6.3,6.2s6.3-2.8,6.3-6.3
			c0-0.6-0.1-1.5-0.3-1.5h2.2V23.5z M24.4,11.7c0,0.4-0.3,0.7-0.7,0.7h-2.2c-0.4,0-0.7-0.3-0.7-0.7V9.6c0-0.4,0.3-0.7,0.7-0.7h2.1
			c0.4,0,0.7,0.3,0.7,0.7L24.4,11.7L24.4,11.7z"/>
	</g>
</g>
<g id="Layer_1_1_">
</g>
</svg>
