<svg width="74" height="82" viewBox="0 0 74 82" fill="none" xmlns="http://www.w3.org/2000/svg">
<path d="M53.2624 53.3445H52.7434C52.3175 53.1109 52.1445 52.7204 52.028 52.2698C48.5979 39.053 45.1612 25.8362 41.7277 12.6194C41.6911 12.4725 41.6412 12.329 41.6013 12.1855L41.4849 12.2155V12.8864C41.4849 25.9096 41.4849 38.9295 41.4915 51.9527C41.4915 52.5201 41.4117 53.0141 40.906 53.3478H13.9974C13.9974 38.1352 13.9974 22.9258 13.9974 7.71314C14.3068 7.21584 14.766 7.09903 15.3249 7.10236C19.3938 7.11571 23.4593 7.10904 27.5282 7.10904H28.1836C28.1836 6.85204 28.1836 6.66514 28.1836 6.47824C28.1836 4.7427 28.1836 3.00716 28.1836 1.26828C28.1836 0.270344 28.4565 0.00333758 29.4512 0.00333758C33.0144 0 36.5809 0 40.1474 0C41.232 0 41.4782 0.250318 41.4782 1.36173C41.4782 4.41895 41.4782 7.47283 41.4782 10.5301V11.0774C41.8076 10.9105 42.0638 10.7236 42.3499 10.6469C46.6217 9.49207 50.8969 8.35062 55.172 7.2125C55.9838 6.99556 56.3731 7.23253 56.586 8.05023C60.0826 21.484 63.576 34.9144 67.0693 48.3481C67.3022 49.2493 67.1059 49.5964 66.2143 49.8334C63.5261 50.5576 60.8379 51.2685 58.153 51.9961C56.5195 52.4367 54.8926 52.8939 53.2624 53.3445ZM30.0035 11.5847V42.6509H39.6684V11.5847H30.0035ZM15.804 13.357V39.9842H28.1504V13.357H15.804ZM62.4448 37.6278C60.7214 30.9961 59.018 24.4444 57.3046 17.8494C53.4221 18.8873 49.596 19.912 45.7268 20.9466C47.4501 27.5784 49.1569 34.1401 50.8669 40.7251C54.7562 39.6838 58.5722 38.6658 62.4448 37.6278ZM28.1437 51.5455V46.2688H15.794V51.5455H28.1404H28.1437ZM55.9971 12.8029C55.6578 11.518 55.3417 10.3198 55.019 9.09156C51.1264 10.1362 47.2971 11.1609 43.4445 12.1922C43.7772 13.4604 44.0866 14.6486 44.4126 15.8969C48.2885 14.8622 52.1212 13.8376 55.9971 12.8029ZM64.248 44.56C60.3721 45.5946 56.5428 46.6193 52.6702 47.6573L53.635 51.3686C57.5309 50.324 61.3602 49.2993 65.2128 48.268C64.8835 47.0031 64.5707 45.8049 64.2447 44.5633L64.248 44.56ZM62.8906 39.35C59.0147 40.388 55.1887 41.4127 51.3194 42.4506C51.6288 43.6388 51.9216 44.7736 52.2243 45.9351C56.1069 44.8971 59.9329 43.8724 63.8022 42.8378C63.4895 41.6463 63.1967 40.5148 62.8906 39.35ZM39.6684 5.30341V1.80563H29.9968V5.30341H39.6684ZM29.9835 51.5422H39.6617V48.0578H29.9835V51.5422ZM15.7907 11.5247H28.1371V8.918H15.7907V11.5247ZM28.1537 41.8232H15.7907V44.4231H28.1537V41.8232ZM39.6684 7.13908H29.9968V9.74572H39.6684V7.13908ZM56.433 14.5218C52.5471 15.5631 48.7177 16.5878 44.8551 17.6224C45.0048 18.1798 45.1412 18.6871 45.2843 19.2244C49.1702 18.1831 52.9962 17.1551 56.8488 16.1238L56.433 14.5251V14.5218ZM39.6617 46.2121V44.4932H30.0035V46.2121H39.6617Z" fill="#6DB5B0"/>
<path d="M17.534 20.4342C17.534 19.3395 17.5273 18.2481 17.534 17.1534C17.5406 16.339 17.8534 16.022 18.6718 16.022C20.8709 16.0153 23.0667 16.0153 25.2659 16.022C26.0976 16.022 26.397 16.319 26.4004 17.1501C26.407 19.3529 26.407 21.559 26.4004 23.7618C26.4004 24.6062 26.081 24.9033 25.2193 24.9066C23.0568 24.9066 20.8942 24.9066 18.7284 24.9066C17.8501 24.9066 17.5373 24.5929 17.534 23.7151C17.5307 22.6204 17.534 21.529 17.534 20.4342ZM19.3339 17.8276V23.101H24.5938V17.8276H19.3339Z" fill="#6DB5B0"/>
<path d="M53.2624 53.3445H52.7434C52.3175 53.1109 52.1445 52.7204 52.028 52.2698C48.5979 39.053 45.1612 25.8362 41.7277 12.6194C41.6911 12.4725 41.6412 12.329 41.6013 12.1855L41.4849 12.2155V12.8864C41.4849 25.9096 41.4849 38.9295 41.4915 51.9527C41.4915 52.5201 41.4117 53.0141 40.906 53.3478H13.9974C13.9974 38.1352 13.9974 22.9258 13.9974 7.71314C14.3068 7.21584 14.766 7.09903 15.3249 7.10236C19.3938 7.11571 23.4593 7.10904 27.5282 7.10904H28.1836C28.1836 6.85204 28.1836 6.66514 28.1836 6.47824C28.1836 4.7427 28.1836 3.00716 28.1836 1.26828C28.1836 0.270344 28.4565 0.00333758 29.4512 0.00333758C33.0144 0 36.5809 0 40.1474 0C41.232 0 41.4782 0.250318 41.4782 1.36173C41.4782 4.41895 41.4782 7.47283 41.4782 10.5301V11.0774C41.8076 10.9105 42.0638 10.7236 42.3499 10.6469C46.6217 9.49207 50.8969 8.35062 55.172 7.2125C55.9838 6.99556 56.3731 7.23253 56.586 8.05023C60.0826 21.484 63.576 34.9144 67.0693 48.3481C67.3022 49.2493 67.1059 49.5964 66.2143 49.8334C63.5261 50.5576 60.8379 51.2685 58.153 51.9961C56.5195 52.4367 54.8926 52.8939 53.2624 53.3445ZM30.0035 11.5847V42.6509H39.6684V11.5847H30.0035ZM15.804 13.357V39.9842H28.1504V13.357H15.804ZM62.4448 37.6278C60.7214 30.9961 59.018 24.4444 57.3046 17.8494C53.4221 18.8873 49.596 19.912 45.7268 20.9466C47.4501 27.5784 49.1569 34.1401 50.8669 40.7251C54.7562 39.6838 58.5722 38.6658 62.4448 37.6278ZM28.1437 51.5455V46.2688H15.794V51.5455H28.1404H28.1437ZM55.9971 12.8029C55.6578 11.518 55.3417 10.3198 55.019 9.09156C51.1264 10.1362 47.2971 11.1609 43.4445 12.1922C43.7772 13.4604 44.0866 14.6486 44.4126 15.8969C48.2885 14.8622 52.1212 13.8376 55.9971 12.8029ZM64.248 44.56C60.3721 45.5946 56.5428 46.6193 52.6702 47.6573L53.635 51.3686C57.5309 50.324 61.3602 49.2993 65.2128 48.268C64.8835 47.0031 64.5707 45.8049 64.2447 44.5633L64.248 44.56ZM62.8906 39.35C59.0147 40.388 55.1887 41.4127 51.3194 42.4506C51.6288 43.6388 51.9216 44.7736 52.2243 45.9351C56.1069 44.8971 59.9329 43.8724 63.8022 42.8378C63.4895 41.6463 63.1967 40.5148 62.8906 39.35ZM39.6684 5.30341V1.80563H29.9968V5.30341H39.6684ZM29.9835 51.5422H39.6617V48.0578H29.9835V51.5422ZM15.7907 11.5247H28.1371V8.918H15.7907V11.5247ZM28.1537 41.8232H15.7907V44.4231H28.1537V41.8232ZM39.6684 7.13908H29.9968V9.74572H39.6684V7.13908ZM56.433 14.5218C52.5471 15.5631 48.7177 16.5878 44.8551 17.6224C45.0048 18.1798 45.1412 18.6871 45.2843 19.2244C49.1702 18.1831 52.9962 17.1551 56.8488 16.1238L56.433 14.5251V14.5218ZM39.6617 46.2121V44.4932H30.0035V46.2121H39.6617Z" fill="#6DB5B0"/>
<path d="M17.534 20.4342C17.534 19.3395 17.5273 18.2481 17.534 17.1534C17.5406 16.339 17.8534 16.022 18.6718 16.022C20.8709 16.0153 23.0667 16.0153 25.2659 16.022C26.0976 16.022 26.397 16.319 26.4004 17.1501C26.407 19.3529 26.407 21.559 26.4004 23.7618C26.4004 24.6062 26.081 24.9033 25.2193 24.9066C23.0568 24.9066 20.8942 24.9066 18.7284 24.9066C17.8501 24.9066 17.5373 24.5929 17.534 23.7151C17.5307 22.6204 17.534 21.529 17.534 20.4342ZM19.3339 17.8276V23.101H24.5938V17.8276H19.3339Z" fill="#6DB5B0"/>
<path d="M11.863 66.5948C12.9509 66.5948 13.8325 65.7103 13.8325 64.6189C13.8325 63.5275 12.9509 62.6431 11.863 62.6431C10.775 62.6431 9.89339 63.5275 9.89339 64.6189C9.89339 65.7103 10.775 66.5948 11.863 66.5948Z" fill="#6DB5B0"/>
<path d="M17.3857 66.5948C18.4735 66.5948 19.3553 65.7101 19.3553 64.6189C19.3553 63.5277 18.4735 62.6431 17.3857 62.6431C16.2979 62.6431 15.4161 63.5277 15.4161 64.6189C15.4161 65.7101 16.2979 66.5948 17.3857 66.5948Z" fill="#6DB5B0"/>
<path d="M22.8944 66.5948C23.9823 66.5948 24.8639 65.7103 24.8639 64.6189C24.8639 63.5275 23.9823 62.6431 22.8944 62.6431C21.8065 62.6431 20.9248 63.5275 20.9248 64.6189C20.9248 65.7103 21.8065 66.5948 22.8944 66.5948Z" fill="#6DB5B0"/>
<path d="M65.3318 17.5953V20.3054C68.509 20.6225 70.9976 23.3159 70.9976 26.5834V57.8365H2.69485V26.5868C2.69485 23.376 5.09692 20.726 8.19101 20.3322V17.6087C3.60977 18.0125 0 21.8841 0 26.5868V57.8398V60.5433V64.4549C0 69.4246 4.03229 73.4697 8.98615 73.4697H29.4204V76.1197L20.8901 81.3864H53.3347L45.5063 76.1498V73.4697H64.7096C69.6635 73.4697 73.6958 69.4246 73.6958 64.4549V26.5868C73.6958 21.8274 69.9962 17.9191 65.3318 17.5953ZM30.4119 78.6797L32.1153 77.625V73.4797H42.8082V77.5949L44.4284 78.6797H30.4085H30.4119ZM70.9976 64.4516C70.9976 67.9327 68.1763 70.7629 64.7063 70.7629H8.98615C5.51612 70.7629 2.69485 67.9327 2.69485 64.4516V60.5399H70.9976V64.4516Z" fill="#6DB5B0"/>
</svg>
