<svg width="100" height="100" viewBox="0 0 100 100" fill="none" xmlns="http://www.w3.org/2000/svg">
<path d="M54.2171 55.2473H53.6981C53.2723 55.0137 53.0993 54.6232 52.9828 54.1726C49.5527 40.9558 46.1159 27.739 42.6825 14.5222C42.6459 14.3754 42.596 14.2318 42.5561 14.0883L42.4396 14.1184V14.7892C42.4396 27.8124 42.4396 40.8323 42.4463 53.8556C42.4463 54.4229 42.3664 54.9169 41.8607 55.2507H14.9522C14.9522 40.038 14.9522 24.8286 14.9522 9.61597C15.2616 9.11867 15.7207 9.00186 16.2797 9.0052C20.3485 9.01855 24.4141 9.01187 28.483 9.01187H29.1384C29.1384 8.75488 29.1384 8.56797 29.1384 8.38107C29.1384 6.64553 29.1384 4.90999 29.1384 3.17111C29.1384 2.17318 29.4112 1.90617 30.406 1.90617C33.9692 1.90283 37.5357 1.90283 41.1022 1.90283C42.1868 1.90283 42.433 2.15315 42.433 3.26456C42.433 6.32178 42.433 9.37567 42.433 12.4329V12.9802C42.7624 12.8134 43.0185 12.6265 43.3046 12.5497C47.5765 11.3949 51.8516 10.2534 56.1268 9.11534C56.9386 8.89839 57.3278 9.13536 57.5408 9.95307C61.0374 23.3868 64.5307 36.8172 68.0241 50.251C68.2569 51.1521 68.0606 51.4992 67.169 51.7362C64.4808 52.4604 61.7926 53.1713 59.1078 53.8989C57.4742 54.3395 55.8473 54.7967 54.2171 55.2473ZM30.9583 13.4876V44.5537H40.6231V13.4876H30.9583ZM16.7587 15.2598V41.887H29.1051V15.2598H16.7587ZM63.3996 39.5307C61.6762 32.8989 59.9728 26.3472 58.2594 19.7522C54.3768 20.7902 50.5508 21.8148 46.6815 22.8495C48.4049 29.4812 50.1116 36.0429 51.8217 42.6279C55.7109 41.5866 59.527 40.5687 63.3996 39.5307ZM29.0985 53.4484V48.1717H16.7488V53.4484H29.0952H29.0985ZM56.9519 14.7058C56.6125 13.4208 56.2965 12.2226 55.9738 10.9944C52.0812 12.0391 48.2519 13.0637 44.3992 14.095C44.7319 15.3633 45.0413 16.5515 45.3674 17.7997C49.2433 16.7651 53.076 15.7404 56.9519 14.7058ZM65.2028 46.4628C61.3269 47.4975 57.4975 48.5221 53.6249 49.5601L54.5897 53.2715C58.4856 52.2268 62.315 51.2022 66.1676 50.1709C65.8382 48.9059 65.5255 47.7077 65.1994 46.4662L65.2028 46.4628ZM63.8454 41.2529C59.9695 42.2908 56.1434 43.3155 52.2742 44.3535C52.5836 45.5416 52.8763 46.6764 53.1791 47.8379C57.0617 46.7999 60.8877 45.7753 64.757 44.7406C64.4442 43.5491 64.1515 42.4177 63.8454 41.2529ZM40.6231 7.20624V3.70846H30.9516V7.20624H40.6231ZM30.9383 53.445H40.6165V49.9606H30.9383V53.445ZM16.7454 13.4275H29.0918V10.8208H16.7454V13.4275ZM29.1085 43.726H16.7454V46.326H29.1085V43.726ZM40.6231 9.04191H30.9516V11.6486H40.6231V9.04191ZM57.3877 16.4246C53.5018 17.466 49.6725 18.4906 45.8099 19.5252C45.9596 20.0826 46.096 20.5899 46.239 21.1273C50.1249 20.0859 53.951 19.058 57.8036 18.0267L57.3877 16.428V16.4246ZM40.6165 48.1149V46.3961H30.9583V48.1149H40.6165Z" fill="#BDC3D2"/>
<path d="M18.4887 22.3372C18.4887 21.2425 18.4821 20.1511 18.4887 19.0564C18.4954 18.242 18.8081 17.9249 19.6266 17.9249C21.8257 17.9183 24.0215 17.9183 26.2206 17.9249C27.0524 17.9249 27.3518 18.222 27.3551 19.053C27.3618 21.2558 27.3618 23.462 27.3551 25.6648C27.3551 26.5092 27.0357 26.8062 26.174 26.8096C24.0115 26.8096 21.849 26.8096 19.6831 26.8096C18.8048 26.8096 18.4921 26.4958 18.4887 25.618C18.4854 24.5233 18.4887 23.4319 18.4887 22.3372ZM20.2886 19.7306V25.0039H25.5486V19.7306H20.2886Z" fill="#BDC3D2"/>
<path d="M54.2171 55.2473H53.6981C53.2723 55.0137 53.0993 54.6232 52.9828 54.1726C49.5527 40.9558 46.1159 27.739 42.6825 14.5222C42.6459 14.3754 42.596 14.2318 42.5561 14.0883L42.4396 14.1184V14.7892C42.4396 27.8124 42.4396 40.8323 42.4463 53.8556C42.4463 54.4229 42.3664 54.9169 41.8607 55.2507H14.9522C14.9522 40.038 14.9522 24.8286 14.9522 9.61597C15.2616 9.11867 15.7207 9.00186 16.2797 9.0052C20.3485 9.01855 24.4141 9.01187 28.483 9.01187H29.1384C29.1384 8.75488 29.1384 8.56797 29.1384 8.38107C29.1384 6.64553 29.1384 4.90999 29.1384 3.17111C29.1384 2.17318 29.4112 1.90617 30.406 1.90617C33.9692 1.90283 37.5357 1.90283 41.1022 1.90283C42.1868 1.90283 42.433 2.15315 42.433 3.26456C42.433 6.32178 42.433 9.37567 42.433 12.4329V12.9802C42.7624 12.8134 43.0185 12.6265 43.3046 12.5497C47.5765 11.3949 51.8516 10.2534 56.1268 9.11534C56.9386 8.89839 57.3278 9.13536 57.5408 9.95307C61.0374 23.3868 64.5307 36.8172 68.0241 50.251C68.2569 51.1521 68.0606 51.4992 67.169 51.7362C64.4808 52.4604 61.7926 53.1713 59.1078 53.8989C57.4742 54.3395 55.8473 54.7967 54.2171 55.2473ZM30.9583 13.4876V44.5537H40.6231V13.4876H30.9583ZM16.7587 15.2598V41.887H29.1051V15.2598H16.7587ZM63.3996 39.5307C61.6762 32.8989 59.9728 26.3472 58.2594 19.7522C54.3768 20.7902 50.5508 21.8148 46.6815 22.8495C48.4049 29.4812 50.1116 36.0429 51.8217 42.6279C55.7109 41.5866 59.527 40.5687 63.3996 39.5307ZM29.0985 53.4484V48.1717H16.7488V53.4484H29.0952H29.0985ZM56.9519 14.7058C56.6125 13.4208 56.2965 12.2226 55.9738 10.9944C52.0812 12.0391 48.2519 13.0637 44.3992 14.095C44.7319 15.3633 45.0413 16.5515 45.3674 17.7997C49.2433 16.7651 53.076 15.7404 56.9519 14.7058ZM65.2028 46.4628C61.3269 47.4975 57.4975 48.5221 53.6249 49.5601L54.5897 53.2715C58.4856 52.2268 62.315 51.2022 66.1676 50.1709C65.8382 48.9059 65.5255 47.7077 65.1994 46.4662L65.2028 46.4628ZM63.8454 41.2529C59.9695 42.2908 56.1434 43.3155 52.2742 44.3535C52.5836 45.5416 52.8763 46.6764 53.1791 47.8379C57.0617 46.7999 60.8877 45.7753 64.757 44.7406C64.4442 43.5491 64.1515 42.4177 63.8454 41.2529ZM40.6231 7.20624V3.70846H30.9516V7.20624H40.6231ZM30.9383 53.445H40.6165V49.9606H30.9383V53.445ZM16.7454 13.4275H29.0918V10.8208H16.7454V13.4275ZM29.1085 43.726H16.7454V46.326H29.1085V43.726ZM40.6231 9.04191H30.9516V11.6486H40.6231V9.04191ZM57.3877 16.4246C53.5018 17.466 49.6725 18.4906 45.8099 19.5252C45.9596 20.0826 46.096 20.5899 46.239 21.1273C50.1249 20.0859 53.951 19.058 57.8036 18.0267L57.3877 16.428V16.4246ZM40.6165 48.1149V46.3961H30.9583V48.1149H40.6165Z" fill="#BDC3D2"/>
<path d="M18.4887 22.3372C18.4887 21.2425 18.4821 20.1511 18.4887 19.0564C18.4954 18.242 18.8081 17.9249 19.6266 17.9249C21.8257 17.9183 24.0215 17.9183 26.2206 17.9249C27.0524 17.9249 27.3518 18.222 27.3551 19.053C27.3618 21.2558 27.3618 23.462 27.3551 25.6648C27.3551 26.5092 27.0357 26.8062 26.174 26.8096C24.0115 26.8096 21.849 26.8096 19.6831 26.8096C18.8048 26.8096 18.4921 26.4958 18.4887 25.618C18.4854 24.5233 18.4887 23.4319 18.4887 22.3372ZM20.2886 19.7306V25.0039H25.5486V19.7306H20.2886Z" fill="#BDC3D2"/>
<path d="M12.8178 68.5067C13.9057 68.5067 14.7874 67.6223 14.7874 66.5309C14.7874 65.4395 13.9057 64.5551 12.8178 64.5551C11.7299 64.5551 10.8482 65.4395 10.8482 66.5309C10.8482 67.6223 11.7299 68.5067 12.8178 68.5067Z" fill="#BDC3D2"/>
<path d="M18.3406 68.5067C19.4283 68.5067 20.3101 67.6221 20.3101 66.5309C20.3101 65.4397 19.4283 64.5551 18.3406 64.5551C17.2528 64.5551 16.371 65.4397 16.371 66.5309C16.371 67.6221 17.2528 68.5067 18.3406 68.5067Z" fill="#BDC3D2"/>
<path d="M23.8492 68.5067C24.9371 68.5067 25.8188 67.6223 25.8188 66.5309C25.8188 65.4395 24.9371 64.5551 23.8492 64.5551C22.7613 64.5551 21.8796 65.4395 21.8796 66.5309C21.8796 67.6223 22.7613 68.5067 23.8492 68.5067Z" fill="#BDC3D2"/>
<path d="M66.2866 19.5072V22.2173C69.4639 22.5344 71.9524 25.2278 71.9524 28.4953V59.7484H3.6497V28.4986C3.6497 25.2879 6.05177 22.6379 9.14586 22.244V19.5206C4.56461 19.9244 0.954849 23.796 0.954849 28.4986V59.7517V62.4551V66.3668C0.954849 71.3364 4.98714 75.3816 9.941 75.3816H30.3753V78.0316L21.8449 83.2983H54.2895L46.4612 78.0616V75.3816H65.6645C70.6183 75.3816 74.6506 71.3364 74.6506 66.3668V28.4986C74.6506 23.7392 70.951 19.8309 66.2866 19.5072ZM31.3667 80.5915L33.0701 79.5368V75.3916H43.763V79.5068L45.3832 80.5915H31.3634H31.3667ZM71.9524 66.3634C71.9524 69.8445 69.1312 72.6748 65.6611 72.6748H9.941C6.47097 72.6748 3.6497 69.8445 3.6497 66.3634V62.4518H71.9524V66.3634Z" fill="#BDC3D2"/>
<circle opacity="0.1" cx="63.2486" cy="62.5267" r="36.7514" fill="#6DB5B0"/>
<path d="M53.2624 53.3445H52.7434C52.3175 53.1109 52.1445 52.7204 52.028 52.2698C48.5979 39.053 45.1612 25.8362 41.7277 12.6194C41.6911 12.4725 41.6412 12.329 41.6013 12.1855L41.4849 12.2155V12.8864C41.4849 25.9096 41.4849 38.9295 41.4915 51.9527C41.4915 52.5201 41.4117 53.0141 40.906 53.3478H13.9974C13.9974 38.1352 13.9974 22.9258 13.9974 7.71314C14.3068 7.21584 14.766 7.09903 15.3249 7.10236C19.3938 7.11571 23.4593 7.10904 27.5282 7.10904H28.1836C28.1836 6.85204 28.1836 6.66514 28.1836 6.47824C28.1836 4.7427 28.1836 3.00716 28.1836 1.26828C28.1836 0.270344 28.4565 0.00333758 29.4512 0.00333758C33.0144 0 36.5809 0 40.1474 0C41.232 0 41.4782 0.250318 41.4782 1.36173C41.4782 4.41895 41.4782 7.47283 41.4782 10.5301V11.0774C41.8076 10.9105 42.0638 10.7236 42.3499 10.6469C46.6217 9.49207 50.8969 8.35062 55.172 7.2125C55.9838 6.99556 56.3731 7.23253 56.586 8.05023C60.0826 21.484 63.576 34.9144 67.0693 48.3481C67.3022 49.2493 67.1059 49.5964 66.2143 49.8334C63.5261 50.5576 60.8379 51.2685 58.153 51.9961C56.5195 52.4367 54.8926 52.8939 53.2624 53.3445ZM30.0035 11.5847V42.6509H39.6684V11.5847H30.0035ZM15.804 13.357V39.9842H28.1504V13.357H15.804ZM62.4448 37.6278C60.7214 30.9961 59.018 24.4444 57.3046 17.8494C53.4221 18.8873 49.596 19.912 45.7268 20.9466C47.4501 27.5784 49.1569 34.1401 50.8669 40.7251C54.7562 39.6838 58.5722 38.6658 62.4448 37.6278ZM28.1437 51.5455V46.2688H15.794V51.5455H28.1404H28.1437ZM55.9971 12.8029C55.6578 11.518 55.3417 10.3198 55.019 9.09156C51.1264 10.1362 47.2971 11.1609 43.4445 12.1922C43.7772 13.4604 44.0866 14.6486 44.4126 15.8969C48.2885 14.8622 52.1212 13.8376 55.9971 12.8029ZM64.248 44.56C60.3721 45.5946 56.5428 46.6193 52.6702 47.6573L53.635 51.3686C57.5309 50.324 61.3602 49.2993 65.2128 48.268C64.8835 47.0031 64.5707 45.8049 64.2447 44.5633L64.248 44.56ZM62.8906 39.35C59.0147 40.388 55.1887 41.4127 51.3194 42.4506C51.6288 43.6388 51.9216 44.7736 52.2243 45.9351C56.1069 44.8971 59.9329 43.8724 63.8022 42.8378C63.4895 41.6463 63.1967 40.5148 62.8906 39.35ZM39.6684 5.30341V1.80563H29.9968V5.30341H39.6684ZM29.9835 51.5422H39.6617V48.0578H29.9835V51.5422ZM15.7907 11.5247H28.1371V8.918H15.7907V11.5247ZM28.1537 41.8232H15.7907V44.4231H28.1537V41.8232ZM39.6684 7.13908H29.9968V9.74572H39.6684V7.13908ZM56.433 14.5218C52.5471 15.5631 48.7177 16.5878 44.8551 17.6224C45.0048 18.1798 45.1412 18.6871 45.2843 19.2244C49.1702 18.1831 52.9962 17.1551 56.8488 16.1238L56.433 14.5251V14.5218ZM39.6617 46.2121V44.4932H30.0035V46.2121H39.6617Z" fill="#6DB5B0"/>
<path d="M17.534 20.4342C17.534 19.3395 17.5273 18.2481 17.534 17.1534C17.5406 16.339 17.8534 16.022 18.6718 16.022C20.8709 16.0153 23.0667 16.0153 25.2659 16.022C26.0976 16.022 26.397 16.319 26.4004 17.1501C26.407 19.3529 26.407 21.559 26.4004 23.7618C26.4004 24.6062 26.081 24.9033 25.2193 24.9066C23.0568 24.9066 20.8942 24.9066 18.7284 24.9066C17.8501 24.9066 17.5373 24.5929 17.534 23.7151C17.5307 22.6204 17.534 21.529 17.534 20.4342ZM19.3339 17.8276V23.101H24.5938V17.8276H19.3339Z" fill="#6DB5B0"/>
<path d="M53.2624 53.3445H52.7434C52.3175 53.1109 52.1445 52.7204 52.028 52.2698C48.5979 39.053 45.1612 25.8362 41.7277 12.6194C41.6911 12.4725 41.6412 12.329 41.6013 12.1855L41.4849 12.2155V12.8864C41.4849 25.9096 41.4849 38.9295 41.4915 51.9527C41.4915 52.5201 41.4117 53.0141 40.906 53.3478H13.9974C13.9974 38.1352 13.9974 22.9258 13.9974 7.71314C14.3068 7.21584 14.766 7.09903 15.3249 7.10236C19.3938 7.11571 23.4593 7.10904 27.5282 7.10904H28.1836C28.1836 6.85204 28.1836 6.66514 28.1836 6.47824C28.1836 4.7427 28.1836 3.00716 28.1836 1.26828C28.1836 0.270344 28.4565 0.00333758 29.4512 0.00333758C33.0144 0 36.5809 0 40.1474 0C41.232 0 41.4782 0.250318 41.4782 1.36173C41.4782 4.41895 41.4782 7.47283 41.4782 10.5301V11.0774C41.8076 10.9105 42.0638 10.7236 42.3499 10.6469C46.6217 9.49207 50.8969 8.35062 55.172 7.2125C55.9838 6.99556 56.3731 7.23253 56.586 8.05023C60.0826 21.484 63.576 34.9144 67.0693 48.3481C67.3022 49.2493 67.1059 49.5964 66.2143 49.8334C63.5261 50.5576 60.8379 51.2685 58.153 51.9961C56.5195 52.4367 54.8926 52.8939 53.2624 53.3445ZM30.0035 11.5847V42.6509H39.6684V11.5847H30.0035ZM15.804 13.357V39.9842H28.1504V13.357H15.804ZM62.4448 37.6278C60.7214 30.9961 59.018 24.4444 57.3046 17.8494C53.4221 18.8873 49.596 19.912 45.7268 20.9466C47.4501 27.5784 49.1569 34.1401 50.8669 40.7251C54.7562 39.6838 58.5722 38.6658 62.4448 37.6278ZM28.1437 51.5455V46.2688H15.794V51.5455H28.1404H28.1437ZM55.9971 12.8029C55.6578 11.518 55.3417 10.3198 55.019 9.09156C51.1264 10.1362 47.2971 11.1609 43.4445 12.1922C43.7772 13.4604 44.0866 14.6486 44.4126 15.8969C48.2885 14.8622 52.1212 13.8376 55.9971 12.8029ZM64.248 44.56C60.3721 45.5946 56.5428 46.6193 52.6702 47.6573L53.635 51.3686C57.5309 50.324 61.3602 49.2993 65.2128 48.268C64.8835 47.0031 64.5707 45.8049 64.2447 44.5633L64.248 44.56ZM62.8906 39.35C59.0147 40.388 55.1887 41.4127 51.3194 42.4506C51.6288 43.6388 51.9216 44.7736 52.2243 45.9351C56.1069 44.8971 59.9329 43.8724 63.8022 42.8378C63.4895 41.6463 63.1967 40.5148 62.8906 39.35ZM39.6684 5.30341V1.80563H29.9968V5.30341H39.6684ZM29.9835 51.5422H39.6617V48.0578H29.9835V51.5422ZM15.7907 11.5247H28.1371V8.918H15.7907V11.5247ZM28.1537 41.8232H15.7907V44.4231H28.1537V41.8232ZM39.6684 7.13908H29.9968V9.74572H39.6684V7.13908ZM56.433 14.5218C52.5471 15.5631 48.7177 16.5878 44.8551 17.6224C45.0048 18.1798 45.1412 18.6871 45.2843 19.2244C49.1702 18.1831 52.9962 17.1551 56.8488 16.1238L56.433 14.5251V14.5218ZM39.6617 46.2121V44.4932H30.0035V46.2121H39.6617Z" fill="#6DB5B0"/>
<path d="M17.534 20.4342C17.534 19.3395 17.5273 18.2481 17.534 17.1534C17.5406 16.339 17.8534 16.022 18.6718 16.022C20.8709 16.0153 23.0667 16.0153 25.2659 16.022C26.0976 16.022 26.397 16.319 26.4004 17.1501C26.407 19.3529 26.407 21.559 26.4004 23.7618C26.4004 24.6062 26.081 24.9033 25.2193 24.9066C23.0568 24.9066 20.8942 24.9066 18.7284 24.9066C17.8501 24.9066 17.5373 24.5929 17.534 23.7151C17.5307 22.6204 17.534 21.529 17.534 20.4342ZM19.3339 17.8276V23.101H24.5938V17.8276H19.3339Z" fill="#6DB5B0"/>
<path d="M11.863 66.5948C12.9509 66.5948 13.8325 65.7103 13.8325 64.6189C13.8325 63.5275 12.9509 62.6431 11.863 62.6431C10.775 62.6431 9.89339 63.5275 9.89339 64.6189C9.89339 65.7103 10.775 66.5948 11.863 66.5948Z" fill="#6DB5B0"/>
<path d="M17.3857 66.5948C18.4735 66.5948 19.3553 65.7101 19.3553 64.6189C19.3553 63.5277 18.4735 62.6431 17.3857 62.6431C16.2979 62.6431 15.4161 63.5277 15.4161 64.6189C15.4161 65.7101 16.2979 66.5948 17.3857 66.5948Z" fill="#6DB5B0"/>
<path d="M22.8944 66.5948C23.9823 66.5948 24.8639 65.7103 24.8639 64.6189C24.8639 63.5275 23.9823 62.6431 22.8944 62.6431C21.8065 62.6431 20.9248 63.5275 20.9248 64.6189C20.9248 65.7103 21.8065 66.5948 22.8944 66.5948Z" fill="#6DB5B0"/>
<path d="M65.3318 17.5953V20.3054C68.509 20.6225 70.9976 23.3159 70.9976 26.5834V57.8365H2.69485V26.5868C2.69485 23.376 5.09692 20.726 8.19101 20.3322V17.6087C3.60977 18.0125 0 21.8841 0 26.5868V57.8398V60.5433V64.4549C0 69.4246 4.03229 73.4697 8.98615 73.4697H29.4204V76.1197L20.8901 81.3864H53.3347L45.5063 76.1498V73.4697H64.7096C69.6635 73.4697 73.6958 69.4246 73.6958 64.4549V26.5868C73.6958 21.8274 69.9962 17.9191 65.3318 17.5953ZM30.4119 78.6797L32.1153 77.625V73.4797H42.8082V77.5949L44.4284 78.6797H30.4085H30.4119ZM70.9976 64.4516C70.9976 67.9327 68.1763 70.7629 64.7063 70.7629H8.98615C5.51612 70.7629 2.69485 67.9327 2.69485 64.4516V60.5399H70.9976V64.4516Z" fill="#6DB5B0"/>
</svg>
