<svg width="32" height="29" viewBox="0 0 32 29" fill="none" xmlns="http://www.w3.org/2000/svg">
<path d="M10.75 9.53125H20.5" stroke="#255B87" stroke-width="2" stroke-linecap="round" stroke-linejoin="round"/>
<path d="M10.75 14.4062H20.5" stroke="#255B87" stroke-width="2" stroke-linecap="round" stroke-linejoin="round"/>
<path d="M18.9262 23.5291L16.6701 27.2894C16.5618 27.4699 16.4086 27.6192 16.2255 27.7229C16.0423 27.8266 15.8355 27.8811 15.625 27.8811C15.4145 27.8811 15.2077 27.8266 15.0245 27.7229C14.8414 27.6192 14.6882 27.4699 14.5799 27.2894L12.3238 23.5291C12.2155 23.3487 12.0623 23.1993 11.8792 23.0956C11.696 22.9919 11.4892 22.9374 11.2787 22.9374H2.21875C1.89552 22.9374 1.58552 22.809 1.35696 22.5805C1.1284 22.3519 1 22.0419 1 21.7187V2.21875C1 1.89552 1.1284 1.58552 1.35696 1.35696C1.58552 1.1284 1.89552 1 2.21875 1H29.0312C29.3545 1 29.6645 1.1284 29.893 1.35696C30.1216 1.58552 30.25 1.89552 30.25 2.21875V21.7188C30.25 22.042 30.1216 22.352 29.893 22.5805C29.6645 22.8091 29.3545 22.9375 29.0312 22.9375L19.9713 22.9374C19.7608 22.9374 19.554 22.9919 19.3708 23.0956C19.1877 23.1993 19.0345 23.3487 18.9262 23.5291V23.5291Z" stroke="#255B87" stroke-width="2" stroke-linecap="round" stroke-linejoin="round"/>
</svg>
