<svg width="30" height="39" viewBox="0 0 30 39" fill="none" xmlns="http://www.w3.org/2000/svg">
<path d="M14.5716 19.9997C17.5698 19.9997 20.0002 17.5693 20.0002 14.5711C20.0002 11.573 17.5698 9.14258 14.5716 9.14258C11.5735 9.14258 9.14307 11.573 9.14307 14.5711C9.14307 17.5693 11.5735 19.9997 14.5716 19.9997Z" stroke="#255B87" stroke-width="2" stroke-linecap="round" stroke-linejoin="round"/>
<path d="M28.1429 14.5714C28.1429 26.7857 14.5714 36.2857 14.5714 36.2857C14.5714 36.2857 1 26.7857 1 14.5714C1 10.9721 2.42984 7.52012 4.97498 4.97498C7.52012 2.42984 10.9721 1 14.5714 1C18.1708 1 21.6227 2.42984 24.1679 4.97498C26.713 7.52012 28.1429 10.9721 28.1429 14.5714Z" stroke="#255B87" stroke-width="2" stroke-linecap="round" stroke-linejoin="round"/>
<line x1="2" y1="38" x2="27.1429" y2="38" stroke="#255B87" stroke-width="2" stroke-linecap="round"/>
</svg>
