<svg width="56" height="56" viewBox="0 0 56 56" fill="none" xmlns="http://www.w3.org/2000/svg">
<path d="M26.4882 55.9921C19.4158 55.9921 12.345 55.9921 5.27264 55.9921C2.10152 55.9921 0.00703277 53.9169 0.00548588 50.7345C-0.000701672 37.7823 -0.00224856 24.8285 0.00393899 11.8748C0.00548588 8.70164 2.10771 6.63108 5.28657 6.63108C16.319 6.63108 27.3498 6.63108 38.3823 6.63108C39.5084 6.63108 39.527 6.63108 39.5084 5.51925C39.4728 3.30024 40.2973 1.57916 42.3346 0.544649C42.7708 0.323521 43.2287 0.154969 43.7237 0.125588C45.7253 0.00497325 47.7363 -0.149662 49.7101 0.309604C53.3329 1.15236 55.9688 4.38578 55.9766 8.10475C56.0044 21.3925 56.0121 34.6803 55.9735 47.9665C55.9596 52.403 52.2702 55.9689 47.7812 55.9859C40.684 56.0122 33.5869 55.9936 26.4882 55.9936V55.9921ZM47.659 52.7076C50.4867 52.6674 52.6832 50.5196 52.7018 47.8336C52.7204 45.1244 50.4186 42.876 47.5862 42.8435C46.6597 42.8327 45.7346 42.8435 44.808 42.8404C42.5697 42.8342 40.9068 41.8863 39.9554 39.825C39.8162 39.5235 39.6445 39.4029 39.3367 39.3487C35.1694 38.6204 32.2396 36.2885 30.5333 32.4443C29.6764 30.5129 28.3058 29.2 26.383 28.3341C22.0255 26.3702 19.0446 23.1012 17.4003 18.606C16.452 16.0143 16.4087 13.3252 16.486 10.6238C16.5015 10.0671 16.3886 9.8846 15.7838 9.89078C12.311 9.9248 8.83977 9.9047 5.367 9.90934C3.89127 9.91089 3.32202 10.4846 3.31892 11.9675C3.31428 15.4638 3.33284 18.9601 3.30191 22.4564C3.29572 23.0719 3.45195 23.3038 4.08463 23.3363C4.63997 23.3657 5.1953 23.5358 5.73362 23.6997C10.645 25.1857 13.9847 28.348 15.6878 33.1803C16.3546 35.0715 17.5503 36.2792 19.4808 36.8684C27.0436 39.174 31.4661 44.2429 32.7036 52.0551C32.7825 52.553 32.9248 52.737 33.4601 52.7293C35.8252 52.6984 38.192 52.7154 40.5587 52.7154C42.9255 52.7154 45.2922 52.7417 47.6574 52.7076H47.659ZM52.7095 40.4559C52.7095 33.3365 52.7095 26.2171 52.7095 19.0962C52.7095 15.5489 52.7281 12.0016 52.7034 8.45577C52.6832 5.45276 50.6011 3.39148 47.6033 3.35437C46.703 3.34354 45.8027 3.35127 44.9024 3.35437C43.3555 3.35746 42.8311 3.88476 42.8296 5.44348C42.8296 15.8782 42.8296 26.3146 42.8296 36.7493C42.8296 39.2621 43.1018 39.5668 45.6031 39.5157C48.0812 39.4647 50.4851 39.6487 52.708 41.3111C52.708 40.9028 52.708 40.6801 52.708 40.4559H52.7095ZM3.31892 50.5118C3.31892 52.1989 3.83558 52.7154 5.53252 52.7154C13.2453 52.7154 20.9581 52.703 28.6724 52.7355C29.4134 52.7386 29.5356 52.5221 29.4026 51.8742C28.1883 45.9547 24.7557 41.942 18.9719 40.1745C15.6971 39.174 13.6011 37.2442 12.4703 34.0262C11.0719 30.0474 8.18698 27.6382 4.08309 26.6393C3.35141 26.4615 3.30345 26.6888 3.30655 27.3073C3.3313 31.2134 3.31892 35.1195 3.31892 39.024C3.31892 42.8528 3.31892 46.6815 3.31892 50.5103V50.5118ZM39.527 10.6454C39.5316 10.016 39.3367 9.88924 38.7504 9.89542C36.0263 9.9248 33.3007 9.90934 30.5751 9.90934C27.1812 9.90934 23.7874 9.91862 20.395 9.89852C19.8938 9.89542 19.719 10.0222 19.7438 10.5403C19.7856 11.4124 19.7252 12.2876 19.7624 13.1598C20.0052 18.8271 22.6303 22.9543 27.8062 25.3496C30.4947 26.5929 32.4391 28.4872 33.6101 31.2149C34.6202 33.5669 36.4038 35.0777 38.8494 35.8478C39.4651 36.0411 39.5223 35.8463 39.5192 35.3128C39.5038 31.201 39.5099 27.0908 39.5099 22.9791C39.5099 18.8673 39.4945 14.7571 39.5254 10.6454H39.527ZM16.4768 44.4409C16.4613 41.7533 14.2461 39.542 11.5623 39.5343C8.83977 39.5266 6.60142 41.7533 6.59987 44.4718C6.59678 47.2026 8.81038 49.4 11.5546 49.3923C14.3018 49.3845 16.4938 47.181 16.4768 44.4409ZM27.8959 19.2477C27.0652 20.0719 26.991 21.0662 27.6778 21.7621C28.3631 22.4564 29.3639 22.3791 30.1961 21.575C30.5627 21.2209 30.9371 20.6116 31.3161 20.6054C31.6827 20.5993 32.0586 21.2193 32.4314 21.5642C33.1306 22.2106 34.0602 22.2214 34.7099 21.5889C35.3643 20.9534 35.3736 19.9421 34.6991 19.2508C34.3418 18.8844 33.9334 18.5658 33.508 18.1885C33.9953 17.7215 34.4021 17.3643 34.7687 16.9731C35.3999 16.3004 35.3844 15.3092 34.7579 14.6845C34.1097 14.0381 33.1863 14.0319 32.4731 14.6628C32.0725 15.0169 31.7693 15.6865 31.296 15.6896C30.8211 15.6927 30.5179 15.02 30.1172 14.6675C29.401 14.0381 28.4806 14.0381 27.8325 14.6814C27.1998 15.3076 27.1812 16.2942 27.8124 16.9669C28.1805 17.3597 28.5843 17.72 29.0901 18.2086C28.6693 18.572 28.2594 18.8874 27.8959 19.2477ZM11.6072 42.8512C10.679 42.8203 9.90248 43.5409 9.88856 44.4471C9.87464 45.3176 10.597 46.08 11.471 46.1187C12.3713 46.1589 13.1664 45.4151 13.1912 44.5074C13.2159 43.6414 12.4889 42.8821 11.6072 42.8528V42.8512Z" fill="#67BEA1"/>
</svg>
