<svg width="32" height="32" viewBox="0 0 32 32" fill="none" xmlns="http://www.w3.org/2000/svg">
<g id="Icons/32px/map" clip-path="url(#clip0_873_11752)">
<path id="Vector" d="M10 7.25732V28.4373" stroke="#00F1BF" stroke-linecap="round" stroke-linejoin="round"/>
<path id="Vector_2" d="M19.334 13.924V0.742676" stroke="#00F1BF" stroke-linecap="round" stroke-linejoin="round"/>
<path id="Vector_3" d="M15.3327 24.7827L10.3873 28.3134C10.2742 28.3944 10.1385 28.4379 9.99935 28.4379C9.86019 28.4379 9.72451 28.3944 9.61135 28.3134L0.944683 22.1227C0.858401 22.061 0.788106 21.9795 0.739638 21.8851C0.69117 21.7908 0.66593 21.6862 0.666016 21.5801V1.8854C0.666161 1.76292 0.700044 1.64285 0.763945 1.53836C0.827846 1.43388 0.919296 1.34901 1.02826 1.29308C1.13722 1.23716 1.25948 1.21233 1.38163 1.22132C1.50378 1.23031 1.62109 1.27278 1.72068 1.34406L9.99935 7.25739L18.9447 0.866728C19.0578 0.785736 19.1935 0.742188 19.3327 0.742188C19.4718 0.742188 19.6075 0.785736 19.7207 0.866728L28.3874 7.0574C28.4736 7.11915 28.5439 7.2006 28.5924 7.29499C28.6409 7.38937 28.6661 7.49396 28.666 7.60006V16.5907" stroke="#00F1BF" stroke-linecap="round" stroke-linejoin="round"/>
<path id="Vector_4" d="M28.1467 22.9985C28.1464 24.0021 27.8485 24.9831 27.2905 25.8174C26.7326 26.6517 25.9398 27.3017 25.0123 27.6853C24.0849 28.0689 23.0645 28.1688 22.0803 27.9724C21.0961 27.7759 20.1922 27.292 19.4831 26.5817C18.774 25.8715 18.2915 24.9669 18.0966 23.9823C17.9017 22.9978 18.0032 21.9776 18.3882 21.0508C18.7733 20.1239 19.4246 19.3321 20.2597 18.7755C21.0949 18.2189 22.0764 17.9225 23.08 17.9238C24.4246 17.9256 25.7135 18.4611 26.6636 19.4126C27.6136 20.3641 28.147 21.6539 28.1467 22.9985Z" stroke="#00F1BF" stroke-linecap="round" stroke-linejoin="round"/>
<path id="Vector_5" d="M26.666 26.5908L31.3327 31.2575" stroke="#00F1BF" stroke-linecap="round" stroke-linejoin="round"/>
</g>
<defs>
<clipPath id="clip0_873_11752">
<rect width="32" height="32" fill="white"/>
</clipPath>
</defs>
</svg>
