<svg width="84" height="74" viewBox="0 0 84 74" fill="none" xmlns="http://www.w3.org/2000/svg">
<path d="M61.7413 40.8045C61.7413 31.7776 54.4485 24.4267 45.4691 24.4267C36.4897 24.4267 29.2207 31.7776 29.2207 40.8045C29.2207 45.5694 31.2399 49.8315 34.4706 52.8245C34.5181 52.8963 34.5893 52.9442 34.6606 53.016C37.535 55.602 41.312 57.2063 45.4691 57.2063C49.6263 57.2063 53.4033 55.6259 56.2777 53.04C56.3489 52.9681 56.4202 52.9203 56.4915 52.8484C59.6984 49.8554 61.7413 45.5694 61.7413 40.8285V40.8045ZM31.62 40.8045C31.62 33.0945 37.8438 26.8211 45.4929 26.8211C53.142 26.8211 59.3658 33.0945 59.3658 40.8045C59.3658 44.3961 58.0118 47.6525 55.8026 50.1427C54.8049 48.6821 53.5459 47.461 52.0255 46.5272C51.3604 46.1201 50.6715 45.8088 49.9588 45.5455C51.7642 44.1806 52.952 42.0017 52.952 39.5594C52.952 35.4171 49.6025 32.017 45.4691 32.017C41.3358 32.017 37.9863 35.3931 37.9863 39.5594C37.9863 42.0257 39.1741 44.1806 40.9794 45.5455C40.2668 45.8088 39.5779 46.1201 38.9128 46.5272C37.4162 47.461 36.1334 48.6821 35.1357 50.1427C32.9265 47.6765 31.5725 44.3961 31.5725 40.8045H31.62ZM40.4093 39.5355C40.4093 36.7101 42.6898 34.4114 45.4929 34.4114C48.296 34.4114 50.5765 36.7101 50.5765 39.5355C50.5765 42.3609 48.296 44.6595 45.4929 44.6595C42.6898 44.6595 40.4093 42.3609 40.4093 39.5355ZM36.9648 51.8188C37.7963 50.5019 38.889 49.4005 40.1955 48.5864C43.3787 46.6229 47.5833 46.6229 50.7665 48.5864C52.073 49.4005 53.1658 50.5258 53.9972 51.8188C51.6455 53.6625 48.6998 54.7879 45.4691 54.7879C42.2385 54.7879 39.3166 53.6625 36.9411 51.8188H36.9648Z" fill="#6DB5B0"/>
<path d="M47.8661 13.8221H45.4668V23.1124H47.8661V13.8221Z" fill="#6DB5B0"/>
<path d="M33.2758 53.4703L25.3936 61.9072L27.1402 63.5651L35.0225 55.1282L33.2758 53.4703Z" fill="#6DB5B0"/>
<path d="M13.3412 19.3074L12.1416 21.4018L29.5459 31.5302L30.7455 29.4358L13.3412 19.3074Z" fill="#6DB5B0"/>
<path d="M62.6352 48.0253L61.4229 50.1122L71.4266 56.0163L72.6389 53.9294L62.6352 48.0253Z" fill="#6DB5B0"/>
<path d="M46.3226 12.1202C49.5533 12.1202 52.1901 9.46241 52.1901 6.20601C52.1901 2.94961 49.5533 0.291809 46.3226 0.291809C43.0919 0.291809 40.4551 2.94961 40.4551 6.20601C40.4551 9.46241 43.0919 12.1202 46.3226 12.1202ZM46.3226 2.71017C48.223 2.71017 49.7908 4.26654 49.7908 6.20601C49.7908 8.14549 48.2467 9.70185 46.3226 9.70185C44.3984 9.70185 42.8543 8.14549 42.8543 6.20601C42.8543 4.26654 44.4222 2.71017 46.3226 2.71017Z" fill="#6DB5B0"/>
<path d="M20.3831 61.8994C17.1524 61.8994 14.5156 64.5572 14.5156 67.8136C14.5156 71.07 17.1524 73.7278 20.3831 73.7278C23.6138 73.7278 26.2506 71.07 26.2506 67.8136C26.2506 64.5572 23.6138 61.8994 20.3831 61.8994ZM20.3831 71.3094C18.4827 71.3094 16.9149 69.7531 16.9149 67.8136C16.9149 65.8741 18.459 64.3177 20.3831 64.3177C22.3073 64.3177 23.8514 65.8981 23.8514 67.8136C23.8514 69.7291 22.3073 71.3094 20.3831 71.3094Z" fill="#6DB5B0"/>
<path d="M78.1321 53.4715C74.9015 53.4715 72.2646 56.1293 72.2646 59.3857C72.2646 62.6421 74.9015 65.2999 78.1321 65.2999C81.3628 65.2999 83.9996 62.6421 83.9996 59.3857C83.9996 56.1293 81.3628 53.4715 78.1321 53.4715ZM78.1321 62.8815C76.2317 62.8815 74.6639 61.3012 74.6639 59.3857C74.6639 57.4701 76.208 55.8898 78.1321 55.8898C80.0563 55.8898 81.6004 57.4701 81.6004 59.3857C81.6004 61.3012 80.0325 62.8815 78.1321 62.8815Z" fill="#6DB5B0"/>
<path d="M6.15362 10.4447C2.92294 10.4447 0.286133 13.1025 0.286133 16.3589C0.286133 19.6153 2.92294 22.2731 6.15362 22.2731C9.38431 22.2731 12.0211 19.6153 12.0211 16.3589C12.0211 13.1025 9.38431 10.4447 6.15362 10.4447ZM6.15362 19.8548C4.22947 19.8548 2.68539 18.2984 2.68539 16.3589C2.68539 14.4195 4.22947 12.8631 6.15362 12.8631C8.07778 12.8631 9.62186 14.4195 9.62186 16.3589C9.62186 18.2984 8.07778 19.8548 6.15362 19.8548Z" fill="#6DB5B0"/>
</svg>
