<svg width="20" height="18" viewBox="0 0 20 18" fill="none" xmlns="http://www.w3.org/2000/svg">
<path d="M19.008 9.25303C19.008 11.4624 19.0128 13.6702 19.0064 15.8796C19.0032 17.1222 18.4719 17.3646 17.3613 16.8511C15.0125 15.7639 12.651 15.6672 10.3022 16.9652C9.97027 17.1491 9.35754 17.1206 9.0081 16.9399C6.64973 15.7163 4.28657 15.7449 1.93618 16.8622C0.871881 17.3662 0.316595 17.1126 0.315 15.9382C0.311809 11.4434 0.330956 6.94698 0.297448 2.45057C0.291065 1.65177 0.646895 1.21274 1.30749 0.941723C3.87011 -0.109078 6.44548 -0.0536055 9.0448 0.838703C9.41658 0.967082 9.91123 0.960742 10.2846 0.832364C12.8297 -0.0425111 15.3524 -0.0884737 17.8783 0.879911C18.6857 1.18897 19.0495 1.71516 19.0272 2.62649C18.9713 4.83428 19.0096 7.04366 19.0096 9.25145L19.008 9.25303ZM2.0399 14.8082C2.2218 14.7892 2.3303 14.7955 2.42923 14.767C4.77324 14.0934 7.07098 14.1901 9.3352 15.1236C9.5586 15.2155 9.89687 15.16 10.1378 15.0665C11.7702 14.4262 13.4472 14.1726 15.1896 14.4341C15.863 14.5356 16.5332 14.6624 17.2289 14.7828C17.2512 14.6624 17.2847 14.5625 17.2847 14.4642C17.2879 10.6256 17.2991 6.7869 17.264 2.94823C17.2624 2.71842 16.9464 2.35705 16.7071 2.28256C14.92 1.72784 13.1217 1.77381 11.3218 2.27939C10.7298 2.44581 10.4825 2.72793 10.4952 3.38408C10.5415 5.53957 10.5128 7.69506 10.5112 9.85213C10.5112 10.0883 10.5798 10.3815 10.4665 10.5479C10.2719 10.838 9.96708 11.2342 9.69423 11.2453C9.41658 11.2564 9.06235 10.9013 8.85332 10.624C8.71928 10.4465 8.77034 10.1184 8.76875 9.85689C8.76396 7.67445 8.74481 5.49202 8.77992 3.30959C8.78949 2.7311 8.59482 2.44898 8.0523 2.29207C6.28273 1.77697 4.51315 1.76905 2.72922 2.20649C2.21861 2.3317 2.01756 2.56468 2.02234 3.13049C2.05266 6.65377 2.0383 10.177 2.0383 13.7003C2.0383 14.0633 2.0383 14.4246 2.0383 14.8098L2.0399 14.8082Z" fill="#EDF2F7"/>
</svg>
