<svg width="32" height="32" viewBox="0 0 32 32" fill="none" xmlns="http://www.w3.org/2000/svg">
<g id="Icons/32px/owl">
<path id="Vector" d="M27.3327 19.2935V21.9601C27.3327 22.8356 27.1602 23.7025 26.8252 24.5113C26.4902 25.3202 25.9991 26.0551 25.3801 26.6742C24.761 27.2932 24.0261 27.7843 23.2172 28.1193C22.4084 28.4544 21.5415 28.6268 20.666 28.6268H20.2127C18.979 29.4944 17.5076 29.9601 15.9993 29.9601C14.4911 29.9601 13.0197 29.4944 11.786 28.6268H11.3327C9.56457 28.6268 7.86888 27.9244 6.61864 26.6742C5.36839 25.4239 4.66602 23.7282 4.66602 21.9601V19.2935C4.66602 18.2326 5.08744 17.2152 5.83759 16.465C6.58773 15.7149 7.60515 15.2935 8.66602 15.2935H9.33268C9.64252 15.7081 10.045 16.0447 10.508 16.2762C10.971 16.5077 11.4817 16.6277 11.9993 16.6268C12.3862 16.6299 12.7703 16.5621 13.1327 16.4268L15.9993 19.2935L18.866 16.4268C19.2284 16.5621 19.6125 16.6299 19.9993 16.6268C20.517 16.6277 21.0277 16.5077 21.4907 16.2762C21.9537 16.0447 22.3562 15.7081 22.666 15.2935H23.3327C24.3935 15.2935 25.411 15.7149 26.1611 16.465C26.9113 17.2152 27.3327 18.2326 27.3327 19.2935Z" stroke="#00F1BF" stroke-linecap="round" stroke-linejoin="round"/>
<path id="Vector_2" d="M23.854 5.6001L22.0007 6.30677V6.3201L16.4807 8.4401C16.1719 8.56007 15.8294 8.56007 15.5207 8.4401L10.0007 6.3201L7.33398 5.29343L15.5207 2.13343C15.8294 2.01347 16.1719 2.01347 16.4807 2.13343L23.854 4.97343C23.9183 4.99679 23.9739 5.03939 24.0132 5.09545C24.0525 5.15151 24.0736 5.21831 24.0736 5.28677C24.0736 5.35522 24.0525 5.42202 24.0132 5.47808C23.9739 5.53414 23.9183 5.57674 23.854 5.6001Z" stroke="#00F1BF" stroke-linecap="round" stroke-linejoin="round"/>
<path id="Vector_3" d="M22 6.31982V10.6265C21.6166 10.3381 21.1755 10.1359 20.7068 10.0337C20.2381 9.93144 19.7528 9.93157 19.2842 10.0341C18.8155 10.1366 18.3745 10.339 17.9913 10.6276C17.6081 10.9161 17.2916 11.284 17.0636 11.7061C16.8356 12.1281 16.7014 12.5945 16.6701 13.0732C16.6389 13.5519 16.7113 14.0317 16.8825 14.4798C17.0536 14.928 17.3195 15.3339 17.662 15.6699C18.0044 16.0058 18.4153 16.2639 18.8667 16.4265L16 19.2932L13.1333 16.4265C13.5847 16.2639 13.9956 16.0058 14.338 15.6699C14.6805 15.3339 14.9464 14.928 15.1175 14.4798C15.2887 14.0317 15.3611 13.5519 15.3299 13.0732C15.2986 12.5945 15.1644 12.1281 14.9364 11.7061C14.7084 11.284 14.3919 10.9161 14.0087 10.6276C13.6255 10.339 13.1845 10.1366 12.7158 10.0341C12.2472 9.93157 11.7619 9.93144 11.2932 10.0337C10.8245 10.1359 10.3834 10.3381 10 10.6265V6.31982L15.52 8.43982C15.8288 8.55979 16.1712 8.55979 16.48 8.43982L22 6.31982Z" stroke="#00F1BF" stroke-linecap="round" stroke-linejoin="round"/>
<path id="Vector_4" d="M10 6.31997V6.30664" stroke="#00F1BF" stroke-linecap="round" stroke-linejoin="round"/>
<path id="Vector_5" d="M7.33398 5.28809V9.95475" stroke="#00F1BF" stroke-linecap="round" stroke-linejoin="round"/>
<path id="Vector_6" d="M23.3327 13.2932C23.3302 14.0141 23.0965 14.7151 22.666 15.2932C22.3562 15.7079 21.9537 16.0444 21.4907 16.2759C21.0277 16.5074 20.517 16.6275 19.9994 16.6266C19.6125 16.6297 19.2284 16.5619 18.866 16.4266C18.2922 16.2191 17.7863 15.8581 17.4036 15.383C17.0208 14.9078 16.7757 14.3367 16.6952 13.7319C16.6146 13.1271 16.7016 12.5117 16.9467 11.953C17.1918 11.3942 17.5856 10.9134 18.0851 10.563C18.5846 10.2126 19.1707 10.006 19.7795 9.96575C20.3884 9.92552 20.9966 10.0532 21.5379 10.3348C22.0792 10.6164 22.5328 11.0412 22.8492 11.5629C23.1657 12.0846 23.3329 12.6831 23.3327 13.2932Z" stroke="#00F1BF" stroke-linecap="round" stroke-linejoin="round"/>
<path id="Vector_7" d="M15.3327 13.2933C15.3312 13.9781 15.1194 14.6459 14.7259 15.2063C14.3325 15.7667 13.7763 16.1927 13.1327 16.4266C12.7703 16.562 12.3862 16.6298 11.9993 16.6266C11.4817 16.6276 10.971 16.5075 10.508 16.276C10.045 16.0445 9.64252 15.708 9.33268 15.2933C8.90216 14.7151 8.66849 14.0141 8.66602 13.2933C8.66602 12.4092 9.01721 11.5614 9.64233 10.9363C10.2674 10.3112 11.1153 9.95996 11.9993 9.95996C12.8834 9.95996 13.7312 10.3112 14.3564 10.9363C14.9815 11.5614 15.3327 12.4092 15.3327 13.2933Z" stroke="#00F1BF" stroke-linecap="round" stroke-linejoin="round"/>
<path id="Vector_8" d="M12.0007 12.6211C11.8238 12.6211 11.6543 12.6913 11.5292 12.8164C11.4042 12.9414 11.334 13.1109 11.334 13.2878" stroke="#00F1BF" stroke-linecap="round" stroke-linejoin="round"/>
<path id="Vector_9" d="M12.6667 13.2878C12.6667 13.1109 12.5964 12.9414 12.4714 12.8164C12.3464 12.6913 12.1768 12.6211 12 12.6211" stroke="#00F1BF" stroke-linecap="round" stroke-linejoin="round"/>
<path id="Vector_10" d="M12 13.9548C12.1768 13.9548 12.3464 13.8845 12.4714 13.7595C12.5964 13.6345 12.6667 13.4649 12.6667 13.2881" stroke="#00F1BF" stroke-linecap="round" stroke-linejoin="round"/>
<path id="Vector_11" d="M11.334 13.2881C11.334 13.4649 11.4042 13.6345 11.5292 13.7595C11.6543 13.8845 11.8238 13.9548 12.0007 13.9548" stroke="#00F1BF" stroke-linecap="round" stroke-linejoin="round"/>
<path id="Vector_12" d="M20.0007 12.6211C19.8238 12.6211 19.6543 12.6913 19.5292 12.8164C19.4042 12.9414 19.334 13.1109 19.334 13.2878" stroke="#00F1BF" stroke-linecap="round" stroke-linejoin="round"/>
<path id="Vector_13" d="M20.6667 13.2878C20.6667 13.1109 20.5964 12.9414 20.4714 12.8164C20.3464 12.6913 20.1768 12.6211 20 12.6211" stroke="#00F1BF" stroke-linecap="round" stroke-linejoin="round"/>
<path id="Vector_14" d="M20 13.9548C20.1768 13.9548 20.3464 13.8845 20.4714 13.7595C20.5964 13.6345 20.6667 13.4649 20.6667 13.2881" stroke="#00F1BF" stroke-linecap="round" stroke-linejoin="round"/>
<path id="Vector_15" d="M19.334 13.2881C19.334 13.4649 19.4042 13.6345 19.5292 13.7595C19.6543 13.8845 19.8238 13.9548 20.0007 13.9548" stroke="#00F1BF" stroke-linecap="round" stroke-linejoin="round"/>
<path id="Vector_16" d="M8.66602 18.2935V22.6268C8.6648 23.8042 8.9478 24.9644 9.49099 26.009C10.0342 27.0536 10.8215 27.9516 11.786 28.6268" stroke="#00F1BF" stroke-linecap="round" stroke-linejoin="round"/>
<path id="Vector_17" d="M23.3329 18.2935V22.6268C23.3341 23.8042 23.0511 24.9644 22.5079 26.009C21.9647 27.0536 21.1774 27.9516 20.2129 28.6268" stroke="#00F1BF" stroke-linecap="round" stroke-linejoin="round"/>
</g>
</svg>
