<svg width="34" height="18" viewBox="0 0 34 18" fill="none" xmlns="http://www.w3.org/2000/svg">
<g id="Group 237711">
<path id="Vector" d="M27.7287 3.52989C27.4904 3.84573 27.359 4.22422 27.3522 4.61413V12.1315L19.9169 13.541L22.0252 11.9146C22.2816 11.7073 22.4444 11.4127 22.4795 11.0927C22.5146 10.7726 22.4192 10.4519 22.2134 10.1979L18.5993 6.36697L17.2817 6.89101C17.0066 6.99999 16.7114 7.05457 16.4139 7.05146C16.1163 7.04836 15.8224 6.98764 15.5499 6.87294C15.1807 6.72247 14.8599 6.48033 14.6205 6.17142C14.381 5.86251 14.2316 5.49797 14.1875 5.11525C14.1434 4.73254 14.2063 4.34546 14.3696 3.99379C14.533 3.64212 14.7909 3.33855 15.117 3.11427C15.2111 3.06006 15.3052 3.00585 15.4181 2.95164L18.9193 1.32529C19.3492 1.10987 19.8273 0.998227 20.3122 1.00002C20.6774 1.00731 21.0392 1.06825 21.3852 1.18073L27.7287 3.52989Z" stroke="#00F1BF" stroke-linecap="round" stroke-linejoin="round"/>
<path id="Vector_2" d="M20.7643 5.51758L18.5996 6.36689" stroke="#00F1BF" stroke-linecap="round" stroke-linejoin="round"/>
<path id="Vector_3" d="M22.0272 11.9146L19.919 13.5409L15.439 16.9924C15.1826 17.1944 14.8542 17.2924 14.5237 17.2654C14.1932 17.2384 13.8867 17.0886 13.6696 16.8478L9.28372 13.6493H6.64844V4.61408L12.0131 2.42755C12.3362 2.30348 12.6817 2.24206 13.0296 2.24684C13.617 2.24786 14.1895 2.42473 14.6672 2.75282L15.119 3.11423C14.793 3.3385 14.535 3.64207 14.3717 3.99374C14.2083 4.34541 14.1455 4.73249 14.1895 5.11521C14.2336 5.49792 14.3831 5.86246 14.6225 6.17137C14.8619 6.48028 15.1827 6.72242 15.5519 6.8729C15.8245 6.98759 16.1183 7.04831 16.4159 7.05142C16.7135 7.05452 17.0086 6.99995 17.2837 6.89097L18.6013 6.36692L22.2154 10.1979C22.4213 10.4519 22.5166 10.7726 22.4815 11.0926C22.4464 11.4127 22.2836 11.7073 22.0272 11.9146Z" stroke="#00F1BF" stroke-linecap="round" stroke-linejoin="round"/>
<path id="Vector_4" d="M6.64704 4.61418V13.6494C6.64704 14.1287 6.44872 14.5883 6.09571 14.9272C5.7427 15.2661 5.26392 15.4565 4.76469 15.4565H1.94117C1.69156 15.4565 1.45217 15.3613 1.27566 15.1919C1.09916 15.0224 1 14.7926 1 14.553V3.71066C1 3.47102 1.09916 3.24121 1.27566 3.07176C1.45217 2.90232 1.69156 2.80713 1.94117 2.80713H4.76469C5.26392 2.80713 5.7427 2.99751 6.09571 3.3364C6.44872 3.67529 6.64704 4.13492 6.64704 4.61418Z" stroke="#00F1BF" stroke-linecap="round" stroke-linejoin="round"/>
<path id="Vector_5" d="M32.9986 3.71021V14.5525C32.9986 14.7922 32.8994 15.022 32.7229 15.1914C32.5464 15.3609 32.307 15.4561 32.0574 15.4561H29.2339C28.7347 15.4561 28.2559 15.2657 27.9029 14.9268C27.5499 14.5879 27.3516 14.1283 27.3516 13.649V4.61374C27.3584 4.22384 27.4898 3.84535 27.728 3.52951H27.7469C27.9167 3.30393 28.1403 3.12063 28.399 2.99489C28.6577 2.86915 28.944 2.80462 29.2339 2.80669H32.0574C32.307 2.80669 32.5464 2.90188 32.7229 3.07132C32.8994 3.24077 32.9986 3.47058 32.9986 3.71021Z" stroke="#00F1BF" stroke-linecap="round" stroke-linejoin="round"/>
</g>
</svg>
