<svg width="34" height="34" viewBox="0 0 34 34" fill="none" xmlns="http://www.w3.org/2000/svg">
<g filter="url(#filter0_d_133_5822)">
<circle cx="17" cy="17" r="16" fill="white"/>
<circle cx="17" cy="17" r="15.5" stroke="#A5B0C9"/>
</g>
<path d="M22.1119 20.0799C21.8806 19.8622 21.8524 19.6164 22.0275 19.3426C23.3124 17.336 23.7438 15.1521 23.3405 12.8001C22.5902 8.44159 18.7356 5.32434 14.4027 5.32434C13.9244 5.32434 13.4367 5.36167 12.9584 5.43634C8.55046 6.15498 5.32422 9.92555 5.32422 14.3868C5.32422 16.804 6.14954 18.904 7.80955 20.6492C9.5821 22.5159 11.9549 23.4865 14.3652 23.4865C15.9783 23.4865 17.6102 23.0572 19.1014 22.1705C19.3171 22.0399 19.5422 21.8159 19.7673 21.8159C20.0017 21.8159 20.1518 22.1239 20.3206 22.3105C20.3956 22.3945 20.4613 22.4319 20.5176 22.4319C20.5926 22.4319 20.6582 22.3759 20.7426 22.2919C21.1928 21.8252 21.6524 21.3679 22.1213 20.9199C22.5527 20.4999 22.5621 20.4999 22.1213 20.0799H22.1119ZM21.1178 20.4813C20.9115 20.6772 20.7239 20.8732 20.5363 21.0599C20.3394 20.9199 20.0861 20.8079 19.7579 20.8079C19.2796 20.8079 18.9326 21.0599 18.7075 21.2186C18.6606 21.2466 18.6137 21.2839 18.5856 21.3026C17.2913 22.0679 15.8283 22.4692 14.3652 22.4692C12.1518 22.4692 10.0885 21.5732 8.54108 19.9493C7.06864 18.4 6.32773 16.524 6.33711 14.3774C6.33711 10.4015 9.19758 7.06029 13.1272 6.42564C13.5493 6.36031 13.9807 6.32298 14.4121 6.32298C16.2878 6.32298 18.1166 6.98563 19.5703 8.18959C21.0428 9.40289 22.0275 11.1015 22.3464 12.9588C22.7121 15.0774 22.3276 16.9814 21.1741 18.792C20.7426 19.4733 20.7051 19.9493 21.1084 20.4719L21.1178 20.4813Z" fill="#A5B0C9"/>
<path d="M26.471 24.5422C25.2539 23.3583 24.0369 22.1834 22.8198 20.9995C22.7455 20.9277 22.6898 20.8918 22.634 20.8918C22.5783 20.8918 22.5225 20.9277 22.4482 20.9995C22.0302 21.421 21.5842 21.8246 21.1569 22.2462C20.8038 22.587 20.8038 22.9278 21.1569 23.2686C22.3089 24.3808 23.4144 25.5288 24.6036 26.5961C24.8544 26.8203 25.161 26.9369 25.3468 26.9459H25.3747C26.09 26.9459 26.5917 26.632 26.8147 26.1297C27.0841 25.5288 26.9262 24.9996 26.4617 24.5512L26.471 24.5422ZM25.9693 25.771C25.9414 25.8337 25.8578 26.0311 25.4119 26.049C25.3747 26.04 25.3097 26.0042 25.2353 25.9414C24.4457 25.2328 23.6653 24.4615 22.922 23.726C22.5969 23.4032 22.2717 23.0803 21.9373 22.7664L22.216 22.4973C22.3553 22.3717 22.4854 22.2372 22.6247 22.1027C23.0242 22.4883 23.4237 22.883 23.8232 23.2686C24.4828 23.9054 25.1424 24.5422 25.802 25.188C26.0715 25.4571 26.0343 25.6095 25.96 25.7799L25.9693 25.771Z" fill="#A5B0C9"/>
<path d="M13.7015 12.2433H13.6814C13.3495 12.2433 13.0176 12.2531 12.6757 12.2531C12.3338 12.2531 12.022 12.2531 11.7002 12.2433H11.6701C11.4388 12.2433 11.3784 12.3317 11.3784 12.5676C11.3784 14.9951 11.3784 17.4128 11.3784 19.8403C11.3784 20.0467 11.4488 20.1548 11.6399 20.2433C12.2835 20.5381 12.9573 20.7347 13.6512 20.8723C13.7015 20.8821 13.7518 20.8919 13.7819 20.8919C13.9328 20.8919 13.973 20.8035 13.973 20.6069C13.963 19.2703 13.973 17.9337 13.973 16.6069C13.973 15.2801 13.973 13.914 13.973 12.5676C13.973 12.3514 13.9227 12.2629 13.7015 12.2629V12.2433ZM13.2188 16.5873V17.5897C13.2188 18.3956 13.2188 19.1917 13.2188 20.0172C12.8366 19.919 12.4746 19.801 12.1427 19.6536C12.1427 17.4423 12.1427 15.2212 12.1427 12.9902C12.3237 12.9902 12.5048 12.9902 12.6757 12.9902C12.8467 12.9902 13.0378 12.9902 13.2188 12.9902C13.2188 13.8944 13.2188 14.7986 13.2188 15.6929V16.5873Z" fill="#A5B0C9"/>
<path d="M19.7963 11.3882H19.7862C19.4348 11.3882 19.0833 11.3882 18.7218 11.3882C18.4005 11.3882 18.0892 11.3882 17.7679 11.3784H17.7377C17.5068 11.3784 17.4465 11.4668 17.4465 11.7024C17.4566 13.0375 17.4465 14.3726 17.4465 15.7077C17.4465 17.0427 17.4465 18.3778 17.4465 19.7129C17.4465 19.8111 17.3963 19.9485 17.4867 20.0074C17.5068 20.0173 17.5369 20.0271 17.557 20.0271C17.6474 20.0271 17.7176 19.9289 17.798 19.8798C18.7419 19.2123 19.4247 18.3386 19.9168 17.3176C19.987 17.1704 20.0272 17.0133 20.0272 16.8464C20.0272 15.1186 20.0272 13.3811 20.0272 11.6533C20.0272 11.457 19.967 11.3882 19.7762 11.3882H19.7963ZM19.2942 16.8464C19.2942 16.8464 19.2942 16.9249 19.254 17.0035C18.9628 17.6023 18.6214 18.1128 18.2097 18.5447C18.2097 17.8575 18.2097 17.1802 18.2097 16.493V14.7063C18.2097 13.8523 18.2097 12.9982 18.2097 12.1245C18.3804 12.1245 18.5511 12.1245 18.7218 12.1245C18.9126 12.1245 19.1034 12.1245 19.2942 12.1245C19.2942 13.4989 19.2942 14.8732 19.2942 16.2476V16.8366V16.8464Z" fill="#A5B0C9"/>
<path d="M16.4061 15.713H16.3994C16.1639 15.713 15.9284 15.713 15.6929 15.713C15.4844 15.713 15.2825 15.713 15.0739 15.7028H15.047C14.8855 15.7028 14.8317 15.7747 14.8384 16.0521C14.8519 16.8023 14.8384 17.5421 14.8384 18.2922C14.8384 19.0423 14.8384 19.8336 14.8384 20.6042C14.8384 20.7995 14.8586 20.8919 14.9865 20.8919C14.9999 20.8919 15.0067 20.8919 15.0201 20.8919C15.5045 20.8508 15.9688 20.6556 16.4129 20.3782C16.5273 20.3062 16.5676 20.2138 16.5676 20.0288C16.5676 18.6827 16.5676 17.3366 16.5676 15.9905C16.5676 15.785 16.5273 15.7233 16.3994 15.7233L16.4061 15.713ZM15.3498 20.0596C15.3498 19.6691 15.3498 19.289 15.3498 18.8985V17.6654C15.3498 17.2749 15.3498 16.8845 15.3498 16.494C15.4642 16.494 15.5786 16.494 15.6862 16.494C15.814 16.494 15.9419 16.494 16.063 16.494C16.063 17.5832 16.063 18.6724 16.063 19.7616C15.814 19.9055 15.5786 19.998 15.3431 20.0596H15.3498Z" fill="#A5B0C9"/>
<path d="M10.2532 14.8458C9.88269 14.8458 9.5122 14.8458 9.1417 14.8458C8.84129 14.8458 8.54089 14.8458 8.2505 14.8379H8.22046C7.97012 14.8379 7.93007 14.925 7.92006 15.1151C7.89002 16.3189 8.4708 17.3327 9.37201 18.2673C9.68242 18.592 10.0329 18.885 10.5135 19.1622C10.5135 17.7445 10.5135 16.3823 10.5135 15.028C10.5135 14.8696 10.4234 14.8458 10.2632 14.8458H10.2532ZM9.75252 17.6891C9.08162 16.9367 8.73115 16.216 8.67107 15.4477C8.83128 15.4477 8.98148 15.4477 9.1417 15.4477C9.35198 15.4477 9.55225 15.4477 9.76253 15.4477C9.76253 16.1922 9.76253 16.9367 9.76253 17.6891H9.75252Z" fill="#A5B0C9"/>
<defs>
<filter id="filter0_d_133_5822" x="0" y="0" width="34" height="34" filterUnits="userSpaceOnUse" color-interpolation-filters="sRGB">
<feFlood flood-opacity="0" result="BackgroundImageFix"/>
<feColorMatrix in="SourceAlpha" type="matrix" values="0 0 0 0 0 0 0 0 0 0 0 0 0 0 0 0 0 0 127 0" result="hardAlpha"/>
<feOffset/>
<feGaussianBlur stdDeviation="0.5"/>
<feComposite in2="hardAlpha" operator="out"/>
<feColorMatrix type="matrix" values="0 0 0 0 0 0 0 0 0 0 0 0 0 0 0 0 0 0 0.25 0"/>
<feBlend mode="normal" in2="BackgroundImageFix" result="effect1_dropShadow_133_5822"/>
<feBlend mode="normal" in="SourceGraphic" in2="effect1_dropShadow_133_5822" result="shape"/>
</filter>
</defs>
</svg>
