<svg viewBox="0 0 48 48" xmlns="http://www.w3.org/2000/svg" height="24" width="24">
  <path
    d="M24.479166666666664 46.02083333333333h-21.541666666666664a1.9583333333333333 1.9583333333333333 0 0 1 -1.9583333333333333 -1.9583333333333333v-41.125a1.9583333333333333 1.9583333333333333 0 0 1 1.9583333333333333 -1.9583333333333333h26.026249999999997a1.9583333333333333 1.9583333333333333 0 0 1 1.3904166666666666 0.5737916666666666L37.599999999999994 8.8125a1.9583333333333333 1.9583333333333333 0 0 1 0.5737916666666666 1.3845416666666666V18.604166666666664"
    fill="none" stroke="currentColor" stroke-linecap="round" stroke-linejoin="round" stroke-width="2"></path>
  <path d="m6.848291666666666 30.354166666666664 11.75 0" fill="none" stroke="currentColor" stroke-linecap="round"
    stroke-linejoin="round" stroke-width="2"></path>
  <path
    d="M9.791666666666666 20.5625h1.9583333333333333a0.9791666666666666 0.9791666666666666 0 0 1 0.9791666666666666 0.9791666666666666v8.8125l0 0h-3.9166666666666665l0 0V21.541666666666664a0.9791666666666666 0.9791666666666666 0 0 1 0.9791666666666666 -0.9791666666666666Z"
    fill="none" stroke="currentColor" stroke-linecap="round" stroke-linejoin="round" stroke-width="1"></path>
  <path
    d="M20.5625 24.479166666666664V15.666666666666666a0.9791666666666666 0.9791666666666666 0 0 0 -0.9791666666666666 -0.9791666666666666H17.625a0.9791666666666666 0.9791666666666666 0 0 0 -0.9791666666666666 0.9791666666666666v14.6875"
    fill="none" stroke="currentColor" stroke-linecap="round" stroke-linejoin="round" stroke-width="1"></path>
  <path
    d="M24.473291666666665 33.34845833333333a8.869291666666665 8.869291666666665 0 1 0 17.73858333333333 0 8.869291666666665 8.869291666666665 0 1 0 -17.73858333333333 0Z"
    fill="none" stroke="currentColor" stroke-linecap="round" stroke-linejoin="round" stroke-width="2"></path>
  <path d="m46.01495833333333 46.02083333333333 -6.360666666666667 -6.360666666666667" fill="none" stroke="currentColor"
    stroke-linecap="round" stroke-linejoin="round" stroke-width="2"></path>
</svg>