<svg width="32" height="32" viewBox="0 0 32 32" fill="none" xmlns="http://www.w3.org/2000/svg">
<g id="Icons/32px/statistics" clip-path="url(#clip0_873_11731)">
<path id="Vector" d="M6 26.2402C5.99827 26.1544 5.97965 26.0698 5.9452 25.9912C5.91076 25.9126 5.86116 25.8416 5.79925 25.7821C5.73734 25.7227 5.66433 25.676 5.58439 25.6448C5.50444 25.6136 5.41914 25.5985 5.33333 25.6002H2.66667C2.58087 25.5985 2.49556 25.6136 2.41561 25.6448C2.33567 25.676 2.26266 25.7227 2.20075 25.7821C2.13884 25.8416 2.08924 25.9126 2.0548 25.9912C2.02035 26.0698 2.00173 26.1544 2 26.2402V30.7202H6V26.2402Z" stroke="#00F1BF" stroke-linecap="round" stroke-linejoin="round"/>
<path id="Vector_2" d="M14 19.8398C13.9983 19.754 13.9796 19.6694 13.9452 19.5908C13.9108 19.5122 13.8612 19.4412 13.7993 19.3817C13.7373 19.3223 13.6643 19.2756 13.5844 19.2444C13.5044 19.2132 13.4191 19.1981 13.3333 19.1998H10.6667C10.5809 19.1981 10.4956 19.2132 10.4156 19.2444C10.3357 19.2756 10.2627 19.3223 10.2007 19.3817C10.1388 19.4412 10.0892 19.5122 10.0548 19.5908C10.0204 19.6694 10.0017 19.754 10 19.8398V30.7198H14V19.8398Z" stroke="#00F1BF" stroke-linecap="round" stroke-linejoin="round"/>
<path id="Vector_3" d="M22 23.6802C21.9983 23.5944 21.9796 23.5098 21.9452 23.4312C21.9108 23.3525 21.8612 23.2815 21.7993 23.2221C21.7373 23.1626 21.6643 23.116 21.5844 23.0848C21.5044 23.0536 21.4191 23.0384 21.3333 23.0402H18.6667C18.5809 23.0384 18.4956 23.0536 18.4156 23.0848C18.3357 23.116 18.2627 23.1626 18.2007 23.2221C18.1388 23.2815 18.0892 23.3525 18.0548 23.4312C18.0204 23.5098 18.0017 23.5944 18 23.6802V30.7202H22V23.6802Z" stroke="#00F1BF" stroke-linecap="round" stroke-linejoin="round"/>
<path id="Vector_4" d="M30 13.4399C29.9983 13.3541 29.9796 13.2695 29.9452 13.1909C29.9108 13.1123 29.8612 13.0413 29.7993 12.9818C29.7373 12.9224 29.6643 12.8757 29.5844 12.8445C29.5044 12.8133 29.4191 12.7982 29.3333 12.7999H26.6667C26.5809 12.7982 26.4956 12.8133 26.4156 12.8445C26.3357 12.8757 26.2627 12.9224 26.2007 12.9818C26.1388 13.0413 26.0892 13.1123 26.0548 13.1909C26.0204 13.2695 26.0017 13.3541 26 13.4399V30.7199H30V13.4399Z" stroke="#00F1BF" stroke-linecap="round" stroke-linejoin="round"/>
<path id="Vector_5" d="M0.666016 30.7202H31.3327" stroke="#00F1BF" stroke-linecap="round" stroke-linejoin="round"/>
<path id="Vector_6" d="M5.21867 11.6334L8.78134 8.21338" stroke="#00F1BF" stroke-linecap="round" stroke-linejoin="round"/>
<path id="Vector_7" d="M12.9707 7.69336L16.3627 9.60003" stroke="#00F1BF" stroke-linecap="round" stroke-linejoin="round"/>
<path id="Vector_8" d="M20.7637 9.30276L25.9023 5.42676" stroke="#00F1BF" stroke-linecap="round" stroke-linejoin="round"/>
<path id="Vector_9" d="M28.0007 6.40001C28.6937 6.41394 29.3639 6.1521 29.864 5.67206C30.364 5.19201 30.653 4.53304 30.6673 3.84001C30.6673 3.13276 30.3864 2.45449 29.8863 1.95439C29.3862 1.45429 28.7079 1.17334 28.0007 1.17334C27.2934 1.17334 26.6151 1.45429 26.115 1.95439C25.6149 2.45449 25.334 3.13276 25.334 3.84001C25.3483 4.53304 25.6373 5.19201 26.1373 5.67206C26.6374 6.1521 27.3076 6.41394 28.0007 6.40001Z" stroke="#00F1BF" stroke-linecap="round" stroke-linejoin="round"/>
<path id="Vector_10" d="M18.6667 13.44C19.3597 13.454 20.0299 13.1921 20.53 12.7121C21.03 12.232 21.319 11.5731 21.3333 10.88C21.3333 10.1728 21.0524 9.49453 20.5523 8.99443C20.0522 8.49433 19.3739 8.21338 18.6667 8.21338C17.9594 8.21338 17.2811 8.49433 16.781 8.99443C16.281 9.49453 16 10.1728 16 10.88C16.0144 11.5731 16.3033 12.232 16.8034 12.7121C17.3034 13.1921 17.9736 13.454 18.6667 13.44Z" stroke="#00F1BF" stroke-linecap="round" stroke-linejoin="round"/>
<path id="Vector_11" d="M10.6667 8.96007C11.3597 8.974 12.0299 8.71216 12.53 8.23211C13.03 7.75207 13.319 7.0931 13.3333 6.40007C13.3333 5.69282 13.0524 5.01454 12.5523 4.51445C12.0522 4.01435 11.3739 3.7334 10.6667 3.7334C9.95942 3.7334 9.28115 4.01435 8.78105 4.51445C8.28095 5.01454 8 5.69282 8 6.40007C8.01435 7.0931 8.30332 7.75207 8.80337 8.23211C9.30342 8.71216 9.97363 8.974 10.6667 8.96007Z" stroke="#00F1BF" stroke-linecap="round" stroke-linejoin="round"/>
<path id="Vector_12" d="M3.33384 16.0001C3.67986 16.0159 4.02548 15.9614 4.34984 15.8399C4.67419 15.7183 4.97055 15.5323 5.22099 15.293C5.47144 15.0538 5.67078 14.7662 5.80698 14.4477C5.94317 14.1293 6.01339 13.7865 6.01339 13.4401C6.01339 13.0937 5.94317 12.751 5.80698 12.4325C5.67078 12.114 5.47144 11.8264 5.22099 11.5872C4.97055 11.3479 4.67419 11.1619 4.34984 11.0403C4.02548 10.9188 3.67986 10.8643 3.33384 10.8801C2.98783 10.8643 2.6422 10.9188 2.31785 11.0403C1.99349 11.1619 1.69714 11.3479 1.44669 11.5872C1.19624 11.8264 0.996901 12.114 0.860708 12.4325C0.724515 12.751 0.654297 13.0937 0.654297 13.4401C0.654297 13.7865 0.724515 14.1293 0.860708 14.4477C0.996901 14.7662 1.19624 15.0538 1.44669 15.293C1.69714 15.5323 1.99349 15.7183 2.31785 15.8399C2.6422 15.9614 2.98783 16.0159 3.33384 16.0001Z" stroke="#00F1BF" stroke-linecap="round" stroke-linejoin="round"/>
</g>
<defs>
<clipPath id="clip0_873_11731">
<rect width="32" height="32" fill="white"/>
</clipPath>
</defs>
</svg>
