<svg width="19" height="19" viewBox="0 0 19 19" fill="none" xmlns="http://www.w3.org/2000/svg">
<g clip-path="url(#clip0_89_39305)">
<path d="M1.23353 6.18519H11.0588C11.74 6.18519 12.2923 5.62963 12.2923 4.94444V1.24074C12.2923 0.555556 11.74 0 11.0588 0H1.23353C0.552326 0 0 0.555556 0 1.24074V4.94444C0 5.62963 0.552326 6.18519 1.23353 6.18519ZM0.920543 1.24074C0.920543 1.0679 1.06169 0.925926 1.23353 0.925926H11.0588C11.2306 0.925926 11.3718 1.0679 11.3718 1.24074V4.94444C11.3718 5.11728 11.2306 5.25926 11.0588 5.25926H1.23353C1.06169 5.25926 0.920543 5.11728 0.920543 4.94444V1.24074Z" fill="#255B87"/>
<path d="M17.7911 0H14.4526C13.7898 0 13.2498 0.54321 13.2498 1.20988V4.96914C13.2498 5.6358 13.7898 6.17901 14.4526 6.17901H17.7911C18.4539 6.17901 18.9939 5.6358 18.9939 4.96914V1.20988C18.9939 0.54321 18.4539 0 17.7911 0ZM18.0734 4.97531C18.0734 5.1358 17.9445 5.25926 17.7911 5.25926H14.4526C14.293 5.25926 14.1703 5.12963 14.1703 4.97531V1.20988C14.1703 1.04938 14.2992 0.925926 14.4526 0.925926H17.7911C17.9507 0.925926 18.0734 1.05556 18.0734 1.20988V4.96914V4.97531Z" fill="#255B87"/>
<path d="M17.7665 14.1111H1.23353C0.552326 14.1111 0 14.6666 0 15.3518V17.7654C0 18.4506 0.552326 19.0061 1.23353 19.0061H17.7665C18.4477 19.0061 19 18.4506 19 17.7654V15.3518C19 14.6666 18.4477 14.1111 17.7665 14.1111ZM18.0795 17.7654C18.0795 17.9382 17.9383 18.0802 17.7665 18.0802H1.23353C1.06169 18.0802 0.920543 17.9382 0.920543 17.7654V15.3518C0.920543 15.179 1.06169 15.037 1.23353 15.037H17.7665C17.9383 15.037 18.0795 15.179 18.0795 15.3518V17.7654Z" fill="#255B87"/>
<path d="M1.23353 13.1296H8.08237C8.76357 13.1296 9.31589 12.5741 9.31589 11.8889V8.30245C9.31589 7.61726 8.76357 7.06171 8.08237 7.06171H1.23353C0.552326 7.06171 0 7.61726 0 8.30245V11.8889C0 12.5741 0.552326 13.1296 1.23353 13.1296ZM0.920543 8.30245C0.920543 8.12961 1.06169 7.98763 1.23353 7.98763H8.08237C8.2542 7.98763 8.39535 8.12961 8.39535 8.30245V11.8889C8.39535 12.0617 8.2542 12.2037 8.08237 12.2037H1.23353C1.06169 12.2037 0.920543 12.0617 0.920543 11.8889V8.30245Z" fill="#255B87"/>
<path d="M17.7664 7.06171H11.3287C10.6475 7.06171 10.0952 7.61726 10.0952 8.30245V11.8889C10.0952 12.5741 10.6475 13.1296 11.3287 13.1296H17.7664C18.4476 13.1296 18.9999 12.5741 18.9999 11.8889V8.30245C18.9999 7.61726 18.4476 7.06171 17.7664 7.06171ZM18.0794 11.8889C18.0794 12.0617 17.9382 12.2037 17.7664 12.2037H11.3287C11.1569 12.2037 11.0158 12.0617 11.0158 11.8889V8.30245C11.0158 8.12961 11.1569 7.98763 11.3287 7.98763H17.7664C17.9382 7.98763 18.0794 8.12961 18.0794 8.30245V11.8889Z" fill="#255B87"/>
</g>
<defs>
<clipPath id="clip0_89_39305">
<rect width="19" height="19" fill="white"/>
</clipPath>
</defs>
</svg>
