<svg width="35" height="35" viewBox="0 0 35 35" class='transnational-icon' fill="none" xmlns="http://www.w3.org/2000/svg">
<path d="M17.5 33.625C26.4056 33.625 33.625 26.4056 33.625 17.5C33.625 8.59441 26.4056 1.375 17.5 1.375C8.59441 1.375 1.375 8.59441 1.375 17.5C1.375 26.4056 8.59441 33.625 17.5 33.625Z" stroke="#255B87" stroke-width="2" stroke-miterlimit="10"/>
<path d="M31.9733 24.617L22.8549 19.0088C22.695 18.9105 22.5164 18.8467 22.3304 18.8217L18.4976 18.305C18.2098 18.2662 17.9171 18.3217 17.6635 18.4632C17.4099 18.6046 17.2089 18.8245 17.0907 19.0897L14.7897 24.2528C14.6827 24.4929 14.6485 24.7591 14.6913 25.0185C14.734 25.2779 14.852 25.519 15.0304 25.712L18.1882 29.1276C18.3314 29.2824 18.4361 29.4688 18.4939 29.6716C18.5516 29.8744 18.5609 30.088 18.5208 30.295L17.8776 33.6202" stroke="#255B87" stroke-width="2" stroke-linecap="round" stroke-linejoin="round"/>
<path d="M6.91023 5.33984L5.40788 8.89234C5.27392 9.20909 5.26652 9.56515 5.38718 9.8872L7.31729 15.0385C7.39633 15.2494 7.52713 15.4371 7.69767 15.5843C7.86821 15.7315 8.07301 15.8334 8.29325 15.8808L11.8928 16.6544C12.0925 16.6974 12.2799 16.7853 12.4405 16.9115C12.6012 17.0377 12.7309 17.1988 12.8199 17.3827L13.4592 18.7033C13.5692 18.9305 13.741 19.1222 13.9549 19.2563C14.1688 19.3904 14.4162 19.4616 14.6687 19.4616H16.9249" stroke="#255B87" stroke-width="2" stroke-linecap="round" stroke-linejoin="round"/>
<path d="M21.608 1.9043L23.1757 4.71247C23.324 4.97793 23.3778 5.28582 23.3284 5.58581C23.279 5.88581 23.1293 6.16019 22.9038 6.36413L18.3836 10.4521C18.3069 10.5215 18.2224 10.5817 18.1319 10.6317L16.0756 11.7673C15.8767 11.8771 15.6533 11.9347 15.426 11.9347H11.8407C11.5763 11.9347 11.3178 12.0127 11.0975 12.159C10.8772 12.3052 10.705 12.5132 10.6023 12.7568L9.20361 16.0773" stroke="#255B87" stroke-width="2" stroke-linecap="round" stroke-linejoin="round"/>
</svg>
