<?xml version="1.0" encoding="utf-8"?>
<!-- Generator: Adobe Illustrator 25.1.0, SVG Export Plug-In . SVG Version: 6.00 Build 0)  -->
<svg version="1.1" id="Layer_1" xmlns="http://www.w3.org/2000/svg" xmlns:xlink="http://www.w3.org/1999/xlink" x="0px" y="0px"
	 viewBox="0 0 32 32" style="enable-background:new 0 0 32 32;" xml:space="preserve">
<style type="text/css">
	.st0{fill:#FFFFFF;}
</style>
<g id="twitter">
	<path class="st0" d="M28.3,8c0,0.2,0,0.6,0,0.8c0,8.5-6.5,18.3-18.1,18.3c-3.6,0-7-1.1-9.8-2.9c0.5,0,1,0.1,1.6,0.1
		c3,0,5.8-1.1,7.9-2.8c-2.8,0-5.2-1.9-6-4.4c0.4,0.1,0.7,0.1,1.1,0.1c0.6,0,0.7-0.1,1.3-0.2c-2.9-0.6-5.8-3.2-5.8-6.4c0,0,0,0,0-0.1
		c1.3,0.5,2.3,0.8,3.4,0.8c-1.7-1.2-2.3-3.1-2.3-5.4c0-1.2,0.4-2.3,1-3.2c3.1,3.8,7.9,6.5,13.2,6.7c-0.1-0.5-0.1-1-0.1-1.4
		c0-3.6,2.9-6.5,6.4-6.5c1.8,0,3.5,0.8,4.7,2c1.4-0.2,2.9-0.8,4.1-1.6c-0.5,1.6-1.4,2.8-2.8,3.6c1.3-0.1,2.5-0.5,3.7-1
		C30.6,5.9,29.5,7.1,28.3,8z"/>
</g>
<g id="Layer_1_1_">
</g>
</svg>
