<svg id="Layer_1" data-name="Layer 1" xmlns="http://www.w3.org/2000/svg" viewBox="0 0 421.82 205.21"><defs><style>.cls-1{opacity:0.4;}.cls-2,.cls-6{fill:#fff;}.cls-3{fill:#6ebce9;}.cls-4{opacity:0.55;}.cls-5{opacity:0.3;}.cls-6{opacity:0.5;}</style></defs><g class="cls-1"><path class="cls-2" d="M360.43,111.14a9,9,0,0,0,2.82-2.43,44.69,44.69,0,0,1,4.3-4.51c.6-.43,5.73-5.29,5.87-5.41a5.65,5.65,0,0,0,1.26-2,4.37,4.37,0,0,1,1.06-1.65c0,.66-.94,8.42-5.73,12.32s-6.87,3.55-9.08,4.73a13,13,0,0,1-3,1.43c-.16,0,.24-.75.24-.75,1.16-2.63,0-.86.66-6.93a23.35,23.35,0,0,1,3.77-10.21h0c.09,1,.91,5.37.91,6.56a15.41,15.41,0,0,1-.8,4.3,16.25,16.25,0,0,1-2.16,3.86,2.38,2.38,0,0,0-.2.69h0m7.85-13.88c.15,0,.48-.34.53-.62a21.58,21.58,0,0,1,1.5-4.07c1-2,4.83-6.55,5.73-9.54a13.49,13.49,0,0,1-2.1,10c-3.37,4.85-3.73,3.76-5.13,6s-1.6,2.47-1.8,2.47l-.11,0a1.33,1.33,0,0,1,0-1.07,6.28,6.28,0,0,0-.61-4c-.9-1.69-2.86-6.37-2.71-9.49s.56-3.56.56-3.56,1,2.57,1.3,3,3.31,5,3.07,7.55-.4,3.29-.26,3.33h0M370.38,84c.25,0,.23-1.82.23-1.82a41.79,41.79,0,0,1,.42-5.37c.34-1.74,1.25-4.65.85-6.12a11.53,11.53,0,0,1,1.86,6.5,15.87,15.87,0,0,1-2.21,7.29,12.07,12.07,0,0,0-1,2.68c0,.4-.6.66-.6.66-.26,0-.1-2-.7-2.69s-5.73-6-6.89-11.23c0,0,3.26,2.86,3.82,3.16a10.82,10.82,0,0,1,3.41,3.86c.66,1.66.5,3,.76,3.08h0m-2.52-11.74c.1,0,.18-.11,0-.61a6.92,6.92,0,0,0-1.17-2.52,10,10,0,0,1-1.6-4.3,7.88,7.88,0,0,0-1.26-4v-.11s6.77,3.46,5.73,15.08c0,0,0,.24-.12.24s-.15-.06-.28-.24a13,13,0,0,0-2.52-2.51c-.65-.34-6.68-3.51-9.24-8.36h.1a1.45,1.45,0,0,1,.9.4,22,22,0,0,0,2.77,1.43,10,10,0,0,1,4,2.07,11.24,11.24,0,0,1,2.57,3.43.29.29,0,0,0,.15,0m-7.5-10.51a.06.06,0,0,0,.07-.07,1.38,1.38,0,0,0-.3-.7c-.51-.66-1.92-1.82-2.16-2.21A8.24,8.24,0,0,0,356.71,57c-.75-.74-1.91-2.18-1.91-2.18s4,1.26,5.17,2.87c2.07,2.86,1.56,4.08,2.21,5.15a2.9,2.9,0,0,1,.5,1.87,8.63,8.63,0,0,0-5.11-2.64,21.46,21.46,0,0,1-7.34-3.55,48.08,48.08,0,0,0,5.33.86,14.05,14.05,0,0,1,4.17,2,1.55,1.55,0,0,0,.63.34m-4.3-7.16a33.1,33.1,0,0,0-10.15,64.6,8.18,8.18,0,0,0,2.48-3.83c.35-.66.76-1.39,1.29-2.23a24.6,24.6,0,0,1,6.43-6.94,21,21,0,0,0-.65,2.57,11.23,11.23,0,0,1-2.52,5.93c-1.9,2-2,2.39-4.21,3.56,0,0-.87.48-.8.69s.2.1.42.1a8.55,8.55,0,0,0,1.08-.1,19.75,19.75,0,0,0,2.11-.77c.5-.27,2.76-1.26,3.66-1.56a28.47,28.47,0,0,1,3.34-1.12l.34-.09c2-.51,9.3-2.12,12.16-6.11a11.66,11.66,0,0,1-1.92,3.42c-1,1.08-6.91,7.77-15.07,7.77h-.24s-3.05-.2-4.79-.44a33.1,33.1,0,1,0,7-65.44"/></g><path class="cls-3" d="M330.15,71.8h0Z"/><polygon class="cls-3" points="333.61 72.18 333.6 72.15 333.62 72.17 333.61 72.18"/><g class="cls-4"><path class="cls-2" d="M366.42,99.32c-.35.09-.51.36-.79.49a2.18,2.18,0,0,1-.92.33.92.92,0,0,1-.57-.2.3.3,0,0,0-.17,0,.51.51,0,0,0-.26.09.55.55,0,0,1-.23.09h-.17c0,.26.07.51.1.75a.42.42,0,0,1,.29-.11h0a.27.27,0,0,1,.28.24c.05.25.07.5.1.75h0c-.25,0-.33.21-.53.32a2.54,2.54,0,0,1,0,.26,15.41,15.41,0,0,1-.8,4.3,16.25,16.25,0,0,1-2.16,3.86,2.38,2.38,0,0,0-.2.69h0a9,9,0,0,0,2.82-2.43,44.91,44.91,0,0,1,3.4-3.63h-.06c-.09,0-.21.06-.29.06a.09.09,0,0,1-.07,0c-.15-.21-.08-.51-.58-.57-.17,0-.34-.46,0-.75s-.09-.23-.24-.26a1.59,1.59,0,0,1-1.13-.88c-.13-.28,0-.64-.14-1,.39,0,.74.05.7.47,0,.1.06.17.18.17h0c.16,0,.23-.11.18-.2-.33-.65.18-1,.67-1.42l.09-.12c-.14-.39.17-.63.44-.89a.26.26,0,0,0,0-.4"/><path class="cls-2" d="M340.9,113.77c-.38,0-.27-.33-.38-.5s.13-.22.3-.22a.76.76,0,0,1,.68.36c-.06.3-.34.35-.58.36h0m24.59-1.69c-.25-.24-.12-.43,0-.6h.26c.05.22-.11.39-.29.59m-29.91-10.9-.14,0c-.22-.09-.06-.23,0-.36.09-.47-.28-.89-.89-1a.3.3,0,0,1-.26-.19c-.19-.43.37-1.48.95-1.72-.34-.16-.62-.31-.21-.66.17-.15.1-.49.13-.74s.07-.35.34-.37h0c.22,0,.15.18.21.29s.34.46.51.7a.26.26,0,0,0,.22.13.56.56,0,0,0,.26-.08.63.63,0,0,1,.27-.08c.11,0,.19.06.2.24h.08c.26,0,.37-.1.38-.35s.05-.41.35-.41h0c.3,0,.31.24.39.41.16.32-.22.58-.17.89s-.31.49.14.54h.08c.33,0,.16-.34.25-.51.85.69.87,1,.14,1.61a2.49,2.49,0,0,0-.41.45,1.09,1.09,0,0,1-.9.47,1.33,1.33,0,0,1-.62-.16c-.08,0-.15-.13-.24-.13a.17.17,0,0,0-.12.06c-.14.15,0,.28.18.32a.85.85,0,0,1,.63.76c0,.25-.11.34-.37.38l-.12,0a.33.33,0,0,1-.33-.27c0-.12-.07-.23-.11-.35s-.14-.25-.24-.25-.17.06-.27.18a.41.41,0,0,1-.32.19m3.2-5.76a2.09,2.09,0,0,0,1-.29l.09-.1.25.07c0,.09,0,.18,0,.28a.38.38,0,0,1-.39.45h-.39a1.16,1.16,0,0,1-1-.36c-.19,0-.34.15-.54.15l-.12,0v0a1,1,0,0,0,.56-.27,1.41,1.41,0,0,0,.54.11m2.63.4c-.29,0-.21-.29-.27-.47l-.09-.24.11,0a3.64,3.64,0,0,0,.91-.44,2.14,2.14,0,0,0,.89.2H343a1.73,1.73,0,0,0,.32.54,1.39,1.39,0,0,0-.48-.14c-.15,0-.24.08-.3.27s-.31.31-.55.31h-.62m12.84-9c-.19,0-.33.2-.49.3l-.19,0c-.58,0-1.24.42-1.21.87s-.3.63-.72.74-.77.65-1.32.79c-.12,0-.09.16,0,.24s.07.46.15.67a1.35,1.35,0,0,1,0,.6.53.53,0,0,0-.45.43c0,.21.1.49-.19.61a1.53,1.53,0,0,1-.52.08c-.21,0-.42,0-.62,0-.36,0-.31-.26-.35-.45s.19-.61-.23-.65H348a.57.57,0,0,0-.61.65c0,.06,0,.14-.17.15a.83.83,0,0,1,.12-.94c.32-.32.14-.52-.3-.55-.66,0-.4-.28-.2-.56a1.79,1.79,0,0,0,1.44.54h.07c.39,0,.53-.15.32-.42s-.28-.48.13-.72a.51.51,0,0,0,.3-.67c-.09-.19-.13-.35-.32-.35a.87.87,0,0,0-.32.09.78.78,0,0,1-.33.09c-.21,0-.41-.16-.84-.57-.21.11-.07.24-.06.36s.06.41-.1.41a.74.74,0,0,1-.35-.15.37.37,0,0,0-.2,0l-.19,0-.2,0h-.09s0,.06,0,.11,0,.12-.08.12a.39.39,0,0,1-.14,0c-.17-.1-.09-.28,0-.42l.1-.18a.45.45,0,0,0-.29-.09h-.27c-.1,0-.29,0-.3,0-.16-.58-.78-.38-1.23-.48l-.2,0c-.38,0-.7.22-.67.53,0,.15.34.37-.17.37h-.25c-.2,0-.36,0-.34-.31l-.06-.21c-.33.35-.26.7.26.83s.25.51.37.76a3.92,3.92,0,0,1-.74.16.51.51,0,0,1-.33-.11.48.48,0,0,0-.31-.15.73.73,0,0,0-.33.14.4.4,0,0,1-.22.08c-.18,0-.24-.2-.34-.35s-.19-.58.12-.72l.09,0c.13,0,.11.22.13.33h0c.19,0,.56,0,.4-.23s-.18-.54-.59-.54h-.13a5.41,5.41,0,0,1-.82.1l-.27,0h-.17c-.57,0-.48.51-.5.79s.07.81-.54,1c-.29.11-.26.38,0,.55a1.05,1.05,0,0,0,.48.2h.3c.48,0,.78.14.91.42h-.23a2.23,2.23,0,0,0-.72.27l-.23.1a1,1,0,0,1-.28-.13v.08a.25.25,0,0,1-.2.3l-.15,0a.36.36,0,0,1-.34-.16c-.06-.12,0-.35-.15-.44h-.11l-.23,0-.58,0c-.12,0-.24,0-.36,0h0l-.13.08v.07l0,.19a.86.86,0,0,1-.41.26v0h0a1.43,1.43,0,0,0-.35.17l-.22,0a3.71,3.71,0,0,0-.28-.41,1.11,1.11,0,0,1-.52.13h-.12c-.19,0-.4-.07-.6-.07l-.19,0c-.42.11-.42.46-.68.69a.63.63,0,0,1-.43.15h-.12c-.11,0-.22,0-.33-.07h-.07c-.05,0-.07,0-.13.08l-.06.07h0l.11.11c.11.14.08.33.11.49a1,1,0,0,0,.12.39h0c.1.15.23.28.34.42l0,.14a2.65,2.65,0,0,0,.37.12,3.09,3.09,0,0,0,.6.08l-.19.13a2.34,2.34,0,0,0-.27-.15,1.9,1.9,0,0,0-.59-.15c-.19.07-.2.19-.26.34a.51.51,0,0,1-.34.28l-.12,0a.89.89,0,0,1-.32-.08l-.17,0-.14.13a1.2,1.2,0,0,0,.28.13l.09.13c0,.15.16.22.29.3a.44.44,0,0,1,.24.42c0,.07-.07.1-.14.1s-.13,0-.12-.1-.16-.26-.33-.36a.38.38,0,0,1-.21-.33l-.19-.08a1.11,1.11,0,0,0,.78.93,2.25,2.25,0,0,0,.85.16,3.45,3.45,0,0,0,1-.17c.11,0,.22,0,.33,0a.65.65,0,0,0,.47-.28,1.78,1.78,0,0,0,.47.09h.2c0,.15.26.17.45.22a11.65,11.65,0,0,0,1.77.16,4.62,4.62,0,0,1-1.15.16,3.18,3.18,0,0,1-1.24-.24,1.22,1.22,0,0,0-.4-.12.35.35,0,0,0-.28.15.7.7,0,0,1-.6.26l-.3,0H333a.34.34,0,0,0-.37.22c-.07.23.09.28.36.36s0,.41.1.63,0,.14-.09.14h-.18c-.38,0-.76.06-1.15.07s-.74.2-.67.62V98c0,.16,0,.31-.18.42-.5.25-.25.44.1.59.76.33.8.44.3,1-.27.31-.31.63.1.9.13.09.31.24.15.34-.69.43-.05,1.11-.5,1.61-.13.15.08.32.33.32h.29a.94.94,0,0,1,.78.42.55.55,0,0,0,.46.23,1,1,0,0,0,.32-.06.79.79,0,0,1,.29-.07c.18,0,.22.13.2.37s0,.73.67.74a.31.31,0,0,1,.33.32c0,.18,0,.37.08.53l.12,0a.18.18,0,0,0,.15-.11c0-.07.09-.15.18-.15h.05c.12,0,.18.12.14.2-.15.38.14.56.48.74.55.3.95.75,1.54,1l.22.14a.79.79,0,0,1,.37.79v0a5,5,0,0,0,0,1.16,1.46,1.46,0,0,0,.5,1.31.66.66,0,0,1,.2.34.87.87,0,0,0,.33.5,14.25,14.25,0,0,1,1.07,1c.28.24.05.39-.09.53a.29.29,0,0,1-.2.09c-.11,0-.2-.1-.26-.22s-.12-.21-.25-.22c-.7,0-.9-.76-1.65-.76-.08,0-.18-.18-.24-.28a.61.61,0,0,0-.55-.32l-.23,0c.75.6,1.52,1.19,2.25,1.81.22.19.36.49.65.49a.83.83,0,0,0,.41-.14l.23,0a14.37,14.37,0,0,0,2.55,1.15,13.52,13.52,0,0,0,4,1.28,4.15,4.15,0,0,1,1.26.3c.17-.37.33-.74.49-1.14.35-.66.76-1.39,1.28-2.23a24.61,24.61,0,0,1,6.44-6.93,20.42,20.42,0,0,0-.65,2.56,11.3,11.3,0,0,1-2.52,5.93c-1.1,1.13-1.6,1.75-2.25,2.3l.7-.14a4.52,4.52,0,0,1,.8-.11,1.39,1.39,0,0,1,.35,0,11.53,11.53,0,0,0,1.64.22c.4-.17.77-.31,1-.39a31,31,0,0,1,3.49-1.15l.19-.06c2-.51,9.3-2.12,12.16-6.11a11.86,11.86,0,0,1-1.91,3.42,28.28,28.28,0,0,1-3.05,2.93l.71-.14c.59-.11,1.26-.26,1.49-.85.06-.15.26-.14.42-.18,1-.29,2-.56,3-.89.61-.2,1.14-.51,1.23-1.12.07-.45.49-.7.93-1,.88-.55,2.1-.73,2.7-1.59a3.81,3.81,0,0,1,.65-.61c.66-.58,1.38-1.11,2-1.72.41-.43.8-.87,1.18-1.32l0-.17a5.17,5.17,0,0,1,1-2.32l-.09-.27c.13-.35.43-1.09-.12-1.2a.25.25,0,0,1-.17-.3v-.06a2.22,2.22,0,0,0-.74.47.21.21,0,0,1-.16.07.26.26,0,0,1-.19-.07l-.16-.09-.17.25a.54.54,0,0,1-.41.21.3.3,0,0,1-.13,0c-.49-.13-.34-.91-.84-.91h0a.25.25,0,0,1-.23-.31l.07-.18h-.22c-.19,0-.36.12-.55.16a.91.91,0,0,1-.23,0,.85.85,0,0,1-.35-.08l-.17-.11a1,1,0,0,1-.73.59l-.16.2c.09.49-.49.82-.46,1.29,0,.24-.23.35-.49.41a3.76,3.76,0,0,0-2.25,1.17,2,2,0,0,1-.42.39,11.49,11.49,0,0,1-1.95,2.06c-4.78,3.9-6.87,3.55-9.08,4.73a13,13,0,0,1-3,1.43c-.16,0,.24-.75.24-.75,1.16-2.63,0-.86.66-6.93a23.44,23.44,0,0,1,1.56-6c-.06-.15-.17-.29-.24-.44s-.27-.32-.28-.51-.08-.34.22-.35h0c.22,0,.34.11.29.31v.25l.15.13a.32.32,0,0,1,.19-.19c.14-.31.28-.61.43-.91l-.09-.13c-.19-.19-.39-.48-.77-.48a1,1,0,0,0-.43.11,3,3,0,0,0,.48-1.27c.09-.31-.14-.46-.52-.59a2.39,2.39,0,0,0-.78-.12c-.52,0-1,.12-1.53.14h-.31c-.78,0-.94-.15-.95-.89,0-.49,0-.62-.33-.62h-.11a1.21,1.21,0,0,0,.16-.63c0-.2-.2-.37-.24-.57-.1-.51.59-1.09.34-1.49l.09.1c.12-.28-.09-.53-.38-.74.53-.28.54-.44.06-.82a6.14,6.14,0,0,0-.64-.46,1.92,1.92,0,0,1-1.09-1.25c-.06-.31-.13-.44.38-.45.28,0,.77-.09.61-.46a1.88,1.88,0,0,0-.74-.77.23.23,0,0,0-.15,0"/><path class="cls-2" d="M363.45,101.1c0,.23.05.45.07.63l.1-.13c.14-.19.2-.34-.09-.47l-.08,0"/></g><g class="cls-5"><path class="cls-2" d="M372.14,83.33c-.19.38-.38.75-.6,1.11l.28,0H372c.42,0,.46-.23.43-.61a.78.78,0,0,0-.25-.53"/><path class="cls-2" d="M366.75,70.09a.38.38,0,0,0-.26.14,10.73,10.73,0,0,1,.84,1.27.78.78,0,0,1,0-.34,1,1,0,0,0-.44-1l-.11,0"/><path class="cls-2" d="M367.17,83.74h0a.39.39,0,0,0-.38.25,1.81,1.81,0,0,0,.67,2.09c.43.22.43.57.41,1s-.35.52-.69.54H367a2.22,2.22,0,0,1-.9-.17,18.32,18.32,0,0,1,2.34,5.45,1.37,1.37,0,0,1,.55-.4.43.43,0,0,1,0,.55,2.86,2.86,0,0,0-.46.67v.24l0,.31v0c-.22,2.22-.35,2.94-.22,3h0c.15,0,.48-.34.53-.62a21.58,21.58,0,0,1,1.5-4.07c.55-1.15,2-3.1,3.37-5.12a4,4,0,0,1-1-.72.39.39,0,0,0-.26-.13c-.14,0-.2.17-.27.28a1.34,1.34,0,0,1-1.24.69h-.35l-.26,0a2,2,0,0,1-.36.23h0c-.05,0-.08-.08-.1-.18-.35,0-.42-.35-.44-.73a1,1,0,0,1,.22-.83,2.13,2.13,0,0,0-.38-1l-.25-.28a3.93,3.93,0,0,1-.88.73,1.54,1.54,0,0,1-.31-1c0-.4-.35-.41-.44-.62s-.06-.24-.22-.24"/><path class="cls-2" d="M337,84.84c.09-.15.17-.2.24-.2a.36.36,0,0,1,.23.13l-.47.07m1.72-23.53a.66.66,0,0,0-.6.38h-.27a.68.68,0,0,0-.36-.11c-.32,0-.52.29-.77.52s-.53.73-1,.8c0,.1,0,.22-.13.27l-.08-.07c0-.13.1-.17.2-.22,0-.37-.14-.48-.36-.48a1.11,1.11,0,0,0-.34.06c-.37.11-.57.42-.31.67.76.75-.2,1.16-.26,1.73v0c0,.17.06.38-.17.54-.12-.24-.26-.48-.43-.48s-.22.1-.34.35-.23.35-.34.35-.31-.21-.51-.58c0,.57-.1.87-.53.87-.16,0-.35.17-.18.34.41.43-.13.63-.15.9s.36.68.2,1.11c-.08.23-.17.47-.43.52a.63.63,0,0,0-.56.61.49.49,0,0,1-.35.42,1.2,1.2,0,0,0-.78,1.4c.06.72-.49,1.17-.64,1.79,0,.14-.58.16-.89.24s-.44.12-.66.19c.13.36.87.58.25,1-.25.17-.36.27-.36.58s-.34.47-.58.47h-.08c-.38,0-.14-.34-.06-.54l0-.21c.34-1.46.25-3.06,1.34-4.26.57-.63.55-1.6,1.34-2.11a.51.51,0,0,0,.08-.68A32.7,32.7,0,0,0,325,76.17a1.79,1.79,0,0,1,0,1.12,20.64,20.64,0,0,0-.88,6.53,10.77,10.77,0,0,0,.07,2.12c.29,1.87.75,3.71.86,5.62a10.23,10.23,0,0,0,2.12,6,12.38,12.38,0,0,1,1.91,3.67,7.52,7.52,0,0,0,1.53,2.61c.7.81,1.5,1.54,2.14,2.42a4.89,4.89,0,0,0,1.92,1.71,1.12,1.12,0,0,1,.58.61,2.6,2.6,0,0,0,.77.91.82.82,0,0,1,.26,0,.65.65,0,0,1,.6.43c.07.15.18.39.27.39.7,0,1,.72,1.5,1a.66.66,0,0,0-.2-.34,1.46,1.46,0,0,1-.5-1.31,5,5,0,0,1,0-1.16v0a1.84,1.84,0,0,1-.37-.79l-.22-.14c-.59-.28-1-.73-1.54-1-.34-.18-.63-.36-.48-.74,0-.08,0-.17-.14-.2h-.05c-.09,0-.13.08-.18.15a.18.18,0,0,1-.15.11l-.12,0c-.11-.16-.06-.35-.08-.53a.31.31,0,0,0-.33-.32c-.65,0-.7-.37-.67-.74s0-.37-.2-.37a.79.79,0,0,0-.29.07,1,1,0,0,1-.32.06.55.55,0,0,1-.46-.23.94.94,0,0,0-.78-.42h-.29c-.25,0-.46-.17-.33-.32.45-.5-.19-1.18.5-1.61.16-.1,0-.25-.15-.34-.41-.27-.37-.59-.1-.9.49-.59.46-.7-.3-1-.35-.15-.6-.34-.1-.59.23-.11.21-.26.18-.42a.83.83,0,0,0-.5-.16.93.93,0,0,0-.23,0h-.09c-.27,0-.5-.24-.35-.45.48-.69-.22-1.63.55-2.24.17-.13,0-.33-.18-.46a.86.86,0,0,1-.11-1.26c.56-.82.52-1-.32-1.42-.39-.21-.66-.48-.11-.82.29-.19.22-.44.18-.69-.08-.57.18-.84.75-.85s.84-.07,1.27-.11h.2c.09,0,.17,0,.1-.2s.32-.73-.11-.87-.48-.18-.41-.5a.38.38,0,0,1,.41-.32,2.58,2.58,0,0,1,.29,0l.33,0a.71.71,0,0,0,.67-.36.35.35,0,0,1,.31-.2,1.08,1.08,0,0,1,.43.16,2.89,2.89,0,0,0,1.37.34,4.12,4.12,0,0,0,1.28-.23,9.27,9.27,0,0,1-2-.22c-.28-.09-.64-.11-.45-.59.1-.26.22-.44.44-.44a.64.64,0,0,1,.29.09,1.61,1.61,0,0,0,.67.14,2.58,2.58,0,0,0,.72-.12l1,0,0-.1a1.87,1.87,0,0,1,.64-.7,1.05,1.05,0,0,1,.3-.15.94.94,0,0,1,.49-.56,1.4,1.4,0,0,1-.16-.9,1.11,1.11,0,0,1,.75-.9,2.24,2.24,0,0,1,.28-.85,1,1,0,0,1,.23-.27.27.27,0,0,1-.16-.3c.12-.94-.23-1.37-1-1.37h-.33a1.06,1.06,0,0,1-.53-.28c-.31-.24-.33-.61,0-.77.68-.34.57-.87.6-1.46,0-.38-.07-1.1.56-1.1l.18,0,.3,0a5.28,5.28,0,0,0,.9-.14l.15,0c.45,0,.5.5.65.75s-.24.28-.45.32l-.1.16-.07-.07.16-.1c0-.16,0-.46-.15-.46l-.1,0c-.34.2-.33.62-.13,1,.11.2.18.48.37.48a.45.45,0,0,0,.25-.1c.16-.12.26-.2.37-.2s.19.06.34.21a.48.48,0,0,0,.36.16,3.6,3.6,0,0,0,.82-.23c-.14-.34.27-.85-.41-1.06s-.66-.67-.28-1.15a2.52,2.52,0,0,1,.06.29c0,.37.16.43.38.43h.27c.56,0,.2-.31.19-.51a.7.7,0,0,1,.73-.74.78.78,0,0,1,.22,0c.51.13,1.19-.14,1.37.67,0,0,.22,0,.34,0h.29a.45.45,0,0,1,.32.11l-.11.25c-.09.2-.18.46,0,.59a.31.31,0,0,0,.15.07c.07,0,.08-.08.09-.16s0-.16,0-.16h.1a.78.78,0,0,0,.22,0,.83.83,0,0,1,.22,0,.3.3,0,0,1,.21.07.79.79,0,0,0,.4.2c.17,0,.14-.28.11-.56s-.17-.36.06-.5c.48.56.69.79.93.79a.75.75,0,0,0,.36-.13.75.75,0,0,1,.35-.12c.22,0,.27.22.36.49a.78.78,0,0,1-.33.93c-.45.32-.4.6-.15,1s.08.57-.35.58H349a1.78,1.78,0,0,1-1.59-.75c-.21.38-.5.7.23.77.48,0,.68.33.33.78a1.4,1.4,0,0,0-.14,1.3c.18,0,.2-.13.19-.21,0-.52.23-.91.68-.91h.08c.46,0,.18.59.24.9s0,.61.4.64c.18,0,.38,0,.57,0a2,2,0,0,1,.48-.06h.05l.15,0c.33-.16.17-.55.21-.84a.68.68,0,0,1,.7-.63h0c.37,0,.22.4.23.63,0,.48,0,.94.63.94h.13a1,1,0,0,1,.25,0,3.9,3.9,0,0,1,.5,0c-.33-.48,0-1-.19-1.5-.09-.29,0-.62-.16-.9-.06-.1-.09-.27,0-.31.58-.2.81-.85,1.4-1,.44-.16.81-.34.77-1s.66-1.15,1.27-1.16l.2,0c.17-.13.32-.4.52-.4a.32.32,0,0,1,.17.06,2.47,2.47,0,0,1,.77,1c.18.48-.35.6-.64.61-.54,0-.46.18-.4.6a2.46,2.46,0,0,0,1.15,1.66,6.57,6.57,0,0,1,.68.61c.51.51.51.72-.08,1.1s-.62,1.27-1.08,1.91a2.47,2.47,0,0,0-.19-.36c0,.13,0,.26,0,.41,0,0,0,0,0,0a2,2,0,0,1,.24.42,1.29,1.29,0,0,1,.12.67,1.08,1.08,0,0,1-.05.36l0,.06.07.15a1.33,1.33,0,0,1-.17,1.19c0,.93.22,1.12,1.06,1.12h.33c.56,0,1.11-.19,1.68-.19a2.08,2.08,0,0,1,.87.17c.42.18.67.38.57.81a4.91,4.91,0,0,1-.53,1.77.94.94,0,0,1,.48-.15c.42,0,.63.39.85.66a1.13,1.13,0,0,1,0,1.2c-.11.2-.56.13-.62.51h0s-.15-.09-.16-.18a1.37,1.37,0,0,1,0-.35c.06-.28-.07-.42-.31-.42h0c-.33,0-.25.28-.24.48s.21.46.31.7.44.69.22,1.13c-.11.21-.38.48,0,.63a.69.69,0,0,0,.2,0c.23,0,.41-.17.47-.46,0-.13,0-.3.18-.35a2.45,2.45,0,0,0,1.67.7.85.85,0,0,0,.29,0l.13,0a19.65,19.65,0,0,1-1.72-7.34c.16-3.13.56-3.56.56-3.56s.55,1.41,1,2.31a2.94,2.94,0,0,1,.2-1.43c.15-.37.17-.57-.08-.77-.48-.38-.47-.7,0-1.06.3-.23.44-.52,0-.8s-.22-.4,0-.6.23-.3.34-.45a19.86,19.86,0,0,1-3.19-6.69s2.17,1.91,3.28,2.77c.25-.79.51-1.59.76-2.39.1-.31.22-.62.35-.92l-.12-.11a24.81,24.81,0,0,1-2.22-1.31,6.39,6.39,0,0,1-1.38-.46c-.31-.14-.73.05-1.05-.35a.29.29,0,0,0-.24-.12.55.55,0,0,0-.47.4c-.06.16-.13.34-.32.34h0c-.22,0-.32-.17-.36-.37l0-.13c-.26-.21-.16-.76-.49-.76h0c-.4,0-.18.51-.3.77s-.29.43-.53.43l-.23,0a1,1,0,0,0,0,.18c.1.24.67.4.22.71a.29.29,0,0,1-.18.06c-.22,0-.36-.3-.52-.48s-.26-.6-.46-.88c-.35-.48-.89-.27-1.32-.44a4.34,4.34,0,0,1-1.58-1.07c-.43-.46-.71-.76-.43-1.41a.37.37,0,0,0-.36-.54h-.21a.87.87,0,0,1-.36-.13.75.75,0,0,0-.38-.13.38.38,0,0,0-.24.08l-.21-.17c-.06-.12,0-.22.12-.3s.35,0,.38-.24a.21.21,0,0,0-.19-.1l-.19,0H353c-.14,0-.19-.11-.22-.23s0-.19.11-.19l.17,0h0a.45.45,0,0,0,.38-.26l.13-.18,0,0c-.13-.23-.26-.36-.37-.36s-.21.12-.29.38-.14.22-.24.22h-.15l-.14,0a.2.2,0,0,0-.17.07,3,3,0,0,1,.22,1.62l-.46-.35c-.15-.11-.27-.37-.43-.37a.28.28,0,0,0-.12,0,.62.62,0,0,0-.11.78,1.43,1.43,0,0,1,.09.27c.23,1,.16,1.08-.94,1.09.06-.46,0-.43-.3-1-.17-.32-.33-.55-.63-.55a.83.83,0,0,0-.28.06l-.26-.06c-.17-.32-.3-.43-.41-.43s-.34.35-.52.58a.72.72,0,0,0-.15.89.59.59,0,0,1,0,.6c-.32.57-.59,1.17-.9,1.75-.11.19-.18.35.09.44.55.17.65.7.87,1.13.06.13.12.27,0,.4a.18.18,0,0,1-.13.06,1.21,1.21,0,0,1-.25-.08c-.09,0-.22-.16-.31-.16s-.1.06-.11.25-.17.54-.39.54l-.11,0c-.31-.11-.73-.29-.62-.8.07-.3.12-.6.18-.9a1.63,1.63,0,0,0-.36,0c-.26,0-.45.11-.52.53,0,.2-.11.36-.22.36s-.17-.09-.27-.29a.5.5,0,0,0-.44-.34h-.06c-.3,0-.19.32-.26.5a8,8,0,0,1-.55,1.14.78.78,0,0,1-.64.46,1,1,0,0,1-.54-.2c-.28-.19-.54-.51-.92-.51h-.26a.6.6,0,0,1-.54-.39c-.13-.23-.27-.46-.58-.46l-.14,0-.31,0c-.48,0-.75-.27-.87-.86a1,1,0,0,0-.57-.81.91.91,0,0,1-.34-1.41.53.53,0,0,0,0-.71.57.57,0,0,0-.47-.29.56.56,0,0,0-.17,0,1.87,1.87,0,0,1-.34,0,1.58,1.58,0,0,1-1-.32c.2-.26.67-.07.67-.48s-.38-.44-.63-.59-.38-.14-.48-.28a1.09,1.09,0,0,1-.11-.67h0a.54.54,0,0,0,.21,0,.9.9,0,0,0,.39-.13,1,1,0,0,1,.36-.12.28.28,0,0,1,.17,0,2.82,2.82,0,0,0,1.35.29,4.49,4.49,0,0,0,.59.07c.35,0,.33-.2.22-.9-.08-.55.41-2,.79-2.06.68-.12.7-.63.68-1.08s-.19-1-.53-1.1a3,3,0,0,0-.77-.19"/><path class="cls-2" d="M386,79.09a.21.21,0,0,1-.16-.09c-.13-.16,0-.37.07-.53a1.41,1.41,0,0,1,1.08-.41,1,1,0,0,1,.48.1.44.44,0,0,1,.23.34c0,.12-.09.16-.17.16a.37.37,0,0,1-.16,0,.77.77,0,0,0-.38-.11,1,1,0,0,0-.69.36c-.08.09-.18.23-.3.23m-2.58-5.74c-.26.12-.19.32-.25.46a1.51,1.51,0,0,1-1.3.75.84.84,0,0,1-.5-.14,1,1,0,0,0-.46-.25c-.1,0-.18.07-.25.25-.14.34-.42.76.21,1,.35.17.93.48.71,1a4.85,4.85,0,0,0-.45,1.89c0,.11,0,.22-.13.22l-.07,0-.17,0c-.25,0-.43.22-.66.27-.66.13-.71.49-.42,1,.11.2.12.47-.11.47h-.06a.52.52,0,0,0-.17,0c-.54,0-.6.52-.86.83-.51.58-.11,1.27-.27,1.9-.09.33-.24.81.12,1a.23.23,0,0,0,.11,0c.25,0,.4-.4.58-.61.38-.46.76-.91,1.37-.91a1.63,1.63,0,0,1,.58.12c-.42.5-.8,1-1.2,1.41s-.75.66-.21,1.22c.25.25.09.69-.13.9a.25.25,0,0,1-.15.07c-.16,0-.27-.24-.39-.35a.49.49,0,0,0-.3-.14c-.15,0-.24.17-.28.38a1.7,1.7,0,0,0,.05.49c.08.73-.11,1-.65,1a1.91,1.91,0,0,1-.44,0c-.47-.09-.36-.53-.52-.8a5.82,5.82,0,0,1-.55.4,13.53,13.53,0,0,1-2.22,5.92c-3.37,4.85-3.73,3.76-5.13,6-.17.28-.33.52-.47.74.34.15.3.48.45.74,0,0,0,0,.08,0s.21-.07.31-.08c.77-.09,1.17-.69,1.65-1.16.16-.16.29-.34.5-.34h.07c.32.05.39.34.41.59a4.61,4.61,0,0,1,0,.74l1.63-1.54a5.52,5.52,0,0,0,1.26-2,4.37,4.37,0,0,1,1.06-1.65,22.38,22.38,0,0,1-1.46,6l.17,0c.56,0,.94-.53,1.13-.81a4,4,0,0,1,2.48-1.64c.29-.07.57-.23.55-.56,0-.66.61-1.12.51-1.79l.18-.28c.74-.15.7-1,1.18-1.38a7,7,0,0,0,1-1.61c.15.13.2.34.43.34h.1c-.16-.27,0-.47.11-.7s.26-.65-.1-.65a1.09,1.09,0,0,0-.32,0,.57.57,0,0,1-.18,0,.4.4,0,0,1-.39-.21c-.12-.29.28-.38.35-.64s.28-.23.39-.23.06,0,.07,0c.08.21.19.28.3.28a.76.76,0,0,0,.25-.06.63.63,0,0,1,.25-.07l.09,0a1.14,1.14,0,0,0,.46.15c.38,0,.37-.47.43-.85,0-.21.29-.54-.13-.62-.19,0-.31,0-.27-.25s0-.39.23-.39h.11c.2,0,.34-.07.3-.29-.11-.51.26-1,.18-1.46,0-.16,0-.41.17-.43.56,0,.63-.67,1.1-.84s.87-.42.42-1L386,85a.66.66,0,0,0-.18-.77c-.39-.31-.25-.59,0-.82a2.1,2.1,0,0,0,.69-1c.1-.37.21-.62.54-.62l.24,0h.09a.4.4,0,0,0,.36-.28c0-.14.09-.3-.07-.38-.71-.36-.41-1-.37-1.49,0-.21,0-.51.23-.53h0c.29,0,.4.31.41.55a2.89,2.89,0,0,0,.3,1.06,32.23,32.23,0,0,0-1.57-5.26c-.12-.17-.27-.35-.48-.35a.52.52,0,0,0-.22.06.56.56,0,0,1-.22.06c-.17,0-.25-.15-.37-.34s-.33-.6-.61-.6a.7.7,0,0,0-.48.27.23.23,0,0,1-.16.08.31.31,0,0,1-.21-.11c-.33-.35-.67-.68-.55-1.26"/><path class="cls-2" d="M370.49,83.8l-.22,0,.1.16h0c.05,0,.08-.08.11-.18"/></g><path class="cls-6" d="M376.74,61.94l-.06,0a.24.24,0,0,0-.17,0c-.24.12-.36,0-.37-.23l.07-.11c-.07-.09-.19-.17-.25-.26-.74-.57-1.51-1.1-2.3-1.6l-.38.26c-.36.22-.18-.46-.4-.65-.07-.06-.13-.14-.21-.2l-.09-.07A32.87,32.87,0,0,0,356,54.57a33.46,33.46,0,0,0-7,.75,2.94,2.94,0,0,1-1.2,1c.21.16.74.11.33.64a.52.52,0,0,0,.13.65c.79.46.46.82-.06,1.18-.1.06-.22.15-.14.28a.3.3,0,0,0,.38.1,1.85,1.85,0,0,0,.37-.32c.15-.14.17-.23.45,0s.6.78,1.14.78c.13,0,.33-.09.36.09s-.18.36-.31.52-.24.17-.35,0c-.38-.56-.82-.1-1.21-.05-.22,0-.32.27-.13.5s.33.41.5.6.25.28.09.35c-.72.33-.45,1-.64,1.57-.08.21.08.3.2.4a.47.47,0,0,0,.54.07c.26-.12,0-.25,0-.39a.37.37,0,0,1,.36-.54c1,.06,1.21-1.29,2.18-1.33,0,0,.06-.09,0-.11-.53-.77.33-.72.6-.93s.67.11,1,.28.27.32.13.56.09.44.19.63a.19.19,0,0,0,.31,0c.81-.8.77-.13.78.45a1.26,1.26,0,0,0,.16.46c.27.62,0,2-.52,2.26a3.38,3.38,0,0,0-.58.37l0,0a2.4,2.4,0,0,0-.45.5h0c0,.06-.09.11-.13.18a.42.42,0,0,1-.39.26c-.12,0-.32-.09-.28.17s.1.27.3.22.27-.09.38.07-.26.16-.38.24-.18.18-.12.3.18.18.21.17c.41-.28.69.24,1.05.17s.6.3.5.53c-.28.65,0,1,.43,1.41a4.34,4.34,0,0,0,1.58,1.07c.43.17,1,0,1.32.44.2.28.24.62.46.88s.37.64.7.42-.12-.47-.22-.71a1,1,0,0,1,0-.18c.38.12.6,0,.76-.4s-.1-.76.3-.77.24.55.5.76c0,0,0,.09,0,.13,0,.2.14.37.36.38s.27-.18.33-.34c.13-.38.53-.51.71-.28.32.4.74.21,1.05.35a5.89,5.89,0,0,0,1.38.46c-2.17-1.41-5.34-3.86-7-7,0,0,.4-.1,1,.39a21.31,21.31,0,0,0,2.77,1.43A9.91,9.91,0,0,1,365,68.63a1.08,1.08,0,0,0,1.14-.52h0a10,10,0,0,1-1-3.3,7.88,7.88,0,0,0-1.26-4v-.11s4,2.08,5.38,8.34c.5.07.81-.13,1-.76a5.48,5.48,0,0,0,.61.58c.22.16.55.2.48-.18-.18-.87.47-.88,1-1.07l-.28-.32c-.28-.29-.25-.58.07-.77s.43,0,.64.29a2.24,2.24,0,0,1,.43,1.72.68.68,0,0,0,.58.83c.45.11.58-.08.69-.52a1,1,0,0,1,1.14-.89c.27,0,.67.33.88-.14a.91.91,0,0,0-.46-.16c-.46,0-.46,0-.29-.44,0-.06.05-.18,0-.2-.34-.25-.61-.53-.44-1a5,5,0,0,0-.94-.07c-.28,0-.46,0-.56-.29s0-.37.14-.3c.44.23.72-.28,1.11-.19a1.52,1.52,0,0,0,.38-1.85c-.23-.8.16-1.13.93-1,.26.06.3-.06.32-.23A.33.33,0,0,0,376.74,61.94Zm-19.17.15a21.46,21.46,0,0,1-7.34-3.55,48.08,48.08,0,0,0,5.33.86,14.05,14.05,0,0,1,4.17,2c.14.13.7.49.7.27a1.38,1.38,0,0,0-.3-.7c-.51-.66-1.92-1.82-2.16-2.21A8.61,8.61,0,0,0,356.71,57c-.75-.74-1.91-2.18-1.91-2.18s4,1.26,5.17,2.87c2.07,2.86,1.56,4.08,2.21,5.15a2.9,2.9,0,0,1,.5,1.87A8.63,8.63,0,0,0,357.57,62.09Zm5.89-5.31c-.06.38-.3.37-.54.42s-.38-.13-.35-.37a.56.56,0,0,0-.23-.48c-.15-.15-.49-.27-.22-.55s.51-.25.68.16C363,56.21,363.57,56.19,363.46,56.78Zm6.33,11.8-.06,0s0,0,0,0l.05,0Zm2.6-4.84c-.4.08-.78.45-1.18.11s-.14-.64-.2-1c.48.09.89-.36,1.32,0S372.32,63.42,372.39,63.74Zm.81,1.58c-.14.12-.26,0-.36-.09s-.21-.19-.1-.35.26,0,.36.06S373.38,65.16,373.2,65.32Z"/><path class="cls-2" d="M192.86,83.59A19.44,19.44,0,0,1,179.07,65a19.82,19.82,0,0,1,.54-4.59L192.22,62s4.84.21,4.66,8.78c-.17,8.32-4,12.79-4,12.79"/><path class="cls-2" d="M204.13,83.59A19.43,19.43,0,0,0,217.38,60.4L204.77,62s-4.84.21-4.66,8.78c.17,8.32,4,12.79,4,12.79"/><path class="cls-2" d="M198.5,51.09A2.94,2.94,0,0,1,201.44,54a3.24,3.24,0,0,1-1.92,2.77c-.13.07-.25.13-.23.33s.63.32.89.38l16.95,2a19.43,19.43,0,0,0-18.62-13.9h0a19.44,19.44,0,0,0-18.63,13.9l16.95-2c.26-.06.86-.18.89-.38s-.09-.26-.22-.33A3.24,3.24,0,0,1,195.56,54a2.94,2.94,0,0,1,2.94-2.94"/><path class="cls-2" d="M206.24,97.33l1.15-.72s-5.45-7.38-17.64-7.38c-6.24,0-9.47,2.51-13.84,2.51a6,6,0,0,1-3.51-.86s2.08,3,9.61,3c5.52,0,9.46-3.23,13.33-3.23,5.31,0,9.25,4.74,10.9,6.67"/><path class="cls-2" d="M189.32,97.33l-1.15-.72s5.45-7.38,17.64-7.38c6.24,0,9.47,2.51,13.84,2.51a6,6,0,0,0,3.51-.86s-2.08,3-9.61,3c-5.52,0-9.46-3.23-13.33-3.23-5.31,0-9.25,4.74-10.9,6.67"/><path class="cls-2" d="M183.51,88.58c-.21.58-2.54-.1-4.12.36a13,13,0,0,1-15.17-8s3.87,4.16,6.89,4.45a23,23,0,0,1,9.1,2.58l.65.14a.83.83,0,0,0-.36-.43c-.37-.19-3.27-1.13-4.66-5.73a37.47,37.47,0,0,1-.86-5.31,47.54,47.54,0,0,1,4.44,5.74c1.29,2.22,1.44,4.73,4.09,6.23"/><path class="cls-2" d="M174,83.71c-.23.23-.82-.15-1-.25a47,47,0,0,0-4.41-1.76c-2.62-.93-7.49-5-7-12.12A9.85,9.85,0,0,0,164.22,74c2,1.76,2.73,2,3.95,3.41s4,4.7,4.08,4.66.15-.22-.07-.4-.93-2-1.4-2.58-1.86-4.8.18-10a16.19,16.19,0,0,1,2,7.56c-.15,3.8-.33,2.91.6,6.06,0,0,.51.86.4,1"/><path class="cls-2" d="M167.92,74.49c-.13.13-.69-.68-1.11-1.43s-3.45-4-3.84-4.63a10.58,10.58,0,0,1-1.22-10.79s.25-.07.25,1.37a13.75,13.75,0,0,0,2.4,6,11.6,11.6,0,0,1,2.26,5.88s.15.43.32.47.18-.43.18-.43-.14-2.15-.14-3.62a8.74,8.74,0,0,1,2-5.42,6.84,6.84,0,0,0,1-1.57,2.57,2.57,0,0,1,.61-.86,21.86,21.86,0,0,1-1.11,8c-1.4,3.83-1.86,4.48-1.65,6.56Z"/><path class="cls-2" d="M165.55,63.17c-.15,0-.25-.51-.32-.9a21.17,21.17,0,0,0-.79-3.19,12.66,12.66,0,0,1-1.4-5.49A14,14,0,0,1,167,44.34a14.09,14.09,0,0,1-.83,2.76,7.11,7.11,0,0,0-.21,4,31.5,31.5,0,0,1,.32,3.58,29.88,29.88,0,0,1-.39,4.24s-.08.39.07.39.28-.32.28-.32a8.2,8.2,0,0,1,1.8-4.23c1.65-2,4.62-3.23,5.09-4.13,0,0-.22,3.16-3.69,6.85-3.1,3.29-2.19,1.61-3.2,4.3a7.9,7.9,0,0,0-.43,1.22c0,.22-.21.15-.21.15"/><path class="cls-2" d="M167.45,52.55a2.51,2.51,0,0,1,.47-1.39c.53-1,0-2.69.68-5.2s2-6.82,7.1-9.4a6.6,6.6,0,0,0-.76.83,20.15,20.15,0,0,0-2,4.73,17.49,17.49,0,0,1-2.75,5.49c-.65.68-.36.75-.36.75a1.19,1.19,0,0,0,.64-.58,7.72,7.72,0,0,1,3.8-2.79,35.32,35.32,0,0,0,4.91-1.47,33.85,33.85,0,0,1-6.06,4.87c-2.9,1.65-3.22,1.15-4.94,3.37,0,0-.58.79-.72.79"/><path class="cls-2" d="M174.41,43s0-.29.53-.79,1.08-2,2-3.4a11.74,11.74,0,0,1,8.53-5.92,15,15,0,0,0-1.9,1.61A33.71,33.71,0,0,1,181,37.71a21.12,21.12,0,0,1-3.44,2.55s-.36.28-.29.39.43-.11.43-.11A8.13,8.13,0,0,1,181.9,39c2.29-.07,4.69,0,5,.07,0,0-2.15,1.47-7.27,2.4s-4.16,1-5,1.47c0,0-.18.15-.32,0"/><path class="cls-2" d="M183.55,37s.1-.29.93-.54.75-1,3.26-2.36,5.13-1.94,7.78-.83a11.61,11.61,0,0,0-1.29.22,25.89,25.89,0,0,0-2.62.86,27.49,27.49,0,0,1-4.41,1.72c-1.11.21-.57.28-.57.28a1.39,1.39,0,0,0,.47.11,12.61,12.61,0,0,1,4.3.32,24.11,24.11,0,0,1,2.22,1c.65.21,1.4.36,1.51.61,0,0-1.62.14-2.58.14a14.92,14.92,0,0,1-4.74-.82,6.46,6.46,0,0,0-3.08-.72,2.06,2.06,0,0,1-1.18,0"/><path class="cls-2" d="M193.73,35.77s.11-.14.82-.28a17.81,17.81,0,0,1,2.58-.94,8.42,8.42,0,0,1,6.71,1l-1.79,0c-.33,0-3.12.5-3.77.5s-1.93-.29-2.11-.07,1.18.5,1.39.57A4.45,4.45,0,0,1,200,37.82a17.05,17.05,0,0,0,2.22,1.9,31.43,31.43,0,0,1-4.48-1.33c-.9-.5-2.44-2-2.69-2.15s-1.29-.47-1.29-.47"/><path class="cls-2" d="M202,37.24a7.93,7.93,0,0,1,3.91,1c1.65,1,3,2.4,3.12,3.23a6,6,0,0,0-1.54-1,21,21,0,0,1-2.69-1.36c-.36-.22-2.44-1.54-2.8-1.87"/><path class="cls-2" d="M212.62,89s.33-.32,1.4-1.26,1.36-2.29,2.55-4.41a19.27,19.27,0,0,1,4.59-5.73s-.43,1.61-.47,2.11a10.28,10.28,0,0,1-1.79,4.91c-1.36,1.62-1.44,2-3,2.94,0,0-.61.43-.58.58s1.08,0,1.08,0a15.35,15.35,0,0,0,1.5-.64c.36-.22,2-1,2.62-1.29a23.08,23.08,0,0,1,2.62-.94c1.43-.43,6.63-1.75,8.67-5A10.7,10.7,0,0,1,230.44,83c-.75.9-5,6.53-10.93,6.42,0,0-2.33-.18-3.55-.4a6.73,6.73,0,0,0-1.83-.18,5.54,5.54,0,0,1-1.51.15"/><path class="cls-2" d="M225.85,68.87a21.06,21.06,0,0,0-2.72,8.49c-.51,5,.36,3.52-.47,5.74,0,0-.29.57-.18.61a9.12,9.12,0,0,0,2.12-1.19c1.57-1,3.12-.68,6.49-3.9s4-9.65,4.12-10.19a3.51,3.51,0,0,0-.75,1.37,4.62,4.62,0,0,1-.9,1.65c-.11.1-3.76,4.12-4.19,4.48a33.6,33.6,0,0,0-3.05,3.73c-.47.75-1.83,2.11-2.08,2a2.16,2.16,0,0,1,.14-.57,13.33,13.33,0,0,0,1.54-3.19,14.6,14.6,0,0,0,.58-3.55c0-1-.61-4.7-.65-5.48"/><path class="cls-2" d="M228.86,73.71a1.26,1.26,0,0,1,0-.9,6,6,0,0,0-.43-3.33c-.65-1.4-2.05-5.28-1.94-7.86s.4-2.94.4-2.94.71,2.12.93,2.48,2.36,4.16,2.18,6.24-.28,2.72-.17,2.76.35-.26.39-.51a21.89,21.89,0,0,1,1.08-3.37c.68-1.68,3.44-5.41,4-7.88a12.69,12.69,0,0,1-1.51,8.31c-2.4,4-2.65,3.12-3.66,5s-1.14,2-1.29,2"/><path class="cls-2" d="M231.05,62.34c-.18,0-.07-1.68-.5-2.22s-4.12-4.91-4.91-9.29c0,0,2.33,2.37,2.72,2.62a8.55,8.55,0,0,1,2.44,3.19c.47,1.36.36,2.51.54,2.55s.18-1.51.18-1.51a39.2,39.2,0,0,1,.28-4.45c.25-1.43.9-3.83.61-5a10.5,10.5,0,0,1,1.33,5.38,14.4,14.4,0,0,1-1.58,6,11.22,11.22,0,0,0-.68,2.22c0,.33-.43.54-.43.54"/><path class="cls-2" d="M226.68,39.9s4.84,2.86,4.08,12.47c0,0,0,.43-.28,0a9.73,9.73,0,0,0-1.8-2.08c-.46-.29-4.76-2.91-6.59-6.92,0,0,.28-.07.71.32a12.08,12.08,0,0,0,2,1.18,7.07,7.07,0,0,1,2.83,1.73,9.48,9.48,0,0,1,1.83,2.83s.32.25.1-.47a6.19,6.19,0,0,0-.82-2.08,9,9,0,0,1-1.15-3.62,7.19,7.19,0,0,0-.89-3.33"/><path class="cls-2" d="M225.85,43.27a2.64,2.64,0,0,0-.36-1.54c-.46-.9-.1-1.9-1.57-4.27-.83-1.33-3.7-2.37-3.7-2.37s.83,1.15,1.37,1.8a7.11,7.11,0,0,1,.89,1.43c.18.32,1.18,1.28,1.54,1.83a1.26,1.26,0,0,1,.22.57c0,.18-.4-.1-.5-.21a9.42,9.42,0,0,0-3-1.65,29.52,29.52,0,0,1-3.8-.72,14.52,14.52,0,0,0,5.24,2.94,6,6,0,0,1,3.65,2.19"/><path class="cls-2" d="M220.19,37.35a9,9,0,0,0-7-3.33,1.6,1.6,0,0,0,.75.36c.5.1,1.4,1,1.86,1.29a12.28,12.28,0,0,0,4.38,1.68"/><path class="cls-2" d="M82.59,32.68V74.8a24.36,24.36,0,0,1-1.84,9.75,19.85,19.85,0,0,1-5.09,7.08,21.62,21.62,0,0,1-7.74,4.3,31.9,31.9,0,0,1-9.79,1.44,32,32,0,0,1-9.84-1.44,21.71,21.71,0,0,1-7.74-4.3,19.54,19.54,0,0,1-5.06-7.08,24.54,24.54,0,0,1-1.82-9.75V32.68H46.82V74.8q0,6.27,3,9.14t8.31,2.87q5.34,0,8.31-2.87t3-9.14V32.68Z"/><polygon class="cls-2" points="145.26 96.5 132.11 96.5 106.52 54.51 106.52 96.5 93.37 96.5 93.37 32.68 106.52 32.68 132.16 74.76 132.16 32.68 145.26 32.68 145.26 96.5"/><path class="cls-2" d="M43.16,137.72a9.12,9.12,0,0,1-6.74-2.59,9.3,9.3,0,0,1-2.6-6.91v-.49a11.86,11.86,0,0,1,1.09-5.18A8.19,8.19,0,0,1,38,119a8.61,8.61,0,0,1,4.58-1.23,7.77,7.77,0,0,1,6.09,2.48q2.2,2.49,2.21,7v2.09h-12a4.78,4.78,0,0,0,1.47,3,4.36,4.36,0,0,0,3.1,1.14A5.39,5.39,0,0,0,48,131.44l2.47,2.82a7.53,7.53,0,0,1-3.06,2.55,9.86,9.86,0,0,1-4.28.91m-.57-15.78a3.12,3.12,0,0,0-2.43,1,5.37,5.37,0,0,0-1.19,3h7v-.42a3.82,3.82,0,0,0-.9-2.64,3.23,3.23,0,0,0-2.47-.94"/><path class="cls-2" d="M58.6,118.16l.15,2.22a6.55,6.55,0,0,1,5.42-2.57,5.4,5.4,0,0,1,4.45,1.79,8.56,8.56,0,0,1,1.5,5.36v12.4h-5V125.08a3.38,3.38,0,0,0-.7-2.36,3.06,3.06,0,0,0-2.31-.74,3.45,3.45,0,0,0-3.19,1.84v13.54h-5v-19.2Z"/><polygon class="cls-2" points="81.19 131.1 84.68 118.16 89.94 118.16 83.59 137.37 78.79 137.37 72.44 118.16 77.69 118.16 81.19 131.1"/><path class="cls-2" d="M92.33,113.19a2.59,2.59,0,0,1,.75-1.9,3.24,3.24,0,0,1,4.12,0,2.77,2.77,0,0,1,0,3.82,3.16,3.16,0,0,1-4.09,0,2.58,2.58,0,0,1-.77-1.92m5.34,24.18h-5V118.16h5Z"/><path class="cls-2" d="M112.6,123a14.14,14.14,0,0,0-1.81-.14c-1.9,0-3.15.66-3.74,2v12.57h-5V118.16h4.75l.14,2.29a4.65,4.65,0,0,1,4.19-2.64,5.32,5.32,0,0,1,1.57.23Z"/><path class="cls-2" d="M113.83,127.59a11.58,11.58,0,0,1,1.07-5.1A8,8,0,0,1,118,119a9,9,0,0,1,4.71-1.22,8.5,8.5,0,0,1,6.22,2.37,9.65,9.65,0,0,1,2.68,6.46l0,1.32a10.18,10.18,0,0,1-2.42,7.09,9.25,9.25,0,0,1-13,0,10.34,10.34,0,0,1-2.42-7.24Zm5,.36a7.35,7.35,0,0,0,1,4.19,3.57,3.57,0,0,0,5.74,0,7.89,7.89,0,0,0,1-4.57,7.16,7.16,0,0,0-1-4.16,3.31,3.31,0,0,0-2.88-1.48,3.27,3.27,0,0,0-2.86,1.47,8.14,8.14,0,0,0-1,4.54"/><path class="cls-2" d="M139.6,118.16l.15,2.22a6.54,6.54,0,0,1,5.41-2.57,5.41,5.41,0,0,1,4.46,1.79,8.5,8.5,0,0,1,1.49,5.36v12.4h-5V125.08a3.38,3.38,0,0,0-.7-2.36,3.08,3.08,0,0,0-2.31-.74,3.45,3.45,0,0,0-3.19,1.84v13.54h-5v-19.2Z"/><path class="cls-2" d="M159.85,118.16l.16,2.15a6.57,6.57,0,0,1,5.41-2.5,5,5,0,0,1,5,2.93,6.4,6.4,0,0,1,5.65-2.93,5.55,5.55,0,0,1,4.56,1.82,8.44,8.44,0,0,1,1.5,5.47v12.26h-5V125.12a3.71,3.71,0,0,0-.63-2.39,2.74,2.74,0,0,0-2.21-.75,3.14,3.14,0,0,0-3.13,2.2l0,13.18h-5V125.14a3.69,3.69,0,0,0-.64-2.42,2.79,2.79,0,0,0-2.19-.74,3.25,3.25,0,0,0-3.1,1.81v13.57h-5v-19.2Z"/><path class="cls-2" d="M194.87,137.72a9.14,9.14,0,0,1-6.75-2.59,9.34,9.34,0,0,1-2.6-6.91v-.49a11.86,11.86,0,0,1,1.1-5.18,8.12,8.12,0,0,1,3.11-3.51,8.56,8.56,0,0,1,4.58-1.23,7.76,7.76,0,0,1,6.08,2.48q2.22,2.49,2.22,7v2.09h-12a4.78,4.78,0,0,0,1.47,3,4.39,4.39,0,0,0,3.11,1.14,5.4,5.4,0,0,0,4.54-2.15l2.47,2.82a7.67,7.67,0,0,1-3.06,2.55,9.89,9.89,0,0,1-4.28.91m-.58-15.78a3.12,3.12,0,0,0-2.43,1,5.52,5.52,0,0,0-1.19,3h7v-.42a3.87,3.87,0,0,0-.91-2.64,3.22,3.22,0,0,0-2.47-.94"/><path class="cls-2" d="M210.3,118.16l.16,2.22a6.54,6.54,0,0,1,5.41-2.57,5.37,5.37,0,0,1,4.45,1.79,8.43,8.43,0,0,1,1.5,5.36v12.4h-5V125.08a3.38,3.38,0,0,0-.69-2.36,3.1,3.1,0,0,0-2.32-.74,3.44,3.44,0,0,0-3.18,1.84v13.54h-5v-19.2Z"/><path class="cls-2" d="M231.87,113.44v4.72h3.21v3.76h-3.21v9.59a2.27,2.27,0,0,0,.4,1.52,2,2,0,0,0,1.53.47,7.34,7.34,0,0,0,1.48-.13v3.89a10.11,10.11,0,0,1-3.05.46q-5.28,0-5.39-5.45V121.92h-2.75v-3.76h2.75v-4.72Z"/><path class="cls-2" d="M50.76,162.48a11.73,11.73,0,0,1-2,7.11,6.3,6.3,0,0,1-5.33,2.67,5.79,5.79,0,0,1-4.61-2v9h-5V152.7h4.66l.17,1.88a5.87,5.87,0,0,1,4.77-2.23A6.33,6.33,0,0,1,48.83,155a12,12,0,0,1,1.93,7.25Zm-5-.37A7.72,7.72,0,0,0,44.8,158a3,3,0,0,0-2.7-1.45,3.27,3.27,0,0,0-3.25,1.84v7.87a3.33,3.33,0,0,0,3.28,1.9q3.6,0,3.6-6"/><path class="cls-2" d="M64.67,157.51a14.14,14.14,0,0,0-1.81-.14c-1.9,0-3.15.66-3.74,2v12.57h-5V152.7h4.75L59,155a4.65,4.65,0,0,1,4.19-2.64,5.32,5.32,0,0,1,1.57.23Z"/><path class="cls-2" d="M65.89,162.13A11.58,11.58,0,0,1,67,157a8,8,0,0,1,3.11-3.46,9,9,0,0,1,4.7-1.22A8.45,8.45,0,0,1,81,154.73a9.59,9.59,0,0,1,2.69,6.46l0,1.31a10.16,10.16,0,0,1-2.42,7.09,9.25,9.25,0,0,1-13,0,10.34,10.34,0,0,1-2.43-7.24Zm5,.36a7.32,7.32,0,0,0,1,4.19,3.58,3.58,0,0,0,5.74,0,8,8,0,0,0,1-4.58,7.16,7.16,0,0,0-1-4.16,3.33,3.33,0,0,0-2.89-1.48A3.25,3.25,0,0,0,71.93,158a8.14,8.14,0,0,0-1,4.54"/><path class="cls-2" d="M86.31,162.16a11.37,11.37,0,0,1,2.06-7.11,6.63,6.63,0,0,1,5.56-2.7,5.83,5.83,0,0,1,4.82,2.16L99,152.7h4.55v18.57a8.3,8.3,0,0,1-1.12,4.38,7.27,7.27,0,0,1-3.16,2.84,10.87,10.87,0,0,1-4.76,1,10.17,10.17,0,0,1-4-.85,7.09,7.09,0,0,1-3-2.17l2.22-3.12a5.83,5.83,0,0,0,4.56,2.14,4.28,4.28,0,0,0,3.12-1.09,4.15,4.15,0,0,0,1.11-3.1v-1a5.77,5.77,0,0,1-4.58,2,6.61,6.61,0,0,1-5.49-2.71,11.43,11.43,0,0,1-2.09-7.18Zm5,.39a7.13,7.13,0,0,0,1,4.09,3.24,3.24,0,0,0,2.82,1.49,3.48,3.48,0,0,0,3.29-1.76v-8.09a3.49,3.49,0,0,0-3.26-1.76A3.26,3.26,0,0,0,92.37,158a8,8,0,0,0-1,4.52"/><path class="cls-2" d="M118.17,157.51a14.28,14.28,0,0,0-1.81-.14c-1.9,0-3.15.66-3.74,2v12.57h-5V152.7h4.75l.14,2.29a4.65,4.65,0,0,1,4.19-2.64,5.32,5.32,0,0,1,1.57.23Z"/><path class="cls-2" d="M131.19,171.91a5.81,5.81,0,0,1-.51-1.73,6,6,0,0,1-4.75,2.08,6.59,6.59,0,0,1-4.58-1.63,5.31,5.31,0,0,1-1.82-4.12,5.45,5.45,0,0,1,2.22-4.68,10.75,10.75,0,0,1,6.41-1.65h2.31v-1.11a3.17,3.17,0,0,0-.67-2.12,2.57,2.57,0,0,0-2.11-.8,3,3,0,0,0-2,.62,2.13,2.13,0,0,0-.73,1.7h-5a5.19,5.19,0,0,1,1-3.09,6.63,6.63,0,0,1,2.85-2.22,10.19,10.19,0,0,1,4.14-.81,8.09,8.09,0,0,1,5.52,1.78,6.29,6.29,0,0,1,2.05,5v8.32a9.24,9.24,0,0,0,.75,4.13v.31ZM127,168.34a4.24,4.24,0,0,0,2.05-.51,3.24,3.24,0,0,0,1.39-1.35v-3.3h-1.88c-2.51,0-3.85.88-4,2.66l0,.3a2.08,2.08,0,0,0,.66,1.58,2.55,2.55,0,0,0,1.81.62"/><path class="cls-2" d="M144.31,152.7l.16,2.15a6.54,6.54,0,0,1,5.41-2.5,5,5,0,0,1,5,2.93,6.41,6.41,0,0,1,5.65-2.93,5.55,5.55,0,0,1,4.56,1.82,8.46,8.46,0,0,1,1.5,5.47v12.27h-5.05V159.66a3.78,3.78,0,0,0-.62-2.39,2.76,2.76,0,0,0-2.21-.75,3.13,3.13,0,0,0-3.13,2.2v13.19h-5V159.68a3.69,3.69,0,0,0-.65-2.42,2.79,2.79,0,0,0-2.19-.74,3.25,3.25,0,0,0-3.1,1.81v13.58h-5V152.7Z"/><path class="cls-2" d="M175.37,152.7l.16,2.15a6.55,6.55,0,0,1,5.41-2.5,5,5,0,0,1,5,2.93,6.4,6.4,0,0,1,5.65-2.93,5.58,5.58,0,0,1,4.56,1.82,8.52,8.52,0,0,1,1.49,5.47v12.27h-5V159.66a3.71,3.71,0,0,0-.63-2.39,2.75,2.75,0,0,0-2.21-.75,3.13,3.13,0,0,0-3.13,2.2l0,13.19h-5V159.68a3.69,3.69,0,0,0-.64-2.42,2.8,2.8,0,0,0-2.2-.74,3.24,3.24,0,0,0-3.09,1.81v13.58h-5V152.7Z"/><path class="cls-2" d="M210.38,172.26a9.12,9.12,0,0,1-6.74-2.59,9.33,9.33,0,0,1-2.6-6.9v-.5a11.79,11.79,0,0,1,1.1-5.17,8.14,8.14,0,0,1,3.1-3.52,8.62,8.62,0,0,1,4.59-1.23,7.76,7.76,0,0,1,6.08,2.48q2.22,2.49,2.22,7V164h-12a4.78,4.78,0,0,0,1.47,3,4.38,4.38,0,0,0,3.1,1.14,5.42,5.42,0,0,0,4.55-2.15l2.47,2.82a7.63,7.63,0,0,1-3.07,2.55,9.83,9.83,0,0,1-4.28.91m-.57-15.78a3.12,3.12,0,0,0-2.43,1,5.44,5.44,0,0,0-1.19,3h7v-.41a3.88,3.88,0,0,0-.91-2.65,3.22,3.22,0,0,0-2.47-.94"/><rect class="cls-2" x="252.8" y="32.68" width="3" height="139.49"/><path class="cls-2" d="M389.15,149.88H377.83v-2.22l5.22-5.91a13.72,13.72,0,0,0,1.67-2.33,4,4,0,0,0,.49-1.76,2.58,2.58,0,0,0-.52-1.67,2,2,0,0,0-1.57-.62,2,2,0,0,0-1.7.8,3.25,3.25,0,0,0-.6,2h-3.29l0-.07a5,5,0,0,1,1.49-3.8,5.53,5.53,0,0,1,4.13-1.56,5.77,5.77,0,0,1,4,1.32,4.66,4.66,0,0,1,1.43,3.57,5.08,5.08,0,0,1-.8,2.77,32.07,32.07,0,0,1-2.78,3.46l-2.78,3.34,0,.06h6.9Z"/><polygon class="cls-2" points="280.04 149.88 276.67 149.88 276.67 135.96 273.18 135.96 273.18 133.38 280.04 132.77 280.04 149.88"/><path class="cls-2" d="M297.05,77.36a21.42,21.42,0,0,0-5.88.94,15.19,15.19,0,0,0-4.48,2.15l1.74-14.8h24.95V55.46H278L274.37,90.9l11.19.74A7.33,7.33,0,0,1,288.32,88a9.74,9.74,0,0,1,5.59-1.35,7.65,7.65,0,0,1,6.71,3.24q2.26,3.24,2.26,8.73c0,3.66-.68,6.47-2.06,8.45s-3.58,3-6.6,3A8.87,8.87,0,0,1,288,107.8a8,8,0,0,1-2.39-6.19l-12.24.57-.09.22a14.49,14.49,0,0,0,6,12.73,24.33,24.33,0,0,0,15,4.64q10.84,0,16.11-6t5.27-15.29q0-10.09-4.86-15.69t-13.69-5.47"/><path class="cls-2" d="M290.59,147.52a2.57,2.57,0,0,0,2.05-.94,4,4,0,0,0,.79-2.63v-1.09a3.62,3.62,0,0,1-1.34,1.1,3.78,3.78,0,0,1-1.67.37,4.63,4.63,0,0,1-3.68-1.53,6,6,0,0,1-1.34-4.16,5.87,5.87,0,0,1,1.58-4.2,5.82,5.82,0,0,1,8.21.05,6.61,6.61,0,0,1,1.61,4.74v4.54a6,6,0,0,1-6.21,6.35,9.39,9.39,0,0,1-3.57-.73l.57-2.44a8.23,8.23,0,0,0,1.42.44,8.34,8.34,0,0,0,1.58.13m.4-5.67a3.07,3.07,0,0,0,1.45-.33,2.64,2.64,0,0,0,1-.91v-2a3.92,3.92,0,0,0-.64-2.42,2.11,2.11,0,0,0-1.74-.84,1.9,1.9,0,0,0-1.65.94,4.84,4.84,0,0,0,0,4.65,1.81,1.81,0,0,0,1.64.88"/><path class="cls-2" d="M310.71,135.62a21.72,21.72,0,0,0-3.89,6,16.92,16.92,0,0,0-1,6.14v2.09h-3.38v-2.09a15.6,15.6,0,0,1,1.29-6.42,23.3,23.3,0,0,1,3.76-5.75h-8.61V133h11.86Z"/><path class="cls-2" d="M324.3,149.88H313v-2.22l5.22-5.9a13.35,13.35,0,0,0,1.67-2.34,4,4,0,0,0,.49-1.75,2.58,2.58,0,0,0-.52-1.67,2,2,0,0,0-1.57-.62,2,2,0,0,0-1.7.8,3.25,3.25,0,0,0-.6,2h-3.29l0-.07a5,5,0,0,1,1.48-3.8,5.54,5.54,0,0,1,4.13-1.56,5.68,5.68,0,0,1,4,1.33,4.6,4.6,0,0,1,1.44,3.56,5,5,0,0,1-.81,2.77,30.51,30.51,0,0,1-2.77,3.46l-2.78,3.33,0,.06h6.89Z"/><rect class="cls-2" x="326.93" y="141.37" width="6.82" height="2.6"/><path class="cls-2" d="M348.24,149.88H336.93v-2.22l5.22-5.9a13.2,13.2,0,0,0,1.66-2.34,3.82,3.82,0,0,0,.49-1.75,2.53,2.53,0,0,0-.52-1.67,1.94,1.94,0,0,0-1.56-.62,2,2,0,0,0-1.7.8,3.19,3.19,0,0,0-.6,2h-3.29l0-.07a5,5,0,0,1,1.48-3.8,5.56,5.56,0,0,1,4.14-1.56,5.7,5.7,0,0,1,4,1.33,4.63,4.63,0,0,1,1.43,3.56,5,5,0,0,1-.8,2.77,31.7,31.7,0,0,1-2.77,3.46l-2.78,3.33,0,.06h6.89Z"/><path class="cls-2" d="M361.68,143.77a6.66,6.66,0,0,1-1.55,4.66,5.93,5.93,0,0,1-8.29,0,6.61,6.61,0,0,1-1.56-4.66v-4.64a6.69,6.69,0,0,1,1.55-4.66,5.89,5.89,0,0,1,8.28,0,6.6,6.6,0,0,1,1.57,4.66Zm-3.37-5a4.29,4.29,0,0,0-.62-2.51,2.11,2.11,0,0,0-3.44,0,4.46,4.46,0,0,0-.6,2.51v5.32a4.43,4.43,0,0,0,.61,2.54,2,2,0,0,0,1.74.88,2,2,0,0,0,1.71-.88,4.52,4.52,0,0,0,.6-2.54Z"/><path class="cls-2" d="M375.45,149.88H364.14v-2.22l5.22-5.9a13.2,13.2,0,0,0,1.66-2.34,3.82,3.82,0,0,0,.49-1.75A2.53,2.53,0,0,0,371,136a1.94,1.94,0,0,0-1.56-.62,2,2,0,0,0-1.7.8,3.25,3.25,0,0,0-.6,2h-3.29l0-.07a5,5,0,0,1,1.49-3.8,5.53,5.53,0,0,1,4.13-1.56,5.7,5.7,0,0,1,4,1.33,4.59,4.59,0,0,1,1.43,3.56,5,5,0,0,1-.8,2.77,31.7,31.7,0,0,1-2.77,3.46l-2.78,3.33,0,.06h6.89Z"/></svg>