<?xml version="1.0" encoding="utf-8"?>
<!-- Generator: Adobe Illustrator 25.1.0, SVG Export Plug-In . SVG Version: 6.00 Build 0)  -->
<svg version="1.1" id="Layer_1" xmlns="http://www.w3.org/2000/svg" xmlns:xlink="http://www.w3.org/1999/xlink" x="0px" y="0px"
	 viewBox="0 0 998.2 768" style="enable-background:new 0 0 998.2 768;" xml:space="preserve">
<style type="text/css">
	.st0{fill:#FFFFFF;}
</style>
<g id="wSgfi7">
	<path class="st0" d="M492.2,235.3v-98c0-31,0.1-62-0.1-93c0-4.1,1.1-5.4,5.3-5.3c17.5,0.2,35,0.2,52.5,0c3.5,0,4.4,0.9,4.4,4.4
		c-0.1,96.8-0.1,193.6,0,290.4c0,3.5-0.9,4.5-4.4,4.4c-17.8-0.2-35.7-0.2-53.5,0c-3.4,0-5-1.3-6.6-4
		c-37.3-61.4-74.7-122.7-112.1-184c-1.3-2.1-2.7-4.1-4.3-6.6c-1.2,2.7-0.8,5-0.8,7.3c0,60.5,0,121,0.1,181.4c0,4.9-1.3,6.1-6,6
		c-17-0.3-34-0.2-51,0c-3.8,0-4.7-1-4.7-4.7c0.1-96.7,0.1-193.3,0-289.9c0-3.9,1.2-4.6,4.8-4.6c17.5,0.2,35,0.2,52.5,0
		c3.3,0,5,1.2,6.7,3.9c35,57.5,70,115,105.1,172.5C483.9,221.6,487.6,227.8,492.2,235.3z"/>
	<path class="st0" d="M260.4,146.5c0,33.3,1.1,66.7-0.3,99.9c-1.8,40.5-21.3,71-59.6,85.9c-41,15.9-82.4,15-121.7-6.3
		c-26.6-14.4-40.5-38.3-45.5-67.8c-1.8-10.7-2-21.5-2-32.3c0.1-60.5,0-121-0.1-181.4c0-4.5,1.2-5.6,5.5-5.5
		c17.2,0.3,34.3,0.3,51.5,0c4.2-0.1,5.2,1.1,5.2,5.2c-0.1,63.8-0.2,127.6-0.1,191.4c-0.1,7.5,0.7,15,2.4,22.3
		c4.3,17.6,15.7,28.5,33.1,32.9c12.6,3.3,25.9,3,38.4-1c17.3-5.5,26.9-18,30.1-35.6c1.2-7,1.8-14.2,1.7-21.3
		c0-62.7,0-125.3-0.1-187.9c0-4.9,1.3-6,6.1-6c16.8,0.3,33.6,0.3,50.5,0c4.6-0.1,5.4,1.4,5.4,5.6c-0.2,34-0.1,68-0.1,102
		L260.4,146.5z"/>
	<path class="st0" d="M623.3,448.7c14.3-15.3,40.4-14.2,48.6,2.2c7-9.2,16.2-13.3,27.7-13c15.5,0.5,25.9,9.6,26.4,25.3
		c0.7,21.1,0.3,42.3,0.5,63.4c0,2.7-1,3.5-3.5,3.4c-5.3-0.2-10.7-0.2-16,0c-3.4,0.2-4.1-1.1-4.1-4.2c0.1-17,0.1-34,0-51
		c0-2-0.1-4-0.4-6c-1.6-9.4-5.5-12-16-10.9c-6.3,0.7-11.8,7.6-11.7,13.9c0.5,17.8,0.1,35.6,0.3,53.5c0,3.7-0.9,4.9-4.7,4.7
		c-5-0.3-10-0.3-15,0c-3.6,0.2-4.5-1.1-4.5-4.6c0.2-18,0-36,0.1-54c0-5.4-0.5-10.8-6.5-12.7c-6.2-1.9-12.5-1.8-17.7,3.1
		c-2.2,2.1-2.9,4.5-2.9,7.6c0.1,18.5,0,37,0.1,55.5c0,3.9-0.9,5.4-5,5.1c-5.3-0.4-10.7-0.2-16,0c-2.3,0.1-3.2-0.6-3.2-3.1
		c0.1-28.2,0.1-56.3,0-84.5c0-2.6,0.9-3,3.2-2.9c4.5,0.3,9,0.3,13.5-0.1c4.6-0.5,6.3,1.3,6.3,5.6C623.2,446,623.2,447,623.3,448.7z"
		/>
	<path class="st0" d="M553.5,610.9c8.6-9.5,18.4-12.2,29.6-11.1c7,0.7,12.9,3.4,16.8,9.3c1.9,2.9,2.8,3.2,5.2,0.5
		c9.1-10.3,20.8-11.6,33.3-8.8c9,2,14.2,8.2,16.8,16.7c1.5,4.8,2.2,9.7,2.2,14.7c-0.1,18.2-0.1,36.3,0.1,54.5c0,3.8-1,4.9-4.7,4.7
		c-5-0.3-10-0.3-15,0c-3.5,0.2-4.5-0.9-4.4-4.4c0.2-18,0.1-36,0.1-54c0-7.5-2.6-11.7-7.7-13c-8.2-2-15,0.5-18.6,6.9
		c-1.1,2.1-1.5,4.4-1.3,6.7c0,17.7-0.1,35.3,0.1,53c0,3.7-0.9,5-4.7,4.8c-4.8-0.3-9.7-0.3-14.5,0c-3.5,0.2-4.5-1-4.5-4.5
		c0.2-16.8,0.1-33.7,0.1-50.5c0-1.7-0.1-3.3-0.3-5c-0.6-4.8-1.7-9.5-6.8-11.2c-6.2-2-12.2-1.3-17.3,3.1c-2.3,2-3.5,4.9-3.4,7.9
		c0.1,18.5,0,37,0.2,55.5c0,3.7-0.8,4.9-4.7,4.6c-5.3-0.4-10.7-0.2-16-0.1c-2.4,0-3.6-0.4-3.6-3.2c0.1-27.8,0.1-55.7,0-83.5
		c0-2.8,1-3.8,3.8-3.7c4.7,0.3,9.3,0.3,14,0c4.1-0.3,5.9,1,5.3,5.2C553.2,607.7,553.3,609.3,553.5,610.9z"/>
	<path class="st0" d="M699.4,610c14-14.5,40.3-14.1,48.4,2.7c7.3-9.8,17-13.9,29.1-12.9c15.5,1.4,24.7,9.8,25.2,25.4
		c0.7,21,0.4,42,0.6,63c0,2.8-1.1,3.3-3.6,3.2c-5.5-0.2-11-0.2-16.5,0c-3.2,0.1-3.8-1-3.8-4c0.2-16.8,0.1-33.7,0.1-50.5
		c0-1.8-0.2-3.7-0.3-5.5c-0.4-5.3-1.8-9.9-7.7-11.4c-7.2-1.9-13.5,0.1-17.4,5.3c-1.6,2.1-2.4,4.8-2.3,7.4c0.1,18,0,36,0.2,54
		c0,3.8-1,5-4.7,4.7c-5-0.3-10-0.3-15,0c-3.6,0.2-4.5-1.1-4.4-4.5c0.2-17.7,0.1-35.3,0.1-53c0-5.7-0.6-11.2-6.8-13.6
		c-6.4-2.3-13.6-0.7-18.3,4.3c-2.3,2.5-2.5,5.3-2.5,8.3c0,17.8-0.1,35.7,0.1,53.5c0,3.9-1,5.3-5,5c-5.2-0.3-10.3-0.3-15.5,0
		c-2.4,0.1-3.2-0.5-3.2-3c0.1-28.2,0.1-56.3,0-84.5c0-2.6,1.1-3,3.3-3c4.7,0.1,9.3,0.3,14,0c3.7-0.2,5.6,0.7,5.3,4.7
		C698.5,606.9,699,608.2,699.4,610z"/>
	<path class="st0" d="M803.4,100.1c37.1-1,72.2,23.1,85.6,59.3c2.2,5.8,2.1,5.7-4.3,5c-18.6-2.2-37.3-4.2-55.9-6.3
		c-5.6-0.6-11.2-1.3-16.8-2c-1.7-0.2-4.1-0.1-4.5-2.1c-0.3-1.7,1.9-2.4,3.2-3.4c5.9-4.4,7.8-10.6,5-16.6s-9.5-9.4-15.7-7.7
		c-4.7,1.1-8.3,4.6-9.7,9.2c-1.5,5.2,0,9.8,3.9,13.6c0.7,0.7,1.7,1.1,2.4,1.8c1,1,3.2,1.4,2.5,3.2c-0.5,1.5-2.5,1.6-3.8,1.8
		c-11.7,1.4-23.4,2.7-35.1,4.1c-13.4,1.5-26.7,3-40.1,4.6c-2.8,0.4-4.6,1-3.1-3.1c12.5-33.6,36.2-53.9,71.5-60.6
		c1.8-0.4,3.6-0.7,5.4-0.9C797,100,800.2,100.1,803.4,100.1z"/>
	<path class="st0" d="M337.7,685c-16.2,13.7-35.6,7.8-44.1-1.4c-6.8-7.4-11-16.8-11.9-26.8c-1.4-13.5-1-26.9,5.6-39.3
		c10.4-19.4,33.9-23.9,50.6-9.6c0.3,0.2,0.6,0.3,0.9,0.3c1.7-2,0.2-5.8,2.1-6.7c2.5-1.1,5.9-0.5,8.8-0.5c12.4,0,12.4,0,12.4,12.4
		c0,24.5,0.1,49,0,73.4c-0.1,11.3-3,21.6-11.7,29.6c-15.1,14-47,13.6-61.5-0.8c-2.2-2.2-2.6-4-0.5-6.3c0.4-0.5,0.8-1,1.2-1.6
		c2.2-3.1,3.9-7.6,6.8-8.9s5.3,3.9,8.5,5.5c6.8,3.5,13.8,4.5,21.2,2.3C334.7,704,338.9,696.2,337.7,685z M338.1,646.6
		c0-5.2-0.1-10.3,0-15.5c0.1-3.9-1.6-6.6-4.7-8.7c-10.8-7.2-23.5-1.9-27,11.3c-1.9,7-1.7,14.2-1,21.3c1.1,10.6,6.9,16.9,15.4,18.2
		c10.5,1.5,17.3-4.2,17.3-14.6C338.1,654.5,338.1,650.5,338.1,646.6L338.1,646.6z"/>
	<path class="st0" d="M712.2,190.6c-0.4-6.2,0.8-12.4,1.9-18.7c0.3-1.9,0.7-3,3-2.7c18.3,2.4,36.5,4.8,54.8,7.1
		c13.1,1.6,19.6,10.5,21.9,22.1c5.4,27.6-0.1,53.4-14.9,77.2c-1.5,2.4-3.2,2.3-5.4,1.4c-31.6-11.9-51.5-34.1-59.3-67
		C712.6,203.6,711.9,197.1,712.2,190.6z"/>
	<path class="st0" d="M894.3,189.3c-0.2,40.6-24,74.3-60.6,87.5c-3.1,1.1-4.8,0.9-6.8-2.2c-12.3-19.3-16.8-40.5-16.1-63.1
		c0.1-6.1,1.2-12.2,3.2-18c3.7-10,10.5-16.1,21.4-17.4c17.9-2.1,35.8-4.5,53.8-6.9c2.4-0.3,2.7,0.6,3.1,2.5
		C893.7,177.5,894.3,183.4,894.3,189.3z"/>
	<path class="st0" d="M59.3,684.7v34.5c0,6.7,0,6.7-6.9,6.7c-4.2,0-8.4-0.3-12.5,0.1c-3.8,0.3-4.7-0.9-4.7-4.6
		c0.2-31.8,0.1-63.7,0.1-95.5c0-6.8,0.2-13.7-0.1-20.5c-0.1-3.4,0.6-4.8,4.3-4.5c3.3,0.3,6.7,0.1,10,0.1c7.6,0,7.6,0,9.1,7.7
		c11.5-10.8,24.5-12,38-5c11.2,5.8,15.2,16.8,17.3,28.3c2.1,11.9,1.9,23.9-1.8,35.5c-4,12.5-11.2,22.4-25.1,24.9
		c-9,1.6-17.5,0.5-24.8-5.7C61.5,686.1,60.7,685.7,59.3,684.7z M59.3,646.3c0,4.8,0.3,9.7-0.1,14.5c-0.4,5.8,2.8,9,7.4,11.1
		c9.6,4.4,19.1,0.3,22.3-9.7c3.1-9.4,3.4-19.5,0.8-29c-1.8-7-5.5-12.3-13.3-13.7c-9.6-1.7-17.1,4.3-17.2,13.9
		C59.3,637.6,59.3,641.9,59.3,646.3L59.3,646.3z"/>
	<path class="st0" d="M488.5,684.3c-8.6,8.2-18.9,10.3-30.3,7.7c-12.7-2.9-20.7-12-21.5-24.7s5.7-22.9,17.9-27.5
		c9.2-3.5,18.8-4.3,28.5-3.8c5,0.3,5.5-1.8,5-5.8c-1.4-10.2-6.9-14.2-17-12.3c-3.7,0.7-7,2.8-7.9,6.8c-0.8,3.4-2.6,3.9-5.7,3.7
		c-5.1-0.2-10.3-0.2-15.5,0c-2.6,0-3.5-0.8-3.1-3.5c1.2-8.3,5.7-14.3,12.6-18.8c14.3-9.4,37.8-8.7,50.2,1.3
		c8,6.5,10.1,15.3,10.1,24.9c0.1,14.8-0.5,29.6,0.4,44.5c0.2,4,1.1,7.9,2.6,11.6c0.9,2.3,0.2,3-2.1,3c-6.3,0-12.7,0-19,0
		C489,691.4,490.4,686.9,488.5,684.3z M488.1,658.7c0-1.8,0-3.7,0-5.5c0-1.5-0.3-2.8-2-2.8c-7-0.1-14-0.6-20.3,3.3
		c-4.3,2.6-5.7,6.9-5.3,11.5c0.2,4,2.9,7.4,6.7,8.5C477.9,677.3,488.1,670,488.1,658.7z"/>
	<path class="st0" d="M794.8,492.5c-7.7,0-15.3,0-23,0c-5.3,0-5.6,0.6-3.7,5.8c5.6,15.6,26,17.6,37.7,6.5c3-2.8,4.4-3.1,6.5,0.3
		c1,1.3,2.1,2.6,3.3,3.7c5.9,6.3,5.9,7.3-0.7,12.8c-20.1,16.9-63.5,13.4-71.2-22.7c-4-19.1-1.8-37.4,13.7-51.8
		c16.2-15.1,56.1-14.9,63.7,20.2c1.6,7.2,1.5,14.5,1.6,21.8c0,2.7-1,3.4-3.5,3.4C811.1,492.4,802.9,492.5,794.8,492.5z M783,476h8.5
		c8.4,0,9.5-1.8,6.2-9.7c-0.9-2.3-2.4-4.4-4.5-5.9c-4.9-3.6-11.5-4.1-16.9-1.2c-5.8,2.9-8,8.6-9.1,14.6c-0.5,2.4,1.3,2.1,2.8,2.1
		L783,476z"/>
	<path class="st0" d="M84.2,492.5c-8,0-16,0.1-24,0c-3.2-0.1-4,0.8-3,4c5.4,18.4,27.4,19.1,38,8.7c3.6-3.5,5.1-2.5,7.4,0.5
		c1.1,1.5,2.4,2.8,3.6,4.2c4.9,5.9,5,6.6-1.2,11.5c-15.3,12.2-32.5,13.2-49.7,5.5c-16-7.1-22.5-21.2-23.1-38.3
		c-0.4-13.5,1.6-26.2,10.6-36.9c11.4-13.5,26.3-16.2,42.5-12.3c15.2,3.7,22.8,15,26,29.7c1.4,6.6,0.9,13.2,1.2,19.9
		c0.1,2.9-1,3.7-3.8,3.6c-8.2-0.1-16.3,0-24.5,0L84.2,492.5z M72.8,476c4.5,0,9-0.1,13.4,0c2,0,3.2-0.5,2.9-2.8
		c-0.6-3.8-1.1-7.5-3.7-10.6c-4.5-4.9-11.5-6.6-17.7-4.3c-5.4,2-10.5,9.8-10.8,15.6c-0.1,2.4,1.2,1.9,2.4,1.9
		C63.9,476,68.3,476,72.8,476z"/>
	<path class="st0" d="M870,654.1c-7.8,0-15.7,0.2-23.5-0.1c-4.2-0.2-4.1,1.7-3.3,4.6c2.8,9.4,11.7,15.3,21.8,14.7
		c6.9-0.4,13-2.5,17.8-7.7c1.9-2,3-1.9,4.6,0.2s3.7,4.3,5.6,6.4c4.2,4.6,4.2,5.3-0.5,9.6c-10.9,9.9-23.9,12.6-38,10.7
		c-22.6-3-36.6-21.1-36.4-44.4c0.1-12.6,2.2-24.5,10.4-34.5c11.2-13.6,26-16.4,42.3-12.7c15.1,3.5,22.8,14.3,26.2,28.8
		c1.7,7,0.9,14.2,1.2,21.4c0.1,2.7-1.1,3-3.3,3C886.7,654,878.4,654.1,870,654.1z M859.2,637.8h12.9c1.5,0,3.2,0.2,3-2.2
		c-0.4-5.4-1.5-10.5-6.4-13.8c-5.1-3.4-10.5-3.9-16-1.2c-5.8,2.9-8.3,8.2-9.6,14.2c-0.5,2.2,0.5,3,2.7,2.9
		C850.3,637.8,854.8,637.8,859.2,637.8L859.2,637.8z"/>
	<path class="st0" d="M269.3,646.2c0.2,11.4-2,21.6-8.3,30.7c-5.9,8.7-15.2,14.3-25.6,15.6c-17.6,2.5-35-1.8-43.8-20
		c-9.5-19.6-9.2-39.6,3.6-58c8-11.4,20.1-14.9,33.6-14.9C253.1,599.7,270.1,618.5,269.3,646.2z M245.3,646.3
		c0.5-5.3-0.2-10.6-2.1-15.5c-2.9-7.4-9.1-11.9-16.2-11.7c-7.4,0.2-13.1,4.6-15.5,12.5c-3,9.4-3.1,19.5-0.2,28.9
		c2.6,8.5,8.3,13,16.1,13c7.5,0.1,13.1-4.2,16-12.4C245,656.3,245.6,651.3,245.3,646.3L245.3,646.3z"/>
	<path class="st0" d="M406.7,484.5c0.2-12.5,2.5-24.4,11.4-34c11.9-12.9,27-15,43-11s24.8,15.4,28,31.1c2.4,11.7,2.2,23.4-1.9,34.8
		c-5.2,14.4-18.3,24.4-33.6,25.7C423.4,533.5,406.5,513.5,406.7,484.5z M430.2,485.4c0.7,6.2,1,11.9,3.7,17.3
		c2.6,5.8,8.4,9.4,14.8,9.1c6.6,0,12-3,14.6-9.4c4.8-11.9,4.9-23.9-0.1-35.7c-2.7-6.2-8.1-9.2-14.7-9.2s-11.6,3.2-14.6,9.4
		S431,479.4,430.2,485.4L430.2,485.4z"/>
	<path class="st0" d="M859.3,449.4c9.4-10.5,20.4-13.2,32.5-10.8c12.3,2.4,19.5,11.7,20.2,25.4c1.1,20.8,0.2,41.6,0.5,62.5
		c0,3-1.3,3.6-3.9,3.5c-5-0.2-10-0.3-15,0c-3.7,0.2-4.8-0.8-4.8-4.6c0.2-16.3,0.1-32.7,0.1-49c0-1.7,0-3.3-0.1-5
		c-0.6-5.6-1.3-11.5-7.9-12.9s-13.3-1.3-18.5,4.4c-1.7,1.8-2.5,4.3-2.4,6.7c0.1,18.7,0,37.3,0.1,56c0,3.5-0.8,4.6-4.4,4.4
		c-5.3-0.3-10.7-0.2-16,0c-2.7,0.1-3.8-0.5-3.8-3.5c0.1-28,0.1-56,0-84c0-2.4,0.7-3.2,3.1-3.1c4.7,0.3,9.3,0.3,14,0
		c4.5-0.3,6.7,1,6,5.8C859.1,446.6,859.2,448,859.3,449.4z"/>
	<path class="st0" d="M528.2,449.5c10.4-11.5,22.4-13.6,35.5-10.3c10.2,2.6,17.2,12.5,17.5,25.2c0.5,20.6,0.3,41.3,0.5,62
		c0,2.9-1,3.8-3.8,3.7c-5.3-0.2-10.7-0.2-16,0c-3.4,0.2-4.2-1.2-4.1-4.3c0.1-17.1,0.1-34.3,0-51.5c0-2.5-0.3-5-0.6-7.4
		c-0.5-4-2.8-6.6-6.5-8.1c-7.2-2.7-15.4-0.5-20.2,5.5c-1.4,1.8-1.2,3.7-1.2,5.7c0,18.3-0.1,36.6,0.1,55c0,4.3-1.3,5.5-5.4,5.2
		c-5-0.3-10-0.2-15,0c-2.6,0.1-3.8-0.4-3.8-3.5c0.1-27.8,0.1-55.6,0-83.5c0-3,1.1-3.6,3.8-3.5c4.5,0.3,9,0.3,13.5-0.1
		c4.5-0.4,6.2,1.2,5.8,5.5C528.1,446.1,528.2,447.2,528.2,449.5z"/>
	<path class="st0" d="M149.6,449c9.2-10.3,20.2-12.7,32.6-10.3c11.4,2.2,16.6,10,19,20.5c1.3,5.9,1.1,11.9,1.1,17.9
		c0,16.3-0.1,32.6,0.1,48.9c0,2.9-0.6,4.2-3.8,4c-5.3-0.3-10.7-0.3-16,0c-3.6,0.2-4.5-1.2-4.4-4.6c0.1-18.1,0.1-36.3,0.1-54.4
		c0-8.8-3.8-13-12-13c-10.9-0.1-16.6,4.3-16.6,13.1c-0.1,18-0.1,36,0.1,53.9c0.1,4-1.1,5.2-5,5c-5.1-0.3-10.3-0.2-15.5,0
		c-2.4,0.1-3.1-0.8-3.1-3.1c0.1-28,0.1-56,0-83.9c0-2.6,0.8-3.5,3.4-3.4c4.3,0.2,8.7,0.2,13,0c4.2-0.3,6.7,0.6,6.4,5.4
		C149,446.4,149.3,447.7,149.6,449z"/>
	<path class="st0" d="M254.6,497.7c2.6-9.3,5.1-18.7,7.7-28c2.4-8.9,4.8-17.9,7.1-26.9c0.6-2.5,1.9-3.5,4.6-3.4
		c5.7,0.2,11.3,0.3,17,0c3.8-0.2,4.3,0.9,3.2,4.3c-8.4,25.1-16.7,50.2-25,75.3c-3.6,11-3.7,11-15.4,11c-10.7,0-10.8,0-14.2-10
		c-8.4-25.4-16.7-50.9-25.3-76.2c-1.4-4-0.2-4.5,3.3-4.3c5.2,0.3,10.3,0.3,15.5,0c3.9-0.3,5.4,1.2,6.4,4.9
		c4.6,17.8,9.5,35.5,14.2,53.2L254.6,497.7z"/>
	<path class="st0" d="M936,485.5c0-7.8-0.2-15.7,0.1-23.5c0.1-3.5-0.9-4.6-4.5-4.6c-8.6,0.1-8.6-0.1-8.6-8.6c0-9,0-9.2,8.8-9.3
		c3.3,0,4.4-1.1,4.2-4.3c-0.2-4.6,0.1-9.3-0.1-14c-0.2-3.2,1.1-4,4-3.8c5.3,0.2,10.7,0.2,16,0c2.8-0.1,3.9,0.8,3.8,3.7
		c-0.2,5,0.1,10,0,15c-0.1,2.6,1,3.3,3.5,3.5c3.7,0.3,9.4-2,10.7,1.1c1.8,4.2,0.6,9.8,0.7,14.8c0,1.5-1,2-2.3,2
		c-0.8,0-1.7,0.1-2.5,0.1c-10.2,0.3-10.2,0.3-10.2,10.3c0,11.3-0.1,22.6,0,34c0.1,7.7,1.9,9.3,9.5,9.3c6.4,0,6.4,0,6.4,6.6
		c-0.1,1.7-0.1,3.3,0,5c1.1,5.6-1.5,8-6.7,8.2c-9.1,0.3-18.4,1.7-26-5.4c-4.4-4.2-6.9-10-6.8-16C935.8,501.5,936,493.5,936,485.5
		L936,485.5z"/>
	<path class="st0" d="M916.3,314.2c-7.3,7.1-16.7,9.1-26.2,10.8c-19.9,3.6-38.5-1.1-56.7-8.6c-11.1-4.6-17.8-5.6-27.7-5.1
		c15.6,6.9,29,14.8,39.1,27.2c-3.1,3.7-5.6,3.9-9-0.1c-8-9.4-17.1-17.7-28.4-23.1c-4.7-2.5-10.4-2.5-15.1,0.1
		c-11.7,5.8-21.2,14.2-29.5,24.1c-1.3,1.6-2.2,3.1-4.8,1.6c-2.9-1.7-3.3-3-0.8-5.5c8.8-9.1,19.3-16.4,30.8-21.6
		c1.2-0.6,2.5-1,3.7-1.6c0.3-0.1,0.4-0.5,0.9-1c-6.5-1.2-12.5,0.5-18.4,2.3c-11.1,3.4-21.5,8.8-33,10.8c-19.6,3.4-38.7,2.6-56.2-8.5
		c-1-0.7-1.8-1.5-2.5-2.6c4.9,1.1,9.6,2.8,14.7,2.6c10.4-0.3,20.3-3.1,30.1-6.2c23-7.4,46-7.5,69.2-1.1c2.2,0.6,4.6,0.6,6.9,0
		c11.8-3.3,24.1-4.9,36.4-4.6c13.4,0.2,26.2,3.7,39,7.5c10.3,3,20.8,6.1,31.8,3.6c1.8-0.4,3.5-1,5.2-1.5
		C915.9,313.8,916.1,314,916.3,314.2z"/>
	<path class="st0" d="M374.5,449.5c6-8.5,12.9-12.4,22.3-11.6c3.3,0.3,4.8,1.2,4.6,4.8c-0.3,5-0.3,10-0.1,15
		c0.1,3.3-0.7,4.9-4.4,4.4c-2.8-0.3-5.7-0.3-8.5,0c-8.4,0.5-13.3,5.7-13.3,14.1c0,16.5-0.1,32.9,0.1,49.4c0,3.3-0.5,4.8-4.3,4.5
		c-5.3-0.3-10.6-0.2-16,0c-2.7,0.1-3.9-0.6-3.9-3.6c0.1-27.8,0.1-55.6,0-83.4c0-2.6,0.8-3.5,3.4-3.5c4.8,0.2,9.7,0.2,14.5,0
		c4.1-0.3,5.9,1,5.2,5.2C374.1,445.8,374.4,447,374.5,449.5z"/>
	<path class="st0" d="M153.3,611.5c6.2-9.4,13.8-13,23.6-11.7c2.5,0.3,3.5,1.1,3.4,3.7c-0.2,5.8-0.2,11.7,0,17.5
		c0.1,2.5-0.9,3.3-3.2,2.9c-1.5-0.3-2.9-0.5-4.4-0.6c-12.5-0.7-18.4,4.8-18.4,17.2c0,15.5-0.1,31,0.1,46.4c0,3.5-1,4.7-4.5,4.5
		c-5.3-0.2-10.6-0.2-16,0c-2.9,0.1-3.6-0.9-3.6-3.7c0.1-27.8,0.1-55.6,0-83.4c0-2.6,0.6-3.5,3.3-3.4c4.5,0.3,9,0.3,13.5,0
		c4.7-0.4,6.9,1.1,6.2,6C153.2,608.5,153.2,610,153.3,611.5z"/>
	<path class="st0" d="M404.5,610c1.7-2,3.5-3.9,5.4-5.8c5.3-4.6,11.6-5,18.3-4.3c1.9,0.2,2.5,1.3,2.5,3c-0.1,6.2-0.2,12.3-0.2,18.5
		c0,3-1.8,2.6-3.7,2.2c-5.3-1.1-10.7-0.4-15.5,2c-4.5,2.2-7,5.6-6.9,11c0.2,16.8,0,33.6,0.1,50.4c0,3.5-0.8,4.6-4.4,4.3
		c-4.8-0.3-9.6-0.3-14.5,0c-3.7,0.2-4.8-0.9-4.8-4.7c0.2-22.5,0.1-44.9,0.1-67.4c0-5,0.1-10,0-15c-0.1-2.6,0.9-3.5,3.5-3.4
		c4.8,0.3,9.7,0.2,14.5-0.1c3.9-0.3,5,1.1,4.7,4.7C403.3,607,403.1,608.6,404.5,610z"/>
	<path class="st0" d="M331.4,485c0,13.5-0.1,27,0.1,40.5c0,3.3-0.6,4.8-4.3,4.6c-5.3-0.3-10.6-0.2-16,0c-2.6,0.1-4-0.5-3.9-3.6
		c0.1-27.8,0.1-55.6,0-83.4c0-2.6,0.8-3.5,3.4-3.4c5.7,0.1,11.3,0.2,17,0c3.2-0.1,3.9,1.1,3.8,4C331.3,457.4,331.4,471.2,331.4,485z
		"/>
	<path class="st0" d="M644.2,267c4.2,3.4,8.4,6.9,12.7,10.3c6.3,5.1,14,8.3,22.1,9c13.2,1.4,26.1,5,38,10.9c0.2,0.6,0.9,0.9,1.5,0.7
		c0.2-0.1,0.3-0.2,0.5-0.3l-1.4-1.1c-13.8-7.2-19.6-19.6-22.3-34c-1-5.5-1.4-11-2.2-17.9c10.1,12.2,20.3,22.6,25.4,36.7
		c2.9,8,7,15.4,15.3,20.4c-16.9-0.1-32.5,5.3-48.3,1.3c-19.8-5-33.9-16.6-41.5-35.8L644.2,267z"/>
	<path class="st0" d="M677.4,264.9c-2.8-6.8-7.1-13-7.8-20.8c-1.2-11.7,0.4-23.4,4.8-34.3c7.2,13,11.1,26.1,9.7,40.1
		c-0.8,8.4,0.4,16.9,3.4,24.8c0.4,1.2,1.7,2.6,0.6,3.7c-1.4,1.4-2.7-0.4-3.9-0.9c-6.2-2.4-12.2-5.1-18.4-7.5
		c-23-8.8-37.3-31.8-34.9-56.3c4,13.3,14.4,20.9,24.6,28.9c8.3,6.5,13.7,15.8,21.2,23.1l1.3,1.9c0.7-0.8,0.6-2-0.2-2.7
		C677.5,264.9,677.4,264.9,677.4,264.9z"/>
	<path class="st0" d="M959.2,261.7c-8.9,27.3-39.3,46.2-66.5,42.7c-7.3-1-14.7-2.8-22.2-1.1c-0.1-0.6-0.2-1.1-0.1-1.2
		c7.1-5.6,11.3-13.2,15-21.3c5.5-11.8,13-22.3,23.1-30.4c-0.9,19.8-7.9,36.4-25.8,47.7c3.9,0.7,4.2,0.9,6.2-0.2
		c14.5-8.2,30.5-12.5,46-18.2C944.6,276.1,953.1,269.9,959.2,261.7z"/>
	<path class="st0" d="M974.5,207.3c-2.5,29-13.9,51.4-40.5,61.8c-6.2,2.4-11.6,6.1-17.5,9.1c2.3-19.5,0.4-39.1,8.7-57.3
		c1.7-3.7,3.4-7.5,5.7-12.5c4.8,21.3,6,40.8-6.5,59c8.1-4.4,11.4-12.9,17.3-19c6.2-6.5,12-13.4,18.4-19.7
		C966.3,222.8,971.2,215.4,974.5,207.3z"/>
	<path class="st0" d="M632.1,157c0.4,13.9,5.9,25.5,13.7,36.4c4.8,6.7,7.1,14.5,8.4,22.6c0.2,1.1-0.3,2.4,2.6,3.1
		c-4-20.7,1.2-38.6,16.3-53.1c0.5,7.6,0.1,15.2-1.3,22.7c-1.5,7.3-3.6,14.5-6.5,21.3c-3.2,8-6.1,16-4.7,26.2
		c-5.1-5.4-7.8-10.7-11.7-15.1c-4.9-5.4-9.9-10.7-13.9-16.9c-8.8-13.7-10.4-28.4-5.4-43.8C629.9,159.3,629.8,157.7,632.1,157z"/>
	<path class="st0" d="M654.1,94c1.9,3.3,0.7,5,0,6.5c-3.8,8.7-4.8,18.4-3,27.7c1.7,9.5,1.7,19.2,0.2,28.8c-0.2,1.9-0.1,3.8,0.3,5.6
		c2.2-19.9,17.9-28.3,32-37.8c0.3,3-0.5,5.9-3,11.5c-4.2,9.1-10.3,17.2-17.8,23.7c-5.3,4.8-9.2,10.2-11.1,17.2
		c-0.5,1.6-0.8,3.5-2.7,5c-0.9-1.5-1.6-3.2-1.8-4.9c-1-5.9-2.6-11.6-4.9-17.1c-10-23.1-4.7-43.9,10.3-63.1
		C653.1,96.2,653.6,95.1,654.1,94z"/>
	<path class="st0" d="M674.6,106.4c9.9-10.9,24.3-10.8,36.9-15.3c-9,9.4-18.7,18.2-30.4,23.9c-8.5,4.2-17,8.2-22.1,17.3
		c-0.6-0.8-1-1.1-0.9-1.2c5.1-11.6,2.2-24.5,6.8-36.3c5.5-14.1,13.2-26,26-34.2c0.7-0.5,1.4-0.9,2.2-1.2c0.2-0.1,0.6,0,1.6,0
		c-10,14.4-11.3,32.2-20.8,46.5c-0.9,1.2-2.4,2.1-2.6,4.8L674.6,106.4z"/>
	<path class="st0" d="M935.8,160.7c6.4,18.2,19.8,32.9,14.5,53.2c3.9-20,18.3-34.5,25.2-53c2.7,10.7,0.5,24.9-5.8,36.3
		c-2.4,4.3-4.8,8.9-8.1,12.4c-6,6.7-11.2,14-15.3,22c-0.7-0.8-1.1-1.1-1-1.3c2.2-12-4-22.3-7.4-33.1
		C934.2,185.7,932.8,174,935.8,160.7z"/>
	<path class="st0" d="M690.2,87.7c8.8-12.3,13.8-26.4,25.5-35.9c7.6-6.2,16.8-10.1,26.5-11.4c-12.5,9.7-17.9,24.1-31.1,31.5
		c12.2-5,24.7-2.4,38.4-2.9C731,81.1,709.4,79.2,690.2,87.7z"/>
	<path class="st0" d="M956,178.2c-0.2-7.1-4.3-11.9-8.1-17c-8.1-10.9-14.9-22.6-17.9-37.3c10.5,11.8,25.6,18.9,26.9,36.5
		c0.3-15.8,3.4-31.2,5.9-47.1c5.3,9.2,6,19,5.3,29C967.2,155.2,960,166,956,178.2z"/>
	<path class="st0" d="M947.7,113.6c-0.3-2.1-1-4.2-2.2-6c-4-6.4-6.2-13.6-6.5-21.1c-0.4-4.3-1.5-8.4-3.2-12.3
		c15.4,9.2,22,40.8,18,58.5c-8.5-12.8-23.5-18.2-32.2-30.4c-2.9-4-5.9-7.9-8.3-13.8c12.5,8.5,27.3,11.6,33.7,25.8
		c0.2,0.5,0.5,1.1,0.7,1.6C948.4,115.1,948.1,114.3,947.7,113.6z"/>
	<path class="st0" d="M789.6,42.5c-7.4,1.1-14.5,3.3-21.3,6.5c-6.3,2.9-12.7,5.5-19.5,7.8c13.9-1.9,26,3,38.9,9.7
		c-11.1,1.2-21,1.2-30.5-1.8c-7.7-2.5-15.1-5.8-23.5-4.8c10.5-7.5,19.8-16.7,33-19.3C774.1,39.2,781.3,38.9,789.6,42.5z"/>
	<path class="st0" d="M319.4,404c8.4,0,13.5,4.7,13.4,12.6c0,7.5-5.3,12.4-13.2,12.4c-8.2,0-13.3-4.9-13.3-12.7S311.1,404,319.4,404
		z"/>
	<path class="st0" d="M819.9,72.4c-10.9-2.8-21-4.2-28.3-12.3c-2.7-2.9-6.3-4.6-10.2-6.1c19.2-9.1,36.8-9.6,46.6-0.9
		c-11.9-1.5-22.8,3.8-34.4,1.7C804.5,57,811.8,64.2,819.9,72.4z"/>
	<path class="st0" d="M891.1,66.1c5.7-0.3,11.1,1.2,16.6,2.2s9.9,5.1,15.2,7.4c-5.8-8-11.7-16-17.6-24.1c13.4,1.5,25,17.7,25.8,37.1
		c-6.5-7.2-15.1-8.7-23-11.8c-6.4-2.3-12.1-6-16.9-10.9L891.1,66.1z"/>
	<path class="st0" d="M851.7,79.5c-10.5-5.4-21.5-10.2-31-17.8C831.3,59,850.4,70.2,851.7,79.5z"/>
	<path class="st0" d="M872.5,45.7c13.2,0.1,23.3,5.3,32.2,15.3C891.6,59.8,882.7,52.1,872.5,45.7z"/>
	<path class="st0" d="M915.7,313.6c0.4-0.1,1.1-0.4,1.2-0.3c0.4,0.6-0.2,0.7-0.6,0.9C916.1,314,915.9,313.8,915.7,313.6z"/>
	<path class="st0" d="M891.2,66l-0.7-0.4l0.6-0.2c0,0.2,0,0.5,0,0.7L891.2,66z"/>
	<polygon class="st0" points="695.5,58.7 695.4,58.5 695.7,58.5 	"/>
	<path class="st0" d="M644,267.2c-0.5-0.1-0.8-0.5-0.5-0.8s0.6,0.2,0.7,0.6L644,267.2z"/>
	<path class="st0" d="M717.6,296.5l1.4,1.1c-0.4,0.5-1.2,0.5-1.6,0c-0.1-0.1-0.2-0.3-0.3-0.5C717.2,297,717.4,296.8,717.6,296.5z"/>
	<path class="st0" d="M677.4,264.9c0.9,0.6,1.1,1.8,0.5,2.6c0,0-0.1,0.1-0.1,0.1l-1.3-1.9L677.4,264.9z"/>
	<path class="st0" d="M674.6,106.4l-3.3,4.2c0.2-2.7,1.7-3.6,2.6-4.8L674.6,106.4z"/>
	<path class="st0" d="M947.7,113.6c0.4,0.7,0.7,1.5,0,2.2c-0.2-0.5-0.5-1.1-0.7-1.6C947.2,114,947.4,113.8,947.7,113.6z"/>
</g>
</svg>
