<?xml version="1.0" encoding="utf-8"?>
<!-- Generator: Adobe Illustrator 23.1.1, SVG Export Plug-In . SVG Version: 6.00 Build 0)  -->
<svg version="1.1" id="Layer_1" xmlns="http://www.w3.org/2000/svg" xmlns:xlink="http://www.w3.org/1999/xlink" x="0px" y="0px"
	 viewBox="0 0 283.46 283.46" style="enable-background:new 0 0 283.46 283.46;" xml:space="preserve">
<style type="text/css">
	.st0{fill:#FFFFFF;}
</style>
<g>
	<g>
		<g>
			<g>
				<g>
					<g>
						<path class="st0" d="M205.37,116.34c-8.97-2.71-15.5-11.04-15.5-20.89c0-1.78,0.21-3.51,0.61-5.16l14.17,1.82
							c0,0,5.44,0.24,5.24,9.87C209.7,111.32,205.37,116.34,205.37,116.34z"/>
						<path class="st0" d="M218.04,116.34c8.97-2.71,15.5-11.04,15.5-20.89c0-1.78-0.21-3.51-0.61-5.16l-14.17,1.82
							c0,0-5.44,0.24-5.24,9.87C213.71,111.32,218.04,116.34,218.04,116.34z"/>
						<path class="st0" d="M211.7,79.83c1.82,0,3.3,1.48,3.3,3.3c0,1.42-0.98,2.48-2.16,3.11c-0.14,0.08-0.28,0.14-0.25,0.37
							c0.03,0.23,0.71,0.36,1,0.43l19.05,2.21c-2.67-9.03-11.03-15.62-20.93-15.62h-0.03c-9.9,0-18.25,6.59-20.93,15.62l19.05-2.21
							c0.29-0.07,0.97-0.19,1-0.43c0.03-0.22-0.11-0.29-0.25-0.37c-1.18-0.63-2.16-1.69-2.16-3.11
							C208.4,81.31,209.88,79.83,211.7,79.83L211.7,79.83z"/>
					</g>
					<g>
						<path class="st0" d="M220.41,131.79l1.29-0.81c0,0-6.12-8.3-19.82-8.3c-7.01,0-10.64,2.82-15.55,2.82c0,0-2.01,0.24-3.95-0.97
							c0,0,2.34,3.38,10.8,3.38c6.2,0,10.64-3.63,14.99-3.63C214.12,124.3,218.55,129.61,220.41,131.79z"/>
					</g>
					<g>
						<path class="st0" d="M201.39,131.79l-1.29-0.81c0,0,6.12-8.3,19.82-8.3c7.01,0,10.64,2.82,15.55,2.82c0,0,2.01,0.24,3.95-0.97
							c0,0-2.34,3.38-10.8,3.38c-6.2,0-10.64-3.63-14.99-3.63C207.68,124.3,203.24,129.61,201.39,131.79z"/>
					</g>
					<path class="st0" d="M194.86,121.96c-0.24,0.64-2.86-0.12-4.63,0.4c-1.98,0.59-12.45,1.85-17.04-9.02c0,0,4.35,4.67,7.74,5
						c3.38,0.32,7.09,1.13,10.23,2.9l0.73,0.16c0,0-0.1-0.32-0.4-0.48c-0.41-0.22-3.67-1.28-5.24-6.45
						c-0.81-2.66-0.64-4.59-0.97-5.96c0,0,3.55,3.95,5,6.45C191.72,117.45,191.88,120.27,194.86,121.96z"/>
					<path class="st0" d="M184.19,116.48c-0.26,0.26-0.93-0.16-1.17-0.28c-0.24-0.12-1.98-0.92-4.96-1.97
						c-2.94-1.05-8.42-5.68-7.9-13.62c0,0,0.77,2.98,3.02,4.96c2.26,1.97,3.06,2.22,4.43,3.83c1.37,1.61,4.47,5.28,4.59,5.24
						c0.12-0.04,0.16-0.24-0.08-0.44c-0.24-0.2-1.05-2.22-1.57-2.9c-0.52-0.68-2.09-5.4,0.2-11.2c0,0,2.46,4.23,2.3,8.5
						c-0.16,4.27-0.36,3.26,0.68,6.81C183.75,115.39,184.31,116.36,184.19,116.48z"/>
					<path class="st0" d="M177.34,106.13c-0.15,0.15-0.77-0.77-1.25-1.61c-0.48-0.85-3.87-4.47-4.31-5.2
						c-0.44-0.73-4.23-5.32-1.37-12.13c0,0,0.28-0.08,0.28,1.53c0,1.61,1.49,5.2,2.7,6.73c1.21,1.53,2.3,3.99,2.54,6.61
						c0,0,0.16,0.48,0.36,0.52s0.2-0.48,0.2-0.48s-0.16-2.42-0.16-4.07c0-1.65,0.73-4.47,2.3-6.08c0,0,0.73-0.81,1.17-1.77
						c0,0,0.28-0.64,0.68-0.97c0,0,0.32,4.63-1.25,8.94c-1.57,4.31-2.09,5.04-1.85,7.37C177.38,105.52,177.42,106.05,177.34,106.13z
						"/>
					<path class="st0" d="M174.68,93.4c-0.16,0-0.28-0.56-0.36-1.01c-0.08-0.44-0.56-3.02-0.89-3.59c-0.32-0.56-1.53-3.14-1.57-6.16
						c-0.04-3.02,1.33-7.13,4.39-10.39c0,0-0.12,0.97-0.93,3.1c-0.81,2.14-0.32,4.15-0.24,4.51c0.08,0.36,0.36,2.86,0.36,4.03
						c0,0.93-0.24,4.11-0.44,4.75c0,0-0.08,0.44,0.08,0.44c0.16,0,0.32-0.36,0.32-0.36s0.16-2.5,2.01-4.75
						c1.85-2.26,5.2-3.63,5.72-4.63c0,0-0.24,3.55-4.15,7.69c-3.48,3.7-2.46,1.81-3.59,4.83c0,0-0.48,1.13-0.48,1.37
						C174.92,93.48,174.68,93.4,174.68,93.4z"/>
					<path class="st0" d="M176.82,81.47c0,0-0.08-0.48,0.52-1.57c0.6-1.09-0.04-3.02,0.77-5.84c0.81-2.82,2.3-7.65,7.98-10.55
						c0,0-0.56,0.52-0.85,0.93c-0.28,0.4-1.81,3.3-2.26,5.32c-0.44,2.01-2.38,5.4-3.1,6.16c-0.73,0.77-0.4,0.85-0.4,0.85
						s0.36-0.08,0.73-0.64c0.36-0.56,2.22-2.66,4.27-3.14c2.05-0.48,5.32-1.45,5.52-1.65c0,0-3.55,3.63-6.81,5.48
						c-3.26,1.85-3.63,1.29-5.56,3.79C177.62,80.59,176.98,81.47,176.82,81.47z"/>
					<path class="st0" d="M184.63,70.72c0,0,0-0.32,0.6-0.89c0.6-0.56,1.21-2.26,2.26-3.83c1.05-1.57,3.42-5.68,9.59-6.65
						c0,0-1.85,1.37-2.14,1.81c-0.28,0.44-2.09,2.82-2.9,3.63c-0.81,0.81-3.1,2.5-3.87,2.86c0,0-0.4,0.32-0.32,0.44
						c0.08,0.12,0.48-0.12,0.48-0.12s2.14-1.65,4.71-1.73c2.58-0.08,5.28,0.04,5.68,0.08c0,0-2.42,1.65-8.18,2.7
						c-5.76,1.05-4.67,1.09-5.56,1.65C184.99,70.68,184.79,70.84,184.63,70.72z"/>
					<path class="st0" d="M194.9,64.03c0,0,0.12-0.32,1.05-0.6c0.93-0.28,0.85-1.17,3.67-2.66c2.82-1.49,5.76-2.18,8.74-0.93
						c0,0-1.25,0.16-1.45,0.24c-0.2,0.08-2.34,0.64-2.94,0.97c-0.6,0.32-3.71,1.69-4.96,1.93c-1.25,0.24-0.64,0.32-0.64,0.32
						s0.28,0.12,0.52,0.12c0.24,0,3.02-0.28,4.83,0.36c1.81,0.64,1.77,0.89,2.5,1.13c0.73,0.24,1.57,0.4,1.69,0.68
						c0,0-1.81,0.16-2.9,0.16c-1.09,0-3.95-0.28-5.32-0.93c-1.37-0.64-2.94-0.93-3.46-0.81C195.71,64.15,195.07,64.15,194.9,64.03z"
						/>
					<path class="st0" d="M206.35,62.62c0,0,0.12-0.16,0.93-0.32s1.01-0.64,2.9-1.05s4.83-0.77,7.53,1.09c0,0-1.65-0.04-2.01-0.04
						c-0.36,0-3.5,0.56-4.23,0.56c-0.73,0-2.18-0.32-2.38-0.08c-0.2,0.24,1.33,0.56,1.57,0.64c0.24,0.08,1.33,0.16,2.7,1.49
						c1.37,1.33,2.34,2.05,2.5,2.14c0,0-4.03-0.93-5.04-1.49c-1.01-0.56-2.74-2.3-3.02-2.42C207.51,63.02,206.35,62.62,206.35,62.62
						z"/>
					<path class="st0" d="M215.65,64.27c0,0,2.54-0.08,4.39,1.09s3.34,2.7,3.5,3.63c0,0-1.05-0.89-1.73-1.09
						c-0.69-0.2-2.62-1.29-3.02-1.53S216.06,64.63,215.65,64.27z"/>
					<path class="st0" d="M227.58,122.4c0,0,0.36-0.36,1.57-1.41c1.21-1.05,1.53-2.58,2.86-4.96c1.33-2.38,2.46-4.03,5.16-6.45
						c0,0-0.48,1.81-0.52,2.38c-0.04,0.56-0.48,3.71-2.01,5.52c-1.53,1.81-1.61,2.22-3.38,3.3c0,0-0.69,0.48-0.64,0.64
						c0.04,0.16,1.21-0.04,1.21-0.04s1.29-0.48,1.69-0.73c0.4-0.24,2.22-1.17,2.94-1.45c0.73-0.28,1.33-0.56,2.94-1.05
						c1.61-0.48,7.45-1.97,9.75-5.68c0,0-0.68,2.18-1.53,3.18c-0.85,1.01-5.64,7.33-12.29,7.21c0,0-2.62-0.2-3.99-0.44
						c-1.37-0.24-1.85-0.24-2.05-0.2C229.07,122.28,227.78,122.52,227.58,122.4z"/>
					<path class="st0" d="M242.44,99.8c0,0-2.5,3.91-3.06,9.55c-0.56,5.64,0.4,3.95-0.52,6.45c0,0-0.32,0.64-0.2,0.68
						c0.12,0.04,0.6-0.24,2.38-1.33c1.77-1.09,3.51-0.77,7.29-4.39c3.79-3.63,4.55-10.84,4.63-11.44c0,0-0.56,0.56-0.85,1.53
						c-0.28,0.97-0.89,1.73-1.01,1.85c-0.12,0.12-4.23,4.63-4.71,5.04c-0.48,0.4-2.9,3.34-3.42,4.19c-0.52,0.85-2.05,2.38-2.34,2.26
						c0,0,0.04-0.36,0.16-0.64c0.12-0.28,1.25-1.81,1.73-3.59c0.48-1.77,0.6-2.86,0.64-3.99
						C243.21,104.84,242.48,100.69,242.44,99.8z"/>
					<path class="st0" d="M245.83,105.24c0,0-0.25-0.59-0.04-1.01c0.12-0.24,0.24-2.18-0.48-3.75c-0.72-1.57-2.3-5.92-2.18-8.82
						c0.12-2.9,0.44-3.3,0.44-3.3s0.81,2.38,1.05,2.78c0.24,0.4,2.66,4.67,2.46,7.01s-0.32,3.06-0.2,3.1
						c0.12,0.04,0.4-0.28,0.44-0.56c0.04-0.28,0.44-1.89,1.21-3.79c0.77-1.89,3.87-6.08,4.55-8.86c0,0,1.01,4.83-1.69,9.35
						c-2.7,4.51-2.98,3.5-4.11,5.56C246.15,105,245.99,105.24,245.83,105.24z"/>
					<path class="st0" d="M248.28,92.47c-0.2-0.04-0.08-1.89-0.56-2.5c-0.48-0.6-4.63-5.52-5.52-10.43c0,0,2.62,2.66,3.06,2.94
						c0.44,0.28,2.22,2.05,2.74,3.59c0.52,1.53,0.4,2.82,0.6,2.86s0.2-1.69,0.2-1.69s0.04-3.38,0.32-5
						c0.28-1.61,1.01-4.31,0.69-5.68c0,0,1.57,2.5,1.49,6.04c-0.08,3.55-1.57,6.37-1.77,6.77c-0.2,0.4-0.77,2.14-0.77,2.5
						S248.28,92.47,248.28,92.47z"/>
					<path class="st0" d="M243.37,67.25c0,0,5.44,3.22,4.59,14.02c0,0,0,0.48-0.32-0.04c-0.32-0.52-1.49-2.01-2.01-2.34
						c-0.52-0.32-5.36-3.26-7.41-7.78c0,0,0.32-0.08,0.81,0.36c0.48,0.44,1.97,1.21,2.22,1.33c0.24,0.12,1.93,0.56,3.18,1.93
						c1.25,1.37,1.69,2.38,2.05,3.18c0,0,0.36,0.28,0.12-0.52c-0.24-0.81-0.28-1.33-0.93-2.34c-0.64-1.01-1.21-2.82-1.29-4.07
						C244.3,69.75,243.93,67.9,243.37,67.25z"/>
					<path class="st0" d="M242.44,71.04c0,0,0.12-0.73-0.4-1.73c-0.52-1.01-0.11-2.13-1.77-4.79c-0.93-1.49-4.15-2.66-4.15-2.66
						s0.93,1.29,1.53,2.01c0.6,0.73,0.81,1.25,1.01,1.61c0.2,0.36,1.32,1.44,1.73,2.05c0.08,0.12,0.24,0.44,0.24,0.64
						s-0.44-0.12-0.56-0.24c-0.12-0.12-2.09-1.61-3.34-1.85c-1.25-0.24-3.63-0.48-4.27-0.81c0,0,2.82,2.54,5.88,3.3
						C241.4,69.35,242.44,71.04,242.44,71.04z"/>
					<path class="st0" d="M236.08,64.39c0,0-2.82-3.83-7.86-3.75c0,0,0.28,0.28,0.85,0.4c0.56,0.12,1.57,1.13,2.09,1.45
						C231.69,62.82,232.77,63.63,236.08,64.39z"/>
				</g>
			</g>
		</g>
	</g>
	<path class="st0" d="M81.45,59.14v47.33c0,4.14-0.69,7.79-2.07,10.96c-1.38,3.17-3.28,5.82-5.71,7.95
		c-2.43,2.13-5.33,3.74-8.69,4.83c-3.37,1.08-7.03,1.63-11.01,1.63c-4.01,0-7.69-0.54-11.06-1.63c-3.37-1.08-6.26-2.69-8.69-4.83
		c-2.43-2.13-4.33-4.79-5.69-7.95c-1.36-3.17-2.04-6.82-2.04-10.96V59.14h14.78v47.33c0,4.7,1.12,8.12,3.37,10.27
		c2.25,2.15,5.36,3.23,9.33,3.23c4.01,0,7.12-1.07,9.33-3.23c2.22-2.15,3.32-5.57,3.32-10.27V59.14H81.45z"/>
	<path class="st0" d="M151.88,130.85h-14.77l-28.76-47.18v47.18H93.57V59.14h14.77l28.81,47.28V59.14h14.73V130.85z"/>
	<g>
		<path class="st0" d="M37.15,177.17c-3.1,0-5.63-0.97-7.58-2.91s-2.92-4.53-2.92-7.76v-0.56c0-2.17,0.41-4.1,1.23-5.81
			c0.82-1.71,1.98-3.03,3.49-3.95c1.5-0.92,3.22-1.39,5.15-1.39c2.89,0,5.17,0.93,6.83,2.79c1.66,1.86,2.49,4.5,2.49,7.92v2.35
			H32.38c0.18,1.41,0.73,2.54,1.65,3.39c0.92,0.85,2.08,1.28,3.49,1.28c2.18,0,3.88-0.8,5.1-2.41l2.77,3.17
			c-0.85,1.22-1.99,2.18-3.44,2.86C40.52,176.83,38.91,177.17,37.15,177.17z M36.51,159.45c-1.12,0-2.03,0.39-2.73,1.16
			c-0.7,0.78-1.14,1.88-1.34,3.33h7.86v-0.46c-0.03-1.28-0.37-2.27-1.02-2.97C38.63,159.8,37.71,159.45,36.51,159.45z"/>
		<path class="st0" d="M54.5,155.2l0.18,2.49c1.51-1.93,3.54-2.89,6.08-2.89c2.24,0,3.91,0.67,5,2.01s1.66,3.35,1.68,6.02v13.94
			h-5.65v-13.8c0-1.22-0.26-2.11-0.78-2.66c-0.52-0.55-1.39-0.83-2.6-0.83c-1.59,0-2.78,0.69-3.58,2.07v15.22h-5.65V155.2H54.5z"/>
		<path class="st0" d="M79.88,169.74l3.93-14.54h5.9l-7.14,21.58h-5.39l-7.14-21.58h5.9L79.88,169.74z"/>
		<path class="st0" d="M92.4,149.62c0-0.86,0.28-1.58,0.85-2.14c0.57-0.56,1.34-0.84,2.32-0.84c0.96,0,1.73,0.28,2.31,0.84
			c0.57,0.56,0.86,1.27,0.86,2.14c0,0.88-0.29,1.59-0.87,2.15c-0.58,0.56-1.35,0.84-2.3,0.84c-0.95,0-1.72-0.28-2.3-0.84
			C92.69,151.21,92.4,150.49,92.4,149.62z M98.4,176.78h-5.67V155.2h5.67V176.78z"/>
		<path class="st0" d="M115.18,160.6c-0.77-0.11-1.45-0.16-2.03-0.16c-2.14,0-3.54,0.74-4.2,2.21v14.12h-5.65V155.2h5.34l0.16,2.57
			c1.13-1.98,2.7-2.97,4.71-2.97c0.63,0,1.21,0.09,1.76,0.26L115.18,160.6z"/>
		<path class="st0" d="M116.56,165.79c0-2.14,0.4-4.05,1.21-5.72c0.81-1.68,1.97-2.97,3.49-3.89c1.52-0.92,3.28-1.38,5.29-1.38
			c2.85,0,5.18,0.89,6.99,2.67c1.81,1.78,2.81,4.2,3.02,7.26l0.04,1.48c0,3.31-0.91,5.97-2.72,7.97c-1.81,2-4.24,3-7.29,3
			c-3.05,0-5.48-1-7.3-2.99s-2.73-4.71-2.73-8.14V165.79z M122.21,166.2c0,2.05,0.38,3.62,1.13,4.7s1.84,1.63,3.25,1.63
			c1.37,0,2.44-0.54,3.21-1.61c0.77-1.07,1.15-2.79,1.15-5.14c0-2.01-0.38-3.57-1.15-4.67c-0.77-1.1-1.85-1.66-3.25-1.66
			c-1.38,0-2.45,0.55-3.21,1.65C122.59,162.19,122.21,163.89,122.21,166.2z"/>
		<path class="st0" d="M145.52,155.2l0.18,2.49c1.51-1.93,3.54-2.89,6.08-2.89c2.24,0,3.91,0.67,5,2.01s1.66,3.35,1.68,6.02v13.94
			h-5.65v-13.8c0-1.22-0.26-2.11-0.78-2.66c-0.52-0.55-1.39-0.83-2.6-0.83c-1.59,0-2.78,0.69-3.58,2.07v15.22h-5.65V155.2H145.52z"
			/>
		<path class="st0" d="M168.28,155.2l0.18,2.41c1.5-1.88,3.53-2.81,6.08-2.81c2.72,0,4.59,1.1,5.61,3.29
			c1.48-2.19,3.6-3.29,6.35-3.29c2.29,0,4,0.68,5.12,2.04c1.12,1.36,1.68,3.41,1.68,6.15v13.78h-5.67v-13.76
			c0-1.22-0.23-2.12-0.7-2.68c-0.47-0.57-1.3-0.85-2.48-0.85c-1.69,0-2.87,0.82-3.52,2.47l0.02,14.82h-5.65v-13.74
			c0-1.25-0.24-2.15-0.72-2.71c-0.48-0.56-1.3-0.84-2.46-0.84c-1.6,0-2.76,0.68-3.48,2.03v15.26h-5.65V155.2H168.28z"/>
		<path class="st0" d="M207.62,177.17c-3.1,0-5.63-0.97-7.58-2.91c-1.95-1.94-2.92-4.53-2.92-7.76v-0.56c0-2.17,0.41-4.1,1.23-5.81
			c0.82-1.71,1.98-3.03,3.49-3.95c1.5-0.92,3.22-1.39,5.15-1.39c2.89,0,5.17,0.93,6.83,2.79c1.66,1.86,2.49,4.5,2.49,7.92v2.35
			h-13.47c0.18,1.41,0.73,2.54,1.65,3.39c0.92,0.85,2.08,1.28,3.49,1.28c2.18,0,3.88-0.8,5.1-2.41l2.77,3.17
			c-0.85,1.22-1.99,2.18-3.44,2.86C210.99,176.83,209.38,177.17,207.62,177.17z M206.98,159.45c-1.12,0-2.03,0.39-2.73,1.16
			c-0.7,0.78-1.14,1.88-1.34,3.33h7.86v-0.46c-0.03-1.28-0.37-2.27-1.02-2.97C209.1,159.8,208.18,159.45,206.98,159.45z"/>
		<path class="st0" d="M224.97,155.2l0.18,2.49c1.51-1.93,3.54-2.89,6.08-2.89c2.24,0,3.91,0.67,5,2.01
			c1.09,1.34,1.66,3.35,1.68,6.02v13.94h-5.65v-13.8c0-1.22-0.26-2.11-0.78-2.66c-0.52-0.55-1.39-0.83-2.6-0.83
			c-1.59,0-2.78,0.69-3.58,2.07v15.22h-5.65V155.2H224.97z"/>
		<path class="st0" d="M249.2,149.89v5.31h3.62v4.23h-3.62v10.77c0,0.8,0.15,1.37,0.45,1.71c0.3,0.35,0.87,0.52,1.72,0.52
			c0.62,0,1.18-0.05,1.66-0.14v4.37c-1.11,0.35-2.25,0.52-3.42,0.52c-3.96,0-5.98-2.04-6.06-6.12v-11.63h-3.09v-4.23h3.09v-5.31
			H249.2z"/>
	</g>
	<g>
		<path class="st0" d="M46.46,205c0,3.32-0.74,5.99-2.22,7.99c-1.48,2-3.48,3-5.99,3c-2.14,0-3.87-0.76-5.18-2.27v10.17h-5.65
			v-29.87h5.24l0.2,2.11c1.37-1.68,3.15-2.51,5.36-2.51c2.61,0,4.63,0.99,6.08,2.95c1.45,1.97,2.17,4.68,2.17,8.14V205z
			 M40.81,204.58c0-2.01-0.35-3.56-1.05-4.65c-0.7-1.09-1.71-1.64-3.04-1.64c-1.77,0-2.99,0.69-3.66,2.07v8.84
			c0.69,1.42,1.92,2.13,3.69,2.13C39.46,211.34,40.81,209.09,40.81,204.58z"/>
		<path class="st0" d="M62.09,199.42c-0.77-0.11-1.45-0.16-2.03-0.16c-2.14,0-3.54,0.74-4.2,2.21v14.12H50.2v-21.58h5.34l0.16,2.57
			c1.13-1.98,2.7-2.97,4.71-2.97c0.63,0,1.21,0.09,1.76,0.26L62.09,199.42z"/>
		<path class="st0" d="M63.46,204.6c0-2.14,0.4-4.05,1.21-5.72c0.81-1.68,1.97-2.97,3.49-3.89c1.52-0.92,3.28-1.38,5.29-1.38
			c2.85,0,5.18,0.89,6.99,2.67c1.81,1.78,2.81,4.2,3.02,7.26l0.04,1.48c0,3.31-0.91,5.97-2.72,7.97c-1.81,2-4.24,3-7.29,3
			c-3.05,0-5.48-1-7.3-2.99s-2.73-4.71-2.73-8.14V204.6z M69.11,205.01c0,2.05,0.38,3.62,1.13,4.7c0.76,1.09,1.84,1.63,3.25,1.63
			c1.37,0,2.44-0.54,3.21-1.61c0.77-1.07,1.15-2.79,1.15-5.14c0-2.01-0.38-3.57-1.15-4.67c-0.77-1.1-1.85-1.66-3.25-1.66
			c-1.38,0-2.45,0.55-3.21,1.65C69.49,201,69.11,202.71,69.11,205.01z"/>
		<path class="st0" d="M86.4,204.64c0-3.31,0.77-5.98,2.31-8c1.55-2.02,3.63-3.03,6.25-3.03c2.32,0,4.12,0.81,5.42,2.43l0.23-2.03
			h5.12v20.86c0,1.89-0.42,3.53-1.26,4.93c-0.84,1.4-2.02,2.46-3.55,3.19c-1.53,0.73-3.31,1.1-5.36,1.1c-1.55,0-3.06-0.32-4.54-0.95
			c-1.47-0.63-2.59-1.45-3.34-2.44l2.5-3.51c1.41,1.61,3.11,2.41,5.12,2.41c1.5,0,2.67-0.41,3.5-1.23c0.83-0.82,1.25-1.98,1.25-3.48
			v-1.16c-1.3,1.5-3.02,2.25-5.14,2.25c-2.54,0-4.6-1.01-6.17-3.04c-1.57-2.03-2.36-4.72-2.36-8.07V204.64z M92.05,205.07
			c0,1.96,0.38,3.49,1.15,4.6c0.77,1.11,1.82,1.67,3.17,1.67c1.72,0,2.95-0.66,3.69-1.98v-9.09c-0.76-1.32-1.97-1.98-3.66-1.98
			c-1.35,0-2.42,0.57-3.2,1.7C92.44,201.13,92.05,202.82,92.05,205.07z"/>
		<path class="st0" d="M122.2,199.42c-0.77-0.11-1.45-0.16-2.03-0.16c-2.14,0-3.54,0.74-4.2,2.21v14.12h-5.65v-21.58h5.34l0.16,2.57
			c1.13-1.98,2.7-2.97,4.71-2.97c0.63,0,1.21,0.09,1.76,0.26L122.2,199.42z"/>
		<path class="st0" d="M136.83,215.59c-0.26-0.52-0.45-1.16-0.57-1.93c-1.37,1.56-3.15,2.33-5.34,2.33c-2.07,0-3.79-0.61-5.15-1.83
			c-1.36-1.22-2.04-2.77-2.04-4.63c0-2.29,0.83-4.04,2.49-5.26c1.66-1.22,4.06-1.84,7.2-1.86h2.6v-1.24c0-1-0.25-1.8-0.75-2.39
			c-0.5-0.6-1.29-0.9-2.38-0.9c-0.95,0-1.7,0.23-2.24,0.7c-0.54,0.46-0.81,1.1-0.81,1.91h-5.65c0-1.25,0.38-2.41,1.13-3.47
			c0.76-1.07,1.83-1.9,3.21-2.5c1.38-0.61,2.93-0.91,4.65-0.91c2.61,0,4.68,0.67,6.21,2.01c1.53,1.34,2.3,3.21,2.3,5.63v9.35
			c0.01,2.05,0.29,3.6,0.84,4.65v0.34H136.83z M132.16,211.58c0.83,0,1.6-0.19,2.31-0.57c0.7-0.38,1.22-0.89,1.56-1.53v-3.71h-2.11
			c-2.83,0-4.33,1-4.52,2.99l-0.02,0.34c0,0.72,0.25,1.31,0.74,1.77C130.62,211.35,131.3,211.58,132.16,211.58z"/>
		<path class="st0" d="M151.58,194.01l0.18,2.41c1.5-1.88,3.53-2.81,6.08-2.81c2.72,0,4.59,1.1,5.61,3.29
			c1.48-2.19,3.6-3.29,6.35-3.29c2.29,0,4,0.68,5.12,2.04c1.12,1.36,1.68,3.41,1.68,6.15v13.78h-5.67v-13.76
			c0-1.22-0.23-2.12-0.7-2.68c-0.47-0.57-1.3-0.85-2.48-0.85c-1.69,0-2.87,0.82-3.52,2.47l0.02,14.82h-5.65v-13.74
			c0-1.25-0.24-2.15-0.72-2.71c-0.48-0.56-1.3-0.84-2.46-0.84c-1.6,0-2.76,0.68-3.48,2.03v15.26h-5.65v-21.58H151.58z"/>
		<path class="st0" d="M186.48,194.01l0.18,2.41c1.5-1.88,3.53-2.81,6.08-2.81c2.72,0,4.59,1.1,5.61,3.29
			c1.48-2.19,3.6-3.29,6.35-3.29c2.29,0,4,0.68,5.12,2.04c1.12,1.36,1.68,3.41,1.68,6.15v13.78h-5.67v-13.76
			c0-1.22-0.23-2.12-0.7-2.68c-0.47-0.57-1.3-0.85-2.48-0.85c-1.69,0-2.87,0.82-3.52,2.47l0.02,14.82h-5.65v-13.74
			c0-1.25-0.24-2.15-0.72-2.71c-0.48-0.56-1.3-0.84-2.46-0.84c-1.6,0-2.76,0.68-3.48,2.03v15.26h-5.65v-21.58H186.48z"/>
		<path class="st0" d="M225.82,215.99c-3.1,0-5.63-0.97-7.58-2.91c-1.95-1.94-2.92-4.53-2.92-7.76v-0.56c0-2.17,0.41-4.1,1.23-5.81
			c0.82-1.71,1.98-3.03,3.49-3.95c1.5-0.92,3.22-1.39,5.15-1.39c2.89,0,5.17,0.93,6.83,2.79c1.66,1.86,2.49,4.5,2.49,7.92v2.35
			h-13.47c0.18,1.41,0.73,2.54,1.65,3.39c0.92,0.85,2.08,1.28,3.49,1.28c2.18,0,3.88-0.8,5.1-2.41l2.77,3.17
			c-0.85,1.22-1.99,2.18-3.44,2.86C229.19,215.65,227.58,215.99,225.82,215.99z M225.18,198.26c-1.12,0-2.03,0.39-2.73,1.16
			c-0.7,0.78-1.14,1.88-1.34,3.33h7.86v-0.46c-0.03-1.28-0.37-2.27-1.02-2.97S226.38,198.26,225.18,198.26z"/>
	</g>
</g>
</svg>
