<svg width="84" height="64" viewBox="0 0 84 64" fill="none" xmlns="http://www.w3.org/2000/svg">
<path d="M53.4642 0.730865C41.5009 0.730865 31.1534 7.86591 26.1265 18.1983C25.0656 18.03 23.9884 17.929 22.9113 17.929H22.8949C16.9704 17.929 11.3886 20.3018 7.17781 24.6265C2.967 28.9513 0.649414 34.7233 0.649414 40.8487C0.649414 53.4864 10.6052 63.7851 22.8786 63.802H31.2186C32.7528 63.802 33.9932 62.523 33.9932 60.9412C33.9932 59.3594 32.7528 58.0805 31.2186 58.0805H22.8786C13.6736 58.0805 6.19855 50.3396 6.21488 40.8655C6.21488 31.3914 13.7062 23.6842 22.8949 23.6842H22.9113C23.2866 23.6842 23.662 23.7346 24.0374 23.7515C23.303 26.4608 22.8623 29.3215 22.8623 32.2832C22.8623 33.8651 24.1027 35.144 25.6369 35.144C27.171 35.144 28.4114 33.8651 28.4114 32.2832C28.4114 18.0636 39.6403 6.48602 53.4315 6.48602C67.2228 6.48602 78.4516 18.0636 78.4516 32.2832C78.4516 37.8365 76.6726 43.3224 73.4411 47.7649C72.5271 49.027 72.7719 50.8276 73.996 51.7868C74.5019 52.1739 75.0895 52.359 75.6607 52.359C76.5094 52.359 77.3418 51.9551 77.8804 51.2147C81.8301 45.7961 84.0008 39.0649 84.0008 32.3001C84.0334 14.8832 70.3238 0.730865 53.4642 0.730865Z" fill="#6DB5B0"/>
<path d="M53.4642 0.730865C41.5009 0.730865 31.1534 7.86591 26.1265 18.1983C25.0656 18.03 23.9884 17.929 22.9113 17.929H22.8949C16.9704 17.929 11.3886 20.3018 7.17781 24.6265C2.967 28.9513 0.649414 34.7233 0.649414 40.8487C0.649414 53.4864 10.6052 63.7851 22.8786 63.802H31.2186C32.7528 63.802 33.9932 62.523 33.9932 60.9412C33.9932 59.3594 32.7528 58.0805 31.2186 58.0805H22.8786C13.6736 58.0805 6.19855 50.3396 6.21488 40.8655C6.21488 31.3914 13.7062 23.6842 22.8949 23.6842H22.9113C23.2866 23.6842 23.662 23.7346 24.0374 23.7515C23.303 26.4608 22.8623 29.3215 22.8623 32.2832C22.8623 33.8651 24.1027 35.144 25.6369 35.144C27.171 35.144 28.4114 33.8651 28.4114 32.2832C28.4114 18.0636 39.6403 6.48602 53.4315 6.48602C67.2228 6.48602 78.4516 18.0636 78.4516 32.2832C78.4516 37.8365 76.6726 43.3224 73.4411 47.7649C72.5271 49.027 72.7719 50.8276 73.996 51.7868C74.5019 52.1739 75.0895 52.359 75.6607 52.359C76.5094 52.359 77.3418 51.9551 77.8804 51.2147C81.8301 45.7961 84.0008 39.0649 84.0008 32.3001C84.0334 14.8832 70.3238 0.730865 53.4642 0.730865Z" fill="#6DB5B0"/>
<path d="M53.4642 0.730865C41.5009 0.730865 31.1534 7.86591 26.1265 18.1983C25.0656 18.03 23.9884 17.929 22.9113 17.929H22.8949C16.9704 17.929 11.3886 20.3018 7.17781 24.6265C2.967 28.9513 0.649414 34.7233 0.649414 40.8487C0.649414 53.4864 10.6052 63.7851 22.8786 63.802H31.2186C32.7528 63.802 33.9932 62.523 33.9932 60.9412C33.9932 59.3594 32.7528 58.0805 31.2186 58.0805H22.8786C13.6736 58.0805 6.19855 50.3396 6.21488 40.8655C6.21488 31.3914 13.7062 23.6842 22.8949 23.6842H22.9113C23.2866 23.6842 23.662 23.7346 24.0374 23.7515C23.303 26.4608 22.8623 29.3215 22.8623 32.2832C22.8623 33.8651 24.1027 35.144 25.6369 35.144C27.171 35.144 28.4114 33.8651 28.4114 32.2832C28.4114 18.0636 39.6403 6.48602 53.4315 6.48602C67.2228 6.48602 78.4516 18.0636 78.4516 32.2832C78.4516 37.8365 76.6726 43.3224 73.4411 47.7649C72.5271 49.027 72.7719 50.8276 73.996 51.7868C74.5019 52.1739 75.0895 52.359 75.6607 52.359C76.5094 52.359 77.3418 51.9551 77.8804 51.2147C81.8301 45.7961 84.0008 39.0649 84.0008 32.3001C84.0334 14.8832 70.3238 0.730865 53.4642 0.730865Z" fill="#6DB5B0"/>
<path d="M52.6493 30.2306C52.6493 30.2306 52.4861 30.096 52.4045 30.0287C52.3392 29.9782 52.2902 29.9277 52.2249 29.8773C52.1433 29.8099 52.0454 29.7763 51.9475 29.7258C51.8822 29.6922 51.8169 29.6417 51.7353 29.608C51.6374 29.5575 51.5395 29.5407 51.4252 29.507C51.3599 29.4902 51.2783 29.4566 51.213 29.4397C51.0335 29.4061 50.854 29.3893 50.6744 29.3893C50.4949 29.3893 50.3154 29.4061 50.1358 29.4397C50.0706 29.4397 50.0053 29.4902 49.9237 29.507C49.8257 29.5407 49.7115 29.5575 49.6136 29.608C49.532 29.6417 49.4667 29.6922 49.4014 29.7258C49.3035 29.7763 49.2219 29.8099 49.1403 29.8773C49.0423 29.9446 48.9607 30.0287 48.8628 30.1129C48.8138 30.1465 48.7649 30.1802 48.7159 30.2306L36.9158 42.3804C35.8223 43.5079 35.8223 45.3085 36.9158 46.4359C38.0093 47.5634 39.772 47.5634 40.8492 46.4359L47.8999 39.1663V60.908C47.8999 62.4898 49.1403 63.7687 50.6744 63.7687C52.2086 63.7687 53.449 62.4898 53.449 60.908V39.1663L60.4997 46.4359C61.0383 46.9913 61.7564 47.2773 62.4582 47.2773C63.16 47.2773 63.8781 46.9913 64.433 46.4359C65.5266 45.3085 65.5266 43.5079 64.433 42.3804L52.633 30.2138L52.6493 30.2306Z" fill="#6DB5B0"/>
<path d="M52.6493 30.2306C52.6493 30.2306 52.4861 30.096 52.4045 30.0287C52.3392 29.9782 52.2902 29.9277 52.2249 29.8773C52.1433 29.8099 52.0454 29.7763 51.9475 29.7258C51.8822 29.6922 51.8169 29.6417 51.7353 29.608C51.6374 29.5575 51.5395 29.5407 51.4252 29.507C51.3599 29.4902 51.2783 29.4566 51.213 29.4397C51.0335 29.4061 50.854 29.3893 50.6744 29.3893C50.4949 29.3893 50.3154 29.4061 50.1358 29.4397C50.0706 29.4397 50.0053 29.4902 49.9237 29.507C49.8257 29.5407 49.7115 29.5575 49.6136 29.608C49.532 29.6417 49.4667 29.6922 49.4014 29.7258C49.3035 29.7763 49.2219 29.8099 49.1403 29.8773C49.0423 29.9446 48.9607 30.0287 48.8628 30.1129C48.8138 30.1465 48.7649 30.1802 48.7159 30.2306L36.9158 42.3804C35.8223 43.5079 35.8223 45.3085 36.9158 46.4359C38.0093 47.5634 39.772 47.5634 40.8492 46.4359L47.8999 39.1663V60.908C47.8999 62.4898 49.1403 63.7687 50.6744 63.7687C52.2086 63.7687 53.449 62.4898 53.449 60.908V39.1663L60.4997 46.4359C61.0383 46.9913 61.7564 47.2773 62.4582 47.2773C63.16 47.2773 63.8781 46.9913 64.433 46.4359C65.5266 45.3085 65.5266 43.5079 64.433 42.3804L52.633 30.2138L52.6493 30.2306Z" fill="#6DB5B0"/>
<path d="M52.6493 30.2306C52.6493 30.2306 52.4861 30.096 52.4045 30.0287C52.3392 29.9782 52.2902 29.9277 52.2249 29.8773C52.1433 29.8099 52.0454 29.7763 51.9475 29.7258C51.8822 29.6922 51.8169 29.6417 51.7353 29.608C51.6374 29.5575 51.5395 29.5407 51.4252 29.507C51.3599 29.4902 51.2783 29.4566 51.213 29.4397C51.0335 29.4061 50.854 29.3893 50.6744 29.3893C50.4949 29.3893 50.3154 29.4061 50.1358 29.4397C50.0706 29.4397 50.0053 29.4902 49.9237 29.507C49.8257 29.5407 49.7115 29.5575 49.6136 29.608C49.532 29.6417 49.4667 29.6922 49.4014 29.7258C49.3035 29.7763 49.2219 29.8099 49.1403 29.8773C49.0423 29.9446 48.9607 30.0287 48.8628 30.1129C48.8138 30.1465 48.7649 30.1802 48.7159 30.2306L36.9158 42.3804C35.8223 43.5079 35.8223 45.3085 36.9158 46.4359C38.0093 47.5634 39.772 47.5634 40.8492 46.4359L47.8999 39.1663V60.908C47.8999 62.4898 49.1403 63.7687 50.6744 63.7687C52.2086 63.7687 53.449 62.4898 53.449 60.908V39.1663L60.4997 46.4359C61.0383 46.9913 61.7564 47.2773 62.4582 47.2773C63.16 47.2773 63.8781 46.9913 64.433 46.4359C65.5266 45.3085 65.5266 43.5079 64.433 42.3804L52.633 30.2138L52.6493 30.2306Z" fill="#6DB5B0"/>
</svg>
