<?xml version="1.0" encoding="utf-8"?>
<!-- Generator: Adobe Illustrator 25.1.0, SVG Export Plug-In . SVG Version: 6.00 Build 0)  -->
<svg version="1.1" id="Layer_1" xmlns="http://www.w3.org/2000/svg" xmlns:xlink="http://www.w3.org/1999/xlink" x="0px" y="0px"
	 viewBox="0 0 32 32" style="enable-background:new 0 0 32 32;" xml:space="preserve">
<style type="text/css">
	.st0{fill:#FFFFFF;}
</style>
<g id="Layer_1_1_">
</g>
<path class="st0" d="M31.1,9.2L31.1,9.2c0,0-0.3-2.4-1.2-3.3c-0.8-0.9-1.9-1.5-3.1-1.5C22.5,4.1,16,4,16,4S9.5,4,5.2,4.4
	C4,4.4,2.9,4.9,2.1,5.9C1.2,6.9,0.9,9.2,0.9,9.2S0.7,12,0.7,14.8v2.5c0,1.9,0.1,3.7,0.3,5.5c0,0,0.3,2.4,1.2,3.3
	c1.2,1.3,2.7,1.3,3.3,1.5C8,27.9,16,28,16,28s6.5,0,10.8-0.4c1.2,0,2.3-0.5,3.1-1.5c0.9-1.1,1.2-3.3,1.2-3.3s0.3-2.8,0.3-5.5v-2.5
	C31.3,12,31.1,9.2,31.1,9.2z M12.3,22.3V10.4l10.1,6L12.3,22.3z"/>
</svg>
