<svg width="20" height="26" viewBox="0 0 20 26" fill="none" xmlns="http://www.w3.org/2000/svg">
<path d="M18.9994 4.32541C18.5388 3.87638 17.9185 3.62655 17.2737 3.6303H14.3811V3.02555C14.3645 2.80901 14.2643 2.60725 14.1016 2.4625C13.938 2.32489 13.7287 2.253 13.5147 2.26092H12.4876C12.2731 1.88645 11.9681 1.57109 11.6003 1.34337C11.2971 1.15349 10.9586 1.02643 10.6049 0.969802C10.2513 0.913175 9.88975 0.928147 9.54204 1.01382C9.19432 1.09949 8.86756 1.2541 8.58133 1.46839C8.2951 1.68268 8.0553 1.95224 7.87627 2.26092H6.86316C6.64426 2.24874 6.42905 2.32093 6.26227 2.4625C6.17777 2.53738 6.10897 2.62812 6.05981 2.72951C6.01065 2.8309 5.98213 2.94095 5.97582 3.05335V3.6164H3.11118C2.46447 3.61382 1.84245 3.86334 1.37842 4.31151C0.928142 4.76765 0.677047 5.38218 0.679729 6.0215V23.5454C0.675961 24.1869 0.92708 24.804 1.37842 25.2623C1.84245 25.7105 2.46447 25.96 3.11118 25.9574H17.2737C17.5949 25.9542 17.9125 25.8905 18.2099 25.7697C18.505 25.6431 18.773 25.4614 18.9994 25.2345C19.2227 25.0056 19.4005 24.7367 19.5234 24.4421C19.6411 24.1456 19.7004 23.8294 19.6981 23.5106V6.00759C19.6957 5.37746 19.4448 4.77343 18.9994 4.32541ZM6.61162 3.07421C6.61773 3.02312 6.64262 2.97608 6.68149 2.94214C6.72057 2.90955 6.77026 2.89225 6.82124 2.89348H8.26753L8.35137 2.71275C8.51771 2.37038 8.77767 2.08159 9.10145 1.87951C9.42523 1.67742 9.79972 1.57024 10.1819 1.57024C10.5642 1.57024 10.9386 1.67742 11.2624 1.87951C11.5862 2.08159 11.8462 2.37038 12.0125 2.71275L12.0963 2.89348H13.5426C13.5959 2.89118 13.6481 2.9085 13.6894 2.94214C13.7243 2.96945 13.7469 3.00945 13.7522 3.05335V5.01358C13.7503 5.03918 13.7431 5.0641 13.7311 5.08682C13.7191 5.10954 13.7025 5.12956 13.6824 5.14565C13.6596 5.16528 13.6328 5.17979 13.6039 5.18819C13.5749 5.19659 13.5445 5.19867 13.5147 5.19431H6.82124C6.77015 5.19621 6.72023 5.17883 6.68149 5.14565C6.64801 5.11884 6.62361 5.08244 6.61162 5.04138V3.07421ZM2.76184 25.0607C2.61788 25.0613 2.47529 25.0329 2.34262 24.9773C2.211 24.9266 2.09186 24.8484 1.99327 24.7479C1.89547 24.6458 1.81521 24.5284 1.75572 24.4004C1.70547 24.267 1.67944 24.1257 1.67885 23.9833V5.59748C1.67997 5.45733 1.706 5.31849 1.75572 5.18736C1.81168 5.05737 1.89234 4.93936 1.99327 4.8398C2.09146 4.73715 2.21057 4.65657 2.34262 4.60346C2.47529 4.54786 2.61788 4.51948 2.76184 4.52005H4.06839V25.0607H2.76184ZM18.3706 24.7479C18.2697 24.8481 18.1498 24.9273 18.0179 24.981C17.8859 25.0347 17.7446 25.0618 17.602 25.0607H4.77407V4.527H5.97582V5.06224C5.99351 5.28 6.09635 5.48217 6.26227 5.62528C6.40998 5.75245 6.59797 5.82381 6.79328 5.82687H13.4937C13.6025 5.83641 13.712 5.82342 13.8154 5.78872C13.9188 5.75403 14.0139 5.69838 14.0946 5.62528C14.1801 5.55277 14.2497 5.46349 14.299 5.36303C14.3483 5.26256 14.3762 5.15307 14.3811 5.04138V4.527H17.595C17.739 4.52644 17.8816 4.55481 18.0143 4.61041C18.1445 4.6637 18.2632 4.7416 18.3636 4.8398C18.4654 4.9413 18.5462 5.06176 18.6012 5.19431C18.6563 5.32409 18.6848 5.46353 18.685 5.60443V23.9833C18.685 24.2693 18.5721 24.5439 18.3706 24.7479Z" fill="#EDF2F7"/>
<path d="M6.55619 7.09213C6.37823 7.0935 6.20467 7.14725 6.05737 7.24661C5.91007 7.34598 5.79562 7.4865 5.72847 7.65047C5.66132 7.81443 5.64449 7.9945 5.68005 8.16799C5.71561 8.34147 5.80198 8.50059 5.92831 8.62531C6.05463 8.75002 6.21525 8.83473 6.38989 8.86877C6.56454 8.90281 6.7454 8.88465 6.90969 8.81659C7.07398 8.74852 7.21433 8.63358 7.31307 8.48627C7.4118 8.33897 7.46447 8.16588 7.46448 7.98883C7.46448 7.87049 7.44095 7.75331 7.39522 7.64406C7.34949 7.53481 7.28247 7.43565 7.19803 7.35229C7.1136 7.26894 7.01341 7.20303 6.90325 7.15838C6.79309 7.11373 6.67513 7.09121 6.55619 7.09213V7.09213Z" fill="#EDF2F7"/>
<path d="M9.1831 8.5448H16.6661C16.8044 8.52943 16.9323 8.46386 17.0251 8.36063C17.1179 8.25739 17.1692 8.12374 17.1692 7.98523C17.1692 7.84671 17.1179 7.71307 17.0251 7.60983C16.9323 7.5066 16.8044 7.44103 16.6661 7.42566H9.1831C9.04473 7.44103 8.9169 7.5066 8.82407 7.60983C8.73125 7.71307 8.67993 7.84671 8.67993 7.98523C8.67993 8.12374 8.73125 8.25739 8.82407 8.36063C8.9169 8.46386 9.04473 8.52943 9.1831 8.5448V8.5448Z" fill="#EDF2F7"/>
<path d="M6.55613 10.1436C6.37649 10.1436 6.20088 10.1966 6.05151 10.2959C5.90215 10.3952 5.78571 10.5363 5.71697 10.7015C5.64822 10.8666 5.63023 11.0483 5.66528 11.2236C5.70033 11.3989 5.78683 11.5599 5.91386 11.6862C6.04089 11.8126 6.20273 11.8987 6.37892 11.9336C6.55511 11.9684 6.73776 11.9505 6.90373 11.8821C7.0697 11.8137 7.21154 11.6979 7.31135 11.5493C7.41115 11.4007 7.46442 11.226 7.46442 11.0473C7.46442 10.8076 7.36874 10.5778 7.1984 10.4083C7.02806 10.2388 6.79703 10.1436 6.55613 10.1436V10.1436Z" fill="#EDF2F7"/>
<path d="M9.1831 11.6033H16.6661C16.8044 11.588 16.9323 11.5224 17.0251 11.4192C17.1179 11.3159 17.1692 11.1823 17.1692 11.0438C17.1692 10.9052 17.1179 10.7716 17.0251 10.6684C16.9323 10.5651 16.8044 10.4996 16.6661 10.4842H9.1831C9.04473 10.4996 8.9169 10.5651 8.82407 10.6684C8.73125 10.7716 8.67993 10.9052 8.67993 11.0438C8.67993 11.1823 8.73125 11.3159 8.82407 11.4192C8.9169 11.5224 9.04473 11.588 9.1831 11.6033V11.6033Z" fill="#EDF2F7"/>
<path d="M6.55619 13.042C6.37823 13.0434 6.20467 13.0971 6.05737 13.1965C5.91007 13.2959 5.79562 13.4364 5.72847 13.6004C5.66132 13.7643 5.64449 13.9444 5.68005 14.1179C5.71561 14.2914 5.80198 14.4505 5.92831 14.5752C6.05463 14.6999 6.21525 14.7846 6.38989 14.8187C6.56454 14.8527 6.7454 14.8345 6.90969 14.7665C7.07398 14.6984 7.21433 14.5835 7.31307 14.4362C7.4118 14.2889 7.46447 14.1158 7.46448 13.9387C7.46448 13.8204 7.44095 13.7032 7.39522 13.594C7.34949 13.4847 7.28247 13.3855 7.19803 13.3022C7.1136 13.2188 7.01341 13.1529 6.90325 13.1083C6.79309 13.0636 6.67513 13.0411 6.55619 13.042Z" fill="#EDF2F7"/>
<path d="M9.1831 14.4951H16.6661C16.8044 14.4797 16.9323 14.4142 17.0251 14.3109C17.1179 14.2077 17.1692 14.0741 17.1692 13.9355C17.1692 13.797 17.1179 13.6634 17.0251 13.5601C16.9323 13.4569 16.8044 13.3913 16.6661 13.376H9.1831C9.04473 13.3913 8.9169 13.4569 8.82407 13.5601C8.73125 13.6634 8.67993 13.797 8.67993 13.9355C8.67993 14.0741 8.73125 14.2077 8.82407 14.3109C8.9169 14.4142 9.04473 14.4797 9.1831 14.4951V14.4951Z" fill="#EDF2F7"/>
<path d="M6.55619 15.8228C6.37823 15.8242 6.20467 15.8779 6.05737 15.9773C5.91007 16.0766 5.79562 16.2172 5.72847 16.3811C5.66132 16.5451 5.64449 16.7252 5.68005 16.8986C5.71561 17.0721 5.80198 17.2312 5.92831 17.356C6.05463 17.4807 6.21525 17.5654 6.38989 17.5994C6.56454 17.6335 6.7454 17.6153 6.90969 17.5472C7.07398 17.4792 7.21433 17.3642 7.31307 17.2169C7.4118 17.0696 7.46447 16.8965 7.46448 16.7195C7.46448 16.6011 7.44095 16.484 7.39522 16.3747C7.34949 16.2655 7.28247 16.1663 7.19803 16.083C7.1136 15.9996 7.01341 15.9337 6.90325 15.889C6.79309 15.8444 6.67513 15.8219 6.55619 15.8228V15.8228Z" fill="#EDF2F7"/>
<path d="M17.225 16.7194C17.226 16.6457 17.2122 16.5727 17.1845 16.5044C17.1568 16.4361 17.1158 16.374 17.0638 16.3216C17.0118 16.2693 16.9499 16.2277 16.8816 16.1993C16.8133 16.1709 16.7401 16.1563 16.6661 16.1563H9.1831C9.04473 16.1717 8.9169 16.2372 8.82407 16.3405C8.73125 16.4437 8.67993 16.5774 8.67993 16.7159C8.67993 16.8544 8.73125 16.988 8.82407 17.0913C8.9169 17.1945 9.04473 17.2601 9.1831 17.2754H16.6661C16.8143 17.2754 16.9565 17.2169 17.0613 17.1126C17.1661 17.0083 17.225 16.8668 17.225 16.7194V16.7194Z" fill="#EDF2F7"/>
<path d="M16.6868 19.3261C16.4105 19.0591 16.0856 18.8468 15.7296 18.7005C15.2392 18.493 14.7011 18.4229 14.1735 18.4979C13.646 18.5729 13.1491 18.79 12.7367 19.1258C12.3243 19.4616 12.0122 19.9033 11.834 20.403C11.6559 20.9026 11.6186 21.4413 11.7261 21.9606C11.8414 22.5253 12.1217 23.0435 12.5319 23.4503C12.9421 23.8572 13.4638 24.1345 14.0318 24.2475C14.5529 24.3517 15.0928 24.3131 15.5936 24.1359C16.0945 23.9586 16.5375 23.6493 16.8754 23.2411C17.2133 22.8328 17.4334 22.3409 17.5122 21.8178C17.5909 21.2948 17.5254 20.7603 17.3226 20.2714C17.1739 19.9185 16.958 19.5975 16.6868 19.3261ZM16.5051 20.195C16.4842 20.2922 16.4357 20.3815 16.3654 20.4522V20.4522L14.3602 23.0171C14.3095 23.0666 14.2503 23.1066 14.1855 23.1353C14.1178 23.1575 14.0471 23.1692 13.9759 23.1701C13.9107 23.1696 13.8465 23.1554 13.7872 23.1284C13.726 23.1038 13.671 23.0657 13.6265 23.0171L12.837 22.322C12.7447 22.2238 12.6925 22.095 12.6903 21.9606C12.689 21.8909 12.702 21.8217 12.7284 21.7572C12.7548 21.6927 12.7942 21.6342 12.844 21.5852C12.9391 21.4913 13.0664 21.4367 13.2003 21.4323C13.3316 21.433 13.4572 21.4855 13.5497 21.5783L13.9759 21.9467L15.6388 19.764C15.6854 19.7172 15.7409 19.6803 15.8021 19.6552C15.8633 19.6301 15.9289 19.6175 15.9951 19.618C16.0945 19.6178 16.1917 19.6468 16.2746 19.7014C16.3573 19.7576 16.4207 19.8377 16.4562 19.9308C16.4983 20.0122 16.5153 20.1041 16.5051 20.195Z" fill="#EDF2F7"/>
</svg>
