<svg width="34" height="27" viewBox="0 0 34 27" fill="none" xmlns="http://www.w3.org/2000/svg">
<path d="M5.55422 0.0604177V6.04765C5.24785 5.94139 4.9265 5.88408 4.60211 5.87786C3.76513 5.88494 2.96512 6.22193 2.37749 6.81493C1.78986 7.40793 1.46255 8.20855 1.46734 9.04126C1.46722 9.54576 1.5877 10.0431 1.81884 10.4921C2.04999 10.9411 2.38516 11.3291 2.7967 11.6238C2.58222 11.7153 2.37503 11.8228 2.17693 11.9455C1.73259 12.2045 1.36179 12.5717 1.09938 13.0125C0.83697 13.4534 0.691588 13.9534 0.676911 14.4655V18.5583C0.676193 18.6169 0.68781 18.675 0.711014 18.7289C0.734218 18.7827 0.768497 18.8312 0.811645 18.8711L1.70986 19.7647V20.837C1.7087 20.9563 1.75373 21.0715 1.83561 21.1587C1.87708 21.2023 1.92728 21.2368 1.98299 21.2599C2.03869 21.283 2.09864 21.2942 2.15897 21.2928H7.37759C7.4967 21.2928 7.61093 21.2457 7.69516 21.1619C7.77938 21.0781 7.8267 20.9644 7.8267 20.8459V16.4136C7.81259 16.0834 7.84279 15.7529 7.91652 15.4306C8.62629 15.498 9.34246 15.4313 10.0273 15.234H33.2013V0.0425415L5.55422 0.0604177ZM2.36556 9.06807C2.35489 8.68875 2.44269 8.3131 2.6205 7.97738C2.79831 7.64166 3.06012 7.35722 3.38064 7.15152C3.70116 6.94582 4.06957 6.82581 4.45031 6.80306C4.83105 6.78032 5.21126 6.85562 5.55422 7.02169C5.91789 7.20072 6.2277 7.47197 6.45243 7.80808C6.69749 8.18318 6.82848 8.6207 6.82968 9.06807C6.83462 9.49452 6.71727 9.91353 6.49136 10.276C6.26546 10.6384 5.94037 10.9293 5.55422 11.1145C5.25825 11.2605 4.93249 11.337 4.60211 11.3379C4.00335 11.3308 3.4318 11.088 3.01262 10.6625C2.59343 10.2371 2.36076 9.66379 2.36556 9.06807V9.06807ZM6.85662 16.4136V20.3455H2.5452V19.9881C2.62942 19.8981 2.67737 19.7804 2.67993 19.6574V14.9838C2.68112 14.9256 2.67062 14.8677 2.64904 14.8135C2.62746 14.7593 2.59523 14.71 2.55424 14.6684C2.51325 14.6268 2.46433 14.5937 2.41034 14.5712C2.35634 14.5486 2.29837 14.537 2.23981 14.537C2.12408 14.5409 2.01372 14.5865 1.9294 14.6655C1.84508 14.7444 1.79257 14.8513 1.78171 14.966L1.68291 18.5404L1.57513 18.3349V14.4655C1.59929 14.1112 1.71117 13.7683 1.9008 13.4674C2.09043 13.1665 2.35191 12.9169 2.66196 12.7408C3.2372 12.3539 3.92809 12.1742 4.62007 12.2315C4.9408 12.2348 5.26014 12.2738 5.57218 12.3477C5.88011 12.41 6.18101 12.5028 6.47039 12.6247C6.66838 12.7135 6.8604 12.815 7.04525 12.9285C8.3297 13.5183 11.0513 14.0277 12.5603 11.9277L12.9555 12.0796C12.215 12.9641 11.2972 13.6854 10.2609 14.1974C10.1295 14.2541 9.99449 14.3019 9.85666 14.3404C9.1441 14.5547 8.39329 14.6126 7.65603 14.5102C7.28777 14.5102 7.09914 14.8408 6.99136 15.234C6.90087 15.6207 6.85566 16.0166 6.85662 16.4136V16.4136ZM32.303 14.3404H11.7699C12.6444 13.7307 13.4121 12.982 14.0423 12.1242C14.0799 12.0667 14.1043 12.0016 14.1136 11.9337C14.1229 11.8657 14.117 11.7965 14.0962 11.7311C14.0744 11.6681 14.039 11.6107 13.9924 11.5628C13.9458 11.5149 13.8893 11.4778 13.8268 11.454L12.5244 10.9625C12.4243 10.927 12.3149 10.9272 12.215 10.963C12.115 10.9989 12.0307 11.0682 11.9765 11.1591C10.8447 13.0625 8.49138 12.6157 7.48538 12.1332C7.16994 11.9471 6.83577 11.7943 6.48836 11.6774V11.6059C6.88438 11.3105 7.2058 10.9273 7.42718 10.4868C7.64857 10.0463 7.76382 9.56056 7.76382 9.06807C7.76382 8.57558 7.64857 8.08986 7.42718 7.64936C7.2058 7.20886 6.88438 6.8257 6.48836 6.5302V0.954035H32.303V14.3404Z" fill="#EDF2F7"/>
<path d="M28.7279 21.6237C28.3806 21.4191 28.0096 21.257 27.6231 21.1411C28.0392 20.8474 28.3786 20.4589 28.613 20.0081C28.8474 19.5573 28.9699 19.0572 28.9704 18.5496C28.9704 17.7201 28.6392 16.9246 28.0496 16.338C27.4601 15.7515 26.6605 15.422 25.8267 15.422C24.9929 15.422 24.1933 15.7515 23.6037 16.338C23.0141 16.9246 22.6829 17.7201 22.6829 18.5496C22.6834 19.0572 22.806 19.5573 23.0404 20.0081C23.2748 20.4589 23.6142 20.8474 24.0302 21.1411C23.6575 21.2631 23.2991 21.4249 22.9614 21.6237C22.4162 21.9593 21.9356 22.389 21.5422 22.8926L21.3805 22.83C21.927 22.4424 22.3366 21.8931 22.551 21.2604C22.7654 20.6277 22.7736 19.9438 22.5746 19.3062C22.3755 18.6685 21.9793 18.1096 21.4424 17.709C20.9054 17.3084 20.2551 17.0866 19.5841 17.0751C18.9945 17.0769 18.4176 17.246 17.9212 17.5626C17.4248 17.8792 17.0295 18.3301 16.7817 18.8624C16.7817 18.7551 16.7817 18.6479 16.7817 18.5407C16.7817 17.7112 16.4504 16.9156 15.8609 16.3291C15.2713 15.7425 14.4717 15.413 13.6379 15.413C12.8041 15.413 12.0045 15.7425 11.4149 16.3291C10.8254 16.9156 10.4942 17.7112 10.4942 18.5407C10.4929 19.0476 10.6138 19.5474 10.8466 19.9983C11.0795 20.4492 11.4175 20.838 11.8325 21.1322C11.4619 21.2525 11.1064 21.4144 10.7726 21.6147C9.90877 22.1332 9.20855 22.8824 8.75162 23.7773C8.70071 23.8832 8.69284 24.0046 8.72965 24.1161C8.76646 24.2276 8.84512 24.3207 8.94923 24.376C9.00217 24.4036 9.06014 24.4205 9.11971 24.4256C9.17929 24.4306 9.23928 24.4238 9.29617 24.4055C9.35306 24.3872 9.40571 24.3577 9.45101 24.3189C9.49632 24.2801 9.53338 24.2327 9.56001 24.1794C9.94184 23.4398 10.5235 22.8208 11.2397 22.3922C11.96 21.9621 12.7843 21.735 13.6244 21.735C14.4645 21.735 15.2888 21.9621 16.0092 22.3922C16.3641 22.6059 16.6876 22.8676 16.9703 23.1696L16.6739 23.3215C15.8134 23.8413 15.1164 24.5904 14.6619 25.4841C14.6343 25.5361 14.6175 25.5931 14.6125 25.6517C14.6075 25.7103 14.6144 25.7693 14.6329 25.8252C14.6513 25.8811 14.6809 25.9327 14.7198 25.9769C14.7588 26.0212 14.8063 26.0572 14.8595 26.0828C14.9118 26.1103 14.9691 26.127 15.028 26.1319C15.0869 26.1369 15.1462 26.13 15.2023 26.1116C15.2585 26.0933 15.3104 26.0639 15.3549 26.0251C15.3994 25.9864 15.4356 25.9392 15.4613 25.8862C15.8477 25.1498 16.4284 24.532 17.1409 24.099C17.2577 24.0275 17.3835 23.9739 17.5092 23.9113C17.7959 23.7739 18.0972 23.6689 18.4074 23.5986C19.2688 23.3792 20.1751 23.4071 21.0212 23.679C21.3076 23.7751 21.5843 23.8978 21.8476 24.0454L21.9644 24.099C22.6805 24.5276 23.2622 25.1466 23.644 25.8862C23.6811 25.9614 23.7386 26.0247 23.81 26.069C23.8815 26.1132 23.964 26.1366 24.0482 26.1364C24.1203 26.1343 24.1909 26.116 24.2548 26.0828C24.3073 26.0564 24.3539 26.0198 24.3919 25.9752C24.4299 25.9306 24.4585 25.8789 24.4761 25.8231C24.4937 25.7672 24.4999 25.7085 24.4942 25.6503C24.4886 25.5921 24.4714 25.5355 24.4434 25.4841C23.9889 24.5904 23.2919 23.8413 22.4314 23.3215H22.3686C22.6712 22.9723 23.0256 22.671 23.4195 22.4279C24.1415 21.998 24.9672 21.771 25.8087 21.771C26.6502 21.771 27.4759 21.998 28.198 22.4279C28.9106 22.8609 29.4912 23.4788 29.8776 24.2152C29.9159 24.2887 29.974 24.3502 30.0453 24.3928C30.1167 24.4354 30.1986 24.4574 30.2818 24.4564C30.3466 24.4731 30.4146 24.4731 30.4794 24.4564C30.5327 24.4308 30.5801 24.3948 30.6191 24.3506C30.658 24.3063 30.6876 24.2547 30.706 24.1988C30.7245 24.1429 30.7314 24.0839 30.7264 24.0253C30.7214 23.9667 30.7046 23.9097 30.677 23.8577C30.2508 22.9459 29.5753 22.1718 28.7279 21.6237V21.6237ZM19.638 17.9688C20.0938 17.9563 20.5431 18.0795 20.9281 18.3226C21.3131 18.5657 21.6165 18.9176 21.7993 19.3333C21.982 19.749 22.0359 20.2094 21.9541 20.6558C21.8722 21.1021 21.6583 21.5139 21.3397 21.8386C21.0211 22.1632 20.6123 22.3858 20.1658 22.4779C19.7193 22.57 19.2553 22.5274 18.8332 22.3555C18.4112 22.1837 18.0503 21.8904 17.7968 21.5132C17.5433 21.1361 17.4088 20.6922 17.4104 20.2386C17.4056 19.6444 17.637 19.0724 18.0543 18.6472C18.4715 18.222 19.0408 17.9782 19.638 17.9688V17.9688ZM11.5002 18.5586C11.509 18.1205 11.6477 17.6948 11.8987 17.3348C12.1498 16.9748 12.5021 16.6965 12.9115 16.535C13.3209 16.3734 13.7691 16.3356 14.1999 16.4265C14.6308 16.5173 15.0251 16.7327 15.3334 17.0456C15.6417 17.3585 15.8503 17.7549 15.933 18.1853C16.0157 18.6157 15.9689 19.0608 15.7984 19.4647C15.6279 19.8687 15.3412 20.2136 14.9745 20.4562C14.6077 20.6988 14.1771 20.8283 13.7367 20.8283C13.138 20.8213 12.5664 20.5784 12.1472 20.153C11.728 19.7276 11.4954 19.1543 11.5002 18.5586V18.5586ZM16.5841 21.6326C16.2503 21.4323 15.8947 21.2704 15.5242 21.15C15.9577 20.8341 16.3064 20.4167 16.5391 19.9347C16.5391 20.042 16.5391 20.1403 16.5391 20.2475C16.5397 20.8348 16.7045 21.4103 17.0152 21.9096C16.8778 21.8052 16.7338 21.7097 16.5841 21.6237V21.6326ZM23.644 18.5586C23.6529 18.1201 23.7918 17.694 24.0432 17.3338C24.2947 16.9737 24.6475 16.6955 25.0574 16.5341C25.4673 16.3728 25.916 16.3356 26.3471 16.4272C26.7782 16.5187 27.1724 16.735 27.4804 17.0488C27.7883 17.3626 27.9962 17.7599 28.0779 18.1908C28.1596 18.6218 28.1115 19.0671 27.9396 19.4709C27.7677 19.8748 27.4797 20.2191 27.1118 20.4606C26.7438 20.7021 26.3124 20.83 25.8716 20.8283C25.5755 20.8248 25.283 20.7634 25.0108 20.6474C24.7387 20.5314 24.4921 20.3633 24.2852 20.1525C24.0784 19.9417 23.9153 19.6925 23.8053 19.419C23.6953 19.1455 23.6405 18.8531 23.644 18.5586Z" fill="#EDF2F7"/>
<path d="M16.1098 4.85768L13.0808 10.8441L13.8831 11.2459L16.9121 5.25948L16.1098 4.85768Z" fill="#EDF2F7"/>
</svg>
