<svg width="26" height="27" viewBox="0 0 26 27" fill="none" xmlns="http://www.w3.org/2000/svg">
<path d="M23.7071 2.1336H20.1951V0.730624C20.1951 0.548132 20.1223 0.373115 19.9925 0.244074C19.8628 0.115033 19.6869 0.0425415 19.5035 0.0425415C19.3201 0.0425415 19.1441 0.115033 19.0144 0.244074C18.8847 0.373115 18.8119 0.548132 18.8119 0.730624V2.1336H7.59317V0.730624C7.59317 0.548132 7.5203 0.373115 7.3906 0.244074C7.26089 0.115033 7.08498 0.0425415 6.90155 0.0425415C6.71812 0.0425415 6.5422 0.115033 6.41249 0.244074C6.28279 0.373115 6.20992 0.548132 6.20992 0.730624V2.1336H2.71587C2.48671 2.13124 2.25935 2.17411 2.04695 2.25972C1.83455 2.34534 1.64131 2.472 1.47843 2.63239C1.31554 2.79278 1.18625 2.9837 1.09801 3.19412C1.00977 3.40455 0.964343 3.63028 0.964355 3.85828V24.751C0.964355 25.2108 1.14794 25.6518 1.47473 25.9769C1.80152 26.302 2.24474 26.4847 2.70689 26.4847H23.7071C24.1693 26.4847 24.6125 26.302 24.9393 25.9769C25.2661 25.6518 25.4497 25.2108 25.4497 24.751V3.85828C25.4497 3.63104 25.4045 3.40604 25.3169 3.1962C25.2292 2.98637 25.1007 2.79585 24.9388 2.63558C24.7768 2.47531 24.5847 2.34846 24.3733 2.26231C24.162 2.17617 23.9355 2.13242 23.7071 2.1336V2.1336ZM2.71587 3.50084H6.2189V4.90381C6.2189 5.08631 6.29178 5.26132 6.42148 5.39036C6.55119 5.5194 6.7271 5.5919 6.91053 5.5919C7.09396 5.5919 7.26988 5.5194 7.39959 5.39036C7.52929 5.26132 7.60216 5.08631 7.60216 4.90381V3.50084H18.8208V4.90381C18.8208 5.08631 18.8937 5.26132 19.0234 5.39036C19.1531 5.5194 19.329 5.5919 19.5125 5.5919C19.6959 5.5919 19.8718 5.5194 20.0015 5.39036C20.1312 5.26132 20.2041 5.08631 20.2041 4.90381V3.50084H23.7161C23.8114 3.50084 23.9028 3.53849 23.9702 3.60553C24.0376 3.67256 24.0754 3.76348 24.0754 3.85828V8.39786H2.3476V3.85828C2.34758 3.81058 2.35716 3.76336 2.37578 3.7194C2.39439 3.67544 2.42166 3.63563 2.45598 3.60232C2.4903 3.56901 2.53099 3.54287 2.57562 3.52544C2.62025 3.50801 2.66794 3.49964 2.71587 3.50084V3.50084ZM23.7161 25.1085H2.71587C2.62058 25.1085 2.5292 25.0708 2.46182 25.0038C2.39444 24.9368 2.35659 24.8458 2.35659 24.751V9.77403H24.0754V24.751C24.0754 24.7987 24.0658 24.846 24.0472 24.8899C24.0286 24.9339 24.0013 24.9737 23.967 25.007C23.9327 25.0403 23.892 25.0665 23.8474 25.0839C23.8028 25.1013 23.7551 25.1097 23.7071 25.1085H23.7161Z" fill="#EDF2F7"/>
<path d="M17.3113 13.6879L12.1555 19.0496L9.33511 16.1364C9.27149 16.0713 9.1954 16.0195 9.11131 15.9842C9.02723 15.9488 8.93687 15.9306 8.84559 15.9306C8.75431 15.9306 8.66395 15.9488 8.57986 15.9842C8.49578 16.0195 8.41968 16.0713 8.35606 16.1364C8.29086 16.1989 8.23901 16.2739 8.20359 16.3568C8.16817 16.4397 8.1499 16.5289 8.1499 16.619C8.1499 16.7091 8.16817 16.7982 8.20359 16.8812C8.23901 16.9641 8.29086 17.039 8.35606 17.1015L12.1825 21.0513L18.3083 14.5815C18.3726 14.5176 18.4237 14.4417 18.4585 14.3581C18.4934 14.2746 18.5113 14.185 18.5113 14.0945C18.5113 14.004 18.4934 13.9145 18.4585 13.8309C18.4237 13.7473 18.3726 13.6714 18.3083 13.6075C18.2379 13.5468 18.156 13.5007 18.0675 13.4718C17.979 13.443 17.8856 13.432 17.7928 13.4395C17.7 13.447 17.6096 13.4728 17.5269 13.5155C17.4442 13.5581 17.3709 13.6167 17.3113 13.6879V13.6879Z" fill="#EDF2F7"/>
</svg>
