<svg width="19" height="32" viewBox="0 0 19 32" fill="none" xmlns="http://www.w3.org/2000/svg">
<path d="M18.5215 8.97871C18.5215 6.60869 17.5752 4.33574 15.8907 2.65989C14.2063 0.984028 11.9216 0.0425415 9.5394 0.0425415C7.15718 0.0425415 4.87253 0.984028 3.18805 2.65989C1.50357 4.33574 0.557251 6.60869 0.557251 8.97871C0.843049 13.5779 2.49699 17.9886 5.30881 21.6502C5.00233 21.9634 4.83143 22.3837 4.83276 22.8208V28.817C4.83276 29.2649 5.01161 29.6945 5.32997 30.0113C5.64834 30.328 6.08013 30.5059 6.53037 30.5059H7.76991V30.8366C7.76873 30.9652 7.79317 31.0929 7.84184 31.2121C7.89051 31.3313 7.96245 31.4397 8.05348 31.5311C8.14451 31.6225 8.25285 31.6951 8.37222 31.7446C8.49159 31.7941 8.61963 31.8196 8.74896 31.8196H10.3029C10.4348 31.8183 10.5655 31.7941 10.6891 31.7481C10.8058 31.6956 10.9122 31.623 11.0035 31.5336C11.1011 31.4459 11.1752 31.3353 11.2191 31.2119C11.273 31.0941 11.3006 30.966 11.2999 30.8366V30.5059H12.5484C12.9987 30.5059 13.4304 30.328 13.7488 30.0113C14.0672 29.6945 14.246 29.2649 14.246 28.817V22.8476C14.2474 22.4105 14.0765 21.9903 13.77 21.677C16.5868 18.0079 18.241 13.5871 18.5215 8.97871V8.97871ZM12.773 26.2881L6.29685 28.3345V27.3247L12.773 25.2872V26.2881ZM6.29685 22.8208C6.29681 22.7607 6.32017 22.703 6.36204 22.6596C6.40391 22.6163 6.46104 22.5908 6.52141 22.5885H11.9107L6.30582 24.3757L6.29685 22.8208ZM12.773 24.3042L6.29685 26.3417V25.3676L12.773 23.3213V24.3042ZM4.01538 3.4919C5.10675 2.39968 6.49959 1.65454 8.01724 1.35101C9.5349 1.04748 11.109 1.19924 12.5398 1.78702C13.9706 2.37481 15.1938 3.37214 16.054 4.65252C16.9143 5.9329 17.373 7.43862 17.3718 8.97871C17.3718 12.3208 15.3419 18.2455 12.6921 21.1319H6.40464C3.70999 18.2455 1.73391 12.3208 1.73391 8.97871C1.73397 7.96397 1.93557 6.95925 2.32709 6.02225C2.71862 5.08525 3.29236 4.23444 4.01538 3.51871V3.4919ZM12.5484 29.0404H7.15913L12.764 27.2532V28.7991C12.7706 28.8312 12.77 28.8644 12.7623 28.8962C12.7546 28.9281 12.7399 28.9578 12.7193 28.9834C12.6988 29.009 12.6728 29.0298 12.6432 29.0442C12.6137 29.0587 12.5813 29.0666 12.5484 29.0672V29.0404Z" fill="#EDF2F7"/>
<path d="M8.05769 11.0163C7.98405 11.06 7.9267 11.1264 7.89429 11.2054C7.86188 11.2844 7.85618 11.3717 7.87804 11.4542C7.90146 11.5384 7.95184 11.6128 8.02153 11.666C8.09122 11.7192 8.17642 11.7484 8.26426 11.7491H10.2763L7.19541 14.8142C7.14054 14.8692 7.10321 14.939 7.08812 15.0151C7.07304 15.0911 7.08088 15.1698 7.11063 15.2414C7.14037 15.313 7.19071 15.3743 7.25533 15.4175C7.31995 15.4607 7.39598 15.484 7.47386 15.4844H11.5068C11.6116 15.4844 11.7122 15.443 11.7863 15.3692C11.8604 15.2955 11.902 15.1955 11.902 15.0912C11.902 14.9869 11.8604 14.8869 11.7863 14.8132C11.7122 14.7394 11.6116 14.698 11.5068 14.698H8.39002L11.5158 11.6418C11.5712 11.5863 11.6087 11.5156 11.6235 11.4388C11.6384 11.3619 11.6298 11.2824 11.5989 11.2105C11.568 11.1385 11.5163 11.0773 11.4503 11.0348C11.3843 10.9922 11.307 10.9702 11.2284 10.9716H9.69245L13.3392 8.81802C13.4125 8.77177 13.4694 8.7037 13.5016 8.6235C13.5339 8.54329 13.5399 8.45502 13.5188 8.37121C13.4955 8.28935 13.4461 8.21724 13.3781 8.16568C13.3101 8.11412 13.2271 8.08589 13.1416 8.08525H5.95587C5.90363 8.08403 5.85169 8.09337 5.80319 8.11269C5.75468 8.13202 5.71062 8.16094 5.67367 8.1977C5.63672 8.23445 5.60766 8.27829 5.58823 8.32654C5.5688 8.3748 5.55942 8.42648 5.56065 8.47844C5.56065 8.58272 5.60229 8.68273 5.67641 8.75647C5.75053 8.83021 5.85105 8.87164 5.95587 8.87164H11.7224L8.05769 11.0163Z" fill="#EDF2F7"/>
</svg>
