<svg width="33" height="27" viewBox="0 0 33 27" fill="none" xmlns="http://www.w3.org/2000/svg">
<path d="M17.6112 5.4049H20.4765C20.525 5.40542 20.573 5.39619 20.6178 5.37776C20.6626 5.35933 20.7031 5.33208 20.737 5.29766C20.7693 5.26454 20.7947 5.22537 20.8117 5.18241C20.8286 5.13946 20.8368 5.09359 20.8358 5.04745C20.8343 4.95493 20.7992 4.86609 20.737 4.79724C20.666 4.73155 20.5735 4.69349 20.4765 4.69H17.6112C17.5165 4.69135 17.4261 4.72989 17.3597 4.79724C17.3258 4.82962 17.2988 4.86846 17.2803 4.91144C17.2618 4.95443 17.2521 5.00068 17.252 5.04745C17.2542 5.14154 17.2928 5.23114 17.3597 5.29769C17.4266 5.36424 17.5167 5.40263 17.6112 5.4049V5.4049Z" fill="#EDF2F7"/>
<path d="M21.9135 5.4049H25.5064C25.5548 5.40542 25.6029 5.39619 25.6476 5.37776C25.6924 5.35933 25.733 5.33208 25.7669 5.29766C25.7992 5.26454 25.8245 5.22537 25.8415 5.18241C25.8584 5.13946 25.8667 5.09359 25.8657 5.04745C25.8641 4.95493 25.829 4.86609 25.7669 4.79724C25.6958 4.73155 25.6033 4.69349 25.5064 4.69H21.9135C21.8192 4.69317 21.7294 4.73144 21.662 4.79724C21.6281 4.82962 21.6011 4.86846 21.5826 4.91144C21.564 4.95443 21.5544 5.00068 21.5542 5.04745C21.5527 5.09446 21.5616 5.14123 21.5802 5.18446C21.5989 5.22769 21.6268 5.26633 21.662 5.29766C21.6942 5.33183 21.7332 5.359 21.7765 5.37745C21.8198 5.39591 21.8664 5.40525 21.9135 5.4049V5.4049Z" fill="#EDF2F7"/>
<path d="M28.3715 4.68977H26.9703C26.8759 4.69294 26.7862 4.73121 26.7188 4.797C26.6849 4.82938 26.6578 4.86822 26.6393 4.91121C26.6208 4.9542 26.6112 5.00045 26.611 5.04722C26.6095 5.09423 26.6184 5.14099 26.637 5.18423C26.6556 5.22746 26.6835 5.2661 26.7188 5.29743C26.751 5.3316 26.79 5.35876 26.8333 5.37722C26.8765 5.39567 26.9232 5.40502 26.9703 5.40466H28.4074C28.4545 5.40502 28.5012 5.39567 28.5445 5.37722C28.5877 5.35876 28.6267 5.3316 28.6589 5.29743C28.6942 5.2661 28.7221 5.22746 28.7407 5.18423C28.7594 5.14099 28.7682 5.09423 28.7667 5.04722C28.7665 5.00045 28.7569 4.9542 28.7384 4.91121C28.7199 4.86822 28.6929 4.82938 28.6589 4.797C28.6213 4.76009 28.5762 4.73146 28.5267 4.71298C28.4772 4.69451 28.4243 4.6866 28.3715 4.68977V4.68977Z" fill="#EDF2F7"/>
<path d="M17.6112 7.1834H19.0484C19.1424 7.17859 19.2316 7.14056 19.2999 7.07617C19.366 7.00912 19.4045 6.91984 19.4077 6.82595C19.4063 6.73167 19.3676 6.64174 19.2999 6.57574C19.2673 6.54199 19.2283 6.51511 19.1851 6.49668C19.1419 6.47826 19.0954 6.46868 19.0484 6.46851H17.6112C17.5167 6.47077 17.4266 6.50917 17.3597 6.57572C17.2928 6.64226 17.2542 6.73187 17.252 6.82595C17.2516 6.8728 17.261 6.91921 17.2796 6.96228C17.2981 7.00534 17.3254 7.04411 17.3597 7.07617C17.4261 7.14351 17.5165 7.18206 17.6112 7.1834V7.1834Z" fill="#EDF2F7"/>
<path d="M20.4765 6.46852C20.4295 6.46869 20.383 6.47827 20.3398 6.49669C20.2966 6.51512 20.2575 6.542 20.225 6.57575C20.1573 6.64175 20.1185 6.73168 20.1172 6.82596C20.1204 6.91985 20.1588 7.00913 20.225 7.07618C20.2933 7.14057 20.3825 7.1786 20.4765 7.18341H23.3777C23.4721 7.18024 23.5618 7.14197 23.6292 7.07618C23.6636 7.04412 23.6909 7.00535 23.7094 6.96228C23.728 6.91922 23.7373 6.87281 23.737 6.82596C23.7385 6.77895 23.7296 6.73218 23.711 6.68895C23.6924 6.64572 23.6645 6.60708 23.6292 6.57575C23.597 6.54158 23.558 6.51442 23.5147 6.49596C23.4715 6.47751 23.4248 6.46816 23.3777 6.46852H20.4765Z" fill="#EDF2F7"/>
<path d="M28.3719 6.4681H24.779C24.7306 6.46758 24.6826 6.47681 24.6378 6.49524C24.593 6.51367 24.5525 6.54091 24.5185 6.57534C24.4863 6.60846 24.4609 6.64763 24.4439 6.69058C24.427 6.73354 24.4188 6.77941 24.4198 6.82555C24.4196 6.91839 24.4549 7.00782 24.5185 7.07576C24.5896 7.14145 24.6821 7.17951 24.779 7.183H28.3719C28.4663 7.17982 28.556 7.14156 28.6234 7.07576C28.6577 7.04371 28.6851 7.00493 28.7036 6.96187C28.7222 6.91881 28.7315 6.8724 28.7312 6.82555C28.7327 6.77854 28.7238 6.73177 28.7052 6.68854C28.6866 6.64531 28.6587 6.60667 28.6234 6.57534C28.5912 6.54117 28.5522 6.514 28.5089 6.49555C28.4656 6.47709 28.419 6.46775 28.3719 6.4681V6.4681Z" fill="#EDF2F7"/>
<path d="M21.4554 9.20279C21.4877 9.16966 21.5131 9.13049 21.53 9.08754C21.547 9.04459 21.5552 8.9987 21.5542 8.95257C21.5526 8.86005 21.5175 8.7712 21.4554 8.70236C21.3834 8.63922 21.2909 8.60428 21.1949 8.60406H17.6021C17.5553 8.60286 17.5088 8.611 17.4653 8.62798C17.4217 8.64496 17.382 8.67044 17.3486 8.70292C17.3151 8.7354 17.2885 8.77423 17.2703 8.81711C17.2521 8.85998 17.2428 8.90604 17.2428 8.95257C17.2451 9.04665 17.2837 9.13626 17.3506 9.20281C17.4174 9.26936 17.5075 9.30775 17.6021 9.31002H21.1949C21.2434 9.31054 21.2914 9.30131 21.3362 9.28288C21.381 9.26445 21.4215 9.23721 21.4554 9.20279V9.20279Z" fill="#EDF2F7"/>
<path d="M26.2158 8.60406H22.623C22.5762 8.60286 22.5297 8.611 22.4861 8.62798C22.4426 8.64496 22.4029 8.67044 22.3694 8.70292C22.3359 8.7354 22.3093 8.77423 22.2912 8.81711C22.273 8.85998 22.2637 8.90604 22.2637 8.95257C22.266 9.04665 22.3045 9.13626 22.3714 9.20281C22.4383 9.26936 22.5284 9.30775 22.623 9.31002H26.2158C26.3104 9.30775 26.4004 9.26936 26.4673 9.20281C26.5342 9.13626 26.5728 9.04665 26.5751 8.95257C26.5751 8.90604 26.5658 8.85998 26.5476 8.81711C26.5294 8.77423 26.5028 8.7354 26.4693 8.70292C26.4359 8.67044 26.3962 8.64496 26.3526 8.62798C26.3091 8.611 26.2626 8.60286 26.2158 8.60406V8.60406Z" fill="#EDF2F7"/>
<path d="M28.3716 8.60406H27.653C27.6063 8.60286 27.5597 8.611 27.5162 8.62798C27.4726 8.64496 27.433 8.67044 27.3995 8.70292C27.366 8.7354 27.3394 8.77423 27.3212 8.81711C27.3031 8.85998 27.2937 8.90604 27.2937 8.95257C27.296 9.04665 27.3346 9.13626 27.4015 9.20281C27.4684 9.26936 27.5584 9.30775 27.653 9.31002H28.3716C28.4187 9.31037 28.4653 9.30102 28.5086 9.28257C28.5519 9.26411 28.5909 9.23695 28.6231 9.20279C28.6583 9.17145 28.6863 9.13281 28.7049 9.08958C28.7235 9.04635 28.7324 8.99958 28.7308 8.95257C28.7307 8.9058 28.7211 8.85955 28.7025 8.81656C28.684 8.77357 28.657 8.73473 28.6231 8.70236C28.5548 8.63907 28.4649 8.60394 28.3716 8.60406V8.60406Z" fill="#EDF2F7"/>
<path d="M22.9915 10.3733H20.4765C20.4295 10.3735 20.383 10.3831 20.3398 10.4015C20.2966 10.4199 20.2575 10.4468 20.225 10.4805C20.1573 10.5465 20.1185 10.6365 20.1172 10.7307C20.1204 10.8246 20.1588 10.9139 20.225 10.981C20.2933 11.0454 20.3825 11.0834 20.4765 11.0882H22.9915C23.0859 11.085 23.1756 11.0468 23.243 10.981C23.2773 10.9489 23.3046 10.9101 23.3232 10.8671C23.3417 10.824 23.3511 10.7776 23.3508 10.7307C23.3523 10.6837 23.3434 10.637 23.3248 10.5937C23.3062 10.5505 23.2782 10.5119 23.243 10.4805C23.2108 10.4464 23.1718 10.4192 23.1285 10.4007C23.0852 10.3823 23.0386 10.3729 22.9915 10.3733Z" fill="#EDF2F7"/>
<path d="M12.1408 23.2683H2.18865C2.00388 23.2672 1.8207 23.3024 1.64966 23.3719C1.47862 23.4414 1.32309 23.5439 1.19202 23.6735C1.06096 23.803 0.956928 23.9571 0.88595 24.1268C0.814971 24.2965 0.778439 24.4786 0.778442 24.6624V25.1271C0.778442 25.4992 0.927013 25.856 1.19148 26.1191C1.45594 26.3822 1.81464 26.53 2.18865 26.53H12.1408C12.5149 26.53 12.8736 26.3822 13.138 26.1191C13.4025 25.856 13.5511 25.4992 13.5511 25.1271V24.6624C13.5511 24.4786 13.5145 24.2965 13.4435 24.1268C13.3726 23.9571 13.2685 23.803 13.1375 23.6735C13.0064 23.5439 12.8509 23.4414 12.6798 23.3719C12.5088 23.3024 12.3256 23.2672 12.1408 23.2683V23.2683ZM12.7606 25.1271C12.7606 25.2906 12.6953 25.4474 12.5791 25.5631C12.4629 25.6787 12.3052 25.7437 12.1408 25.7437H2.18865C2.02427 25.7437 1.86662 25.6787 1.75039 25.5631C1.63416 25.4474 1.56888 25.2906 1.56888 25.1271V24.6624C1.56887 24.5818 1.58496 24.5021 1.61621 24.4278C1.64747 24.3534 1.69327 24.2861 1.75094 24.2295C1.80861 24.173 1.877 24.1284 1.95214 24.0984C2.02728 24.0684 2.10768 24.0535 2.18865 24.0547H12.1408C12.2218 24.0535 12.3022 24.0684 12.3774 24.0984C12.4525 24.1284 12.5209 24.173 12.5786 24.2295C12.6362 24.2861 12.682 24.3534 12.7133 24.4278C12.7445 24.5021 12.7606 24.5818 12.7606 24.6624V25.1271Z" fill="#EDF2F7"/>
<path d="M31.8389 1.56248C31.3524 1.10463 30.712 0.843401 30.0425 0.829712H16.3357C16.0152 0.838875 15.6998 0.9114 15.4078 1.04307C15.1157 1.17473 14.8529 1.36291 14.6348 1.59662C14.4166 1.83033 14.2473 2.10491 14.1369 2.40435C14.0264 2.7038 13.9769 3.02212 13.9914 3.34077V6.84376L13.5961 6.4595C13.3443 6.2139 13.0057 6.07633 12.653 6.07633C12.3004 6.07633 11.9618 6.2139 11.7099 6.4595L11.3955 6.7812C11.1533 7.0175 11.0118 7.33749 11.0003 7.67481C11.001 7.87421 11.0504 8.07046 11.144 8.24674L5.41342 13.9301C5.16585 13.8088 4.88627 13.7676 4.61399 13.8125C4.34172 13.8574 4.09043 13.986 3.89543 14.1804L3.57209 14.4931C3.32362 14.741 3.18408 15.0768 3.18408 15.4269C3.18408 15.777 3.32362 16.1129 3.57209 16.3608L7.80267 20.5518C7.92561 20.6767 8.07234 20.7758 8.23429 20.8435C8.39624 20.9112 8.57012 20.9461 8.74579 20.9461C8.92145 20.9461 9.09536 20.9112 9.25731 20.8435C9.41925 20.7758 9.56599 20.6767 9.68893 20.5518L10.0123 20.2391C10.252 20.0019 10.3904 19.6817 10.3985 19.3455C10.4009 19.1468 10.3547 18.9505 10.2638 18.7735L12.0602 16.9863L13.9375 18.8361V21.2042C13.9227 21.5095 13.9748 21.8145 14.0902 22.0978C14.1979 22.3934 14.3696 22.6619 14.5932 22.8842C14.8136 23.1084 15.076 23.2875 15.3656 23.4114C15.6511 23.5266 15.9558 23.5872 16.2638 23.5901H18.7339L21.6531 26.4765C21.8619 26.6833 22.1445 26.7995 22.4391 26.7995C22.7337 26.7995 23.0163 26.6833 23.225 26.4765L23.701 26.0029C23.9112 25.7943 24.0306 25.5119 24.0334 25.2165C24.0343 25.0712 24.0053 24.9273 23.9482 24.7936C23.891 24.6598 23.8069 24.5392 23.701 24.4391L22.8478 23.5455H23.4855C23.5786 23.5426 23.6702 23.5214 23.755 23.4829C23.8427 23.4451 23.922 23.3904 23.9885 23.322L32.1982 15.2795C32.3239 15.1276 32.5575 14.9578 32.5575 14.7701V3.34077C32.5552 2.67843 32.298 2.0421 31.8389 1.56248V1.56248ZM11.9524 7.33524L12.2668 7.01354C12.3725 6.91752 12.5099 6.86346 12.653 6.86163C12.7968 6.85988 12.9355 6.91444 13.0392 7.01354L13.9914 7.95184L15.4195 9.38163L17.2788 11.1689C17.3768 11.2731 17.4314 11.4104 17.4315 11.5531C17.4322 11.6226 17.419 11.6915 17.3928 11.7559C17.3666 11.8203 17.3279 11.879 17.2788 11.9284L16.9555 12.2501C16.8517 12.3495 16.7133 12.405 16.5693 12.405C16.4252 12.405 16.2868 12.3495 16.183 12.2501L15.4195 11.4906L13.9914 10.0786L11.9524 8.05907C11.9011 8.00899 11.8603 7.9492 11.8325 7.88321C11.8048 7.81721 11.7906 7.74636 11.7907 7.67481C11.7983 7.54503 11.8562 7.42324 11.9524 7.33524ZM9.48233 19.685L9.15898 19.9978C9.10876 20.0491 9.04871 20.0899 8.98237 20.1178C8.91603 20.1457 8.84474 20.16 8.77273 20.16C8.70072 20.16 8.62945 20.1457 8.56312 20.1178C8.49678 20.0899 8.43672 20.0491 8.38651 19.9978L4.15592 15.8067C4.10687 15.7573 4.06812 15.6986 4.04192 15.6342C4.01571 15.5698 4.00255 15.5009 4.00321 15.4314C4.00332 15.2887 4.05791 15.1514 4.15592 15.0472L4.5152 14.7433C4.56386 14.6925 4.62239 14.652 4.68724 14.6244C4.75208 14.5967 4.82191 14.5825 4.89247 14.5825C4.96453 14.5813 5.03604 14.5949 5.10252 14.6226C5.169 14.6503 5.229 14.6914 5.27869 14.7433L9.51826 18.9344C9.568 18.9852 9.6071 19.0453 9.63331 19.1113C9.65952 19.1773 9.6723 19.2477 9.67094 19.3186C9.66581 19.3892 9.64647 19.458 9.61407 19.5209C9.58166 19.5839 9.53686 19.6397 9.48233 19.685V19.685ZM9.78772 18.1212L6.06013 14.4306L11.638 8.89907L13.9914 11.2225L15.3746 12.5986L13.9914 13.9659L9.78772 18.1212ZM16.3267 22.1335C16.2006 22.1323 16.0758 22.1081 15.9584 22.0621C15.7859 21.9879 15.6412 21.8618 15.5445 21.7015C15.4478 21.5412 15.4041 21.3548 15.4195 21.1684V20.1944L17.3686 22.1335H16.3267ZM23.216 24.9574C23.2459 24.9865 23.2696 25.0212 23.2858 25.0596C23.3021 25.098 23.3104 25.1392 23.3104 25.1808C23.3104 25.2224 23.3021 25.2636 23.2858 25.3019C23.2696 25.3403 23.2459 25.3751 23.216 25.4042L22.731 25.8867C22.6682 25.9432 22.5866 25.9745 22.5019 25.9745C22.4173 25.9745 22.3357 25.9432 22.2729 25.8867L19.9196 23.5544L18.4824 22.1335L15.4105 19.0863L13.9824 17.6744L12.8686 16.5306L13.7668 15.6369L13.9554 15.8246L15.3836 17.2365L16.9285 18.7646L17.719 19.5421L18.3836 20.2123L19.1741 20.9897L20.3238 22.1335L21.7609 23.5544L23.216 24.9574ZM17.7549 18.4429V15.4403C17.7549 15.4072 17.7681 15.3753 17.7917 15.3519C17.8153 15.3284 17.8473 15.3152 17.8806 15.3152H20.7549C20.7891 15.3152 20.8221 15.3281 20.8471 15.3513C20.8722 15.3745 20.8874 15.4064 20.8897 15.4403V20.105C20.8874 20.139 20.8722 20.1708 20.8471 20.1941C20.8221 20.2173 20.7891 20.2302 20.7549 20.2301H19.5423L17.7549 18.4429ZM24.0424 21.3829V16.5306C24.0264 16.3485 24.0476 16.1652 24.1046 15.9915C24.1615 15.8178 24.2531 15.6573 24.3739 15.5196C24.4946 15.382 24.6421 15.27 24.8074 15.1903C24.9727 15.1107 25.1524 15.065 25.3358 15.0561H30.5634L24.0424 21.3829ZM31.2281 8.87226V14.2965H25.3538C25.0698 14.3031 24.7901 14.3669 24.5316 14.484C24.2731 14.6011 24.0411 14.7692 23.8497 14.978C23.6583 15.1868 23.5115 15.432 23.418 15.6988C23.3245 15.9657 23.2864 16.2486 23.3059 16.5306V22.071L23.243 22.1335H21.4465L20.3327 20.9986H20.7549C20.9931 20.9986 21.2216 20.9045 21.3901 20.7369C21.5585 20.5693 21.6531 20.342 21.6531 20.105V15.4582C21.6531 15.2212 21.5585 14.9939 21.3901 14.8263C21.2216 14.6588 20.9931 14.5646 20.7549 14.5646H17.8806C17.6424 14.5646 17.4139 14.6588 17.2455 14.8263C17.077 14.9939 16.9824 15.2212 16.9824 15.4582V17.6744L15.4375 16.1463V13.6621L16.0123 13.0901C16.1909 13.1786 16.3877 13.2245 16.5872 13.2242C16.7621 13.225 16.9354 13.1915 17.0972 13.1255C17.2591 13.0596 17.4062 12.9625 17.5303 12.8399L17.8537 12.5272C18.0379 12.3417 18.1634 12.1065 18.2145 11.8507C18.2656 11.595 18.2401 11.3299 18.1411 11.0884H19.0393C19.1333 11.0836 19.2225 11.0456 19.2908 10.9812C19.357 10.9142 19.3954 10.8249 19.3986 10.731C19.3973 10.6367 19.3585 10.5468 19.2908 10.4808C19.2583 10.447 19.2192 10.4201 19.176 10.4017C19.1328 10.3833 19.0863 10.3737 19.0393 10.3735H17.5573L15.4105 8.24674V3.33184C15.3944 3.20104 15.4051 3.06833 15.4419 2.94176C15.4788 2.81518 15.5411 2.69737 15.6251 2.59545C15.709 2.49353 15.8129 2.40961 15.9305 2.3488C16.048 2.28798 16.1767 2.25152 16.3088 2.24163H29.9885C30.2868 2.25022 30.5715 2.36794 30.788 2.57226C31.0087 2.76772 31.1467 3.03915 31.1742 3.33184L31.2281 8.87226Z" fill="#EDF2F7"/>
</svg>
