<svg width="31" height="29" viewBox="0 0 31 29" fill="none" xmlns="http://www.w3.org/2000/svg">
<path d="M20.3892 22.5348H21.2875C21.3872 22.5319 21.4827 22.4939 21.5569 22.4276C21.6272 22.3558 21.6664 22.2596 21.6664 22.1595C21.6664 22.0593 21.6272 21.9632 21.5569 21.8914C21.4827 21.8251 21.3872 21.7871 21.2875 21.7842H20.3892C20.2895 21.7871 20.194 21.8251 20.1198 21.8914C20.0495 21.9632 20.0103 22.0593 20.0103 22.1595C20.0103 22.2596 20.0495 22.3558 20.1198 22.4276C20.194 22.4939 20.2895 22.5319 20.3892 22.5348V22.5348Z" fill="#EDF2F7"/>
<path d="M12.88 16.4496C12.9466 16.3757 12.9848 16.2807 12.9878 16.1815V15.2879C12.9848 15.1886 12.9466 15.0937 12.88 15.0198C12.8444 14.9851 12.8023 14.9578 12.756 14.9393C12.7098 14.9209 12.6603 14.9118 12.6105 14.9125C12.5619 14.9109 12.5136 14.9197 12.4686 14.9382C12.4237 14.9567 12.3833 14.9845 12.35 15.0198C12.2772 15.0904 12.2352 15.1867 12.2333 15.2879V16.1815C12.2352 16.2827 12.2772 16.379 12.35 16.4496C12.3833 16.4849 12.4237 16.5127 12.4686 16.5312C12.5136 16.5497 12.5619 16.5584 12.6105 16.5568C12.6603 16.5575 12.7098 16.5484 12.756 16.53C12.8023 16.5116 12.8444 16.4843 12.88 16.4496Z" fill="#EDF2F7"/>
<path d="M14.7571 16.4494C14.7919 16.414 14.8194 16.3721 14.8379 16.3261C14.8564 16.2801 14.8656 16.2309 14.8649 16.1813V11.5166C14.8661 11.467 14.8572 11.4176 14.8387 11.3716C14.8201 11.3255 14.7924 11.2836 14.7571 11.2485C14.7218 11.2134 14.6797 11.1858 14.6334 11.1674C14.5871 11.1489 14.5375 11.1401 14.4876 11.1413C14.439 11.1397 14.3906 11.1484 14.3457 11.1669C14.3008 11.1854 14.2604 11.2132 14.2271 11.2485C14.1542 11.3191 14.1123 11.4154 14.1104 11.5166V16.1813C14.1123 16.2825 14.1542 16.3788 14.2271 16.4494C14.2604 16.4847 14.3008 16.5125 14.3457 16.531C14.3906 16.5495 14.439 16.5582 14.4876 16.5566C14.5374 16.5573 14.5869 16.5482 14.6331 16.5298C14.6794 16.5114 14.7215 16.4841 14.7571 16.4494Z" fill="#EDF2F7"/>
<path d="M16.2931 16.4494C16.3264 16.4847 16.3668 16.5126 16.4117 16.531C16.4567 16.5495 16.505 16.5583 16.5536 16.5567C16.6035 16.5579 16.6531 16.549 16.6994 16.5306C16.7458 16.5122 16.7879 16.4846 16.8231 16.4495C16.8584 16.4144 16.8861 16.3725 16.9047 16.3264C16.9232 16.2803 16.9321 16.231 16.9309 16.1813V13.6792C17.0445 13.616 17.1393 13.5241 17.2055 13.4126C17.2718 13.3012 17.3072 13.1742 17.3081 13.0447C17.3058 12.8472 17.2252 12.6586 17.084 12.5197C16.9428 12.3809 16.7522 12.303 16.5536 12.303C16.3559 12.303 16.1663 12.3812 16.0265 12.5203C15.8867 12.6594 15.8081 12.848 15.8081 13.0447C15.8097 13.1718 15.8445 13.2963 15.909 13.406C15.9736 13.5157 16.0657 13.6067 16.1764 13.6703V16.1813C16.1783 16.2825 16.2203 16.3788 16.2931 16.4494V16.4494Z" fill="#EDF2F7"/>
<path d="M18.512 16.4495C18.5469 16.4141 18.5744 16.3722 18.5929 16.3262C18.6114 16.2802 18.6205 16.231 18.6198 16.1814V15.2878C18.6211 15.2382 18.6121 15.1888 18.5936 15.1427C18.5751 15.0966 18.5474 15.0548 18.5121 15.0197C18.4768 14.9846 18.4347 14.957 18.3884 14.9385C18.3421 14.9201 18.2925 14.9112 18.2426 14.9125C18.1941 14.9119 18.1461 14.9212 18.1013 14.9396C18.0566 14.958 18.016 14.9853 17.9821 15.0197C17.9472 15.0551 17.9198 15.097 17.9013 15.143C17.8828 15.189 17.8736 15.2382 17.8743 15.2878V16.1814C17.8736 16.231 17.8828 16.2802 17.9013 16.3262C17.9198 16.3722 17.9472 16.4141 17.9821 16.4495C18.016 16.4839 18.0566 16.5112 18.1013 16.5296C18.1461 16.548 18.1941 16.5572 18.2426 16.5567C18.2924 16.5574 18.3418 16.5483 18.3881 16.5299C18.4343 16.5115 18.4765 16.4842 18.512 16.4495Z" fill="#EDF2F7"/>
<path d="M12.6105 25.2964C12.5132 25.2982 12.4202 25.3365 12.35 25.4036C12.2772 25.4742 12.2352 25.5705 12.2333 25.6717V26.61C12.2344 26.6587 12.2454 26.7068 12.2654 26.7513C12.2855 26.7958 12.3142 26.8359 12.35 26.8691C12.3833 26.9044 12.4237 26.9323 12.4686 26.9508C12.5136 26.9693 12.5619 26.978 12.6105 26.9764C12.6603 26.9771 12.7098 26.968 12.756 26.9496C12.8023 26.9312 12.8444 26.9038 12.88 26.8691C12.946 26.7984 12.9843 26.7064 12.9878 26.61V25.6717C12.989 25.6221 12.9801 25.5727 12.9616 25.5266C12.943 25.4805 12.9153 25.4387 12.88 25.4036C12.8448 25.3685 12.8027 25.3409 12.7563 25.3224C12.71 25.304 12.6604 25.2952 12.6105 25.2964V25.2964Z" fill="#EDF2F7"/>
<path d="M14.4876 25.2963C14.3903 25.2981 14.2973 25.3364 14.2271 25.4035C14.1542 25.4741 14.1123 25.5704 14.1104 25.6716V26.6099C14.1115 26.6586 14.1224 26.7067 14.1425 26.7512C14.1625 26.7957 14.1913 26.8357 14.2271 26.869C14.2604 26.9043 14.3008 26.9322 14.3457 26.9507C14.3906 26.9691 14.439 26.9779 14.4876 26.9763C14.5374 26.977 14.5869 26.9679 14.6331 26.9495C14.6794 26.9311 14.7215 26.9037 14.7571 26.869C14.7917 26.8353 14.8191 26.7949 14.8376 26.7504C14.8561 26.7059 14.8654 26.6581 14.8649 26.6099V25.6716C14.8656 25.622 14.8564 25.5728 14.8379 25.5268C14.8194 25.4808 14.7919 25.4389 14.7571 25.4035C14.6828 25.3372 14.5873 25.2992 14.4876 25.2963V25.2963Z" fill="#EDF2F7"/>
<path d="M16.5538 25.2963C16.4565 25.2981 16.3634 25.3364 16.2933 25.4035C16.2204 25.4741 16.1784 25.5704 16.1765 25.6716V26.6099C16.1777 26.6586 16.1886 26.7067 16.2086 26.7512C16.2287 26.7957 16.2575 26.8357 16.2933 26.869C16.3265 26.9043 16.367 26.9322 16.4119 26.9507C16.4568 26.9691 16.5052 26.9779 16.5538 26.9763C16.6036 26.977 16.653 26.9679 16.6993 26.9495C16.7455 26.9311 16.7877 26.9037 16.8232 26.869C16.8578 26.8353 16.8852 26.7949 16.9037 26.7504C16.9223 26.7059 16.9315 26.6581 16.931 26.6099V25.6716C16.9317 25.622 16.9226 25.5728 16.9041 25.5268C16.8856 25.4808 16.8581 25.4389 16.8232 25.4035C16.749 25.3372 16.6535 25.2992 16.5538 25.2963V25.2963Z" fill="#EDF2F7"/>
<path d="M21.4043 0.936332C20.1223 0.928522 18.8523 1.1831 17.6733 1.68426C16.4943 2.18542 15.4315 2.92244 14.551 3.84952C13.9364 3.61852 13.2857 3.4975 12.6288 3.49208C11.8032 3.48322 10.9854 3.65083 10.2306 3.98357C9.47863 4.31672 8.80998 4.81106 8.27244 5.43122C7.82136 5.96079 7.46856 6.56596 7.23052 7.21846C6.59421 7.37793 6.0174 7.71604 5.56882 8.1925C5.15382 8.63859 4.86823 9.18833 4.74246 9.78314C3.89845 9.92807 3.1013 10.271 2.41711 10.7836C1.73291 11.2962 1.18137 11.9637 0.808198 12.7307C0.435028 13.4976 0.250972 14.3421 0.271293 15.1939C0.291614 16.0458 0.515731 16.8806 0.925053 17.6291C1.42172 18.5639 2.18812 19.3295 3.12568 19.8274C4.1851 20.5446 5.43712 20.9276 6.71853 20.9265H11.0928V19.5772H6.7365C5.69157 19.5841 4.6696 19.2722 3.80831 18.6836C3.07758 18.3066 2.47929 17.7176 2.09273 16.9946C1.76652 16.3972 1.59611 15.7279 1.5971 15.048C1.59808 14.3681 1.77043 13.6993 2.09837 13.1027C2.42631 12.5062 2.89936 12.001 3.47427 11.6334C4.04917 11.2658 4.70755 11.0475 5.38918 10.9985H5.97301V10.4087C5.9876 9.92533 6.17756 9.46358 6.50778 9.10876C6.838 8.75395 7.28617 8.53005 7.76944 8.47846L8.20957 8.42485L8.33532 8.00485C8.5086 7.39733 8.8154 6.83571 9.23354 6.36059C9.65067 5.88765 10.1653 5.50971 10.7425 5.2525C11.3069 4.99828 11.9194 4.86726 12.539 4.86825H12.5929C13.2158 4.88069 13.8286 5.02702 14.3893 5.29719L14.8474 5.52059L15.1797 5.1274C15.9485 4.2067 16.9114 3.46539 18.0001 2.95591C19.0704 2.47509 20.23 2.22244 21.4043 2.2142V2.2142C28.2218 2.2142 29.2368 8.52314 29.2368 12.2763C29.2368 18.5317 24.8086 19.4968 19.9403 19.5325V20.8551C23.1469 20.8551 30.5661 20.5602 30.5661 12.2763C30.5661 5.08272 27.2248 0.936332 21.4043 0.936332Z" fill="#EDF2F7"/>
<path d="M12.7275 23.7414L12.7365 23.7324H12.7275V23.7414Z" fill="#EDF2F7"/>
<path d="M17.991 17.1198H12.7904C12.6251 17.1209 12.4626 17.1623 12.317 17.2401C12.1715 17.318 12.0472 17.43 11.955 17.5666C11.768 17.8441 11.668 18.1707 11.6676 18.5049V23.67C11.6604 23.8148 11.6821 23.9597 11.7314 24.0962C11.7808 24.2327 11.8568 24.3581 11.955 24.4653C12.0651 24.5719 12.1961 24.6547 12.3398 24.7086C12.4836 24.7624 12.637 24.786 12.7904 24.778H17.991C18.3221 24.8131 18.6536 24.7162 18.9129 24.5085C19.1722 24.3007 19.3381 23.9992 19.3743 23.67V18.5049C19.3537 18.1512 19.2035 17.8174 18.9521 17.5666C18.8297 17.4324 18.6817 17.3239 18.5167 17.2472C18.3517 17.1705 18.173 17.1272 17.991 17.1198ZM18.6198 20.8908C18.6198 20.8908 18.6198 23.6342 18.6198 23.7772C18.6198 23.9202 18.4042 23.9649 18.4042 23.9649C18.2795 24.0054 18.1492 24.0265 18.018 24.0274H12.6826C12.6522 24.0241 12.6229 24.0145 12.5966 23.9991C12.5703 23.9837 12.5475 23.9629 12.5299 23.9381C12.4722 23.8643 12.4434 23.7722 12.4491 23.6789V18.5049C12.4448 18.354 12.4755 18.2042 12.5389 18.067C12.5389 18.067 12.5389 18.067 12.6467 17.9329C12.7253 17.8859 12.8154 17.8612 12.9072 17.8615H17.991C18.1612 17.8854 18.3188 17.9638 18.4402 18.0849C18.5482 18.1915 18.6204 18.3289 18.6467 18.4781V20.8908H18.6198Z" fill="#EDF2F7"/>
<path d="M17.4877 18.4603H13.5356C13.4641 18.4591 13.393 18.4721 13.3266 18.4985C13.2602 18.5249 13.1997 18.5642 13.1487 18.6141C13.0977 18.664 13.0572 18.7235 13.0295 18.7892C13.0019 18.8548 12.9877 18.9253 12.9877 18.9964V19.5773V20.8909V22.9284C12.9876 23.0675 13.0419 23.2013 13.1391 23.3013C13.2363 23.4014 13.3688 23.4599 13.5086 23.4645H17.5057C17.6455 23.4599 17.778 23.4014 17.8752 23.3013C17.9724 23.2013 18.0267 23.0675 18.0267 22.9284V19.0411C18.0329 18.9671 18.0236 18.8925 17.9993 18.8222C17.975 18.7519 17.9363 18.6874 17.8856 18.6328C17.8349 18.5782 17.7734 18.5346 17.7049 18.5049C17.6364 18.4752 17.5625 18.46 17.4877 18.4603V18.4603Z" fill="#EDF2F7"/>
<path d="M10.4101 22.5348H7.59866C7.54885 22.5341 7.4994 22.5432 7.45315 22.5616C7.4069 22.58 7.36478 22.6074 7.32921 22.6421C7.29392 22.6772 7.26617 22.719 7.24764 22.7651C7.22911 22.8112 7.22019 22.8605 7.22141 22.9102C7.21708 22.9458 7.21708 22.9818 7.22141 23.0174C7.21637 23.053 7.21637 23.0891 7.22141 23.1246V27.4587C7.07559 27.5375 6.96081 27.663 6.89567 27.8149C6.83052 27.9667 6.81883 28.136 6.8625 28.2953C6.90617 28.4546 7.00263 28.5946 7.13624 28.6925C7.26986 28.7904 7.4328 28.8406 7.59866 28.8348C7.76069 28.8329 7.9177 28.7786 8.04589 28.68C8.17408 28.5813 8.26648 28.4439 8.30912 28.2883C8.35175 28.1328 8.3423 27.9677 8.28217 27.818C8.22205 27.6683 8.11453 27.5421 7.97591 27.4587V23.2765H10.4101C10.4599 23.2778 10.5096 23.2689 10.5559 23.2504C10.6022 23.232 10.6443 23.2044 10.6795 23.1693C10.7141 23.1356 10.7415 23.0952 10.76 23.0507C10.7786 23.0062 10.7878 22.9584 10.7873 22.9102C10.7886 22.8605 10.7796 22.8112 10.7611 22.7651C10.7426 22.719 10.7148 22.6771 10.6796 22.642C10.6443 22.6069 10.6022 22.5793 10.5559 22.5609C10.5096 22.5425 10.46 22.5336 10.4101 22.5348V22.5348Z" fill="#EDF2F7"/>
<path d="M18.5927 26.8155V25.7611C18.5944 25.7127 18.5856 25.6646 18.567 25.6199C18.5484 25.5752 18.5204 25.535 18.485 25.5019C18.414 25.4294 18.3172 25.3877 18.2155 25.3857C18.1665 25.3869 18.1182 25.3977 18.0735 25.4177C18.0287 25.4376 17.9885 25.4663 17.955 25.5019C17.9195 25.535 17.8916 25.5752 17.873 25.6199C17.8544 25.6646 17.8456 25.7127 17.8472 25.7611V26.8155C17.7336 26.8787 17.6388 26.9707 17.5726 27.0821C17.5063 27.1936 17.4709 27.3205 17.47 27.45C17.4723 27.6475 17.5529 27.8362 17.6941 27.975C17.8354 28.1139 18.0259 28.1917 18.2245 28.1917C18.3895 28.1953 18.551 28.1436 18.683 28.0449C18.815 27.9463 18.9098 27.8064 18.9523 27.6476C18.9948 27.4889 18.9824 27.3206 18.9172 27.1697C18.852 27.0188 18.7377 26.8941 18.5927 26.8155V26.8155Z" fill="#EDF2F7"/>
<path d="M21.853 23.0623C21.7171 23.0625 21.5838 23.1003 21.4681 23.1712C21.3524 23.2422 21.2586 23.3437 21.1973 23.4644H20.3889C20.2872 23.4663 20.1904 23.508 20.1194 23.5806C20.084 23.6136 20.056 23.6539 20.0374 23.6985C20.0188 23.7432 20.01 23.7914 20.0117 23.8397C20.011 23.8893 20.0201 23.9385 20.0386 23.9845C20.0571 24.0305 20.0846 24.0724 20.1194 24.1078C20.1937 24.1741 20.2892 24.2121 20.3889 24.215H21.2871C21.3537 24.3159 21.4443 24.3989 21.5508 24.4566C21.6574 24.5142 21.7766 24.5449 21.8979 24.5457C22.0956 24.5457 22.2853 24.4675 22.4251 24.3284C22.5649 24.1893 22.6434 24.0007 22.6434 23.804C22.6434 23.6072 22.5649 23.4186 22.4251 23.2795C22.2853 23.1404 22.0956 23.0623 21.8979 23.0623H21.853Z" fill="#EDF2F7"/>
<path d="M20.3893 17.942C20.3395 17.9413 20.2901 17.9504 20.2438 17.9688C20.1976 17.9872 20.1554 18.0145 20.1199 18.0492C20.0846 18.0843 20.0568 18.1262 20.0383 18.1723C20.0198 18.2183 20.0109 18.2677 20.0121 18.3173C20.0116 18.3655 20.0208 18.4133 20.0393 18.4578C20.0579 18.5024 20.0853 18.5427 20.1199 18.5765C20.1554 18.6111 20.1976 18.6385 20.2438 18.6569C20.2901 18.6753 20.3395 18.6844 20.3893 18.6837H23.084C23.1338 18.6844 23.1832 18.6753 23.2295 18.6569C23.2757 18.6385 23.3179 18.6111 23.3534 18.5765C23.388 18.5427 23.4154 18.5024 23.4339 18.4578C23.4525 18.4133 23.4617 18.3655 23.4612 18.3173C23.4612 18.3173 23.4612 18.3173 23.4612 18.3173V15.7437C23.5746 15.6872 23.67 15.6005 23.7366 15.4932C23.8032 15.3859 23.8385 15.2622 23.8385 15.136C23.8497 15.0373 23.8398 14.9372 23.8095 14.8425C23.7792 14.7478 23.7291 14.6605 23.6625 14.5864C23.596 14.5123 23.5144 14.453 23.4232 14.4124C23.3321 14.3718 23.2333 14.3508 23.1334 14.3508C23.0335 14.3508 22.9347 14.3718 22.8435 14.4124C22.7523 14.453 22.6707 14.5123 22.6042 14.5864C22.5376 14.6605 22.4875 14.7478 22.4572 14.8425C22.4269 14.9372 22.417 15.0373 22.4283 15.136C22.4313 15.2417 22.4578 15.3454 22.506 15.4397C22.5541 15.534 22.6227 15.6164 22.7067 15.6811V17.942H20.3893Z" fill="#EDF2F7"/>
<path d="M7.70633 18.5765C7.74191 18.6111 7.78404 18.6385 7.83029 18.6569C7.87653 18.6753 7.92598 18.6844 7.97578 18.6837H10.7243C10.822 18.6837 10.9157 18.6451 10.9847 18.5764C11.0538 18.5077 11.0926 18.4145 11.0926 18.3173C11.0938 18.2677 11.0849 18.2183 11.0664 18.1723C11.0478 18.1262 11.0201 18.0843 10.9848 18.0492C10.9509 18.0148 10.9103 17.9876 10.8656 17.9691C10.8208 17.9507 10.7728 17.9415 10.7243 17.942H8.35305V15.6811C8.43709 15.6164 8.50564 15.534 8.55379 15.4397C8.60194 15.3454 8.62849 15.2417 8.63149 15.136C8.64271 15.0373 8.63285 14.9372 8.60253 14.8425C8.57222 14.7478 8.52214 14.6605 8.45558 14.5864C8.38902 14.5123 8.30747 14.453 8.21628 14.4124C8.12509 14.3718 8.0263 14.3508 7.92639 14.3508C7.82648 14.3508 7.72769 14.3718 7.6365 14.4124C7.54531 14.453 7.46376 14.5123 7.3972 14.5864C7.33064 14.6605 7.28056 14.7478 7.25025 14.8425C7.21993 14.9372 7.21006 15.0373 7.22129 15.136C7.22124 15.2622 7.25652 15.3859 7.32315 15.4932C7.38978 15.6005 7.48513 15.6872 7.59854 15.7437V18.2369C7.58909 18.2979 7.59391 18.3603 7.6126 18.4192C7.63129 18.4781 7.66336 18.5319 7.70633 18.5765V18.5765Z" fill="#EDF2F7"/>
</svg>
