<svg width="21" height="30" viewBox="0 0 21 30" fill="none" xmlns="http://www.w3.org/2000/svg">
<path d="M11.0497 27.6754L10.9932 27.6191L10.9286 27.5549L10.864 27.4906L10.7752 27.4022L10.6783 27.3058L7.94898 28.9125L0.90774 24.7592C0.810888 24.7028 0.730264 24.6226 0.673588 24.5262C0.617099 24.4254 0.58657 24.3123 0.584752 24.1969V11.4317L7.94898 15.2636L15.2971 11.4317V16.3401H15.9754V10.315L15.8704 10.3712C15.8438 10.3311 15.8077 10.2981 15.7654 10.2748L11.5181 8.45926V4.79599L12.8343 3.67131C12.8603 3.64536 12.8821 3.61555 12.8989 3.58294C12.9071 3.54861 12.9071 3.51283 12.8989 3.4785V1.17289C12.899 1.14012 12.8927 1.10764 12.8802 1.07731C12.8678 1.04698 12.8494 1.01941 12.8262 0.996151L11.8491 0H11.8087H9.96769C9.93398 0.0290458 9.90653 0.064566 9.88696 0.104433C9.87464 0.154574 9.87464 0.206931 9.88696 0.257071C9.90128 0.30431 9.92937 0.346253 9.96769 0.377575L11.2677 1.51029V2.51448L10.6218 3.22946H9.70931L8.65151 2.14494C8.61577 2.10547 8.56714 2.07986 8.51423 2.07264C8.46645 2.06137 8.41668 2.06137 8.36889 2.07264C8.33698 2.09057 8.30941 2.11525 8.28814 2.14494C8.27651 2.18973 8.27651 2.23672 8.28814 2.28151V3.75164C8.2799 3.78597 8.2799 3.82174 8.28814 3.85607C8.30494 3.88868 8.32672 3.91849 8.35273 3.94444L9.33785 4.74779V7.44704L8.07013 6.96504C7.98974 6.93328 7.9002 6.93328 7.81981 6.96504L6.83468 7.39081V4.17741L7.39184 2.42611C7.40756 2.38747 7.40756 2.34425 7.39184 2.30561L6.9558 0.602512C6.95017 0.571121 6.93789 0.541279 6.91979 0.514964C6.9017 0.488649 6.87819 0.46646 6.85082 0.449874C6.79756 0.416999 6.73584 0.400253 6.67317 0.401675H5.17933C5.11533 0.399232 5.05249 0.419124 5.00168 0.457909C4.97454 0.472807 4.95105 0.493499 4.9329 0.518501C4.91475 0.543503 4.90238 0.572194 4.8967 0.602512L4.50913 2.31364C4.49682 2.35013 4.49682 2.38962 4.50913 2.42611L5.06629 4.17741V8.10579L0.116424 10.2266C0.081889 10.244 0.0515656 10.2687 0.0275879 10.2989V24.719C0.0402317 24.7605 0.0564392 24.8008 0.0760348 24.8396C0.191206 25.0399 0.355018 25.2084 0.552471 25.3296L7.69061 29.5391H8.18316L11.187 27.7637L11.082 27.6834L11.0497 27.6754ZM5.66382 8.21826V4.20151C5.66661 4.18018 5.66661 4.15858 5.66382 4.13725L5.11474 2.41808L5.43773 0.972052H6.45516L6.8266 2.41808L6.26943 4.13725C6.26943 4.13725 6.26943 4.18545 6.26943 4.20151V12.8295H6.85082V8.00939L7.98937 7.49525L9.30557 8.09776V12.9179H9.81429V4.65942C9.82253 4.62509 9.82253 4.58932 9.81429 4.55499C9.79749 4.52238 9.77568 4.49257 9.74968 4.46662L8.76455 3.66327V2.91615L9.5155 3.67131L9.59625 3.72754H9.69315H10.8156H10.9205C10.9546 3.71292 10.9849 3.69097 11.0093 3.66327L11.8168 2.78762C11.8582 2.74101 11.8811 2.68107 11.8814 2.61891V1.41389C11.8897 1.37956 11.8897 1.34379 11.8814 1.30946C11.8694 1.2742 11.8468 1.24339 11.8168 1.22109L10.9448 0.417739H11.7038L12.5113 1.26929V3.358L11.187 4.48269C11.161 4.50864 11.1392 4.53844 11.1224 4.57105C11.1142 4.60538 11.1142 4.64116 11.1224 4.67549V11.7851H11.5181V9.12605L12.0914 9.38312L14.8691 10.5801L7.94093 14.1952L1.0208 10.5721L4.25073 9.19834L5.13896 8.79667V11.7851H5.72841V8.21826H5.66382Z" fill="#EDF2F7"/>
<path d="M8.3447 26.3817V16.4443H7.59375V26.3817C7.59554 26.4783 7.62341 26.5727 7.67448 26.6548C7.72157 26.7088 7.7793 26.7525 7.84407 26.7834V26.7834H8.10244C8.16721 26.7525 8.22494 26.7088 8.27203 26.6548C8.3236 26.5733 8.34895 26.478 8.3447 26.3817V26.3817Z" fill="#EDF2F7"/>
<path d="M20.6101 21.6985C20.4815 21.5451 20.3002 21.4449 20.1014 21.4173C19.9641 21.4173 19.8187 21.4173 19.6815 21.4173C19.6551 21.4254 19.627 21.4254 19.6007 21.4173C19.5778 21.3998 19.5586 21.378 19.5442 21.353C19.4554 21.1602 19.3827 20.9594 19.2858 20.7345C19.3732 20.6668 19.4567 20.5944 19.5361 20.5176C19.6249 20.4363 19.6959 20.3376 19.7444 20.2276C19.7929 20.1177 19.8179 19.999 19.8179 19.8789C19.8179 19.7588 19.7929 19.6401 19.7444 19.5302C19.6959 19.4202 19.6249 19.3215 19.5361 19.2402L18.8578 18.5735C18.7623 18.4701 18.6412 18.3934 18.5066 18.3512C18.372 18.3089 18.2286 18.3024 18.0907 18.3325C17.83 18.3801 17.5982 18.5271 17.4447 18.7422C17.4319 18.756 17.4163 18.7671 17.3989 18.7747C17.3815 18.7823 17.3628 18.7862 17.3438 18.7862C17.3248 18.7862 17.3061 18.7823 17.2887 18.7747C17.2713 18.7671 17.2557 18.756 17.2429 18.7422C17.1095 18.6709 16.9687 18.6143 16.823 18.5735C16.7965 18.5697 16.7712 18.5605 16.7485 18.5465C16.7258 18.5325 16.7062 18.514 16.6911 18.4921C16.6759 18.4702 16.6654 18.4454 16.6603 18.4194C16.6553 18.3933 16.6556 18.3664 16.6615 18.3405C16.6979 18.091 16.6496 17.8366 16.5242 17.6175C16.4808 17.5242 16.4128 17.4444 16.3275 17.3864C16.2422 17.3285 16.1428 17.2945 16.0397 17.2881H14.7478C14.6435 17.279 14.5386 17.2919 14.4397 17.326C14.3408 17.3601 14.2503 17.4146 14.1741 17.4858C14.0979 17.5571 14.0376 17.6436 13.9973 17.7397C13.957 17.8358 13.9376 17.9392 13.9403 18.0432C13.9529 18.114 13.9512 18.1866 13.9352 18.2568C13.9192 18.3269 13.8893 18.3931 13.8471 18.4515C13.805 18.5099 13.7515 18.5593 13.6898 18.5968C13.6281 18.6343 13.5596 18.6592 13.4881 18.6699C13.2862 18.7341 13.1812 18.7502 13.0278 18.5815C12.9429 18.4817 12.8372 18.4015 12.7179 18.3464C12.5987 18.2914 12.4689 18.2629 12.3374 18.2629C12.206 18.2629 12.0761 18.2914 11.9569 18.3464C11.8377 18.4015 11.7319 18.4817 11.647 18.5815C11.4532 18.8064 11.2191 19.0073 11.0172 19.2242C10.9339 19.2995 10.8674 19.3912 10.8219 19.4936C10.7763 19.596 10.7528 19.7067 10.7528 19.8186C10.7528 19.9306 10.7763 20.0413 10.8219 20.1437C10.8674 20.2461 10.9339 20.3378 11.0172 20.4131C11.1192 20.4859 11.1889 20.5953 11.2115 20.7182C11.2341 20.841 11.2079 20.9679 11.1383 21.0719C11.1114 21.1791 11.0451 21.2725 10.9524 21.3334C10.8597 21.3944 10.7474 21.4186 10.6377 21.4012C10.5193 21.3901 10.3999 21.405 10.288 21.4451C10.1761 21.4851 10.0745 21.5493 9.99041 21.633C9.90633 21.7166 9.84184 21.8177 9.80158 21.929C9.76132 22.0403 9.74629 22.1591 9.75752 22.2769V23.265C9.75662 23.4716 9.83122 23.6715 9.96745 23.8274C10.1 23.9843 10.2877 24.0848 10.4923 24.1085C10.6296 24.1085 10.7669 24.1085 10.9041 24.1085C10.9279 24.1016 10.9531 24.1016 10.9768 24.1085C10.9768 24.1085 11.0172 24.1085 11.0253 24.1648C11.1222 24.3576 11.1948 24.5664 11.2836 24.7833L11.0495 25.0002C10.9594 25.0816 10.8873 25.1808 10.838 25.2915C10.7887 25.4021 10.7632 25.5219 10.7632 25.6429C10.7632 25.764 10.7887 25.8837 10.838 25.9944C10.8873 26.1051 10.9594 26.2043 11.0495 26.2856L11.5259 26.7515L11.6147 26.848C11.6463 26.8754 11.676 26.9049 11.7036 26.9363V26.9363C11.7214 26.9567 11.7434 26.9731 11.7681 26.9845L11.8489 27.0408C11.8847 27.0677 11.9225 27.0918 11.9619 27.1131C12.013 27.1388 12.0673 27.1578 12.1234 27.1693C12.2644 27.2109 12.4141 27.2135 12.5564 27.1767C12.6987 27.1398 12.8282 27.0651 12.9309 26.9604C12.9656 26.9082 13.0107 26.8635 13.0635 26.8293C13.1162 26.7951 13.1754 26.772 13.2375 26.7614C13.2996 26.7509 13.3631 26.7531 13.4243 26.768C13.4854 26.7829 13.5429 26.8101 13.5931 26.848C13.8918 27.0086 13.908 26.9845 13.908 27.338C13.899 27.4488 13.9133 27.5602 13.9499 27.6652C13.9864 27.7702 14.0445 27.8665 14.1204 27.9481C14.1962 28.0296 14.2883 28.0946 14.3908 28.1389C14.4932 28.1833 14.6037 28.206 14.7154 28.2056C15.0761 28.2056 15.4395 28.2056 15.8056 28.2056C15.9158 28.2058 16.0249 28.1835 16.1262 28.1402C16.2274 28.0968 16.3187 28.0333 16.3944 27.9535C16.47 27.8738 16.5285 27.7794 16.5661 27.6763C16.6037 27.5732 16.6196 27.4635 16.613 27.3541C16.613 27.0568 16.7019 26.9444 16.9683 26.8319C17.0672 26.767 17.1877 26.7432 17.304 26.7657C17.4202 26.7883 17.523 26.8553 17.5901 26.9524C17.6697 27.0328 17.7646 27.0966 17.8693 27.1402C17.974 27.1838 18.0863 27.2062 18.1997 27.2062C18.3132 27.2062 18.4255 27.1838 18.5302 27.1402C18.6348 27.0966 18.7297 27.0328 18.8094 26.9524C19.0516 26.7194 19.2939 26.4784 19.5281 26.2374C19.6815 26.0788 19.7672 25.8671 19.7672 25.6469C19.7672 25.4268 19.6815 25.2151 19.5281 25.0565C19.4312 24.9601 19.3262 24.8717 19.2212 24.7833C19.2858 24.6307 19.3423 24.5263 19.3908 24.4058C19.52 24.0844 19.52 24.0764 19.8591 24.0684C20.0851 24.0773 20.3058 23.9985 20.4746 23.8486C20.6433 23.6987 20.7469 23.4895 20.7635 23.265C20.7635 22.9115 20.7635 22.5581 20.7635 22.1966C20.7654 22.0187 20.7118 21.8447 20.6101 21.6985V21.6985ZM20.0771 23.2409C20.0771 23.3534 20.0287 23.4016 19.9156 23.4016H19.3342C19.2431 23.394 19.1523 23.4201 19.0793 23.4749C19.0063 23.5298 18.9562 23.6095 18.9386 23.6988C18.8094 24.0282 18.6721 24.3495 18.5268 24.6709C18.4734 24.7477 18.4512 24.8417 18.4647 24.9341C18.4782 25.0265 18.5263 25.1104 18.5994 25.169L19.0032 25.5867C19.0232 25.5989 19.0398 25.616 19.0513 25.6364C19.0628 25.6568 19.0688 25.6798 19.0688 25.7032C19.0688 25.7266 19.0628 25.7496 19.0513 25.7699C19.0398 25.7903 19.0232 25.8075 19.0032 25.8197L18.3249 26.4945C18.2522 26.5748 18.1796 26.5587 18.1069 26.4945L17.687 26.0767C17.6303 26.009 17.5511 25.9637 17.4637 25.949C17.3764 25.9342 17.2866 25.9511 17.2106 25.9964L16.1851 26.4141C16.1027 26.438 16.0313 26.4894 15.9827 26.5596C15.9341 26.6299 15.9115 26.7148 15.9186 26.7998V27.3621C15.9186 27.5067 15.854 27.5629 15.7087 27.5629H14.8608C14.6912 27.5629 14.6347 27.4906 14.6428 27.338V26.8078C14.6504 26.7129 14.6225 26.6185 14.5643 26.5428C14.5062 26.4672 14.4219 26.4156 14.3279 26.3981L13.8676 26.2133L13.7223 26.149L13.5769 26.0928H13.48H13.4073C13.36 26.0649 13.3081 26.0459 13.2539 26.0366C13.1834 26.0234 13.1106 26.0299 13.0436 26.0554C12.9766 26.0809 12.918 26.1245 12.8744 26.1812L12.6806 26.374L12.4868 26.5668C12.4607 26.5883 12.4279 26.6001 12.3939 26.6001C12.36 26.6001 12.3272 26.5883 12.3011 26.5668H12.2607L12.1961 26.5025L11.5905 25.9C11.5705 25.8868 11.5541 25.8689 11.5428 25.8479C11.5314 25.8269 11.5255 25.8034 11.5255 25.7795C11.5255 25.7556 11.5314 25.7321 11.5428 25.7111C11.5541 25.6901 11.5705 25.6722 11.5905 25.659C11.7278 25.5305 11.857 25.3939 11.9862 25.2573C12.0621 25.1971 12.1119 25.1103 12.1254 25.0147C12.1389 24.919 12.1151 24.8219 12.0588 24.7432C11.9216 24.4299 11.7843 24.1166 11.6712 23.8033C11.6536 23.7075 11.6009 23.6217 11.5233 23.5624C11.4458 23.503 11.3489 23.4744 11.2514 23.4819H10.7103C10.5892 23.4819 10.5246 23.4819 10.5246 23.3052V22.309C10.5246 22.1885 10.5811 22.1323 10.7023 22.1403H11.2836C11.3713 22.1417 11.457 22.114 11.5271 22.0616C11.5973 22.0093 11.648 21.9352 11.6712 21.8511C11.8004 21.5137 11.9377 21.1843 12.0831 20.863C12.1311 20.788 12.151 20.6985 12.1391 20.6103C12.1273 20.5221 12.0846 20.4409 12.0185 20.381C11.8812 20.2364 11.7439 20.0998 11.5986 19.9633C11.4532 19.8267 11.5017 19.7946 11.5986 19.7142L12.2849 19.0474C12.296 19.0309 12.311 19.0173 12.3286 19.0079C12.3462 18.9985 12.3659 18.9935 12.3859 18.9935C12.4059 18.9935 12.4255 18.9985 12.4431 19.0079C12.4608 19.0173 12.4758 19.0309 12.4868 19.0474L12.9067 19.4732C12.969 19.5435 13.0544 19.5895 13.1476 19.6027C13.2409 19.616 13.3358 19.5957 13.4154 19.5455C13.7384 19.4009 14.0614 19.2643 14.3925 19.1438C14.4777 19.122 14.553 19.0719 14.6058 19.0018C14.6587 18.9317 14.686 18.8458 14.6832 18.7582V18.212C14.6832 18.0834 14.7235 18.0272 14.8608 18.0272H15.959V18.702C15.9536 18.7878 15.9703 18.8735 16.0074 18.951C16.0398 19.0055 16.083 19.0528 16.1344 19.0901C16.1857 19.1274 16.2442 19.1539 16.3062 19.1679C16.6016 19.267 16.8902 19.3851 17.1702 19.5214C17.4447 19.658 17.5578 19.658 17.7758 19.4411L18.1472 19.0715C18.228 18.9832 18.2926 18.9832 18.3733 19.0715L19.0274 19.7222C19.1324 19.8186 19.1162 19.899 19.0274 19.9874L18.6479 20.3569C18.5718 20.4223 18.5224 20.5132 18.509 20.6123C18.4957 20.7115 18.5192 20.8121 18.5752 20.8951C18.7125 21.1924 18.8417 21.4977 18.9547 21.8029C19.0678 22.1082 19.1405 22.1484 19.4231 22.1484H19.956C20.0691 22.1484 20.1175 22.1966 20.1175 22.309L20.0771 23.2409Z" fill="#EDF2F7"/>
<path d="M16.8231 21.2565C16.6205 21.0565 16.3823 20.8958 16.1206 20.7825H15.9752L15.846 20.7423H15.7249H15.5554H15.4342H15.297C14.8695 20.7445 14.4522 20.8722 14.0973 21.1093C13.7425 21.3464 13.4658 21.6824 13.302 22.0752C13.1382 22.468 13.0946 22.9002 13.1765 23.3176C13.2585 23.735 13.4624 24.119 13.7627 24.4216C14.0497 24.7064 14.4102 24.9066 14.8044 25.0001H14.9982H15.1839H15.3212H15.4504H15.6199H15.8057C15.9138 24.979 16.0193 24.9467 16.1206 24.9037C16.3831 24.7991 16.6219 24.6434 16.8231 24.4457C17.0263 24.2445 17.1857 24.0039 17.2914 23.7388C17.4019 23.4851 17.4595 23.2119 17.461 22.9354C17.4626 22.3614 17.2362 21.8099 16.8312 21.4011L16.8231 21.2565ZM16.3063 23.779C16.2085 23.8751 16.0969 23.9563 15.9752 24.02L15.846 24.0923L15.7249 24.1324H15.6361H15.5473H15.4262H15.2889C15.1011 24.1339 14.9149 24.0977 14.7414 24.0259C14.568 23.9541 14.4109 23.8483 14.2795 23.7147C14.0123 23.4481 13.8622 23.087 13.8622 22.7105C13.8622 22.334 14.0123 21.9729 14.2795 21.7063C14.5462 21.4421 14.9046 21.2897 15.2808 21.2806H15.4342H15.5554C15.6442 21.3046 15.6442 21.3046 15.7331 21.3288H15.8541C15.9026 21.3288 15.9429 21.377 15.9833 21.393C16.2049 21.5127 16.3905 21.6889 16.521 21.9035C16.6516 22.118 16.7224 22.3633 16.7262 22.6141C16.7484 22.8272 16.7222 23.0425 16.6495 23.2441C16.5768 23.4457 16.4595 23.6285 16.3063 23.779V23.779Z" fill="#EDF2F7"/>
</svg>
