<svg width="92" height="92" viewBox="0 0 92 92" fill="none" xmlns="http://www.w3.org/2000/svg">
<g id="Icons/80 px/Money bag">
<path id="Vector" d="M19.1654 75.2905C15.0987 75.2905 11.1986 73.675 8.32306 70.7994C5.4475 67.9239 3.83203 64.0238 3.83203 59.9571C3.99783 55.3142 5.30963 50.7844 7.65056 46.7714C9.99148 42.7584 13.2888 39.3868 17.2487 36.9571L12.503 28.6541C12.251 28.2092 12.1314 27.7015 12.1583 27.1909C12.1851 26.6803 12.3573 26.1879 12.6545 25.7719C12.9518 25.3558 13.3617 25.0334 13.8361 24.8424C14.3104 24.6515 14.8294 24.6001 15.332 24.6943C17.8436 25.1965 20.4297 25.1965 22.9412 24.6943C23.4458 24.5938 23.9687 24.6404 24.4475 24.8287C24.9263 25.017 25.3409 25.339 25.6419 25.7563C25.9428 26.1736 26.1175 26.6687 26.145 27.1824C26.1725 27.6962 26.0517 28.2071 25.797 28.6541L21.082 36.9571" stroke="white" stroke-width="3" stroke-linecap="round" stroke-linejoin="round"/>
<path id="Vector_2" d="M11.5 36.9572H21.0833" stroke="white" stroke-width="3" stroke-linecap="round" stroke-linejoin="round"/>
<path id="Vector_3" d="M72.835 75.2905C76.9017 75.2905 80.8018 73.675 83.6773 70.7994C86.5529 67.9239 88.1683 64.0238 88.1683 59.9571C88.0026 55.3142 86.6907 50.7844 84.3498 46.7714C82.0089 42.7584 78.7116 39.3868 74.7517 36.9571L79.4974 28.6541C79.7493 28.2092 79.869 27.7015 79.8421 27.1909C79.8153 26.6803 79.6431 26.1879 79.3459 25.7719C79.0486 25.3558 78.6387 25.0334 78.1643 24.8424C77.69 24.6515 77.1709 24.6001 76.6683 24.6943C74.1568 25.1965 71.5707 25.1965 69.0592 24.6943C68.5546 24.5938 68.0317 24.6404 67.5529 24.8287C67.0741 25.017 66.6595 25.339 66.3585 25.7563C66.0576 26.1736 65.8829 26.6687 65.8554 27.1824C65.8279 27.6962 65.9487 28.2071 66.2033 28.6541L70.9183 36.9571" stroke="white" stroke-width="3" stroke-linecap="round" stroke-linejoin="round"/>
<path id="Vector_4" d="M80.5013 36.9573H70.918" stroke="white" stroke-width="3" stroke-linecap="round" stroke-linejoin="round"/>
<path id="Vector_5" d="M53.6667 33.1238C61.3333 38.433 69 46.5405 69 58.0405C68.7343 63.8822 66.1648 69.3807 61.8541 73.3321C57.5434 77.2836 51.8427 79.3661 46 79.1238C40.1573 79.3661 34.4566 77.2836 30.1459 73.3321C25.8352 69.3807 23.2657 63.8822 23 58.0405C23 46.5405 30.6667 38.433 38.3333 33.1238L32.5105 21.4667C32.1337 20.73 32.0054 19.8912 32.1447 19.0755C32.2841 18.2599 32.6836 17.5112 33.2836 16.9414C33.8836 16.3716 34.6518 16.0113 35.4736 15.9142C36.2953 15.8171 37.1264 15.9885 37.8427 16.4028C38.5115 16.7859 39.2972 16.9112 40.052 16.7551C40.8067 16.5991 41.4784 16.1725 41.9405 15.5557L42.7378 14.4938C43.1191 13.9845 43.6138 13.571 44.1827 13.2862C44.7516 13.0014 45.3791 12.8532 46.0153 12.8532C46.6516 12.8532 47.279 13.0014 47.8479 13.2862C48.4169 13.571 48.9116 13.9845 49.2928 14.4938L50.0902 15.5557C50.5524 16.1735 51.2248 16.6007 51.9804 16.7568C52.736 16.9129 53.5227 16.787 54.1918 16.4028C54.908 15.9901 55.7385 15.82 56.5593 15.9178C57.3801 16.0156 58.1473 16.3761 58.7465 16.9455C59.3457 17.515 59.7447 18.2628 59.8842 19.0776C60.0236 19.8924 59.8959 20.7304 59.5202 21.4667L53.6667 33.1238Z" stroke="white" stroke-width="3" stroke-linecap="round" stroke-linejoin="round"/>
<path id="Vector_6" d="M30.668 33.1238H61.3346" stroke="white" stroke-width="3" stroke-linecap="round" stroke-linejoin="round"/>
<path id="Vector_7" d="M46 63.7943V67.6277" stroke="white" stroke-width="3" stroke-linecap="round" stroke-linejoin="round"/>
<path id="Vector_8" d="M46 44.6277V48.461" stroke="white" stroke-width="3" stroke-linecap="round" stroke-linejoin="round"/>
<path id="Vector_9" d="M38.332 63.7943H49.832C50.8487 63.7943 51.8237 63.3904 52.5426 62.6715C53.2615 61.9526 53.6654 60.9776 53.6654 59.9609C53.6654 58.9443 53.2615 57.9693 52.5426 57.2504C51.8237 56.5315 50.8487 56.1276 49.832 56.1276H42.1654C41.1487 56.1276 40.1737 55.7237 39.4548 55.0048C38.7359 54.286 38.332 53.3109 38.332 52.2943C38.332 51.2776 38.7359 50.3026 39.4548 49.5837C40.1737 48.8648 41.1487 48.4609 42.1654 48.4609H53.6654" stroke="white" stroke-width="3" stroke-linecap="round" stroke-linejoin="round"/>
</g>
</svg>
