<svg width="74" height="74" viewBox="0 0 74 74" fill="none" xmlns="http://www.w3.org/2000/svg">
<g id="Icons/80 px/Link">
<path id="Vector" d="M28.5104 72.4583H10.0104C8.37492 72.4583 6.8064 71.8085 5.64992 70.6521C4.49345 69.4956 3.84375 67.9271 3.84375 66.2916V7.70825" stroke="white" stroke-width="3" stroke-linecap="round" stroke-linejoin="round"/>
<path id="Vector_2" d="M62.4271 1.54175H10.0104C8.37492 1.54175 6.8064 2.19145 5.64992 3.34792C4.49345 4.5044 3.84375 6.07291 3.84375 7.70842C3.84375 9.34392 4.49345 10.9124 5.64992 12.0689C6.8064 13.2254 8.37492 13.8751 10.0104 13.8751H59.3438C60.1615 13.8751 60.9458 14.1999 61.524 14.7782C62.1022 15.3564 62.4271 16.1407 62.4271 16.9584V27.7501" stroke="white" stroke-width="3" stroke-linecap="round" stroke-linejoin="round"/>
<path id="Vector_3" d="M10.0078 7.70825H59.3411" stroke="white" stroke-width="3" stroke-linecap="round" stroke-linejoin="round"/>
<path id="Vector_4" d="M50.082 72.4583C53.741 72.4583 57.3178 71.3733 60.3601 69.3404C63.4024 67.3076 65.7736 64.4183 67.1738 61.0379C68.574 57.6575 68.9404 53.9377 68.2266 50.3491C67.5127 46.7604 65.7508 43.4641 63.1635 40.8768C60.5762 38.2895 57.2798 36.5276 53.6912 35.8137C50.1026 35.0999 46.3828 35.4663 43.0024 36.8665C39.622 38.2667 36.7326 40.6379 34.6998 43.6802C32.667 46.7225 31.582 50.2993 31.582 53.9583C31.582 58.8648 33.5311 63.5703 37.0006 67.0397C40.47 70.5092 45.1755 72.4583 50.082 72.4583Z" stroke="white" stroke-width="3" stroke-linecap="round" stroke-linejoin="round"/>
<path id="Vector_5" d="M40.832 53.9768L59.332 53.9768" stroke="white" stroke-width="3" stroke-linecap="round" stroke-linejoin="round"/>
<path id="Vector_6" d="M59.332 53.9768L52.3945 47.0393" stroke="white" stroke-width="3" stroke-linecap="round" stroke-linejoin="round"/>
<path id="Vector_7" d="M59.332 53.9768L52.3945 60.9143" stroke="white" stroke-width="3" stroke-linecap="round" stroke-linejoin="round"/>
</g>
</svg>
