<svg width="80" height="80" viewBox="0 0 80 80" fill="none" xmlns="http://www.w3.org/2000/svg">
<path d="M25 40.0002C25 50.1668 26.5804 59.9171 29.3934 67.106C32.2064 74.2949 36.0218 78.3335 40 78.3335C43.9782 78.3335 47.7936 74.2949 50.6066 67.106C53.4196 59.9171 55 50.1668 55 40.0002C55 29.8336 53.4196 20.0833 50.6066 12.8944C47.7936 5.70555 43.9782 1.66687 40 1.66687C36.0218 1.66687 32.2064 5.70555 29.3934 12.8944C26.5804 20.0833 25 29.8336 25 40.0002Z" stroke="white" stroke-width="3" stroke-linecap="round" stroke-linejoin="round"/>
<path d="M48.4938 52.36C31.0504 64.36 13.1071 68.55 8.40708 61.7233C3.70708 54.8966 14.0504 39.64 31.4937 27.64C48.9371 15.64 66.8804 11.4533 71.5804 18.2766C76.2804 25.1 65.9371 40.36 48.4938 52.36Z" stroke="white" stroke-width="3" stroke-linecap="round" stroke-linejoin="round"/>
<path d="M31.4937 52.36C48.9371 64.36 66.8804 68.55 71.5804 61.7233C76.2804 54.8966 65.9371 39.64 48.4938 27.64C31.0504 15.64 13.1071 11.4533 8.40708 18.2766C3.70708 25.1 14.0504 40.36 31.4937 52.36Z" stroke="white" stroke-width="3" stroke-linecap="round" stroke-linejoin="round"/>
<path d="M33.3281 39.9997C33.3281 41.7678 34.0305 43.4635 35.2807 44.7137C36.531 45.964 38.2267 46.6663 39.9948 46.6663C41.7629 46.6663 43.4586 45.964 44.7088 44.7137C45.9591 43.4635 46.6615 41.7678 46.6615 39.9997C46.6615 38.2316 45.9591 36.5359 44.7088 35.2856C43.4586 34.0354 41.7629 33.333 39.9948 33.333C38.2267 33.333 36.531 34.0354 35.2807 35.2856C34.0305 36.5359 33.3281 38.2316 33.3281 39.9997Z" stroke="white" stroke-width="3" stroke-linecap="round" stroke-linejoin="round"/>
</svg>
