<svg width="70" height="70" viewBox="0 0 70 70" fill="none" xmlns="http://www.w3.org/2000/svg">
<g id="Icons/80 px/Bookmark" clip-path="url(#clip0_1_3008)">
<path id="Vector" d="M33.5404 4.375H65.6237C66.3972 4.375 67.1391 4.68229 67.6861 5.22927C68.2331 5.77625 68.5404 6.51812 68.5404 7.29167V65.625C68.5404 66.3986 68.2331 67.1404 67.6861 67.6874C67.1391 68.2344 66.3972 68.5417 65.6237 68.5417H4.3737C3.60015 68.5417 2.85828 68.2344 2.3113 67.6874C1.76432 67.1404 1.45703 66.3986 1.45703 65.625V7.29167C1.45703 6.51812 1.76432 5.77625 2.3113 5.22927C2.85828 4.68229 3.60015 4.375 4.3737 4.375H13.1237" stroke="white" stroke-width="3" stroke-linecap="round" stroke-linejoin="round"/>
<path id="Vector_2" d="M33.5426 30.6249C33.5426 32.2291 32.6676 32.5528 31.6205 31.3482L23.3343 21.8749L15.0393 31.3424C13.9805 32.5499 13.1172 32.2174 13.1172 30.622V4.37199C13.1172 3.59844 13.4245 2.85658 13.9715 2.30959C14.5184 1.76261 15.2603 1.45532 16.0339 1.45532H30.6172C31.3907 1.45532 32.1326 1.76261 32.6796 2.30959C33.2266 2.85658 33.5339 3.59844 33.5339 4.37199L33.5426 30.6249Z" stroke="white" stroke-width="3" stroke-linecap="round" stroke-linejoin="round"/>
<path id="Vector_3" d="M42.293 18.9553H59.793" stroke="white" stroke-width="3" stroke-linecap="round" stroke-linejoin="round"/>
<path id="Vector_4" d="M42.293 30.6221H59.793" stroke="white" stroke-width="3" stroke-linecap="round" stroke-linejoin="round"/>
<path id="Vector_5" d="M10.207 42.2888H59.7904" stroke="white" stroke-width="3" stroke-linecap="round" stroke-linejoin="round"/>
<path id="Vector_6" d="M10.207 53.9553H58.3233" stroke="white" stroke-width="3" stroke-linecap="round" stroke-linejoin="round"/>
</g>
<defs>
<clipPath id="clip0_1_3008">
<rect width="70" height="70" fill="white"/>
</clipPath>
</defs>
</svg>
