<svg width="80" height="80" viewBox="0 0 80 80" fill="none" xmlns="http://www.w3.org/2000/svg">
<g id="Icons/80 px/Approve">
<path id="Vector" d="M18.6269 68.3334H8.33361C7.89017 68.3278 7.45219 68.2348 7.04467 68.0599C6.63716 67.8849 6.2681 67.6314 5.95856 67.3139C5.64902 66.9963 5.40508 66.6208 5.24066 66.209C5.07623 65.7971 4.99455 65.3569 5.00028 64.9134V5.00008C5.00028 4.11603 5.35147 3.26818 5.97659 2.64306C6.60171 2.01794 7.44956 1.66675 8.33361 1.66675H71.6669C72.551 1.66675 73.3988 2.01794 74.024 2.64306C74.6491 3.26818 75.0003 4.11603 75.0003 5.00008V64.9134C75.006 65.3569 74.9243 65.7971 74.7599 66.209C74.5955 66.6208 74.3515 66.9963 74.042 67.3139C73.7325 67.6314 73.3634 67.8849 72.9559 68.0599C72.5484 68.2348 72.1104 68.3278 71.6669 68.3334H58.3336" stroke="white" stroke-width="3" stroke-linecap="round" stroke-linejoin="round"/>
<path id="Vector_2" d="M18.332 18.3333H61.6654" stroke="white" stroke-width="3" stroke-linecap="round" stroke-linejoin="round"/>
<path id="Vector_3" d="M18.332 28.3333H61.6654" stroke="white" stroke-width="3" stroke-linecap="round" stroke-linejoin="round"/>
<path id="Vector_4" d="M18.332 38.3333H46.6654" stroke="white" stroke-width="3" stroke-linecap="round" stroke-linejoin="round"/>
<path id="Vector_5" d="M25 65C25 68.5362 26.4048 71.9276 28.9052 74.4281C31.4057 76.9286 34.7971 78.3333 38.3333 78.3333C41.8696 78.3333 45.2609 76.9286 47.7614 74.4281C50.2619 71.9276 51.6667 68.5362 51.6667 65C51.6667 61.4638 50.2619 58.0724 47.7614 55.5719C45.2609 53.0714 41.8696 51.6667 38.3333 51.6667C34.7971 51.6667 31.4057 53.0714 28.9052 55.5719C26.4048 58.0724 25 61.4638 25 65Z" stroke="white" stroke-width="3" stroke-linecap="round" stroke-linejoin="round"/>
<path id="Vector_6" d="M33.332 65.0001L36.6654 68.3334L43.332 61.6667" stroke="white" stroke-width="3" stroke-linecap="round" stroke-linejoin="round"/>
</g>
</svg>
