<svg width="365" height="115" viewBox="0 0 365 115" fill="none" xmlns="http://www.w3.org/2000/svg">
<g clip-path="url(#clip0_638_1176)">
<g style="mix-blend-mode:color-dodge">
<path d="M665.436 -142.67C512.063 -164.642 324.82 -166.432 245.333 -52.2715C162.524 66.658 254.436 227.48 165.554 300.896C62.2745 386.212 -117.883 209.788 -252.537 298.097C-338.77 354.631 -302.826 451.868 -401.215 588.739C-472.835 688.346 -566.839 741.105 -635.357 770.155" stroke="url(#paint0_linear_638_1176)" stroke-width="6" stroke-linecap="round" stroke-linejoin="round"/>
<path d="M664.125 -132.791C597.313 -131.877 521.321 -125.76 450.358 -117.259C377.158 -108.688 316.331 -101.309 274.882 -54.3838C208.502 20.7375 248.4 153.389 213.138 229.535C203.824 249.652 191.357 265.812 171.916 277.706C132.403 301.901 84.503 293.326 31.8719 286.411C-47.8272 275.926 -117.159 255.017 -197.183 301.641C-204.415 305.851 -211.665 310.266 -218.674 315.386C-287.495 365.626 -284.542 423.365 -340.756 525.574C-352.79 547.284 -365.946 569.306 -381.954 591.752C-405.105 624.364 -428.327 650.584 -456.047 672.607C-512.719 717.658 -573.285 739.994 -620.581 752.773" stroke="url(#paint1_linear_638_1176)" stroke-width="6" stroke-linecap="round" stroke-linejoin="round"/>
<path d="M662.817 -122.916C605.39 -110.179 537.961 -91.8348 471.55 -85.7696C401.729 -79.3904 347.528 -92.8636 304.421 -56.4891C237.163 0.250166 274.073 146.043 225.044 215.887C212.499 233.753 198.124 246.397 178.278 254.537C137.425 271.283 90.586 258.362 38.3773 258.105C-38.5544 257.741 -84.7652 258.382 -164.66 317.567C-171.406 322.555 -178.263 327.393 -184.8 332.71C-251.061 386.548 -257.203 427.472 -320.575 529.862C-334.29 552.029 -347.651 573.549 -362.66 594.803C-386.023 628.102 -407.175 653.491 -436.699 674.455C-494.847 715.751 -557.751 729.61 -605.784 735.439" stroke="url(#paint2_linear_638_1176)" stroke-width="6" stroke-linecap="round" stroke-linejoin="round"/>
<path d="M661.506 -113.038C613.463 -88.457 554.567 -58.0531 492.74 -54.2789C426.253 -50.2275 378.994 -84.2825 333.958 -58.5927C266.243 -19.9798 300.164 138.955 236.948 202.24C221.292 217.914 204.859 226.943 184.627 231.356C142.374 240.571 96.6755 223.183 44.8804 229.801C-29.2586 239.286 -52.7299 261.17 -132.14 333.496C-138.43 339.219 -144.851 344.513 -150.938 350.021C-214.556 407.543 -230.146 431.388 -300.428 534.134C-315.878 556.712 -329.402 577.784 -343.401 597.838C-366.965 631.837 -386.005 656.426 -417.397 676.274C-476.928 713.937 -542.275 719.205 -591.032 718.076" stroke="url(#paint3_linear_638_1176)" stroke-width="6" stroke-linecap="round" stroke-linejoin="round"/>
<path d="M660.213 -103.172C621.556 -66.7693 571.194 -24.3288 513.937 -22.8137C450.789 -21.1354 410.732 -75.3749 363.515 -60.731C295.759 -39.7119 326.538 132.184 248.884 188.55C230.175 202.135 211.619 207.385 191.008 208.131C147.33 209.707 102.746 187.765 51.393 201.448C-20.0301 220.501 -21.146 263.473 -99.6206 349.362C-105.497 355.79 -111.419 361.598 -117.079 367.294C-177.962 428.622 -203.337 435.089 -280.273 538.38C-297.513 561.347 -311.146 581.993 -324.145 600.834C-347.92 635.519 -364.81 659.386 -398.086 678.067C-458.921 712.204 -526.779 708.766 -576.261 700.677" stroke="url(#paint4_linear_638_1176)" stroke-width="6" stroke-linecap="round" stroke-linejoin="round"/>
<path d="M658.893 -93.3094C629.61 -45.0754 587.773 9.26117 535.13 8.65303C475.301 7.80404 442.505 -65.9034 393.065 -62.8451C325.312 -58.6489 353.029 125.83 260.801 174.893C239.055 186.462 218.365 187.816 197.381 184.953C152.299 178.789 108.689 152.208 57.9193 173.147C-10.9601 201.537 9.94599 265.509 -67.0771 365.293C-72.5605 372.399 -77.9647 378.77 -83.1946 384.609C-141.091 449.976 -176.244 438.999 -260.093 542.669C-279.067 566.047 -292.851 586.236 -304.84 603.876C-328.829 639.271 -343.528 662.469 -378.716 679.897C-440.807 710.623 -511.234 698.373 -561.441 683.325" stroke="url(#paint5_linear_638_1176)" stroke-width="6" stroke-linecap="round" stroke-linejoin="round"/>
<path d="M665.618 -101.303C638.461 -51.4277 598.854 4.78987 547.284 5.25865C488.454 5.7956 458.802 -69.3989 411.271 -68.8899C346.392 -68.1978 375.069 111.42 281.151 158.938C214.369 192.731 158.713 126.504 86.5119 160.91C20.7011 192.328 50.2621 259.624 -27.4447 353.117C-97.2753 437.14 -147.101 420.307 -234.539 525.966C-297.857 602.473 -298.517 642.842 -352.879 670.506C-416.952 703.201 -493.736 686.921 -550.601 667.01" stroke="url(#paint6_linear_638_1176)" stroke-width="6" stroke-linecap="round" stroke-linejoin="round"/>
<path d="M680.382 -127.17C648.112 -85.8074 604.418 -38.0049 550.415 -33.0096C490.291 -27.4459 459.644 -86.0467 418.193 -78.8695C359.084 -68.6353 393.09 88.1437 310.004 140.696C256.568 174.492 206.301 133.539 137.282 164.802C75.1906 193.054 97.7747 245.373 19.4126 312.877C-61.2741 382.376 -130.8 397.768 -203.495 488.291C-270.531 571.764 -264.127 616.418 -320.429 649.93C-387.198 689.884 -474.15 674.454 -543.594 651.79" stroke="url(#paint7_linear_638_1176)" stroke-width="6" stroke-linecap="round" stroke-linejoin="round"/>
<path d="M695.145 -153.058C657.751 -120.221 609.979 -80.9243 553.545 -71.2982C492.126 -60.8348 460.387 -102.283 425.102 -88.8602C371.584 -68.5064 411.287 63.784 338.843 122.442C298.454 155.154 253.863 140.572 188.04 168.659C129.679 193.761 141.645 228.966 66.2563 272.627C-28.2117 327.34 -114.018 375.673 -172.456 450.617C-243.082 541.175 -229.741 589.995 -287.96 629.36C-357.448 676.569 -454.557 662.003 -536.578 636.562" stroke="url(#paint8_linear_638_1176)" stroke-width="6" stroke-linecap="round" stroke-linejoin="round"/>
<path d="M709.911 -178.928C667.381 -154.607 615.54 -123.907 556.681 -109.591C493.919 -94.3187 461.269 -117.99 432.006 -98.8691C384.251 -67.6573 428.962 37.7446 367.665 104.179C339.643 134.543 301.421 147.586 238.793 172.522C184.15 194.458 182.614 209.259 113.083 232.368C1.85073 269.33 -96.8655 353.934 -141.445 412.944C-215.401 510.834 -195.395 563.583 -255.53 608.776C-327.726 663.254 -434.991 649.529 -529.601 621.322" stroke="url(#paint9_linear_638_1176)" stroke-width="6" stroke-linecap="round" stroke-linejoin="round"/>
<path d="M724.673 -204.793C677.019 -188.998 621.036 -166.967 559.81 -147.857C498.585 -128.748 462.53 -133.281 438.926 -108.846C397.622 -66.0871 444.233 9.32174 396.506 85.9251C379.758 112.813 349.006 154.624 289.54 176.389C238.605 195.169 222.762 186.068 159.928 192.117C30.2514 204.598 -79.3661 332.464 -110.413 375.257C-187.106 480.965 -161.018 537.147 -223.081 588.179C-297.983 649.903 -415.405 637.042 -522.604 606.068" stroke="url(#paint10_linear_638_1176)" stroke-width="6" stroke-linecap="round" stroke-linejoin="round"/>
<path d="M-515.608 590.834C-395.842 624.571 -268.252 636.581 -190.641 567.589C-126.663 510.727 -157.015 452.496 -79.3932 337.577C-61.5768 311.199 60.5479 130.437 206.752 151.86C264.838 160.375 293.073 195.868 340.289 180.253C396.561 161.64 418.25 90.7969 425.335 67.6779C452.706 -21.6837 411.878 -64.2307 445.825 -118.83C464.275 -148.493 497.41 -161.447 562.931 -186.139C626.504 -210.092 686.649 -223.405 739.426 -230.674" stroke="url(#paint11_linear_638_1176)" stroke-width="6" stroke-linecap="round" stroke-linejoin="round"/>
</g>
<rect x="-12.5" width="378" height="123" fill="url(#paint12_linear_638_1176)"/>
</g>
<defs>
<linearGradient id="paint0_linear_638_1176" x1="623.161" y1="-199.77" x2="-648.924" y2="752.672" gradientUnits="userSpaceOnUse">
<stop offset="0.361058" stop-color="#AC85FF"/>
<stop offset="0.421875" stop-color="#86C5FF"/>
<stop offset="0.572115" stop-color="#00F1BF"/>
<stop offset="0.79" stop-color="#7468FF"/>
</linearGradient>
<linearGradient id="paint1_linear_638_1176" x1="622.614" y1="-188.795" x2="-626.035" y2="746.101" gradientUnits="userSpaceOnUse">
<stop offset="0.211011" stop-color="#AC85FF"/>
<stop offset="0.429459" stop-color="#86C5FF"/>
<stop offset="0.560233" stop-color="#00F1BF"/>
<stop offset="0.79" stop-color="#7468FF"/>
</linearGradient>
<linearGradient id="paint2_linear_638_1176" x1="619.061" y1="-181.866" x2="-606.153" y2="735.483" gradientUnits="userSpaceOnUse">
<stop offset="0.145833" stop-color="#7468FF"/>
<stop offset="0.264884" stop-color="#AC85FF"/>
<stop offset="0.406147" stop-color="#86C5FF"/>
<stop offset="0.557393" stop-color="#00F1BF"/>
</linearGradient>
<linearGradient id="paint3_linear_638_1176" x1="615.82" y1="-174.516" x2="-585.971" y2="725.295" gradientUnits="userSpaceOnUse">
<stop offset="0.050124" stop-color="#AC85FF"/>
<stop offset="0.247573" stop-color="#86C5FF"/>
<stop offset="0.450112" stop-color="#00F1BF"/>
<stop offset="0.79" stop-color="#7468FF"/>
</linearGradient>
<linearGradient id="paint4_linear_638_1176" x1="617.734" y1="-160.289" x2="-560.633" y2="721.984" gradientUnits="userSpaceOnUse">
<stop stop-color="#7468FF"/>
<stop offset="0.217641" stop-color="#AC85FF"/>
<stop offset="0.2599" stop-color="#86C5FF"/>
<stop offset="0.394103" stop-color="#86C5FF"/>
<stop offset="0.50517" stop-color="#00F1BF"/>
</linearGradient>
<linearGradient id="paint5_linear_638_1176" x1="621.449" y1="-143.652" x2="-533.482" y2="721.075" gradientUnits="userSpaceOnUse">
<stop stop-color="#00F1BF"/>
<stop offset="0.26" stop-color="#86C5FF"/>
<stop offset="0.49" stop-color="#AC85FF"/>
<stop offset="0.79" stop-color="#7468FF"/>
</linearGradient>
<linearGradient id="paint6_linear_638_1176" x1="632.984" y1="-145.272" x2="-515.355" y2="714.518" gradientUnits="userSpaceOnUse">
<stop stop-color="#00F1BF"/>
<stop offset="0.26" stop-color="#86C5FF"/>
<stop offset="0.49" stop-color="#AC85FF"/>
<stop offset="0.79" stop-color="#7468FF"/>
</linearGradient>
<linearGradient id="paint7_linear_638_1176" x1="651.039" y1="-166.948" x2="-507.549" y2="700.517" gradientUnits="userSpaceOnUse">
<stop stop-color="#00F1BF"/>
<stop offset="0.26" stop-color="#86C5FF"/>
<stop offset="0.49" stop-color="#AC85FF"/>
<stop offset="0.79" stop-color="#7468FF"/>
</linearGradient>
<linearGradient id="paint8_linear_638_1176" x1="673.155" y1="-183.168" x2="-495.684" y2="691.971" gradientUnits="userSpaceOnUse">
<stop stop-color="#00F1BF"/>
<stop offset="0.26" stop-color="#86C5FF"/>
<stop offset="0.49" stop-color="#AC85FF"/>
<stop offset="0.79" stop-color="#7468FF"/>
</linearGradient>
<linearGradient id="paint9_linear_638_1176" x1="695.174" y1="-199.528" x2="-483.902" y2="683.276" gradientUnits="userSpaceOnUse">
<stop stop-color="#00F1BF"/>
<stop offset="0.26" stop-color="#86C5FF"/>
<stop offset="0.49" stop-color="#AC85FF"/>
<stop offset="0.79" stop-color="#7468FF"/>
</linearGradient>
<linearGradient id="paint10_linear_638_1176" x1="715.74" y1="-217.82" x2="-473.586" y2="672.659" gradientUnits="userSpaceOnUse">
<stop stop-color="#00F1BF"/>
<stop offset="0.260417" stop-color="#86C5FF"/>
<stop offset="0.49" stop-color="#AC85FF"/>
<stop offset="0.79" stop-color="#7468FF"/>
</linearGradient>
<linearGradient id="paint11_linear_638_1176" x1="739.967" y1="-231.227" x2="-459.597" y2="666.918" gradientUnits="userSpaceOnUse">
<stop stop-color="#00F1BF"/>
<stop offset="0.26" stop-color="#86C5FF"/>
<stop offset="0.49" stop-color="#AC85FF"/>
<stop offset="0.79" stop-color="#7468FF"/>
</linearGradient>
<linearGradient id="paint12_linear_638_1176" x1="153.5" y1="45" x2="338.801" y2="159.665" gradientUnits="userSpaceOnUse">
<stop stop-color="#001948"/>
<stop offset="1" stop-color="#001948" stop-opacity="0"/>
</linearGradient>
<clipPath id="clip0_638_1176">
<path d="M0 0H365V115H0V0Z" fill="white"/>
</clipPath>
</defs>
</svg>
