<svg width="32" height="32" viewBox="0 0 32 32" fill="none" xmlns="http://www.w3.org/2000/svg">
<path d="M15.9991 28.3188C16.0526 28.655 16.0526 28.9974 15.9991 29.3335C15.9456 28.9974 15.9456 28.655 15.9991 28.3188Z" stroke="#00F1BF" stroke-linecap="round" stroke-linejoin="round"/>
<path d="M27.9447 13.9998L25.278 11.3332L22.6113 13.9998V3.33317C22.6113 3.15636 22.6816 2.98679 22.8066 2.86177C22.9316 2.73674 23.1012 2.6665 23.278 2.6665H27.278C27.4548 2.6665 27.6244 2.73674 27.7494 2.86177C27.8744 2.98679 27.9447 3.15636 27.9447 3.33317V13.9998Z" stroke="#00F1BF" stroke-linecap="round" stroke-linejoin="round"/>
<path d="M16 28.6655V28.3188" stroke="#00F1BF" stroke-linecap="round" stroke-linejoin="round"/>
<path d="M16.0007 8.66667V28.32C15.8638 27.3947 15.3662 26.5612 14.6167 26.0016C13.8672 25.442 12.9267 25.2017 12.0007 25.3333H2.66732C2.3137 25.3333 1.97456 25.1929 1.72451 24.9428C1.47446 24.6928 1.33398 24.3536 1.33398 24V5.33333C1.33398 4.97971 1.47446 4.64057 1.72451 4.39052C1.97456 4.14048 2.3137 4 2.66732 4H12.0007C14.6673 4 16.0007 6 16.0007 8.66667Z" stroke="#00F1BF" stroke-linecap="round" stroke-linejoin="round"/>
<path d="M29.3333 4C29.687 4 30.0261 4.14048 30.2761 4.39052C30.5262 4.64057 30.6667 4.97971 30.6667 5.33333V24C30.6667 24.3536 30.5262 24.6928 30.2761 24.9428C30.0261 25.1929 29.687 25.3333 29.3333 25.3333H20C19.0739 25.2017 18.1334 25.442 17.3839 26.0016C16.6344 26.5612 16.1369 27.3947 16 28.32V8.66667C16 6 17.3333 4 20 4" stroke="#00F1BF" stroke-linecap="round" stroke-linejoin="round"/>
</svg>
