<svg width="53" height="48" viewBox="0 0 53 48" fill="none" xmlns="http://www.w3.org/2000/svg">
<path d="M50.698 24.8802L49.6393 26.2502C49.3196 26.6612 49.249 27.2093 49.4524 27.6909L50.125 29.2851C50.3824 29.8913 50.1915 30.5929 49.6683 30.9873L48.29 32.0336C47.8748 32.3491 47.6631 32.8598 47.7336 33.3746L47.9661 35.0892C48.0533 35.741 47.6921 36.3679 47.0818 36.617L45.4793 37.2689C44.9977 37.464 44.6614 37.9041 44.595 38.4189L44.3791 40.1335C44.296 40.7854 43.7854 41.296 43.1335 41.3791L41.4189 41.5949C40.9041 41.6614 40.464 41.9977 40.2689 42.4793L39.617 44.0818C39.3679 44.688 38.741 45.0533 38.0892 44.9661L36.3746 44.7336C35.8597 44.6631 35.3491 44.8748 35.0336 45.29L33.9873 46.6683C33.5888 47.1915 32.8871 47.3783 32.2851 47.125L30.6909 46.4524C30.2134 46.249 29.6612 46.3237 29.2502 46.6393L27.8802 47.698C27.3612 48.1007 26.6388 48.1007 26.1198 47.698L24.7498 46.6393C24.3388 46.3196 23.7907 46.249 23.3091 46.4524L21.7149 47.125C21.1087 47.3824 20.4071 47.1915 20.0127 46.6683L18.9664 45.29C18.6509 44.8748 18.1403 44.6631 17.6254 44.7336L15.9108 44.9661C15.259 45.0533 14.6321 44.6921 14.383 44.0818L13.7311 42.4793C13.536 41.9977 13.0959 41.6614 12.5811 41.5949L10.8665 41.3791C10.2146 41.296 9.70397 40.7854 9.62094 40.1335L9.40505 38.4189C9.33862 37.9041 9.00234 37.464 8.52074 37.2689L6.91818 36.617C6.31203 36.3679 5.94668 35.741 6.03386 35.0892L6.26636 33.3746C6.33694 32.8598 6.1252 32.3491 5.71003 32.0336L4.33166 30.9873C3.80855 30.5888 3.62172 29.8871 3.87497 29.2851L4.54755 27.6909C4.75098 27.2134 4.67625 26.6612 4.36072 26.2502L3.30204 24.8802C2.89932 24.3612 2.89932 23.6388 3.30204 23.1198L4.36072 21.7498C4.6804 21.3388 4.75098 20.7907 4.54755 20.3091L3.87497 18.7149C3.61757 18.1087 3.80855 17.4071 4.33166 17.0127L5.71003 15.9664C6.1252 15.6509 6.33694 15.1403 6.26636 14.6254L6.03386 12.9108C5.94668 12.259 6.30788 11.6321 6.91818 11.383L8.52074 10.7311C9.00234 10.536 9.33862 10.0959 9.40505 9.58111L9.62094 7.86645C9.70397 7.21463 10.2146 6.70397 10.8665 6.62094L12.5811 6.40505C13.0959 6.33862 13.536 6.00234 13.7311 5.52074L14.383 3.91818C14.6321 3.31203 15.259 2.94668 15.9108 3.03386L17.6254 3.26636C18.1403 3.33694 18.6509 3.1252 18.9664 2.71003L20.0127 1.33166C20.4112 0.808545 21.1129 0.621719 21.7149 0.874973L23.3091 1.54755C23.7866 1.75098 24.3388 1.67625 24.7498 1.36072L26.1198 0.302037C26.6388 -0.100679 27.3612 -0.100679 27.8802 0.302037L29.2502 1.36072C29.6612 1.6804 30.2093 1.75098 30.6909 1.54755L32.2851 0.874973C32.8913 0.617567 33.5929 0.808545 33.9873 1.33166L35.0336 2.71003C35.3491 3.1252 35.8597 3.33694 36.3746 3.26636L38.0892 3.03386C38.741 2.94668 39.3679 3.30788 39.617 3.91818L40.2689 5.52074C40.464 6.00234 40.9041 6.33862 41.4189 6.40505L43.1335 6.62094C43.7854 6.70397 44.296 7.21463 44.3791 7.86645L44.595 9.58111C44.6614 10.0959 44.9977 10.536 45.4793 10.7311L47.0818 11.383C47.688 11.6321 48.0533 12.259 47.9661 12.9108L47.7336 14.6254C47.6631 15.1403 47.8748 15.6509 48.29 15.9664L49.6683 17.0127C50.1915 17.4112 50.3783 18.1129 50.125 18.7149L49.4524 20.3091C49.249 20.7866 49.3237 21.3388 49.6393 21.7498L50.698 23.1198C51.1007 23.6388 51.1007 24.3612 50.698 24.8802Z" fill="#ACA4FF"/>
<path d="M12.7196 23.084C11.4356 23.084 10.5476 22.136 10.5476 20.9C10.5476 19.67 11.4356 18.722 12.7196 18.722C13.6796 18.722 14.4896 19.268 14.7716 20.27H13.8176C13.6316 19.826 13.1996 19.586 12.7196 19.586C11.9996 19.586 11.4716 20.15 11.4716 20.9C11.4716 21.656 11.9996 22.214 12.7196 22.214C13.1756 22.214 13.6196 21.992 13.8176 21.536H14.7716C14.4896 22.544 13.6796 23.084 12.7196 23.084ZM15.4034 23V18.8H18.0434V19.64H16.2974V20.45H17.8034V21.284H16.2974V22.166H18.1034V23H15.4034ZM18.7608 23V18.8H20.2848L21.2568 22.1H21.3168V18.8H22.2048V23H20.6688L19.7208 19.7H19.6548V23H18.7608ZM23.896 23V19.64H22.774V18.8H25.906V19.64H24.784V23H23.896ZM26.4776 23V18.8H29.1176V19.64H27.3716V20.45H28.8776V21.284H27.3716V22.166H29.1776V23H26.4776ZM29.835 23V18.8H31.281C32.163 18.8 32.781 19.328 32.781 20.114C32.781 20.678 32.517 21.116 32.031 21.344L32.949 23H31.929L31.155 21.482H30.729V23H29.835ZM30.729 20.672H31.293C31.617 20.672 31.851 20.48 31.851 20.132C31.851 19.862 31.665 19.634 31.263 19.634H30.729V20.672ZM36.9661 23.078C35.7001 23.078 34.7761 22.136 34.7761 20.894C34.7761 19.664 35.7121 18.722 36.9661 18.722C38.2321 18.722 39.1561 19.676 39.1561 20.894C39.1561 22.124 38.2261 23.078 36.9661 23.078ZM36.9661 22.214C37.6861 22.214 38.2321 21.656 38.2321 20.894C38.2321 20.144 37.6861 19.586 36.9661 19.586C36.2341 19.586 35.7001 20.144 35.7001 20.894C35.7001 21.656 36.2341 22.214 36.9661 22.214ZM39.8136 23V18.8H42.4536V19.64H40.7076V20.564H42.3396V21.398H40.7076V23H39.8136ZM10.6895 29V24.8H13.3295V25.64H11.5835V26.45H13.0895V27.284H11.5835V28.166H13.3895V29H10.6895ZM13.657 29L14.875 26.84L13.723 24.8H14.743L15.469 26.156H15.547L16.273 24.8H17.287L16.135 26.84L17.353 29H16.357L15.541 27.512H15.469L14.653 29H13.657ZM17.8028 29V24.8H20.4428V25.64H18.6968V26.45H20.2028V27.284H18.6968V28.166H20.5028V29H17.8028ZM21.1602 29V24.8H22.0542V28.166H23.7162V29H21.1602ZM24.3184 29V24.8H25.2124V28.166H26.8744V29H24.3184ZM27.4766 29V24.8H30.1166V25.64H28.3706V26.45H29.8766V27.284H28.3706V28.166H30.1766V29H27.4766ZM30.8341 29V24.8H32.3581L33.3301 28.1H33.3901V24.8H34.2781V29H32.7421L31.7941 25.7H31.7281V29H30.8341ZM37.1093 29.084C35.8253 29.084 34.9373 28.136 34.9373 26.9C34.9373 25.67 35.8253 24.722 37.1093 24.722C38.0693 24.722 38.8793 25.268 39.1613 26.27H38.2073C38.0213 25.826 37.5893 25.586 37.1093 25.586C36.3893 25.586 35.8613 26.15 35.8613 26.9C35.8613 27.656 36.3893 28.214 37.1093 28.214C37.5653 28.214 38.0093 27.992 38.2073 27.536H39.1613C38.8793 28.544 38.0693 29.084 37.1093 29.084ZM39.793 29V24.8H42.433V25.64H40.687V26.45H42.193V27.284H40.687V28.166H42.493V29H39.793Z" fill="#020A5B"/>
<path d="M27.0286 43.3636C19.0116 43.3636 11.9371 38.5435 9.00183 31.087L10.1602 30.6303C12.9044 37.6093 19.5264 42.1181 27.0244 42.1181C34.5224 42.1181 41.0821 37.6467 43.8513 30.73L45.0096 31.1949C42.0494 38.5891 34.9915 43.3636 27.0286 43.3636Z" fill="#020A5B"/>
<path d="M10.3143 16.9504L9.16846 16.4646C12.2075 9.28218 19.2114 4.64056 27.0084 4.64056C34.8053 4.64056 41.8092 9.28218 44.8483 16.4646L43.7024 16.9504C40.8585 10.2288 34.3071 5.88608 27.0084 5.88608C19.7097 5.88608 13.1583 10.2288 10.3143 16.9504Z" fill="#020A5B"/>
<path d="M47.4639 30.3355H6.55298V31.581H47.4639V30.3355Z" fill="#020A5B"/>
<path d="M47.4639 16.3276H6.55298V17.5731H47.4639V16.3276Z" fill="#020A5B"/>
</svg>
