<svg width="395" height="115" viewBox="0 0 395 115" fill="none" xmlns="http://www.w3.org/2000/svg">
<g style="mix-blend-mode:color-dodge">
<path d="M-465.327 -659.535C-441.911 -502.355 -386.703 -318.109 -241.063 -274.992C-89.3396 -230.074 53.6389 -369.362 158.818 -304.584C281.042 -229.316 148.388 1.31271 283.364 106.447C369.783 173.781 462.218 108.821 637.773 163.546C765.537 203.39 850.311 279.5 902.102 337.85" stroke="url(#paint0_linear_234_1019)" stroke-width="4" stroke-linecap="round" stroke-linejoin="round"/>
<path d="M-460.075 -660.506C-443.589 -588.814 -419.002 -510.061 -386.394 -441.118C-353.189 -370.633 -314.77 -313.163 -246.857 -289.158C-137.081 -250.355 -15.6372 -329.513 77.401 -325.707C102.326 -324.686 124.869 -318.749 145.427 -304.155C186.884 -274.43 194.885 -225.094 200.156 -170.098C208.239 -85.7817 199.1 3.43211 266.685 69.5543C273.012 75.7321 279.801 81.7239 287.324 87.3224C360.404 141.144 428.336 113.593 552.951 134.199C579.211 138.598 606.873 144.63 636.427 153.787C677.773 166.552 713.518 182.187 745.68 201.635C812.692 242.148 859.042 292.363 890.654 333.467" stroke="url(#paint1_linear_234_1019)" stroke-width="4" stroke-linecap="round" stroke-linejoin="round"/>
<path d="M-454.798 -661.461C-433.439 -596.154 -403.744 -523.426 -373.048 -456.364C-341.595 -387.126 -315.186 -329.67 -252.621 -303.322C-152.455 -261.117 -23.518 -340.819 68.2426 -329.473C92.4846 -326.478 113.479 -319.178 132.064 -303.728C169.858 -272.335 175.351 -222.693 184.055 -168.915C197.22 -87.4745 196.133 -13.0254 270.147 51.2817C276.832 57.0942 283.741 62.8629 291.326 68.1778C365.769 120.384 426.289 99.8398 552.168 123.789C578.935 128.968 606.376 135.152 635.137 144.007C676.893 156.767 711.871 171.551 743.756 192.032C808.973 233.896 851.212 286.526 879.239 329.049" stroke="url(#paint2_linear_234_1019)" stroke-width="4" stroke-linecap="round" stroke-linejoin="round"/>
<path d="M-449.459 -662.427C-423.241 -603.521 -388.423 -536.816 -359.627 -471.631C-329.931 -403.669 -315.526 -346.268 -258.335 -317.525C-167.795 -272.012 -31.4048 -352.258 59.1345 -333.264C82.6767 -328.326 102.106 -319.564 118.733 -303.334C152.761 -270.146 155.82 -220.347 167.97 -167.781C186.143 -89.2319 193.017 -29.4696 273.639 32.9226C280.683 38.3694 287.733 43.8861 295.358 48.9453C371.322 99.358 424.339 85.7232 551.391 113.282C578.658 119.195 605.87 125.593 633.848 134.13C676.012 146.885 710.219 160.792 741.839 182.316C805.281 225.501 843.385 280.571 867.824 324.534" stroke="url(#paint3_linear_234_1019)" stroke-width="4" stroke-linecap="round" stroke-linejoin="round"/>
<path d="M-444.117 -663.369C-413.039 -610.867 -372.939 -550.257 -346.217 -486.892C-318.119 -420.274 -315.912 -362.927 -264.052 -331.714C-183.151 -283.01 -39.2858 -363.828 49.9943 -337.031C72.834 -330.174 90.6747 -319.922 105.393 -302.92C135.68 -267.92 136.228 -217.972 151.888 -166.622C174.981 -90.96 189.767 -45.7745 277.127 14.5926C284.493 19.6924 291.734 24.9473 299.386 29.7413C376.895 78.3542 422.316 71.8752 550.604 102.807C578.377 109.5 605.353 116.041 632.549 124.284C675.111 137.047 708.582 150.058 739.9 172.643C801.588 217.122 835.533 274.661 856.396 320.049" stroke="url(#paint4_linear_234_1019)" stroke-width="4" stroke-linecap="round" stroke-linejoin="round"/>
<path d="M-438.766 -664.301C-402.826 -618.206 -357.589 -563.617 -332.782 -502.142C-306.429 -436.794 -316.235 -379.657 -269.764 -345.905C-198.454 -294.125 -47.1378 -375.508 40.8656 -340.81C63.0115 -332.069 79.2424 -320.275 92.0384 -302.511C118.547 -265.68 116.556 -215.603 135.802 -165.483C163.742 -92.6969 186.388 -61.9774 280.614 -3.769C288.314 0.992814 295.719 5.96723 303.401 10.5192C382.464 57.2934 420.267 58.0478 549.814 92.3243C578.08 99.8122 604.833 106.506 631.245 114.43C674.215 127.187 706.936 139.293 737.954 162.963C797.91 208.706 827.684 268.751 844.945 315.57" stroke="url(#paint5_linear_234_1019)" stroke-width="4" stroke-linecap="round" stroke-linejoin="round"/>
<path d="M-433.4 -665.22C-392.573 -625.542 -342.237 -576.981 -319.346 -517.399C-294.738 -453.323 -316.555 -396.483 -275.466 -360.097C-213.7 -305.383 -54.9075 -387.311 31.7423 -344.563C53.203 -333.976 67.8278 -320.594 78.7007 -302.068C101.407 -263.378 96.8515 -213.168 119.706 -164.31C152.433 -94.3782 182.888 -78.0132 284.103 -22.1211C292.115 -17.6927 299.708 -13.0039 307.429 -8.70821C388.068 36.197 418.204 44.2202 549.007 81.8418C577.753 90.1153 604.307 96.9566 629.924 104.576C673.3 117.327 705.283 128.512 735.988 153.281C794.244 200.245 819.8 262.828 833.482 311.072" stroke="url(#paint6_linear_234_1019)" stroke-width="4" stroke-linecap="round" stroke-linejoin="round"/>
<path d="M-428.06 -666.024C-382.375 -632.763 -326.928 -590.229 -305.944 -532.56C-283.108 -469.759 -316.806 -413.33 -281.221 -374.22C-228.88 -316.733 -62.6781 -399.125 22.5418 -348.271C43.3517 -335.857 56.3083 -320.864 65.2685 -301.593C84.1452 -261.043 76.9899 -210.686 103.526 -163.11C140.954 -95.9894 179.227 -93.8901 287.488 -40.4524C295.811 -36.3345 303.603 -31.9693 311.365 -27.9072C393.61 15.1045 416.056 30.4485 548.115 71.3741C577.351 80.4416 603.681 87.4345 628.51 94.7347C672.291 107.478 703.557 117.736 733.935 143.591C790.498 191.757 811.821 256.887 821.912 306.564" stroke="url(#paint7_linear_234_1019)" stroke-width="4" stroke-linecap="round" stroke-linejoin="round"/>
<path d="M-422.696 -666.765C-372.154 -639.922 -311.612 -603.428 -292.521 -547.643C-271.458 -486.122 -316.955 -430.184 -286.956 -388.277C-243.902 -328.144 -70.3566 -410.948 13.3369 -351.901C33.5066 -337.676 44.7584 -321.053 51.8436 -301.033C66.8542 -258.607 57.1124 -208.099 87.3516 -161.836C129.432 -97.4986 175.506 -109.544 290.87 -58.7187C299.505 -54.9118 307.493 -50.8705 315.284 -47.0515C399.138 -5.99701 413.767 16.9524 547.182 60.9448C576.887 70.8572 603.022 77.9356 627.041 84.9439C671.213 97.6926 701.77 106.986 731.809 133.963C786.712 183.286 803.767 250.998 810.264 302.082" stroke="url(#paint8_linear_234_1019)" stroke-width="4" stroke-linecap="round" stroke-linejoin="round"/>
<path d="M-417.343 -667.4C-361.947 -646.978 -296.327 -616.511 -279.119 -562.653C-259.853 -502.389 -316.95 -447.033 -292.697 -402.267C-258.711 -339.561 -77.9458 -422.758 4.13315 -355.473C23.6727 -339.453 33.2079 -321.189 38.4158 -300.446C49.535 -256.143 37.1738 -205.446 71.1591 -160.556C117.832 -98.9372 171.724 -125.044 294.231 -76.9999C303.167 -73.4902 311.376 -69.778 319.181 -66.2117C404.675 -27.1369 411.554 3.17593 546.227 50.4971C576.407 61.1926 602.324 68.4073 625.544 75.1091C670.115 87.8478 699.986 96.1709 729.636 124.277C782.898 174.746 795.66 245.04 798.566 297.548" stroke="url(#paint9_linear_234_1019)" stroke-width="4" stroke-linecap="round" stroke-linejoin="round"/>
<path d="M-411.863 -668.01C-351.608 -654 -281.028 -629.529 -265.61 -577.652C-248.254 -518.645 -316.667 -463.912 -298.325 -416.301C-273.184 -351.057 -85.3647 -434.662 -5.01851 -359.099C13.927 -341.283 21.6817 -321.381 25.0392 -299.901C32.2398 -253.75 17.268 -202.804 55.0394 -159.353C106.266 -100.397 167.949 -140.479 297.621 -95.3506C306.855 -92.1385 315.282 -88.7794 323.091 -85.4288C410.307 -48.5608 409.356 -10.688 545.245 39.9559C575.909 51.4413 601.595 58.8049 624.023 65.1848C669.001 77.9203 698.17 85.2625 727.451 114.486C779.091 166.063 787.55 238.961 786.862 292.86" stroke="url(#paint10_linear_234_1019)" stroke-width="4" stroke-linecap="round" stroke-linejoin="round"/>
<path d="M-406.314 -668.62C-341.219 -661.029 -265.541 -642.605 -252.03 -592.64C-236.437 -534.924 -316.138 -480.763 -303.87 -430.316C-287.375 -362.471 -92.6105 -446.542 -14.0907 -362.732C43.9235 -300.811 -21.8203 -219.592 38.974 -158.171C94.7153 -101.84 164.204 -155.781 301.042 -113.714C418.474 -77.622 395.082 -29.3557 544.294 29.3703C640.766 67.349 682.651 59.7994 725.276 104.659C775.327 157.319 779.447 232.808 775.17 288.115" stroke="url(#paint11_linear_234_1019)" stroke-width="4" stroke-linecap="round" stroke-linejoin="round"/>
<path d="M-422.557 -672.147C-361.2 -660.726 -289.296 -639.017 -273.059 -588.519C-254.533 -530.912 -325.491 -478.806 -310.443 -432.286C-289.906 -368.787 -107.542 -451.857 -28.3183 -374.155C28.0192 -318.906 -25.4614 -244.006 33.183 -183.622C86.6973 -128.6 149.28 -178.201 272.472 -130.474C383.187 -87.5857 380.483 -33.5103 519.591 20.0535C620.32 58.8446 663.475 47.1514 709.501 92.0784C763.843 145.003 769.955 225.383 766.125 287.31" stroke="url(#paint12_linear_234_1019)" stroke-width="4" stroke-linecap="round" stroke-linejoin="round"/>
<path d="M-438.668 -675.682C-381.048 -660.443 -312.963 -635.431 -293.949 -584.417C-272.529 -526.933 -334.601 -476.848 -316.879 -434.317C-292.206 -375.111 -122.572 -457.308 -42.4324 -385.669C12.0026 -337.016 -28.9839 -268.542 27.5146 -209.22C78.795 -155.518 134.514 -199.923 243.975 -147.391C348.455 -97.2375 366.035 -38.0115 494.924 10.574C599.938 50.1528 644.32 34.3101 693.771 79.3156C752.399 132.473 760.517 217.744 757.147 286.296" stroke="url(#paint13_linear_234_1019)" stroke-width="4" stroke-linecap="round" stroke-linejoin="round"/>
<path d="M-454.686 -679.089C-400.812 -660.036 -336.598 -631.73 -314.796 -580.205C-290.52 -522.839 -343.532 -474.809 -323.24 -436.282C-294.303 -381.342 -137.826 -462.698 -56.5306 -397.144C-4.24889 -354.983 -32.4897 -293.076 21.8532 -234.831C70.8774 -182.472 119.665 -220.66 215.432 -164.32C314.031 -106.307 351.637 -42.711 470.171 1.02249C579.476 41.3509 625.045 21.4033 677.899 66.4665C740.805 119.842 750.928 209.985 748.006 285.138" stroke="url(#paint14_linear_234_1019)" stroke-width="4" stroke-linecap="round" stroke-linejoin="round"/>
<path d="M-470.717 -682.383C-420.605 -659.503 -360.278 -627.915 -335.665 -575.888C-308.573 -518.651 -352.368 -472.663 -329.632 -438.144C-296.244 -387.478 -153.412 -467.96 -70.6647 -408.511C-20.815 -372.687 -36.0325 -317.513 16.1265 -260.348C62.9047 -209.328 104.451 -240.235 186.835 -181.166C279.728 -114.563 337.249 -47.5081 445.361 -8.45356C558.96 32.5828 605.715 8.5555 661.97 53.6719C729.151 107.284 741.276 202.265 738.805 284.036" stroke="url(#paint15_linear_234_1019)" stroke-width="4" stroke-linecap="round" stroke-linejoin="round"/>
<path d="M-486.761 -685.684C-440.399 -658.991 -383.994 -624.079 -356.522 -571.584C-326.637 -514.448 -361.059 -470.593 -336.002 -440.034C-298.004 -393.685 -169.332 -473.144 -84.7902 -419.915C-37.6459 -390.242 -39.5538 -341.978 10.4325 -285.905C54.9625 -236.249 88.7773 -258.771 158.258 -198.063C245.324 -121.992 322.957 -52.4798 420.556 -17.9915C538.493 23.6963 586.378 -4.33995 646.045 40.8151C717.499 94.6404 731.642 194.492 729.605 282.847" stroke="url(#paint16_linear_234_1019)" stroke-width="4" stroke-linecap="round" stroke-linejoin="round"/>
<path d="M-502.782 -688.991C-460.181 -658.472 -407.7 -620.26 -377.381 -567.283C-344.714 -510.234 -369.606 -468.578 -342.386 -441.913C-299.583 -399.966 -185.673 -478.07 -98.9165 -431.298C-54.7672 -407.494 -43.0899 -366.43 4.73705 -311.442C47.0211 -263.125 72.4385 -276.276 129.68 -214.94C210.391 -128.432 308.727 -57.5637 395.763 -27.501C518.081 14.7582 567.077 -17.2117 630.119 28.0009C705.847 82.0388 721.993 186.751 720.407 281.721" stroke="url(#paint17_linear_234_1019)" stroke-width="4" stroke-linecap="round" stroke-linejoin="round"/>
<path d="M-518.807 -692.282C-479.942 -657.942 -431.446 -616.406 -398.244 -562.966C-362.832 -505.985 -378.056 -466.675 -348.775 -443.776C-300.982 -406.411 -202.46 -482.562 -113.048 -442.665C-72.1808 -424.423 -46.6318 -390.866 -0.97762 -336.972C39.0468 -290.004 55.2668 -293.022 101.085 -231.788C174.374 -133.826 294.545 -62.7285 370.952 -36.9833C497.703 5.72996 547.733 -30.0513 614.185 15.1996C694.199 69.4591 712.336 179.022 711.198 280.583" stroke="url(#paint18_linear_234_1019)" stroke-width="4" stroke-linecap="round" stroke-linejoin="round"/>
<path d="M-534.799 -695.573C-499.696 -657.409 -455.17 -612.519 -419.052 -558.661C-380.91 -501.76 -386.362 -464.899 -355.114 -445.679C-302.201 -413.112 -219.684 -486.33 -127.16 -454.065C-89.7952 -441.034 -50.145 -415.35 -6.67384 -362.513C31.1036 -316.888 37.2374 -309.289 72.5054 -248.676C136.733 -138.291 280.413 -68.0446 346.125 -46.5096C477.379 -3.51267 528.368 -42.9346 598.218 2.36681C682.491 56.8505 702.643 171.254 701.952 279.402" stroke="url(#paint19_linear_234_1019)" stroke-width="4" stroke-linecap="round" stroke-linejoin="round"/>
<path d="M-550.775 -698.877C-519.422 -656.903 -478.891 -608.654 -439.869 -554.365C-400.847 -500.075 -394.666 -463.278 -361.46 -447.566C-303.352 -420.073 -237.336 -488.907 -141.253 -465.453C-107.53 -457.225 -53.6527 -439.806 -12.3417 -388.056C23.1889 -343.772 18.3403 -325.429 43.9563 -265.567C96.8179 -142.021 266.339 -73.4546 321.352 -56.0451C457.245 -13.0413 509.067 -55.8409 582.314 -10.4891C670.857 44.2046 693.012 163.462 692.771 278.218" stroke="url(#paint20_linear_234_1019)" stroke-width="4" stroke-linecap="round" stroke-linejoin="round"/>
<path d="M-566.764 -702.168C-539.173 -656.371 -502.73 -604.699 -460.698 -550.058C-417.208 -493.176 -402.983 -461.776 -367.82 -449.442C-304.502 -427.25 -255.246 -489.633 -155.361 -476.828C-125.265 -472.978 -57.1753 -464.247 -18.0244 -413.583C15.2462 -370.649 -1.40455 -341.842 15.3969 -282.42C54.1584 -145.403 252.295 -78.932 296.555 -65.5537C437.296 -23.0112 489.73 -68.7055 566.374 -23.3032C659.199 31.6096 683.357 155.72 683.552 277.051" stroke="url(#paint21_linear_234_1019)" stroke-width="4" stroke-linecap="round" stroke-linejoin="round"/>
<path d="M674.207 275.842C673.551 147.944 647.393 19.0056 550.31 -36.1066C470.293 -81.5413 417.604 -33.9448 271.657 -75.0303C238.158 -84.4605 8.58234 -149.115 -13.2417 -299.207C-21.9084 -358.838 7.23538 -397.407 -23.7851 -438.991C-60.7583 -488.551 -142.746 -488.193 -169.504 -488.083C-272.926 -487.644 -305.732 -434.555 -374.178 -451.196C-411.365 -460.244 -435.259 -488.817 -481.522 -545.599C-526.405 -600.695 -558.922 -655.676 -582.761 -705.271" stroke="url(#paint22_linear_234_1019)" stroke-width="4" stroke-linecap="round" stroke-linejoin="round"/>
</g>
<defs>
<linearGradient id="paint0_linear_234_1019" x1="-513.151" y1="-600.621" x2="805.827" y2="458.406" gradientUnits="userSpaceOnUse">
<stop offset="0.361058" stop-color="#AC85FF"/>
<stop offset="0.421875" stop-color="#86C5FF"/>
<stop offset="0.572115" stop-color="#00F1BF"/>
<stop offset="0.79" stop-color="#7468FF"/>
</linearGradient>
<linearGradient id="paint1_linear_234_1019" x1="-507.002" y1="-602.677" x2="800.217" y2="446.791" gradientUnits="userSpaceOnUse">
<stop offset="0.254951" stop-color="#AC85FF"/>
<stop offset="0.412167" stop-color="#86C5FF"/>
<stop offset="0.547062" stop-color="#00F1BF"/>
<stop offset="0.79" stop-color="#7468FF"/>
</linearGradient>
<linearGradient id="paint2_linear_234_1019" x1="-501.706" y1="-603.598" x2="793.674" y2="436.263" gradientUnits="userSpaceOnUse">
<stop offset="0.211011" stop-color="#AC85FF"/>
<stop offset="0.429459" stop-color="#86C5FF"/>
<stop offset="0.560233" stop-color="#00F1BF"/>
<stop offset="0.79" stop-color="#7468FF"/>
</linearGradient>
<linearGradient id="paint3_linear_234_1019" x1="-497.571" y1="-603.034" x2="785.905" y2="427.189" gradientUnits="userSpaceOnUse">
<stop stop-color="#7468FF"/>
<stop offset="0.21875" stop-color="#AC85FF"/>
<stop offset="0.389731" stop-color="#86C5FF"/>
<stop offset="0.470818" stop-color="#00F1BF"/>
</linearGradient>
<linearGradient id="paint4_linear_234_1019" x1="-493.489" y1="-602.377" x2="778.059" y2="418.196" gradientUnits="userSpaceOnUse">
<stop offset="0.145833" stop-color="#7468FF"/>
<stop offset="0.264884" stop-color="#AC85FF"/>
<stop offset="0.406147" stop-color="#86C5FF"/>
<stop offset="0.557393" stop-color="#00F1BF"/>
</linearGradient>
<linearGradient id="paint5_linear_234_1019" x1="-489.374" y1="-601.737" x2="770.232" y2="409.183" gradientUnits="userSpaceOnUse">
<stop offset="0.230356" stop-color="#AC85FF"/>
<stop offset="0.452862" stop-color="#86C5FF"/>
<stop offset="0.575076" stop-color="#00F1BF"/>
<stop offset="0.79" stop-color="#7468FF"/>
</linearGradient>
<linearGradient id="paint6_linear_234_1019" x1="-484.881" y1="-601.538" x2="762.732" y2="399.699" gradientUnits="userSpaceOnUse">
<stop offset="0.050124" stop-color="#AC85FF"/>
<stop offset="0.247573" stop-color="#86C5FF"/>
<stop offset="0.450112" stop-color="#00F1BF"/>
<stop offset="0.79" stop-color="#7468FF"/>
</linearGradient>
<linearGradient id="paint7_linear_234_1019" x1="-478.317" y1="-603.817" x2="757.172" y2="387.677" gradientUnits="userSpaceOnUse">
<stop offset="0.193699" stop-color="#AC85FF"/>
<stop offset="0.423413" stop-color="#73CBF6"/>
<stop offset="0.51386" stop-color="#00F1BF"/>
<stop offset="0.79" stop-color="#7468FF"/>
</linearGradient>
<linearGradient id="paint8_linear_234_1019" x1="-470.517" y1="-607.568" x2="752.778" y2="374.154" gradientUnits="userSpaceOnUse">
<stop stop-color="#7468FF"/>
<stop offset="0.217641" stop-color="#AC85FF"/>
<stop offset="0.2599" stop-color="#86C5FF"/>
<stop offset="0.394103" stop-color="#86C5FF"/>
<stop offset="0.50517" stop-color="#00F1BF"/>
</linearGradient>
<linearGradient id="paint9_linear_234_1019" x1="-460.994" y1="-613.376" x2="749.99" y2="358.516" gradientUnits="userSpaceOnUse">
<stop offset="0.293961" stop-color="#AC85FF"/>
<stop offset="0.427113" stop-color="#86C5FF"/>
<stop offset="0.500503" stop-color="#00F1BF"/>
<stop offset="0.79" stop-color="#7468FF"/>
</linearGradient>
<linearGradient id="paint10_linear_234_1019" x1="-453.998" y1="-615.855" x2="744.459" y2="346.104" gradientUnits="userSpaceOnUse">
<stop stop-color="#00F1BF"/>
<stop offset="0.26" stop-color="#86C5FF"/>
<stop offset="0.49" stop-color="#AC85FF"/>
<stop offset="0.79" stop-color="#7468FF"/>
</linearGradient>
<linearGradient id="paint11_linear_234_1019" x1="-448.005" y1="-616.999" x2="737.839" y2="334.981" gradientUnits="userSpaceOnUse">
<stop stop-color="#00F1BF"/>
<stop offset="0.26" stop-color="#86C5FF"/>
<stop offset="0.49" stop-color="#AC85FF"/>
<stop offset="0.79" stop-color="#6457F1"/>
</linearGradient>
<linearGradient id="paint12_linear_234_1019" x1="-459.381" y1="-626.659" x2="732.332" y2="329.854" gradientUnits="userSpaceOnUse">
<stop stop-color="#00F1BF"/>
<stop offset="0.26" stop-color="#86C5FF"/>
<stop offset="0.49" stop-color="#AC85FF"/>
<stop offset="0.79" stop-color="#7468FF"/>
</linearGradient>
<linearGradient id="paint13_linear_234_1019" x1="-474.082" y1="-632.048" x2="723.323" y2="328.91" gradientUnits="userSpaceOnUse">
<stop stop-color="#00F1BF"/>
<stop offset="0.26" stop-color="#86C5FF"/>
<stop offset="0.49" stop-color="#AC85FF"/>
<stop offset="0.79" stop-color="#7468FF"/>
</linearGradient>
<linearGradient id="paint14_linear_234_1019" x1="-488.063" y1="-638.097" x2="714.754" y2="327.172" gradientUnits="userSpaceOnUse">
<stop stop-color="#00F1BF"/>
<stop offset="0.26" stop-color="#86C5FF"/>
<stop offset="0.49" stop-color="#AC85FF"/>
<stop offset="0.79" stop-color="#7468FF"/>
</linearGradient>
<linearGradient id="paint15_linear_234_1019" x1="-500.06" y1="-646.496" x2="708.04" y2="323.022" gradientUnits="userSpaceOnUse">
<stop stop-color="#00F1BF"/>
<stop offset="0.26" stop-color="#86C5FF"/>
<stop offset="0.49" stop-color="#AC85FF"/>
<stop offset="0.79" stop-color="#7468FF"/>
</linearGradient>
<linearGradient id="paint16_linear_234_1019" x1="-512.093" y1="-654.873" x2="701.31" y2="318.911" gradientUnits="userSpaceOnUse">
<stop stop-color="#00F1BF"/>
<stop offset="0.26" stop-color="#86C5FF"/>
<stop offset="0.49" stop-color="#AC85FF"/>
<stop offset="0.79" stop-color="#7468FF"/>
</linearGradient>
<linearGradient id="paint17_linear_234_1019" x1="-524.125" y1="-663.229" x2="694.55" y2="314.798" gradientUnits="userSpaceOnUse">
<stop stop-color="#00F1BF"/>
<stop offset="0.26" stop-color="#86C5FF"/>
<stop offset="0.49" stop-color="#AC85FF"/>
<stop offset="0.79" stop-color="#7468FF"/>
</linearGradient>
<linearGradient id="paint18_linear_234_1019" x1="-536.231" y1="-671.506" x2="687.723" y2="310.771" gradientUnits="userSpaceOnUse">
<stop stop-color="#00F1BF"/>
<stop offset="0.26" stop-color="#86C5FF"/>
<stop offset="0.49" stop-color="#AC85FF"/>
<stop offset="0.79" stop-color="#7468FF"/>
</linearGradient>
<linearGradient id="paint19_linear_234_1019" x1="-549.039" y1="-678.845" x2="680.136" y2="307.651" gradientUnits="userSpaceOnUse">
<stop stop-color="#00F1BF"/>
<stop offset="0.26" stop-color="#86C5FF"/>
<stop offset="0.49" stop-color="#AC85FF"/>
<stop offset="0.79" stop-color="#7468FF"/>
</linearGradient>
<linearGradient id="paint20_linear_234_1019" x1="-561.911" y1="-686.12" x2="672.505" y2="304.613" gradientUnits="userSpaceOnUse">
<stop stop-color="#00F1BF"/>
<stop offset="0.260417" stop-color="#86C5FF"/>
<stop offset="0.49" stop-color="#AC85FF"/>
<stop offset="0.79" stop-color="#7468FF"/>
</linearGradient>
<linearGradient id="paint21_linear_234_1019" x1="-574.763" y1="-693.425" x2="664.882" y2="301.535" gradientUnits="userSpaceOnUse">
<stop stop-color="#00F1BF"/>
<stop offset="0.26" stop-color="#86C5FF"/>
<stop offset="0.49" stop-color="#AC85FF"/>
<stop offset="0.79" stop-color="#7468FF"/>
</linearGradient>
<linearGradient id="paint22_linear_234_1019" x1="-583.514" y1="-705.633" x2="661.126" y2="293.437" gradientUnits="userSpaceOnUse">
<stop stop-color="#00F1BF"/>
<stop offset="0.26" stop-color="#86C5FF"/>
<stop offset="0.49" stop-color="#AC85FF"/>
<stop offset="0.79" stop-color="#7468FF"/>
</linearGradient>
</defs>
</svg>
