<svg width="54" height="48" viewBox="0 0 54 48" fill="none" xmlns="http://www.w3.org/2000/svg">
<path d="M50.698 24.8802L49.6393 26.2502C49.3196 26.6612 49.249 27.2093 49.4524 27.6909L50.125 29.2851C50.3824 29.8913 50.1915 30.5929 49.6683 30.9873L48.29 32.0336C47.8748 32.3491 47.6631 32.8598 47.7336 33.3746L47.9661 35.0892C48.0533 35.741 47.6921 36.3679 47.0818 36.617L45.4793 37.2689C44.9977 37.464 44.6614 37.9041 44.595 38.4189L44.3791 40.1335C44.296 40.7854 43.7854 41.296 43.1335 41.3791L41.4189 41.5949C40.9041 41.6614 40.464 41.9977 40.2689 42.4793L39.617 44.0818C39.3679 44.688 38.741 45.0533 38.0892 44.9661L36.3746 44.7336C35.8597 44.6631 35.3491 44.8748 35.0336 45.29L33.9873 46.6683C33.5888 47.1915 32.8871 47.3783 32.2851 47.125L30.6909 46.4524C30.2134 46.249 29.6612 46.3237 29.2502 46.6393L27.8802 47.698C27.3612 48.1007 26.6388 48.1007 26.1198 47.698L24.7498 46.6393C24.3388 46.3196 23.7907 46.249 23.3091 46.4524L21.7149 47.125C21.1087 47.3824 20.4071 47.1915 20.0127 46.6683L18.9664 45.29C18.6509 44.8748 18.1403 44.6631 17.6254 44.7336L15.9108 44.9661C15.259 45.0533 14.6321 44.6921 14.383 44.0818L13.7311 42.4793C13.536 41.9977 13.0959 41.6614 12.5811 41.5949L10.8665 41.3791C10.2146 41.296 9.70397 40.7854 9.62094 40.1335L9.40505 38.4189C9.33862 37.9041 9.00234 37.464 8.52074 37.2689L6.91818 36.617C6.31203 36.3679 5.94668 35.741 6.03386 35.0892L6.26636 33.3746C6.33694 32.8598 6.1252 32.3491 5.71003 32.0336L4.33166 30.9873C3.80855 30.5888 3.62172 29.8871 3.87497 29.2851L4.54755 27.6909C4.75098 27.2134 4.67625 26.6612 4.36072 26.2502L3.30204 24.8802C2.89932 24.3612 2.89932 23.6388 3.30204 23.1198L4.36072 21.7498C4.6804 21.3388 4.75098 20.7907 4.54755 20.3091L3.87497 18.7149C3.61757 18.1087 3.80855 17.4071 4.33166 17.0127L5.71003 15.9664C6.1252 15.6509 6.33694 15.1403 6.26636 14.6254L6.03386 12.9108C5.94668 12.259 6.30788 11.6321 6.91818 11.383L8.52074 10.7311C9.00234 10.536 9.33862 10.0959 9.40505 9.58111L9.62094 7.86645C9.70397 7.21463 10.2146 6.70397 10.8665 6.62094L12.5811 6.40505C13.0959 6.33862 13.536 6.00234 13.7311 5.52074L14.383 3.91818C14.6321 3.31203 15.259 2.94668 15.9108 3.03386L17.6254 3.26636C18.1403 3.33694 18.6509 3.1252 18.9664 2.71003L20.0127 1.33166C20.4112 0.808545 21.1129 0.621719 21.7149 0.874973L23.3091 1.54755C23.7866 1.75098 24.3388 1.67625 24.7498 1.36072L26.1198 0.302037C26.6388 -0.100679 27.3612 -0.100679 27.8802 0.302037L29.2502 1.36072C29.6612 1.6804 30.2093 1.75098 30.6909 1.54755L32.2851 0.874973C32.8913 0.617567 33.5929 0.808545 33.9873 1.33166L35.0336 2.71003C35.3491 3.1252 35.8597 3.33694 36.3746 3.26636L38.0892 3.03386C38.741 2.94668 39.3679 3.30788 39.617 3.91818L40.2689 5.52074C40.464 6.00234 40.9041 6.33862 41.4189 6.40505L43.1335 6.62094C43.7854 6.70397 44.296 7.21463 44.3791 7.86645L44.595 9.58111C44.6614 10.0959 44.9977 10.536 45.4793 10.7311L47.0818 11.383C47.688 11.6321 48.0533 12.259 47.9661 12.9108L47.7336 14.6254C47.6631 15.1403 47.8748 15.6509 48.29 15.9664L49.6683 17.0127C50.1915 17.4112 50.3783 18.1129 50.125 18.7149L49.4524 20.3091C49.249 20.7866 49.3237 21.3388 49.6393 21.7498L50.698 23.1198C51.1007 23.6388 51.1007 24.3612 50.698 24.8802Z" fill="#9ED1FF"/>
<rect y="19" width="53" height="10" rx="2" fill="#9ED1FF"/>
<path d="M1.84434 27V21.75H5.14434V22.8H2.96184V23.955H5.00184V24.9975H2.96184V27H1.84434ZM8.48037 27.0975C6.89787 27.0975 5.74287 25.92 5.74287 24.3675C5.74287 22.83 6.91287 21.6525 8.48037 21.6525C10.0629 21.6525 11.2179 22.845 11.2179 24.3675C11.2179 25.905 10.0554 27.0975 8.48037 27.0975ZM8.48037 26.0175C9.38037 26.0175 10.0629 25.32 10.0629 24.3675C10.0629 23.43 9.38037 22.7325 8.48037 22.7325C7.56537 22.7325 6.89787 23.43 6.89787 24.3675C6.89787 25.32 7.56537 26.0175 8.48037 26.0175ZM14.5296 27.105C12.9246 27.105 11.8146 25.92 11.8146 24.375C11.8146 22.8375 12.9246 21.6525 14.5296 21.6525C15.7296 21.6525 16.7421 22.335 17.0946 23.5875H15.9021C15.6696 23.0325 15.1296 22.7325 14.5296 22.7325C13.6296 22.7325 12.9696 23.4375 12.9696 24.375C12.9696 25.32 13.6296 26.0175 14.5296 26.0175C15.0996 26.0175 15.6546 25.74 15.9021 25.17H17.0946C16.7421 26.43 15.7296 27.105 14.5296 27.105ZM21.1879 27L20.8504 25.95H18.7879L18.4504 27H17.2504L19.0279 21.75H20.6029L22.3654 27H21.1879ZM19.1104 24.93H20.5204L19.8529 22.875H19.7704L19.1104 24.93ZM22.9308 27V21.75H24.0483V25.9575H26.1258V27H22.9308ZM28.7535 27V21.75H30.621C31.6635 21.75 32.3685 22.4175 32.3685 23.4375C32.3685 24.45 31.626 25.1475 30.621 25.1475H29.871V27H28.7535ZM29.871 24.105H30.576C30.981 24.105 31.2435 23.82 31.2435 23.4375C31.2435 23.0625 30.981 22.7925 30.576 22.7925H29.871V24.105ZM35.6313 27.0975C34.0488 27.0975 32.8938 25.92 32.8938 24.3675C32.8938 22.83 34.0638 21.6525 35.6313 21.6525C37.2138 21.6525 38.3688 22.845 38.3688 24.3675C38.3688 25.905 37.2063 27.0975 35.6313 27.0975ZM35.6313 26.0175C36.5313 26.0175 37.2138 25.32 37.2138 24.3675C37.2138 23.43 36.5313 22.7325 35.6313 22.7325C34.7163 22.7325 34.0488 23.43 34.0488 24.3675C34.0488 25.32 34.7163 26.0175 35.6313 26.0175ZM39.0065 27V25.98H39.7115V22.77H39.0065V21.75H41.549V22.77H40.829V25.98H41.549V27H39.0065ZM42.5597 27V21.75H44.4647L45.6797 25.875H45.7547V21.75H46.8647V27H44.9447L43.7597 22.875H43.6772V27H42.5597ZM48.9787 27V22.8H47.5762V21.75H51.4912V22.8H50.0887V27H48.9787Z" fill="#020A5B"/>
<path d="M27.0286 43.3636C19.0116 43.3636 11.9371 38.5435 9.00183 31.087L10.1602 30.6303C12.9044 37.6093 19.5264 42.1181 27.0244 42.1181C34.5224 42.1181 41.0821 37.6467 43.8513 30.73L45.0096 31.1949C42.0494 38.5891 34.9915 43.3636 27.0286 43.3636Z" fill="#020A5B"/>
<path d="M10.3143 16.9504L9.16846 16.4646C12.2075 9.28218 19.2114 4.64056 27.0084 4.64056C34.8053 4.64056 41.8092 9.28218 44.8483 16.4646L43.7024 16.9504C40.8585 10.2288 34.3071 5.88608 27.0084 5.88608C19.7097 5.88608 13.1583 10.2288 10.3143 16.9504Z" fill="#020A5B"/>
<path d="M47.4639 30.3355H6.55298V31.581H47.4639V30.3355Z" fill="#020A5B"/>
<path d="M47.4639 16.3276H6.55298V17.5731H47.4639V16.3276Z" fill="#020A5B"/>
</svg>
