<svg width="64" height="64" viewBox="0 0 64 64" fill="none" xmlns="http://www.w3.org/2000/svg">
<g clip-path="url(#clip0_1_3104)">
<path d="M1.33337 31.9945C1.33337 36.0218 2.12659 40.0095 3.66773 43.7302C5.20888 47.4508 7.46777 50.8315 10.3154 53.6792C13.1631 56.5268 16.5438 58.7857 20.2644 60.3269C23.9851 61.868 27.9728 62.6612 32 62.6612C36.0272 62.6612 40.015 61.868 43.7357 60.3269C47.4563 58.7857 50.837 56.5268 53.6846 53.6792C56.5323 50.8315 58.7912 47.4508 60.3323 43.7302C61.8735 40.0095 62.6667 36.0218 62.6667 31.9945C62.6667 27.9673 61.8735 23.9796 60.3323 20.2589C58.7912 16.5383 56.5323 13.1576 53.6846 10.3099C50.837 7.46228 47.4563 5.20339 43.7357 3.66224C40.015 2.1211 36.0272 1.32788 32 1.32788C27.9728 1.32788 23.9851 2.1211 20.2644 3.66224C16.5438 5.20339 13.1631 7.46228 10.3154 10.3099C7.46777 13.1576 5.20888 16.5383 3.66773 20.2589C2.12659 23.9796 1.33337 27.9673 1.33337 31.9945Z" fill="#AC85FF" fill-opacity="0.26"/>
<path d="M10.5707 39.9998C10.5698 34.6436 11.9718 29.3806 14.6372 24.7346C17.3025 20.0887 21.1383 16.2218 25.7625 13.519C30.3868 10.8162 35.6383 9.37169 40.9944 9.32925C46.3504 9.28681 51.6241 10.6479 56.2906 13.2771C53.5156 9.67777 49.9752 6.74022 45.9256 4.677C41.876 2.61377 37.4184 1.47646 32.8753 1.34734C28.3322 1.21822 23.8172 2.10052 19.657 3.93041C15.4967 5.7603 11.7952 8.49203 8.82018 11.928C5.84518 15.3639 3.6711 19.4182 2.4552 23.7974C1.23931 28.1767 1.012 32.7715 1.78974 37.2493C2.56747 41.7272 4.33079 45.9763 6.95213 49.6891C9.57348 53.4018 12.9873 56.4856 16.9467 58.7171C12.8034 53.3583 10.5604 46.7735 10.5707 39.9998Z" fill="#F5F7FF"/>
<path d="M5.0614 46.6665L26.6667 46.6692" stroke="#020A5B" stroke-width="2" stroke-linecap="round" stroke-linejoin="round"/>
<path d="M6.69873 14.6665H57.3227" stroke="#020A5B" stroke-width="2" stroke-linecap="round" stroke-linejoin="round"/>
<path d="M29.3333 30.6665H1.36267" stroke="#020A5B" stroke-width="2" stroke-linecap="round" stroke-linejoin="round"/>
<path d="M30.3414 62.6238C24.4139 62.297 18.7087 60.2569 13.9181 56.7509C9.12745 53.2449 5.45742 48.4239 3.35335 42.8728C1.24929 37.3217 0.801647 31.2792 2.06476 25.4786C3.32786 19.6781 6.24742 14.3688 10.4691 10.1952C14.6908 6.02157 20.0331 3.163 25.8478 1.96638C31.6624 0.769768 37.6993 1.28656 43.226 3.45404C48.7526 5.62152 53.5314 9.34651 56.9823 14.1769C60.4332 19.0074 62.4079 24.7356 62.6667 30.6664" stroke="#020A5B" stroke-width="2" stroke-linecap="round" stroke-linejoin="round"/>
<path d="M30.0507 1.40234C14.0507 18.7357 14.3414 41.2903 30.3414 62.6237" stroke="#020A5B" stroke-width="2" stroke-linecap="round" stroke-linejoin="round"/>
<path d="M33.9468 1.40234C40.2503 7.95024 44.3008 16.3381 45.5094 25.3463" stroke="#020A5B" stroke-width="2" stroke-linecap="round" stroke-linejoin="round"/>
<path d="M33.3334 45.4106C33.3334 48.6137 34.6058 51.6856 36.8707 53.9506C39.1357 56.2155 42.2076 57.4879 45.4107 57.4879C48.6138 57.4879 51.6857 56.2155 53.9507 53.9506C56.2156 51.6856 57.488 48.6137 57.488 45.4106C57.488 42.2075 56.2156 39.1356 53.9507 36.8706C51.6857 34.6057 48.6138 33.3333 45.4107 33.3333C42.2076 33.3333 39.1357 34.6057 36.8707 36.8706C34.6058 39.1356 33.3334 42.2075 33.3334 45.4106Z" fill="#E9E4FF"/>
<path d="M33.3334 45.4106C33.3334 48.6137 34.6058 51.6856 36.8707 53.9506C39.1357 56.2155 42.2076 57.4879 45.4107 57.4879C48.6138 57.4879 51.6857 56.2155 53.9507 53.9506C56.2156 51.6856 57.488 48.6137 57.488 45.4106C57.488 42.2075 56.2156 39.1356 53.9507 36.8706C51.6857 34.6057 48.6138 33.3333 45.4107 33.3333C42.2076 33.3333 39.1357 34.6057 36.8707 36.8706C34.6058 39.1356 33.3334 42.2075 33.3334 45.4106Z" stroke="#020A5B" stroke-width="2" stroke-linecap="round" stroke-linejoin="round"/>
<path d="M62.6667 62.6667L54.0054 54.0054" stroke="#020A5B" stroke-width="2" stroke-linecap="round" stroke-linejoin="round"/>
</g>
<defs>
<clipPath id="clip0_1_3104">
<rect width="64" height="64" fill="white"/>
</clipPath>
</defs>
</svg>
