<svg id="Layer_1" data-name="Layer 1" xmlns="http://www.w3.org/2000/svg" viewBox="0 0 135.77 132.17"><defs><style>.cls-1{fill:#fff;}</style></defs><path class="cls-1" d="M67,78.2A10.57,10.57,0,0,0,67.79,77a3.07,3.07,0,0,0,.28-1.21V75.7l0,0a6.5,6.5,0,0,1,.61-1.54s1.16-1.62,1.22-1.8.34-1.23.69-2.24a5.82,5.82,0,0,1,1.24-2.42,1.73,1.73,0,0,0,.83-1.54c.12-.85,1.38-2,1.64-2.46a3.55,3.55,0,0,0,.51-1.42v-.18s-.1-.1-.26-.3a.48.48,0,0,1-.12-.31c0-.32.25-.42.41-.52a1.39,1.39,0,0,0,.31-.21A4.77,4.77,0,0,0,76.3,59c.16-.71,0-1.1.48-1.45a2,2,0,0,0,.76-1.08,6.11,6.11,0,0,1,.87-1.85,1.86,1.86,0,0,0,.29-.86v-.12l0-.19a6.82,6.82,0,0,1,.67-2.6,7,7,0,0,0,1-2,9.73,9.73,0,0,1,.31-1.42v-.18a4.94,4.94,0,0,0-.51-2.11c-.38-.54-.69-1-.69-1l.38-.26s.3.46.69,1a5.08,5.08,0,0,1,.59,2.38,2.17,2.17,0,0,1,0,.26,9.21,9.21,0,0,0-.31,1.34,6.65,6.65,0,0,1-1,2.28,6.48,6.48,0,0,0-.6,2.36v.08l0,.23a2.36,2.36,0,0,1-.37,1.1,5.61,5.61,0,0,0-.65,1.61A9,9,0,0,1,77.05,58c-.18.11-.14.34-.3,1.17A4.89,4.89,0,0,1,75.57,61a1.14,1.14,0,0,1-.41.31,1.05,1.05,0,0,0-.24.16l0,0c.15.18.2.21.28.32a.71.71,0,0,1,.08.44,3.92,3.92,0,0,1-.57,1.65c-.35.58-1.56,1.78-1.58,2.28a2.2,2.2,0,0,1-1,1.87,6,6,0,0,0-1.07,2.18c-.33,1-.6,2-.68,2.24-.17.5-1.62,3-1.84,3.38a3.57,3.57,0,0,1-.33,1.35,11.21,11.21,0,0,1-.81,1.3Z"/><path class="cls-1" d="M69,80.7a25.09,25.09,0,0,1,2.48-1.91c.68-.35,2-1.2,2-1.62s-.24-2.13.8-2.76c.85-.46,2.09-1.08,2.45-1.3l.39-.23.26-.16.08.29a2.89,2.89,0,0,1,.1.62.67.67,0,0,1-.26.58l-.24-.39,0,0,0-.16,0-.2-.1.07c-.41.24-1.63.85-2.48,1.31-.65.29-.44,1.73-.58,2.47s-1.56,1.5-2.26,1.92a26.13,26.13,0,0,0-2.4,1.85h0Z"/><path class="cls-1" d="M83.5,87.22a27.45,27.45,0,0,1-4-.8c-.12-.08-.25-.08-.33-.31v0s0-.7-.08-1.48l0-.2a5.73,5.73,0,0,0-1.17.42,2.79,2.79,0,0,1-1.37.28h-.31l0-.46h.28a2.53,2.53,0,0,0,1.11-.2,6.82,6.82,0,0,1,1.36-.5,2.84,2.84,0,0,0-.4-1.23A8,8,0,0,0,75,81.36H74.9a3.63,3.63,0,0,1-1,.16,3.22,3.22,0,0,1-1,.13,2.51,2.51,0,0,1-1.28-.31,13.07,13.07,0,0,1-1.57-1.1l-.11-.1,0-.13s.17-.71.34-1.46.33-1.46.34-1.62v0l-.14-.13a2.8,2.8,0,0,0-.54-.36A3.32,3.32,0,0,0,68.92,76h-.69l-1.35-.92a1.71,1.71,0,0,1-1,.63l-.18,0v-.38l.17-.05c.07,0,.31-.12.48-.29a2.36,2.36,0,0,0,.32-.33l.13-.17,1.58,1.08h.55a4.14,4.14,0,0,1,2,.9c.16.15.3.24.32.49s-.52,2.49-.66,3.07A11.59,11.59,0,0,0,72,81a2.13,2.13,0,0,0,1,.25,3,3,0,0,0,.84-.12h.08a3.44,3.44,0,0,0,.86-.15l.23,0a8.06,8.06,0,0,1,3.92,1.48,2.87,2.87,0,0,1,.5,1.4,3.56,3.56,0,0,0,.82-.37,3,3,0,0,1,1.33-.57h.13l.08.1a7.59,7.59,0,0,0,2.36,1.81,15,15,0,0,0,1.59.77l.07,0,0,.07a1.23,1.23,0,0,1,.21.59.47.47,0,0,1-.42.48,10.63,10.63,0,0,0-1.26.38h0l-.82.16ZM79.68,86a2.75,2.75,0,0,0,.46.15c.38.1.89.2,1.4.3a14,14,0,0,0,2,.19s1.59-.33,2-.4h0v0L85.53,86l0-.08a11.9,11.9,0,0,1-4-2.57l-.21,0a2.89,2.89,0,0,0-.78.4,4,4,0,0,1-1,.46,2.54,2.54,0,0,0,0,.29c.06.64.08,1.22.08,1.43Z"/><path class="cls-1" d="M72,83.35a3.09,3.09,0,0,1,1-1.17c.52-.27,1.23-.93,1.19-1.26v-.18l.17,0s.11,0,.37-.16a9.77,9.77,0,0,0,1.18-.66c1.08-.7,2.7-1.7,2.7-1.7l.24.4s-1.61,1-2.68,1.69a9.85,9.85,0,0,1-1.54.82c-.14.66-.89,1.17-1.4,1.49a2.07,2.07,0,0,0-.59.59,3.25,3.25,0,0,0-.24.39Z"/><path class="cls-1" d="M74.84,74.34v0C74.9,74,74,73,73,72.26a11.4,11.4,0,0,0-2.29-1.57,1.19,1.19,0,0,1-.63-.37,7.93,7.93,0,0,1-.65-.72,9.2,9.2,0,0,1-.91-1.27,11.09,11.09,0,0,0-1.16-1.08l-1-.88a2.19,2.19,0,0,1-1.22-.51,2.43,2.43,0,0,0-1.39-.33h-.22l0-.45a1,1,0,0,1,.25,0,2.8,2.8,0,0,1,1.69.44,1.8,1.8,0,0,0,.7.36,1.39,1.39,0,0,0,.32,0h.08l.06,0,1.1.93A8.44,8.44,0,0,1,69,68.12a9.23,9.23,0,0,0,1.71,2.06l.08,0a1.65,1.65,0,0,1,.68.31c.29.17.64.41,1,.69a15.72,15.72,0,0,1,2.18,1.9,2.18,2.18,0,0,1,.67,1.18v.12Z"/><path class="cls-1" d="M76,84.84a8.24,8.24,0,0,0-.52-1.7,7.66,7.66,0,0,0-.68-1.5c-.22-.48-.82-.89-.84-1.6a.89.89,0,0,1,.06-.35,9.67,9.67,0,0,0,.47-2.3.68.68,0,0,0,0-.33,1.66,1.66,0,0,0-.43-.35l-.22-.11a12.85,12.85,0,0,1-4.38-3.11,2.92,2.92,0,0,0-1-.72,10.76,10.76,0,0,0-1.51-.63,6.44,6.44,0,0,1-1.8-1.43c-.61-.62-1.13-1.22-1.13-1.22l-.12-.13.1-.14s1-1.62,1.64-2.51a2.38,2.38,0,0,1,.48-.59,5.71,5.71,0,0,0,.61-.82,3.88,3.88,0,0,0,.52-1.25,1.46,1.46,0,0,1,.54-.95,6.28,6.28,0,0,1-.69-.19c-.93-.31-3.11-1.14-3.11-1.14l.17-.43s2.17.83,3.08,1.13a3.81,3.81,0,0,0,1.14.24h.07l.13.43a3.14,3.14,0,0,0-.42.25,1,1,0,0,0-.45.71,3.85,3.85,0,0,1-.6,1.44,3.71,3.71,0,0,1-.73.95l0,0-.08.11c-.07.09-.16.21-.26.36s-.45.66-.69,1c-.36.53-.7,1.06-.85,1.31.18.2.57.63,1,1.06A6.47,6.47,0,0,0,67,71.7a9.87,9.87,0,0,1,1.59.66,3,3,0,0,1,1.24.92,9.56,9.56,0,0,0,1.68,1.47,8.52,8.52,0,0,0,2.42,1.41,2,2,0,0,1,1,.59,2.77,2.77,0,0,1,.13.64s-.42,1.9-.6,2.45l0,.2c0,.38.47.8.79,1.39A6.67,6.67,0,0,1,75.9,83a7.63,7.63,0,0,1,.55,1.83.54.54,0,0,0,.13.42h0l-.26.39a1,1,0,0,1-.33-.81"/><path class="cls-1" d="M66.37,76.37m-.44-.14s.79-3.44.94-4l.29-.16a9.62,9.62,0,0,1,.56-2.44,8,8,0,0,0,.81-1.42,6.65,6.65,0,0,1,1.25-3,3.34,3.34,0,0,0,.49-.36c.06-.06.07-.08.11-.26a5,5,0,0,1,1.16-1.91l.38-.31.15-.11.15.12s.09.08.32.21a5.87,5.87,0,0,0,1.13.43,2.46,2.46,0,0,1,1.12.65,2.27,2.27,0,0,0,.83.59,6.42,6.42,0,0,1,1.89,1.43l-.06.36a2.1,2.1,0,0,1-.76.3.3.3,0,0,1-.3-.21l.27-.08,0-.06v-.12h0l.26-.1a5.74,5.74,0,0,0-1.52-1.1,2.88,2.88,0,0,1-1-.69,2,2,0,0,0-.93-.53,5.32,5.32,0,0,1-1.46-.63l-.25.2a4.84,4.84,0,0,0-1,1.64.86.86,0,0,1-.23.5,5.18,5.18,0,0,1-.55.41A6.93,6.93,0,0,0,69,68.23c0,.49-.51,1-.87,1.65a10.28,10.28,0,0,0-.52,2.33c-.15.54-1.2,4.43-1.22,4.47Z"/><path class="cls-1" d="M71.79,63.05m-.21-.41.07-.06.06-.13-.06-.17c-.22-.37-1-1-1.23-.92h0c-.23.09-.61.16-1,.28s-.59.29-.61.41a8.68,8.68,0,0,0-.21.91l-.45,0a6.58,6.58,0,0,0-.89-1.78c-.65-.82-.89-1.67-1.47-2.39a3.54,3.54,0,0,0-.75-.71,1.73,1.73,0,0,0-.29-.15l.14-.44a2.93,2.93,0,0,1,1.26,1c.65.81.88,1.66,1.46,2.38a5.34,5.34,0,0,1,.7,1.19l0-.19a1.33,1.33,0,0,1,.91-.72c.37-.13.77-.21.92-.27l.21,0A2.62,2.62,0,0,1,72,62a.86.86,0,0,1,.15.43.72.72,0,0,1-.39.6Z"/><path class="cls-1" d="M70.76,76.87a4,4,0,0,1,.78-1.74,5.51,5.51,0,0,0,.68-1.59c.24-.74.44-1.49.47-1.67a4.53,4.53,0,0,1,1.09-1.33c.53-.52,1.13-1.06,1.44-1.33l.31.35c-.31.26-.9.8-1.42,1.31a5.63,5.63,0,0,0-1,1.09,9.68,9.68,0,0,1-.31,1.75,10.29,10.29,0,0,1-1,1.77,2.06,2.06,0,0,0-.46.84,5,5,0,0,0-.16.64h0Z"/><path class="cls-1" d="M76.54,62a4.71,4.71,0,0,0-1,.1,2.7,2.7,0,0,1-.54.08c-.32,0-.45-.15-.78-.34a15.81,15.81,0,0,1-2-1c-1.21-.81-1.1-2.2-1.41-4.32a41,41,0,0,1-.24-5.08c0-.73,0-1.29,0-1.49a.37.37,0,0,0-.06-.24l-.07,0h0l-.13-.44a.63.63,0,0,1,.17,0,.55.55,0,0,1,.39.16.76.76,0,0,1,.2.57c0,.21,0,.76,0,1.49a41.42,41.42,0,0,0,.24,5c.3,2.2.26,3.42,1.2,4a15.25,15.25,0,0,0,2,1c.39.23.43.28.55.28a2.39,2.39,0,0,0,.44-.07,4.93,4.93,0,0,1,1.06-.11,3.08,3.08,0,0,1,2.4,1l-.35.3a2.65,2.65,0,0,0-2-.79"/><path class="cls-1" d="M70.16,61a6.38,6.38,0,0,0,1.18-1.1,21.57,21.57,0,0,0,2.2-3.54,14.21,14.21,0,0,1,.93-2.57,17.84,17.84,0,0,0,1.37-4.17v0h0a13.84,13.84,0,0,0,.55-2.31v-.08c-.09-.27-.38-.37-1-1l-.19-.06a2.19,2.19,0,0,0-.5.08l-.09-.39a1.35,1.35,0,0,1,.59-.16.7.7,0,0,1,.53.22c.5.59.82.65,1,1.15l0,.25a12.39,12.39,0,0,1-.57,2.42,18.43,18.43,0,0,1-1.39,4.28,13.24,13.24,0,0,0-.92,2.5,20.06,20.06,0,0,1-2.26,3.69,7.48,7.48,0,0,1-1.28,1.21Z"/><path class="cls-1" d="M86.59,51.77a13,13,0,0,1-3.29-.4c-1.26-.43-1.31-1.3-1.92-1.81a5.39,5.39,0,0,0-1.93-1,8.77,8.77,0,0,1-2.55-2.06l-.06.07a2.69,2.69,0,0,0-.26.46c-.18.37-.35.81-.45,1.08-.27.72-.9,1-1.5,1.28a11.66,11.66,0,0,1-3.14.26H70.6v-.46h.88A12.73,12.73,0,0,0,74.43,49c.63-.32,1.08-.52,1.27-1a7.9,7.9,0,0,1,.77-1.66.59.59,0,0,1,.45-.29.42.42,0,0,1,.35.22,8.77,8.77,0,0,0,2.33,1.9,5.8,5.8,0,0,1,2.08,1.12c.77.72.72,1.38,1.77,1.72a12.61,12.61,0,0,0,3.17.38l.69,0a8.72,8.72,0,0,0,2.09-.25,5.16,5.16,0,0,0,1.28-.53,1.58,1.58,0,0,0,.61-.53c.12-.46,1-1.9,1.09-2.46s.31-1.17.83-1.39l.05,0a1.18,1.18,0,0,1-.19-.69v-.62h.46v.62a.61.61,0,0,0,.22.55h0l.53.22-.53.21-.38.16c-.25.08-.29.55-.43,1.17,0,0-1.16,2.06-1.22,2.36s-.42.56-.83.82a5.44,5.44,0,0,1-1.4.58,9.14,9.14,0,0,1-2.2.27l-.72,0"/><path class="cls-1" d="M72.9,66.36a1.72,1.72,0,0,1-1-.26c-.18-.13,0-.09-.18-.11a1.37,1.37,0,0,1-.65-.29A12.4,12.4,0,0,1,69,63.83a1.34,1.34,0,0,0-.5-.44,2.33,2.33,0,0,0-.34-.18l.17-.43a2.61,2.61,0,0,1,1.07.81,10,10,0,0,0,2.37,1.94h0a.59.59,0,0,1,.46.19c.06,0,.2.13.72.17,1,.12,2,1.08,2.51,1a.55.55,0,0,0,.28-.07,4.32,4.32,0,0,0,.74-1.44c.27-.72.49-1.46.62-1.75a2.45,2.45,0,0,1,1.61-1.29.88.88,0,0,0,.51-.38,2.21,2.21,0,0,0,.15-.27c0-.06,0-.27,0-.56a3.07,3.07,0,0,0-.22-1.24c-.36-.78-.73-.8-1.27-1.32-.38-.39-.69-.31-1.45-.56a2.6,2.6,0,0,1-1.74-1.18,2,2,0,0,0-.57-.65,1.77,1.77,0,0,0-.31-.17l.17-.43a2.37,2.37,0,0,1,1.12,1c.35.61.78.72,1.48,1s1.09.14,1.63.66c.39.41.94.54,1.36,1.46a3.71,3.71,0,0,1,.27,1.43c0,.37,0,.63,0,.65h0a1.48,1.48,0,0,1-1,1,2.07,2.07,0,0,0-1.31,1c-.1.24-.34,1-.61,1.73a3.69,3.69,0,0,1-1,1.68,1,1,0,0,1-.5.13c-.91,0-1.76-1-2.55-1"/><path class="cls-1" d="M79.49,61a2,2,0,0,1,1.16-1.25l.46-.28c.81-.24.56.09,1.34-.6.56-.5,1.09-.93,1.33-1.12-.19-.42-1.23-1.88-1.23-1.88l-1.16-.6a15.32,15.32,0,0,0-2.4-.77h0a3,3,0,0,0-1.55,1.06c-.42.48-1.21.48-2,.5l-1,0a1.54,1.54,0,0,0-.4,0,1.32,1.32,0,0,1-.56.18l-.85.08c-.62,0-1.3.05-1.63.09h-.14a8.87,8.87,0,0,1-2.82-1,.62.62,0,0,0-.25,0,3.39,3.39,0,0,0-1.39.51c-.45.27-.8.53-.8.53l-.28-.37a5.61,5.61,0,0,1,2.47-1.13,1,1,0,0,1,.44.09,8.78,8.78,0,0,0,2.63.91H71c.34,0,.94-.06,1.53-.09a5.4,5.4,0,0,0,1.26-.15h0c.22-.17.39-.12.69-.14l1,0c.72,0,1.46-.1,1.59-.32A3.57,3.57,0,0,1,78.87,54H79a18.23,18.23,0,0,1,3,.79,2.08,2.08,0,0,1,1.12.63,20.06,20.06,0,0,1,1.18,2.26l.07.17-.14.11s-.69.53-1.45,1.22a2.82,2.82,0,0,1-1.62.89,2.11,2.11,0,0,0-.88.64,3.21,3.21,0,0,0-.38.5Z"/><path class="cls-1" d="M82.05,55a2.51,2.51,0,0,1,.56-1.58,5.13,5.13,0,0,0,1.08-2,30,30,0,0,0,.53-3.2c0-.34,0-.68,0-1,0-.81,0-1.6-.1-2.19l0-.25a4.58,4.58,0,0,1,.34-1.63l.43.18a4.36,4.36,0,0,0-.31,1.45l0,.21c0,.6.1,1.4.1,2.23,0,.34,0,.69,0,1a31.89,31.89,0,0,1-.54,3.26A5.49,5.49,0,0,1,83,53.67,2,2,0,0,0,82.51,55a.89.89,0,0,0,0,.22l-.45.1a1.13,1.13,0,0,1,0-.32"/><path class="cls-1" d="M78.53,78.79c0-.45-1.36-3.44-2-5.28,0,0-.92-2.4-1.33-3.75a4.26,4.26,0,0,1,.13-2.64h0l.42.18a4.1,4.1,0,0,0-.24,1.35,3.08,3.08,0,0,0,.14,1c.37,1.26.83,1.74,1.45,3.61s1.76,4.88,1.86,5.5a15.63,15.63,0,0,0,2.77,4.16l-.3.36a14.86,14.86,0,0,1-2.93-4.46"/><path class="cls-1" d="M92.78,68.13s-.8-.68-1.35-1.23h-.05l-.14,0,0,0a1.47,1.47,0,0,1-1,.36h-.12l-.21,0V67a13.37,13.37,0,0,1,.18-2.14c-.27-.41-.68-.71-.9-1,0,0-.17-.61-.22-.73l.4-.14,0,0v0l.07.11c0,.1.14.22.23.37l.5.77c.21-.93.45-1.57.51-1.86a12.56,12.56,0,0,1,.82-2l.06-.11.11,0,1.84-.34c1-.19,1.33-1.21,1.49-2s1.11-3,1.46-4a4.26,4.26,0,0,0,.18-.55h0c-.06,0-.21-.1-.39-.22a1.63,1.63,0,0,1-.61-1.44,2.86,2.86,0,0,1,.14-.89l0-.18a19.4,19.4,0,0,0-1-3,1.87,1.87,0,0,0-1-1.2h0l-.1-.45.11,0a2.11,2.11,0,0,1,1.48,1.56c.14.61,1,2.17,1,3.09a1.12,1.12,0,0,1,0,.32,2.27,2.27,0,0,0-.12.75,1.24,1.24,0,0,0,.4,1c.15.1.26.14.37.21a.44.44,0,0,1,.25.38,2.63,2.63,0,0,1-.21.73,40.33,40.33,0,0,0-1.21,4s-.76,2-2.08,2.3l-1.73.33a11.29,11.29,0,0,0-.74,1.8c0,.14-.09.34-.16.58.1,0,.1.06.21.1a3.77,3.77,0,0,0,.59.2c1.08.28,1.88.4,2.41.52.23.05.51.09.76.17s.53.21.54.56l0,.21a3.94,3.94,0,0,1-.75,1.41c-.32.32-1.6,1.88-1.6,1.88l-.15.19ZM92.19,67l.71.64c.35-.42,1.19-1.45,1.49-1.74A3.53,3.53,0,0,0,95,64.65V64.6l0,0a.71.71,0,0,0-.2-.1c-.19-.06-.47-.1-.72-.15-.5-.11-1.32-.23-2.43-.52a6.5,6.5,0,0,1-.63-.21v.06l0,.14c0,.59.54,2,.61,2.59v0c.16.17.37.38.58.58m-1.85-.19a.81.81,0,0,0,.52-.22l.17-.12a.64.64,0,0,1-.12-.29l-.48-.7a13.26,13.26,0,0,0-.09,1.33m.49-1.57c-.08-.28-.15-.57-.21-.83,0,.12-.06.26-.08.39s.2.3.29.44"/><path class="cls-1" d="M89.91,59.17c-.62-.32-1.71-.08-2.3-.35a9.05,9.05,0,0,0-2.36-.88L84.12,58H84l0-.46h0a2.31,2.31,0,0,0,.74-.18,1.15,1.15,0,0,1,.31,0,7.94,7.94,0,0,1,2.62,1,21.85,21.85,0,0,1,2.32.46h.06c.17,0,.66-.39,1.06-1A17.62,17.62,0,0,0,92.32,56a4.92,4.92,0,0,0,.56-2.12v0A6.72,6.72,0,0,1,93,51.88a36,36,0,0,1,1.38-3.65,25.29,25.29,0,0,0,1-2.39l.43.17s-.69,1.83-1.06,2.45A18.92,18.92,0,0,0,93.68,52c-.22,1-.34,1.86-.34,1.91a5.5,5.5,0,0,1-.61,2.31A21.26,21.26,0,0,1,91.61,58c-.46.61-.88,1.16-1.44,1.19Zm3.35-5.48-.1-.06Z"/><path class="cls-1" d="M91.16,59.21a6.18,6.18,0,0,0-.23-1.55,11.87,11.87,0,0,1-.22-2.77,6.26,6.26,0,0,0-.33-2.46,1.07,1.07,0,0,1-.18-.65A5.18,5.18,0,0,1,90.69,50a6.24,6.24,0,0,0,.46-1.31c0-.46-.79-.85-1.56-1.57a10.83,10.83,0,0,0-1.4-1.18l.26-.38a12.33,12.33,0,0,1,1.47,1.24c.63.66,1.63,1,1.69,1.89a5.92,5.92,0,0,1-.49,1.49,4.7,4.7,0,0,0-.46,1.6.76.76,0,0,0,.09.38,6.07,6.07,0,0,1,.43,2.71,12.23,12.23,0,0,0,.18,2.62,6.84,6.84,0,0,1,.26,1.68,2,2,0,0,0,.27,1.13l-.33.32a2.31,2.31,0,0,1-.4-1.41"/><path class="cls-1" d="M87.47,58.58h0l.43-.17a8.51,8.51,0,0,0,.72,1.32,9.4,9.4,0,0,0,2.43,2.5l-.27.38a10,10,0,0,1-3.31-4"/><path class="cls-1" d="M88.94,63.14a7.2,7.2,0,0,1-.68-2.32.77.77,0,0,1,.33-.73l.23.4s-.1.11-.1.33A4.11,4.11,0,0,0,89,62.16c.09.26.19.49.25.63l.21-.14a3.7,3.7,0,0,1,.7-.71h0l.28.37a3.4,3.4,0,0,0-.58.56.89.89,0,0,1-.74.39H89Z"/><path class="cls-1" d="M95.18,64.51s.38-.11.78-.26a1.83,1.83,0,0,0,.8-.47l.43.16c-.18.39-.64.56-1.07.74a7,7,0,0,1-.82.27Z"/><path class="cls-1" d="M95.06,69.94l-.14-.08,0-.16.12-.57V69a24.09,24.09,0,0,0-.58-3.12l.45-.12A22.35,22.35,0,0,1,95.54,69v.21l-.09.41c.1,0,.24.11.41.17a3.85,3.85,0,0,0,1.29.24,2.61,2.61,0,0,0,.77-.11,9.38,9.38,0,0,0,.1-1.33,30.76,30.76,0,0,1,.62-3.6c0-.06-.08-.18-.2-.39s-.92-.5-1.44-.69a.86.86,0,0,1-.43-.26l-.09-.26c0-.39.31-.53.33-.82a22.92,22.92,0,0,0,.49-2.91,2.11,2.11,0,0,0,0-.3c-.16-.68-1-1.89-1.23-2.58A3.93,3.93,0,0,0,94.4,56c-.8-.26-1.57-.44-1.57-.44l.1-.45s.79.18,1.61.45,1.67.54,1.93,1.06a22.58,22.58,0,0,1,1.24,2.64,1.78,1.78,0,0,1,0,.41,21.39,21.39,0,0,1-.49,3,1.39,1.39,0,0,1-.22.56,1.59,1.59,0,0,0-.11.2l0,0,.19.09.59.21a2.07,2.07,0,0,1,1.1.69l.23.46,0,.08,0,.08s-.63,2.9-.63,3.58a11.66,11.66,0,0,1-.12,1.54l0,.13-.13,0a3.11,3.11,0,0,1-1.06.18,4.75,4.75,0,0,1-2.08-.55"/><path class="cls-1" d="M96.77,53.2a4.2,4.2,0,0,0,1.07-.48c.11-.09.15-.17.14-.18v-.18c0-.17,0-.35,0-.53a1,1,0,0,1,.25-.78,7.94,7.94,0,0,0,.77-.81,5,5,0,0,1,.46-.46l.29.36a4.78,4.78,0,0,0-.4.41,7.71,7.71,0,0,1-.85.86l0,.1a1.39,1.39,0,0,0,0,.32c0,.16,0,.35,0,.53v.21c-.06.46-.49.63-.84.81a4.15,4.15,0,0,1-.71.26Z"/><path class="cls-1" d="M98.67,64.85a5.62,5.62,0,0,0,.39-1c.16-.56.39-2.39.51-3.08a4.75,4.75,0,0,0,.1-.82,2.49,2.49,0,0,0-.07-.54,3.5,3.5,0,0,1,0-.72c0-.89.11-2.27.22-3.22a7.06,7.06,0,0,1,1.55-2.92A8.33,8.33,0,0,1,98.53,51l.29-.35a7.86,7.86,0,0,0,3,1.5l.4.07-.26.32a9.79,9.79,0,0,0-.8,1,4.93,4.93,0,0,0-.88,1.91c-.11.94-.21,2.32-.21,3.17a4.18,4.18,0,0,0,0,.62,3.28,3.28,0,0,1,.08.64,5.15,5.15,0,0,1-.11.9c-.11.68-.34,2.48-.52,3.13a6.88,6.88,0,0,1-.42,1.09Z"/><path class="cls-1" d="M102.21,60.12a1.35,1.35,0,0,0-.45-.14c-.1,0-.17,0-.33.15a1.44,1.44,0,0,1-.79.35,2.23,2.23,0,0,1-.49,0H98.5A3.39,3.39,0,0,1,97,59.93H97a13.4,13.4,0,0,1-1.53.25,1,1,0,0,1-1-.64l.45-.11v0l.07.1a.67.67,0,0,0,.5.16c.51,0,1.1-.24,1.53-.25a.52.52,0,0,1,.33.09,3.12,3.12,0,0,0,1.2.51h.06a3.64,3.64,0,0,1,.52,0h1.48c.32-.06.27-.05.6-.28a1,1,0,0,1,.6-.23,1.69,1.69,0,0,1,.64.18,5.89,5.89,0,0,0,1.68.41h0a1.85,1.85,0,0,0,0-.29,6,6,0,0,0-.39-2,35,35,0,0,1-1.6-3.3,3.75,3.75,0,0,1-.26-.76c0-.24.1-.47.1-.75a1.09,1.09,0,0,0-.25-.72c-.46-.61-2-1.56-2.56-2.13s-1.62-1.9-2.06-2.52a9.53,9.53,0,0,0-1.62-1.33A8.57,8.57,0,0,0,93,44.94c-.66,0-3.25-.53-4.4-.68a2,2,0,0,1,.08.52,1.43,1.43,0,0,1-.09.52c-.21.64-.29,2.33-.53,3.08a10.13,10.13,0,0,0-.38,2.31,2.73,2.73,0,0,1-.13.82,21.55,21.55,0,0,1,.29,2.41c0,.66.3,4.56.3,4.56l-.45,0s-.32-3.87-.32-4.59a21.62,21.62,0,0,0-.29-2.4v-.07l0-.06a2.33,2.33,0,0,0,.12-.7,10.4,10.4,0,0,1,.4-2.46c.21-.63.29-2.32.54-3.07a1.36,1.36,0,0,0,.06-.38,1.27,1.27,0,0,0-.1-.48,1.32,1.32,0,0,0-.09-.17l-.27-.38.47,0c.87,0,4.12.66,4.81.71a8.44,8.44,0,0,1,2.8,1.45,8.11,8.11,0,0,1,1.66,1.39c.42.58,1.58,2,2,2.49s2,1.42,2.57,2.14a1.59,1.59,0,0,1,.35,1,7.4,7.4,0,0,1-.1.74v0l0,.13a4.67,4.67,0,0,0,.17.44c.14.34.35.79.55,1.23.41.88.88,1.81,1,2a5.85,5.85,0,0,1,.47,2.32,2.09,2.09,0,0,1,0,.38.42.42,0,0,1-.23.33.84.84,0,0,1-.27,0,6.09,6.09,0,0,1-1.87-.45"/><path class="cls-1" d="M98,69.91a7.69,7.69,0,0,1,1.61-1c.68-.28,2.34-1.48,3.26-1.89a1.13,1.13,0,0,0,.41-.24h0a.92.92,0,0,1-.09-.35v-.07a2.13,2.13,0,0,0,0-.27,2.59,2.59,0,0,0-.2-1,41.56,41.56,0,0,0-1.24-4,3.86,3.86,0,0,1-.46-2c0-.47.43-2,.54-2.8a15.34,15.34,0,0,0,.07-1.76v-.87l.45,0s0,.4,0,.89a14.42,14.42,0,0,1-.08,1.82c-.11.83-.54,2.44-.53,2.74a3.56,3.56,0,0,0,.38,1.73,37.08,37.08,0,0,1,1.3,4.11,3.22,3.22,0,0,1,.22,1.13,3.25,3.25,0,0,1,0,.33h0s.07.12.09.35-.24.47-.69.67c-.84.36-2.48,1.55-3.26,1.89a2.59,2.59,0,0,1-1.52.9Z"/><path class="cls-1" d="M103.37,66.88a9.76,9.76,0,0,0,.77-4.38c0-1.22-.1-2.16-.1-2.16l.45-.05a22.08,22.08,0,0,1,.11,2.21,10.1,10.1,0,0,1-1.09,4.6Z"/><path class="cls-1" d="M63.26,65.56A21.86,21.86,0,0,1,67.77,52c5.69-7.31,11.82-8.88,16-8.88a14,14,0,0,1,5.06.85l-.18.43a12.1,12.1,0,0,0-4.44-.65l-.9.07c-4.05,0-9.53,1.27-15.15,8.46a21.37,21.37,0,0,0-4.22,13.33l-.2-.06c0,10.11,6.47,19.83,15.92,20.33l0,.46c-10.86-1.1-16.37-10.51-16.36-20.79"/><path class="cls-1" d="M76.55,46.85a.94.94,0,0,0,.34-.18l.17-.14.33.32a1.85,1.85,0,0,1-.73.45Z"/><path class="cls-1" d="M74.79,80.61l-.05,0h0l-.21,0a1.5,1.5,0,0,0-.24,0l-.07-.46a2.45,2.45,0,0,1,.31,0,1.2,1.2,0,0,1,.36,0,.38.38,0,0,1,.29.36l0,.14Z"/><path class="cls-1" d="M70.45,65.85a1.29,1.29,0,0,1-.67-.29l.28-.36.15.1.22.09v-.14h.46v.08a.63.63,0,0,1-.11.38.44.44,0,0,1-.33.15Z"/><path class="cls-1" d="M70.24,56.52a.82.82,0,0,1-.09-.39h.46v0l0,.14a.29.29,0,0,0,.29.16v.46h0a.77.77,0,0,1-.7-.42"/><path class="cls-1" d="M83.15,57.67c0-.29.26-.49.63-.55l.08.45a.53.53,0,0,0-.24.09h0l.08.14.1.11-.29.35a.9.9,0,0,1-.35-.6"/><path class="cls-1" d="M86.39,51.62l.44-.16a1,1,0,0,0,.14.25.47.47,0,0,0,.36.22h.08l.08.46-.16,0a1.14,1.14,0,0,1-.94-.78m0,0Z"/><path class="cls-1" d="M88.09,58.51l.16-.19a2.6,2.6,0,0,1-.43,0,.25.25,0,0,1-.17-.24c0-.23.14-.19.15-.21l.08.21h0l.07-.2h.37a.5.5,0,0,1,.29.07.38.38,0,0,1,.15.28,1.17,1.17,0,0,1-.35.62Z"/><path class="cls-1" d="M98.72,51.68a1.21,1.21,0,0,1-.4-.06l.13-.44.09,0,.18,0h.08l0,.06.4,0a.46.46,0,0,1-.47.38Z"/><path class="cls-1" d="M65.53,56l.06-.22.19-.14-.19.14-.06.22-.08,0,0-.07a.81.81,0,0,1-.15-.43.44.44,0,0,1,.16-.34.65.65,0,0,1,.42-.12H66c.42,0,.74.16.76.5a.54.54,0,0,1-.33.45.9.9,0,0,1-.38.08,3.39,3.39,0,0,1-.47-.06m.47-.4.17,0,0,0a.78.78,0,0,0-.31-.06h-.08l-.12,0,0,.07Z"/><path class="cls-1" d="M76.79,63.42c.36-2.2,1.26-5.06-.81-6.64-1.72-1.32-3.54-.23-4.72.58a8.37,8.37,0,0,1-1.56.85,5.81,5.81,0,0,1-1.21.23l-.43.08a7.26,7.26,0,1,0,8.7,5.56,2.2,2.2,0,0,1,0-.66m-8.74,7.23c-.4-.43.14-.51.14-.51,5,1.46,6-2.72,6.2-3s.29,0,.29,0c-1.89,5.22-6.3,3.84-6.63,3.48m5.37-12a1.17,1.17,0,1,1,1.4.87,1.17,1.17,0,0,1-1.4-.87"/><path class="cls-1" d="M81.78,48.82a.67.67,0,1,1,1.33.2.67.67,0,0,1-1.33-.2m.22,0a.46.46,0,0,0,.38.51.45.45,0,0,0,.51-.37.45.45,0,1,0-.89-.14"/><path class="cls-1" d="M71.27,50.64a1,1,0,1,1,.83,1.13,1,1,0,0,1-.83-1.13m.3,0a.69.69,0,1,0,.78-.58.69.69,0,0,0-.78.58"/><path class="cls-1" d="M82.48,48.9c-.62-.81-6-.46-8.17-.11s-2,2-2,2c0,.66.44,1.32,3.15,1.39s7.63-2.49,7-3.31m-9.51,2a.35.35,0,1,1,.11-.7.35.35,0,0,1-.11.7m8.85-1.49a.28.28,0,0,1-.23-.32.29.29,0,0,1,.32-.23.27.27,0,0,1,.23.32.28.28,0,0,1-.32.23"/><path class="cls-1" d="M70.88,51.06a.63.63,0,1,1,.53.72.64.64,0,0,1-.53-.72m.3,0a.33.33,0,0,0,.27.37.32.32,0,0,0,.37-.27.31.31,0,0,0-.27-.37.32.32,0,0,0-.37.27"/><path class="cls-1" d="M69.35,50.59l-1.2,1.18s-.32-.09-.39.09-.28.64-.07.93.29.84,3.28-1.46l.2.18-2.45,1.74a.94.94,0,0,1-1.42-.33c-.44-.72,0-1.69,2-2.33"/><path class="cls-1" d="M62.8,88.68l.52-.43.16.18.06,0,.63-.52v-.07L64,87.68l.52-.44,0-.17L61.3,83.19s-.11-.09-.27,0l-.25.21-1.18,1-.09.07a.21.21,0,0,0-.08.27l3.2,3.88Z"/><path class="cls-1" d="M109.27,89.16l.13.86-.31.06-.06,0,.15,1.05.08,0,.31,0,.14.87a.26.26,0,0,0,.21.1c.13,0,6.45-1,6.45-1a.28.28,0,0,0,.15-.34l-.06-.41c-.1-.69-.29-2-.29-2l0-.15a.29.29,0,0,0-.25-.27s-6.32,1-6.46,1-.17.17-.17.17"/><path class="cls-1" d="M86.34,116.21l.18.56-.2.07,0,0,.21.69.06,0,.2-.06.18.57.16.05,4.25-1.33a.2.2,0,0,0,.07-.24l-.09-.28c-.13-.45-.39-1.28-.39-1.28l0-.11a.19.19,0,0,0-.2-.15l-4.26,1.32Z"/><path class="cls-1" d="M26.76,99.64l.64-.42.15.22.07,0,.77-.5v-.08l-.15-.22.63-.44a.19.19,0,0,0,0-.2c-.07-.09-3.17-4.73-3.17-4.73a.25.25,0,0,0-.32,0l-.31.2-1.43.95-.11.07a.27.27,0,0,0-.13.3s3.1,4.63,3.16,4.74Z"/><path class="cls-1" d="M36.86,58.86s-.86.73,0,0a3.76,3.76,0,0,1,1.79-.9,4.76,4.76,0,0,1,2.42.33l.56.56a1.07,1.07,0,0,0-.08.45l.7.68a.55.55,0,0,0,.57,0l.71.7a.7.7,0,0,0,0,.51l.74.72a.54.54,0,0,0,.39-.08l1.16,1.12a1,1,0,0,0-.06.48l.66.65a.54.54,0,0,0,.44-.1L48,65a1.28,1.28,0,0,0,0,.56l.75.73a.94.94,0,0,0,.55,0l1.26,1.24c-.12.3.15.85.15.85l.87.85s.77-.09,2,1.24c2,2,3.31,3.35,3.58,4.12a40.89,40.89,0,0,1,.6,4.54,2,2,0,0,0,.81,1.43l.53.06,1.21,1.19v.49a4.19,4.19,0,0,1-.9,1.2l-.29.29a4.13,4.13,0,0,1-1.18.93h-.49L56.2,83.52,56.12,83a2,2,0,0,0-1.43-.78,37.47,37.47,0,0,1-4.56-.49c-.78-.25-2.2-1.59-4.2-3.49-1.36-1.16-1.28-1.93-1.28-1.93l-.87-.84s-.57-.27-.86-.14l-1.26-1.23a.88.88,0,0,0,0-.54l-.75-.74a1.34,1.34,0,0,0-.56,0l-1.07-1a.53.53,0,0,0,.09-.44l-.66-.66a.93.93,0,0,0-.47.08L37.1,69.62a.54.54,0,0,0,.08-.39l-.74-.73a.78.78,0,0,0-.52,0l-.71-.69a.56.56,0,0,0,0-.57l-.7-.69a1.07,1.07,0,0,0-.45.1l-.57-.55a4.83,4.83,0,0,1-.39-2.43,3.82,3.82,0,0,1,.86-1.79c.74-.91,0,0,0,0Z"/><path class="cls-1" d="M81.48,111.77s.11.68,0,0a2.37,2.37,0,0,1,.1-1.23,3,3,0,0,1,1-1.18l.47-.12a.73.73,0,0,0,.21.19l.58-.15A.35.35,0,0,0,84,109l.59-.16a.43.43,0,0,0,.28.14l.62-.16.08-.24,1-.25a.53.53,0,0,0,.23.19l.55-.15a.36.36,0,0,0,.1-.27l.89-.23a.79.79,0,0,0,.3.18l.62-.16c.11-.07.16-.3.16-.3l1-.27c.12.15.5.19.5.19l.72-.19s.2-.44,1.28-.64a11.27,11.27,0,0,1,3.32-.58,21.92,21.92,0,0,1,2.59,1.13,1.28,1.28,0,0,0,1,0l.2-.26,1-.26.26.15a2.26,2.26,0,0,1,.35.86l.07.25a2.5,2.5,0,0,1,.11.92l-.15.25-1,.27-.3-.13a1.24,1.24,0,0,0-.87.51A23.44,23.44,0,0,1,97.79,112a11.54,11.54,0,0,1-3.17,1.11c-1.05.35-1.43.06-1.43.06l-.73.19s-.32.22-.35.41l-1,.28s-.15-.19-.28-.19l-.63.17a.67.67,0,0,0-.16.3l-.9.23a.38.38,0,0,0-.21-.2l-.56.16a.51.51,0,0,0-.1.26l-1,.26s-.07-.15-.19-.17l-.61.16a.41.41,0,0,0-.18.26l-.6.16a.34.34,0,0,0-.31-.17l-.58.16a.6.6,0,0,0-.09.27l-.48.12a2.91,2.91,0,0,1-1.4-.56,2.54,2.54,0,0,1-.68-1c-.24-.69,0,0,0,0Z"/><path class="cls-1" d="M50.72,87.42s-.27,0,0,0a1,1,0,0,1,.45.14,1.07,1.07,0,0,1,.36.47v.18l-.09.07v.23l.1.1v.24l-.08.09v.25l.09,0v.39l-.1.06v.23l.09,0v.36l-.1.09v.26l.09.08v.42l-.11.17v.29s.15.12.13.54a4.81,4.81,0,0,1-.08,1.3c-.09.17-.52.69-.66.87a.49.49,0,0,0-.11.38l.08.1v.4l-.08.09a.87.87,0,0,1-.35.05h-.1a.82.82,0,0,1-.36,0l-.08-.08v-.41l.08-.1a.51.51,0,0,0-.11-.37,7.48,7.48,0,0,1-.7-.85A4.43,4.43,0,0,1,49,92.23c0-.43.11-.55.11-.55V91.4L49,91.23v-.42l.09-.09v-.25l-.1-.09V90l.09-.06v-.22L49,89.67v-.38l.08-.06V89L49,88.9v-.24l.09-.1v-.24l-.09-.06v-.18a1.1,1.1,0,0,1,.34-.48.85.85,0,0,1,.45-.16c.27,0,0,0,0,0Z"/><path class="cls-1" d="M41.28,44.6s-.14-.19,0,0a.83.83,0,0,1,.16.4,1,1,0,0,1-.11.52l-.13.11-.1,0-.15.14,0,.13-.16.14h-.11l-.17.14v.09l-.26.23-.1,0-.15.13,0,.1-.24.21h-.13l-.17.15v.12l-.28.25H39l-.19.18s0,.16-.31.4a4.38,4.38,0,0,1-.94.7c-.16,0-.78,0-1,0a.41.41,0,0,0-.32.15l0,.11-.27.24h-.11a.85.85,0,0,1-.24-.21L35.56,49a1,1,0,0,1-.18-.27v-.1l.27-.25h.12a.42.42,0,0,0,.19-.29,8.82,8.82,0,0,1,.18-1,4.07,4.07,0,0,1,.82-.85c.27-.27.44-.24.44-.24l.19-.17,0-.18.29-.25h.12l.17-.15v-.12l.25-.21.09,0,.15-.13v-.1l.26-.23.09,0,.17-.14v-.11l.16-.15h.12l.16-.15v-.09l.12-.11a1,1,0,0,1,.53,0,.88.88,0,0,1,.38.22h0Z"/><path class="cls-1" d="M33.77,98.71s.19,0,0,0a.58.58,0,0,1-.32-.11.92.92,0,0,1-.25-.35v-.13l.06,0v-.17l-.07-.08v-.16l.06-.07v-.17l0-.05V97.1l.07,0V96.9l-.06,0V96.6l.07-.07v-.18l-.07-.06V96l.09-.12v-.21s-.1-.08-.08-.39a3.24,3.24,0,0,1,.09-.93,5.36,5.36,0,0,1,.5-.61.39.39,0,0,0,.08-.27l-.06-.07v-.29l.06-.07a.62.62,0,0,1,.25,0h.07a.87.87,0,0,1,.26,0l.06.06v.29l-.06.08a.35.35,0,0,0,.07.27,6.57,6.57,0,0,1,.48.63,3.26,3.26,0,0,1,.06.93c0,.31-.09.39-.09.39v.21l.08.12v.3l-.07.06v.19l.06.07v.25l-.07,0v.17l.07,0v.28l-.06,0v.18l.06.06v.17l-.07.08v.16l.06.05v.14a.84.84,0,0,1-.25.33.76.76,0,0,1-.33.11h0Z"/><path class="cls-1" d="M62.33,46.29h0a.92.92,0,0,1-.21-.39,1,1,0,0,1,.06-.53l.11-.13.1,0,.15-.16V45l.14-.16.12,0,.15-.16,0-.09.24-.26h.1l.14-.15,0-.1.23-.25h.12l.16-.17v-.12l.26-.29.18,0,.19-.2s0-.16.25-.44a3.93,3.93,0,0,1,.88-.82,9.45,9.45,0,0,1,1-.17.46.46,0,0,0,.3-.19v-.12L67.2,41h.1a1.09,1.09,0,0,1,.27.19l.07.06a1.23,1.23,0,0,1,.22.25v.11l-.25.28-.12,0a.44.44,0,0,0-.16.32,8,8,0,0,1-.07,1,4,4,0,0,1-.73,1c-.25.31-.42.3-.42.3l-.18.2,0,.19-.26.29h-.12l-.16.17v.12l-.22.25-.1,0-.14.15,0,.1-.24.27-.09,0-.15.17v.11l-.15.17h-.13l-.14.16,0,.1L64,47a1.15,1.15,0,0,1-.53.1.88.88,0,0,1-.4-.17c-.21-.16,0,0,0,0Z"/><path class="cls-1" d="M96,92.37s0,.42,0,0a1.37,1.37,0,0,1,.1-.73,1.73,1.73,0,0,1,.61-.67l.29,0,.11.11.36-.07c.11,0,.13-.17.13-.17L98,90.7l.16.1.38-.08.06-.14.59-.11.12.12.35-.07.06-.16.54-.1.17.12.38-.08.11-.17.64-.13c.06.1.29.13.29.13l.45-.09s.13-.25.78-.33a6.77,6.77,0,0,1,2-.23,12.78,12.78,0,0,1,1.52.77.74.74,0,0,0,.6,0l.13-.15.62-.12.15.1a1.3,1.3,0,0,1,.18.53l0,.15a1.5,1.5,0,0,1,0,.55l-.1.15-.61.13-.18-.09a.74.74,0,0,0-.54.28,14.39,14.39,0,0,1-1.11,1.28,6.81,6.81,0,0,1-2,.55c-.64.18-.85,0-.85,0l-.45.09s-.2.12-.22.24l-.64.12L101.5,94l-.38.07-.12.18-.54.1-.12-.12-.34.07-.07.16-.59.11-.1-.1-.39.07-.11.16-.36.06s-.07-.12-.18-.1l-.36.07-.06.16-.29,0a1.76,1.76,0,0,1-.82-.39,1.43,1.43,0,0,1-.37-.64c-.12-.42,0,0,0,0Z"/><path class="cls-1" d="M26.19,91.82s.45,0,0,0a1.6,1.6,0,0,1-.79-.14,1.91,1.91,0,0,1-.71-.68l-.05-.31.14-.12-.07-.39c0-.12-.18-.15-.18-.15l-.06-.38.11-.18-.07-.41L24.34,89l-.11-.64.13-.14-.06-.36-.16-.08-.1-.59.13-.18-.07-.41-.18-.12-.12-.7c.1-.06.15-.31.15-.31L23.87,85s-.27-.15-.34-.87A7.18,7.18,0,0,1,23.35,82a12.8,12.8,0,0,1,.88-1.61.84.84,0,0,0,.07-.66l-.15-.14L24,78.86l.12-.16a1.61,1.61,0,0,1,.57-.17l.17,0a1.57,1.57,0,0,1,.6,0l.16.12.11.67-.1.19a.81.81,0,0,0,.28.59,13.75,13.75,0,0,1,1.36,1.24,7.35,7.35,0,0,1,.53,2.12c.17.69,0,.93,0,.93l.07.48s.12.22.25.24l.12.7-.14.17.07.42.19.12.09.6-.13.12.06.37a.37.37,0,0,0,.17.09l.11.64-.12.11.07.4s.06.12.16.13l.06.4s-.14.07-.12.19l.06.38.17.08.06.31a2,2,0,0,1-.45.88,1.61,1.61,0,0,1-.71.38c-.45.12,0,0,0,0Z"/><path class="cls-1" d="M70.3,89.18l-3.07,6.76a3.54,3.54,0,0,0,1.86,2.22,2.4,2.4,0,0,0,2.24.44l4.72-5.69a12,12,0,0,0-5.75-3.73"/><path class="cls-1" d="M68.28,111.56l-3.35-5.82a3.16,3.16,0,0,0-2.62.2c-1.35.54-1.5,1.41-1.5,1.41l1.69,6.47a10.83,10.83,0,0,0,5.78-2.26"/><path class="cls-1" d="M63.46,41.55l6.84-2.89a3.52,3.52,0,0,0,.14-2.9c-.42-1.56-1.35-1.84-1.35-1.84l-7.33,1a12,12,0,0,0,1.7,6.65"/><path class="cls-1" d="M30.76,80.19,33.17,75a2.7,2.7,0,0,0-1.42-1.71A1.81,1.81,0,0,0,30,73L26.37,77.3a9.19,9.19,0,0,0,4.39,2.89"/><path class="cls-1" d="M40.4,101.51l.91,4a1.9,1.9,0,0,0,1.58.37,1.32,1.32,0,0,0,1.14-.56l.2-4.14a6.72,6.72,0,0,0-3.83.28"/><path class="cls-1" d="M54.91,56l-1.71-3.7a1.89,1.89,0,0,0-1.59,0c-.85.25-1,.77-1,.77l.68,4A6.61,6.61,0,0,0,54.91,56"/><path class="cls-1" d="M57.1,87.53l-.1-.19.15-.08-.93-1.74-.36.2-1.17-2.18L51.4,85.3l1.14,2.12-.28.15,1,1.83.22-.12.11.15s-3,2.68,3.75,15.71c0,0,.59,1.2,1.68.78s8.92-4.78,8.92-4.78.87-.52.56-1.3-3.61-7.23-3.61-7.23-2.23-5.15-7.76-5.08m5.78,5.89c.2.42.67,1.88-1.2,1.54-2-.48-3.65-3.26-3.65-3.26-.28-.43-.67-2.47,1.56-1.67a5.51,5.51,0,0,1,3.29,3.39"/><path class="cls-1" d="M85,102.8l.06-.06,0,.05.57-.49-.1-.12.72-.61-.93-1.09-.7.59-.08-.09-.61.51.07.08-.05.05s-1.25-.9-5.59,2.68c0,0-.4.33-.16.7s2.52,3,2.52,3,.27.28.54.1,2.42-1.94,2.42-1.94A3.38,3.38,0,0,0,85,102.8m-1.74,2.64c-.14.11-.65.41-.68-.32a3,3,0,0,1,.93-1.64c.14-.14.87-.45.76.45a2.12,2.12,0,0,1-1,1.51"/><path class="cls-1" d="M41.78,109.41l-.08,0,0-.07L41,109l-.06.16-1-.39-.59,1.46,1,.38-.06.13.81.32,0-.09h.08s-.24,1.67,5.45,4.08c0,0,.52.22.75-.2s1.6-4,1.6-4,.14-.4-.16-.57S45.66,109,45.66,109a3.7,3.7,0,0,0-3.88.45m3.46.34c.18.09.72.44,0,.83a3.18,3.18,0,0,1-2.07-.07c-.2-.06-.88-.62.06-1a2.36,2.36,0,0,1,2,.2"/><path class="cls-1" d="M111.35,96.77l0,.06,0,0-.22.52.11,0-.26.65,1,.39.25-.62.09,0,.22-.54-.07,0V97.2s1.13.16,2.75-3.65c0,0,.15-.34-.13-.5S112.37,92,112.37,92s-.28-.09-.39.11-.92,2.09-.92,2.09a2.47,2.47,0,0,0,.29,2.6m.24-2.32c.06-.12.29-.48.55,0a2.09,2.09,0,0,1,0,1.38c0,.14-.41.59-.64,0a1.6,1.6,0,0,1,.14-1.33"/><path class="cls-1" d="M78.77,112l0-.09.07,0L78.6,111l-.17,0-.27-1-1.58.41.27,1-.14,0,.23.87.1,0,0,.07s-1.53.84,0,7.06c0,0,.13.58.63.51S82,118.86,82,118.86s.43-.14.38-.5-.8-3.45-.8-3.45a3.85,3.85,0,0,0-2.79-3m1.86,3.1c.05.2.09.87-.66.53a3.33,3.33,0,0,1-1.23-1.76c-.07-.21,0-1.12.84-.55a2.4,2.4,0,0,1,1,1.78"/><path class="cls-1" d="M58.27,47.53l0,.13-.1,0,.35,1.24.26-.08.44,1.55,2.35-.67-.44-1.51.21-.06L61,46.87l-.16,0-.05-.11s2.26-1.31-.22-10.55c0,0-.21-.84-1-.73s-6.35,1.83-6.35,1.83-.63.21-.54.75S54,43.22,54,43.22a5.7,5.7,0,0,0,4.24,4.31M55.4,43c-.07-.3-.17-1.29,1-.82s1.88,2.59,1.88,2.59c.12.31.09,1.67-1.23.85A3.6,3.6,0,0,1,55.4,43"/><path class="cls-1" d="M21.75,89.52l0,0h0l-.2-.35-.07,0-.25-.43-.64.38.23.41,0,0,.21.36,0,0,0,0s-.57.57.87,3.13a.28.28,0,0,0,.34.14c.21-.09,1.75-1,1.75-1s.17-.11.11-.26-.78-1.42-.78-1.42a1.76,1.76,0,0,0-1.59-1M23,90.66c0,.08.15.37-.23.31s-.76-.62-.76-.62-.14-.49.31-.35a1.12,1.12,0,0,1,.68.66"/><path class="cls-1" d="M47.69,62.23v.05h0l.12.38.08,0,.15.47.71-.22-.14-.46.06,0L48.52,62h0l0,0s.68-.42-.16-3.23c0,0-.08-.26-.31-.22s-1.93.61-1.93.61-.19.08-.16.24.45,1.56.45,1.56a1.75,1.75,0,0,0,1.34,1.28m-.92-1.37c0-.09-.07-.4.29-.26s.6.78.6.78,0,.51-.37.27a1.06,1.06,0,0,1-.52-.79"/><path class="cls-1" d="M21.28,69s-.43.79.56,2.45l-3.18,9.69s.13.41,1,.76,1.25.17,1.25.17l4.53-9.14c1.87-.48,2.13-1.34,2.13-1.34s3.42-8,3.78-9.23a1.43,1.43,0,0,0-.63-1.74l-4-1.65a1.43,1.43,0,0,0-1.67.8c-.6,1.14-3.77,9.23-3.77,9.23"/><path class="cls-1" d="M77.48,38.81s.47.11,1.2-.63l5.45.35s.19-.13.25-.63-.08-.68-.08-.68L79,36.11c-.5-.91-1-.92-1-.92s-4.61-.7-5.3-.72a.77.77,0,0,0-.82.56l-.31,2.31a.77.77,0,0,0,.64.76c.67.16,5.29.71,5.29.71"/><path class="cls-1" d="M104.6,106.94s.15-.1.12-.46l1.35-1.34s0-.08-.11-.21-.19-.14-.19-.14l-1.53,1.14c-.36-.08-.47,0-.47,0s-1.25,1-1.41,1.22a.26.26,0,0,0,0,.34l.53.61a.27.27,0,0,0,.35,0c.19-.14,1.4-1.22,1.4-1.22"/><path class="cls-1" d="M35.66,57.74s.21-.15.17-.7l2.05-2s0-.12-.16-.32-.3-.21-.3-.21L35.1,56.2c-.54-.12-.71.07-.71.07s-1.9,1.59-2.15,1.86a.4.4,0,0,0-.07.52l.82.93a.39.39,0,0,0,.52,0c.3-.21,2.15-1.85,2.15-1.85"/><path class="cls-1" d="M32.1,87a1.76,1.76,0,0,0,2.08,2.58.61.61,0,0,1,.41.19.64.64,0,0,1,.08.48,1.76,1.76,0,0,0,2.07,2.6.68.68,0,0,1,.39.15l.69-.55c-.08-.17.06-.42.14-.55s.39-.61.45-.69l.19-.2h0l.06,0,.05,0h0l.24-.15c.09,0,.62-.23.78-.27s.42-.12.56,0l.7-.56a.69.69,0,0,1-.06-.41,1.76,1.76,0,0,0-2-2.62.63.63,0,0,1-.45-.2.58.58,0,0,1-.09-.44,1.76,1.76,0,0,0-2-2.63.66.66,0,0,1-.46-.2.57.57,0,0,1-.09-.43,1.76,1.76,0,0,0-2-2.64.72.72,0,0,1-.43-.15l-.7.55c.09.16,0,.43-.12.56s-.4.61-.46.69l-.19.2h0l-.06,0-.05,0h0l-.24.14c-.09,0-.62.23-.78.27s-.43.12-.57,0l-.7.55a.68.68,0,0,1,0,.45,1.77,1.77,0,0,0,2.09,2.58.65.65,0,0,1,.41.18.77.77,0,0,1,.08.51m5,5.35a1.5,1.5,0,1,1,.26-2.1,1.49,1.49,0,0,1-.26,2.1m-1.82-3.13c-.12-.16,0-.44.11-.59s.39-.61.45-.68l.19-.21h0l0,0,.06,0h0l.24-.15.78-.28c.16,0,.46-.12.59,0h0c.12.16,0,.44-.11.58s-.39.61-.45.69l-.2.2h0l0,0-.06,0h0l-.24.14c-.09,0-.62.23-.78.27s-.46.13-.6,0h0Zm-2.57-3.26c-.12-.17,0-.45.11-.59s.39-.61.45-.69l.2-.2h0l.06,0,0,0h0l.24-.15c.09,0,.62-.23.78-.27s.46-.12.6,0h0c.12.16,0,.44-.11.59s-.39.61-.45.69l-.19.2h0l-.06,0,0,0h0l-.24.15-.78.27c-.15,0-.46.12-.59,0v0ZM33,83.78l0,0,0,0,.24-.15a.49.49,0,0,1,.39,0c.13,0,.24.1.25.16s-.16.09-.28.14a.84.84,0,0,0-.32.22h0a1.28,1.28,0,0,0-.29.27c-.07.1-.1.26-.19.23s-.09-.14-.1-.27a.57.57,0,0,1,.07-.4Zm1,2.41c0-.1.16-.09.28-.13a1.71,1.71,0,0,0,.33-.22v0h0a1.54,1.54,0,0,0,.29-.26c.07-.11.09-.27.19-.24s.1.14.11.28a.55.55,0,0,1-.08.39l-.2.19,0,0,0,0-.23.15a.51.51,0,0,1-.4,0c-.13,0-.24-.11-.25-.16m1.33,1,.2-.19,0,0,0,0,.23-.14a.51.51,0,0,1,.4,0c.13,0,.23.11.24.17s-.15.09-.27.13a1.31,1.31,0,0,0-.32.22l0,0h0a1.26,1.26,0,0,0-.29.26c-.07.11-.1.27-.19.23s-.1-.14-.11-.27a.54.54,0,0,1,.08-.39m2.19,2.19,0,0,0,0-.22.15a.56.56,0,0,1-.4,0c-.13,0-.24-.11-.24-.17s.15-.08.27-.13a1.08,1.08,0,0,0,.32-.22h0a1.55,1.55,0,0,0,.29-.27c.07-.11.09-.26.19-.23s.09.14.11.28a.53.53,0,0,1-.08.38Zm1.52.87c0,.1-.15.09-.27.12a1.82,1.82,0,0,0-.33.23h0a1.55,1.55,0,0,0-.29.27c-.07.11-.1.27-.2.23s-.09-.14-.1-.27a.54.54,0,0,1,.08-.39l.2-.19h0l0,0,0,0h0l.23-.15a.56.56,0,0,1,.4,0c.13,0,.24.1.24.17m1.57-2.65a1.5,1.5,0,1,1-2.11-.25,1.51,1.51,0,0,1,2.11.25m-2.57-3.27a1.5,1.5,0,1,1-2.1-.24,1.5,1.5,0,0,1,2.1.24m-4.67-3.51a1.5,1.5,0,0,1,1.85,2.35,1.5,1.5,0,1,1-1.85-2.35m-1.93,2c0-.1.15-.09.27-.13a1.35,1.35,0,0,0,.33-.22h0l0,0a1.08,1.08,0,0,0,.29-.26c.07-.11.1-.27.19-.24s.1.14.11.28a.55.55,0,0,1-.08.39l-.2.19,0,0,0,0-.23.15a.56.56,0,0,1-.4,0c-.13,0-.24-.11-.24-.17m-1.59,2.62a1.5,1.5,0,1,1,2.11.25,1.51,1.51,0,0,1-2.11-.25m2.82,1.16a1.5,1.5,0,1,1-.25,2.11,1.5,1.5,0,0,1,.25-2.11"/><path class="cls-1" d="M51.29,48.82A1.07,1.07,0,0,0,51.68,50a1.08,1.08,0,0,0,1.25,0,.35.35,0,0,1,.27.05.43.43,0,0,1,.13.27,1.05,1.05,0,0,0,.39,1.17,1.07,1.07,0,0,0,1.24,0l.26,0,.32-.43v-.34a3.36,3.36,0,0,1,.16-.48l.08-.15h0l0,0,0,0h0l.12-.12.41-.29c.08,0,.23-.13.34-.08l.32-.44a.4.4,0,0,1-.09-.24,1.09,1.09,0,0,0-.39-1.18,1.07,1.07,0,0,0-1.23,0,.42.42,0,0,1-.3-.05.33.33,0,0,1-.12-.24,1.08,1.08,0,0,0-1.61-1.24.4.4,0,0,1-.31,0,.42.42,0,0,1-.12-.24,1.08,1.08,0,0,0-1.6-1.24.43.43,0,0,1-.28,0l-.33.43c.08.09,0,.26,0,.36l-.16.47-.08.15h0l0,0,0,0h0l-.12.12-.42.29c-.08,0-.24.14-.34.08l-.33.44a.38.38,0,0,1,.1.26,1.09,1.09,0,0,0,1.65,1.19.37.37,0,0,1,.26,0,.4.4,0,0,1,.13.29m3.81,2.37a.92.92,0,1,1-.19-1.29.92.92,0,0,1,.19,1.29m-1.57-1.56c-.1-.08-.06-.27,0-.37s.13-.42.15-.47l.08-.15h0l0,0,0,0h0l.12-.13.42-.28c.09,0,.25-.14.36-.07h0c.1.07.06.26,0,.36l-.16.48-.09.15h0l0,0,0,0h0l-.12.12-.42.28c-.08,0-.25.15-.35.08Zm-2-1.53c-.1-.07-.05-.26,0-.36s.13-.42.15-.48l.09-.15h0l0,0,0,0h0l.12-.13.42-.28c.08,0,.25-.15.35-.07h0c.1.07.05.26,0,.36s-.13.42-.15.47l-.09.15h0l0,0,0,0-.12.12-.41.29c-.09.05-.25.15-.36.08h0Zm-.19-1.3,0,0,0,0,.11-.12a.31.31,0,0,1,.24-.05l.17.06-.14.12-.16.18h0l-.12.2-.08.17-.11-.14v-.25Zm1,1.25.14-.12.16-.18h0l.13-.2.08-.17.11.15,0,.24-.09.14,0,0,0,0-.11.12a.36.36,0,0,1-.24.06Zm1,.42.09-.15v0l0,0,.12-.13.23,0,.17.06-.14.12-.15.18h0l-.13.2-.08.17-.1-.14Zm1.64.94,0,0v0l-.12.12-.23.06-.17-.06.13-.13.16-.18h0l.13-.2.08-.17L55,49l0,.24Zm1,.27-.13.12-.16.18h0l-.13.21-.07.16-.11-.14,0-.25.09-.14h0v0l0,0h0l.11-.12c0-.06.14-.06.24-.06Zm.52-1.81a.92.92,0,1,1-1.11,1.47.91.91,0,0,1-.18-1.28.92.92,0,0,1,1.29-.19m-2-1.52a.9.9,0,0,1,.18,1.28.91.91,0,0,1-1.28.19.93.93,0,0,1-.19-1.29.92.92,0,0,1,1.29-.18M51.08,45a.92.92,0,1,1,.18,1.28A.91.91,0,0,1,51.08,45m-.81,1.52.14-.12.16-.18h0l.13-.2.08-.17.1.14,0,.24-.09.15,0,0v0l-.12.12a.29.29,0,0,1-.23.05Zm-.52,1.8A.92.92,0,1,1,51,48.14a.91.91,0,0,1-1.28.19m1.84.24a.92.92,0,1,1,.19,1.28.91.91,0,0,1-.19-1.28"/><path class="cls-1" d="M95.12,96.78a.58.58,0,0,0-.65-.13.59.59,0,0,0-.35.57l-.09.11h-.16a.6.6,0,0,0-.65-.14.57.57,0,0,0-.35.57l-.09.11.12.27.17.09.17.2.05.08h0v.05h0l0,.09,0,.27,0,.18.11.26.14,0a.58.58,0,0,0,.65.14.59.59,0,0,0,.35-.56l.1-.13.14,0a.6.6,0,0,0,.66.13.56.56,0,0,0,.35-.55l.1-.14h.15a.57.57,0,0,0,.65.15.61.61,0,0,0,.36-.56l.08-.12L97,97.48l-.16-.08-.18-.21,0-.08h0v0h0l0-.09,0-.27,0-.18-.12-.27-.14,0a.57.57,0,0,0-.64-.13.57.57,0,0,0-.35.57l-.1.12ZM93,97.91a.49.49,0,0,1,.26-.65.49.49,0,0,1,.38.91.49.49,0,0,1-.64-.26m1.14-.32.18.09.18.2,0,.08v0h0l0,.09,0,.27-.06.19h0l-.18-.08-.18-.21,0-.08,0,0v0h0l0-.08,0-.28.06-.18h0Zm1.25-.53.18.08.18.2,0,.09v0l0,0,0,.08,0,.27L95.8,98h0l-.18-.08-.17-.2,0-.08h0v0h0l0-.09v-.27l.06-.19Zm.66.26v0h0l0,.09,0,.12-.07.07,0-.1,0-.12h0l-.06-.12,0-.08h.09l.12.06Zm-.85.13,0,.1,0,.12h0l.06.12,0,.08h-.09l-.12-.06,0-.08h0l0-.09,0-.13Zm-.45.33,0,.08h0v0l0,.09,0,.12-.07.06,0-.1,0-.12h0l-.06-.12,0-.08h.09Zm-.87.51v0h0l0-.09,0-.12L94,98l0,.1,0,.12h0l.06.11.06.08-.1,0-.11-.06Zm-.41.41,0-.1,0-.12h0l-.06-.12-.06-.08h.1l.11.06,0,.08h0l0,.08,0,.13Zm.71.72a.49.49,0,0,1-.65-.26.49.49,0,0,1,.9-.39.5.5,0,0,1-.25.65m1.25-.53a.51.51,0,0,1-.65-.26.5.5,0,1,1,.91-.39.5.5,0,0,1-.26.65m1.51-1.19a.49.49,0,1,1-.65-.26.5.5,0,0,1,.65.26m-.49-.79,0,.11,0,.12h0l.06.11.06.08h-.1l-.12,0,0-.08v0h0l0-.09,0-.12Zm-.69-.72a.5.5,0,0,1,.65.26.5.5,0,0,1-.91.39.5.5,0,0,1,.26-.65m-.61.79a.48.48,0,0,1-.26.65.5.5,0,0,1-.65-.26.51.51,0,0,1,.27-.65.49.49,0,0,1,.64.26"/><path class="cls-1" d="M73.37,105.17a1.41,1.41,0,0,0-2.44,1,.41.41,0,0,1-.63.23,1.41,1.41,0,0,0-2.45,1,.54.54,0,0,1-.2.26l.27.66c.14,0,.3.14.39.23s.38.43.43.49l.11.2h0v.06l0,0h0l.06.21c0,.09,0,.53,0,.66s0,.35-.13.43l.26.66a.56.56,0,0,1,.33,0,1.41,1.41,0,0,0,2.46-1,.54.54,0,0,1,.25-.3.46.46,0,0,1,.36,0,1.4,1.4,0,0,0,2.46-1,.57.57,0,0,1,.26-.32.48.48,0,0,1,.35,0,1.41,1.41,0,0,0,2.47-1,.78.78,0,0,1,.22-.3L78,107c-.15,0-.32-.13-.41-.22s-.38-.44-.42-.5l-.11-.2h0l0,0,0,0h0l-.06-.21c0-.08,0-.53,0-.66s0-.36.14-.44l-.26-.66a.57.57,0,0,1-.37-.07A1.41,1.41,0,0,0,74,105a.53.53,0,0,1-.24.27.58.58,0,0,1-.4,0m-5.22,2.65a1.2,1.2,0,1,1,1.56.66,1.19,1.19,0,0,1-1.56-.66m2.81-.71c.15,0,.34.13.42.22s.38.43.43.5l.11.19h0l0,0,0,.05,0,.22c0,.08,0,.53,0,.66s0,.38-.16.44h0c-.15.05-.34-.13-.43-.22s-.38-.44-.42-.5l-.12-.19h0l0,0,0,0h0l-.06-.21a6.52,6.52,0,0,1,0-.66c0-.13,0-.38.15-.45h0ZM74,105.87c.15-.06.33.11.42.21s.38.44.44.5l.1.19h0l0,0v.06h0l.06.22c0,.08,0,.53,0,.66s0,.38-.17.45h0c-.15.05-.33-.12-.42-.21l-.43-.5-.1-.2h0l0,0,0,0h0l-.06-.22c0-.08,0-.52,0-.65s0-.39.15-.46h0Zm1.58.67,0,0v0l.06.21a.4.4,0,0,1-.1.3c-.07.09-.14.16-.18.15s0-.14,0-.23a1.05,1.05,0,0,0-.1-.3v0a1,1,0,0,0-.14-.28l-.14-.2s.13,0,.24,0a.41.41,0,0,1,.28.15Zm-2.08.27c.08,0,0,.14,0,.24a1.05,1.05,0,0,0,.1.3v0h0a1,1,0,0,0,.14.28l.14.2s-.13,0-.24,0a.41.41,0,0,1-.28-.15l-.1-.19v0l0,0-.06-.21a.4.4,0,0,1,.1-.3c.06-.09.14-.16.18-.15m-1.1.79.1.19,0,0v0l.06.2a.43.43,0,0,1-.1.31l-.18.15c-.08,0,0-.14,0-.24a1.17,1.17,0,0,0-.1-.3h0v0a1,1,0,0,0-.14-.28l-.14-.2s.13,0,.24,0a.39.39,0,0,1,.28.15m-2.17,1.19v-.07l-.07-.21a.49.49,0,0,1,.1-.3c.07-.09.14-.16.19-.15s0,.14,0,.24a1.88,1.88,0,0,0,.09.3h0v0a1,1,0,0,0,.14.28l.14.2s-.13,0-.24,0a.45.45,0,0,1-.28-.15Zm-1,1c-.08,0,0-.14,0-.24a1.42,1.42,0,0,0-.09-.3v0h0a1.31,1.31,0,0,0-.14-.29l-.14-.2s.13,0,.24,0a.4.4,0,0,1,.28.14l.09.19h0v0l0,0h0l.07.21a.45.45,0,0,1-.11.3c-.06.09-.13.16-.18.16M71,111.55a1.2,1.2,0,0,1-1.56-.65,1.2,1.2,0,1,1,2.22-.91,1.19,1.19,0,0,1-.66,1.56M74,110.31a1.2,1.2,0,1,1,.66-1.57,1.21,1.21,0,0,1-.66,1.57m3.74-2.81a1.2,1.2,0,1,1-1.56-.66,1.21,1.21,0,0,1,1.56.66m-1.15-1.93c.08,0,0,.13,0,.23a.66.66,0,0,0,.1.3v0a1.22,1.22,0,0,0,.14.28l.13.2s-.13,0-.23,0a.4.4,0,0,1-.28-.14l-.1-.19,0,0v0l-.06-.2a.43.43,0,0,1,.1-.31ZM75,103.76a1.2,1.2,0,1,1-.67,1.57,1.2,1.2,0,0,1,.67-1.57m-1.52,1.91a1.2,1.2,0,1,1-1.56-.66,1.2,1.2,0,0,1,1.56.66"/><path class="cls-1" d="M117.94,88.92l.18-.11-.2-.14a1.44,1.44,0,0,0-.79-.43.74.74,0,0,1-.21-.09c0,.1-.09.29-.13.35a1,1,0,0,0,0,.94l0,.11-.17.09a.59.59,0,0,1,.22.12.65.65,0,0,0,.21.11l-.07-.22,0-.06a.88.88,0,0,0,.62-.22,1,1,0,0,0,.26-.45"/><path class="cls-1" d="M68.44,89c-.06-.26.29-.57.29-.57a2.21,2.21,0,0,1-.74-.09,4.11,4.11,0,0,0-2.75.07,3,3,0,0,1-.72.09c.29.18.22.89.2,1.11a3.07,3.07,0,0,0,1.45,2.49c.28.15.22.26.22.26-.21.09-.34.51-.34.51a2.5,2.5,0,0,1,.77,0,2.22,2.22,0,0,0,.77,0,1.32,1.32,0,0,0-.54-.45c-.07,0,0-.16,0-.28a2.68,2.68,0,0,0,1.33-1.53,3.37,3.37,0,0,0,0-1.57"/><path class="cls-1" d="M75,112.94c-.21-.4.23-1.09.23-1.09a3.42,3.42,0,0,1-1.28.2,7,7,0,0,0-4.58,1.38,5,5,0,0,1-1.17.47c.57.17.77,1.41.84,1.77a5.31,5.31,0,0,0,3.59,3.52c.53.11.48.33.48.33-.31.25-.34,1-.34,1a4.19,4.19,0,0,1,1.29-.39,3.81,3.81,0,0,0,1.27-.38,2.39,2.39,0,0,0-1.11-.53c-.12,0-.14-.24,0-.47a4.59,4.59,0,0,0,1.5-3.18,5.66,5.66,0,0,0-.69-2.65"/><path class="cls-1" d="M32.84,67.39c-.23-.11-.26-.59-.26-.59-.07.2-.42.41-.53.53a4.15,4.15,0,0,0-1.71,2.22,2.82,2.82,0,0,1-.39.63c.32-.11.85.4,1,.55a3.15,3.15,0,0,0,2.91.45c.29-.14.34,0,.34,0-.06.22.19.59.19.59a2.67,2.67,0,0,1,.48-.62,2.37,2.37,0,0,0,.47-.62,1.39,1.39,0,0,0-.71.13c-.05,0-.14-.07-.17-.21a2.72,2.72,0,0,0-.37-2,3.43,3.43,0,0,0-1.25-1"/><path class="cls-1" d="M58.52,115.81c0,.22-.24.48-.24.48a1.53,1.53,0,0,1,.61.07,3.53,3.53,0,0,0,2.31,0,2.33,2.33,0,0,1,.6-.08c-.24-.15-.18-.75-.16-.92a2.58,2.58,0,0,0-1.22-2.1c-.23-.12-.18-.21-.18-.21.18-.08.28-.43.28-.43a2.06,2.06,0,0,1-.65,0,1.84,1.84,0,0,0-.63,0,1.07,1.07,0,0,0,.45.38c.05,0,0,.14,0,.23a2.22,2.22,0,0,0-1.1,1.28,2.76,2.76,0,0,0,0,1.32"/><path class="cls-1" d="M46.72,88.34c.49-.07,1,.66,1,.66A3.82,3.82,0,0,1,48,87.62a7.82,7.82,0,0,0,.38-5.24,4.91,4.91,0,0,1,0-1.38c-.4.51-1.74.24-2.14.17a5.82,5.82,0,0,0-5,2.3c-.32.49-.52.36-.52.36-.13-.41-.91-.73-.91-.73a5.61,5.61,0,0,1-.11,1.47A4.21,4.21,0,0,0,39.59,86a2.64,2.64,0,0,0,1-.94c0-.12.3,0,.5.16A5,5,0,0,0,43.73,88a6.43,6.43,0,0,0,3,.32"/><path class="cls-1" d="M44.63,43.29,44.49,43l.1,0v0l-.18-.34h0l-.1,0-.15-.28h-.08L42,43.44v.14l.07.14c.12.22.33.64.33.64l0,0,.12.07,2.11-1.1Z"/><path class="cls-1" d="M51.87,66v.2h-.24l-.06,1.58,3.13.11.05-1.58H54.5v-.21a3.28,3.28,0,0,0,2.1-1.74s.19-5.49.2-5.71-.34-.35-.34-.35l-6-.21s-.36.1-.36.32-.21,5.71-.21,5.71a3.32,3.32,0,0,0,2,1.89"/><path class="cls-1" d="M93.86,95.25H94v.2l1.36-.06-.13-2.7-1.36.07V93h-.17a2.85,2.85,0,0,0-1.65-1.69l-4.93.23c-.19,0-.28.32-.28.32L87.15,97s.11.3.3.29l4.93-.23a2.82,2.82,0,0,0,1.48-1.83"/><path class="cls-1" d="M108.26,98.29l-.06-.07.07-.07-.49-.52-1,1,.49.51.08-.08.06.07a1.5,1.5,0,0,0-.1,1.23l1.77,1.87h.22l2-1.86v-.22l-1.77-1.88a1.48,1.48,0,0,0-1.23,0"/><path class="cls-1" d="M38.88,74.15,38.82,74l.2-.08-.51-1.33-2.64,1,.51,1.34.21-.09.06.18a3,3,0,0,0-1.14,2.19s1.78,4.64,1.84,4.83.41.17.41.17l5.08-1.93s.26-.21.19-.39L41.19,75a3,3,0,0,0-2.31-.88"/><path class="cls-1" d="M50.6,113.65l-.14.2-.24-.16-1.06,1.59,3.15,2.11,1.06-1.59-.25-.17.14-.2a4,4,0,0,0,3.28-.46l3.85-5.77c.15-.23-.13-.58-.13-.58l-6.06-4.05s-.44-.12-.58.1l-3.86,5.77a4,4,0,0,0,.84,3.21"/><path class="cls-1" d="M20,86.82v.1h-.12v.76h1.49v-.76h-.12v-.1a1.57,1.57,0,0,0,1-.88s0-2.63,0-2.74S22,83,22,83l-2.87,0s-.17,0-.17.16S19,86,19,86a1.57,1.57,0,0,0,1,.86"/><path class="cls-1" d="M46.75,41.09l-.13.06L46.55,41l-1,.44.88,2,1-.45-.07-.15.13-.06a2.25,2.25,0,0,0,1.7.76l3.55-1.61c.14-.07.11-.32.11-.32l-1.68-3.73s-.17-.19-.31-.13L47.3,39.31a2.29,2.29,0,0,0-.55,1.78"/><path class="cls-1" d="M37.4,107.38l.12.12-.14.14.91.93,1.84-1.83-.92-.92-.15.14-.11-.12a2.7,2.7,0,0,0,.13-2.25l-3.33-3.35c-.13-.13-.41,0-.41,0l-3.52,3.49s-.14.27,0,.4l3.34,3.36a2.74,2.74,0,0,0,2.25-.13"/><path class="cls-1" d="M67,115.07v-.15h.16l0-1.08L65,113.77l0,1.08h.17V115a2.23,2.23,0,0,0-1.44,1.19s-.13,3.77-.14,3.91.24.24.24.24l4.11.15s.24-.07.24-.22.14-3.91.14-3.91A2.23,2.23,0,0,0,67,115.07"/><path class="cls-1" d="M81.68,99.43l-.05,0,0-.07-.4.27.54.79.39-.27,0-.06,0,0a1.06,1.06,0,0,0,.82.2l1.45-1,0-.15-1-1.52-.15,0-1.45,1a1,1,0,0,0-.11.83"/><path class="cls-1" d="M106.8,101.56c-.18-1.47-3.19-2.32-6.73-1.89s-6.26,2-6.08,3.45,3.19,2.31,6.73,1.88,6.26-2,6.08-3.44m-10.9,1.75a.56.56,0,0,1-.78.18.57.57,0,0,1-.17-.78.56.56,0,0,1,1,.6m8.61-1.49s-4.82-.22-7.93,1.07c0,0-.14,0,0-.12a13,13,0,0,1,7.9-1Zm1.58,0a.59.59,0,0,1-.79.18.57.57,0,1,1,.79-.18"/><path class="cls-1" d="M47.07,90.59c-1-1.23-4.25-.26-7.23,2.18s-4.58,5.43-3.56,6.67,4.25.26,7.23-2.18,4.58-5.43,3.56-6.67m-9.54,8.54a.62.62,0,1,1,.61-.62.61.61,0,0,1-.61.62m1-1.4s-.15,0-.07-.1c.52-.93,2.29-3.54,6.63-5.51l.07,0s-4.54,2.6-6.63,5.57M46,91.84a.62.62,0,0,1,0-1.23.62.62,0,0,1,0,1.23"/><path class="cls-1" d="M78.78,92.79c-1.2-.09-2.2.23-2.25.72s.9,1,2.1,1.09,2.2-.22,2.24-.72-.89-1-2.09-1.09m-1.63.92h-.26v-.26h.27Zm.26-.1v0a4.51,4.51,0,0,1,2.68.21v0a7.88,7.88,0,0,0-2.69-.2m3.21.3h-.27v-.27h.26Z"/><path class="cls-1" d="M34.75,50.05c-.93-.66-3,.61-4.6,2.84S28,57.48,28.92,58.15s3-.6,4.6-2.84,2.15-4.59,1.23-5.26m-5,7.65a.42.42,0,0,1-.53-.3.44.44,0,0,1,.84-.24.44.44,0,0,1-.31.54m.42-1.15s-.09.07-.06,0a9.89,9.89,0,0,1,3.55-5h.06a17.85,17.85,0,0,0-3.55,5.06m4.05-5.43a.44.44,0,1,1-.23-.85.44.44,0,0,1,.53.31.43.43,0,0,1-.3.54"/><path class="cls-1" d="M46.68,48.54c-.09-.14,0-.21.11-.14s1.2.86,1.67,1.22c-.19-1.64-.14-3.87-1.93-4.58-1.5-.59-2.58.56-3.25,1.39a6.82,6.82,0,0,1-.94.92,14,14,0,0,1,1.56.11c.25,0,.2.16.08.14a8.09,8.09,0,0,0-2.45.16l-.3.15a5.38,5.38,0,1,0,7.34,2.18,6.49,6.49,0,0,0-1.89-1.55m-3,8c-.38-.23,0-.4,0-.4,3.85,0,3.75-3.17,3.81-3.38s.21-.06.21-.06c-.28,4.11-3.71,4-4,3.84m1.38-9.65a.86.86,0,0,1,.34-1.17.86.86,0,1,1,.83,1.51.86.86,0,0,1-1.17-.34"/><path class="cls-1" d="M48.12,98.56c-.13,0-.15-.07,0-.13s1-.41,1.46-.58c-1.13-.54-2.53-1.49-3.72-.63a2.17,2.17,0,0,0-.45,2.65,6.08,6.08,0,0,1,.21,1,10,10,0,0,1,.71-.95c.13-.14.18-.07.12,0a6.41,6.41,0,0,0-.91,1.64l0,.25A4.09,4.09,0,1,0,49.88,98a5,5,0,0,0-1.76.58M52,103.75c-.3.15-.26-.16-.26-.16a2.57,2.57,0,0,0-.6-3.83c-.11-.13,0-.16,0-.16,2.52,1.87,1.06,4,.81,4.15m-5.61-4.84a.66.66,0,0,1-.62-.7.67.67,0,0,1,.7-.62.68.68,0,0,1,.62.71.67.67,0,0,1-.7.61"/><path class="cls-1" d="M31.11,102.84h0s0,.24.05.33c.16-.2.42-.45.3-.73a.45.45,0,0,0-.52-.22h-.21l.16.19v0a1.18,1.18,0,0,0-.29-.26h-.05a.86.86,0,0,0-.49,1.65.88.88,0,0,0,1.07-.57,1.19,1.19,0,0,0,0-.39m-1.25.57,0,0a.54.54,0,0,0,.82,0l0,0a.57.57,0,0,1-.89,0m1.26-.94.17-.09.09.17-.17.09Z"/><path class="cls-1" d="M90.66,100.52l0-.1c.1,0,.79.18,1.11.26-.45-.8-.91-1.94-2-1.91-.89,0-1.19.85-1.35,1.41a3.91,3.91,0,0,1-.28.68,6.56,6.56,0,0,1,.82-.29c.13,0,.14,0,.07.06a4.16,4.16,0,0,0-1.21.61l-.12.14A3,3,0,1,0,92,100.9a3.68,3.68,0,0,0-1.3-.38m.22,4.73c-.23,0-.09-.2-.09-.2A1.87,1.87,0,0,0,92,102.5c0-.13.09-.08.09-.08.75,2.15-1,2.86-1.21,2.83M89.49,100a.48.48,0,1,1,.59-.76.48.48,0,0,1-.59.76"/><path class="cls-1" d="M31.83,100.65a.52.52,0,0,1,.37.66.54.54,0,0,1-.66.37.54.54,0,0,1,.29-1m0,.17a.36.36,0,0,0-.19.69.36.36,0,1,0,.19-.69"/><path class="cls-1" d="M31.39,92.1a.81.81,0,0,1,.55,1,.79.79,0,1,1-.55-1m-.07.23A.55.55,0,0,0,31,93.4a.55.55,0,0,0,.29-1.07"/><path class="cls-1" d="M32.57,94.7c-.06-1.79-1.43-1.76-1.43-1.76-.52,0-1.09.22-1.41,2.36s1.25,6.32,2,5.9.94-4.71.88-6.5M31,93.43a.29.29,0,0,1,.35-.2.3.3,0,0,1,.2.35.28.28,0,0,1-.35.2.29.29,0,0,1-.2-.35m.5,7.47a.22.22,0,0,1-.16-.27.23.23,0,0,1,.27-.16.22.22,0,0,1,.16.27.23.23,0,0,1-.27.16"/><path class="cls-1" d="M31.09,91.76a.5.5,0,0,1,.35.61.51.51,0,0,1-.62.35.5.5,0,1,1,.27-1M31,92a.28.28,0,0,0-.32.19.26.26,0,0,0,.19.32.25.25,0,0,0,.31-.18A.27.27,0,0,0,31,92"/><path class="cls-1" d="M31.61,90.58l-.82-1.07s.1-.25,0-.32-.48-.29-.73-.14-.7.15.85,2.75l-.17.14-1.15-2.12a.77.77,0,0,1,.4-1.1c.62-.28,1.35.19,1.66,1.86"/><path class="cls-1" d="M68,105.18a.92.92,0,0,1-.7,1.11.93.93,0,0,1-.4-1.82.92.92,0,0,1,1.1.71m-.3.06a.62.62,0,0,0-1.2.27.62.62,0,1,0,1.2-.27"/><path class="cls-1" d="M80.61,97.59a1.37,1.37,0,1,1-1.63-1,1.36,1.36,0,0,1,1.63,1m-.4.09A1,1,0,0,0,79.07,97a1,1,0,1,0,1.14.72"/><path class="cls-1" d="M79.15,97.89c-.39-.81-1.22-1.47-4.75-.22s-8.58,7-7.37,7.74S75,103,77.62,101.5s1.53-3.61,1.53-3.61m-11.34,7.33a.39.39,0,0,1-.46-.29.38.38,0,0,1,.3-.46.37.37,0,0,1,.45.29.38.38,0,0,1-.29.46m10.7-6.13a.49.49,0,1,1,.38-.58.5.5,0,0,1-.38.58"/><path class="cls-1" d="M80.9,96.86a.87.87,0,1,1-1-.65.86.86,0,0,1,1,.65m-.41.09a.44.44,0,0,0-.53-.34.45.45,0,1,0,.53.34"/><path class="cls-1" d="M83.1,96.71l1-2.12s.45,0,.45-.31.06-1-.37-1.24-.79-.93-3.5,3.52l-.35-.14L82.6,93a1.31,1.31,0,0,1,2-.28c.93.71.8,2.2-1.49,4"/><path class="cls-1" d="M74.74,39.22a.33.33,0,1,1,.35.3.32.32,0,0,1-.35-.3m.11,0a.22.22,0,0,0,.44,0,.22.22,0,0,0-.23-.21.22.22,0,0,0-.21.23"/><path class="cls-1" d="M69.92,41.14a.47.47,0,0,1,.45-.51.48.48,0,1,1-.45.51m.14,0a.34.34,0,0,0,.36.32.35.35,0,0,0,.32-.36.37.37,0,0,0-.36-.32.35.35,0,0,0-.32.36"/><path class="cls-1" d="M75.09,39.19c-.38-.33-2.89.38-3.91.76s-.74,1.17-.74,1.17c.09.3.35.58,1.64.34s3.39-2,3-2.27m-4.34,1.89a.16.16,0,0,1-.18-.16.17.17,0,0,1,.16-.18.17.17,0,1,1,0,.34m4.07-1.6-.14-.12.12-.15.15.13Z"/><path class="cls-1" d="M69.78,41.38a.3.3,0,0,1,.28-.32.31.31,0,0,1,.33.28.32.32,0,0,1-.29.33.3.3,0,0,1-.32-.29m.14,0,.17.15.15-.16a.17.17,0,0,0-.17-.16Z"/><path class="cls-1" d="M69,41.31l-.45.68s-.17,0-.18.08-.08.34.06.45.22.37,1.42-1l.11.06-1,1.08a.46.46,0,0,1-.71,0c-.28-.31-.15-.82.75-1.32"/><path class="cls-1" d="M55.28,118.23l5.81,1.12.24-1.24L55.52,117Zm-.12-1.56-.46-.09a.35.35,0,0,0-.41.27l-.2,1.05a.35.35,0,0,0,.27.41l.47.08a.34.34,0,0,0,.36-.15l.25-1.29a.35.35,0,0,0-.28-.28m7.34,1.92a.51.51,0,0,0-.32,0h0a.34.34,0,0,0-.27-.41l-.37-.07-.24,1.24.37.07a.34.34,0,0,0,.41-.27h0a.5.5,0,0,0,.28.16.41.41,0,0,0,.51-.29.42.42,0,0,0-.37-.46m0,.1a.41.41,0,0,1,.25.16h0a1.3,1.3,0,0,0-.35-.12l-.14,0Zm-.11.55-.21-.1.14,0a.89.89,0,0,0,.36,0h0a.32.32,0,0,1-.29.06m.27-.15a.88.88,0,0,1-.32,0l-.22-.06,0-.22.22,0a1.48,1.48,0,0,1,.32.11l.09.1h0Z"/><path class="cls-1" d="M107.37,94.4l-7.32,1.53.32,1.56L107.69,96Zm.89,1.77.59-.13a.43.43,0,0,0,.34-.5l-.28-1.33a.44.44,0,0,0-.51-.34l-.59.12a.45.45,0,0,0-.34.36l.34,1.63a.43.43,0,0,0,.45.19m-9.5,1.34a.65.65,0,0,0,.36-.21h0a.44.44,0,0,0,.52.34l.47-.1L99.78,96l-.47.1a.42.42,0,0,0-.33.51h0a.71.71,0,0,0-.41,0,.54.54,0,0,0-.46.59.53.53,0,0,0,.65.36m0-.12a.54.54,0,0,1-.38-.07h0a1.48,1.48,0,0,0,.46,0l.17,0a.55.55,0,0,1-.26.14m-.14-.7a.48.48,0,0,1,.29,0l-.18,0a1.76,1.76,0,0,0-.43.16h0a.47.47,0,0,1,.32-.21m-.25.31a1.1,1.1,0,0,1,.39-.15l.28,0,0,.27-.27.08a1,1,0,0,1-.41,0,.29.29,0,0,1-.16-.07h0Z"/><path class="cls-1" d="M56.55,56.44l1.82-4.68-1-.39-1.82,4.68Zm-1.32-.15-.15.38a.3.3,0,0,0,.17.38l.85.33a.29.29,0,0,0,.37-.17l.15-.38a.28.28,0,0,0-.08-.31l-1-.41a.28.28,0,0,0-.27.18M58,50.47a.42.42,0,0,0,0,.27h0a.28.28,0,0,0-.38.16l-.12.31,1,.39.12-.31a.3.3,0,0,0-.17-.38h0a.4.4,0,0,0,.17-.21.33.33,0,1,0-.6-.23m.08,0a.33.33,0,0,1,.17-.18h0a.62.62,0,0,0-.15.27l0,.1Zm.45.18-.13.16.06-.11a.93.93,0,0,0,.06-.3h0a.31.31,0,0,1,0,.25m-.09-.25a.78.78,0,0,1-.06.27l-.08.17-.18-.07,0-.18a1,1,0,0,1,.14-.24l.09-.06h0Z"/><path class="cls-1" d="M73.81,125l.07.46-.16,0,0,0,.08.55,0,0,.17,0,.07.46.11,0,3.41-.49a.16.16,0,0,0,.08-.18l0-.22-.14-1,0-.08a.15.15,0,0,0-.13-.15l-3.4.49Z"/><path class="cls-1" d="M78.69,8.7l.4,4.37a2.1,2.1,0,0,0,1.6.59c1,.05,1.28-.43,1.28-.43l.76-4.29a7.15,7.15,0,0,0-4-.24"/><path class="cls-1" d="M98.7,20.17h0a.91.91,0,0,1-.29.3,1,1,0,0,1-.5.1l-.14-.07v-.1l-.19-.08-.11,0-.19-.08,0-.1L97,20.08l-.07,0-.3-.14,0-.1-.18-.08-.07.05-.28-.13,0-.11-.19-.09-.11,0-.33-.15-.09-.15-.23-.11s-.14.07-.46-.11a3.84,3.84,0,0,1-1-.56,5.61,5.61,0,0,1-.42-.85A.44.44,0,0,0,93,17.4l-.11,0-.31-.16,0-.09a1,1,0,0,1,.1-.29l0-.08a.9.9,0,0,1,.17-.26l.1,0,.32.15,0,.09a.43.43,0,0,0,.34.06,9.34,9.34,0,0,1,.92-.22,4.65,4.65,0,0,1,1,.4c.35.14.38.29.38.29l.23.11.18,0,.32.15,0,.11.2.09.11,0,.28.13,0,.09.16.09.09,0,.3.15,0,.08.19.09.09,0,.19.09,0,.11.19.08.08-.05.14.08a.94.94,0,0,1,.24.44.73.73,0,0,1-.05.4c-.08.23,0,0,0,0Z"/><path class="cls-1" d="M106.56,24.34l.08.05,0,.07.78.49.11-.17,1,.62.94-1.48-1-.6.07-.13-.81-.51-.07.09-.08,0s.59-1.78-5.18-5.53c0,0-.52-.35-.86.07s-2.53,4-2.53,4-.24.42.07.66,3.16,2.11,3.16,2.11a4.11,4.11,0,0,0,4.34.27m-3.72-1.06c-.18-.13-.71-.61.13-.91a3.56,3.56,0,0,1,2.25.48c.21.11.84.85-.26,1a2.56,2.56,0,0,1-2.12-.62"/><path class="cls-1" d="M65.22,11.44v.05h0V12h.1v.63l1,0V12h.09v-.52h-.07v-.05s1-.27,1-4c0,0,0-.34-.29-.37s-2.56,0-2.56,0-.26,0-.28.23,0,2.06,0,2.06a2.24,2.24,0,0,0,1.16,2m-.62-2c0-.12.07-.5.46-.21a1.94,1.94,0,0,1,.44,1.16c0,.14-.14.64-.55.21a1.46,1.46,0,0,1-.35-1.16"/><path class="cls-1" d="M121.2,40.11a1.32,1.32,0,0,0-1.12-2.21.43.43,0,0,1-.27-.2.5.5,0,0,1,0-.36,1.32,1.32,0,0,0,.23-1.49,1.33,1.33,0,0,0-1.34-.73.51.51,0,0,1-.25-.17l-.59.29c0,.14-.11.3-.18.38s-.39.39-.44.44l-.18.11,0,0,0,0h0l-.19.07c-.07,0-.49.07-.61.07s-.33,0-.41-.09l-.6.3a.56.56,0,0,1,0,.31,1.3,1.3,0,0,0-.24,1.49,1.34,1.34,0,0,0,1.32.74.48.48,0,0,1,.3.2.5.5,0,0,1,0,.34,1.3,1.3,0,0,0-.24,1.5,1.28,1.28,0,0,0,1.31.73.55.55,0,0,1,.31.22.42.42,0,0,1,0,.33,1.33,1.33,0,0,0-.25,1.51,1.35,1.35,0,0,0,1.31.73.56.56,0,0,1,.29.17l.59-.29c0-.14.11-.31.17-.4l.44-.42.18-.12,0,0,0,0h0l.21-.07c.07,0,.49-.07.61-.08s.34,0,.42.1l.58-.29a.73.73,0,0,1,0-.35,1.29,1.29,0,0,0,.23-1.47,1.34,1.34,0,0,0-1.35-.73.49.49,0,0,1-.27-.19.56.56,0,0,1,0-.38m-2.82-4.69a1.12,1.12,0,1,1-.51,1.5,1.13,1.13,0,0,1,.51-1.5m.84,2.57c.07.14-.09.32-.16.41l-.44.44-.18.11h0l-.05,0h0l-.2.07-.61.07c-.12,0-.35,0-.42-.12h0c-.07-.14.08-.32.17-.41s.38-.39.43-.44l.17-.11h0l.05,0,0,0h0l.19-.07a5.21,5.21,0,0,1,.62-.08c.11,0,.35,0,.42.11h0Zm1.37,2.78c.06.14-.09.32-.17.41l-.44.43-.17.12h0l0,0,0,0-.2.06c-.07,0-.49.08-.61.08s-.36,0-.43-.11h0c-.06-.14.09-.32.17-.41l.44-.44.18-.11h0l0,0,0,0h0l.2-.07c.07,0,.49-.08.61-.08s.36,0,.43.11h0Zm-.52,1.52,0,0h0l-.18.08a.4.4,0,0,1-.29-.08l-.15-.16c0-.08.12,0,.22,0a1.27,1.27,0,0,0,.27-.11h0a.89.89,0,0,0,.26-.14l.18-.14s0,.11,0,.21a.45.45,0,0,1-.12.28l-.18.1Zm-.39-1.91c0,.08-.13,0-.23,0a.91.91,0,0,0-.26.11h0a.64.64,0,0,0-.26.15l-.18.13s0-.11,0-.21a.38.38,0,0,1,.12-.27l.18-.11,0,0h0l.19-.08a.38.38,0,0,1,.28.08Zm-.81-1-.17.1,0,0h0l-.18.08a.4.4,0,0,1-.29-.08l-.15-.16c0-.07.12,0,.22-.05a1.4,1.4,0,0,0,.27-.11h0a1,1,0,0,0,.25-.14l.18-.14s0,.11,0,.21a.45.45,0,0,1-.12.28m-1.26-1.94,0,0,0,0h0l.19-.08a.42.42,0,0,1,.29.08l.15.16c0,.07-.12,0-.22,0a1.09,1.09,0,0,0-.27.11h0a.82.82,0,0,0-.25.14l-.18.14s0-.11,0-.21a.42.42,0,0,1,.11-.28Zm-1-.87c0-.07.13,0,.22-.05a.73.73,0,0,0,.27-.11h0a1.09,1.09,0,0,0,.25-.15l.18-.15a.32.32,0,0,1,0,.22.43.43,0,0,1-.12.27l-.17.12h-.07l-.19.08a.42.42,0,0,1-.29-.08c-.09,0-.15-.12-.15-.16m-1.55,1.68a1.12,1.12,0,1,1,1.5.52,1.13,1.13,0,0,1-1.5-.52m1.36,2.79a1.12,1.12,0,1,1,1.5.51,1.13,1.13,0,0,1-1.5-.51m2.87,3.29a1.12,1.12,0,1,1,.51-1.5,1.13,1.13,0,0,1-.51,1.5m1.72-1.2c0,.07-.12,0-.22.06a.64.64,0,0,0-.27.11h0a1.37,1.37,0,0,0-.25.15l-.18.15a.35.35,0,0,1,0-.23.44.44,0,0,1,.11-.27l.18-.1,0,0,0,0,.18-.07a.43.43,0,0,1,.29.07Zm1.57-1.66a1.12,1.12,0,1,1-1.5-.51,1.12,1.12,0,0,1,1.5.51m-1.88-1.29a1.12,1.12,0,0,1-1.5-.5,1.14,1.14,0,0,1,.51-1.51,1.12,1.12,0,1,1,1,2"/><path class="cls-1" d="M48.63,118.41a1.32,1.32,0,0,0-2.29-.93.42.42,0,0,1-.34,0,.47.47,0,0,1-.23-.28,1.32,1.32,0,0,0-2.29-.94.51.51,0,0,1-.31,0l-.26.61c.12.08.12.29.12.4s0,.55,0,.62l-.06.2v0l0,.05h0l-.1.18-.4.46c-.08.08-.24.23-.37.2l-.25.62A.54.54,0,0,1,42,120a1.32,1.32,0,0,0,2.28,1,.46.46,0,0,1,.36,0,.4.4,0,0,1,.22.25,1.31,1.31,0,0,0,2.27,1,.58.58,0,0,1,.38,0,.44.44,0,0,1,.21.25,1.32,1.32,0,0,0,2.28,1,.57.57,0,0,1,.33-.06l.26-.61c-.13-.08-.13-.3-.13-.41s0-.54,0-.61l.06-.21h0l0,0,0,0h0l.11-.2a5.09,5.09,0,0,1,.41-.45c.07-.09.23-.24.37-.2l.25-.61a.61.61,0,0,1-.19-.29,1.32,1.32,0,0,0-.81-1.25,1.34,1.34,0,0,0-1.49.34.54.54,0,0,1-.33,0,.51.51,0,0,1-.23-.3m-5.21-1.66a1.12,1.12,0,1,1,.61,1.46,1.13,1.13,0,0,1-.61-1.46m2.33,1.37c.14.06.14.3.14.42s0,.54,0,.62l-.06.2h0l0,0v0h0l-.1.18c0,.06-.32.37-.41.46s-.26.26-.4.19h0c-.14-.06-.15-.3-.14-.43s0-.54,0-.61l.06-.2,0,0,0,0h0l.1-.17a5.71,5.71,0,0,1,.42-.47c.07-.09.25-.26.39-.2h0Zm2.86,1.19c.14.06.14.3.14.43s0,.53,0,.6l-.05.2h0l0,0,0,0h0l-.11.18-.4.46c-.09.08-.26.25-.4.19h0c-.14-.07-.15-.3-.15-.42s0-.54.05-.61l0-.21h0l0,0,0,0h0l.11-.18.4-.46c.09-.09.26-.25.4-.2h0Zm.61,1.49,0,0v0l-.09.18a.44.44,0,0,1-.27.14c-.1,0-.19,0-.21,0l.13-.18a1.25,1.25,0,0,0,.13-.26v0h0a.9.9,0,0,0,.09-.28c0-.1,0-.21,0-.22l.17.14a.41.41,0,0,1,.09.28Zm-1.55-1.19-.14.19a1.25,1.25,0,0,0-.13.26v0h0a.75.75,0,0,0-.09.28l0,.23-.16-.15-.09-.28.06-.2v-.06h0l.1-.18a.37.37,0,0,1,.27-.14.36.36,0,0,1,.22,0m-1.25-.2-.06.2v.06l-.1.18A.47.47,0,0,1,46,120c-.1,0-.19,0-.21,0l.12-.19a1,1,0,0,0,.13-.26v0h0a.73.73,0,0,0,.1-.28c0-.09,0-.21,0-.22l.17.14a.46.46,0,0,1,.09.28m-2.22-.63v0l0,0,.09-.18a.33.33,0,0,1,.26-.13c.1,0,.2,0,.22,0l-.13.18a1,1,0,0,0-.13.27h0v0h0a.62.62,0,0,0-.09.27c0,.09,0,.21,0,.22l-.16-.14a.46.46,0,0,1-.1-.28Zm-1.31,0,.13-.19a1,1,0,0,0,.14-.26h0v0a.83.83,0,0,0,.1-.27c0-.1,0-.22,0-.23l.17.14a.39.39,0,0,1,.09.28l-.06.2v0l0,0-.09.19a.46.46,0,0,1-.27.13.29.29,0,0,1-.22,0m-.06,2.29a1.13,1.13,0,0,1-.6-1.47,1.12,1.12,0,0,1,2.07.87,1.14,1.14,0,0,1-1.47.6m2.87,1.19a1.12,1.12,0,1,1,1.46-.6,1.13,1.13,0,0,1-1.46.6m4.32.58a1.12,1.12,0,1,1-.6-1.46,1.12,1.12,0,0,1,.6,1.46m.51-2-.13.19a.63.63,0,0,0-.13.26v0h0a.79.79,0,0,0-.09.29c0,.09,0,.21,0,.22l-.17-.14a.44.44,0,0,1-.1-.28l.07-.2v0l0,0,.09-.18a.46.46,0,0,1,.26-.13c.11,0,.2,0,.23,0m.07-2.28a1.12,1.12,0,1,1-1.46.6,1.13,1.13,0,0,1,1.46-.6m-2.25.28a1.12,1.12,0,1,1-2.07-.87,1.12,1.12,0,0,1,2.07.87"/><path class="cls-1" d="M122.13,91.4l0,0,0,0,.42.26.06-.08.53.33.5-.8-.51-.33,0-.07-.44-.28,0,0,0,0s.32-1-2.81-3c0,0-.28-.2-.46,0S118,89.74,118,89.74s-.13.23,0,.36,1.71,1.15,1.71,1.15a2.22,2.22,0,0,0,2.35.15m-2-.58c-.1-.07-.39-.33.07-.49a1.91,1.91,0,0,1,1.21.26c.12.06.46.47-.13.57a1.4,1.4,0,0,1-1.15-.34"/><path class="cls-1" d="M111.38,112.47l0,0m-.52-.89,0,0,0,0-.42.28"/><path class="cls-1" d="M121,93.05c-.1-.29.27-.72.27-.72a2.67,2.67,0,0,1-.89,0,4.91,4.91,0,0,0-3.26.45,3.14,3.14,0,0,1-.85.21c.36.18.38,1,.39,1.29a3.69,3.69,0,0,0,2.08,2.76c.35.13.29.27.29.27-.23.14-.32.66-.32.66a3,3,0,0,1,.92-.13,2.61,2.61,0,0,0,.9-.13,1.66,1.66,0,0,0-.71-.47c-.08,0-.07-.18,0-.33a3.19,3.19,0,0,0,1.36-2,3.91,3.91,0,0,0-.21-1.88"/><path class="cls-1" d="M110.07,109.15c.24.1.28.55.28.55.06-.19.37-.41.48-.52a3.89,3.89,0,0,0,1.5-2.15,3,3,0,0,1,.35-.6c-.3.12-.81-.34-1-.48a2.9,2.9,0,0,0-2.74-.29c-.27.13-.32,0-.32,0,0-.21-.2-.54-.2-.54a2.8,2.8,0,0,1-.43.6,2.07,2.07,0,0,0-.41.59,1.26,1.26,0,0,0,.65-.15c.06,0,.15.07.18.2a2.57,2.57,0,0,0,.42,1.88,3.23,3.23,0,0,0,1.2.9"/><path class="cls-1" d="M9.42,69.46c.17.28-.13.8-.13.8a2.35,2.35,0,0,1,.92-.18,5.18,5.18,0,0,0,3.32-1.14,3.56,3.56,0,0,1,.84-.38c-.42-.1-.61-1-.66-1.26A3.88,3.88,0,0,0,11,64.82c-.39-.07-.35-.23-.35-.23.21-.19.21-.75.21-.75a3.14,3.14,0,0,1-.94.31,2.7,2.7,0,0,0-.91.32,1.7,1.7,0,0,0,.82.35c.09,0,.11.18,0,.35a3.36,3.36,0,0,0-1,2.37,4.29,4.29,0,0,0,.58,1.92"/><path class="cls-1" d="M68.42,8.19l0,1.23-.44,0-.09.08L68,11l.11.06.43,0,.06,1.24a.34.34,0,0,0,.29.18c.18,0,9.17-.38,9.17-.38a.4.4,0,0,0,.26-.45l0-.59c-.05-1-.12-2.78-.12-2.78V8.05a.41.41,0,0,0-.31-.43L68.69,8c-.18,0-.27.2-.27.2"/><path class="cls-1" d="M118.55,98.12l-1.08-.61.2-.38V97l-1.29-.71-.11.06-.21.38-1.09-.6a.35.35,0,0,0-.3.16c-.08.16-4.43,8-4.43,8a.4.4,0,0,0,.25.45l.52.29,2.43,1.34.18.11a.42.42,0,0,0,.53,0l4.43-8a.31.31,0,0,0,0-.33"/><path class="cls-1" d="M11.94,85.52l.45-.14,0,.16,0,0L13,85.4l0-.05,0-.16.46-.14,0-.13-1.06-3.38a.15.15,0,0,0-.18-.05l-.22.07-1,.31-.08,0c-.14,0-.12.15-.12.15l1.05,3.38Z"/><path class="cls-1" d="M114.88,34.63l.1.12-.15.12.8,1,1.92-1.59-.8-1-.15.12-.1-.12a2.63,2.63,0,0,0,.32-2.14l-2.9-3.51c-.11-.14-.39,0-.39,0l-3.68,3s-.16.25,0,.39l2.9,3.5a2.61,2.61,0,0,0,2.17.09"/><path class="cls-1" d="M125.26,81.93l.06-.14.18.06.43-1.18-2.34-.86L123.16,81l.18.06-.06.15a2.63,2.63,0,0,0-2,.8l-1.56,4.28c-.06.17.17.35.17.35l4.49,1.63s.3,0,.35-.15,1.57-4.28,1.57-4.28a2.61,2.61,0,0,0-1-1.91"/><path class="cls-1" d="M30.43,107.76l-.11-.1.14-.14-.9-.88-1.74,1.78.89.87.14-.13.11.11a2.67,2.67,0,0,0-.1,2.17l3.26,3.18c.12.13.38,0,.38,0l3.34-3.42s.13-.26,0-.38l-3.25-3.19a2.63,2.63,0,0,0-2.17.14"/><path class="cls-1" d="M98.67,17.52l0,0-.05,0-.13.31.6.27.14-.31,0,0,0,0a.69.69,0,0,0,.55-.19l.49-1.11,0-.09L99,15.84l-.1,0L98.42,17a.69.69,0,0,0,.25.53"/><path class="cls-1" d="M72,121.64s.46-.18,1.3.44l5.43-1.18s.21.09.35.59,0,.69,0,.69l-5.2,1.95c-.37,1-.84,1.08-.84,1.08s-4.53,1.4-5.22,1.52a.77.77,0,0,1-.91-.43L66.26,124a.77.77,0,0,1,.52-.86c.65-.27,5.21-1.53,5.21-1.53"/><path class="cls-1" d="M125.91,76.81v.07h0v.58H126v.73h1.1v-.71h.09l0-.61h-.08v0s1.15-.27,1.29-4.6c0,0,0-.39-.32-.44s-3,0-3,0-.3,0-.33.25-.1,2.38-.1,2.38a2.56,2.56,0,0,0,1.26,2.42m-.64-2.34c0-.14.1-.58.54-.22a2.25,2.25,0,0,1,.47,1.36c0,.15-.18.73-.65.21a1.66,1.66,0,0,1-.36-1.35"/><path class="cls-1" d="M79.68,123l-.09,0,0-.07-.81.33.06.17-1,.41.63,1.55,1-.4,0,.13.85-.35,0-.1.07,0s1.05,1.45,7.15-.92c0,0,.56-.2.43-.71s-1.7-4.18-1.7-4.18-.19-.41-.55-.32-3.39,1.26-3.39,1.26a3.89,3.89,0,0,0-2.61,3.2m2.89-2.28c.2-.07.86-.2.62.6s-1.61,1.47-1.61,1.47c-.21.1-1.14.18-.67-.77a2.44,2.44,0,0,1,1.66-1.3"/><path class="cls-1" d="M11.39,62.3v.09h-.08l-.05.88h.19l-.06,1.09,1.66.09.06-1.07h.14l.05-.92h-.11v-.08s1.76-.34,2.2-6.87c0,0,0-.59-.47-.68s-4.51-.24-4.51-.24-.45,0-.52.37-.28,3.6-.28,3.6a3.9,3.9,0,0,0,1.79,3.73m-.85-3.59c0-.21.18-.87.82-.31A3.44,3.44,0,0,1,12,60.49c0,.23-.32,1.1-1,.28a2.46,2.46,0,0,1-.48-2.06"/><path class="cls-1" d="M123.11,73.62v0h0l0,.35.69,0,0-.35h0v0a.82.82,0,0,0,.49-.38l.09-1.27-.07-.08-1.33-.1-.09.06-.09,1.28a.72.72,0,0,0,.42.44"/><path class="cls-1" d="M25.62,108.68c.19.1.18.49.18.49.07-.15.36-.31.46-.4a3.36,3.36,0,0,0,1.49-1.69,2.28,2.28,0,0,1,.35-.48c-.27.07-.66-.37-.78-.5a2.5,2.5,0,0,0-2.31-.51c-.24.09-.28,0-.28,0,.06-.18-.12-.49-.12-.49a2.25,2.25,0,0,1-.42.47,1.9,1.9,0,0,0-.41.47,1,1,0,0,0,.57-.07c.06,0,.12.07.14.19a2.2,2.2,0,0,0,.19,1.65,2.62,2.62,0,0,0,.94.88"/><path class="cls-1" d="M27,104.83l0,0,0,0,.41.42.09-.09.51.51.78-.78-.5-.51.07-.06L28,104l-.05,0-.05,0s.61-1-2.42-4.1c0,0-.27-.29-.54-.07s-2.1,2.13-2.1,2.13a.32.32,0,0,0,0,.41c.16.19,1.65,1.72,1.65,1.72a2.57,2.57,0,0,0,2.62.76m-2.14-1.16c-.1-.1-.35-.47.21-.54a2.26,2.26,0,0,1,1.31.6c.11.1.4.64-.29.61a1.62,1.62,0,0,1-1.23-.67"/><path class="cls-1" d="M22.77,104.64l0,0,0,0L23,105l.52-.47-.24-.26,0,0,0,0a.77.77,0,0,0,.06-.6l-.86-1h-.1l-1,.89v.1l.86,1a.73.73,0,0,0,.6,0"/><path class="cls-1" d="M108.81,26.12l2.55,1.4a1.38,1.38,0,0,0,.93-.67,1,1,0,0,0,.23-.86l-2.08-2a4.73,4.73,0,0,0-1.63,2.14"/><path class="cls-1" d="M56.5,120.06s-3.26-1-3.65-1-.55.37-.55.37-1.33,4-1.43,4.53.51.7.51.7c6.58,2,7.57.37,7.57.37l.08,0,0,.12.92.28.05-.14,1.07.34.53-1.67-1.1-.35.06-.19-.88-.27,0,.07-.1,0a4.09,4.09,0,0,0-3-3.13m1.65,2.2c.56,1-.41,1-.64.87a3.59,3.59,0,0,1-1.82-1.41c-.31-.82.4-.74.61-.68a2.57,2.57,0,0,1,1.85,1.22"/><path class="cls-1" d="M61.27,123.41l0-.56h-.21l0,0,.06-.67,0,0h.2l0-.55.14-.07,4.13.35a.18.18,0,0,1,.11.21l0,.27-.11,1.25v.1c0,.17-.14.18-.14.18l-4.14-.36Z"/><path class="cls-1" d="M122.91,64l.51,6.2a3,3,0,0,0,2.27.87,2,2,0,0,0,1.81-.6l1.13-6.09a10,10,0,0,0-5.72-.38"/><path class="cls-1" d="M42.5,114.83l-5.58-2.75a3,3,0,0,0-1.91,1.5,2,2,0,0,0-.43,1.87l4.65,4.09a9.93,9.93,0,0,0,3.27-4.71"/><path class="cls-1" d="M127.14,53.34s0-.73-1.41-1.47l-1.8-8.07s-.27-.22-1-.1-.94.4-.94.4l.63,8.24c-1.1,1.1-.92,1.82-.92,1.82s.94,7,1.2,8a1.14,1.14,0,0,0,1.16,1l3.48-.52a1.16,1.16,0,0,0,.84-1.24c-.06-1-1.21-8-1.21-8"/><path class="cls-1" d="M21.12,101.19s.51-.23,0,0a1.9,1.9,0,0,1-1,.19A2.41,2.41,0,0,1,19,100.9l-.19-.35.1-.2-.25-.42a.26.26,0,0,0-.26-.09l-.24-.43a.39.39,0,0,0,0-.26L18,98.71h-.21l-.4-.71a.47.47,0,0,0,.1-.21l-.23-.4a.27.27,0,0,0-.22,0l-.38-.66.09-.26L16.46,96l-.27-.06-.43-.76c.1-.12,0-.43,0-.43l-.29-.53s-.39-.06-.78-.86a9.51,9.51,0,0,1-1.13-2.45,15.88,15.88,0,0,1,.34-2.26,1,1,0,0,0-.2-.79l-.24-.1L13.08,87l.06-.24a2.15,2.15,0,0,1,.6-.44l.18-.11A1.91,1.91,0,0,1,14.6,86l.24.07.42.73,0,.26a1,1,0,0,0,.58.58,15.72,15.72,0,0,1,2.11.86,8.91,8.91,0,0,1,1.53,2.23c.49.74.35,1.1.35,1.1l.3.53s.23.2.39.18l.43.77a.44.44,0,0,0-.08.25l.26.46a.87.87,0,0,0,.27.07l.37.64a.31.31,0,0,0-.11.2l.23.4a.37.37,0,0,0,.24,0l.39.7a.31.31,0,0,0-.09.18l.25.45a.32.32,0,0,0,.25.08l.24.43s-.13.15-.06.28l.24.42a.57.57,0,0,0,.23,0l.19.35a2.27,2.27,0,0,1-.15,1.2,2,2,0,0,1-.65.75c-.48.32,0,0,0,0Z"/><path class="cls-1" d="M42,15s.15.54,0,0a1.93,1.93,0,0,1,0-1,2.36,2.36,0,0,1,.64-1l.36-.14.19.12.45-.17a.29.29,0,0,0,.13-.26l.46-.18.24.08.47-.19,0-.19.75-.3.2.12.43-.17,0-.22.7-.28.25.11.48-.19.1-.26.81-.32c.11.11.42.1.42.1l.56-.22s.12-.38,1-.65a9.08,9.08,0,0,1,2.59-.79,18.84,18.84,0,0,1,2.19.63,1,1,0,0,0,.81-.08l.13-.23.78-.31.23.09a2,2,0,0,1,.37.65l.07.19a1.76,1.76,0,0,1,.19.72l-.1.23-.78.32-.25-.08a1,1,0,0,0-.65.5,16.71,16.71,0,0,1-1.14,2,8.92,8.92,0,0,1-2.42,1.21c-.81.39-1.14.2-1.14.2l-.56.23s-.24.2-.24.36l-.81.33s-.14-.13-.24-.12l-.49.19a.61.61,0,0,0-.1.26l-.69.28a.31.31,0,0,0-.19-.13l-.43.17a.39.39,0,0,0-.06.23L47,17a.28.28,0,0,0-.16-.11l-.48.19a.38.38,0,0,0-.12.23l-.45.18a.31.31,0,0,0-.27-.1l-.45.19a.69.69,0,0,0-.05.22l-.37.14a2.4,2.4,0,0,1-1.17-.3,1.9,1.9,0,0,1-.65-.75c-.27-.53,0,0,0,0Z"/><path class="cls-1" d="M13.7,47l-.07.17-.2-.08-.56,1.31,2.54,1.09L16,48.21l-.2-.08.07-.17a2.93,2.93,0,0,0,2.3-.81l2-4.76C20.26,42.2,20,42,20,42l-4.87-2.07s-.33,0-.41.15l-2,4.77a2.92,2.92,0,0,0,1,2.21"/><path class="cls-1" d="M11.06,53.74l4.51-.16A2.09,2.09,0,0,0,16.28,52a1.45,1.45,0,0,0-.37-1.34l-4.37-1a7.21,7.21,0,0,0-.48,4.13"/><path class="cls-1" d="M105.25,114.13l3.59-4.14a2.64,2.64,0,0,0-.85-2,1.79,1.79,0,0,0-1.5-.78l-4.51,3a8.82,8.82,0,0,0,3.27,3.84"/><path class="cls-1" d="M109,26.94c-1.08-1.21-2.37-1.82-2.86-1.37s0,1.79,1,3,2.37,1.82,2.86,1.37,0-1.79-1-3m-2.44-.61a.25.25,0,0,1-.27-.24.26.26,0,0,1,.25-.27.26.26,0,0,1,0,.51m2.8,2.82a10.43,10.43,0,0,0-2.46-2.67l0,0a5.74,5.74,0,0,1,2.43,2.67Zm.42.58a.27.27,0,0,1-.27-.25.26.26,0,0,1,.25-.27.24.24,0,0,1,.26.25.26.26,0,0,1-.24.27"/><path class="cls-1" d="M63.9,124.63c-1.22-.14-2.24.16-2.3.66s.88,1,2.09,1.16,2.24-.15,2.29-.65-.87-1-2.08-1.17m-1.68.88H62v-.28h.27Zm.26-.09v0a4.44,4.44,0,0,1,2.71.3v0a8,8,0,0,0-2.72-.28m3.24.4h-.27v-.28h.27Z"/><path class="cls-1" d="M59.12,11.54l-.08,0c0-.08-.32-.62-.44-.87-.27.73-.77,1.64-.17,2.32a1.35,1.35,0,0,0,1.66.12,3.4,3.4,0,0,1,.59-.19,6.4,6.4,0,0,1-.63-.37c-.1-.08,0-.12,0-.08A4.21,4.21,0,0,0,61.1,13h.16a2.52,2.52,0,1,0-2.61-2.48,3.12,3.12,0,0,0,.47,1m2.94-2.71C62.17,9,62,9,62,9a1.59,1.59,0,0,0-2.31.6l-.1,0a1.65,1.65,0,0,1,2.49-.74m-2.63,3.73a.41.41,0,0,1-.81,0,.41.41,0,0,1,.4-.42.39.39,0,0,1,.41.39"/><path class="cls-1" d="M84,12.7a.62.62,0,0,1-.87.18A.64.64,0,0,1,83,12a.63.63,0,0,1,.87-.18.62.62,0,0,1,.17.87m-.17-.11a.42.42,0,0,0-.7-.47.43.43,0,0,0,.12.59.42.42,0,0,0,.58-.12"/><path class="cls-1" d="M93.7,15.29a.91.91,0,0,1-1.28.26.92.92,0,1,1,1-1.54.92.92,0,0,1,.26,1.28m-.23-.15a.65.65,0,0,0-1.08-.72.66.66,0,0,0,.18.9.65.65,0,0,0,.9-.18"/><path class="cls-1" d="M90.74,12.3c-2.28-1.13-7.47-.89-7.26,0s4.9,2.75,6.9,3.32,2.48-.95,2.48-.95c.22-.57.15-1.29-2.12-2.42m-6.43.26a.27.27,0,0,1-.37.08.26.26,0,0,1-.07-.36.25.25,0,0,1,.36-.08.26.26,0,0,1,.08.36m8.13,2.32A.33.33,0,0,1,92,15a.33.33,0,0,1,.37-.55.33.33,0,0,1,.09.46"/><path class="cls-1" d="M94.2,15.08a.59.59,0,1,1-.17-.8.58.58,0,0,1,.17.8M94,14.93a.31.31,0,0,0-.09-.42.31.31,0,1,0,.09.42"/><path class="cls-1" d="M95.31,16.09l1.49-.53s.24.2.36.08.5-.43.43-.77.09-.82-3.37,0l-.09-.23,2.77-.51a.89.89,0,0,1,1.08.84c.09.79-.7,1.43-2.67,1.17"/><path class="cls-1" d="M102.31,114.23a.71.71,0,1,1,1.42-.12.71.71,0,0,1-1.42.12m.23,0a.5.5,0,0,0,.52.44.48.48,0,0,0,.43-.52.47.47,0,0,0-.51-.44.49.49,0,0,0-.44.52"/><path class="cls-1" d="M91.89,118.77a1.05,1.05,0,0,1,1-1.14,1.05,1.05,0,0,1,.18,2.1,1.05,1.05,0,0,1-1.14-1m.32,0a.73.73,0,1,0,.67-.8.73.73,0,0,0-.67.8"/><path class="cls-1" d="M103.06,114.15c-.86-.69-6.3,1-8.49,1.93S93,118.69,93,118.69c.22.66.79,1.24,3.6.64s7.28-4.5,6.42-5.18m-9.35,4.44a.38.38,0,1,1,.34-.41.38.38,0,0,1-.34.41m8.78-3.78a.28.28,0,0,1-.31-.27.29.29,0,0,1,.27-.32.29.29,0,0,1,.32.27.3.3,0,0,1-.28.32"/><path class="cls-1" d="M91.6,119.3a.67.67,0,0,1,.6-.72.67.67,0,1,1,.11,1.33.66.66,0,0,1-.71-.61m.32,0a.33.33,0,0,0,.37.31.36.36,0,0,0,.32-.38.35.35,0,0,0-.38-.31.34.34,0,0,0-.31.38"/><path class="cls-1" d="M89.89,119.2,89,120.72s-.36,0-.39.19-.13.73.17,1,.5.79,3-2.34l.25.14-2.1,2.41a1,1,0,0,1-1.56,0c-.63-.63-.39-1.76,1.54-2.92"/><path class="cls-1" d="M10.31,72.31a.65.65,0,0,1-.66-.62.64.64,0,0,1,1.27,0,.64.64,0,0,1-.61.65m0-.22a.42.42,0,0,0,.41-.43.44.44,0,0,0-.44-.41.42.42,0,0,0-.4.44.41.41,0,0,0,.43.4"/><path class="cls-1" d="M13.8,81.72a.93.93,0,1,1,.9-1,.94.94,0,0,1-.9,1m0-.28a.65.65,0,0,0,0-1.3.65.65,0,1,0,0,1.3"/><path class="cls-1" d="M14.52,77.55c-.39-2.52-3.61-6.64-4.25-5.91s.59,5.6,1.29,7.58,2.22,1.48,2.22,1.48c.59-.16,1.14-.63.74-3.15m-3.95-5.11a.27.27,0,0,1-.27-.26.27.27,0,1,1,.53,0,.27.27,0,0,1-.26.27m2.83,8a.34.34,0,0,1-.34-.33.34.34,0,1,1,.67,0,.34.34,0,0,1-.33.34"/><path class="cls-1" d="M14.25,82a.58.58,0,0,1-.61-.57.6.6,0,0,1,.57-.6.59.59,0,0,1,.61.57.58.58,0,0,1-.57.6m0-.28a.3.3,0,0,0,.3-.31.31.31,0,0,0-.32-.3.32.32,0,0,0-.3.31.3.3,0,0,0,.32.3"/><path class="cls-1" d="M14.08,83.5l1.29.91s0,.32.15.35.64.16.88-.1.72-.41-1.92-2.78l.14-.22,2,2A.89.89,0,0,1,16.58,85c-.59.53-1.57.26-2.5-1.51"/><path class="cls-1" d="M119.73,46.63l1,4.4.94-.21-1-4.41Zm1.06-.57-.09-.35a.27.27,0,0,0-.31-.2l-.8.18a.27.27,0,0,0-.2.32l.09.36a.27.27,0,0,0,.21.2l1-.23a.29.29,0,0,0,.11-.28m.93,5.73a.38.38,0,0,0-.13-.21h0a.27.27,0,0,0,.21-.32l-.07-.28-.94.22.07.28a.26.26,0,0,0,.31.2h0a.38.38,0,0,0,0,.24.3.3,0,1,0,.57-.13m-.07,0a.3.3,0,0,1,0,.23h0a.64.64,0,0,0,0-.27l0-.11Zm-.43.09,0-.17v.1a1.79,1.79,0,0,0,.1.26h0Zm.2.15a1,1,0,0,1-.1-.23l0-.17.17,0,0,.16a.57.57,0,0,1,0,.25l0,.09h0Z"/><path class="cls-1" d="M69.65,79.42s-.19.48,0,0a1.83,1.83,0,0,1,.54-.75,2.23,2.23,0,0,1,1-.37l.35.1a.51.51,0,0,0,.06.2l.43.14c.14,0,.24-.12.24-.12l.43.13a.34.34,0,0,0,.13.2l.45.14.15-.12.71.22a.37.37,0,0,0,.07.2l.41.12c.1,0,.16-.13.16-.13l.66.2a.56.56,0,0,0,.12.23l.46.13c.09,0,.21-.12.21-.12l.78.23c0,.15.24.31.24.31l.53.17s.3-.2,1.07.09a8.31,8.31,0,0,1,2.32.91,15.13,15.13,0,0,1,1.21,1.73,1,1,0,0,0,.64.4l.24-.08.74.22.1.2a1.58,1.58,0,0,1-.11.68l0,.18a1.93,1.93,0,0,1-.29.63l-.19.1-.75-.22-.14-.2a1,1,0,0,0-.76,0,16.07,16.07,0,0,1-2,.76,8.3,8.3,0,0,1-2.45-.52c-.8-.18-.93-.51-.93-.51L76,84.71s-.29,0-.38.13l-.78-.24-.1-.23-.47-.13-.22.12-.66-.2,0-.2-.42-.13a.56.56,0,0,0-.17.14L72,83.75,72,83.57l-.45-.13-.21.1-.44-.14a.26.26,0,0,0-.14-.22l-.42-.13-.17.13-.35-.1a2.15,2.15,0,0,1-.67-.9,1.72,1.72,0,0,1,0-.92c.11-.53,0,0,0,0Z"/><path class="cls-1" d="M85.92,52.7s.2.57,1.47.85l3.26,6s.26.13.84-.15.66-.52.66-.52l-2.38-6.41c.63-1.13.32-1.66.32-1.66s-2.32-5.34-2.76-6.09a1,1,0,0,0-1.14-.49l-2.65,1.2a1,1,0,0,0-.38,1.18c.28.82,2.76,6.09,2.76,6.09"/><path class="cls-1" d="M68,70.65c-.39-.43.15-.51.15-.51,5,1.46,6-2.71,6.19-3s.3,0,.3,0C72.77,72.39,68.36,71,68,70.65"/><path class="cls-1" d="M102,59.22s.17-.1.09.1C101.6,60.54,99.76,64,94.65,67l-.1,0s5.28-3.81,7.48-7.75"/><path class="cls-1" d="M68.91,80.8a24,24,0,0,1,2.51-1.93c.69-.36,2-1.22,2.07-1.65s-.24-2.15.81-2.79c.86-.47,2.11-1.09,2.48-1.32l.34-.2,0,0,.26-.16.09.29a2.92,2.92,0,0,1,.09.63.64.64,0,0,1-.25.59l-.25-.4a.32.32,0,0,0,0-.19l0-.19-.11.06c-.4.25-1.64.87-2.5,1.33-.65.3-.44,1.75-.58,2.5s-1.58,1.51-2.29,1.93a27,27,0,0,0-2.43,1.88h0Z"/><path class="cls-1" d="M71.7,83.73a3.23,3.23,0,0,1,1-1.19c.53-.27,1.25-.94,1.2-1.27v-.18l.17,0a8.4,8.4,0,0,0,1.58-.83c1.09-.7,2.72-1.72,2.72-1.72h0l.25.4s-1.63,1-2.72,1.71a8.91,8.91,0,0,1-1.55.83c-.14.67-.9,1.19-1.42,1.51a2.72,2.72,0,0,0-.84,1Z"/><path class="cls-1" d="M76.62,62a4.84,4.84,0,0,0-1,.11,3.75,3.75,0,0,1-.54.09c-.32,0-.46-.16-.79-.35a15.42,15.42,0,0,1-2-1c-1.23-.82-1.11-2.23-1.43-4.37a42.7,42.7,0,0,1-.24-5.17c0-.73,0-1.27,0-1.47s-.05-.24-.06-.24l-.07,0h0l-.13-.45.17,0a.55.55,0,0,1,.39.16.77.77,0,0,1,.2.58c0,.2,0,.75,0,1.47a43.33,43.33,0,0,0,.24,5.1c.31,2.22.27,3.46,1.23,4a14.73,14.73,0,0,0,2,1c.39.23.43.28.55.27a2.16,2.16,0,0,0,.45-.06,4.87,4.87,0,0,1,1.07-.12,3.1,3.1,0,0,1,2.42,1l-.35.3A2.66,2.66,0,0,0,76.62,62"/><path class="cls-1" d="M82,55.06a2.54,2.54,0,0,1,.56-1.59,5.16,5.16,0,0,0,1.09-2,30,30,0,0,0,.55-3.25c0-.34,0-.68,0-1,0-.82,0-1.61-.1-2.21l0-.26a5.47,5.47,0,0,1,.2-1.51l.58,0a4.38,4.38,0,0,0-.31,1.46l0,.22c0,.6.1,1.41.1,2.25q0,.53,0,1.05c-.08,1.2-.29,2.89-.36,3.33A18.08,18.08,0,0,1,83,53.76a2.08,2.08,0,0,0-.47,1.3,1.17,1.17,0,0,0,0,.23h0l-.46.09a2.52,2.52,0,0,1,0-.32"/><path class="cls-1" d="M90.82,57.74c-.36-1,0-4.68-.55-5.28a1.06,1.06,0,0,1-.19-.66c0-1.08,1-2.69,1-3.12s-.8-.86-1.57-1.59a13.49,13.49,0,0,0-1.42-1.2l.27-.38a12.63,12.63,0,0,1,1.48,1.25c.63.68,1.65,1,1.71,1.92,0,.73-1,2.25-1,3.12a.59.59,0,0,0,.1.38c.66,1,.27,4.57.61,5.4.35,1,.18,2.57.53,2.83l-.33.33c-.6-.67-.29-2.15-.64-3M88.05,45.89Z"/><path class="cls-1" d="M103.21,66.59c0-.1,0-.19,0-.28a2.68,2.68,0,0,0-.2-1c-.24-.65-.92-3.55-1.26-4.08a4,4,0,0,1-.46-2c0-.47.43-2,.54-2.83a15.48,15.48,0,0,0,.08-1.78c0-.5,0-.88,0-.88h.47v.89a17.58,17.58,0,0,1-.07,1.85c-.13.83-.55,2.46-.54,2.76a3.52,3.52,0,0,0,.38,1.75,41.13,41.13,0,0,1,1.32,4.16,3.57,3.57,0,0,1,.22,1.15,2.88,2.88,0,0,1,0,.32Z"/><path class="cls-1" d="M15.2,24.46l-1.6,1.59a4.71,4.71,0,0,0-3.55-1.61,4.06,4.06,0,0,0-3,1.17A3.85,3.85,0,0,0,5.9,28.45a3.92,3.92,0,0,0,1.24,2.94,4.2,4.2,0,0,0,3.05,1.2,3.74,3.74,0,0,0,2-.49,3.5,3.5,0,0,0,1.31-1.55H10V28.41h6l0,.5a5.88,5.88,0,0,1-.81,3A5.71,5.71,0,0,1,13.14,34a6,6,0,0,1-3,.75A6.83,6.83,0,0,1,6.78,34a6,6,0,0,1-2.31-2.31,6.39,6.39,0,0,1-.85-3.23A6,6,0,0,1,5.19,24.3,6.17,6.17,0,0,1,10,22.21a7.32,7.32,0,0,1,2.92.58,6.64,6.64,0,0,1,2.24,1.67"/><path class="cls-1" d="M16.89,22.51h2.42a7.94,7.94,0,0,1,2.82.36A2.84,2.84,0,0,1,23.5,24,3.66,3.66,0,0,1,24,26a3.27,3.27,0,0,1-.65,2.08,3.4,3.4,0,0,1-1.78,1.16,10.45,10.45,0,0,1-2.4.19v5.06H16.89Zm2.28,4.68h.72a3.9,3.9,0,0,0,1.19-.13,1.06,1.06,0,0,0,.53-.4A1.26,1.26,0,0,0,21.8,26a1.09,1.09,0,0,0-.54-1,3,3,0,0,0-1.45-.24h-.64Z"/><polygon class="cls-1" points="26.14 22.51 28.36 22.51 31.13 30.85 33.93 22.51 36.15 22.51 38.16 34.47 35.95 34.47 34.67 26.92 32.13 34.47 30.12 34.47 27.6 26.92 26.29 34.47 24.07 34.47 26.14 22.51"/><polygon class="cls-1" points="40.05 22.51 42.33 22.51 42.33 32.3 45.65 32.3 45.65 34.47 40.05 34.47 40.05 22.51"/></svg>