<svg width="209" height="221" viewBox="0 0 209 221" fill="none" xmlns="http://www.w3.org/2000/svg">
<circle opacity="0.1" cx="73" cy="129" r="73" fill="#00AAF1"/>
<path d="M204.645 3.33594H92.0285C84.1559 3.34435 76.6081 6.47547 71.0413 12.0423C65.4745 17.6091 62.3434 25.1568 62.335 33.0295L62.335 156.837C62.3442 164.709 65.4755 172.256 71.0422 177.823C76.6088 183.39 84.1561 186.521 92.0285 186.53H99.4559V216.546C99.4555 217.297 99.6779 218.031 100.095 218.656C100.512 219.28 101.105 219.768 101.798 220.056C102.492 220.343 103.256 220.419 103.992 220.273C104.729 220.127 105.406 219.766 105.938 219.236L116.663 208.528L127.383 219.235C127.914 219.765 128.591 220.126 129.328 220.272C130.065 220.418 130.828 220.342 131.522 220.055C132.216 219.767 132.809 219.279 133.226 218.655C133.643 218.03 133.865 217.296 133.865 216.545V186.529H204.645C205.458 186.525 206.247 186.254 206.891 185.759C207.535 185.264 207.999 184.571 208.212 183.787C208.425 183.003 208.375 182.17 208.07 181.417C207.765 180.664 207.221 180.032 206.522 179.617C206.074 179.339 205.642 179.033 205.231 178.701C202.267 176.356 195.248 169.355 195.248 155.486C195.248 140.292 203.726 135.652 205.517 134.839C205.692 134.761 205.825 134.706 205.859 134.691C206.587 134.438 207.218 133.965 207.665 133.337C208.112 132.71 208.352 131.959 208.353 131.188V7.04614C208.353 6.06257 207.963 5.11916 207.267 4.42339C206.572 3.72762 205.629 3.33646 204.645 3.33594V3.33594ZM69.7554 33.0295C69.7626 27.8403 71.5797 22.8162 74.8935 18.823C78.2073 14.8297 82.8103 12.1174 87.9091 11.1536V126.929C80.9139 127.911 74.4874 131.323 69.7554 136.568V33.0295ZM126.268 178.701V207.384L119.346 200.472C118.633 199.762 117.668 199.363 116.661 199.363C115.655 199.363 114.69 199.762 113.977 200.472L107.054 207.384V164.798H126.268V178.701ZM133.867 178.701V161C133.867 159.992 133.466 159.026 132.754 158.313C132.041 157.6 131.075 157.2 130.067 157.2H103.253C102.246 157.2 101.279 157.6 100.567 158.313C99.8542 159.026 99.4539 159.992 99.4539 161V178.701H92.094C86.2776 178.701 80.6993 176.39 76.5865 172.277C72.4736 168.164 70.163 162.586 70.163 156.77C70.163 150.953 72.4736 145.375 76.5865 141.262C80.6993 137.149 86.2776 134.839 92.094 134.839H194.161C190.811 139.09 187.835 145.624 187.835 155.486C187.835 166.294 191.411 173.815 195.07 178.701H133.867ZM200.939 126.603H96.1459V10.7524H200.939V126.603Z" fill="#6DB5B0"/>
<path d="M159.051 83.3303C158.706 83.6745 158.432 84.0834 158.246 84.5336C158.059 84.9837 157.963 85.4662 157.963 85.9535C157.963 86.4409 158.059 86.9234 158.246 87.3735C158.432 87.8237 158.706 88.2326 159.051 88.5768L176.17 105.696C176.866 106.392 177.81 106.782 178.794 106.782C179.778 106.782 180.721 106.391 181.417 105.695C182.113 104.999 182.504 104.056 182.503 103.072C182.503 102.088 182.112 101.144 181.416 100.448L164.298 83.3303C163.953 82.9854 163.544 82.7117 163.094 82.525C162.644 82.3383 162.162 82.2422 161.674 82.2422C161.187 82.2422 160.704 82.3383 160.254 82.525C159.804 82.7117 159.395 82.9854 159.051 83.3303Z" fill="#6DB5B0"/>
<path d="M140.004 87.6286C144.619 87.6286 149.131 86.26 152.969 83.696C156.806 81.1319 159.798 77.4875 161.564 73.2234C163.331 68.9594 163.793 64.2673 162.894 59.7405C161.994 55.2136 159.772 51.0552 156.508 47.7911C153.245 44.5269 149.088 42.3037 144.561 41.4024C140.034 40.5011 135.342 40.9623 131.078 42.7276C126.813 44.4929 123.168 47.4831 120.603 51.3201C118.037 55.157 116.667 59.6684 116.666 64.2839C116.673 70.4719 119.134 76.4043 123.509 80.7805C127.884 85.1567 133.816 87.6194 140.004 87.6286ZM140.004 48.3636C143.153 48.3632 146.232 49.2968 148.85 51.0462C151.469 52.7956 153.51 55.2823 154.716 58.1918C155.921 61.1013 156.236 64.3029 155.622 67.3917C155.008 70.4805 153.491 73.3178 151.264 75.5447C149.038 77.7716 146.2 79.2881 143.112 79.9024C140.023 80.5167 136.821 80.2012 133.912 78.9958C131.002 77.7904 128.515 75.7493 126.766 73.1306C125.017 70.5119 124.083 67.4332 124.083 64.2839C124.089 60.0634 125.768 56.0173 128.753 53.0329C131.737 50.0486 135.783 48.3694 140.004 48.3636Z" fill="#6DB5B0"/>
<g opacity="0.4">
<path d="M201.311 0H88.6935C80.8209 0.00841207 73.2731 3.13953 67.7063 8.70633C62.1395 14.2731 59.0084 21.8209 59 29.6935L59 153.501C59.0092 161.373 62.1406 168.92 67.7072 174.487C73.2738 180.054 80.8211 183.185 88.6935 183.194H96.1209V213.21C96.1206 213.961 96.3429 214.695 96.7599 215.32C97.1768 215.945 97.7696 216.432 98.4633 216.72C99.1571 217.008 99.9206 217.083 100.657 216.937C101.394 216.792 102.071 216.43 102.603 215.9L113.328 205.192L124.048 215.899C124.579 216.429 125.256 216.791 125.993 216.936C126.73 217.082 127.493 217.007 128.187 216.719C128.881 216.431 129.474 215.944 129.891 215.319C130.308 214.694 130.53 213.96 130.53 213.209V183.193H201.311C202.123 183.189 202.912 182.919 203.556 182.423C204.2 181.928 204.664 181.235 204.877 180.451C205.09 179.667 205.04 178.834 204.735 178.081C204.43 177.328 203.886 176.696 203.187 176.281C202.739 176.003 202.307 175.697 201.896 175.365C198.932 173.02 191.913 166.019 191.913 152.15C191.913 136.956 200.391 132.316 202.182 131.503C202.357 131.425 202.49 131.37 202.524 131.355C203.252 131.102 203.883 130.629 204.33 130.002C204.777 129.374 205.017 128.623 205.018 127.852V3.7102C205.018 2.72663 204.628 1.78323 203.932 1.08746C203.237 0.391686 202.294 0.000526643 201.311 0V0ZM66.4204 29.6935C66.4276 24.5044 68.2447 19.4803 71.5586 15.487C74.8724 11.4938 79.4753 8.78151 84.5742 7.81765V123.593C77.579 124.575 71.1524 127.987 66.4204 133.232V29.6935ZM122.933 175.365V204.048L116.011 197.136C115.298 196.426 114.333 196.027 113.326 196.027C112.32 196.027 111.355 196.426 110.642 197.136L103.719 204.048V161.462H122.933V175.365ZM130.532 175.365V157.664C130.532 156.656 130.131 155.69 129.419 154.977C128.706 154.265 127.74 153.864 126.732 153.864H99.9185C98.9108 153.864 97.9443 154.265 97.2318 154.977C96.5192 155.69 96.1189 156.656 96.1189 157.664V175.365H88.7591C82.9426 175.365 77.3644 173.054 73.2515 168.941C69.1387 164.828 66.8281 159.25 66.8281 153.434C66.8281 147.617 69.1387 142.039 73.2515 137.926C77.3644 133.813 82.9426 131.503 88.7591 131.503H190.826C187.476 135.754 184.5 142.288 184.5 152.15C184.5 162.958 188.076 170.479 191.735 175.365H130.532ZM197.604 123.267H92.8109V7.41643H197.604V123.267Z" fill="#8691B0"/>
<path d="M155.716 79.9943C155.371 80.3386 155.097 80.7475 154.911 81.1976C154.724 81.6477 154.628 82.1303 154.628 82.6176C154.628 83.1049 154.724 83.5875 154.911 84.0376C155.097 84.4877 155.371 84.8966 155.716 85.2409L172.835 102.36C173.531 103.056 174.475 103.446 175.459 103.446C176.443 103.446 177.386 103.055 178.082 102.359C178.778 101.663 179.169 100.72 179.168 99.7357C179.168 98.7517 178.777 97.8081 178.082 97.1123L160.963 79.9943C160.618 79.6494 160.209 79.3758 159.759 79.1891C159.309 79.0024 158.827 78.9062 158.339 78.9062C157.852 78.9062 157.369 79.0024 156.919 79.1891C156.469 79.3758 156.06 79.6494 155.716 79.9943Z" fill="#8691B0"/>
<path d="M136.669 84.2927C141.284 84.2927 145.796 82.9241 149.634 80.36C153.472 77.796 156.463 74.1515 158.229 69.8875C159.996 65.6235 160.459 60.9314 159.559 56.4045C158.659 51.8776 156.437 47.7192 153.174 44.4551C149.91 41.191 145.753 38.9678 141.226 38.0665C136.699 37.1652 132.007 37.6264 127.743 39.3917C123.478 41.157 119.833 44.1472 117.268 47.9841C114.702 51.8211 113.332 56.3325 113.331 60.948C113.338 67.1359 115.799 73.0684 120.174 77.4446C124.549 81.8208 130.481 84.2835 136.669 84.2927ZM136.669 45.0277C139.818 45.0273 142.897 45.9608 145.515 47.7102C148.134 49.4596 150.175 51.9464 151.381 54.8559C152.586 57.7654 152.902 60.967 152.287 64.0558C151.673 67.1446 150.156 69.9818 147.93 72.2087C145.703 74.4356 142.865 75.9521 139.777 76.5664C136.688 77.1807 133.486 76.8652 130.577 75.6599C127.667 74.4545 125.18 72.4134 123.431 69.7947C121.682 67.176 120.748 64.0973 120.748 60.948C120.754 56.7274 122.433 52.6814 125.418 49.697C128.402 46.7126 132.448 45.0335 136.669 45.0277Z" fill="#8691B0"/>
</g>
</svg>
