<svg width="321" height="204" viewBox="0 0 321 204" fill="none" xmlns="http://www.w3.org/2000/svg">
<circle cx="160.09" cy="104.078" r="82.16" fill="#ACA4FF"/>
<path fill-rule="evenodd" clip-rule="evenodd" d="M259.487 138.635C258.722 138.953 257.844 138.589 257.527 137.824C257.21 137.059 257.573 136.181 258.338 135.864C261.177 134.687 263.828 133.145 266.233 131.297C266.89 130.793 267.831 130.916 268.336 131.573C268.841 132.23 268.718 133.171 268.061 133.676C265.451 135.682 262.572 137.356 259.487 138.635ZM275.063 126.674C274.558 127.331 273.616 127.454 272.96 126.949C272.303 126.445 272.179 125.503 272.684 124.846C274.532 122.442 276.073 119.79 277.251 116.951C277.568 116.186 278.446 115.823 279.211 116.14C279.976 116.457 280.339 117.335 280.022 118.1C278.743 121.185 277.069 124.064 275.063 126.674ZM282.581 108.531C282.474 109.353 281.721 109.932 280.899 109.825C280.078 109.718 279.499 108.965 279.606 108.143C279.801 106.65 279.901 105.126 279.901 103.578C279.901 102.031 279.801 100.507 279.606 99.0135C279.499 98.1921 280.078 97.4393 280.899 97.3321C281.721 97.225 282.474 97.804 282.581 98.6255C282.792 100.247 282.901 101.9 282.901 103.578C282.901 105.256 282.792 106.91 282.581 108.531ZM280.022 89.0566C280.339 89.8218 279.976 90.6994 279.211 91.0167C278.446 91.3341 277.568 90.971 277.251 90.2057C276.073 87.3663 274.532 84.7152 272.684 82.3107C272.179 81.6539 272.303 80.7122 272.96 80.2074C273.616 79.7026 274.558 79.8259 275.063 80.4828C277.069 83.0927 278.743 85.9717 280.022 89.0566ZM268.061 73.4807C268.718 73.9855 268.841 74.9272 268.336 75.5841C267.831 76.241 266.89 76.3643 266.233 75.8595C263.828 74.0117 261.177 72.4702 258.338 71.2928C257.573 70.9755 257.21 70.0979 257.527 69.3326C257.844 68.5674 258.722 68.2043 259.487 68.5216C262.572 69.8009 265.451 71.4751 268.061 73.4807Z" fill="#7468FF"/>
<path fill-rule="evenodd" clip-rule="evenodd" d="M61.5129 68.5137C62.2782 68.1964 63.1558 68.5595 63.4731 69.3247C63.7904 70.09 63.4273 70.9676 62.6621 71.2849C59.8227 72.4624 57.1716 74.0039 54.7671 75.8516C54.1102 76.3564 53.1685 76.2331 52.6637 75.5762C52.1589 74.9193 52.2822 73.9776 52.9391 73.4729C55.5491 71.4672 58.428 69.793 61.5129 68.5137ZM45.9371 80.4749C46.4419 79.818 47.3836 79.6947 48.0405 80.1995C48.6973 80.7043 48.8206 81.646 48.3158 82.3029C46.4681 84.7073 44.9266 87.3585 43.7491 90.1978C43.4318 90.9631 42.5542 91.3262 41.789 91.0089C41.0237 90.6915 40.6606 89.8139 40.978 89.0487C42.2572 85.9638 43.9314 83.0848 45.9371 80.4749ZM38.4193 98.6176C38.5265 97.7962 39.2793 97.2171 40.1007 97.3242C40.9222 97.4314 41.5013 98.1842 41.3941 99.0057C41.1993 100.499 41.0988 102.023 41.0988 103.571C41.0988 105.118 41.1993 106.642 41.3941 108.135C41.5013 108.957 40.9222 109.71 40.1007 109.817C39.2793 109.924 38.5265 109.345 38.4193 108.523C38.2078 106.902 38.0988 105.248 38.0988 103.571C38.0988 101.893 38.2078 100.239 38.4193 98.6176ZM40.978 118.092C40.6606 117.327 41.0237 116.45 41.789 116.132C42.5542 115.815 43.4318 116.178 43.7491 116.943C44.9266 119.783 46.4681 122.434 48.3158 124.838C48.8206 125.495 48.6973 126.437 48.0404 126.942C47.3836 127.446 46.4419 127.323 45.9371 126.666C43.9314 124.056 42.2572 121.177 40.978 118.092ZM52.9391 133.668C52.2822 133.163 52.1589 132.222 52.6637 131.565C53.1685 130.908 54.1102 130.785 54.7671 131.289C57.1716 133.137 59.8227 134.679 62.6621 135.856C63.4273 136.173 63.7904 137.051 63.4731 137.816C63.1557 138.582 62.2781 138.945 61.5129 138.627C58.428 137.348 55.5491 135.674 52.9391 133.668Z" fill="#7468FF"/>
<rect x="97.0684" y="101.192" width="89.0077" height="89.0077" rx="44.5039" transform="rotate(-45 97.0684 101.192)" fill="white"/>
<circle cx="160.261" cy="21.5" r="21.0737" fill="#7468FF"/>
<path d="M167.898 30.457C167.898 29.0615 167.898 28.3637 167.726 27.7959C167.338 26.5175 166.338 25.5171 165.06 25.1293C164.492 24.957 163.794 24.957 162.398 24.957H157.398C156.003 24.957 155.305 24.957 154.737 25.1293C153.459 25.5171 152.458 26.5175 152.071 27.7959C151.898 28.3637 151.898 29.0615 151.898 30.457M164.398 16.957C164.398 19.4423 162.384 21.457 159.898 21.457C157.413 21.457 155.398 19.4423 155.398 16.957C155.398 14.4717 157.413 12.457 159.898 12.457C162.384 12.457 164.398 14.4717 164.398 16.957Z" stroke="white" stroke-width="2" stroke-linecap="round" stroke-linejoin="round"/>
<circle cx="160.261" cy="182.5" r="21.0737" fill="#7468FF"/>
<path d="M167.898 191.457C167.898 190.061 167.898 189.364 167.726 188.796C167.338 187.517 166.338 186.517 165.06 186.129C164.492 185.957 163.794 185.957 162.398 185.957H157.398C156.003 185.957 155.305 185.957 154.737 186.129C153.459 186.517 152.458 187.517 152.071 188.796C151.898 189.364 151.898 190.061 151.898 191.457M164.398 177.957C164.398 180.442 162.384 182.457 159.898 182.457C157.413 182.457 155.398 180.442 155.398 177.957C155.398 175.472 157.413 173.457 159.898 173.457C162.384 173.457 164.398 175.472 164.398 177.957Z" stroke="white" stroke-width="2" stroke-linecap="round" stroke-linejoin="round"/>
<circle cx="242.261" cy="104.5" r="21.0737" fill="#7468FF"/>
<path d="M249.898 113.457C249.898 112.061 249.898 111.364 249.726 110.796C249.338 109.517 248.338 108.517 247.06 108.129C246.492 107.957 245.794 107.957 244.398 107.957H239.398C238.003 107.957 237.305 107.957 236.737 108.129C235.459 108.517 234.458 109.517 234.071 110.796C233.898 111.364 233.898 112.061 233.898 113.457M246.398 99.957C246.398 102.442 244.384 104.457 241.898 104.457C239.413 104.457 237.398 102.442 237.398 99.957C237.398 97.4717 239.413 95.457 241.898 95.457C244.384 95.457 246.398 97.4717 246.398 99.957Z" stroke="white" stroke-width="2" stroke-linecap="round" stroke-linejoin="round"/>
<circle cx="78.2612" cy="104.5" r="21.0737" fill="#7468FF"/>
<path d="M85.8984 113.457C85.8984 112.061 85.8984 111.364 85.7262 110.796C85.3384 109.517 84.338 108.517 83.0596 108.129C82.4918 107.957 81.794 107.957 80.3984 107.957H75.3984C74.0029 107.957 73.3051 107.957 72.7373 108.129C71.4589 108.517 70.4585 109.517 70.0707 110.796C69.8984 111.364 69.8984 112.061 69.8984 113.457M82.3984 99.957C82.3984 102.442 80.3837 104.457 77.8984 104.457C75.4132 104.457 73.3984 102.442 73.3984 99.957C73.3984 97.4717 75.4132 95.457 77.8984 95.457C80.3837 95.457 82.3984 97.4717 82.3984 99.957Z" stroke="white" stroke-width="2" stroke-linecap="round" stroke-linejoin="round"/>
<circle cx="186.153" cy="30.3919" r="13.9656" fill="#00F1BF"/>
<path d="M185.939 22.7743C186.117 22.2449 186.866 22.2449 187.043 22.7743L188.514 27.1645C188.594 27.4017 188.816 27.5615 189.066 27.5615H193.787C194.355 27.5615 194.587 28.2921 194.122 28.6193L190.334 31.2884C190.124 31.4365 190.035 31.7052 190.117 31.949L191.572 36.2893C191.75 36.8224 191.144 37.2737 190.685 36.95L186.826 34.2318C186.625 34.0902 186.357 34.0902 186.156 34.2318L182.298 36.95C181.838 37.2737 181.232 36.8224 181.411 36.2893L182.865 31.949C182.947 31.7052 182.859 31.4365 182.649 31.2884L178.86 28.6193C178.396 28.2921 178.627 27.5615 179.195 27.5615H183.917C184.167 27.5615 184.389 27.4017 184.468 27.1645L185.939 22.7743Z" fill="#7468FF"/>
</svg>
