<svg width="321" height="166" viewBox="0 0 321 166" fill="none" xmlns="http://www.w3.org/2000/svg">
<path d="M44.5 22.7495C47.2999 23.1746 173.327 23.0124 253.497 22.8294C270.886 22.7898 285 36.873 285 54.2624V54.2624C285 71.6176 270.931 85.6867 253.576 85.6867H67.0317C49.8934 85.6867 36 99.5801 36 116.718V116.718C36 133.857 49.8934 147.75 67.0317 147.75H285" stroke="#7468FF" stroke-width="3" stroke-miterlimit="1.5" stroke-linecap="round" stroke-linejoin="round" stroke-dasharray="9.57 9.57"/>
<circle cx="76.5" cy="21.25" r="20.5" fill="#00F1BF"/>
<path d="M67.957 20.6291L75.2785 28.0837L85.0404 14.417" stroke="#7468FF" stroke-width="3" stroke-miterlimit="1.5" stroke-linecap="round" stroke-linejoin="round"/>
<circle cx="187.5" cy="21.25" r="20.5" fill="#00F1BF"/>
<path d="M178.957 20.6291L186.278 28.0837L196.04 14.417" stroke="#7468FF" stroke-width="3" stroke-miterlimit="1.5" stroke-linecap="round" stroke-linejoin="round"/>
<circle cx="255.5" cy="85.25" r="20.5" fill="#00F1BF"/>
<path d="M246.957 84.6291L254.278 92.0837L264.04 78.417" stroke="#7468FF" stroke-width="3" stroke-miterlimit="1.5" stroke-linecap="round" stroke-linejoin="round"/>
<circle cx="196.5" cy="145.75" r="18.5" fill="#ACA4FF" stroke="#7468FF" stroke-width="3" stroke-miterlimit="1.5" stroke-linejoin="round"/>
<circle cx="78.5" cy="145.75" r="18.5" fill="#ACA4FF" stroke="#7468FF" stroke-width="3" stroke-miterlimit="1.5" stroke-linejoin="round"/>
<circle cx="132.5" cy="84.25" r="18.5" fill="#ACA4FF" stroke="#7468FF" stroke-width="3" stroke-miterlimit="1.5" stroke-linejoin="round"/>
</svg>
