<svg width="321" height="191" viewBox="0 0 321 191" fill="none" xmlns="http://www.w3.org/2000/svg">
<path d="M254.849 173.439L213.425 132.016C223.109 119.444 228.884 103.709 228.884 86.6522C228.884 78.051 227.409 69.7878 224.722 62.0928C224.637 61.8547 224.56 61.6244 224.476 61.394C224.361 61.0714 224.238 60.7489 224.115 60.434C220.421 50.5427 214.608 41.3656 206.82 33.5785C192.636 19.4019 173.79 11.5918 153.739 11.5918C133.688 11.5918 114.842 19.4019 100.665 33.5785C86.4889 47.755 78.6787 66.6007 78.6787 86.6522C78.6787 106.704 86.4889 125.549 100.665 139.726C127.221 166.282 169.428 169.093 199.179 146.407L240.526 187.762C242.5 189.735 245.096 190.718 247.684 190.718C250.272 190.718 252.867 189.728 254.841 187.762C258.788 183.814 258.788 177.394 254.841 173.447L254.849 173.439Z" fill="#ACA4FF"/>
<circle cx="154.386" cy="86.8105" r="51.3672" fill="#FAFBFF"/>
<path fill-rule="evenodd" clip-rule="evenodd" d="M71.3527 111.059C71.7462 112.436 72.1707 113.796 72.6254 115.138C72.8912 115.923 73.7427 116.343 74.5274 116.078C75.312 115.812 75.7326 114.96 75.4668 114.176C75.0277 112.879 74.6175 111.565 74.2373 110.234C73.8571 108.904 73.5112 107.571 73.1991 106.239C73.0102 105.432 72.2033 104.931 71.3966 105.12C70.59 105.309 70.0892 106.116 70.2781 106.922C70.6012 108.302 70.9592 109.681 71.3527 111.059ZM68.738 98.5176C68.8473 99.3388 69.6015 99.9159 70.4227 99.8067C71.2439 99.6974 71.8211 98.9432 71.7118 98.122C71.3463 95.3737 71.1199 92.6306 71.0282 89.901C71.0004 89.0731 70.3067 88.4244 69.4787 88.4522C68.6507 88.4801 68.0021 89.1738 68.0299 90.0018C68.1249 92.8296 68.3594 95.671 68.738 98.5176ZM78.492 121.853C78.1509 121.098 77.2624 120.762 76.5074 121.104C75.7525 121.445 75.417 122.333 75.758 123.088C76.9403 125.705 78.2424 128.241 79.6556 130.693C80.0694 131.41 80.9867 131.657 81.7044 131.243C82.422 130.829 82.6684 129.912 82.2546 129.194C80.8904 126.828 79.6335 124.38 78.492 121.853ZM68.1657 81.4576C68.1116 82.2842 68.7378 82.9982 69.5645 83.0523C70.3912 83.1064 71.1052 82.4802 71.1593 81.6535C71.3397 78.8964 71.6563 76.162 72.1041 73.4591C72.2395 72.6418 71.6867 71.8695 70.8694 71.7341C70.0521 71.5987 69.2798 72.1515 69.1444 72.9688C68.6806 75.7686 68.3526 78.6012 68.1657 81.4576ZM86.723 136.128C86.2403 135.454 85.3032 135.3 84.6299 135.782C83.9566 136.265 83.8021 137.202 84.2848 137.875C85.9525 140.202 87.7274 142.434 89.6003 144.566C90.1471 145.188 91.0948 145.25 91.7172 144.703C92.3396 144.156 92.401 143.208 91.8542 142.586C90.0462 140.528 88.3328 138.373 86.723 136.128ZM97.597 148.508C96.9917 147.943 96.0425 147.975 95.4768 148.58C94.9112 149.185 94.9433 150.134 95.5485 150.7C97.6344 152.649 99.8111 154.492 102.069 156.221C102.727 156.725 103.668 156.6 104.172 155.942C104.676 155.285 104.551 154.343 103.893 153.839C101.713 152.169 99.611 150.391 97.597 148.508ZM110.681 158.53C109.977 158.093 109.052 158.309 108.615 159.013C108.178 159.716 108.394 160.641 109.098 161.078C111.518 162.582 114.011 163.967 116.566 165.228C117.309 165.594 118.208 165.289 118.575 164.546C118.942 163.803 118.636 162.904 117.893 162.537C115.426 161.32 113.018 159.982 110.681 158.53ZM125.462 165.822C124.687 165.53 123.822 165.921 123.529 166.696C123.237 167.471 123.628 168.337 124.404 168.629C127.065 169.633 129.779 170.508 132.536 171.249C133.336 171.464 134.159 170.99 134.374 170.19C134.589 169.39 134.115 168.567 133.315 168.352C130.653 167.636 128.032 166.791 125.462 165.822ZM141.377 170.099C140.56 169.964 139.787 170.516 139.652 171.334C139.517 172.151 140.069 172.923 140.887 173.059C143.686 173.522 146.519 173.85 149.375 174.037C150.202 174.091 150.916 173.465 150.97 172.639C151.024 171.812 150.398 171.098 149.571 171.044C146.814 170.863 144.08 170.547 141.377 170.099ZM157.819 171.175C156.991 171.203 156.342 171.896 156.37 172.724C156.398 173.552 157.092 174.201 157.92 174.173C160.747 174.078 163.589 173.844 166.435 173.465C167.257 173.356 167.834 172.602 167.724 171.78C167.615 170.959 166.861 170.382 166.04 170.491C163.292 170.857 160.548 171.083 157.819 171.175ZM160.745 0.24786C159.919 0.193746 159.205 0.820026 159.151 1.64668C159.097 2.47333 159.723 3.18734 160.55 3.24145C163.307 3.42194 166.041 3.73852 168.744 4.18628C169.561 4.32167 170.334 3.76889 170.469 2.95159C170.604 2.13431 170.052 1.36201 169.234 1.22662C166.434 0.762804 163.602 0.434841 160.745 0.24786ZM177.585 3.03639C176.785 2.82134 175.962 3.29555 175.747 4.09557C175.532 4.8956 176.006 5.71848 176.806 5.93353C179.468 6.64915 182.089 7.49406 184.659 8.46318C185.434 8.75549 186.299 8.36408 186.592 7.58893C186.884 6.81378 186.493 5.94844 185.717 5.65614C183.056 4.65256 180.342 3.77754 177.585 3.03639ZM193.555 9.05767C192.812 8.69114 191.912 8.99627 191.546 9.73921C191.179 10.4821 191.484 11.3815 192.227 11.7481C194.695 12.9656 197.103 14.303 199.44 15.7551C200.144 16.1923 201.069 15.9762 201.506 15.2726C201.943 14.5689 201.727 13.644 201.023 13.2068C198.603 11.7032 196.11 10.3184 193.555 9.05767ZM208.052 18.0643C207.394 17.5605 206.453 17.6854 205.949 18.343C205.445 19.0007 205.57 19.9423 206.228 20.446C208.408 22.116 210.51 23.8947 212.524 25.777C213.129 26.3427 214.078 26.3106 214.644 25.7053C215.21 25.1001 215.178 24.1509 214.572 23.5852C212.486 21.6357 210.31 19.7937 208.052 18.0643ZM238.017 100.826C237.881 101.643 238.434 102.416 239.251 102.551C240.069 102.687 240.841 102.134 240.976 101.316C241.44 98.5167 241.768 95.684 241.955 92.8277C242.009 92.001 241.383 91.287 240.556 91.2329C239.73 91.1788 239.016 91.8051 238.962 92.6317C238.781 95.3889 238.465 98.1233 238.017 100.826ZM220.521 29.7194C219.974 29.0969 219.026 29.0356 218.404 29.5823C217.781 30.1291 217.72 31.0768 218.267 31.6992C220.075 33.7576 221.788 35.912 223.398 38.1576C223.881 38.8309 224.818 38.9855 225.491 38.5028C226.164 38.0202 226.319 37.0831 225.836 36.4098C224.168 34.0834 222.393 31.8515 220.521 29.7194ZM239.093 84.3842C239.12 85.2122 239.814 85.8608 240.642 85.833C241.47 85.8052 242.119 85.1114 242.091 84.2835C241.996 81.4557 241.761 78.6142 241.383 75.7677C241.274 74.9465 240.519 74.3693 239.698 74.4786C238.877 74.5878 238.3 75.3421 238.409 76.1633C238.775 78.9115 239.001 81.6546 239.093 84.3842ZM230.465 43.5926C230.051 42.8749 229.134 42.6286 228.417 43.0424C227.699 43.4561 227.452 44.3734 227.866 45.0911C229.23 47.4571 230.487 49.9057 231.629 52.4323C231.97 53.1873 232.858 53.5228 233.613 53.1817C234.368 52.8406 234.704 51.9521 234.363 51.1972C233.181 48.5802 231.878 46.0438 230.465 43.5926ZM236.922 68.0467C237.111 68.8533 237.918 69.3541 238.724 69.1653C239.531 68.9764 240.032 68.1694 239.843 67.3628C239.52 65.9829 239.162 64.6038 238.768 63.2266C238.375 61.8494 237.95 60.4894 237.495 59.147C237.23 58.3624 236.378 57.9418 235.594 58.2076C234.809 58.4733 234.388 59.3249 234.654 60.1095C235.093 61.4061 235.503 62.72 235.884 64.0508C236.264 65.3815 236.61 66.7138 236.922 68.0467Z" fill="#7468FF"/>
<mask id="mask0_2216_5072" style="mask-type:alpha" maskUnits="userSpaceOnUse" x="103" y="35" width="103" height="104">
<circle cx="154.382" cy="86.811" r="51.3672" fill="#FAFBFF"/>
</mask>
<g mask="url(#mask0_2216_5072)">
<path d="M126.798 138.529V138.913C122.37 137.995 112.519 132.524 110.798 130.127V78.3892H126.798V138.529Z" fill="#00F1BF"/>
<path d="M150.798 138.906C146.032 138.792 137.096 136.302 134.798 135.1V82.7075H150.798V138.913V138.906Z" fill="#00F1BF"/>
<path d="M174.791 137.913V138.389C169.815 139.321 164.556 138.887 159.545 138.041L158.798 137.913V67.8193H174.798V137.913H174.791Z" fill="#00F1BF"/>
<path d="M198.74 135.235C198.493 135.228 198.952 135.135 198.74 135.235V97.499H182.798V138.913C187.546 138.458 195.539 136.715 198.74 135.235Z" fill="#00F1BF"/>
</g>
<circle cx="223.561" cy="42.3242" r="21.0737" fill="#7468FF"/>
<path d="M231.198 51.2812C231.198 49.8857 231.198 49.1879 231.026 48.6201C230.638 47.3417 229.638 46.3413 228.359 45.9535C227.792 45.7812 227.094 45.7812 225.698 45.7812H220.698C219.303 45.7812 218.605 45.7812 218.037 45.9535C216.759 46.3413 215.758 47.3417 215.37 48.6201C215.198 49.1879 215.198 49.8857 215.198 51.2812M227.698 37.7812C227.698 40.2665 225.684 42.2812 223.198 42.2812C220.713 42.2812 218.698 40.2665 218.698 37.7812C218.698 35.296 220.713 33.2812 223.198 33.2812C225.684 33.2812 227.698 35.296 227.698 37.7812Z" stroke="white" stroke-width="2" stroke-linecap="round" stroke-linejoin="round"/>
<circle cx="91.272" cy="42.3242" r="21.0737" fill="#7468FF"/>
<path d="M98.9092 51.2812C98.9092 49.8857 98.9092 49.1879 98.7369 48.6201C98.3491 47.3417 97.3487 46.3413 96.0703 45.9535C95.5025 45.7812 94.8047 45.7812 93.4092 45.7812H88.4092C87.0136 45.7812 86.3158 45.7812 85.748 45.9535C84.4696 46.3413 83.4692 47.3417 83.0814 48.6201C82.9092 49.1879 82.9092 49.8857 82.9092 51.2812M95.4092 37.7812C95.4092 40.2665 93.3945 42.2812 90.9092 42.2812C88.4239 42.2812 86.4092 40.2665 86.4092 37.7812C86.4092 35.296 88.4239 33.2812 90.9092 33.2812C93.3945 33.2812 95.4092 35.296 95.4092 37.7812Z" stroke="white" stroke-width="2" stroke-linecap="round" stroke-linejoin="round"/>
<circle cx="168.272" cy="166.355" r="21.0737" fill="#7468FF"/>
<path d="M175.909 175.312C175.909 173.916 175.909 173.219 175.737 172.651C175.349 171.372 174.349 170.372 173.07 169.984C172.503 169.812 171.805 169.812 170.409 169.812H165.409C164.014 169.812 163.316 169.812 162.748 169.984C161.47 170.372 160.469 171.372 160.081 172.651C159.909 173.219 159.909 173.916 159.909 175.312M172.409 161.812C172.409 164.297 170.394 166.312 167.909 166.312C165.424 166.312 163.409 164.297 163.409 161.812C163.409 159.327 165.424 157.312 167.909 157.312C170.394 157.312 172.409 159.327 172.409 161.812Z" stroke="white" stroke-width="2" stroke-linecap="round" stroke-linejoin="round"/>
</svg>
