<svg width="321" height="160" viewBox="0 0 321 160" fill="none" xmlns="http://www.w3.org/2000/svg">
<path d="M282.315 142.093H208.845L117.12 117.75L38.6855 142.093L59.1344 92.6269L124.401 72.373L200.728 92.6269H261.86L282.315 142.093Z" fill="#ACA4FF"/>
<path d="M119.954 3.15186H105.231C104.292 3.15186 103.531 3.91301 103.531 4.85195V104.589C103.531 105.528 104.292 106.289 105.231 106.289H119.954C120.893 106.289 121.654 105.528 121.654 104.589V4.85195C121.654 3.91301 120.893 3.15186 119.954 3.15186Z" fill="#00F1BF"/>
<path d="M121.654 52.4395H103.531V106.291H121.654V52.4395Z" fill="#7468FF"/>
<path d="M121.654 52.4395H103.531V106.291H121.654V52.4395Z" fill="#7468FF"/>
<path d="M151.652 31.136H136.929C135.99 31.136 135.229 31.8971 135.229 32.8361V110.394H153.352V32.8361C153.352 31.8971 152.591 31.136 151.652 31.136Z" fill="#00F1BF"/>
<path d="M153.352 88.8369H135.229V110.394H153.352V88.8369Z" fill="#7468FF"/>
<path d="M183.801 24.0205H169.078C168.139 24.0205 167.378 24.7817 167.378 25.7206V117.571H185.501V25.7206C185.501 24.7817 184.74 24.0205 183.801 24.0205Z" fill="#00F1BF"/>
<path d="M185.501 63.7175H167.378V117.569H185.501V63.7175Z" fill="#7468FF"/>
<path d="M215.957 3.67847H201.234C200.295 3.67847 199.534 4.43963 199.534 5.37856V125.103C199.534 126.042 200.295 126.803 201.234 126.803H215.957C216.896 126.803 217.657 126.042 217.657 125.103V5.37856C217.657 4.43963 216.896 3.67847 215.957 3.67847Z" fill="#00F1BF"/>
<path d="M217.657 44.7485H199.534V126.802H217.657V44.7485Z" fill="#7468FF"/>
<path d="M282.315 156.848H208.845L117.12 132.645L38.6855 156.848L117.12 132.645L208.845 156.848H282.315Z" stroke="#7468FF" stroke-width="3" stroke-miterlimit="1.5" stroke-linecap="round" stroke-linejoin="round" stroke-dasharray="10.41 10.41"/>
</svg>
