<svg id="Layer_2" data-name="Layer 2" xmlns="http://www.w3.org/2000/svg" viewBox="0 0 130.84 130.84"><defs><style>.cls-1,.cls-4,.cls-5{fill:none;}.cls-1,.cls-2,.cls-4,.cls-5{stroke:#fff;}.cls-1,.cls-2,.cls-4{stroke-miterlimit:10;}.cls-1{stroke-width:5px;}.cls-2{fill:#10f9b7;stroke-width:4px;}.cls-3{fill:#fff;}.cls-4{stroke-width:3.19px;}.cls-5{stroke-linecap:round;stroke-linejoin:round;stroke-width:2.68px;}</style></defs><path class="cls-1" d="M75.65,84.64H55.19a3.27,3.27,0,0,0-3.27,3.27v20.46a3.26,3.26,0,0,0,3.27,3.27H75.65a3.27,3.27,0,0,0,3.27-3.27V87.91A3.28,3.28,0,0,0,75.65,84.64Z"/><path class="cls-2" d="M75.64,84.14a3.45,3.45,0,0,1,1.1.2C86.85,74,93.92,52.41,93.92,40.69a28.5,28.5,0,0,0-57,0C36.92,52.41,44,74,54.09,84.34a3.69,3.69,0,0,1,1.1-.2Z"/><path class="cls-3" d="M59.42,115.28a3.35,3.35,0,0,0,3.33,3.36H68a3.28,3.28,0,0,0,1.28-.25,3.37,3.37,0,0,0,1.09-.73,3.22,3.22,0,0,0,.73-1.09,3.38,3.38,0,0,0,.26-1.29v-1.64h-12Z"/><path class="cls-4" d="M51.9,102.42l27-8.56"/><path class="cls-4" d="M51.9,95.64l27-8.56"/><path class="cls-4" d="M51.9,109.2l27-8.56"/><path class="cls-5" d="M53.19,38.91H77.65L61.09,48.76H71.18L58.42,61.52H72.11"/></svg>