<svg width="395" height="115" viewBox="0 0 395 115" fill="none" xmlns="http://www.w3.org/2000/svg">
<g clip-path="url(#clip0_234_530)">
<path d="M2088.05 737.419L2085.62 742.197C2030.56 714.055 1972.92 688.025 1917.13 662.843C1837.09 626.712 1754.32 589.34 1677.95 545.118C1618.98 511.008 1580.81 452.495 1549.64 400.329C1499.28 315.985 1461.26 223.461 1424.5 133.982C1421.17 125.855 1417.83 117.765 1414.5 109.639C1409.43 97.3216 1404.38 84.8348 1399.32 72.2054C1366.65 -8.9056 1332.87 -92.805 1276.46 -157.302C1228.96 -211.608 1150.76 -240.736 1037.42 -246.386C956.567 -250.387 874.983 -239 796.087 -227.989C655.764 -208.385 510.657 -188.121 370.502 -256.65L372.852 -261.47C511.559 -193.682 649.396 -212.934 795.359 -233.321C874.504 -244.382 956.351 -255.797 1037.71 -251.778C1152.57 -246.075 1232.01 -216.338 1280.51 -160.881C1337.54 -95.6891 1371.49 -11.3918 1404.32 70.1537C1409.39 82.7465 1414.41 95.2466 1419.49 107.527C1422.83 115.617 1426.16 123.744 1429.5 131.87C1466.18 221.174 1504.1 313.475 1554.28 397.495C1585.08 449.071 1622.81 506.915 1680.66 540.395C1756.82 584.463 1839.47 621.782 1919.39 657.861C1975.23 683.075 2032.95 709.149 2088.1 737.333L2088.05 737.419Z" fill="#7468FF"/>
<path d="M1983.24 623.58L1981 628.43C1907.28 594.366 1831.64 564.101 1760.88 536.495C1746.7 530.951 1732.04 526.552 1717.88 522.327C1689.4 513.814 1659.97 504.987 1633.91 486.515C1519.5 405.439 1457.28 267.614 1397.06 134.347C1379.77 96.0327 1363.43 59.8567 1346.04 25.5189L1345.4 24.2496C1306.79 -52.065 1263.03 -138.558 1184.33 -177.349C1088.98 -224.344 991.481 -212.457 908.69 -194.59C886.35 -189.793 863.846 -184.747 842.088 -179.854C642.054 -135.022 453.137 -92.6804 256.497 -190.596L258.884 -195.406C453.829 -98.3369 641.847 -140.468 840.922 -185.087C862.693 -189.957 885.221 -195.017 907.584 -199.826C991.278 -217.843 1089.91 -229.858 1186.7 -182.123C1267.02 -142.528 1311.22 -55.2105 1350.2 21.85L1350.84 23.1193C1368.28 57.5498 1384.64 93.8087 1401.96 132.169C1461.87 264.807 1523.81 401.929 1637.03 482.176C1662.37 500.14 1690.1 508.433 1719.45 517.218C1733.73 521.496 1748.46 525.914 1762.87 531.54C1833.7 559.202 1909.45 589.497 1983.29 623.613L1983.24 623.58Z" fill="#7468FF"/>
<path d="M1906.76 509.748L1904.48 514.588C1897.48 511.301 1890.33 507.855 1883.1 504.329C1842.72 484.786 1800.99 464.567 1758.86 462.081C1692.27 458.159 1642.83 440.047 1593.54 401.493C1498.98 327.48 1440.29 222.124 1383.53 120.228C1350.25 60.4975 1315.87 -1.25429 1274.71 -55.665C1214.2 -135.729 1145.64 -176.88 1070.96 -177.953C993.159 -179.078 915.52 -150.734 840.441 -123.312C820.706 -116.093 800.324 -108.655 780.66 -102.063C684.328 -69.7304 571.779 -35.3324 454.957 -36.3468C334.943 -37.3735 229.614 -81.5734 142.432 -124.655L144.796 -129.452C231.458 -86.6272 336.075 -42.6963 454.996 -41.688C570.965 -40.7063 683.019 -74.9428 778.94 -107.131C798.522 -113.705 817.988 -120.801 838.591 -128.336C914.128 -155.93 992.225 -184.445 1071.02 -183.307C1147.42 -182.206 1217.38 -140.346 1278.97 -58.8959C1320.34 -4.1739 1354.83 57.7633 1388.19 117.633C1444.68 219.066 1503.13 323.944 1596.84 397.3C1645.85 435.642 1692.87 452.868 1759.16 456.771C1802.34 459.303 1844.57 479.755 1885.44 499.546C1892.65 503.048 1899.77 506.484 1906.77 509.771L1906.76 509.748Z" fill="#7468FF"/>
<path d="M1887.3 395.864L1884.4 400.381C1855.87 382.189 1824.84 382.108 1792.01 382.015C1773.58 381.958 1754.54 381.913 1735.37 378.54C1664.7 366.153 1594.56 330.147 1532.51 274.411C1469.34 217.651 1419.35 147.345 1371 79.3416L1369.29 76.9245C1363.74 69.1235 1358.18 61.203 1352.59 53.236C1307.11 -11.5454 1260.08 -78.5486 1193.93 -120.445C1112.7 -171.91 1034.28 -154.126 961.658 -127.223C910.709 -108.352 860.425 -85.382 811.813 -63.1599C759.252 -39.1531 704.919 -14.3081 649.416 5.46009C529.182 48.346 423.045 62.0353 324.946 47.3356C245.127 35.3778 171.257 2.9789 99.8352 -28.3913C76.595 -38.598 52.5794 -49.1302 28.6738 -58.8291L30.6911 -63.7972C54.6467 -54.0653 78.7122 -43.5001 101.976 -33.3067C173.087 -2.09801 246.602 30.1662 325.742 42.0207C422.934 56.5949 528.235 42.956 647.6 0.386205C702.853 -19.3311 757.108 -44.0994 809.562 -68.0758C858.281 -90.3283 908.633 -113.339 959.772 -132.257C1033.7 -159.634 1113.57 -177.697 1196.78 -124.995C1263.81 -82.5279 1311.16 -15.0876 1356.95 50.1309C1362.54 58.0978 1368.09 65.9951 1373.64 73.7961L1375.35 76.2132C1423.53 143.975 1473.35 214.039 1536.07 270.406C1597.36 325.468 1666.6 361.036 1736.27 373.255C1754.98 376.523 1773.81 376.569 1792.02 376.627C1825.66 376.72 1857.47 376.814 1887.29 395.841L1887.3 395.864Z" fill="#7468FF"/>
<path d="M1924.09 290.027L1922.87 295.248C1888.79 287.251 1853.41 283.556 1819.23 280.005C1779.64 275.866 1738.68 271.594 1699.14 260.626C1623.01 239.521 1551.06 199.736 1485.31 142.363C1454.26 115.264 1423.53 80.6234 1391.02 43.9183C1310.17 -47.2818 1218.53 -150.684 1100.88 -151.097C1022.6 -151.389 943.175 -105.194 873.095 -64.4548C861.363 -57.6198 850.291 -51.1965 839.347 -45.0327L821.452 -34.9483C727.822 17.8105 630.988 72.3573 526.53 105.238C420.752 138.51 316.925 142.114 217.93 115.903C160.838 100.781 105.446 77.6272 51.8888 55.2388C7.89181 36.8237 -37.6158 17.8274 -83.7874 3.35816L-82.1992 -1.76417C-35.7849 12.7505 9.83593 31.8359 53.9426 50.2804C107.341 72.6063 162.536 95.6881 219.286 110.698C317.292 136.645 420.113 133.065 524.889 100.093C628.83 67.3877 725.409 12.9883 818.807 -39.6366L836.702 -49.721C847.6 -55.858 858.672 -62.2814 870.38 -69.103C941.064 -110.19 1021.15 -156.737 1100.88 -156.448C1220.95 -156.013 1313.42 -51.6642 1395.03 40.3662C1427.43 76.9223 1458.07 111.46 1488.84 138.311C1553.98 195.169 1625.22 234.565 1700.57 255.442C1739.69 266.279 1780.41 270.542 1819.79 274.644C1854.15 278.245 1889.68 281.943 1924.08 290.004L1924.09 290.027Z" fill="#AC85FF"/>
<path d="M1919.16 168.098L1918.18 173.363C1890.82 168.287 1862.79 163.971 1835.7 159.79C1772.7 150.086 1707.58 140.065 1645.69 119.641C1575.1 96.3548 1506.13 58.1313 1428.58 -0.657943C1421.51 -6.0041 1414.47 -11.4001 1407.4 -16.7828C1278.81 -114.932 1157.31 -207.652 993.643 -128.805C918.142 -92.4197 846.559 -44.5355 777.317 1.78033C659.562 80.5584 537.816 162.012 392.82 189.539C238.181 218.893 90.3668 157.879 -52.5854 98.9125C-97.686 80.2998 -144.324 61.0595 -189.64 45.4471L-187.892 40.3871C-142.43 56.0387 -95.7052 75.3218 -50.5315 93.9542C91.7086 152.651 238.747 213.34 391.834 184.295C535.75 156.988 657.046 75.8264 774.351 -2.66068C843.742 -49.0935 915.488 -97.0714 991.327 -133.621C1066.17 -169.692 1139.68 -173.012 1216.02 -143.773C1283.99 -117.738 1348.39 -68.5865 1410.66 -21.0459C1417.69 -15.6729 1424.75 -10.2902 1431.81 -4.93064C1508.86 53.4922 1577.35 91.4687 1647.37 114.561C1708.86 134.841 1773.76 144.839 1836.52 154.521C1863.67 158.699 1891.72 163.038 1919.17 168.121L1919.16 168.098Z" fill="#AC85FF"/>
<path d="M1874.8 24.2563L1873.93 29.5515C1854.66 26.3888 1835.04 23.3671 1816.05 20.4523C1739.7 8.71824 1660.74 -3.39959 1585.78 -28.0543C1523.91 -48.396 1465.59 -78.2731 1409.16 -107.136C1398.49 -112.602 1387.79 -118.078 1377.05 -123.504C1297.38 -163.75 1226.08 -183.442 1145.84 -187.359C1040.14 -192.509 951.85 -130.124 873.978 -75.0841C840.727 -51.5885 807.821 -26.746 772.975 -0.443116C622.08 113.486 466.054 231.274 279.156 241.496C186.203 246.583 97.2825 215.7 11.3259 185.826L2.48011 182.77C-40.5879 167.838 -83.793 151.223 -125.597 135.16C-179.45 114.457 -235.155 93.0616 -291.018 75.0348L-289.38 69.9455C-233.407 88.0017 -177.615 109.44 -123.69 130.162C-81.9219 146.216 -38.7303 162.808 4.22793 177.71L13.0738 180.766C98.5647 210.476 186.946 241.176 278.86 236.163C464.107 226.028 619.491 108.734 769.744 -4.70025C804.613 -31.0165 837.565 -55.8859 870.873 -79.4449C949.47 -134.997 1038.54 -197.956 1146.09 -192.701C1227.1 -188.757 1299.09 -168.879 1379.45 -128.292C1390.19 -122.866 1400.9 -117.389 1411.6 -111.913C1467.84 -83.1228 1525.99 -53.3676 1587.44 -33.1569C1661.98 -8.65646 1740.71 3.46226 1816.84 15.1375C1835.84 18.0523 1855.5 21.0837 1874.78 24.2331L1874.8 24.2563Z" fill="#AC85FF"/>
<path d="M1806.4 -126.785L1805.81 -121.471L1783.35 -123.902C1699.66 -132.88 1613.11 -142.19 1529.5 -162.222C1503.85 -168.35 1478.01 -175.725 1453.02 -182.851C1406.75 -196.054 1358.88 -209.703 1310.45 -216.034C1201.39 -230.339 1112.69 -227.523 1046.87 -207.639C953.455 -179.405 871.921 -112.603 793.111 -47.9921C777.639 -35.3176 763.015 -23.318 748.266 -11.5868C738.876 -4.12453 729.35 3.47779 719.735 11.1935C641.325 73.8726 552.476 144.929 458.06 194.987C349.564 252.526 250.02 273.726 153.764 259.755C47.5002 244.358 -54.9755 209.116 -154.081 175.053C-231.138 148.544 -310.802 121.16 -391.633 103.324L-390.484 98.0843C-309.36 115.999 -229.536 143.445 -152.347 169.97C-53.4739 203.951 48.7457 239.124 154.537 254.454C249.63 268.23 348.082 247.228 455.568 190.242C549.53 140.415 638.174 69.5387 716.388 7.0033C726.016 -0.68924 735.529 -8.31474 744.919 -15.777C759.621 -27.4814 774.236 -39.4446 789.708 -52.1189C868.942 -117.067 950.862 -184.216 1045.31 -212.741C1111.87 -232.86 1201.33 -235.747 1311.13 -221.341C1359.94 -214.949 1408 -201.229 1454.45 -187.976C1479.39 -180.883 1505.16 -173.527 1530.71 -167.406C1614 -147.462 1700.37 -138.178 1783.9 -129.226L1806.38 -126.808L1806.4 -126.785Z" fill="#AC85FF"/>
<path d="M1729.32 -270.35L1729.44 -265.006C1661.21 -263.466 1591.63 -266.272 1524.35 -268.989C1425.45 -272.963 1323.19 -277.095 1223.44 -267.496C1112.38 -256.811 1013.45 -243.722 926.92 -191.509C847.737 -143.721 775.069 -82.934 704.799 -24.1509C677.587 -1.38968 649.461 22.1462 621.457 44.4991C531.512 116.281 434.517 189.938 325.13 232.436C270.013 253.837 194.639 273.142 53.2098 254.145C-26.377 243.445 -105.331 221.897 -181.711 201.059C-283.317 173.324 -388.397 144.658 -495.51 141.501L-495.351 136.153C-387.577 139.33 -282.204 168.074 -180.306 195.887C-104.109 216.677 -25.3009 238.185 53.9237 248.847C194.133 267.714 268.704 248.625 323.188 227.466C431.895 185.236 528.476 111.88 618.123 40.3321C646.082 18.006 674.197 -5.49339 701.386 -28.2412C771.828 -87.1546 844.632 -148.082 924.186 -196.084C1011.65 -248.869 1111.24 -262.057 1222.97 -272.819C1323.06 -282.462 1425.52 -278.317 1524.6 -274.331C1591.81 -271.634 1661.28 -268.821 1729.36 -270.34L1729.32 -270.35Z" fill="#AC85FF"/>
<path d="M1657.81 -391.956L1658.92 -386.719C1579.18 -370.092 1497.63 -358.166 1418.75 -346.641C1315.92 -331.614 1209.56 -316.064 1106.36 -289.905C927.435 -244.552 859.52 -202.311 805.254 -162.941C749.058 -122.147 694.605 -77.1031 641.969 -33.5717C595.22 5.10732 546.869 45.0823 497.412 82.0163C411.439 146.217 317.027 209.137 209.358 234.688C126.163 254.426 34.6377 248.702 -51.8842 239.594C-106.677 233.813 -161.286 224.493 -214.099 215.498C-346.809 192.857 -472.148 171.466 -606.198 199.848L-607.304 194.612C-472.259 166.026 -346.411 187.494 -213.179 210.235C-160.462 219.225 -105.926 228.525 -51.3266 234.294C34.7135 243.371 125.721 249.054 208.099 229.508C314.823 204.194 408.655 141.609 494.181 77.7591C543.536 40.9153 591.84 0.967187 638.556 -37.6619C691.272 -81.2701 745.771 -126.341 802.129 -167.229C846.105 -199.143 893.562 -225.027 947.22 -246.328C1000.81 -267.589 1057.06 -282.903 1105.03 -295.044C1208.53 -321.281 1315.01 -336.838 1417.98 -351.885C1496.78 -363.393 1578.25 -375.302 1657.8 -391.919L1657.81 -391.956Z" fill="#AC85FF"/>
<path d="M1572.36 -489.513L1573.88 -484.361C1342.45 -415.809 1152.74 -354.451 976.816 -291.258C856.248 -247.932 767.997 -201.495 681.745 -135.958C647.654 -110.06 613.593 -82.8809 580.676 -56.6099C515.998 -5.01306 449.1 48.3609 378.709 94.7217C278.852 160.476 190.474 196.998 100.577 209.629C21.9246 220.685 -59.8711 224.154 -142.515 219.889C-173.842 218.278 -205.607 215.745 -236.35 213.272C-287.418 209.174 -340.234 204.942 -392.293 204.911C-500.731 204.869 -600.24 232.45 -705.577 261.664L-719.952 265.634L-721.39 260.466L-707.029 256.472C-601.336 227.177 -501.485 199.492 -392.304 199.537C-340.005 199.553 -287.093 203.792 -235.915 207.918C-205.21 210.383 -173.467 212.928 -142.237 214.533C-59.9183 218.77 21.5187 215.322 99.8264 204.311C188.913 191.777 276.588 155.537 375.776 90.2307C445.971 44.0135 512.768 -9.27024 577.353 -60.8135C610.315 -87.1113 644.4 -114.304 678.537 -140.229C765.237 -206.117 853.941 -252.785 975.049 -296.299C1151.06 -359.546 1340.89 -420.934 1572.39 -489.503L1572.36 -489.513Z" fill="#AC85FF"/>
<path d="M1470.24 -572.868L1472.2 -567.874C1349.06 -519.631 1227.98 -461.937 1110.89 -406.151C1027.52 -366.425 941.308 -325.342 854.973 -287.958C742.385 -239.22 651.898 -187.874 561.533 -121.478C543.079 -107.917 524.384 -93.969 506.321 -80.4792C430.118 -23.6194 351.296 35.1853 266.965 82.5748C101.379 175.61 -86.9186 192.299 -232.489 196.441L-242.443 196.715C-329.279 199.167 -419.074 201.69 -505.346 221.721C-593.938 242.288 -682.883 275.365 -768.907 307.343C-790.243 315.271 -812.281 323.48 -833.794 331.262L-835.62 326.225C-814.144 318.433 -792.092 310.246 -770.793 302.309C-684.617 270.274 -595.519 237.14 -506.572 216.492C-419.755 196.332 -329.721 193.795 -242.61 191.338L-232.656 191.064C43.2745 183.212 177.889 126.458 264.32 77.8864C348.349 30.671 427.009 -28.0399 503.087 -84.7962C521.173 -98.2993 539.868 -112.247 558.345 -125.822C649.031 -192.465 739.843 -243.999 852.829 -292.904C939.071 -330.234 1025.23 -371.291 1108.55 -411.013C1225.73 -466.853 1346.88 -524.587 1470.19 -572.901L1470.24 -572.868Z" fill="#AC85FF"/>
<path d="M1363.46 -652.305L1365.8 -647.503C1260.16 -596.099 1158.58 -533.18 1060.36 -472.36C954.568 -406.861 845.207 -339.145 730.475 -285.552C630.692 -238.95 538.585 -186.391 440.617 -120.15L425.006 -109.591C341.467 -53.011 255.08 5.49177 162.81 50.3225C10.0607 124.566 -147.381 147.406 -314.088 171.605L-337.543 175.005C-518.848 201.448 -692.521 280.691 -860.449 357.298C-889.106 370.38 -918.722 383.891 -947.642 396.785L-949.819 391.888C-920.922 379.008 -891.307 365.497 -862.673 352.428C-694.384 275.644 -520.396 196.25 -338.318 169.7L-314.862 166.301C-148.584 142.163 8.47634 119.358 160.456 45.4966C252.352 0.820432 338.59 -57.5653 421.98 -114.029L437.591 -124.588C535.801 -190.999 628.14 -243.692 728.191 -290.418C842.645 -343.85 951.867 -411.486 1057.52 -476.904C1155.88 -537.805 1257.58 -600.791 1363.46 -652.305Z" fill="#7468FF"/>
<path d="M1264.06 -737.928L1266.69 -733.262C1168.45 -677.779 1075.9 -607.677 986.394 -539.893C871.118 -452.589 751.905 -362.302 619.014 -302.027C518.231 -256.302 422.285 -197.537 329.5 -140.69C244.712 -88.738 157.041 -35.0292 65.7491 8.71101C-26.2192 52.7797 -104.1 82.0974 -179.343 100.987C-213.561 109.58 -248.684 116.871 -282.633 123.947C-332.792 134.385 -384.694 145.179 -434.584 160.315C-511.514 183.673 -583.763 220.871 -653.612 256.869C-674.328 267.531 -695.753 278.571 -717.027 289.122C-845.307 352.671 -952.973 406.452 -1061.43 462.512L-1063.9 457.753C-955.396 401.667 -847.707 347.872 -719.404 284.31C-698.176 273.785 -676.774 262.759 -656.058 252.097C-585.987 216.001 -513.506 178.669 -436.128 155.176C-386.003 139.966 -334.018 129.155 -283.716 118.698C-249.813 111.648 -214.75 104.36 -180.639 95.7978C-105.75 76.9895 -28.1978 47.7995 63.4558 3.88161C154.503 -39.7478 242.057 -93.3897 326.743 -145.252C419.667 -202.179 515.762 -261.061 616.836 -306.924C749.178 -366.973 868.162 -457.067 983.196 -544.2C1072.85 -612.101 1165.54 -682.284 1264.11 -737.955L1264.06 -737.928Z" fill="#7468FF"/>
<path d="M1186.85 -835.354C1073.34 -766.789 969.869 -681.046 869.796 -598.099C762.42 -509.11 651.409 -417.095 527.515 -345.843C459.195 -306.553 389.974 -266.093 323.025 -226.946C209.098 -160.335 91.2752 -91.4752 -25.9325 -26.1554C-110.53 20.9862 -203.435 47.8464 -293.262 73.8261C-373.465 97.0326 -456.428 121.029 -532.977 159.349C-604.259 195.061 -674.464 236.924 -742.33 277.374C-773.269 295.824 -805.237 314.899 -836.828 333.076L-860.112 346.52C-963.465 406.005 -1070.34 467.525 -1175.24 528.399L-1177.92 523.761C-1073.02 462.887 -966.143 401.366 -862.804 341.858L-839.519 328.415C-807.962 310.288 -775.993 291.212 -745.078 272.776C-677.109 232.235 -606.834 190.333 -535.376 154.55C-458.397 116.012 -375.198 91.9417 -294.76 68.6612C-205.228 42.7592 -112.618 15.9765 -28.5542 -30.8571C88.5838 -96.1367 206.37 -165.007 320.31 -231.594C387.259 -270.741 456.481 -311.201 524.824 -350.505C648.324 -421.529 759.175 -513.39 866.356 -602.235C966.578 -685.3 1070.2 -771.16 1184.04 -839.949L1186.81 -835.364L1186.85 -835.354Z" fill="#7468FF"/>
</g>
<defs>
<clipPath id="clip0_234_530">
<rect width="1358.59" height="1431.61" fill="white" transform="translate(90.7949 1260.38) rotate(-120)"/>
</clipPath>
</defs>
</svg>
