<svg width="48" height="48" viewBox="0 0 48 48" fill="none" xmlns="http://www.w3.org/2000/svg">
<path d="M47.698 24.8802L46.6393 26.2502C46.3196 26.6612 46.249 27.2093 46.4524 27.6909L47.125 29.2851C47.3824 29.8913 47.1915 30.5929 46.6683 30.9873L45.29 32.0336C44.8748 32.3491 44.6631 32.8598 44.7336 33.3746L44.9661 35.0892C45.0533 35.741 44.6921 36.3679 44.0818 36.617L42.4793 37.2689C41.9977 37.464 41.6614 37.9041 41.595 38.4189L41.3791 40.1335C41.296 40.7854 40.7854 41.296 40.1335 41.3791L38.4189 41.5949C37.9041 41.6614 37.464 41.9977 37.2689 42.4793L36.617 44.0818C36.3679 44.688 35.741 45.0533 35.0892 44.9661L33.3746 44.7336C32.8597 44.6631 32.3491 44.8748 32.0336 45.29L30.9873 46.6683C30.5888 47.1915 29.8871 47.3783 29.2851 47.125L27.6909 46.4524C27.2134 46.249 26.6612 46.3237 26.2502 46.6393L24.8802 47.698C24.3612 48.1007 23.6388 48.1007 23.1198 47.698L21.7498 46.6393C21.3388 46.3196 20.7907 46.249 20.3091 46.4524L18.7149 47.125C18.1087 47.3824 17.4071 47.1915 17.0127 46.6683L15.9664 45.29C15.6509 44.8748 15.1403 44.6631 14.6254 44.7336L12.9108 44.9661C12.259 45.0533 11.6321 44.6921 11.383 44.0818L10.7311 42.4793C10.536 41.9977 10.0959 41.6614 9.58111 41.5949L7.86645 41.3791C7.21463 41.296 6.70397 40.7854 6.62094 40.1335L6.40505 38.4189C6.33862 37.9041 6.00234 37.464 5.52074 37.2689L3.91818 36.617C3.31203 36.3679 2.94668 35.741 3.03386 35.0892L3.26636 33.3746C3.33694 32.8598 3.1252 32.3491 2.71003 32.0336L1.33166 30.9873C0.808546 30.5888 0.621719 29.8871 0.874973 29.2851L1.54755 27.6909C1.75098 27.2134 1.67625 26.6612 1.36072 26.2502L0.302037 24.8802C-0.100679 24.3612 -0.100679 23.6388 0.302037 23.1198L1.36072 21.7498C1.6804 21.3388 1.75098 20.7907 1.54755 20.3091L0.874973 18.7149C0.617567 18.1087 0.808546 17.4071 1.33166 17.0127L2.71003 15.9664C3.1252 15.6509 3.33694 15.1403 3.26636 14.6254L3.03386 12.9108C2.94668 12.259 3.30788 11.6321 3.91818 11.383L5.52074 10.7311C6.00234 10.536 6.33862 10.0959 6.40505 9.58111L6.62094 7.86645C6.70397 7.21463 7.21463 6.70397 7.86645 6.62094L9.58111 6.40505C10.0959 6.33862 10.536 6.00234 10.7311 5.52074L11.383 3.91818C11.6321 3.31203 12.259 2.94668 12.9108 3.03386L14.6254 3.26636C15.1403 3.33694 15.6509 3.1252 15.9664 2.71003L17.0127 1.33166C17.4112 0.808545 18.1129 0.621719 18.7149 0.874973L20.3091 1.54755C20.7866 1.75098 21.3388 1.67625 21.7498 1.36072L23.1198 0.302037C23.6388 -0.100679 24.3612 -0.100679 24.8802 0.302037L26.2502 1.36072C26.6612 1.6804 27.2093 1.75098 27.6909 1.54755L29.2851 0.874973C29.8913 0.617567 30.5929 0.808545 30.9873 1.33166L32.0336 2.71003C32.3491 3.1252 32.8597 3.33694 33.3746 3.26636L35.0892 3.03386C35.741 2.94668 36.3679 3.30788 36.617 3.91818L37.2689 5.52074C37.464 6.00234 37.9041 6.33862 38.4189 6.40505L40.1335 6.62094C40.7854 6.70397 41.296 7.21463 41.3791 7.86645L41.595 9.58111C41.6614 10.0959 41.9977 10.536 42.4793 10.7311L44.0818 11.383C44.688 11.6321 45.0533 12.259 44.9661 12.9108L44.7336 14.6254C44.6631 15.1403 44.8748 15.6509 45.29 15.9664L46.6683 17.0127C47.1915 17.4112 47.3783 18.1129 47.125 18.7149L46.4524 20.3091C46.249 20.7866 46.3237 21.3388 46.6393 21.7498L47.698 23.1198C48.1007 23.6388 48.1007 24.3612 47.698 24.8802Z" fill="#ACA4FF"/>
<path d="M4.97424 27V20.7H7.21524C8.46624 20.7 9.31224 21.501 9.31224 22.725C9.31224 23.94 8.42124 24.777 7.21524 24.777H6.31524V27H4.97424ZM6.31524 23.526H7.16124C7.64724 23.526 7.96224 23.184 7.96224 22.725C7.96224 22.275 7.64724 21.951 7.16124 21.951H6.31524V23.526ZM13.7197 27L13.3147 25.74H10.8397L10.4347 27H8.99471L11.1277 20.7H13.0177L15.1327 27H13.7197ZM11.2267 24.516H12.9187L12.1177 22.05H12.0187L11.2267 24.516ZM15.8112 27V20.7H17.9802C19.3032 20.7 20.2302 21.492 20.2302 22.671C20.2302 23.517 19.8342 24.174 19.1052 24.516L20.4822 27H18.9522L17.7912 24.723H17.1522V27H15.8112ZM17.1522 23.508H17.9982C18.4842 23.508 18.8352 23.22 18.8352 22.698C18.8352 22.293 18.5562 21.951 17.9532 21.951H17.1522V23.508ZM22.5208 27V21.96H20.8378V20.7H25.5358V21.96H23.8528V27H22.5208ZM26.3932 27V20.7H28.6792L30.1372 25.65H30.2272V20.7H31.5592V27H29.2552L27.8332 22.05H27.7342V27H26.3932ZM32.818 27V20.7H36.778V21.96H34.159V23.175H36.418V24.426H34.159V25.749H36.868V27H32.818ZM37.8541 27V20.7H40.0231C41.3461 20.7 42.2731 21.492 42.2731 22.671C42.2731 23.517 41.8771 24.174 41.1481 24.516L42.5251 27H40.9951L39.8341 24.723H39.1951V27H37.8541ZM39.1951 23.508H40.0411C40.5271 23.508 40.8781 23.22 40.8781 22.698C40.8781 22.293 40.5991 21.951 39.9961 21.951H39.1951V23.508Z" fill="#020A5B"/>
<path d="M24.0286 43.3636C16.0116 43.3636 8.93709 38.5435 6.00183 31.087L7.16016 30.6303C9.90444 37.6093 16.5264 42.1181 24.0244 42.1181C31.5224 42.1181 38.0821 37.6467 40.8513 30.73L42.0096 31.1949C39.0494 38.5891 31.9915 43.3636 24.0286 43.3636Z" fill="#020A5B"/>
<path d="M7.31433 16.9504L6.16846 16.4646C9.20751 9.28218 16.2114 4.64056 24.0084 4.64056C31.8053 4.64056 38.8092 9.28218 41.8483 16.4646L40.7024 16.9504C37.8585 10.2288 31.3071 5.88608 24.0084 5.88608C16.7097 5.88608 10.1583 10.2288 7.31433 16.9504Z" fill="#020A5B"/>
<path d="M44.4639 30.3355H3.55298V31.581H44.4639V30.3355Z" fill="#020A5B"/>
<path d="M44.4639 16.3276H3.55298V17.5731H44.4639V16.3276Z" fill="#020A5B"/>
</svg>
