<svg width="16" height="17" viewBox="0 0 16 17" fill="none" xmlns="http://www.w3.org/2000/svg">
<path d="M11.125 4.125L12.375 4.125C12.7065 4.125 13.0245 4.2567 13.2589 4.49112C13.4933 4.72554 13.625 5.04348 13.625 5.375L13.625 11.625C13.625 11.9565 13.4933 12.2745 13.2589 12.5089C13.0245 12.7433 12.7065 12.875 12.375 12.875L11.125 12.875" stroke="white" stroke-linecap="round" stroke-linejoin="round"/>
<path d="M4.875 12.875L3.625 12.875C3.29348 12.875 2.97554 12.7433 2.74112 12.5089C2.5067 12.2745 2.375 11.9565 2.375 11.625L2.375 5.375C2.375 5.04348 2.5067 4.72554 2.74112 4.49112C2.97554 4.2567 3.29348 4.125 3.625 4.125L4.875 4.125" stroke="white" stroke-linecap="round" stroke-linejoin="round"/>
<path d="M5.5 8.5C5.5 9.16304 5.76339 9.79893 6.23223 10.2678C6.70107 10.7366 7.33696 11 8 11C8.66304 11 9.29893 10.7366 9.76777 10.2678C10.2366 9.79893 10.5 9.16304 10.5 8.5C10.5 7.83696 10.2366 7.20107 9.76777 6.73223C9.29893 6.26339 8.66304 6 8 6C7.33696 6 6.70107 6.26339 6.23223 6.73223C5.76339 7.20107 5.5 7.83696 5.5 8.5Z" stroke="white" stroke-linecap="round" stroke-linejoin="round"/>
</svg>
