<svg width="147" height="147" viewBox="0 0 147 147" fill="none" xmlns="http://www.w3.org/2000/svg">
<g clip-path="url(#clip0_4070_4348)">
<path d="M72.2525 0.438594C72.8925 -0.151406 73.8825 -0.151406 74.5225 0.438594L81.2125 6.56859C81.7325 7.04859 82.5025 7.14859 83.1225 6.81859L91.1725 2.62859C91.9425 2.22859 92.9025 2.47859 93.3725 3.21859L98.2425 10.8686C98.6225 11.4686 99.3325 11.7586 100.022 11.6086L108.882 9.63859C109.732 9.44859 110.593 9.93859 110.853 10.7786L113.582 19.4286C113.792 20.0986 114.403 20.5686 115.113 20.5986L124.173 20.9886C125.043 21.0286 125.743 21.7286 125.783 22.5986L126.173 31.6586C126.203 32.3686 126.672 32.9786 127.342 33.1886L135.992 35.9186C136.822 36.1786 137.322 37.0386 137.132 37.8886L135.162 46.7486C135.012 47.4386 135.302 48.1486 135.902 48.5286L143.552 53.3986C144.292 53.8686 144.542 54.8186 144.142 55.5986L139.952 63.6486C139.622 64.2786 139.722 65.0386 140.202 65.5586L146.332 72.2486C146.922 72.8886 146.922 73.8786 146.332 74.5186L140.202 81.2086C139.722 81.7286 139.622 82.4986 139.952 83.1186L144.142 91.1686C144.542 91.9386 144.292 92.8986 143.552 93.3686L135.902 98.2386C135.302 98.6186 135.012 99.3286 135.162 100.019L137.132 108.879C137.322 109.729 136.832 110.589 135.992 110.849L127.342 113.579C126.672 113.789 126.203 114.399 126.173 115.109L125.783 124.169C125.743 125.039 125.043 125.739 124.173 125.779L115.113 126.169C114.403 126.199 113.792 126.669 113.582 127.339L110.853 135.989C110.593 136.819 109.732 137.319 108.882 137.129L100.022 135.159C99.3325 135.009 98.6225 135.299 98.2425 135.899L93.3725 143.549C92.9025 144.289 91.9525 144.539 91.1725 144.139L83.1225 139.949C82.4925 139.619 81.7325 139.719 81.2125 140.199L74.5225 146.329C73.8825 146.919 72.8925 146.919 72.2525 146.329L65.5625 140.199C65.0425 139.719 64.2725 139.619 63.6525 139.949L55.6025 144.139C54.8325 144.539 53.8725 144.289 53.4025 143.549L48.5325 135.899C48.1525 135.299 47.4425 135.009 46.7525 135.159L37.8925 137.129C37.0425 137.319 36.1825 136.829 35.9225 135.989L33.1925 127.339C32.9825 126.669 32.3725 126.199 31.6625 126.169L22.6025 125.779C21.7325 125.739 21.0325 125.039 20.9925 124.169L20.6025 115.109C20.5725 114.399 20.1025 113.789 19.4325 113.579L10.7825 110.849C9.9525 110.589 9.4525 109.729 9.6425 108.879L11.6125 100.019C11.7625 99.3286 11.4725 98.6186 10.8725 98.2386L3.2225 93.3686C2.4825 92.8986 2.2325 91.9486 2.6325 91.1686L6.8225 83.1186C7.1525 82.4886 7.0525 81.7286 6.5725 81.2086L0.4425 74.5186C-0.1475 73.8786 -0.1475 72.8886 0.4425 72.2486L6.5725 65.5586C7.0525 65.0386 7.1525 64.2686 6.8225 63.6486L2.6325 55.5986C2.2325 54.8286 2.4825 53.8686 3.2225 53.3986L10.8725 48.5286C11.4725 48.1486 11.7625 47.4386 11.6125 46.7486L9.6425 37.8886C9.4525 37.0386 9.9425 36.1786 10.7825 35.9186L19.4325 33.1886C20.1025 32.9786 20.5725 32.3686 20.6025 31.6586L20.9925 22.5986C21.0325 21.7286 21.7325 21.0286 22.6025 20.9886L31.6625 20.5986C32.3725 20.5686 32.9825 20.0986 33.1925 19.4286L35.9225 10.7786C36.1825 9.94859 37.0425 9.44859 37.8925 9.63859L46.7525 11.6086C47.4425 11.7586 48.1525 11.4686 48.5325 10.8686L53.4025 3.21859C53.8725 2.47859 54.8225 2.22859 55.6025 2.62859L63.6525 6.81859C64.2825 7.14859 65.0425 7.04859 65.5625 6.56859L72.2525 0.438594Z" fill="#F5F7FF"/>
<path d="M37.7718 83.4539C37.7718 84.4092 37.5617 85.1772 37.1414 85.7503C36.7211 86.3272 36.1518 86.6138 35.4334 86.6138C34.8259 86.6138 34.333 86.396 33.9586 85.9604V88.8872H32.35V80.2941H33.8439L33.9013 80.9016C34.291 80.4202 34.7992 80.1794 35.4258 80.1794C36.167 80.1794 36.744 80.4622 37.1566 81.0277C37.5693 81.5932 37.7756 82.3726 37.7756 83.3699V83.4539H37.7718ZM36.1632 83.3355C36.1632 82.7585 36.0639 82.3115 35.8652 81.9982C35.6665 81.6849 35.3761 81.5282 34.9978 81.5282C34.4935 81.5282 34.1458 81.7269 33.9547 82.1243V84.6652C34.1534 85.074 34.5011 85.2803 35.0055 85.2803C35.7811 85.2803 36.1632 84.6308 36.1632 83.3355Z" fill="#86C5FF"/>
<path d="M42.2231 81.849C42.0053 81.8184 41.8104 81.8032 41.6423 81.8032C41.0348 81.8032 40.6336 82.0171 40.4464 82.4412V86.5028H38.8378V80.2977H40.3585L40.4043 81.039C40.7253 80.4697 41.1761 80.1831 41.7455 80.1831C41.925 80.1831 42.0893 80.206 42.246 80.2557L42.2231 81.849Z" fill="#86C5FF"/>
<path d="M42.6167 83.3392C42.6167 82.7241 42.7314 82.1739 42.9606 81.6924C43.1899 81.211 43.5223 80.8366 43.954 80.5729C44.3858 80.3093 44.8902 80.1755 45.4595 80.1755C46.2733 80.1755 46.9343 80.4315 47.4502 80.9435C47.966 81.4555 48.2487 82.1509 48.3099 83.0297L48.3213 83.4539C48.3213 84.4053 48.0615 85.1694 47.5457 85.7464C47.0299 86.3233 46.3383 86.6099 45.4671 86.6099C44.596 86.6099 43.9044 86.3233 43.3886 85.7502C42.8689 85.1771 42.6129 84.3976 42.6129 83.4118V83.3392H42.6167ZM44.2253 83.4577C44.2253 84.0461 44.3323 84.497 44.5501 84.8103C44.7641 85.1236 45.0736 85.2802 45.4748 85.2802C45.8645 85.2802 46.1702 85.1274 46.3879 84.8179C46.6057 84.5084 46.7165 84.0155 46.7165 83.3392C46.7165 82.7623 46.6057 82.3114 46.3879 81.9943C46.1702 81.6771 45.8607 81.5167 45.4633 81.5167C45.0697 81.5167 44.7641 81.6733 44.5501 81.9905C44.3323 82.3076 44.2253 82.7967 44.2253 83.4577Z" fill="#86C5FF"/>
<path d="M49.1504 83.3544C49.1504 82.403 49.372 81.635 49.8114 81.0543C50.2508 80.4735 50.843 80.1831 51.5919 80.1831C52.2529 80.1831 52.7649 80.4162 53.1356 80.8823L53.2043 80.2977H54.6639V86.2965C54.6639 86.8391 54.5455 87.3129 54.3048 87.7141C54.064 88.1153 53.7278 88.4209 53.296 88.6311C52.8605 88.8412 52.3523 88.9482 51.7715 88.9482C51.3283 88.9482 50.9004 88.8565 50.4801 88.6769C50.0598 88.4973 49.7426 88.2605 49.5287 87.9739L50.2432 86.9652C50.6444 87.4275 51.1296 87.6606 51.7027 87.6606C52.1307 87.6606 52.4631 87.5421 52.7 87.309C52.9369 87.0722 53.0553 86.7397 53.0553 86.308V85.9756C52.6847 86.4073 52.1956 86.6251 51.5919 86.6251C50.866 86.6251 50.2814 86.3347 49.8343 85.7501C49.3873 85.1655 49.1619 84.3937 49.1619 83.4309V83.3544H49.1504ZM50.759 83.4767C50.759 84.0384 50.8698 84.4816 51.0876 84.8026C51.3054 85.1235 51.6072 85.2802 51.9893 85.2802C52.4784 85.2802 52.8299 85.0929 53.04 84.7109V82.0974C52.8261 81.7191 52.4784 81.5281 52.0008 81.5281C51.6149 81.5281 51.3092 81.6924 51.0914 82.0171C50.8698 82.3419 50.759 82.8272 50.759 83.4767Z" fill="#86C5FF"/>
<path d="M59.3483 81.849C59.1305 81.8184 58.9357 81.8032 58.7675 81.8032C58.16 81.8032 57.7588 82.0171 57.5716 82.4412V86.5028H55.963V80.2977H57.4837L57.5296 81.039C57.8505 80.4697 58.3014 80.1831 58.8707 80.1831C59.0503 80.1831 59.2146 80.206 59.3712 80.2557L59.3483 81.849Z" fill="#86C5FF"/>
<path d="M63.5131 86.5029C63.4405 86.3539 63.3832 86.1667 63.3526 85.9451C62.9629 86.3921 62.4547 86.6176 61.8319 86.6176C61.2435 86.6176 60.7506 86.4418 60.3647 86.0903C59.975 85.7388 59.7839 85.2955 59.7839 84.7606C59.7839 84.1034 60.0208 83.5991 60.4946 83.2475C60.9684 82.896 61.6523 82.7203 62.5464 82.7126H63.2877V82.3573C63.2877 82.0707 63.2151 81.8415 63.0737 81.6695C62.9323 81.4976 62.7069 81.4097 62.3974 81.4097C62.1261 81.4097 61.916 81.4785 61.7593 81.6122C61.6065 81.7459 61.5301 81.9293 61.5301 82.1624H59.9215C59.9215 81.8032 60.0285 81.4708 60.2463 81.1652C60.4602 80.8595 60.7659 80.6188 61.1595 80.4468C61.553 80.2711 61.9962 80.187 62.4853 80.187C63.2266 80.187 63.8188 80.3781 64.2544 80.764C64.6899 81.1499 64.9077 81.6886 64.9077 82.384V85.0739C64.9116 85.6623 64.9918 86.1094 65.1485 86.4112V86.5106H63.5131V86.5029ZM62.1834 85.349C62.4203 85.349 62.642 85.2955 62.8406 85.1847C63.0393 85.0739 63.1883 84.9287 63.2877 84.7453V83.6793H62.6878C61.8816 83.6793 61.4537 83.9659 61.4002 84.539L61.3963 84.6383C61.3963 84.8447 61.4651 85.0166 61.6065 85.1465C61.744 85.2803 61.9389 85.349 62.1834 85.349Z" fill="#86C5FF"/>
<path d="M67.7161 80.2941L67.7658 80.9895C68.1937 80.4507 68.7707 80.1794 69.4967 80.1794C70.2723 80.1794 70.8034 80.4966 71.0938 81.127C71.5179 80.4966 72.1216 80.1794 72.9049 80.1794C73.5583 80.1794 74.0435 80.3743 74.3645 80.7679C74.6854 81.1614 74.8421 81.7498 74.8421 82.5369V86.4992H73.2258V82.5407C73.2258 82.1892 73.1571 81.9332 73.0271 81.7689C72.8934 81.6046 72.6565 81.5244 72.3203 81.5244C71.8389 81.5244 71.5026 81.7613 71.3192 82.2351L71.3269 86.4954H69.7183V82.5446C69.7183 82.1854 69.6495 81.9256 69.5119 81.7651C69.3744 81.6046 69.1413 81.5244 68.8089 81.5244C68.3542 81.5244 68.0218 81.7193 67.8193 82.109V86.4954H66.2107V80.2902H67.7161V80.2941Z" fill="#86C5FF"/>
<path d="M79.641 86.5029C79.5684 86.3539 79.5111 86.1667 79.4806 85.9451C79.0908 86.3921 78.5827 86.6176 77.9599 86.6176C77.3714 86.6176 76.8786 86.4418 76.4926 86.0903C76.1029 85.7388 75.9119 85.2955 75.9119 84.7606C75.9119 84.1034 76.1488 83.5991 76.6225 83.2475C77.0963 82.896 77.7803 82.7203 78.6744 82.7126H79.4156V82.3573C79.4156 82.0707 79.343 81.8415 79.2016 81.6695C79.0603 81.4976 78.8348 81.4097 78.5253 81.4097C78.2541 81.4097 78.0439 81.4785 77.8873 81.6122C77.7344 81.7459 77.658 81.9293 77.658 82.1624H76.0494C76.0494 81.8032 76.1564 81.4708 76.3742 81.1652C76.5882 80.8595 76.8938 80.6188 77.2874 80.4468C77.6809 80.2711 78.1242 80.187 78.6132 80.187C79.3545 80.187 79.9467 80.3781 80.3823 80.764C80.8179 81.1499 81.0357 81.6886 81.0357 82.384V85.0739C81.0395 85.6623 81.1197 86.1094 81.2764 86.4112V86.5106H79.641V86.5029ZM78.3076 85.349C78.5445 85.349 78.7661 85.2955 78.9648 85.1847C79.1634 85.0739 79.3125 84.9287 79.4118 84.7453V83.6793H78.8119C78.0057 83.6793 77.5778 83.9659 77.5243 84.539L77.5205 84.6383C77.5205 84.8447 77.5892 85.0166 77.7306 85.1465C77.872 85.2803 78.063 85.349 78.3076 85.349Z" fill="#86C5FF"/>
<path d="M90.6643 83.4539C90.6643 84.4092 90.4541 85.1772 90.0338 85.7503C89.6135 86.3272 89.0442 86.6138 88.3259 86.6138C87.7184 86.6138 87.2255 86.396 86.851 85.9604V88.8872H85.2424V80.2941H86.7364L86.7937 80.9016C87.1834 80.4202 87.6916 80.1794 88.3182 80.1794C89.0595 80.1794 89.6364 80.4622 90.0491 81.0277C90.4618 81.5932 90.6681 82.3726 90.6681 83.3699V83.4539H90.6643ZM89.0519 83.3355C89.0519 82.7585 88.9525 82.3115 88.7538 81.9982C88.5551 81.6849 88.2647 81.5282 87.8865 81.5282C87.3821 81.5282 87.0344 81.7269 86.8434 82.1243V84.6652C87.0421 85.074 87.3898 85.2803 87.8941 85.2803C88.6698 85.2803 89.0519 84.6308 89.0519 83.3355Z" fill="#86C5FF"/>
<path d="M95.2188 86.5029C95.1462 86.3539 95.0889 86.1667 95.0583 85.9451C94.6686 86.3921 94.1604 86.6176 93.5376 86.6176C92.9492 86.6176 92.4563 86.4418 92.0704 86.0903C91.6807 85.7388 91.4896 85.2955 91.4896 84.7606C91.4896 84.1034 91.7265 83.5991 92.2003 83.2475C92.6741 82.896 93.358 82.7203 94.2521 82.7126H94.9934V82.3573C94.9934 82.0707 94.9208 81.8415 94.7794 81.6695C94.638 81.4976 94.4126 81.4097 94.1031 81.4097C93.8318 81.4097 93.6217 81.4785 93.465 81.6122C93.3122 81.7459 93.2358 81.9293 93.2358 82.1624H91.6272C91.6272 81.8032 91.7342 81.4708 91.9519 81.1652C92.1659 80.8595 92.4716 80.6188 92.8651 80.4468C93.2587 80.2711 93.7019 80.187 94.191 80.187C94.9322 80.187 95.5245 80.3781 95.9601 80.764C96.3956 81.1499 96.6134 81.6886 96.6134 82.384V85.0739C96.6172 85.6623 96.6975 86.1094 96.8541 86.4112V86.5106H95.2188V86.5029ZM93.8891 85.349C94.126 85.349 94.3476 85.2955 94.5463 85.1847C94.745 85.0739 94.894 84.9287 94.9934 84.7453V83.6793H94.3935C93.5873 83.6793 93.1593 83.9659 93.1059 84.539L93.102 84.6383C93.102 84.8447 93.1708 85.0166 93.3122 85.1465C93.4497 85.2803 93.6446 85.349 93.8891 85.349Z" fill="#86C5FF"/>
<path d="M101.298 81.849C101.08 81.8184 100.885 81.8032 100.717 81.8032C100.109 81.8032 99.7083 82.0171 99.5211 82.4412V86.5028H97.9125V80.2977H99.4332L99.479 81.039C99.8 80.4697 100.251 80.1831 100.82 80.1831C101 80.1831 101.164 80.206 101.321 80.2557L101.298 81.849Z" fill="#86C5FF"/>
<path d="M105.463 86.5029C105.39 86.3539 105.333 86.1667 105.302 85.9451C104.912 86.3921 104.404 86.6176 103.781 86.6176C103.193 86.6176 102.7 86.4418 102.314 86.0903C101.924 85.7388 101.733 85.2955 101.733 84.7606C101.733 84.1034 101.97 83.5991 102.444 83.2475C102.918 82.896 103.602 82.7203 104.496 82.7126H105.237V82.3573C105.237 82.0707 105.165 81.8415 105.023 81.6695C104.882 81.4976 104.656 81.4097 104.347 81.4097C104.076 81.4097 103.865 81.4785 103.709 81.6122C103.556 81.7459 103.48 81.9293 103.48 82.1624H101.871C101.871 81.8032 101.978 81.4708 102.196 81.1652C102.41 80.8595 102.715 80.6188 103.109 80.4468C103.502 80.2711 103.946 80.187 104.435 80.187C105.176 80.187 105.768 80.3781 106.204 80.764C106.639 81.1499 106.857 81.6886 106.857 82.384V85.0739C106.861 85.6623 106.941 86.1094 107.098 86.4112V86.5106H105.463V86.5029ZM104.133 85.349C104.37 85.349 104.591 85.2955 104.79 85.1847C104.989 85.0739 105.138 84.9287 105.237 84.7453V83.6793H104.637C103.831 83.6793 103.403 83.9659 103.35 84.539L103.346 84.6383C103.346 84.8447 103.415 85.0166 103.556 85.1465C103.697 85.2803 103.888 85.349 104.133 85.349Z" fill="#86C5FF"/>
<path d="M113.838 86.6175C112.955 86.6175 112.237 86.3385 111.679 85.7807C111.125 85.2228 110.846 84.4778 110.846 83.5493V83.3888C110.846 82.766 110.965 82.2082 111.198 81.7153C111.431 81.2224 111.763 80.8441 112.191 80.5805C112.619 80.313 113.108 80.1831 113.658 80.1831C114.484 80.1831 115.129 80.4506 115.603 80.9855C116.077 81.5204 116.314 82.2808 116.314 83.2627V83.939H112.478C112.531 84.344 112.688 84.6688 112.948 84.9134C113.211 85.1579 113.54 85.2802 113.941 85.2802C114.56 85.2802 115.045 85.0509 115.393 84.5848L116.184 85.498C115.943 85.8495 115.615 86.1246 115.202 86.3233C114.793 86.5181 114.338 86.6175 113.838 86.6175ZM113.655 81.5166C113.334 81.5166 113.078 81.6274 112.879 81.849C112.68 82.0706 112.554 82.3916 112.497 82.8042H114.736V82.6705C114.728 82.3037 114.633 82.0171 114.445 81.8146C114.258 81.6198 113.995 81.5166 113.655 81.5166Z" fill="#86C5FF"/>
<path d="M118.996 86.5028H117.38V77.6919H118.996V86.5028Z" fill="#86C5FF"/>
<path d="M33.8592 94.2975L33.9089 94.9929C34.3368 94.4541 34.9138 94.1829 35.6397 94.1829C36.4154 94.1829 36.9465 94.5 37.2368 95.1304C37.661 94.5 38.2647 94.1829 39.0479 94.1829C39.7013 94.1829 40.1866 94.3777 40.5075 94.7713C40.8285 95.1648 40.9851 95.7532 40.9851 96.5403V100.503H39.3689V96.5442C39.3689 96.1926 39.3001 95.9366 39.1702 95.7723C39.0365 95.6081 38.7996 95.5278 38.4633 95.5278C37.9819 95.5278 37.6457 95.7647 37.4623 96.2385L37.4699 100.499H35.8613V96.548C35.8613 96.1888 35.7926 95.929 35.655 95.7685C35.5175 95.608 35.2844 95.5278 34.952 95.5278C34.4973 95.5278 34.1649 95.7227 33.9624 96.1124V100.499H32.3538V94.2937H33.8592V94.2975Z" fill="#86C5FF"/>
<path d="M45.0658 100.621C44.1832 100.621 43.4649 100.342 42.907 99.7844C42.353 99.2265 42.0741 98.4814 42.0741 97.553V97.3925C42.0741 96.7697 42.1925 96.2118 42.4256 95.7189C42.6587 95.2261 42.9911 94.8478 43.419 94.5841C43.847 94.3167 44.3361 94.1868 44.8863 94.1868C45.7116 94.1868 46.3573 94.4542 46.8311 94.9892C47.3049 95.5241 47.5418 96.2844 47.5418 97.2664V97.9427H43.7056C43.7591 98.3477 43.9158 98.6725 44.1756 98.917C44.4392 99.1616 44.7678 99.2838 45.169 99.2838C45.788 99.2838 46.2732 99.0546 46.6209 98.5884L47.4119 99.5016C47.1712 99.8531 46.8426 100.128 46.4299 100.327C46.0211 100.522 45.5664 100.621 45.0658 100.621ZM44.8786 95.5203C44.5577 95.5203 44.3017 95.6311 44.103 95.8527C43.9043 96.0743 43.7782 96.3952 43.7209 96.8079H45.9599V96.6742C45.9523 96.3074 45.8568 96.0208 45.6695 95.8183C45.4861 95.6234 45.2225 95.5203 44.8786 95.5203Z" fill="#86C5FF"/>
<path d="M48.2754 97.3581C48.2754 96.3914 48.4855 95.6196 48.9058 95.0465C49.3261 94.4733 49.9031 94.1868 50.6367 94.1868C51.2213 94.1868 51.7065 94.4122 52.0886 94.8631V91.6956H53.7049V100.507H52.2529L52.1765 99.8455C51.7753 100.361 51.2595 100.621 50.6291 100.621C49.9184 100.621 49.3491 100.335 48.9211 99.7576C48.4894 99.1807 48.2754 98.3821 48.2754 97.3581ZM49.884 97.4804C49.884 98.0611 49.9833 98.5082 50.1782 98.8177C50.3769 99.1272 50.6596 99.2838 51.0341 99.2838C51.5308 99.2838 51.8823 99.066 52.0848 98.6343V96.1813C51.8861 95.7495 51.5384 95.5317 51.0417 95.5317C50.2699 95.5317 49.884 96.1813 49.884 97.4804Z" fill="#86C5FF"/>
<path d="M55.0078 92.6928C55.0078 92.4444 55.088 92.2381 55.2485 92.0776C55.409 91.9172 55.6306 91.8369 55.9095 91.8369C56.1846 91.8369 56.4024 91.9172 56.5667 92.0776C56.731 92.2381 56.8113 92.4444 56.8113 92.6928C56.8113 92.945 56.7272 93.1513 56.5629 93.3118C56.3986 93.4723 56.1808 93.5525 55.9095 93.5525C55.6383 93.5525 55.4205 93.4723 55.2562 93.3118C55.0919 93.1513 55.0078 92.945 55.0078 92.6928ZM56.7196 100.506H55.1033V94.3014H56.7196V100.506Z" fill="#86C5FF"/>
<path d="M57.862 97.3429C57.862 96.7277 57.9766 96.1775 58.2059 95.6961C58.4351 95.2147 58.7675 94.8402 59.1993 94.5766C59.631 94.3129 60.1354 94.1792 60.7047 94.1792C61.5186 94.1792 62.1796 94.4352 62.6954 94.9472C63.2112 95.4592 63.494 96.1546 63.5551 97.0334L63.5666 97.4575C63.5666 98.4089 63.3067 99.1731 62.7909 99.75C62.2751 100.327 61.5835 100.614 60.7124 100.614C59.8412 100.614 59.1496 100.327 58.6338 99.7539C58.1142 99.1807 57.8582 98.4013 57.8582 97.4155V97.3429H57.862ZM59.4706 97.4613C59.4706 98.0498 59.5776 98.5006 59.7953 98.8139C60.0093 99.1272 60.3188 99.2839 60.72 99.2839C61.1097 99.2839 61.4154 99.1311 61.6332 98.8216C61.851 98.5121 61.9618 98.0192 61.9618 97.3429C61.9618 96.7659 61.851 96.3151 61.6332 95.9979C61.4154 95.6808 61.1059 95.5203 60.7085 95.5203C60.315 95.5203 60.0093 95.677 59.7953 95.9941C59.5776 96.3113 59.4706 96.8003 59.4706 97.4613Z" fill="#86C5FF"/>
<path d="M71.0287 100.507C70.9561 100.358 70.8988 100.17 70.8683 99.9487C70.4785 100.396 69.9704 100.621 69.3476 100.621C68.7591 100.621 68.2662 100.445 67.8803 100.094C67.4906 99.7424 67.2996 99.2992 67.2996 98.7643C67.2996 98.1071 67.5365 97.6027 68.0102 97.2512C68.484 96.8997 69.168 96.7239 70.0621 96.7163H70.8033V96.3609C70.8033 96.0744 70.7307 95.8451 70.5893 95.6732C70.448 95.5012 70.2225 95.4134 69.913 95.4134C69.6418 95.4134 69.4316 95.4821 69.275 95.6159C69.1221 95.7496 69.0457 95.933 69.0457 96.1661H67.4371C67.4371 95.8069 67.5441 95.4745 67.7619 95.1688C67.9759 94.8631 68.2815 94.6224 68.6751 94.4505C69.0686 94.2747 69.5119 94.1907 70.0009 94.1907C70.7422 94.1907 71.3344 94.3817 71.77 94.7676C72.2056 95.1535 72.4234 95.6923 72.4234 96.3877V99.0776C72.4272 99.666 72.5074 100.113 72.6641 100.415V100.514H71.0287V100.507ZM69.6991 99.3527C69.936 99.3527 70.1576 99.2992 70.3563 99.1884C70.555 99.0776 70.704 98.9324 70.8033 98.749V97.683H70.2034C69.3972 97.683 68.9693 97.9695 68.9158 98.5427L68.912 98.642C68.912 98.8483 68.9807 99.0203 69.1221 99.1502C69.2597 99.2839 69.4507 99.3527 69.6991 99.3527Z" fill="#86C5FF"/>
<path d="M75.2279 94.2975L75.2776 94.9929C75.7055 94.4541 76.2825 94.1829 77.0085 94.1829C77.7841 94.1829 78.319 94.5 78.6056 95.1304C79.0297 94.5 79.6334 94.1829 80.4167 94.1829C81.0701 94.1829 81.5553 94.3777 81.8763 94.7713C82.1972 95.1648 82.3539 95.7532 82.3539 96.5403V100.503H80.7415V96.5442C80.7415 96.1926 80.6727 95.9366 80.5428 95.7723C80.409 95.6081 80.1721 95.5278 79.8359 95.5278C79.3545 95.5278 79.0182 95.7647 78.8348 96.2385L78.8425 100.499H77.2339V96.548C77.2339 96.1888 77.1651 95.929 77.0276 95.7685C76.89 95.608 76.6569 95.5278 76.3245 95.5278C75.8698 95.5278 75.5374 95.7227 75.3349 96.1124V100.499H73.7263V94.2937H75.2279V94.2975Z" fill="#86C5FF"/>
<path d="M89.09 97.4574C89.09 98.4508 88.8837 99.2264 88.471 99.7843C88.0584 100.342 87.4853 100.617 86.744 100.617C86.0906 100.617 85.5672 100.357 85.1774 99.8416L85.1049 100.503H83.6567V91.6917H85.2653V94.8515C85.636 94.4045 86.125 94.179 86.7287 94.179C87.4623 94.179 88.0393 94.458 88.4558 95.012C88.8722 95.5698 89.0824 96.3531 89.0824 97.3618V97.4574H89.09ZM87.4814 97.3389C87.4814 96.7123 87.3859 96.2538 87.1911 95.9634C86.9962 95.6768 86.7096 95.5316 86.3275 95.5316C85.8155 95.5316 85.4602 95.7494 85.2692 96.1812V98.6304C85.4678 99.066 85.8232 99.2837 86.339 99.2837C86.8586 99.2837 87.1987 99.0201 87.363 98.4928C87.4432 98.2406 87.4814 97.8547 87.4814 97.3389Z" fill="#86C5FF"/>
<path d="M90.1409 92.6928C90.1409 92.4444 90.2211 92.2381 90.3816 92.0776C90.5421 91.9172 90.7637 91.8369 91.0426 91.8369C91.3177 91.8369 91.5355 91.9172 91.6998 92.0776C91.8641 92.2381 91.9443 92.4444 91.9443 92.6928C91.9443 92.945 91.8603 93.1513 91.696 93.3118C91.5317 93.4723 91.3139 93.5525 91.0426 93.5525C90.7713 93.5525 90.5535 93.4723 90.3892 93.3118C90.2211 93.1513 90.1409 92.945 90.1409 92.6928ZM91.8488 100.506H90.2326V94.3014H91.8488V100.506Z" fill="#86C5FF"/>
<path d="M96.0174 100.621C95.1348 100.621 94.4164 100.342 93.8586 99.7844C93.3046 99.2265 93.0256 98.4814 93.0256 97.553V97.3925C93.0256 96.7697 93.1441 96.2118 93.3772 95.7189C93.6102 95.2261 93.9426 94.8478 94.3706 94.5841C94.7985 94.3167 95.2876 94.1868 95.8378 94.1868C96.6631 94.1868 97.3088 94.4542 97.7826 94.9892C98.2564 95.5241 98.4933 96.2844 98.4933 97.2664V97.9427H94.6572C94.7106 98.3477 94.8673 98.6725 95.1271 98.917C95.3908 99.1616 95.7194 99.2838 96.1206 99.2838C96.7395 99.2838 97.2248 99.0546 97.5725 98.5884L98.3634 99.5016C98.1227 99.8531 97.7941 100.128 97.3814 100.327C96.9764 100.522 96.5179 100.621 96.0174 100.621ZM95.834 95.5203C95.513 95.5203 95.257 95.6311 95.0583 95.8527C94.8597 96.0743 94.7336 96.3952 94.6763 96.8079H96.9153V96.6742C96.9077 96.3074 96.8121 96.0208 96.6249 95.8183C96.4377 95.6234 96.174 95.5203 95.834 95.5203Z" fill="#86C5FF"/>
<path d="M100.958 94.2975L101.007 95.0158C101.439 94.4618 102.016 94.1829 102.738 94.1829C103.376 94.1829 103.854 94.3739 104.164 94.7636C104.477 95.1495 104.633 95.7265 104.641 96.4945V100.503H103.033V96.5327C103.033 96.1812 102.96 95.9252 102.811 95.7685C102.662 95.6119 102.414 95.5316 102.07 95.5316C101.615 95.5316 101.275 95.7303 101.05 96.1277V100.503H99.4409V94.2975H100.958Z" fill="#86C5FF"/>
<path d="M107.862 92.7729V94.2975H108.894V95.5125H107.862V98.6113C107.862 98.8405 107.904 99.0048 107.992 99.1042C108.076 99.2035 108.24 99.2532 108.481 99.2532C108.661 99.2532 108.817 99.2417 108.955 99.215V100.472C108.641 100.571 108.313 100.621 107.98 100.621C106.853 100.621 106.276 100.033 106.253 98.8596V95.5163H105.375V94.3013H106.253V92.7768H107.862V92.7729Z" fill="#86C5FF"/>
<path d="M112.631 100.621C111.748 100.621 111.03 100.342 110.472 99.7844C109.918 99.2265 109.639 98.4814 109.639 97.553V97.3925C109.639 96.7697 109.757 96.2118 109.99 95.7189C110.223 95.2261 110.556 94.8478 110.984 94.5841C111.412 94.3167 111.901 94.1868 112.451 94.1868C113.276 94.1868 113.922 94.4542 114.396 94.9892C114.87 95.5241 115.106 96.2844 115.106 97.2664V97.9427H111.27C111.324 98.3477 111.48 98.6725 111.74 98.917C112.004 99.1616 112.333 99.2838 112.734 99.2838C113.353 99.2838 113.838 99.0546 114.186 98.5884L114.977 99.5016C114.736 99.8531 114.407 100.128 113.995 100.327C113.586 100.522 113.131 100.621 112.631 100.621ZM112.443 95.5203C112.122 95.5203 111.866 95.6311 111.668 95.8527C111.469 96.0743 111.343 96.3952 111.286 96.8079H113.525V96.6742C113.517 96.3074 113.421 96.0208 113.234 95.8183C113.051 95.6234 112.787 95.5203 112.443 95.5203Z" fill="#86C5FF"/>
<path d="M104.939 68.2315C102.307 67.4215 100.388 64.9341 100.388 61.9882C100.388 61.4571 100.45 60.9413 100.568 60.4446L104.725 60.9871C104.725 60.9871 106.322 61.0597 106.261 63.9369C106.211 66.7338 104.939 68.2315 104.939 68.2315Z" fill="#86C5FF"/>
<path d="M108.657 68.2315C111.289 67.4215 113.208 64.9341 113.208 61.9882C113.208 61.4571 113.146 60.9413 113.028 60.4446L108.871 60.9871C108.871 60.9871 107.274 61.0597 107.335 63.9369C107.388 66.7338 108.657 68.2315 108.657 68.2315Z" fill="#86C5FF"/>
<path d="M106.8 57.3228C107.335 57.3228 107.77 57.766 107.77 58.3086C107.77 58.7327 107.484 59.0498 107.136 59.237C107.094 59.26 107.056 59.2791 107.063 59.3478C107.071 59.4166 107.27 59.4548 107.358 59.4739L112.948 60.1349C112.164 57.4374 109.711 55.4658 106.807 55.4658H106.8C103.896 55.4658 101.443 57.4336 100.66 60.1349L106.25 59.4739C106.334 59.4548 106.532 59.4166 106.544 59.3478C106.551 59.2791 106.513 59.26 106.471 59.237C106.124 59.0498 105.837 58.7327 105.837 58.3086C105.829 57.7622 106.265 57.3228 106.8 57.3228Z" fill="#86C5FF"/>
<path d="M109.352 72.8469L109.73 72.6062C109.73 72.6062 107.935 70.1265 103.915 70.1265C101.859 70.1265 100.793 70.9709 99.3529 70.9709C99.3529 70.9709 98.7607 71.0435 98.1952 70.6805C98.1952 70.6805 98.8791 71.693 101.363 71.693C103.185 71.693 104.484 70.6079 105.761 70.6079C107.507 70.6079 108.81 72.1974 109.352 72.8469Z" fill="#86C5FF"/>
<path d="M103.774 72.8469L103.396 72.6062C103.396 72.6062 105.191 70.1265 109.211 70.1265C111.267 70.1265 112.333 70.9709 113.773 70.9709C113.773 70.9709 114.365 71.0435 114.931 70.6805C114.931 70.6805 114.247 71.693 111.763 71.693C109.941 71.693 108.642 70.6079 107.365 70.6079C105.615 70.6079 104.316 72.1974 103.774 72.8469Z" fill="#86C5FF"/>
<path d="M101.856 69.9088C101.783 70.0999 101.015 69.8744 100.495 70.0311C99.9147 70.2068 96.8427 70.5851 95.4939 67.3335C95.4939 67.3335 96.7701 68.7282 97.7635 68.8275C98.7569 68.923 99.8459 69.1637 100.767 69.6948L100.981 69.7445C100.981 69.7445 100.95 69.649 100.862 69.5993C100.74 69.5344 99.7847 69.2172 99.3262 67.6736C99.0893 66.8789 99.1352 66.3019 99.0435 65.8931C99.0435 65.8931 100.083 67.0737 100.511 67.8188C100.935 68.5639 100.981 69.4045 101.856 69.9088Z" fill="#86C5FF"/>
<path d="M98.7226 68.2734C98.6461 68.3536 98.4513 68.2237 98.3787 68.1893C98.3061 68.1549 97.7979 67.9142 96.9229 67.6009C96.0594 67.2876 94.4508 65.9044 94.6075 63.5317C94.6075 63.5317 94.8329 64.4219 95.4939 65.0142C96.1549 65.6026 96.3918 65.6752 96.793 66.1566C97.1942 66.638 98.1036 67.7346 98.1418 67.7232C98.1762 67.7117 98.1876 67.6506 98.1189 67.5894C98.0463 67.5283 97.8132 66.9284 97.6565 66.7221C97.5037 66.5158 97.0414 65.1097 97.7138 63.375C97.7138 63.375 98.436 64.6397 98.3863 65.9159C98.3405 67.1921 98.2793 66.8902 98.5888 67.9486C98.5926 67.9486 98.7608 68.239 98.7226 68.2734Z" fill="#86C5FF"/>
<path d="M96.7128 65.1785C96.6707 65.2205 96.4873 64.9493 96.3459 64.6971C96.2046 64.4449 95.2111 63.3598 95.0812 63.1458C94.9513 62.928 93.8394 61.5563 94.68 59.5236C94.68 59.5236 94.7641 59.5007 94.7641 59.9821C94.7641 60.4635 95.1997 61.5334 95.555 61.9919C95.9104 62.4504 96.2275 63.184 96.3001 63.9673C96.3001 63.9673 96.3459 64.1125 96.4071 64.124C96.4644 64.1354 96.4644 63.9788 96.4644 63.9788C96.4644 63.9788 96.4185 63.2566 96.4185 62.7637C96.4185 62.2708 96.6325 61.4264 97.091 60.945C97.091 60.945 97.305 60.7043 97.4349 60.4139C97.4349 60.4139 97.519 60.2228 97.6374 60.1235C97.6374 60.1235 97.7329 61.5066 97.2706 62.7943C96.8083 64.0819 96.6554 64.2997 96.728 64.9989C96.7242 64.9989 96.7395 65.1556 96.7128 65.1785Z" fill="#86C5FF"/>
<path d="M95.9333 61.3769C95.8874 61.3769 95.8492 61.2087 95.8263 61.075C95.8033 60.9413 95.662 60.1733 95.5664 60.0052C95.4709 59.8371 95.1156 59.0652 95.1041 58.1635C95.0927 57.2618 95.4939 56.0315 96.3918 55.0571C96.3918 55.0571 96.3574 55.3475 96.1205 55.9856C95.8836 56.6237 96.025 57.2274 96.0479 57.3344C96.0708 57.4414 96.1549 58.1864 96.1549 58.538C96.1549 58.8131 96.0823 59.7645 96.025 59.9593C96.025 59.9593 96.002 60.0931 96.0479 60.0931C96.0937 60.0931 96.1434 59.9861 96.1434 59.9861C96.1434 59.9861 96.1893 59.241 96.7356 58.5647C97.2782 57.8922 98.2602 57.4796 98.413 57.1815C98.413 57.1815 98.3404 58.2399 97.1941 59.4817C96.174 60.5859 96.472 60.0243 96.1434 60.926C96.1434 60.926 96.002 61.2622 96.002 61.3348C96.0059 61.3998 95.9333 61.3769 95.9333 61.3769Z" fill="#86C5FF"/>
<path d="M96.5599 57.8119C96.5599 57.8119 96.537 57.6667 96.7128 57.342C96.8885 57.0172 96.7013 56.4402 96.9382 55.5958C97.1751 54.7514 97.6107 53.3071 99.2804 52.4436C99.2804 52.4436 99.1161 52.6003 99.0321 52.7187C98.948 52.841 98.501 53.7045 98.371 54.3082C98.2411 54.9119 97.6718 55.9206 97.4617 56.1499C97.2477 56.3791 97.3432 56.402 97.3432 56.402C97.3432 56.402 97.4502 56.3791 97.5572 56.211C97.6642 56.0429 98.2067 55.4163 98.8104 55.2711C99.4141 55.1259 100.369 54.8393 100.43 54.7782C100.43 54.7782 99.3912 55.8633 98.4322 56.4135C97.4731 56.9675 97.37 56.7994 96.8007 57.5445C96.7968 57.5483 96.6096 57.8119 96.5599 57.8119Z" fill="#86C5FF"/>
<path d="M98.8524 54.5985C98.8524 54.5985 98.8524 54.503 99.0282 54.3349C99.2039 54.1667 99.3835 53.6624 99.6892 53.1924C99.9949 52.7225 100.694 51.496 102.501 51.2056C102.501 51.2056 101.959 51.6144 101.875 51.7481C101.791 51.8819 101.26 52.5925 101.023 52.8333C100.786 53.074 100.113 53.5783 99.8879 53.6891C99.8879 53.6891 99.7694 53.7847 99.7924 53.8229C99.8153 53.8573 99.9337 53.7885 99.9337 53.7885C99.9337 53.7885 100.56 53.2956 101.317 53.2727C102.073 53.2497 102.864 53.2841 102.983 53.2956C102.983 53.2956 102.272 53.7885 100.583 54.1018C98.8944 54.4151 99.2116 54.4266 98.9518 54.5947C98.9594 54.587 98.9021 54.6329 98.8524 54.5985Z" fill="#86C5FF"/>
<path d="M101.867 52.6003C101.867 52.6003 101.901 52.5048 102.173 52.4207C102.444 52.3367 102.421 52.073 103.25 51.626C104.079 51.1789 104.939 50.9764 105.814 51.3509C105.814 51.3509 105.447 51.4005 105.39 51.4235C105.333 51.4464 104.706 51.6145 104.526 51.7139C104.351 51.8094 103.437 52.2182 103.071 52.2908C102.704 52.3634 102.88 52.3863 102.88 52.3863C102.88 52.3863 102.964 52.4207 103.032 52.4207C103.105 52.4207 103.919 52.3367 104.45 52.5277C104.981 52.7187 104.97 52.7913 105.184 52.8639C105.398 52.9365 105.646 52.9862 105.68 53.0703C105.68 53.0703 105.149 53.1199 104.828 53.1199C104.507 53.1199 103.671 53.0359 103.269 52.8448C102.868 52.6538 102.406 52.5697 102.253 52.6041C102.104 52.6347 101.917 52.6347 101.867 52.6003Z" fill="#86C5FF"/>
<path d="M105.226 52.1799C105.226 52.1799 105.26 52.1302 105.497 52.0843C105.734 52.0347 105.791 51.8933 106.349 51.771C106.903 51.6488 107.767 51.5418 108.561 52.0958C108.561 52.0958 108.076 52.0843 107.969 52.0843C107.862 52.0843 106.941 52.2525 106.727 52.2525C106.513 52.2525 106.089 52.1569 106.028 52.2295C105.971 52.3021 106.418 52.3977 106.49 52.4206C106.563 52.4435 106.88 52.4703 107.281 52.8676C107.683 53.265 107.965 53.4828 108.015 53.5057C108.015 53.5057 106.834 53.2306 106.536 53.0587C106.242 52.8906 105.734 52.3709 105.65 52.3365C105.57 52.2983 105.226 52.1799 105.226 52.1799Z" fill="#86C5FF"/>
<path d="M107.958 52.6729C107.958 52.6729 108.703 52.65 109.245 52.9977C109.788 53.3454 110.227 53.8039 110.273 54.0828C110.273 54.0828 109.967 53.8192 109.765 53.758C109.562 53.6969 108.997 53.3721 108.878 53.2995C108.76 53.2269 108.076 52.7799 107.958 52.6729Z" fill="#86C5FF"/>
<path d="M111.458 70.0426C111.458 70.0426 111.565 69.9357 111.92 69.6223C112.275 69.309 112.371 68.8505 112.76 68.1398C113.15 67.4292 113.483 66.9363 114.274 66.2141C114.274 66.2141 114.132 66.7567 114.121 66.9248C114.109 67.0929 113.979 68.0329 113.528 68.5754C113.078 69.118 113.055 69.2364 112.535 69.5612C112.535 69.5612 112.333 69.7064 112.344 69.7522C112.355 69.8019 112.699 69.7408 112.699 69.7408C112.699 69.7408 113.078 69.5956 113.196 69.523C113.314 69.4504 113.846 69.1753 114.06 69.0912C114.274 69.0072 114.449 68.9231 114.923 68.7779C115.397 68.6327 117.109 68.1895 117.785 67.0815C117.785 67.0815 117.582 67.731 117.334 68.0328C117.086 68.3347 115.68 70.2222 113.727 70.1878C113.727 70.1878 112.959 70.1267 112.558 70.0541C112.157 69.9815 112.015 69.9815 111.954 69.993C111.893 70.0082 111.515 70.0808 111.458 70.0426Z" fill="#86C5FF"/>
<path d="M115.821 63.291C115.821 63.291 115.087 64.4602 114.923 66.1452C114.759 67.8302 115.041 67.3259 114.77 68.071C114.77 68.071 114.675 68.262 114.713 68.2773C114.747 68.2887 114.889 68.2047 115.412 67.8799C115.932 67.5551 116.44 67.6507 117.552 66.5693C118.664 65.4842 118.889 63.3292 118.912 63.1497C118.912 63.1497 118.748 63.3178 118.664 63.6082C118.58 63.8986 118.404 64.124 118.369 64.1622C118.335 64.1966 117.128 65.5454 116.986 65.6676C116.845 65.7899 116.134 66.6687 115.981 66.9209C115.829 67.173 115.378 67.6316 115.297 67.5933C115.297 67.5933 115.309 67.4864 115.343 67.4023C115.378 67.3182 115.71 66.8597 115.852 66.3325C115.993 65.8014 116.027 65.4766 116.043 65.1403C116.046 64.7926 115.832 63.5547 115.821 63.291Z" fill="#86C5FF"/>
<path d="M116.814 64.915C116.814 64.915 116.742 64.7392 116.803 64.6131C116.837 64.5405 116.875 63.9636 116.662 63.4936C116.448 63.0236 115.989 61.7245 116.023 60.8572C116.058 59.9898 116.153 59.8714 116.153 59.8714C116.153 59.8714 116.39 60.5821 116.459 60.7005C116.532 60.8228 117.238 62.0952 117.181 62.7944C117.124 63.4936 117.086 63.7076 117.124 63.7229C117.158 63.7343 117.242 63.6388 117.254 63.5547C117.265 63.4707 117.384 62.9892 117.609 62.4238C117.835 61.8583 118.744 60.605 118.946 59.7759C118.946 59.7759 119.241 61.2202 118.45 62.5689C117.659 63.9177 117.575 63.6159 117.242 64.231C116.906 64.8424 116.86 64.915 116.814 64.915Z" fill="#86C5FF"/>
<path d="M117.533 61.0979C117.475 61.0864 117.51 60.5324 117.368 60.3528C117.227 60.1732 116.008 58.7022 115.748 57.235C115.748 57.235 116.516 58.0297 116.646 58.1138C116.776 58.1979 117.296 58.729 117.449 59.1836C117.602 59.6421 117.567 60.0281 117.624 60.0395C117.682 60.051 117.682 59.5352 117.682 59.5352C117.682 59.5352 117.693 58.5226 117.777 58.0412C117.861 57.5598 118.072 56.7536 117.98 56.3447C117.98 56.3447 118.442 57.0898 118.415 58.152C118.392 59.2104 117.953 60.0548 117.896 60.1732C117.838 60.2955 117.67 60.8113 117.67 60.9183C117.678 61.0253 117.533 61.0979 117.533 61.0979Z" fill="#86C5FF"/>
<path d="M116.092 53.563C116.092 53.563 117.689 54.5259 117.441 57.7507C117.441 57.7507 117.441 57.8959 117.346 57.7392C117.25 57.5826 116.91 57.1355 116.753 57.04C116.6 56.9445 115.179 56.0657 114.579 54.7169C114.579 54.7169 114.675 54.694 114.816 54.8239C114.957 54.9576 115.397 55.1869 115.466 55.2212C115.538 55.2556 116.035 55.3894 116.398 55.7982C116.765 56.207 116.895 56.5089 117.002 56.7496C117.002 56.7496 117.109 56.8337 117.036 56.5929C116.963 56.3522 116.952 56.1956 116.765 55.8937C116.578 55.5919 116.409 55.0493 116.386 54.6787C116.364 54.3081 116.257 53.754 116.092 53.563Z" fill="#86C5FF"/>
<path d="M115.821 54.6941C115.821 54.6941 115.855 54.4763 115.703 54.1783C115.55 53.8764 115.668 53.544 115.183 52.7454C114.912 52.2984 113.964 51.9507 113.964 51.9507C113.964 51.9507 114.235 52.3366 114.415 52.5544C114.591 52.7722 114.652 52.9288 114.709 53.0358C114.766 53.1428 115.095 53.4638 115.217 53.651C115.24 53.6854 115.29 53.7847 115.29 53.842C115.29 53.9032 115.16 53.8076 115.126 53.7694C115.091 53.735 114.51 53.288 114.144 53.2154C113.777 53.1428 113.081 53.0702 112.89 52.9747C112.89 52.9747 113.72 53.7312 114.617 53.9605C115.512 54.1897 115.821 54.6941 115.821 54.6941Z" fill="#86C5FF"/>
<path d="M113.953 52.7073C113.953 52.7073 113.123 51.5648 111.649 51.5877C111.649 51.5877 111.733 51.6718 111.897 51.71C112.061 51.7444 112.359 52.0462 112.512 52.1418C112.665 52.2373 112.982 52.478 113.953 52.7073Z" fill="#86C5FF"/>
<path d="M49.9642 62.0684C49.9642 63.6808 49.7503 65.1251 49.3262 66.4013C48.8982 67.6812 48.3022 68.7626 47.5303 69.649C46.7585 70.5354 45.8339 71.2194 44.7526 71.697C43.6712 72.1746 42.483 72.4115 41.1877 72.4115C39.8886 72.4115 38.7003 72.1746 37.6228 71.697C36.5415 71.2194 35.613 70.5393 34.8297 69.649C34.0503 68.7626 33.4389 67.6812 33.0033 66.4013C32.5678 65.1251 32.35 63.6808 32.35 62.0684V61.1437C32.35 59.5428 32.5639 58.1023 32.9957 56.8185C33.4275 55.5347 34.0312 54.4457 34.8068 53.5478C35.5824 52.6499 36.5109 51.9621 37.5922 51.4845C38.6735 51.0069 39.8618 50.77 41.1571 50.77C42.4562 50.77 43.6445 51.0069 44.722 51.4845C45.8033 51.9621 46.728 52.6499 47.5074 53.5478C48.2831 54.4457 48.8868 55.5347 49.3185 56.8185C49.7503 58.1023 49.9642 59.5428 49.9642 61.1437V62.0684ZM45.6466 61.1131C45.6466 58.9047 45.2569 57.2273 44.4813 56.0772C43.7056 54.931 42.5976 54.3578 41.1571 54.3578C39.7166 54.3578 38.6086 54.931 37.8329 56.0772C37.0573 57.2235 36.6676 58.9047 36.6676 61.1131V62.0684C36.6676 63.1688 36.7707 64.1393 36.9732 64.9837C37.1758 65.8281 37.47 66.535 37.8559 67.1119C38.238 67.6851 38.7117 68.1206 39.2696 68.4149C39.8274 68.7091 40.4694 68.8543 41.1877 68.8543C42.6281 68.8543 43.7324 68.2773 44.4966 67.1196C45.2646 65.9618 45.6466 64.2807 45.6466 62.0722V61.1131Z" fill="#86C5FF"/>
<path d="M69.8825 72.1248H65.6184L57.3233 58.2665V72.1248H53.063V51.0603H57.3271L65.6375 64.9492V51.0603H69.8863V72.1248H69.8825Z" fill="#86C5FF"/>
<path d="M89.262 51.0603V64.9607C89.262 66.1757 89.0633 67.2494 88.6659 68.1779C88.2686 69.1063 87.7183 69.8858 87.0191 70.5124C86.3161 71.139 85.4831 71.6128 84.5126 71.93C83.5421 72.2471 82.4837 72.4076 81.3375 72.4076C80.1836 72.4076 79.1175 72.2471 78.147 71.93C77.1765 71.6128 76.3398 71.139 75.6405 70.5124C74.9375 69.8858 74.3911 69.1063 74.0014 68.1779C73.6078 67.2456 73.413 66.1757 73.413 64.9607V51.0603H77.6771V64.9607C77.6771 66.34 78.0018 67.3449 78.6514 67.9754C79.3009 68.6058 80.1988 68.9229 81.3451 68.9229C82.499 68.9229 83.3969 68.6058 84.0388 67.9754C84.6769 67.3449 84.9979 66.34 84.9979 64.9607V51.0603H89.262Z" fill="#86C5FF"/>
</g>
<defs>
<clipPath id="clip0_4070_4348">
<rect width="146.8" height="146.8" fill="white"/>
</clipPath>
</defs>
</svg>
