<svg width="148" height="147" viewBox="0 0 148 147" fill="none" xmlns="http://www.w3.org/2000/svg">
<g clip-path="url(#clip0_1_2621)">
<path d="M72.6525 0.440059C73.2925 -0.149941 74.2825 -0.149941 74.9225 0.440059L81.6125 6.57006C82.1325 7.05006 82.9025 7.15006 83.5225 6.82006L91.5725 2.63006C92.3425 2.23006 93.3025 2.48006 93.7725 3.22006L98.6425 10.8701C99.0225 11.4701 99.7325 11.7601 100.423 11.6101L109.283 9.64006C110.133 9.45006 110.993 9.94006 111.253 10.7801L113.983 19.4301C114.193 20.1001 114.803 20.5701 115.513 20.6001L124.573 20.9901C125.443 21.0301 126.143 21.7301 126.183 22.6001L126.573 31.6601C126.603 32.3701 127.073 32.9801 127.743 33.1901L136.393 35.9201C137.223 36.1801 137.723 37.0401 137.533 37.8901L135.563 46.7501C135.413 47.4401 135.703 48.1501 136.303 48.5301L143.953 53.4001C144.693 53.8701 144.943 54.8201 144.543 55.6001L140.353 63.6501C140.023 64.2801 140.123 65.0401 140.603 65.5601L146.733 72.2501C147.323 72.8901 147.323 73.8801 146.733 74.5201L140.603 81.2101C140.123 81.7301 140.023 82.5001 140.353 83.1201L144.543 91.1701C144.943 91.9401 144.693 92.9001 143.953 93.3701L136.303 98.2401C135.703 98.6201 135.413 99.3301 135.563 100.02L137.533 108.88C137.723 109.73 137.233 110.59 136.393 110.85L127.743 113.58C127.073 113.79 126.603 114.4 126.573 115.11L126.183 124.17C126.143 125.04 125.443 125.74 124.573 125.78L115.513 126.17C114.803 126.2 114.193 126.67 113.983 127.34L111.253 135.99C110.993 136.82 110.133 137.32 109.283 137.13L100.423 135.16C99.7325 135.01 99.0225 135.3 98.6425 135.9L93.7725 143.55C93.3025 144.29 92.3525 144.54 91.5725 144.14L83.5225 139.95C82.8925 139.62 82.1325 139.72 81.6125 140.2L74.9225 146.33C74.2825 146.92 73.2925 146.92 72.6525 146.33L65.9625 140.2C65.4425 139.72 64.6725 139.62 64.0525 139.95L56.0025 144.14C55.2325 144.54 54.2725 144.29 53.8025 143.55L48.9325 135.9C48.5525 135.3 47.8425 135.01 47.1525 135.16L38.2925 137.13C37.4425 137.32 36.5825 136.83 36.3225 135.99L33.5925 127.34C33.3825 126.67 32.7725 126.2 32.0625 126.17L23.0025 125.78C22.1325 125.74 21.4325 125.04 21.3925 124.17L21.0025 115.11C20.9725 114.4 20.5025 113.79 19.8325 113.58L11.1825 110.85C10.3525 110.59 9.85252 109.73 10.0425 108.88L12.0125 100.02C12.1625 99.3301 11.8725 98.6201 11.2725 98.2401L3.62252 93.3701C2.88252 92.9001 2.63252 91.9501 3.03252 91.1701L7.22252 83.1201C7.55252 82.4901 7.45252 81.7301 6.97252 81.2101L0.842524 74.5201C0.252524 73.8801 0.252524 72.8901 0.842524 72.2501L6.97252 65.5601C7.45252 65.0401 7.55252 64.2701 7.22252 63.6501L3.03252 55.6001C2.63252 54.8301 2.88252 53.8701 3.62252 53.4001L11.2725 48.5301C11.8725 48.1501 12.1625 47.4401 12.0125 46.7501L10.0425 37.8901C9.85252 37.0401 10.3425 36.1801 11.1825 35.9201L19.8325 33.1901C20.5025 32.9801 20.9725 32.3701 21.0025 31.6601L21.3925 22.6001C21.4325 21.7301 22.1325 21.0301 23.0025 20.9901L32.0625 20.6001C32.7725 20.5701 33.3825 20.1001 33.5925 19.4301L36.3225 10.7801C36.5825 9.95006 37.4425 9.45006 38.2925 9.64006L47.1525 11.6101C47.8425 11.7601 48.5525 11.4701 48.9325 10.8701L53.8025 3.22006C54.2725 2.48006 55.2225 2.23006 56.0025 2.63006L64.0525 6.82006C64.6825 7.15006 65.4425 7.05006 65.9625 6.57006L72.6525 0.440059Z" fill="#F5F7FF"/>
<mask id="mask0_1_2621" style="mask-type:luminance" maskUnits="userSpaceOnUse" x="37" y="50" width="79" height="57">
<path d="M115.403 50.0977H37.9117V106.463H115.403V50.0977Z" fill="white"/>
</mask>
<g mask="url(#mask0_1_2621)">
<path d="M99.0336 69.6367C95.9665 68.7144 93.736 65.8619 93.736 62.4946C93.736 61.8833 93.811 61.2935 93.9397 60.7358L98.7869 61.3578C98.7869 61.3578 100.642 61.4436 100.578 64.7359C100.513 67.9316 99.0336 69.6474 99.0336 69.6474V69.6367Z" fill="#86C5FF"/>
<path d="M103.372 69.6367C106.439 68.7144 108.669 65.8619 108.669 62.4946C108.669 61.8833 108.594 61.2935 108.466 60.7358L103.618 61.3578C103.618 61.3578 101.763 61.4436 101.827 64.7359C101.892 67.9316 103.372 69.6474 103.372 69.6474V69.6367Z" fill="#86C5FF"/>
<path d="M101.205 57.1648C101.827 57.1648 102.331 57.6689 102.331 58.2909C102.331 58.7734 101.999 59.138 101.591 59.3525C101.548 59.3847 101.495 59.3954 101.505 59.4812C101.505 59.5563 101.752 59.5992 101.849 59.6313L108.358 60.382C107.447 57.2935 104.594 55.0415 101.205 55.0415C97.8272 55.0415 94.9639 57.2935 94.0524 60.382L100.562 59.6313C100.658 59.6099 100.894 59.567 100.905 59.4812C100.905 59.4061 100.862 59.3847 100.819 59.3525C100.412 59.138 100.079 58.7734 100.079 58.2909C100.079 57.6689 100.583 57.1648 101.205 57.1648Z" fill="#86C5FF"/>
<path d="M104.178 74.9234L104.618 74.6446C104.618 74.6446 102.527 71.8135 97.8406 71.8135C95.4492 71.8135 94.2052 72.7786 92.5322 72.7786C92.5322 72.7786 91.8459 72.8644 91.181 72.4462C91.181 72.4462 91.9853 73.6044 94.8701 73.6044C96.9934 73.6044 98.5055 72.3604 99.9961 72.3604C102.034 72.3604 103.546 74.1835 104.178 74.9234Z" fill="#86C5FF"/>
<path d="M97.6796 74.9234L97.2399 74.6446C97.2399 74.6446 99.331 71.8135 104.017 71.8135C106.409 71.8135 107.653 72.7786 109.326 72.7786C109.326 72.7786 110.012 72.8644 110.677 72.4462C110.677 72.4462 109.873 73.6044 106.988 73.6044C104.865 73.6044 103.353 72.3604 101.862 72.3604C99.8243 72.3604 98.3123 74.1835 97.6796 74.9234Z" fill="#86C5FF"/>
<path d="M95.4431 71.5561C95.3573 71.7706 94.4672 71.5132 93.8559 71.6955C93.1803 71.8993 89.5985 72.3283 88.0328 68.6178C88.0328 68.6178 89.5235 70.2156 90.6817 70.3229C91.8398 70.4301 93.1053 70.7089 94.1776 71.3095L94.4243 71.3631C94.4243 71.3631 94.3921 71.2559 94.2849 71.2022C94.1455 71.1272 93.0302 70.7626 92.494 68.9931C92.2152 68.0816 92.2795 67.4274 92.1616 66.9556C92.1616 66.9556 93.3734 68.3068 93.8667 69.1647C94.36 70.0119 94.4136 70.977 95.4324 71.5561H95.4431Z" fill="#86C5FF"/>
<path d="M91.8023 69.6902C91.7165 69.776 91.4806 69.6366 91.4056 69.5937C91.3198 69.5508 90.7299 69.2827 89.7112 68.9181C88.7031 68.5642 86.8372 66.977 87.0087 64.2639C87.0087 64.2639 87.2768 65.2826 88.0382 65.9582C88.8104 66.6339 89.0892 66.7196 89.5503 67.2666C90.0222 67.8135 91.0731 69.0682 91.116 69.0575C91.1589 69.0467 91.1696 68.9717 91.0838 68.9073C90.998 68.843 90.7299 68.1459 90.5476 67.9207C90.3653 67.6848 89.8291 66.0762 90.612 64.0923C90.612 64.0923 91.4484 65.54 91.3948 66.9985C91.3412 68.4569 91.2769 68.1138 91.6308 69.3256C91.6308 69.3256 91.8238 69.6473 91.7916 69.6902H91.8023Z" fill="#86C5FF"/>
<path d="M89.4587 66.1514C89.4587 66.1514 89.1906 65.8833 89.0298 65.6045C88.8689 65.315 87.7107 64.0817 87.5606 63.8243C87.4105 63.5777 86.1129 62.0013 87.0887 59.6742C87.0887 59.6742 87.1853 59.642 87.1853 60.1996C87.1853 60.7573 87.6893 61.9798 88.1075 62.4946C88.5258 63.02 88.8904 63.8565 88.9762 64.7573C88.9762 64.7573 89.0298 64.9182 89.0941 64.9396C89.1585 64.9503 89.1585 64.7788 89.1585 64.7788C89.1585 64.7788 89.1048 63.953 89.1048 63.3847C89.1048 62.8163 89.3515 61.8619 89.8877 61.3042C89.8877 61.3042 90.1343 61.0254 90.2845 60.7037C90.2845 60.7037 90.381 60.4892 90.5204 60.3712C90.5204 60.3712 90.6276 61.9584 90.0914 63.4275C89.5552 64.8967 89.3729 65.1541 89.4587 65.9477C89.4587 65.9477 89.4695 66.13 89.448 66.1514H89.4587Z" fill="#86C5FF"/>
<path d="M88.5499 61.7973C88.4963 61.7973 88.4534 61.6043 88.432 61.4541C88.3998 61.304 88.239 60.4246 88.1317 60.2316C88.0245 60.0386 87.6062 59.1592 87.5955 58.1297C87.5848 57.1002 88.0459 55.6954 89.0969 54.5801C89.0969 54.5801 89.054 54.9125 88.7752 55.6417C88.4963 56.371 88.6679 57.0573 88.6894 57.186C88.7215 57.304 88.8073 58.1619 88.8073 58.5587C88.8073 58.8804 88.7215 59.9635 88.6572 60.178C88.6572 60.178 88.625 60.3281 88.6894 60.3281C88.7537 60.3281 88.7966 60.2101 88.7966 60.2101C88.7966 60.2101 88.8502 59.3522 89.4829 58.5908C90.1156 57.8187 91.2631 57.3469 91.4347 57.0037C91.4347 57.0037 91.3489 58.2155 90.0191 59.6311C88.8288 60.8965 89.1827 60.253 88.7966 61.2825C88.7966 61.2825 88.6357 61.6686 88.6357 61.7544C88.6357 61.8402 88.5607 61.808 88.5607 61.808L88.5499 61.7973Z" fill="#86C5FF"/>
<path d="M89.2806 57.7225C89.2806 57.7225 89.2485 57.5616 89.4629 57.1863C89.6667 56.8109 89.4522 56.1568 89.731 55.1916C90.0099 54.2265 90.5139 52.575 92.4549 51.5884C92.4549 51.5884 92.2619 51.7707 92.1654 51.9101C92.0689 52.0495 91.5434 53.0361 91.3933 53.7332C91.2431 54.4195 90.5782 55.5777 90.3316 55.8351C90.0849 56.1032 90.1922 56.1246 90.1922 56.1246C90.1922 56.1246 90.3101 56.0924 90.4388 55.9101C90.5568 55.7171 91.2002 54.9986 91.8973 54.8377C92.5943 54.6769 93.7204 54.3444 93.7847 54.2694C93.7847 54.2694 92.5729 55.5133 91.4576 56.1461C90.3423 56.7788 90.2136 56.5857 89.5595 57.4436C89.5595 57.4436 89.3343 57.7332 89.2806 57.7332V57.7225Z" fill="#86C5FF"/>
<path d="M91.9508 54.0442C91.9508 54.0442 91.9508 53.9369 92.1546 53.7439C92.3583 53.5509 92.5728 52.9718 92.9267 52.4356C93.2806 51.8994 94.0956 50.4946 96.2082 50.1621C96.2082 50.1621 95.5755 50.634 95.479 50.7841C95.3825 50.9342 94.7605 51.7493 94.4924 52.0281C94.2136 52.3069 93.4307 52.886 93.1733 53.004C93.1733 53.004 93.0339 53.1112 93.0661 53.1541C93.0983 53.197 93.2269 53.1112 93.2269 53.1112C93.2269 53.1112 93.9562 52.5428 94.8355 52.5214C95.7149 52.4892 96.6372 52.5321 96.7766 52.5536C96.7766 52.5536 95.9508 53.1219 93.9776 53.4758C92.0044 53.8297 92.3798 53.8511 92.0795 54.0442C92.0795 54.0442 92.0151 54.0978 91.9615 54.0656L91.9508 54.0442Z" fill="#86C5FF"/>
<path d="M95.4547 51.7705C95.4547 51.7705 95.4976 51.6633 95.8086 51.5668C96.1303 51.4703 96.0981 51.17 97.0633 50.6553C98.0285 50.1512 99.0365 49.9153 100.055 50.3335C100.055 50.3335 99.6263 50.3872 99.562 50.4193C99.4976 50.4515 98.7577 50.6338 98.5539 50.7518C98.3502 50.859 97.2885 51.3309 96.8595 51.4059C96.4306 51.4917 96.6451 51.5132 96.6451 51.5132C96.6451 51.5132 96.7416 51.5561 96.8274 51.5561C96.9132 51.5561 97.8569 51.4596 98.4789 51.674C99.1008 51.8885 99.0794 51.9743 99.3368 52.0601C99.5834 52.1459 99.873 52.1995 99.9159 52.296C99.9159 52.296 99.2939 52.3496 98.9293 52.3496C98.5647 52.3496 97.5781 52.2531 97.1062 52.0279C96.6343 51.8134 96.0982 51.7062 95.9266 51.7491C95.7443 51.792 95.5298 51.792 95.4762 51.7491L95.4547 51.7705Z" fill="#86C5FF"/>
<path d="M99.3688 51.2881C99.3688 51.2881 99.4117 51.2345 99.6905 51.1809C99.9693 51.1273 100.034 50.9664 100.677 50.827C101.321 50.6876 102.329 50.5589 103.251 51.2023C103.251 51.2023 102.682 51.1916 102.565 51.1916C102.447 51.1916 101.363 51.3846 101.117 51.3846C100.87 51.3846 100.377 51.2774 100.302 51.3525C100.237 51.4382 100.752 51.5455 100.838 51.5669C100.924 51.5991 101.288 51.6206 101.76 52.071C102.232 52.5214 102.565 52.768 102.618 52.8002C102.618 52.8002 101.245 52.4785 100.892 52.2962C100.548 52.1031 99.9586 51.5133 99.8621 51.4704C99.7656 51.4275 99.3688 51.2881 99.3688 51.2881Z" fill="#86C5FF"/>
<path d="M102.56 51.8458C102.56 51.8458 103.429 51.8136 104.062 52.2211C104.694 52.6179 105.198 53.1434 105.263 53.4651C105.263 53.4651 104.909 53.1649 104.673 53.0898C104.437 53.0254 103.783 52.6501 103.643 52.5643C103.504 52.4785 102.71 51.9745 102.571 51.8458H102.56Z" fill="#86C5FF"/>
<path d="M106.63 71.7064C106.63 71.7064 106.748 71.5884 107.167 71.2238C107.585 70.8699 107.692 70.3445 108.143 69.5294C108.593 68.7144 108.979 68.1568 109.901 67.3203C109.901 67.3203 109.74 67.9423 109.719 68.1353C109.708 68.3284 109.558 69.4008 109.033 70.0227C108.507 70.6447 108.486 70.7841 107.874 71.1488C107.874 71.1488 107.639 71.3096 107.66 71.3632C107.671 71.4169 108.078 71.3525 108.078 71.3525C108.078 71.3525 108.518 71.1917 108.657 71.1059C108.797 71.0201 109.419 70.7091 109.665 70.6126C109.912 70.516 110.116 70.4195 110.673 70.2587C111.22 70.0978 113.215 69.5831 114.009 68.3176C114.009 68.3176 113.773 69.0576 113.483 69.4008C113.194 69.7439 111.553 71.9102 109.279 71.8673C109.279 71.8673 108.389 71.8029 107.917 71.7171C107.446 71.6313 107.285 71.6313 107.22 71.6528C107.145 71.6742 106.706 71.76 106.641 71.7171L106.63 71.7064Z" fill="#86C5FF"/>
<path d="M111.7 63.9851C111.7 63.9851 110.842 65.3256 110.649 67.2452C110.456 69.1755 110.788 68.5964 110.467 69.4543C110.467 69.4543 110.359 69.6688 110.402 69.6902C110.445 69.7009 110.606 69.6044 111.217 69.2398C111.818 68.8645 112.418 68.9717 113.705 67.7385C115.003 66.4945 115.26 64.0387 115.292 63.8242C115.292 63.8242 115.099 64.0172 115.003 64.3497C114.906 64.6821 114.703 64.9395 114.66 64.9824C114.617 65.0253 113.212 66.5695 113.051 66.709C112.89 66.8484 112.065 67.8457 111.882 68.146C111.7 68.4355 111.185 68.961 111.078 68.9181C111.078 68.9181 111.089 68.8001 111.132 68.7036C111.174 68.6071 111.561 68.0816 111.721 67.4811C111.882 66.8805 111.925 66.5052 111.936 66.1191C111.957 65.7331 111.7 64.3175 111.689 64.0065L111.7 63.9851Z" fill="#86C5FF"/>
<path d="M112.873 65.8513C112.873 65.8513 112.787 65.6476 112.862 65.5082C112.905 65.4224 112.948 64.7682 112.701 64.232C112.454 63.6958 111.918 62.2052 111.961 61.2186C112.004 60.232 112.111 60.0926 112.111 60.0926C112.111 60.0926 112.39 60.9076 112.465 61.047C112.551 61.1864 113.377 62.6449 113.302 63.4385C113.237 64.2428 113.194 64.4894 113.237 64.5001C113.28 64.5109 113.377 64.4036 113.387 64.3071C113.398 64.2106 113.537 63.6637 113.806 63.0095C114.074 62.3661 115.125 60.9291 115.361 59.9854C115.361 59.9854 115.704 61.6368 114.781 63.1811C113.859 64.7253 113.763 64.3822 113.377 65.0792C112.991 65.7763 112.937 65.8621 112.883 65.8621L112.873 65.8513Z" fill="#86C5FF"/>
<path d="M113.699 61.4864C113.635 61.4756 113.667 60.8429 113.506 60.6284C113.345 60.4247 111.919 58.741 111.619 57.0681C111.619 57.0681 112.509 57.9796 112.67 58.0761C112.82 58.1727 113.431 58.7732 113.603 59.2987C113.785 59.8241 113.742 60.2638 113.806 60.2745C113.871 60.2853 113.871 59.6955 113.871 59.6955C113.871 59.6955 113.882 58.5373 113.978 57.9904C114.075 57.4434 114.321 56.5212 114.214 56.0493C114.214 56.0493 114.75 56.9072 114.718 58.1083C114.686 59.3201 114.182 60.2853 114.117 60.4247C114.053 60.5641 113.849 61.1539 113.849 61.2826C113.849 61.4006 113.688 61.4864 113.688 61.4864H113.699Z" fill="#86C5FF"/>
<path d="M112.026 52.8642C112.026 52.8642 113.881 53.9688 113.592 57.6578C113.592 57.6578 113.592 57.8187 113.484 57.6471C113.377 57.4648 112.98 56.9607 112.798 56.8428C112.616 56.7355 110.964 55.7275 110.267 54.1832C110.267 54.1832 110.374 54.1511 110.546 54.3012C110.707 54.4513 111.222 54.7194 111.307 54.7516C111.393 54.7945 111.972 54.9446 112.391 55.4058C112.809 55.8669 112.97 56.2208 113.088 56.4889C113.088 56.4889 113.206 56.5854 113.131 56.3066C113.045 56.0278 113.034 55.8562 112.809 55.5023C112.594 55.1591 112.391 54.5371 112.369 54.1082C112.337 53.6899 112.219 53.0572 112.026 52.832V52.8642Z" fill="#86C5FF"/>
<path d="M111.702 54.1621C111.702 54.1621 111.745 53.9155 111.562 53.5723C111.38 53.2291 111.52 52.8431 110.962 51.9316C110.64 51.4275 109.546 51.02 109.546 51.02C109.546 51.02 109.868 51.4597 110.072 51.7064C110.276 51.953 110.351 52.1353 110.415 52.2533C110.479 52.3712 110.865 52.7466 111.005 52.9503C111.037 52.9932 111.091 53.1005 111.091 53.1648C111.091 53.2292 110.94 53.1219 110.898 53.079C110.855 53.0361 110.179 52.5321 109.761 52.4463C109.332 52.3605 108.517 52.2854 108.302 52.1675C108.302 52.1675 109.268 53.0361 110.308 53.2935C111.348 53.5616 111.713 54.1407 111.713 54.1407L111.702 54.1621Z" fill="#86C5FF"/>
<path d="M109.53 51.8885C109.53 51.8885 108.565 50.5802 106.849 50.6124C106.849 50.6124 106.946 50.7089 107.139 50.7518C107.332 50.7947 107.675 51.1379 107.857 51.2451C108.04 51.3631 108.404 51.6312 109.541 51.8993L109.53 51.8885Z" fill="#86C5FF"/>
<path d="M56.6894 50.0977V66.2693C56.6894 67.6849 56.4534 68.9289 55.9816 70.012C55.5097 71.0951 54.8556 71.9959 54.0298 72.7252C53.2041 73.4544 52.2067 74.0013 51.0593 74.3766C49.9118 74.7413 48.6571 74.9343 47.2952 74.9343C45.9332 74.9343 44.6678 74.752 43.5204 74.3766C42.3729 74.012 41.3863 73.4544 40.5498 72.7252C39.7241 71.9959 39.0699 71.0844 38.6088 70.012C38.1477 68.9289 37.9117 67.6849 37.9117 66.2693V50.0977H42.9627V66.2693C42.9627 67.8779 43.3488 69.0469 44.1102 69.7761C44.8823 70.516 45.944 70.8806 47.2952 70.8806C48.6464 70.8806 49.7295 70.516 50.4802 69.7761C51.2416 69.0361 51.6169 67.8779 51.6169 66.2693V50.0977H56.6894Z" fill="#86C5FF"/>
<path d="M80.7626 74.6019H75.7116L65.8885 58.4838V74.6019H60.8375V50.0977H65.8885L75.7331 66.2586V50.0977H80.7626V74.6019Z" fill="#86C5FF"/>
<path d="M41.555 90.4303C40.4934 90.4303 39.6355 90.0979 38.9599 89.433C38.295 88.7681 37.9625 87.8888 37.9625 86.7842V86.5912C37.9625 85.8512 38.1019 85.1863 38.3808 84.6072C38.6596 84.0282 39.0564 83.567 39.5711 83.256C40.0859 82.945 40.6757 82.7842 41.3298 82.7842C42.3164 82.7842 43.0993 83.1059 43.6677 83.7386C44.236 84.3713 44.5148 85.2721 44.5148 86.441V87.2453H39.9143C39.9786 87.7279 40.1609 88.114 40.4826 88.4035C40.7936 88.6931 41.1904 88.8432 41.673 88.8432C42.413 88.8432 43.0028 88.5751 43.421 88.0175L44.3647 89.1006C44.0752 89.5188 43.6891 89.8405 43.1851 90.0765C42.6918 90.3124 42.1449 90.4303 41.5443 90.4303H41.555ZM41.3406 84.3713C40.9545 84.3713 40.6435 84.5 40.4076 84.7681C40.1717 85.0362 40.0215 85.4115 39.9465 85.9048H42.6274V85.744C42.6274 85.3043 42.4987 84.9719 42.2735 84.7252C42.0483 84.4786 41.7373 84.3606 41.3298 84.3606L41.3406 84.3713Z" fill="#86C5FF"/>
<path d="M47.4897 82.9236L47.5541 83.7708C48.0688 83.1166 48.7659 82.7842 49.6345 82.7842C50.3959 82.7842 50.975 83.0094 51.3396 83.4705C51.7149 83.9316 51.908 84.618 51.9187 85.5295V90.2909H49.9884V85.5724C49.9884 85.1542 49.9026 84.8539 49.7203 84.6609C49.538 84.4678 49.2484 84.382 48.8302 84.382C48.2833 84.382 47.8758 84.618 47.6077 85.0898V90.2909H45.6774V82.9236H47.5004H47.4897Z" fill="#86C5FF"/>
<path d="M56.1531 87.889L57.4936 82.9238H59.5097L57.0646 90.3019H55.2201L52.775 82.9238H54.7911L56.1423 87.889H56.1531Z" fill="#86C5FF"/>
<path d="M60.4313 81.0149C60.4313 80.7253 60.5278 80.4787 60.7208 80.2856C60.9139 80.0926 61.1819 79.9961 61.5144 79.9961C61.8468 79.9961 62.1042 80.0926 62.308 80.2856C62.501 80.4787 62.5975 80.7146 62.5975 81.0149C62.5975 81.3151 62.501 81.5618 62.2972 81.7548C62.1042 81.9478 61.8361 82.0444 61.5144 82.0444C61.1927 82.0444 60.9246 81.9478 60.7315 81.7548C60.5385 81.5618 60.4313 81.3259 60.4313 81.0149ZM62.4795 90.2911H60.5385V82.9237H62.4795V90.2911Z" fill="#86C5FF"/>
<path d="M68.2144 84.7681C67.9463 84.7252 67.7211 84.7145 67.5173 84.7145C66.7881 84.7145 66.3055 84.9719 66.0803 85.4652V90.2909H64.15V82.9236H65.9731L66.0267 83.803C66.4128 83.1273 66.949 82.7842 67.6353 82.7842C67.8498 82.7842 68.0535 82.8164 68.2358 82.87L68.2037 84.7681H68.2144Z" fill="#86C5FF"/>
<path d="M68.6891 86.5376C68.6891 85.8083 68.8285 85.1542 69.1073 84.5858C69.3861 84.0067 69.7829 83.567 70.2977 83.256C70.8124 82.945 71.4237 82.7842 72.11 82.7842C73.0859 82.7842 73.8795 83.0844 74.5015 83.6957C75.1234 84.307 75.4666 85.1327 75.531 86.1729V86.677C75.5417 87.803 75.2307 88.7145 74.6194 89.4008C73.9974 90.0872 73.1717 90.4303 72.1315 90.4303C71.0912 90.4303 70.2548 90.0872 69.6328 89.4116C69.0108 88.736 68.6998 87.803 68.6998 86.6341V86.5483L68.6891 86.5376ZM70.6194 86.677C70.6194 87.374 70.7481 87.9102 71.0055 88.2856C71.2628 88.6609 71.6382 88.8432 72.1207 88.8432C72.6033 88.8432 72.9572 88.6609 73.2146 88.2963C73.4827 87.9317 73.6114 87.3419 73.6114 86.5376C73.6114 85.8512 73.4827 85.315 73.2146 84.9397C72.9465 84.5644 72.5819 84.3713 72.0993 84.3713C71.6167 84.3713 71.2628 84.5644 71.0055 84.9397C70.7481 85.315 70.6194 85.8941 70.6194 86.6877V86.677Z" fill="#86C5FF"/>
<path d="M78.5874 82.9236L78.6517 83.7708C79.1665 83.1166 79.8635 82.7842 80.7322 82.7842C81.4936 82.7842 82.0726 83.0094 82.4373 83.4705C82.8126 83.9316 83.0056 84.618 83.0164 85.5295V90.2909H81.086V85.5724C81.086 85.1542 81.0003 84.8539 80.8179 84.6609C80.6356 84.4678 80.3461 84.382 79.9279 84.382C79.3809 84.382 78.9734 84.618 78.7053 85.0898V90.2909H76.775V82.9236H78.5981H78.5874Z" fill="#86C5FF"/>
<path d="M86.3667 82.9236L86.4311 83.7493C86.9458 83.1059 87.6321 82.7842 88.5115 82.7842C89.4445 82.7842 90.0772 83.1595 90.4311 83.9102C90.9351 83.1595 91.6643 82.7842 92.5973 82.7842C93.3802 82.7842 93.9592 83.0201 94.3453 83.4812C94.7314 83.9424 94.9244 84.6501 94.9244 85.5831V90.2909H92.9834V85.5939C92.9834 85.1756 92.9083 84.8646 92.7474 84.6823C92.5866 84.4893 92.3078 84.3928 91.9003 84.3928C91.3212 84.3928 90.9244 84.6716 90.6992 85.24V90.3017H88.7796V85.6046C88.7796 85.1756 88.6938 84.8646 88.5329 84.6823C88.3721 84.4893 88.0933 84.3928 87.6965 84.3928C87.1496 84.3928 86.7528 84.6287 86.5061 85.0898V90.3017H84.5758V82.9343H86.3882L86.3667 82.9236Z" fill="#86C5FF"/>
<path d="M99.8129 90.4303C98.7512 90.4303 97.8933 90.0979 97.2177 89.433C96.5528 88.7681 96.2203 87.8888 96.2203 86.7842V86.5912C96.2203 85.8512 96.3597 85.1863 96.6386 84.6072C96.9174 84.0282 97.3142 83.567 97.8289 83.256C98.3437 82.945 98.9335 82.7842 99.5877 82.7842C100.574 82.7842 101.357 83.1059 101.925 83.7386C102.494 84.3713 102.773 85.2721 102.773 86.441V87.2453H98.1721C98.2364 87.7279 98.4187 88.114 98.7405 88.4035C99.0515 88.6931 99.4482 88.8432 99.9308 88.8432C100.671 88.8432 101.261 88.5751 101.679 88.0175L102.623 89.1006C102.333 89.5188 101.947 89.8405 101.443 90.0765C100.96 90.3124 100.403 90.4303 99.8021 90.4303H99.8129ZM99.5984 84.3713C99.2123 84.3713 98.9013 84.5 98.6654 84.7681C98.4295 85.0362 98.2793 85.4115 98.2043 85.9048H100.885V85.744C100.885 85.3043 100.757 84.9719 100.531 84.7252C100.306 84.4786 99.9952 84.3606 99.5877 84.3606L99.5984 84.3713Z" fill="#86C5FF"/>
<path d="M105.732 82.9236L105.796 83.7708C106.311 83.1166 107.008 82.7842 107.877 82.7842C108.638 82.7842 109.217 83.0094 109.582 83.4705C109.957 83.9316 110.15 84.618 110.161 85.5295V90.2909H108.23V85.5724C108.23 85.1542 108.145 84.8539 107.962 84.6609C107.78 84.4678 107.49 84.382 107.072 84.382C106.525 84.382 106.118 84.618 105.85 85.0898V90.2909H103.919V82.9236H105.742H105.732Z" fill="#86C5FF"/>
<path d="M114.006 81.1006V82.9129H115.24V84.3607H114.006V88.039C114.006 88.3071 114.06 88.5108 114.156 88.6181C114.264 88.736 114.457 88.8004 114.746 88.8004C114.961 88.8004 115.154 88.7789 115.315 88.7575V90.2481C114.939 90.3661 114.542 90.4304 114.146 90.4304C112.794 90.4304 112.097 89.7334 112.076 88.3392V84.3607H111.025V82.9129H112.076V81.1006H114.006Z" fill="#86C5FF"/>
<path d="M44.7454 99.9319C44.7454 101.069 44.488 101.98 43.984 102.666C43.48 103.353 42.7936 103.696 41.9357 103.696C41.2065 103.696 40.6167 103.439 40.1663 102.924V106.398H38.236V96.1892H40.0269L40.0912 96.9077C40.5631 96.3286 41.1636 96.0498 41.925 96.0498C42.8151 96.0498 43.5121 96.393 44.0054 97.0578C44.4987 97.7335 44.7454 98.6557 44.7454 99.8354V99.9319ZM42.8151 99.7925C42.8151 99.1061 42.6971 98.5806 42.4612 98.2053C42.2253 97.83 41.8821 97.6477 41.421 97.6477C40.8204 97.6477 40.4022 97.8836 40.1663 98.3554V101.38C40.4022 101.862 40.8204 102.109 41.4317 102.109C42.354 102.109 42.8151 101.337 42.8151 99.8032V99.7925Z" fill="#86C5FF"/>
<path d="M50.0816 98.023C49.8135 97.9801 49.5883 97.9693 49.3845 97.9693C48.6553 97.9693 48.1727 98.2267 47.9475 98.72V103.546H46.0172V96.1677H47.8403L47.8939 97.0471C48.28 96.3715 48.8162 96.0283 49.5025 96.0283C49.717 96.0283 49.9207 96.0605 50.103 96.1141L50.0709 98.0122L50.0816 98.023Z" fill="#86C5FF"/>
<path d="M50.5448 99.8032C50.5448 99.074 50.6842 98.4198 50.963 97.8514C51.2419 97.2723 51.6386 96.8326 52.1534 96.5217C52.6681 96.2107 53.2794 96.0498 53.9657 96.0498C54.9416 96.0498 55.7352 96.3501 56.3572 96.9613C56.9792 97.5726 57.3223 98.3983 57.3867 99.4386V99.9426C57.3974 101.069 57.0864 101.98 56.4751 102.666C55.8532 103.353 55.0274 103.696 53.9872 103.696C52.947 103.696 52.1105 103.353 51.4885 102.677C50.8665 102.002 50.5555 101.069 50.5555 99.8997V99.8139L50.5448 99.8032ZM52.4751 99.9426C52.4751 100.64 52.6038 101.176 52.8612 101.551C53.1185 101.927 53.4939 102.109 53.9765 102.109C54.459 102.109 54.8129 101.927 55.0703 101.562C55.3384 101.197 55.4671 100.607 55.4671 99.8032C55.4671 99.1169 55.3384 98.5806 55.0703 98.2053C54.8022 97.83 54.4376 97.6369 53.955 97.6369C53.4724 97.6369 53.1185 97.83 52.8612 98.2053C52.6038 98.5806 52.4751 99.1597 52.4751 99.9533V99.9426Z" fill="#86C5FF"/>
<path d="M58.3844 99.8139C58.3844 98.6879 58.6525 97.7656 59.178 97.0793C59.7034 96.393 60.4219 96.0391 61.312 96.0391C62.1056 96.0391 62.7169 96.3179 63.1673 96.8648L63.2423 96.1678H64.9903V103.299C64.9903 103.943 64.8509 104.5 64.5614 104.983C64.2718 105.465 63.8751 105.819 63.3496 106.077C62.8241 106.323 62.2236 106.452 61.5158 106.452C60.9903 106.452 60.4648 106.345 59.9608 106.13C59.4568 105.916 59.0707 105.637 58.8241 105.294L59.682 104.093C60.1646 104.64 60.7437 104.918 61.43 104.918C61.9447 104.918 62.3415 104.779 62.6311 104.5C62.9099 104.221 63.06 103.825 63.06 103.31V102.913C62.6204 103.428 62.0305 103.685 61.3013 103.685C60.4327 103.685 59.7249 103.342 59.1887 102.645C58.6525 101.948 58.3844 101.036 58.3844 99.889V99.8139ZM60.3147 99.964C60.3147 100.629 60.4434 101.154 60.7115 101.54C60.9796 101.916 61.3335 102.109 61.7946 102.109C62.3844 102.109 62.8027 101.884 63.06 101.433V98.3233C62.8027 97.8729 62.3844 97.6477 61.8053 97.6477C61.3442 97.6477 60.9796 97.8407 60.7115 98.2267C60.4541 98.6128 60.3147 99.1919 60.3147 99.964Z" fill="#86C5FF"/>
<path d="M70.6206 98.023C70.3525 97.9801 70.1273 97.9693 69.9236 97.9693C69.1944 97.9693 68.7118 98.2267 68.4866 98.72V103.546H66.5563V96.1677H68.3793L68.433 97.0471C68.819 96.3715 69.3552 96.0283 70.0416 96.0283C70.256 96.0283 70.4598 96.0605 70.6421 96.1141L70.6099 98.0122L70.6206 98.023Z" fill="#86C5FF"/>
<path d="M75.618 103.557C75.5322 103.374 75.4679 103.16 75.425 102.902C74.9531 103.439 74.3526 103.696 73.6019 103.696C72.8941 103.696 72.3043 103.492 71.8432 103.074C71.382 102.656 71.1461 102.13 71.1461 101.487C71.1461 100.704 71.4249 100.103 71.9933 99.6852C72.5617 99.267 73.3767 99.0525 74.4491 99.0525H75.3392V98.6235C75.3392 98.2803 75.2534 98.0123 75.0818 97.8085C74.9102 97.6047 74.6421 97.4975 74.2668 97.4975C73.9451 97.4975 73.6877 97.5726 73.5054 97.7334C73.3231 97.8943 73.2266 98.1088 73.2266 98.3876H71.2963C71.2963 97.9586 71.4249 97.5618 71.6823 97.1972C71.9397 96.8326 72.3043 96.5431 72.7762 96.3393C73.248 96.1356 73.7735 96.0283 74.3633 96.0283C75.2534 96.0283 75.9612 96.2535 76.4866 96.7147C77.0121 97.1758 77.2695 97.8085 77.2695 98.6342V101.83C77.2695 102.527 77.366 103.063 77.559 103.417V103.535H75.6073L75.618 103.557ZM74.0201 102.184C74.299 102.184 74.5671 102.12 74.8137 101.991C75.0496 101.862 75.2319 101.691 75.3499 101.465V100.2H74.6314C73.6662 100.2 73.1515 100.543 73.0871 101.219V101.337C73.0871 101.583 73.1622 101.787 73.3338 101.937C73.5054 102.098 73.7413 102.184 74.0309 102.184H74.0201Z" fill="#86C5FF"/>
<path d="M80.6597 96.1785L80.724 97.0042C81.2388 96.3608 81.9251 96.0391 82.8045 96.0391C83.7374 96.0391 84.3702 96.4144 84.724 97.1651C85.2281 96.4144 85.9573 96.0391 86.8903 96.0391C87.6731 96.0391 88.2522 96.275 88.6383 96.7361C89.0243 97.1972 89.2174 97.905 89.2174 98.838V103.546H87.2763V98.8487C87.2763 98.4305 87.2013 98.1195 87.0404 97.9372C86.8796 97.7442 86.6007 97.6477 86.1932 97.6477C85.6141 97.6477 85.2173 97.9265 84.9921 98.4948V103.557H83.0726V98.8595C83.0726 98.4305 82.9868 98.1195 82.8259 97.9372C82.6651 97.7442 82.3862 97.6477 81.9894 97.6477C81.4425 97.6477 81.0457 97.8836 80.7991 98.3447V103.557H78.8688V96.1785H80.6811H80.6597Z" fill="#86C5FF"/>
<path d="M92.5815 96.1785L92.6459 97.0042C93.1606 96.3608 93.847 96.0391 94.7263 96.0391C95.6593 96.0391 96.292 96.4144 96.6459 97.1651C97.1499 96.4144 97.8792 96.0391 98.8121 96.0391C99.595 96.0391 100.174 96.275 100.56 96.7361C100.946 97.1972 101.139 97.905 101.139 98.838V103.546H99.1982V98.8487C99.1982 98.4305 99.1231 98.1195 98.9623 97.9372C98.8014 97.7442 98.5226 97.6477 98.1151 97.6477C97.536 97.6477 97.1392 97.9265 96.914 98.4948V103.557H94.9944V98.8595C94.9944 98.4305 94.9086 98.1195 94.7478 97.9372C94.5869 97.7442 94.3081 97.6477 93.9113 97.6477C93.3644 97.6477 92.9676 97.8836 92.721 98.3447V103.557H90.7906V96.1785H92.603H92.5815Z" fill="#86C5FF"/>
<path d="M106.032 103.685C104.97 103.685 104.112 103.353 103.436 102.688C102.772 102.023 102.439 101.144 102.439 100.039V99.8461C102.439 99.1061 102.578 98.4412 102.857 97.8621C103.136 97.283 103.533 96.8219 104.048 96.5109C104.562 96.1999 105.152 96.0391 105.806 96.0391C106.793 96.0391 107.576 96.3608 108.144 96.9935C108.713 97.6262 108.991 98.527 108.991 99.6959V100.5H104.391C104.455 100.983 104.637 101.369 104.959 101.658C105.27 101.948 105.667 102.098 106.15 102.098C106.89 102.098 107.479 101.83 107.898 101.272L108.841 102.355C108.552 102.774 108.166 103.095 107.662 103.331C107.179 103.567 106.621 103.685 106.021 103.685H106.032ZM105.817 97.6262C105.431 97.6262 105.12 97.7549 104.884 98.023C104.648 98.2911 104.498 98.6664 104.423 99.1597H107.104V98.9989C107.104 98.5592 106.975 98.2267 106.75 97.9801C106.525 97.7334 106.214 97.6155 105.806 97.6155L105.817 97.6262Z" fill="#86C5FF"/>
</g>
</g>
<defs>
<clipPath id="clip0_1_2621">
<rect width="146.8" height="146.8" fill="white" transform="translate(0.400024)"/>
</clipPath>
</defs>
</svg>
