<svg width="147" height="147" viewBox="0 0 147 147" fill="none" xmlns="http://www.w3.org/2000/svg">
<g clip-path="url(#clip0_4070_4528)">
<path d="M72.2525 0.438594C72.8925 -0.151406 73.8825 -0.151406 74.5225 0.438594L81.2125 6.56859C81.7325 7.04859 82.5025 7.14859 83.1225 6.81859L91.1725 2.62859C91.9425 2.22859 92.9025 2.47859 93.3725 3.21859L98.2425 10.8686C98.6225 11.4686 99.3325 11.7586 100.022 11.6086L108.882 9.63859C109.732 9.44859 110.593 9.93859 110.853 10.7786L113.582 19.4286C113.792 20.0986 114.403 20.5686 115.113 20.5986L124.173 20.9886C125.043 21.0286 125.743 21.7286 125.783 22.5986L126.173 31.6586C126.203 32.3686 126.672 32.9786 127.342 33.1886L135.992 35.9186C136.822 36.1786 137.322 37.0386 137.132 37.8886L135.162 46.7486C135.012 47.4386 135.302 48.1486 135.902 48.5286L143.552 53.3986C144.292 53.8686 144.542 54.8186 144.142 55.5986L139.952 63.6486C139.622 64.2786 139.722 65.0386 140.202 65.5586L146.332 72.2486C146.922 72.8886 146.922 73.8786 146.332 74.5186L140.202 81.2086C139.722 81.7286 139.622 82.4986 139.952 83.1186L144.142 91.1686C144.542 91.9386 144.292 92.8986 143.552 93.3686L135.902 98.2386C135.302 98.6186 135.012 99.3286 135.162 100.019L137.132 108.879C137.322 109.729 136.832 110.589 135.992 110.849L127.342 113.579C126.672 113.789 126.203 114.399 126.173 115.109L125.783 124.169C125.743 125.039 125.043 125.739 124.173 125.779L115.113 126.169C114.403 126.199 113.792 126.669 113.582 127.339L110.853 135.989C110.593 136.819 109.732 137.319 108.882 137.129L100.022 135.159C99.3325 135.009 98.6225 135.299 98.2425 135.899L93.3725 143.549C92.9025 144.289 91.9525 144.539 91.1725 144.139L83.1225 139.949C82.4925 139.619 81.7325 139.719 81.2125 140.199L74.5225 146.329C73.8825 146.919 72.8925 146.919 72.2525 146.329L65.5625 140.199C65.0425 139.719 64.2725 139.619 63.6525 139.949L55.6025 144.139C54.8325 144.539 53.8725 144.289 53.4025 143.549L48.5325 135.899C48.1525 135.299 47.4425 135.009 46.7525 135.159L37.8925 137.129C37.0425 137.319 36.1825 136.829 35.9225 135.989L33.1925 127.339C32.9825 126.669 32.3725 126.199 31.6625 126.169L22.6025 125.779C21.7325 125.739 21.0325 125.039 20.9925 124.169L20.6025 115.109C20.5725 114.399 20.1025 113.789 19.4325 113.579L10.7825 110.849C9.9525 110.589 9.4525 109.729 9.6425 108.879L11.6125 100.019C11.7625 99.3286 11.4725 98.6186 10.8725 98.2386L3.2225 93.3686C2.4825 92.8986 2.2325 91.9486 2.6325 91.1686L6.8225 83.1186C7.1525 82.4886 7.0525 81.7286 6.5725 81.2086L0.4425 74.5186C-0.1475 73.8786 -0.1475 72.8886 0.4425 72.2486L6.5725 65.5586C7.0525 65.0386 7.1525 64.2686 6.8225 63.6486L2.6325 55.5986C2.2325 54.8286 2.4825 53.8686 3.2225 53.3986L10.8725 48.5286C11.4725 48.1486 11.7625 47.4386 11.6125 46.7486L9.6425 37.8886C9.4525 37.0386 9.9425 36.1786 10.7825 35.9186L19.4325 33.1886C20.1025 32.9786 20.5725 32.3686 20.6025 31.6586L20.9925 22.5986C21.0325 21.7286 21.7325 21.0286 22.6025 20.9886L31.6625 20.5986C32.3725 20.5686 32.9825 20.0986 33.1925 19.4286L35.9225 10.7786C36.1825 9.94859 37.0425 9.44859 37.8925 9.63859L46.7525 11.6086C47.4425 11.7586 48.1525 11.4686 48.5325 10.8686L53.4025 3.21859C53.8725 2.47859 54.8225 2.22859 55.6025 2.62859L63.6525 6.81859C64.2825 7.14859 65.0425 7.04859 65.5625 6.56859L72.2525 0.438594Z" fill="#F5F7FF"/>
<path d="M37.8215 83.0244C37.8215 83.9567 37.6152 84.7018 37.1987 85.2635C36.7822 85.8251 36.2244 86.104 35.5213 86.104C34.9215 86.104 34.44 85.8939 34.0694 85.466V88.3163H32.4875V79.9448H33.9548L34.0083 80.537C34.3903 80.0671 34.8909 79.834 35.5099 79.834C36.2397 79.834 36.809 80.1091 37.214 80.6593C37.619 81.2095 37.8215 81.9699 37.8215 82.9404V83.0244ZM36.2397 82.9098C36.2397 82.3481 36.1403 81.9125 35.9454 81.6069C35.7506 81.3012 35.464 81.1484 35.0934 81.1484C34.5967 81.1484 34.2566 81.3432 34.0694 81.7291V84.2051C34.2643 84.6024 34.6081 84.8011 35.1049 84.8011C35.8614 84.8011 36.2397 84.1707 36.2397 82.9098Z" fill="#86C5FF"/>
<path d="M42.2002 81.4617C41.9824 81.4311 41.7952 81.4158 41.6309 81.4158C41.031 81.4158 40.6374 81.6222 40.454 82.0348V85.9894H38.8722V79.9448H40.3662L40.412 80.6669C40.7291 80.1129 41.1685 79.834 41.7302 79.834C41.906 79.834 42.0703 79.8569 42.2231 79.9066L42.2002 81.4617Z" fill="#86C5FF"/>
<path d="M42.5862 82.9136C42.5862 82.3137 42.7008 81.7788 42.9262 81.3088C43.1517 80.8389 43.4803 80.4759 43.9044 80.2199C44.3285 79.9639 44.8252 79.834 45.3869 79.834C46.1855 79.834 46.8388 80.0823 47.3432 80.5829C47.8475 81.0834 48.1303 81.7597 48.1914 82.6156L48.2029 83.0282C48.2029 83.9567 47.9507 84.7018 47.4425 85.2596C46.9343 85.8213 46.2542 86.1002 45.3984 86.1002C44.5425 86.1002 43.8624 85.8213 43.3504 85.2635C42.8422 84.7056 42.5862 83.9452 42.5862 82.9824V82.9136ZM44.1718 83.0282C44.1718 83.6052 44.2788 84.0408 44.489 84.3464C44.6991 84.6521 45.0048 84.8011 45.3984 84.8011C45.7804 84.8011 46.0823 84.6521 46.2963 84.3503C46.5102 84.0484 46.621 83.5708 46.621 82.9098C46.621 82.3481 46.514 81.9087 46.2963 81.5992C46.0785 81.2897 45.7766 81.1331 45.3869 81.1331C45.001 81.1331 44.6991 81.2859 44.489 81.5954C44.275 81.9049 44.1718 82.3825 44.1718 83.0282Z" fill="#86C5FF"/>
<path d="M49.0128 82.9252C49.0128 81.9967 49.2306 81.2516 49.6624 80.6861C50.0941 80.1206 50.6787 79.8379 51.4123 79.8379C52.0619 79.8379 52.5701 80.0633 52.9292 80.518L52.9942 79.9487H54.4308V85.7946C54.4308 86.3257 54.3124 86.7843 54.0755 87.174C53.8386 87.5675 53.51 87.8617 53.0821 88.0681C52.6541 88.2744 52.1536 88.3737 51.5805 88.3737C51.1449 88.3737 50.7208 88.2859 50.3081 88.1101C49.8954 87.9343 49.5821 87.7051 49.372 87.4262L50.075 86.4442C50.4686 86.8951 50.9462 87.1205 51.5117 87.1205C51.932 87.1205 52.2567 87.0059 52.4936 86.7766C52.7267 86.5474 52.8452 86.2226 52.8452 85.8023V85.4775C52.4784 85.8978 52.0007 86.108 51.4047 86.108C50.694 86.108 50.1171 85.8252 49.6776 85.2559C49.2382 84.6866 49.0166 83.9339 49.0166 82.9978V82.9252H49.0128ZM50.5947 83.0474C50.5947 83.5938 50.7016 84.0256 50.9194 84.3351C51.1372 84.6484 51.4314 84.8012 51.8059 84.8012C52.2873 84.8012 52.6312 84.6178 52.8413 84.2472V81.7025C52.6274 81.3319 52.2873 81.1485 51.8173 81.1485C51.4391 81.1485 51.1372 81.3051 50.9233 81.6222C50.7055 81.9394 50.5947 82.4132 50.5947 83.0474Z" fill="#86C5FF"/>
<path d="M59.0465 81.4617C58.8287 81.4311 58.6415 81.4158 58.4772 81.4158C57.8773 81.4158 57.4838 81.6222 57.3004 82.0348V85.9894H55.7147V79.9448H57.2087L57.2545 80.6669C57.5717 80.1129 58.0111 79.834 58.5727 79.834C58.7485 79.834 58.9128 79.8569 59.0656 79.9066L59.0465 81.4617Z" fill="#86C5FF"/>
<path d="M63.1424 85.9932C63.0698 85.8481 63.0163 85.6685 62.9858 85.4507C62.6037 85.8863 62.1031 86.104 61.4918 86.104C60.911 86.104 60.4296 85.9321 60.0475 85.592C59.6654 85.2482 59.4744 84.8164 59.4744 84.2968C59.4744 83.6549 59.7074 83.1658 60.1736 82.8219C60.6397 82.478 61.3122 82.3061 62.191 82.3023H62.9208V81.9546C62.9208 81.6756 62.852 81.4502 62.7107 81.2821C62.5693 81.114 62.3477 81.0299 62.0458 81.0299C61.7784 81.0299 61.572 81.0949 61.4192 81.2248C61.2664 81.3547 61.1938 81.5343 61.1938 81.7597H59.6119C59.6119 81.4082 59.7189 81.0872 59.9291 80.7854C60.1392 80.4874 60.441 80.2543 60.827 80.0862C61.2129 79.918 61.6484 79.834 62.1299 79.834C62.8597 79.834 63.4404 80.0212 63.8684 80.3956C64.2963 80.7701 64.5103 81.2974 64.5103 81.9737V84.5948C64.5141 85.1679 64.5943 85.6035 64.7472 85.8977V85.9932H63.1424ZM61.8357 84.8699C62.0687 84.8699 62.2865 84.8164 62.4814 84.7094C62.6801 84.6024 62.8253 84.4611 62.9208 84.2815V83.2422H62.3286C61.5376 83.2422 61.1135 83.5211 61.0639 84.079L61.06 84.1745C61.06 84.377 61.1288 84.5413 61.2664 84.6712C61.4039 84.8049 61.595 84.8699 61.8357 84.8699Z" fill="#86C5FF"/>
<path d="M67.2767 79.9487L67.3264 80.625C67.7467 80.1015 68.3122 79.8379 69.0305 79.8379C69.7947 79.8379 70.3181 80.1436 70.6047 80.7587C71.0212 80.1436 71.6134 79.8379 72.3852 79.8379C73.0271 79.8379 73.5047 80.0289 73.8219 80.411C74.1352 80.7931 74.2918 81.3662 74.2918 82.1342V85.9933H72.7023V82.1381C72.7023 81.7942 72.6374 81.5458 72.5037 81.3853C72.3737 81.2287 72.1407 81.1485 71.8083 81.1485C71.3345 81.1485 71.0059 81.3777 70.8225 81.84L70.8263 85.9933H69.2444V82.1419C69.2444 81.7904 69.1757 81.5382 69.0419 81.3815C68.9082 81.2249 68.6751 81.1485 68.3504 81.1485C67.8995 81.1485 67.5747 81.3395 67.376 81.7178V85.9933H65.7942V79.9487H67.2767Z" fill="#86C5FF"/>
<path d="M77.0543 79.9487L77.1039 80.625C77.5242 80.1015 78.0897 79.8379 78.8081 79.8379C79.5722 79.8379 80.0957 80.1436 80.3823 80.7587C80.7987 80.1436 81.391 79.8379 82.1628 79.8379C82.8047 79.8379 83.2823 80.0289 83.5994 80.411C83.9128 80.7931 84.0694 81.3662 84.0694 82.1342V85.9933H82.4799V82.1381C82.4799 81.7942 82.415 81.5458 82.2812 81.3853C82.1513 81.2287 81.9183 81.1485 81.5858 81.1485C81.1121 81.1485 80.7835 81.3777 80.6001 81.84L80.6039 85.9933H79.022V82.1419C79.022 81.7904 78.9533 81.5382 78.8195 81.3815C78.6858 81.2249 78.4527 81.1485 78.1279 81.1485C77.6771 81.1485 77.3523 81.3395 77.1536 81.7178V85.9933H75.5718V79.9487H77.0543Z" fill="#86C5FF"/>
<path d="M88.0814 86.1041C87.2102 86.1041 86.5033 85.8329 85.957 85.2903C85.4106 84.7477 85.1393 84.0218 85.1393 83.1162V82.9596C85.1393 82.352 85.2539 81.8095 85.4832 81.3319C85.7124 80.8542 86.041 80.4836 86.4613 80.2276C86.8816 79.9678 87.363 79.8379 87.9056 79.8379C88.7156 79.8379 89.3537 80.0977 89.8199 80.6212C90.286 81.1408 90.5191 81.8821 90.5191 82.8411V83.4983H86.7441C86.7937 83.8918 86.9504 84.209 87.2064 84.4497C87.4624 84.6866 87.791 84.805 88.1845 84.805C88.7959 84.805 89.2697 84.5796 89.6135 84.1287L90.393 85.0152C90.1561 85.3591 89.8351 85.6265 89.4301 85.8176C89.0213 86.0086 88.5743 86.1041 88.0814 86.1041ZM87.898 81.137C87.5846 81.137 87.3286 81.244 87.1338 81.4618C86.9389 81.6796 86.8128 81.989 86.7593 82.3941H88.9602V82.2641C88.9525 81.905 88.857 81.6261 88.6774 81.4312C88.4978 81.2363 88.2342 81.137 87.898 81.137Z" fill="#86C5FF"/>
<path d="M99.6816 83.0244C99.6816 83.9567 99.4753 84.7018 99.0588 85.2635C98.6423 85.8251 98.0845 86.104 97.3814 86.104C96.7816 86.104 96.3001 85.8939 95.9295 85.466V88.3163H94.3477V79.9448H95.8149L95.8684 80.537C96.2505 80.0671 96.751 79.834 97.37 79.834C98.0998 79.834 98.6691 80.1091 99.0741 80.6593C99.4791 81.2095 99.6816 81.9699 99.6816 82.9404V83.0244ZM98.0959 82.9098C98.0959 82.3481 97.9966 81.9125 97.8017 81.6069C97.6069 81.3012 97.3203 81.1484 96.9497 81.1484C96.453 81.1484 96.1129 81.3432 95.9257 81.7291V84.2051C96.1205 84.6024 96.4644 84.8011 96.9611 84.8011C97.7215 84.8011 98.0959 84.1707 98.0959 82.9098Z" fill="#86C5FF"/>
<path d="M100.48 82.9136C100.48 82.3137 100.595 81.7788 100.82 81.3088C101.046 80.8389 101.374 80.4759 101.798 80.2199C102.222 79.9639 102.719 79.834 103.281 79.834C104.079 79.834 104.733 80.0823 105.237 80.5829C105.741 81.0834 106.024 81.7597 106.085 82.6156L106.097 83.0282C106.097 83.9567 105.845 84.7018 105.336 85.2596C104.828 85.8213 104.148 86.1002 103.292 86.1002C102.436 86.1002 101.756 85.8213 101.244 85.2635C100.736 84.7056 100.48 83.9452 100.48 82.9824V82.9136ZM102.066 83.0282C102.066 83.6052 102.173 84.0408 102.383 84.3464C102.593 84.6521 102.899 84.8011 103.292 84.8011C103.674 84.8011 103.976 84.6521 104.19 84.3503C104.404 84.0484 104.515 83.5708 104.515 82.9098C104.515 82.3481 104.408 81.9087 104.19 81.5992C103.972 81.2897 103.671 81.1331 103.281 81.1331C102.895 81.1331 102.593 81.2859 102.383 81.5954C102.173 81.9049 102.066 82.3825 102.066 83.0282Z" fill="#86C5FF"/>
<path d="M110.689 85.3782C110.3 85.8635 109.757 86.1042 109.069 86.1042C108.435 86.1042 107.95 85.917 107.614 85.5463C107.281 85.1757 107.109 84.6293 107.102 83.911V79.9487H108.684V83.8575C108.684 84.4879 108.966 84.8013 109.528 84.8013C110.067 84.8013 110.433 84.6102 110.636 84.2319V79.9487H112.225V85.9934H110.735L110.689 85.3782Z" fill="#86C5FF"/>
<path d="M116.814 81.4617C116.597 81.4311 116.409 81.4158 116.245 81.4158C115.645 81.4158 115.252 81.6222 115.068 82.0348V85.9894H113.486V79.9448H114.98L115.026 80.6669C115.343 80.1129 115.783 79.834 116.344 79.834C116.52 79.834 116.684 79.8569 116.837 79.9066L116.814 81.4617Z" fill="#86C5FF"/>
<path d="M34.1572 99.7026H32.5677V91.1208H34.1572V99.7026Z" fill="#86C5FF"/>
<path d="M36.4268 91.9423L36.2663 94.2005H35.2653V91.1208H36.4268V91.9423Z" fill="#86C5FF"/>
<path d="M39.816 99.8173C38.9448 99.8173 38.238 99.546 37.6916 99.0034C37.1452 98.4609 36.8739 97.7349 36.8739 96.8293V96.6727C36.8739 96.0652 36.9885 95.5226 37.2178 95.045C37.447 94.5674 37.7756 94.1968 38.1959 93.9408C38.6162 93.6809 39.0977 93.551 39.6402 93.551C40.4502 93.551 41.0883 93.8108 41.5545 94.3343C42.0206 94.8539 42.2537 95.5952 42.2537 96.5542V97.2114H38.4787C38.5283 97.605 38.685 97.9221 38.941 98.1628C39.197 98.3997 39.5256 98.5182 39.9191 98.5182C40.5305 98.5182 41.0043 98.2927 41.3482 97.8419L42.1276 98.7283C41.8907 99.0722 41.5698 99.3397 41.1648 99.5307C40.7597 99.7217 40.3089 99.8173 39.816 99.8173ZM39.6364 94.8501C39.3231 94.8501 39.0671 94.9571 38.8722 95.1749C38.6774 95.3927 38.5513 95.7022 38.4978 96.1072H40.6986V95.9773C40.691 95.6181 40.5954 95.3392 40.4159 95.1443C40.2363 94.9495 39.9688 94.8501 39.6364 94.8501Z" fill="#86C5FF"/>
<path d="M44.6761 93.6579L44.7258 94.3571C45.1499 93.8184 45.7192 93.5471 46.4299 93.5471C47.0565 93.5471 47.5265 93.7343 47.8322 94.1126C48.1379 94.4909 48.2945 95.0525 48.3022 95.8014V99.7064H46.7203V95.8358C46.7203 95.4919 46.6477 95.2436 46.5025 95.0908C46.3573 94.9341 46.1128 94.8577 45.7727 94.8577C45.3257 94.8577 44.9933 95.0525 44.7717 95.4385V99.7026H43.1898V93.6579H44.6761Z" fill="#86C5FF"/>
<path d="M51.7867 97.731L52.8871 93.658H54.5416L52.5432 99.7026H51.0302L49.0319 93.658H50.6863L51.7867 97.731Z" fill="#86C5FF"/>
<path d="M55.2943 92.0952C55.2943 91.8544 55.3745 91.6519 55.5312 91.4953C55.6917 91.3386 55.9057 91.2622 56.1808 91.2622C56.452 91.2622 56.666 91.3386 56.8265 91.4953C56.987 91.6519 57.0672 91.8506 57.0672 92.0952C57.0672 92.3397 56.987 92.5422 56.8227 92.6989C56.6584 92.8555 56.4444 92.9319 56.1808 92.9319C55.9133 92.9319 55.6993 92.8555 55.5388 92.6989C55.3784 92.5422 55.2943 92.3397 55.2943 92.0952ZM56.9755 99.7025H55.386V93.6579H56.9755V99.7025Z" fill="#86C5FF"/>
<path d="M61.6791 95.1748C61.4613 95.1442 61.274 95.129 61.1098 95.129C60.5099 95.129 60.1163 95.3353 59.9329 95.7479V99.7026H58.3511V93.6579H59.845L59.8909 94.3801C60.208 93.826 60.6474 93.5471 61.2091 93.5471C61.3849 93.5471 61.5492 93.57 61.702 93.6197L61.6791 95.1748Z" fill="#86C5FF"/>
<path d="M62.0649 96.6267C62.0649 96.0269 62.1796 95.4919 62.405 95.022C62.6304 94.552 62.959 94.189 63.3831 93.933C63.8073 93.677 64.304 93.5471 64.8656 93.5471C65.6642 93.5471 66.3176 93.7955 66.8219 94.296C67.3263 94.7965 67.609 95.4728 67.6702 96.3287L67.6816 96.7414C67.6816 97.6699 67.4295 98.4149 66.9213 98.9728C66.4131 99.5344 65.733 99.8134 64.8771 99.8134C64.0212 99.8134 63.3411 99.5344 62.8291 98.9766C62.3209 98.4187 62.0649 97.6584 62.0649 96.6955V96.6267ZM63.6468 96.7414C63.6468 97.3183 63.7538 97.7539 63.9639 98.0596C64.1741 98.3652 64.4797 98.5143 64.8733 98.5143C65.2554 98.5143 65.5572 98.3652 65.7712 98.0634C65.9852 97.7615 66.096 97.2839 66.096 96.6229C66.096 96.0613 65.989 95.6219 65.7712 95.3124C65.5534 95.0029 65.2516 94.8462 64.8618 94.8462C64.4759 94.8462 64.1741 94.9991 63.9639 95.3085C63.7538 95.618 63.6468 96.0956 63.6468 96.7414Z" fill="#86C5FF"/>
<path d="M70.1768 93.6579L70.2264 94.3571C70.6505 93.8184 71.2199 93.5471 71.9305 93.5471C72.5572 93.5471 73.0271 93.7343 73.3328 94.1126C73.6385 94.4909 73.7951 95.0525 73.8028 95.8014V99.7064H72.2209V95.8358C72.2209 95.4919 72.1483 95.2436 72.0031 95.0908C71.8579 94.9341 71.6134 94.8577 71.2733 94.8577C70.8263 94.8577 70.4939 95.0525 70.2723 95.4385V99.7026H68.6904V93.6579H70.1768Z" fill="#86C5FF"/>
<path d="M76.527 93.6579L76.5766 94.3571C77.0008 93.8184 77.5701 93.5471 78.2808 93.5471C78.9074 93.5471 79.3773 93.7343 79.683 94.1126C79.9887 94.4909 80.1453 95.0525 80.153 95.8014V99.7064H78.5711V95.8358C78.5711 95.4919 78.4985 95.2436 78.3534 95.0908C78.2082 94.9341 77.9636 94.8577 77.6236 94.8577C77.1765 94.8577 76.8441 95.0525 76.6225 95.4385V99.7026H75.0406V93.6579H76.527Z" fill="#86C5FF"/>
<path d="M84.1497 99.8173C83.2786 99.8173 82.5717 99.546 82.0253 99.0034C81.4789 98.4609 81.2076 97.7349 81.2076 96.8293V96.6727C81.2076 96.0652 81.3223 95.5226 81.5515 95.045C81.7808 94.5674 82.1094 94.1968 82.5297 93.9408C82.95 93.6809 83.4314 93.551 83.974 93.551C84.784 93.551 85.4221 93.8108 85.8882 94.3343C86.3544 94.8539 86.5874 95.5952 86.5874 96.5542V97.2114H82.8124C82.8621 97.605 83.0187 97.9221 83.2747 98.1628C83.5307 98.3997 83.8593 98.5182 84.2529 98.5182C84.8642 98.5182 85.338 98.2927 85.6819 97.8419L86.4614 98.7283C86.2245 99.0722 85.9035 99.3397 85.4985 99.5307C85.0935 99.7217 84.6426 99.8173 84.1497 99.8173ZM83.9701 94.8501C83.6568 94.8501 83.4008 94.9571 83.206 95.1749C83.0111 95.3927 82.885 95.7022 82.8315 96.1072H85.0323V95.9773C85.0247 95.6181 84.9292 95.3392 84.7496 95.1443C84.57 94.9495 84.3064 94.8501 83.9701 94.8501Z" fill="#86C5FF"/>
<path d="M89.0366 93.6579L89.0862 94.3342C89.5065 93.8108 90.072 93.5471 90.7904 93.5471C91.5545 93.5471 92.078 93.8528 92.3646 94.4679C92.781 93.8528 93.3733 93.5471 94.1451 93.5471C94.787 93.5471 95.2646 93.7382 95.5817 94.1203C95.8951 94.5023 96.0517 95.0755 96.0517 95.8435V99.7026H94.4622V95.8473C94.4622 95.5034 94.3973 95.255 94.2635 95.0946C94.1336 94.9379 93.9006 94.8577 93.5681 94.8577C93.0944 94.8577 92.7658 95.0869 92.5824 95.5493L92.5862 99.7026H91.0043V95.8511C91.0043 95.4996 90.9356 95.2474 90.8018 95.0908C90.6681 94.9341 90.435 94.8577 90.1102 94.8577C89.6594 94.8577 89.3346 95.0487 89.1359 95.427V99.7026H87.5541V93.6579H89.0366Z" fill="#86C5FF"/>
<path d="M100.064 99.8173C99.1925 99.8173 98.4856 99.546 97.9393 99.0034C97.3929 98.4609 97.1216 97.7349 97.1216 96.8293V96.6727C97.1216 96.0652 97.2362 95.5226 97.4655 95.045C97.6947 94.5674 98.0233 94.1968 98.4436 93.9408C98.8639 93.6809 99.3453 93.551 99.8879 93.551C100.698 93.551 101.336 93.8108 101.802 94.3343C102.268 94.8539 102.501 95.5952 102.501 96.5542V97.2114H98.7264C98.776 97.605 98.9327 97.9221 99.1887 98.1628C99.4447 98.3997 99.7733 98.5182 100.167 98.5182C100.778 98.5182 101.252 98.2927 101.596 97.8419L102.375 98.7283C102.138 99.0722 101.817 99.3397 101.412 99.5307C101.007 99.7217 100.557 99.8173 100.064 99.8173ZM99.8803 94.8501C99.5669 94.8501 99.3109 94.9571 99.1161 95.1749C98.9212 95.3927 98.7951 95.7022 98.7416 96.1072H100.942V95.9773C100.935 95.6181 100.839 95.3392 100.66 95.1443C100.476 94.9456 100.216 94.8501 99.8803 94.8501Z" fill="#86C5FF"/>
<path d="M104.924 93.6579L104.973 94.3571C105.398 93.8184 105.967 93.5471 106.678 93.5471C107.304 93.5471 107.774 93.7343 108.08 94.1126C108.386 94.4909 108.542 95.0525 108.55 95.8014V99.7064H106.968V95.8358C106.968 95.4919 106.895 95.2436 106.75 95.0908C106.605 94.9341 106.36 94.8577 106.02 94.8577C105.573 94.8577 105.241 95.0525 105.019 95.4385V99.7026H103.438V93.6579H104.924Z" fill="#86C5FF"/>
<path d="M111.713 92.1716V93.658H112.726V94.8424H111.713V97.8609C111.713 98.0864 111.755 98.243 111.84 98.3424C111.924 98.4379 112.084 98.4875 112.321 98.4875C112.497 98.4875 112.65 98.4761 112.787 98.4493V99.672C112.478 99.7675 112.157 99.8172 111.828 99.8172C110.716 99.8172 110.151 99.2441 110.132 98.1016V94.8424H109.264V93.658H110.132V92.1716H111.713Z" fill="#86C5FF"/>
<path d="M104.939 68.0694C102.307 67.267 100.388 64.8026 100.388 61.8872C100.388 61.36 100.45 60.848 100.568 60.3589L104.725 60.8976C104.725 60.8976 106.322 60.9702 106.261 63.8168C106.211 66.5831 104.939 68.0694 104.939 68.0694Z" fill="#86C5FF"/>
<path d="M108.657 68.0694C111.289 67.267 113.207 64.8026 113.207 61.8872C113.207 61.36 113.146 60.848 113.028 60.3589L108.871 60.8976C108.871 60.8976 107.274 60.9702 107.335 63.8168C107.388 66.5831 108.657 68.0694 108.657 68.0694Z" fill="#86C5FF"/>
<path d="M106.8 57.2641C107.335 57.2641 107.77 57.7035 107.77 58.2423C107.77 58.6626 107.484 58.9759 107.136 59.1631C107.094 59.186 107.056 59.2051 107.063 59.2701C107.071 59.3389 107.27 59.3771 107.358 59.3962L112.948 60.0495C112.164 57.3787 109.711 55.4263 106.807 55.4263H106.8C103.896 55.4263 101.443 57.3749 100.66 60.0495L106.25 59.3962C106.334 59.3771 106.532 59.3389 106.544 59.2701C106.551 59.2051 106.513 59.1822 106.471 59.1631C106.124 58.9759 105.837 58.6626 105.837 58.2423C105.829 57.7035 106.265 57.2641 106.8 57.2641Z" fill="#86C5FF"/>
<path d="M109.352 72.6393L109.73 72.4024C109.73 72.4024 107.935 69.9456 103.915 69.9456C101.859 69.9456 100.793 70.7785 99.3529 70.7785C99.3529 70.7785 98.7607 70.8511 98.1952 70.4919C98.1952 70.4919 98.8791 71.493 101.363 71.493C103.185 71.493 104.484 70.4193 105.761 70.4193C107.507 70.4232 108.81 71.9974 109.352 72.6393Z" fill="#86C5FF"/>
<path d="M103.774 72.6393L103.395 72.4024C103.395 72.4024 105.191 69.9456 109.211 69.9456C111.266 69.9456 112.332 70.7785 113.773 70.7785C113.773 70.7785 114.365 70.8511 114.931 70.4919C114.931 70.4919 114.247 71.493 111.763 71.493C109.941 71.493 108.641 70.4193 107.365 70.4193C105.615 70.4232 104.316 71.9974 103.774 72.6393Z" fill="#86C5FF"/>
<path d="M101.856 69.7316C101.783 69.9226 101.015 69.6972 100.495 69.8501C99.9145 70.022 96.8425 70.4003 95.4938 67.1793C95.4938 67.1793 96.7699 68.5624 97.7634 68.6579C98.7568 68.7535 99.8458 68.9904 100.767 69.5176L100.981 69.5635C100.981 69.5635 100.95 69.468 100.862 69.4221C100.74 69.3572 99.7846 69.0438 99.3261 67.5155C99.0892 66.7284 99.1351 66.1553 99.0434 65.7502C99.0434 65.7502 100.083 66.9194 100.511 67.6569C100.935 68.3943 100.981 69.2311 101.856 69.7316Z" fill="#86C5FF"/>
<path d="M98.7224 68.1116C98.646 68.188 98.4511 68.0657 98.3786 68.0275C98.306 67.9931 97.7978 67.7562 96.9228 67.4429C96.0593 67.1334 94.4507 65.7617 94.6073 63.4119C94.6073 63.4119 94.8328 64.2945 95.4938 64.8791C96.1548 65.4637 96.3917 65.5363 96.7929 66.0101C97.1941 66.4877 98.1034 67.5728 98.1417 67.5613C98.176 67.5499 98.1875 67.4887 98.1187 67.4314C98.0461 67.3703 97.8131 66.7742 97.6564 66.5717C97.5036 66.3692 97.0412 64.9746 97.7137 63.259C97.7137 63.259 98.4359 64.5123 98.3862 65.7732C98.3403 67.0379 98.2792 66.7399 98.5887 67.7868C98.5925 67.7868 98.7606 68.0733 98.7224 68.1116Z" fill="#86C5FF"/>
<path d="M96.7128 65.0471C96.6707 65.0891 96.4873 64.8216 96.3459 64.5695C96.2046 64.3173 95.2111 63.2474 95.0812 63.0296C94.9513 62.8157 93.8394 61.4554 94.68 59.4418C94.68 59.4418 94.7641 59.4189 94.7641 59.8965C94.7641 60.3741 95.1997 61.4363 95.555 61.8872C95.9104 62.3419 96.2275 63.0678 96.3001 63.8435C96.3001 63.8435 96.3459 63.9849 96.4071 64.0001C96.4644 64.0116 96.4644 63.8588 96.4644 63.8588C96.4644 63.8588 96.4185 63.1443 96.4185 62.6552C96.4185 62.1661 96.6325 61.3332 97.091 60.8556C97.091 60.8556 97.305 60.6187 97.4349 60.3321C97.4349 60.3321 97.519 60.141 97.6374 60.0455C97.6374 60.0455 97.7329 61.4172 97.2706 62.6934C96.8083 63.9696 96.6554 64.1835 96.728 64.8751C96.7242 64.8675 96.7395 65.0203 96.7128 65.0471Z" fill="#86C5FF"/>
<path d="M95.9333 61.2798C95.8874 61.2798 95.8492 61.1117 95.8263 60.9818C95.8033 60.8519 95.662 60.0877 95.5664 59.9196C95.4709 59.7515 95.1156 58.9911 95.1041 58.0971C95.0927 57.203 95.4939 55.9879 96.3918 55.0212C96.3918 55.0212 96.3574 55.3078 96.1205 55.9383C95.8836 56.5687 96.025 57.1648 96.0479 57.2717C96.0708 57.3787 96.1549 58.1162 96.1549 58.4639C96.1549 58.739 96.0823 59.6789 96.025 59.8699C96.025 59.8699 96.002 59.9999 96.0479 59.9999C96.0937 59.9999 96.1434 59.8929 96.1434 59.8929C96.1434 59.8929 96.1893 59.1554 96.7356 58.4868C97.2782 57.8181 98.2602 57.4131 98.413 57.1151C98.413 57.1151 98.3404 58.1658 97.1941 59.3923C96.174 60.4851 96.472 59.9273 96.1434 60.8213C96.1434 60.8213 96.002 61.1538 96.002 61.2264C96.0059 61.3028 95.9333 61.2798 95.9333 61.2798Z" fill="#86C5FF"/>
<path d="M96.5598 57.7494C96.5598 57.7494 96.5369 57.608 96.7127 57.2833C96.8884 56.9623 96.7012 56.3892 96.9381 55.5562C97.175 54.7233 97.6106 53.2904 99.2803 52.4346C99.2803 52.4346 99.116 52.5912 99.0319 52.7097C98.9479 52.8281 98.5008 53.6878 98.3709 54.2839C98.241 54.8799 97.6717 55.881 97.4615 56.1064C97.2476 56.3319 97.3431 56.3586 97.3431 56.3586C97.3431 56.3586 97.4501 56.3357 97.5571 56.1676C97.6641 55.9995 98.2066 55.3805 98.8103 55.2391C99.414 55.0977 100.369 54.8112 100.43 54.75C100.43 54.75 99.3911 55.8237 98.4321 56.3701C97.473 56.9203 97.3698 56.7522 96.8005 57.4896C96.7967 57.4896 96.6095 57.7494 96.5598 57.7494Z" fill="#86C5FF"/>
<path d="M98.8524 54.5665C98.8524 54.5665 98.8524 54.471 99.0282 54.3028C99.2039 54.1347 99.3835 53.6342 99.6892 53.1719C99.9949 52.7057 100.694 51.4907 102.501 51.2041C102.501 51.2041 101.959 51.6091 101.875 51.739C101.791 51.8689 101.26 52.572 101.023 52.8127C100.786 53.0496 100.113 53.5501 99.8879 53.6609C99.8879 53.6609 99.7694 53.7565 99.7924 53.7908C99.8153 53.8252 99.9337 53.7565 99.9337 53.7565C99.9337 53.7565 100.56 53.2674 101.317 53.2445C102.073 53.2215 102.864 53.2559 102.983 53.2674C102.983 53.2674 102.272 53.7564 100.583 54.0659C98.8944 54.3754 99.2116 54.3869 98.9518 54.555C98.9594 54.555 98.9021 54.6009 98.8524 54.5665Z" fill="#86C5FF"/>
<path d="M101.867 52.5874C101.867 52.5874 101.901 52.4918 102.173 52.4078C102.444 52.3237 102.421 52.0639 103.25 51.6207C104.079 51.1813 104.939 50.9788 105.814 51.3456C105.814 51.3456 105.447 51.3914 105.39 51.4182C105.333 51.4449 104.706 51.6092 104.526 51.7047C104.351 51.8003 103.437 52.2053 103.071 52.2779C102.704 52.3505 102.88 52.3734 102.88 52.3734C102.88 52.3734 102.964 52.4078 103.032 52.4078C103.105 52.4078 103.919 52.3237 104.45 52.5148C104.981 52.7058 104.97 52.7784 105.184 52.8472C105.398 52.9198 105.646 52.9656 105.68 53.0497C105.68 53.0497 105.149 53.0955 104.828 53.0955C104.507 53.0955 103.671 53.0115 103.269 52.8204C102.868 52.6294 102.406 52.5453 102.253 52.5835C102.104 52.6256 101.917 52.6256 101.867 52.5874Z" fill="#86C5FF"/>
<path d="M105.226 52.1709C105.226 52.1709 105.26 52.125 105.497 52.0753C105.734 52.0295 105.791 51.8843 106.349 51.7658C106.903 51.6474 107.766 51.5404 108.561 52.0868C108.561 52.0868 108.076 52.0753 107.969 52.0753C107.862 52.0753 106.941 52.2434 106.727 52.2434C106.513 52.2434 106.089 52.1479 106.028 52.2205C105.971 52.2931 106.418 52.3886 106.49 52.4116C106.563 52.4345 106.88 52.4574 107.281 52.851C107.682 53.2445 107.965 53.4585 108.015 53.4814C108.015 53.4814 106.834 53.2063 106.536 53.042C106.242 52.8739 105.734 52.3619 105.65 52.3275C105.569 52.2893 105.226 52.1709 105.226 52.1709Z" fill="#86C5FF"/>
<path d="M107.958 52.66C107.958 52.66 108.703 52.6371 109.245 52.9809C109.788 53.3248 110.227 53.7795 110.273 54.0546C110.273 54.0546 109.967 53.791 109.765 53.7337C109.562 53.6725 108.997 53.3516 108.878 53.279C108.76 53.2064 108.076 52.767 107.958 52.66Z" fill="#86C5FF"/>
<path d="M111.458 69.8616C111.458 69.8616 111.565 69.7546 111.92 69.4451C112.275 69.1356 112.371 68.681 112.76 67.9779C113.15 67.2749 113.483 66.7858 114.274 66.0713C114.274 66.0713 114.132 66.6062 114.121 66.7743C114.109 66.9424 113.979 67.8709 113.528 68.4058C113.078 68.9408 113.055 69.063 112.535 69.384C112.535 69.384 112.333 69.5254 112.344 69.575C112.355 69.6209 112.699 69.5636 112.699 69.5636C112.699 69.5636 113.078 69.4222 113.196 69.3496C113.314 69.277 113.846 69.0057 114.06 68.9217C114.274 68.8376 114.449 68.7535 114.923 68.6122C115.397 68.4708 117.109 68.0276 117.785 66.931C117.785 66.931 117.582 67.5729 117.334 67.8709C117.086 68.169 115.68 70.0412 113.727 70.0068C113.727 70.0068 112.959 69.9457 112.558 69.8769C112.157 69.8043 112.015 69.8043 111.954 69.8158C111.893 69.8272 111.515 69.8998 111.458 69.8616Z" fill="#86C5FF"/>
<path d="M115.821 63.175C115.821 63.175 115.087 64.3327 114.923 65.9986C114.759 67.6683 115.041 67.1678 114.77 67.9052C114.77 67.9052 114.675 68.0963 114.713 68.1077C114.747 68.1192 114.889 68.0351 115.412 67.7142C115.932 67.3932 116.44 67.4888 117.552 66.4151C118.664 65.3414 118.889 63.2094 118.912 63.0298C118.912 63.0298 118.748 63.1979 118.664 63.4845C118.58 63.771 118.404 63.9965 118.369 64.0347C118.335 64.0691 117.128 65.4064 116.986 65.5248C116.845 65.6433 116.134 66.5144 115.981 66.7628C115.829 67.015 115.378 67.4658 115.297 67.4314C115.297 67.4314 115.309 67.3245 115.343 67.2404C115.378 67.1563 115.71 66.7055 115.852 66.1782C115.993 65.6547 116.027 65.33 116.043 64.9975C116.046 64.6651 115.832 63.4348 115.821 63.175Z" fill="#86C5FF"/>
<path d="M116.814 64.7835C116.814 64.7835 116.742 64.6116 116.803 64.4855C116.837 64.4129 116.875 63.8436 116.662 63.3774C116.448 62.9113 115.989 61.6236 116.023 60.7678C116.058 59.9081 116.153 59.7896 116.153 59.7896C116.153 59.7896 116.39 60.4927 116.459 60.6111C116.532 60.7296 117.238 61.9943 117.181 62.6858C117.124 63.3774 117.086 63.5914 117.124 63.6029C117.158 63.6143 117.242 63.5188 117.254 63.4347C117.265 63.3507 117.384 62.8731 117.609 62.3152C117.835 61.7535 118.744 60.5156 118.946 59.6941C118.946 59.6941 119.241 61.1231 118.45 62.4604C117.659 63.7939 117.575 63.4959 117.242 64.1072C116.906 64.7109 116.86 64.7835 116.814 64.7835Z" fill="#86C5FF"/>
<path d="M117.533 61.0048C117.475 60.9933 117.51 60.4431 117.368 60.2673C117.227 60.0878 116.008 58.6358 115.748 57.1801C115.748 57.1801 116.516 57.9672 116.646 58.0512C116.776 58.1353 117.296 58.6588 117.449 59.1134C117.601 59.5681 117.567 59.9464 117.624 59.9617C117.682 59.9731 117.682 59.4611 117.682 59.4611C117.682 59.4611 117.693 58.4601 117.777 57.9825C117.861 57.5048 118.071 56.7063 117.98 56.3013C117.98 56.3013 118.442 57.0387 118.415 58.0894C118.392 59.1402 117.953 59.9731 117.896 60.0916C117.838 60.21 117.67 60.722 117.67 60.829C117.678 60.9322 117.533 61.0048 117.533 61.0048Z" fill="#86C5FF"/>
<path d="M116.092 53.5425C116.092 53.5425 117.689 54.4977 117.441 57.692C117.441 57.692 117.441 57.8333 117.345 57.6805C117.25 57.5277 116.91 57.0844 116.753 56.9889C116.6 56.8934 115.179 56.0222 114.579 54.6887C114.579 54.6887 114.675 54.6658 114.816 54.7957C114.957 54.9256 115.397 55.1549 115.466 55.1893C115.538 55.2237 116.035 55.3574 116.398 55.7624C116.765 56.1674 116.895 56.4655 117.002 56.7023C117.002 56.7023 117.109 56.7864 117.036 56.5457C116.963 56.3088 116.952 56.1521 116.765 55.8541C116.577 55.5561 116.409 55.0212 116.386 54.6505C116.363 54.2799 116.256 53.7335 116.092 53.5425Z" fill="#86C5FF"/>
<path d="M115.821 54.662C115.821 54.662 115.855 54.448 115.702 54.15C115.55 53.8519 115.668 53.5195 115.183 52.7324C114.912 52.293 113.964 51.9453 113.964 51.9453C113.964 51.9453 114.235 52.3274 114.415 52.5414C114.591 52.7553 114.652 52.912 114.709 53.019C114.766 53.126 115.095 53.4431 115.217 53.6265C115.24 53.6609 115.29 53.7564 115.29 53.8175C115.29 53.8787 115.16 53.7832 115.125 53.7449C115.091 53.7106 114.51 53.2673 114.144 53.1947C113.777 53.1221 113.081 53.0534 112.89 52.9578C112.89 52.9578 113.719 53.7106 114.617 53.936C115.511 54.1614 115.821 54.662 115.821 54.662Z" fill="#86C5FF"/>
<path d="M113.953 52.6943C113.953 52.6943 113.123 51.5634 111.649 51.5863C111.649 51.5863 111.733 51.6703 111.897 51.7047C112.061 51.7391 112.359 52.0371 112.512 52.1327C112.665 52.232 112.982 52.4689 113.953 52.6943Z" fill="#86C5FF"/>
<path d="M49.9642 61.9676C49.9642 63.5609 49.7503 64.9937 49.3262 66.2584C48.8982 67.5231 48.3022 68.5968 47.5303 69.4756C46.7585 70.3544 45.8339 71.0307 44.7526 71.5045C43.6712 71.9783 42.483 72.2152 41.1877 72.2152C39.8886 72.2152 38.7003 71.9783 37.6228 71.5045C36.5415 71.0307 35.613 70.3544 34.8297 69.4756C34.0503 68.5968 33.4389 67.527 33.0033 66.2584C32.5678 64.9937 32.35 63.5647 32.35 61.9676V61.0506C32.35 59.4649 32.5639 58.0359 32.9957 56.7673C33.4275 55.4988 34.0312 54.4175 34.8068 53.5311C35.5824 52.6446 36.5109 51.9607 37.5922 51.4907C38.6735 51.0169 39.8618 50.78 41.1571 50.78C42.4562 50.78 43.6445 51.0169 44.722 51.4907C45.8033 51.9645 46.728 52.6446 47.5074 53.5311C48.2831 54.4213 48.8868 55.4988 49.3185 56.7673C49.7503 58.0359 49.9642 59.4649 49.9642 61.0506V61.9676ZM45.6466 61.02C45.6466 58.8344 45.2569 57.1724 44.4813 56.0337C43.7056 54.8989 42.5976 54.3296 41.1571 54.3296C39.7166 54.3296 38.6086 54.8989 37.8329 56.0337C37.0573 57.1685 36.6676 58.8306 36.6676 61.02V61.9638C36.6676 63.0527 36.7707 64.0156 36.9732 64.8523C37.1757 65.6891 37.47 66.3883 37.8559 66.9576C38.238 67.527 38.7117 67.9549 39.2696 68.2453C39.8274 68.5357 40.4693 68.6809 41.1877 68.6809C42.6281 68.6809 43.7324 68.1077 44.4966 66.9615C45.2646 65.8152 45.6466 64.1493 45.6466 61.9599V61.02Z" fill="#86C5FF"/>
<path d="M69.8825 71.9209H65.6184L57.3233 58.2002V71.9248H53.063V51.0627H57.3271L65.6375 64.8141V51.0627H69.8863V71.9209H69.8825Z" fill="#86C5FF"/>
<path d="M89.262 51.0627V64.8294C89.262 66.033 89.0633 67.0952 88.6659 68.016C88.2685 68.9368 87.7183 69.7086 87.0191 70.3314C86.3161 70.9504 85.4831 71.4204 84.5126 71.7337C83.5421 72.047 82.4837 72.2075 81.3375 72.2075C80.1836 72.2075 79.1175 72.0508 78.147 71.7337C77.1765 71.4204 76.3398 70.9504 75.6405 70.3314C74.9375 69.7125 74.3911 68.9406 74.0014 68.016C73.6078 67.0952 73.413 66.033 73.413 64.8294V51.0627H77.6771V64.8294C77.6771 66.1934 78.0018 67.1907 78.6514 67.8173C79.3009 68.4439 80.1988 68.7572 81.3451 68.7572C82.499 68.7572 83.3969 68.4439 84.0388 67.8173C84.6769 67.1907 84.9979 66.1973 84.9979 64.8294V51.0627H89.262Z" fill="#86C5FF"/>
</g>
<defs>
<clipPath id="clip0_4070_4528">
<rect width="146.8" height="146.8" fill="white"/>
</clipPath>
</defs>
</svg>
