<svg id="Layer_14" data-name="Layer 14" xmlns="http://www.w3.org/2000/svg" viewBox="0 0 130.84 130.84"><defs><style>.cls-1{fill:#10f9b7;}.cls-2,.cls-3,.cls-4{fill:#fff;}.cls-2,.cls-4{stroke:#fff;}.cls-4{stroke-width:0.5px;}</style></defs><path class="cls-1" d="M53.66,64.37,23.12,48.54,53.69,35.37,84.21,48.63Z"/><path class="cls-2" d="M53.66,65.13a.67.67,0,0,1-.34-.09L22.78,49.21a.79.79,0,0,1-.31-.29.72.72,0,0,1-.1-.41.73.73,0,0,1,.13-.4.66.66,0,0,1,.33-.26L53.39,34.67a.78.78,0,0,1,.6,0L84.5,47.94a.73.73,0,0,1,.33.27.82.82,0,0,1,.13.4.79.79,0,0,1-.41.7L54,65A.73.73,0,0,1,53.66,65.13ZM24.88,48.6,53.67,63.52,82.45,48.69,53.69,36.19Z"/><path class="cls-1" d="M84.21,49.87v53.19a4,4,0,0,1-1.94,3.41l-28.58,17-28.63-17a3.95,3.95,0,0,1-1.94-3.41V49.87l30.57,16Z"/><path class="cls-2" d="M53.69,124.42,24.63,107.19a4.79,4.79,0,0,1-1.73-1.76,4.88,4.88,0,0,1-.63-2.39V48.47L53.68,64.88,85.05,48.47v54.59a4.8,4.8,0,0,1-2.35,4.13ZM24,51.27v51.78a3.15,3.15,0,0,0,1.52,2.68l28.2,16.71,28.15-16.71A3.11,3.11,0,0,0,83,104.59a3.06,3.06,0,0,0,.41-1.54V51.27L53.69,66.8Z"/><path class="cls-2" d="M53.78,112.92a.94.94,0,0,1-.76-.41,1.26,1.26,0,0,1-.24-.77V72.1h.5Zm0,0a.94.94,0,0,0,.75-.41,1.27,1.27,0,0,0,.25-.77V72.1m-1,40.82,1-40.82m0,0Z"/><path class="cls-1" d="M98.66,105.61a15.79,15.79,0,0,1,1.21,1.1,3.38,3.38,0,0,1-.1,4.72c-.93,1-1.87,1.9-2.83,2.83a3.4,3.4,0,0,1-4.86,0,1.79,1.79,0,0,0-2.45-.49c-1.07.45-1.49.89-1.42,2.11A3.23,3.23,0,0,1,85,119.27c-1.44.07-2.89.07-4.33,0a3.32,3.32,0,0,1-3.26-3.45c0-1.42-.06-1.32-1.27-2a1.83,1.83,0,0,0-2.61.44,3.37,3.37,0,0,1-4.86-.08q-1.32-1.3-2.64-2.64a3.44,3.44,0,0,1,0-5.12c.3-.31.62-.59.94-.88-.35-.86-.67-1.68-1-2.48a.58.58,0,0,0-.21-.2.67.67,0,0,0-.28-.1c-.54-.06-1.09,0-1.62-.08a3.36,3.36,0,0,1-2.91-3.39c0-1.32,0-2.62,0-3.93a3.33,3.33,0,0,1,3.49-3.51c1.11.06,1.54-.3,2-1.32a1.89,1.89,0,0,0-.48-2.6,3.29,3.29,0,0,1,0-4.75c.82-.87,1.73-1.66,2.52-2.56a3.58,3.58,0,0,1,5.47,0c.6.68,1,.61,1.84.35a2.18,2.18,0,0,0,1.79-2.5,2.94,2.94,0,0,1,3.07-3c1.77,0,3.48,0,5.22,0a2.22,2.22,0,0,1,1.92,1.29,4.7,4.7,0,0,1,.57,2.88c0,.51.09.78.61.93a9.26,9.26,0,0,1,1.69.7.56.56,0,0,0,.81-.16,4.2,4.2,0,0,1,2.56-1.63,3.43,3.43,0,0,1,3,1c.9.89,1.79,1.78,2.68,2.68a3.44,3.44,0,0,1,0,5.08c-.31.32-.66.6-1,.87.36.9.66,1.7,1,2.48a.84.84,0,0,0,.23.23.68.68,0,0,0,.31.11c.56.07,1.13,0,1.68.1a3.27,3.27,0,0,1,2,1.11,3.36,3.36,0,0,1,.83,2.14c0,1.41,0,2.83,0,4.25a3.46,3.46,0,0,1-3.57,3.34c-1.36,0-1.35,0-1.87,1.32C99.15,104.57,98.93,105,98.66,105.61Z"/><path class="cls-1" d="M82.81,123.1c-.77,0-1.55,0-2.31,0a7,7,0,0,1-6.4-4.6,7,7,0,0,1-2.74.62,7.53,7.53,0,0,1-2.89-.54A7.79,7.79,0,0,1,66,116.91c-.85-.85-1.76-1.75-2.66-2.67a7.17,7.17,0,0,1-1.59-8.17,7.17,7.17,0,0,1-4.63-6.7v-4a7.26,7.26,0,0,1,.57-2.91A7.18,7.18,0,0,1,59.37,90a6.62,6.62,0,0,1,2.35-1.47A6.8,6.8,0,0,1,61.1,86a7.33,7.33,0,0,1,.48-2.86,7.44,7.44,0,0,1,1.55-2.46c.39-.41.78-.79,1.15-1.15s.91-.88,1.27-1.29a7.47,7.47,0,0,1,5.58-2.58,7.26,7.26,0,0,1,2.94.6,6.52,6.52,0,0,1,1.44-2.39,7.06,7.06,0,0,1,4.95-2.14c1.25,0,2.49,0,3.69,0h1.63a5.85,5.85,0,0,1,5.11,3.07,7.2,7.2,0,0,1,.71,1.48,6.67,6.67,0,0,1,1.86-.51,7.17,7.17,0,0,1,6.16,2l.34.34c.78.77,1.58,1.57,2.37,2.37a7.16,7.16,0,0,1,1.58,8.16,7.21,7.21,0,0,1,3.3,2.55,7.11,7.11,0,0,1,1.32,4c0,1.52,0,3,0,4.45a7.08,7.08,0,0,1-4.63,6.51,7.11,7.11,0,0,1-1.42,8c-.83.86-1.72,1.76-2.89,2.91a7.34,7.34,0,0,1-2.45,1.59,7.44,7.44,0,0,1-2.87.51,7,7,0,0,1-2.69-.61,6.65,6.65,0,0,1-1.36,2.25,7.07,7.07,0,0,1-2.29,1.69,7.35,7.35,0,0,1-2.77.66C84.38,123.09,83.6,123.1,82.81,123.1Zm-1.65-7.57c1.1,0,2.19,0,3.29,0a6,6,0,0,1,10.07-4.16c.92-.91,1.66-1.65,2.33-2.35l-.21-.17-.49-.42-2.07-1.85L95.24,104l.27-.59c.15-.3.26-.54.34-.75v0a5.6,5.6,0,0,1,2-2.8A5.29,5.29,0,0,1,101,99c0-1.09,0-2.22,0-3.36h0a11.27,11.27,0,0,1-1.16-.06,4.52,4.52,0,0,1-3.52-2.52c-.3-.66-.55-1.29-.81-2-.09-.23-.18-.46-.28-.69l-1-2.45,2-1.77.35-.3a4,4,0,0,1,.33-.29c-.73-.75-1.48-1.5-2.21-2.22l-.17-.17c-.08.08-.19.19-.35.37a4.28,4.28,0,0,1-5.31,1,5.67,5.67,0,0,0-1-.42,4.51,4.51,0,0,1-3.35-4.83V79.2h-.34c-1,0-2,0-2.94,0a5.79,5.79,0,0,1-4.38,5.36,5.08,5.08,0,0,1-5.71-1.32c-.54.61-1.08,1.13-1.61,1.65l-.71.69a5.6,5.6,0,0,1,1,6.49,5.38,5.38,0,0,1-5.16,3.6V99h.08c.3,0,.67,0,1.09,0a4.53,4.53,0,0,1,2.09.79,4.47,4.47,0,0,1,1.43,1.71c.3.67.57,1.32.82,2,.09.22.18.43.26.65l1,2.4-1.88,1.78-.34.3-.4.38c.79.8,1.59,1.6,2.35,2.34a5.52,5.52,0,0,1,6.76-.84l.23.13A4.85,4.85,0,0,1,81.16,115.53Z"/><path class="cls-3" d="M98.66,105.61a15.79,15.79,0,0,1,1.21,1.1,3.38,3.38,0,0,1-.1,4.72c-.93,1-1.87,1.9-2.83,2.83a3.4,3.4,0,0,1-4.86,0,1.79,1.79,0,0,0-2.45-.49c-1.07.45-1.49.89-1.42,2.11A3.23,3.23,0,0,1,85,119.27c-1.44.07-2.89.07-4.33,0a3.32,3.32,0,0,1-3.26-3.45c0-1.42-.06-1.32-1.27-2a1.83,1.83,0,0,0-2.61.44,3.37,3.37,0,0,1-4.86-.08q-1.32-1.3-2.64-2.64a3.44,3.44,0,0,1,0-5.12c.3-.31.62-.59.94-.88-.35-.86-.67-1.68-1-2.48a.58.58,0,0,0-.21-.2.67.67,0,0,0-.28-.1c-.54-.06-1.09,0-1.62-.08a3.36,3.36,0,0,1-2.91-3.39c0-1.32,0-2.62,0-3.93a3.33,3.33,0,0,1,3.49-3.51c1.11.06,1.54-.3,2-1.32a1.89,1.89,0,0,0-.48-2.6,3.29,3.29,0,0,1,0-4.75c.82-.87,1.73-1.66,2.52-2.56a3.58,3.58,0,0,1,5.47,0c.6.68,1,.61,1.84.35a2.18,2.18,0,0,0,1.79-2.5,2.94,2.94,0,0,1,3.07-3c1.77,0,3.48,0,5.22,0a2.22,2.22,0,0,1,1.92,1.29,4.7,4.7,0,0,1,.57,2.88c0,.51.09.78.61.93a9.26,9.26,0,0,1,1.69.7.56.56,0,0,0,.81-.16,4.2,4.2,0,0,1,2.56-1.63,3.43,3.43,0,0,1,3,1c.9.89,1.79,1.78,2.68,2.68a3.44,3.44,0,0,1,0,5.08c-.31.32-.66.6-1,.87.36.9.66,1.7,1,2.48a.84.84,0,0,0,.23.23.68.68,0,0,0,.31.11c.56.07,1.13,0,1.68.1a3.27,3.27,0,0,1,2,1.11,3.36,3.36,0,0,1,.83,2.14c0,1.41,0,2.83,0,4.25a3.46,3.46,0,0,1-3.57,3.34c-1.36,0-1.35,0-1.87,1.32C99.15,104.57,98.93,105,98.66,105.61ZM85.36,78.36c-1.57,0-3,0-4.37,0-.54,0-.72.21-.7.72,0,.74,0,1.49,0,2.24a1.5,1.5,0,0,1-1.16,1.54c-1.3.49-2.59,1-3.86,1.6a1.55,1.55,0,0,1-2-.3c-.56-.55-1.13-1.11-1.67-1.68a.5.5,0,0,0-.81,0c-.89.89-1.79,1.78-2.7,2.66a.6.6,0,0,0,0,1c.56.55,1.13,1.11,1.67,1.68A1.51,1.51,0,0,1,70,89.71c-.57,1.3-1.12,2.61-1.63,3.93a1.54,1.54,0,0,1-1.55,1.16c-.76,0-1.53,0-2.3,0-.49,0-.71.2-.71.68,0,1.22,0,2.45,0,3.67,0,.53.27.71.76.7.72,0,1.44,0,2.16,0,1,0,1.34.38,1.67,1.27.47,1.27,1,2.52,1.56,3.74a1.56,1.56,0,0,1-.3,2.07c-.51.54-1,1.07-1.58,1.58a.59.59,0,0,0,0,1c.89.88,1.77,1.75,2.64,2.65a.54.54,0,0,0,.91,0c.5-.52,1-1,1.53-1.54a1.62,1.62,0,0,1,2.24-.33c1.2.57,2.43,1.07,3.68,1.53a1.54,1.54,0,0,1,1.24,1.62c0,.7,0,1.4,0,2.1s.2.92.86.91c1.13,0,2.26,0,3.39,0,.56,0,.83-.24.82-.81,0-.76,0-1.49,0-2.24a1.5,1.5,0,0,1,1.07-1.54c1.36-.53,2.71-1.09,4-1.67a1.5,1.5,0,0,1,1.9.32c.56.56,1.13,1.11,1.68,1.67.29.3.55.35.86,0,.88-.91,1.78-1.8,2.68-2.7a.56.56,0,0,0,0-.92c-.55-.53-1.07-1.1-1.61-1.64a1.52,1.52,0,0,1-.29-2c.58-1.27,1.13-2.55,1.62-3.86a1.47,1.47,0,0,1,1.57-1.18h2.31a.58.58,0,0,0,.66-.66V95.46a.58.58,0,0,0-.66-.66h-2.1c-1.13,0-1.49-.33-1.87-1.37-.44-1.23-.95-2.44-1.5-3.62a1.6,1.6,0,0,1,.3-2.14c.49-.5,1-1,1.48-1.48s.45-.68.05-1.08c-.88-.85-1.74-1.72-2.59-2.59-.32-.33-.58-.35-.91,0-.48.51-1,1-1.48,1.49-.86.85-1.3.87-2.4.33a31.7,31.7,0,0,0-3.42-1.43c-1.08-.38-1.38-.69-1.38-1.85Z"/><path class="cls-3" d="M91.41,97.39a8.59,8.59,0,0,1-5.33,8,8.63,8.63,0,1,1,0-15.93,8.5,8.5,0,0,1,2.79,1.87,8.67,8.67,0,0,1,1.86,2.81A8.89,8.89,0,0,1,91.41,97.39Zm-14.26,0a5.7,5.7,0,1,0,1.65-4A5.7,5.7,0,0,0,77.15,97.37Z"/><path class="cls-1" d="M69.28,53.92l1-10-16.5-7.5L36,44.42l3.81,10Z"/><path class="cls-1" d="M47.71,57V23.27l1.88-7L48.16,9.6H43.25L42,16.29l1.89,7V52.93"/><path class="cls-4" d="M49,57.42H47.18V23.09a.58.58,0,0,1,0-.19L49.43,16,47.9,10H43.46l-1.34,6,2.21,6.94a.58.58,0,0,1,0,.19V53.24H42.55v-30l-2.24-7a.66.66,0,0,1,0-.34L41.82,9a.77.77,0,0,1,.31-.45,1,1,0,0,1,.58-.17h5.92a1,1,0,0,1,.57.17.75.75,0,0,1,.32.43l1.73,6.81a.73.73,0,0,1,0,.36l-2.24,7Z"/><path class="cls-4" d="M60.78,57.71H59.27V25.41l-4-3.4a.86.86,0,0,1-.2-.26.78.78,0,0,1-.07-.31V15.57a.83.83,0,0,1,.13-.42.7.7,0,0,1,.34-.27.72.72,0,0,1,.43-.05.83.83,0,0,1,.39.21l4.49,4.5h3.81l2.7-3v-4.2L62.06,7.74a.73.73,0,0,1-.24-.38.69.69,0,0,1,0-.45.8.8,0,0,1,.27-.36.83.83,0,0,1,.43-.13h6.12a.72.72,0,0,1,.53.23l3.9,4a.78.78,0,0,1,.21.53v9.2a.71.71,0,0,1-.07.32.92.92,0,0,1-.19.25L67.73,25.5V53.17H66.22v-28a.64.64,0,0,1,.07-.31.83.83,0,0,1,.19-.26L71.82,20V11.47L68.36,7.93h-3.8l4,3.48a.74.74,0,0,1,.26.56V16.8a.78.78,0,0,1-.19.5l-3.12,3.49a.92.92,0,0,1-.25.19.85.85,0,0,1-.31.06H60.47a.72.72,0,0,1-.29-.06.78.78,0,0,1-.24-.16l-3.43-3.43v3.69l4,3.41a1,1,0,0,1,.2.25.88.88,0,0,1,.07.32Z"/></svg>