<svg id="Layer_13" data-name="Layer 13" xmlns="http://www.w3.org/2000/svg" xmlns:xlink="http://www.w3.org/1999/xlink" viewBox="0 0 130.84 130.84"><defs><style>.cls-1{fill:none;}.cls-2{clip-path:url(#clip-path);}.cls-3{fill:#e7fef8;}.cls-4,.cls-5,.cls-6{fill:#10f9b7;}.cls-4,.cls-6{stroke:#10f9b7;}.cls-6{stroke-width:0.5px;}</style><clipPath id="clip-path"><rect class="cls-1" x="22.27" y="6.42" width="86.29" height="118"/></clipPath></defs><g class="cls-2"><path class="cls-3" d="M53.66,64.37,23.12,48.54,53.69,35.37,84.2,48.64Z"/><path class="cls-4" d="M53.66,65.13a.67.67,0,0,1-.34-.09L22.78,49.21a.72.72,0,0,1-.31-.29.72.72,0,0,1-.1-.41.73.73,0,0,1,.13-.4.74.74,0,0,1,.32-.26L53.39,34.67a.77.77,0,0,1,.3-.06.8.8,0,0,1,.3.06L84.5,47.94a.73.73,0,0,1,.33.27.82.82,0,0,1,.13.4.72.72,0,0,1-.11.41.76.76,0,0,1-.3.29L54,65A.73.73,0,0,1,53.66,65.13ZM24.88,48.6,53.67,63.52,82.45,48.69,53.69,36.19Z"/><path class="cls-3" d="M84.2,49.87v53.19a3.91,3.91,0,0,1-1.93,3.41l-28.58,17-28.63-17A3.92,3.92,0,0,1,23.64,105a4,4,0,0,1-.52-2V49.87l30.57,16Z"/><path class="cls-4" d="M53.69,124.42,24.63,107.19a4.79,4.79,0,0,1-1.73-1.76,4.87,4.87,0,0,1-.63-2.38V48.47L53.68,64.88,85.05,48.47v54.59a4.87,4.87,0,0,1-.63,2.38,4.94,4.94,0,0,1-1.73,1.76ZM24,51.27v51.78a3.11,3.11,0,0,0,1.52,2.68l28.2,16.72,28.14-16.72A3,3,0,0,0,83,104.6a3.09,3.09,0,0,0,.41-1.54V51.27L53.69,66.8Z"/><path class="cls-4" d="M53.77,112.92a.94.94,0,0,1-.75-.41,1.27,1.27,0,0,1-.25-.77V72.1h.5Zm0,0a.94.94,0,0,0,.76-.41,1.26,1.26,0,0,0,.24-.77V72.1m-1,40.82,1-40.82m0,0Z"/><path class="cls-3" d="M98.65,105.62a12.65,12.65,0,0,1,1.22,1.09,3.38,3.38,0,0,1-.1,4.72c-.93,1-1.87,1.9-2.83,2.83a3.4,3.4,0,0,1-4.86,0,1.8,1.8,0,0,0-2.45-.49c-1.07.45-1.49.9-1.42,2.11a3.25,3.25,0,0,1-3.23,3.4c-1.44.06-2.89.06-4.33,0a3.33,3.33,0,0,1-3.26-3.46c0-1.42-.06-1.32-1.27-2a1.83,1.83,0,0,0-2.61.44,3.38,3.38,0,0,1-4.86-.07c-.88-.88-1.76-1.75-2.64-2.65a3.44,3.44,0,0,1,0-5.12c.29-.3.62-.59.94-.88-.36-.86-.67-1.68-1-2.47a.53.53,0,0,0-.21-.21.73.73,0,0,0-.28-.1c-.54-.06-1.09,0-1.62-.08a3.36,3.36,0,0,1-2.91-3.38c0-1.33,0-2.63,0-3.94a3.31,3.31,0,0,1,3.48-3.5,1.73,1.73,0,0,0,2-1.32A1.9,1.9,0,0,0,65.87,88a3.29,3.29,0,0,1,0-4.75c.82-.87,1.73-1.66,2.52-2.56a3.58,3.58,0,0,1,5.47,0c.6.68,1,.62,1.84.35a2.18,2.18,0,0,0,1.79-2.5,2.94,2.94,0,0,1,3.07-3c1.76,0,3.48,0,5.22,0a2.22,2.22,0,0,1,1.92,1.3,4.67,4.67,0,0,1,.57,2.88.74.74,0,0,0,.61.92,9.26,9.26,0,0,1,1.69.7.56.56,0,0,0,.81-.16,4.2,4.2,0,0,1,2.56-1.63,3.43,3.43,0,0,1,3,1c.9.89,1.79,1.78,2.68,2.68a3.44,3.44,0,0,1,0,5.08c-.31.32-.67.61-1,.87.36.91.66,1.7,1,2.48a.84.84,0,0,0,.23.23.68.68,0,0,0,.31.11c.56.07,1.13,0,1.68.1a3.32,3.32,0,0,1,2,1.11,3.36,3.36,0,0,1,.83,2.14c0,1.41,0,2.83,0,4.25a3.46,3.46,0,0,1-3.57,3.34c-1.36,0-1.35,0-1.87,1.32C99.15,104.57,98.93,105,98.65,105.62Z"/><path class="cls-3" d="M82.81,123.1c-.77,0-1.55,0-2.31,0a7,7,0,0,1-6.4-4.6,7,7,0,0,1-2.74.62A7.45,7.45,0,0,1,66,116.91c-.85-.84-1.76-1.75-2.67-2.67a7.19,7.19,0,0,1-1.58-8.17,7.2,7.2,0,0,1-3.36-2.63,7.11,7.11,0,0,1-1.27-4.07v-4a7.26,7.26,0,0,1,.57-2.91A7.18,7.18,0,0,1,59.37,90a6.62,6.62,0,0,1,2.35-1.47A6.76,6.76,0,0,1,61.1,86a7.36,7.36,0,0,1,.48-2.86,7.44,7.44,0,0,1,1.55-2.46c.39-.41.78-.79,1.15-1.15s.91-.87,1.27-1.29a7.47,7.47,0,0,1,5.58-2.58,7.11,7.11,0,0,1,2.94.61,6.36,6.36,0,0,1,1.44-2.39,7,7,0,0,1,4.95-2.14c1.24,0,2.49,0,3.69,0h1.63a5.85,5.85,0,0,1,5.11,3.07,7.28,7.28,0,0,1,.71,1.49,6.37,6.37,0,0,1,1.86-.52,7.17,7.17,0,0,1,6.16,2l.34.34c.78.77,1.58,1.57,2.37,2.37a7.15,7.15,0,0,1,1.57,8.16,7.15,7.15,0,0,1,4.63,6.51c0,1.52,0,3,0,4.46a7.08,7.08,0,0,1-4.63,6.5,7.11,7.11,0,0,1-1.42,8c-.83.86-1.72,1.76-2.89,2.91a7.35,7.35,0,0,1-5.33,2.1,7.11,7.11,0,0,1-2.68-.6,6.92,6.92,0,0,1-1.36,2.25,7,7,0,0,1-2.29,1.68,7.17,7.17,0,0,1-2.77.66C84.38,123.09,83.6,123.1,82.81,123.1Zm-1.65-7.57c1.09,0,2.19,0,3.29,0a6.06,6.06,0,0,1,10.07-4.16c.92-.91,1.66-1.65,2.33-2.34l-.21-.18c-.16-.14-.33-.27-.49-.42l-2.07-1.85L95.24,104l.27-.58c.15-.31.26-.55.34-.76v0a5.6,5.6,0,0,1,2-2.8A5.36,5.36,0,0,1,101,99q0-1.63,0-3.36h0a11.27,11.27,0,0,1-1.16-.06,4.48,4.48,0,0,1-2.08-.81,4.41,4.41,0,0,1-1.44-1.71c-.3-.66-.55-1.29-.81-2-.09-.23-.18-.46-.28-.69l-1-2.45,2-1.77.35-.3c.11-.11.23-.2.33-.29l-2.22-2.22-.16-.17c-.08.09-.19.19-.35.37a4.29,4.29,0,0,1-5.31,1,5.67,5.67,0,0,0-1-.42,4.51,4.51,0,0,1-3.35-4.82V79.2h-.34c-1,0-2,0-2.94,0a5.78,5.78,0,0,1-4.38,5.36,5.08,5.08,0,0,1-5.71-1.32c-.54.61-1.09,1.13-1.61,1.65-.25.24-.49.47-.71.7a5.58,5.58,0,0,1,1,6.48,5.38,5.38,0,0,1-5.16,3.6V99h.08c.3,0,.67,0,1.09,0a4.64,4.64,0,0,1,2.09.79,4.47,4.47,0,0,1,1.43,1.71c.3.67.57,1.32.82,2,.09.21.17.42.26.64l1,2.41-1.88,1.77-.34.3-.4.38c.79.8,1.59,1.6,2.35,2.35a5.49,5.49,0,0,1,6.76-.84l.23.12A4.85,4.85,0,0,1,81.16,115.53Z"/><path class="cls-5" d="M98.65,105.62a12.65,12.65,0,0,1,1.22,1.09,3.38,3.38,0,0,1-.1,4.72c-.93,1-1.87,1.9-2.83,2.83a3.4,3.4,0,0,1-4.86,0,1.8,1.8,0,0,0-2.45-.49c-1.07.45-1.49.9-1.42,2.11a3.25,3.25,0,0,1-3.23,3.4c-1.44.06-2.89.06-4.33,0a3.33,3.33,0,0,1-3.26-3.46c0-1.42-.06-1.32-1.27-2a1.83,1.83,0,0,0-2.61.44,3.38,3.38,0,0,1-4.86-.07c-.88-.88-1.76-1.75-2.64-2.65a3.44,3.44,0,0,1,0-5.12c.29-.3.62-.59.94-.88-.36-.86-.67-1.68-1-2.47a.53.53,0,0,0-.21-.21.73.73,0,0,0-.28-.1c-.54-.06-1.09,0-1.62-.08a3.36,3.36,0,0,1-2.91-3.38c0-1.33,0-2.63,0-3.94a3.31,3.31,0,0,1,3.48-3.5,1.73,1.73,0,0,0,2-1.32A1.9,1.9,0,0,0,65.87,88a3.29,3.29,0,0,1,0-4.75c.82-.87,1.73-1.66,2.52-2.56a3.58,3.58,0,0,1,5.47,0c.6.68,1,.62,1.84.35a2.18,2.18,0,0,0,1.79-2.5,2.94,2.94,0,0,1,3.07-3c1.76,0,3.48,0,5.22,0a2.22,2.22,0,0,1,1.92,1.3,4.67,4.67,0,0,1,.57,2.88.74.74,0,0,0,.61.92,9.26,9.26,0,0,1,1.69.7.56.56,0,0,0,.81-.16,4.2,4.2,0,0,1,2.56-1.63,3.43,3.43,0,0,1,3,1c.9.89,1.79,1.78,2.68,2.68a3.44,3.44,0,0,1,0,5.08c-.31.32-.67.61-1,.87.36.91.66,1.7,1,2.48a.84.84,0,0,0,.23.23.68.68,0,0,0,.31.11c.56.07,1.13,0,1.68.1a3.32,3.32,0,0,1,2,1.11,3.36,3.36,0,0,1,.83,2.14c0,1.41,0,2.83,0,4.25a3.46,3.46,0,0,1-3.57,3.34c-1.36,0-1.35,0-1.87,1.32C99.15,104.57,98.93,105,98.65,105.62ZM85.36,78.36c-1.57,0-3,0-4.37,0-.54,0-.72.21-.7.72,0,.74,0,1.49,0,2.24a1.5,1.5,0,0,1-1.16,1.54c-1.3.49-2.59,1-3.86,1.6a1.56,1.56,0,0,1-2-.29c-.56-.56-1.13-1.12-1.67-1.68a.49.49,0,0,0-.81,0c-.89.89-1.79,1.78-2.7,2.66a.6.6,0,0,0,0,1c.56.55,1.13,1.11,1.67,1.68A1.53,1.53,0,0,1,70,89.71c-.58,1.3-1.12,2.61-1.63,3.93a1.54,1.54,0,0,1-1.55,1.16c-.76,0-1.53,0-2.3,0-.49,0-.71.2-.71.68,0,1.23,0,2.46,0,3.67,0,.53.27.71.76.7h2.16c.94,0,1.34.38,1.67,1.27.47,1.27,1,2.52,1.56,3.74a1.57,1.57,0,0,1-.3,2.08c-.52.53-1,1.06-1.58,1.57a.6.6,0,0,0,0,1q1.34,1.31,2.64,2.64a.55.55,0,0,0,.91,0c.5-.53,1-1,1.53-1.54a1.62,1.62,0,0,1,2.24-.34c1.2.57,2.43,1.07,3.68,1.53a1.54,1.54,0,0,1,1.24,1.62c0,.7,0,1.4,0,2.1s.2.92.86.91c1.13,0,2.26,0,3.39,0,.56,0,.83-.24.82-.81,0-.75,0-1.49,0-2.24a1.5,1.5,0,0,1,1.07-1.54c1.36-.53,2.71-1.08,4-1.67a1.5,1.5,0,0,1,1.9.33c.56.55,1.13,1.1,1.68,1.67.29.29.55.34.86,0,.88-.91,1.78-1.8,2.67-2.69a.56.56,0,0,0,0-.93c-.55-.53-1.07-1.1-1.61-1.64a1.52,1.52,0,0,1-.29-2c.58-1.27,1.13-2.55,1.62-3.86a1.48,1.48,0,0,1,1.57-1.18h2.31c.45,0,.66-.21.66-.65V95.46c0-.45-.21-.66-.66-.65h-2.1c-1.13,0-1.49-.34-1.87-1.38-.44-1.23-.95-2.44-1.51-3.62A1.6,1.6,0,0,1,96,87.67c.49-.5,1-1,1.48-1.48s.45-.68,0-1.07c-.87-.85-1.73-1.72-2.58-2.6a.54.54,0,0,0-.91,0c-.48.51-1,1-1.48,1.49-.86.86-1.3.87-2.4.33a33.09,33.09,0,0,0-3.43-1.43c-1.07-.38-1.37-.69-1.37-1.85Z"/><path class="cls-5" d="M91.41,97.39a8.59,8.59,0,0,1-5.33,8,8.68,8.68,0,0,1-3.3.63,8.61,8.61,0,0,1,0-17.22,8.62,8.62,0,0,1,7.94,5.34A8.89,8.89,0,0,1,91.41,97.39Zm-14.26,0a5.7,5.7,0,1,0,1.65-4A5.7,5.7,0,0,0,77.15,97.37Z"/><path class="cls-3" d="M69.27,53.92l1-10-16.5-7.5-17.8,8,3.8,10Z"/><path class="cls-3" d="M47.71,57V23.28l1.88-7L48.16,9.6H43.25L42,16.29l1.89,7V52.93"/><path class="cls-6" d="M49,57.42H47.18V23.09a.63.63,0,0,1,0-.19L49.43,16,47.9,10H43.46l-1.35,6,2.22,6.93a.63.63,0,0,1,0,.19V53.25H42.55V23.19l-2.24-7a.57.57,0,0,1,0-.34L41.81,9a.82.82,0,0,1,.32-.45,1,1,0,0,1,.58-.17h5.92a1,1,0,0,1,.57.17.75.75,0,0,1,.32.43l1.73,6.81a.73.73,0,0,1,0,.36l-2.24,7Z"/><path class="cls-6" d="M60.78,57.71H59.27V25.42l-4-3.41a.86.86,0,0,1-.2-.26.78.78,0,0,1-.07-.31V15.58a.77.77,0,0,1,.13-.42.72.72,0,0,1,.34-.28.71.71,0,0,1,.43,0,.73.73,0,0,1,.39.2l4.49,4.5h3.81l2.7-3v-4.2L62.06,7.75a.76.76,0,0,1-.24-.39.7.7,0,0,1,0-.45.72.72,0,0,1,.27-.35.76.76,0,0,1,.43-.14h6.12a.72.72,0,0,1,.53.23l3.9,4a.78.78,0,0,1,.21.53v9.21a.87.87,0,0,1-.07.31.92.92,0,0,1-.19.25l-5.33,4.58V53.17h-1.5v-28a.64.64,0,0,1,.07-.31.7.7,0,0,1,.19-.26L71.82,20V11.47L68.36,7.94h-3.8l4,3.47a.76.76,0,0,1,.19.25.7.7,0,0,1,.07.31V16.8a.74.74,0,0,1-.19.5l-3.12,3.49a.83.83,0,0,1-.26.19.77.77,0,0,1-.3.06H60.47a.72.72,0,0,1-.29-.06.67.67,0,0,1-.25-.16l-3.42-3.43v3.69l4,3.41a1,1,0,0,1,.2.25.88.88,0,0,1,.07.32Z"/></g></svg>