<svg id="Layer_9" data-name="Layer 9" xmlns="http://www.w3.org/2000/svg" viewBox="0 0 130.84 130.84"><defs><style>.cls-1{fill:#e7fef8;stroke:#10f9b7;stroke-miterlimit:10;stroke-width:4.67px;}.cls-2{fill:#fff;}.cls-3,.cls-4{fill:#10f9b7;}.cls-3{stroke:#fff;stroke-width:2px;}</style></defs><path class="cls-1" d="M86.49,17.19A30.69,30.69,0,0,0,63,28,17.63,17.63,0,0,0,38.35,39a9.5,9.5,0,0,0-8.47,9.08A16.78,16.78,0,0,0,14.51,62.9V63a16.83,16.83,0,0,0,8.88,16.64,20.33,20.33,0,0,0,11.43,3.51H80.17c11.21,0,36.25,0,36.25-28.06C116.41,36.27,109.44,17.19,86.49,17.19Z"/><path class="cls-2" d="M77.49,74H53.73V97.76H77.49Z"/><path class="cls-3" d="M56.15,100.26h18.3c2.88,0,5.88-1.82,5.88-4.89V77.07a6,6,0,0,0-1.78-4,5.83,5.83,0,0,0-4.1-1.9H56.15a4.54,4.54,0,0,0-3.75,2,6.8,6.8,0,0,0-1.22,3.91v18.3a4.9,4.9,0,0,0,1.29,3.5A5,5,0,0,0,56.15,100.26Zm-.32-23.19A2.57,2.57,0,0,1,56.05,76a.73.73,0,0,1,.13-.18H74.36a1.59,1.59,0,0,1,.86.47,1.67,1.67,0,0,1,.46.88v18.2a.69.69,0,0,1-.22.11,3.08,3.08,0,0,1-1,.16H56.15a.94.94,0,0,1-.28,0h0a1,1,0,0,1,0-.22Zm.37-1.29a0,0,0,0,1,0,0A0,0,0,0,1,56.2,75.78Z"/><path class="cls-4" d="M86.14,84.71H82.83a1.31,1.31,0,0,1-1.32-1.32,1.29,1.29,0,0,1,.39-.93,1.31,1.31,0,0,1,.93-.39h3.31a1.31,1.31,0,0,1,1.32,1.32,1.3,1.3,0,0,1-1.32,1.32Z"/><path class="cls-4" d="M86.14,91.33H82.83a1.31,1.31,0,0,1-.93-.39,1.33,1.33,0,0,1-.39-.94,1.33,1.33,0,0,1,1.32-1.32h3.31A1.31,1.31,0,0,1,87.46,90a1.37,1.37,0,0,1-.38.94A1.33,1.33,0,0,1,86.14,91.33Z"/><path class="cls-4" d="M86.14,97.28H82.83a1.33,1.33,0,0,1,0-2.65h3.31A1.31,1.31,0,0,1,87.46,96a1.35,1.35,0,0,1-.38.94A1.33,1.33,0,0,1,86.14,97.28Z"/><path class="cls-4" d="M55.51,70.17a1.33,1.33,0,0,1-.94-.39,1.32,1.32,0,0,1-.39-.94v-3.3a1.33,1.33,0,0,1,.39-.94,1.37,1.37,0,0,1,.94-.38,1.31,1.31,0,0,1,1.32,1.32v3.3a1.33,1.33,0,0,1-1.32,1.33Z"/><path class="cls-4" d="M62.12,70.17a1.31,1.31,0,0,1-.93-.39,1.33,1.33,0,0,1-.39-.94V52.31A1.33,1.33,0,0,1,62.12,51a1.33,1.33,0,0,1,.94.39,1.31,1.31,0,0,1,.39.93V68.84a1.33,1.33,0,0,1-1.33,1.33Z"/><path class="cls-4" d="M69.4,70.17a1.29,1.29,0,0,1-.93-.39,1.31,1.31,0,0,1-.39-.93V58.93a1.33,1.33,0,0,1,.39-.94,1.29,1.29,0,0,1,.93-.39,1.31,1.31,0,0,1,1.32,1.33v9.92a1.3,1.3,0,0,1-.38.93A1.33,1.33,0,0,1,69.4,70.17Z"/><path class="cls-4" d="M75.36,70.17a1.33,1.33,0,0,1-.94-.39,1.32,1.32,0,0,1-.39-.94v-3.3a1.33,1.33,0,0,1,.39-.94,1.37,1.37,0,0,1,.94-.38,1.31,1.31,0,0,1,1.32,1.32v3.3a1.33,1.33,0,0,1-1.32,1.33Z"/><path class="cls-4" d="M55.51,107.19a1.37,1.37,0,0,1-.94-.38,1.33,1.33,0,0,1-.39-.94v-3.3a1.32,1.32,0,0,1,.39-.94,1.33,1.33,0,0,1,.94-.39,1.33,1.33,0,0,1,1.32,1.33v3.3a1.31,1.31,0,0,1-1.32,1.32Z"/><path class="cls-4" d="M62.12,107.19a1.31,1.31,0,0,1-1.32-1.32v-3.3a1.33,1.33,0,0,1,1.32-1.33,1.33,1.33,0,0,1,.94.39,1.32,1.32,0,0,1,.39.94v3.3a1.33,1.33,0,0,1-.39.94A1.37,1.37,0,0,1,62.12,107.19Z"/><path class="cls-4" d="M69.4,107.19a1.31,1.31,0,0,1-1.32-1.32v-3.3a1.32,1.32,0,0,1,.39-.94,1.29,1.29,0,0,1,.93-.39,1.33,1.33,0,0,1,.94.39,1.31,1.31,0,0,1,.38.94v3.3a1.32,1.32,0,0,1-.38.94A1.37,1.37,0,0,1,69.4,107.19Z"/><path class="cls-4" d="M75.36,108a1.42,1.42,0,0,1-1-.48,1.43,1.43,0,0,1-.36-1v-3.77a1.31,1.31,0,0,1,1.33-1.32,1.3,1.3,0,0,1,.93.38,1.33,1.33,0,0,1,.39.94v3.77A1.42,1.42,0,0,1,75.36,108Z"/><path class="cls-4" d="M72.67,76.89H58.76a1.92,1.92,0,0,0-1.92,1.92v13.9a1.92,1.92,0,0,0,1.92,1.92H72.67a1.92,1.92,0,0,0,1.92-1.92V78.81A1.92,1.92,0,0,0,72.67,76.89Z"/><path class="cls-4" d="M37.84,92.09a1.31,1.31,0,0,0-1.32,1.32v16.53a1.33,1.33,0,0,0,1.32,1.32,1.33,1.33,0,0,0,.94-.39,1.29,1.29,0,0,0,.39-.93V93.41a1.33,1.33,0,0,0-.39-.94A1.37,1.37,0,0,0,37.84,92.09Z"/><path class="cls-4" d="M47.77,91.33H37.84a1.28,1.28,0,0,0-.93.38,1.33,1.33,0,0,0-.39.94,1.31,1.31,0,0,0,.39.93,1.29,1.29,0,0,0,.93.39h9.93a1.33,1.33,0,0,0,1.32-1.32,1.33,1.33,0,0,0-.39-.94A1.3,1.3,0,0,0,47.77,91.33Z"/><path class="cls-4" d="M37.84,113.65A2.64,2.64,0,1,0,35.2,111,2.64,2.64,0,0,0,37.84,113.65Z"/><path class="cls-4" d="M69.41,60.24a2.64,2.64,0,1,0-2.64-2.64A2.64,2.64,0,0,0,69.41,60.24Z"/><path class="cls-4" d="M75.36,111.37a2.64,2.64,0,1,0-2.64-2.64A2.64,2.64,0,0,0,75.36,111.37Z"/><path class="cls-4" d="M88.06,98.46a2.64,2.64,0,1,0-2.64-2.63A2.64,2.64,0,0,0,88.06,98.46Z"/><path class="cls-4" d="M92.5,75.06H82.83a1.31,1.31,0,0,0-.93.39,1.29,1.29,0,0,0-.39.93,1.33,1.33,0,0,0,.39.94,1.3,1.3,0,0,0,.93.38H92.5a1.28,1.28,0,0,0,.93-.38,1.33,1.33,0,0,0,.39-.94,1.33,1.33,0,0,0-1.32-1.32Z"/><path class="cls-4" d="M92.5,64.86a1.37,1.37,0,0,0-.94.38,1.32,1.32,0,0,0-.38.94V76.1a1.28,1.28,0,0,0,.38.93,1.33,1.33,0,0,0,.94.39,1.33,1.33,0,0,0,1.32-1.32V66.18a1.31,1.31,0,0,0-1.32-1.32Z"/><path class="cls-4" d="M92.68,67.61a2.49,2.49,0,1,0-2.49-2.49A2.49,2.49,0,0,0,92.68,67.61Z"/><path class="cls-4" d="M39.18,75.06h9.67a1.31,1.31,0,0,1,.93.39,1.29,1.29,0,0,1,.39.93,1.33,1.33,0,0,1-.39.94,1.3,1.3,0,0,1-.93.38H39.18a1.32,1.32,0,0,1-.94-.38,1.37,1.37,0,0,1-.38-.94,1.31,1.31,0,0,1,1.32-1.32Z"/><path class="cls-4" d="M39.18,64.86a1.3,1.3,0,0,1,1.32,1.32V76.1a1.32,1.32,0,1,1-2.64,0V66.18a1.3,1.3,0,0,1,1.32-1.32Z"/><path class="cls-4" d="M39,67.61a2.49,2.49,0,1,0-2.49-2.49A2.49,2.49,0,0,0,39,67.61Z"/></svg>