<svg width="638" height="325" viewBox="0 0 638 325" fill="none" xmlns="http://www.w3.org/2000/svg">
<mask id="path-1-inside-1_329_1169" fill="white">
<path d="M849.087 106.232C869.018 131.719 882.499 161.885 886.676 195.574C893.503 248.455 878.199 302.899 845.378 344.791L843.33 347.317C710.328 508.578 473.836 535.91 313.922 407.473C154.007 279.037 131.172 46.0808 258.691 -117.308L277.856 -21.1501C214.295 106.395 243.468 263.677 356.741 354.652C487.706 459.837 682.374 436.833 791.601 303.497C813.482 275.569 823.59 239.702 819.239 204.356C817.527 190.089 812.991 176.966 806.462 164.897L824.893 142.161C834.202 130.678 841.989 118.732 849.087 106.232Z"/>
</mask>
<path d="M849.087 106.232C869.018 131.719 882.499 161.885 886.676 195.574C893.503 248.455 878.199 302.899 845.378 344.791L843.33 347.317C710.328 508.578 473.836 535.91 313.922 407.473C154.007 279.037 131.172 46.0808 258.691 -117.308L277.856 -21.1501C214.295 106.395 243.468 263.677 356.741 354.652C487.706 459.837 682.374 436.833 791.601 303.497C813.482 275.569 823.59 239.702 819.239 204.356C817.527 190.089 812.991 176.966 806.462 164.897L824.893 142.161C834.202 130.678 841.989 118.732 849.087 106.232Z" stroke="url(#paint0_linear_329_1169)" stroke-width="4" mask="url(#path-1-inside-1_329_1169)"/>
<mask id="path-2-inside-2_329_1169" fill="white">
<path d="M825.128 142.345L730.553 259.011C647.334 361.668 498.002 379.754 398.055 299.481C298.109 219.208 284.309 70.1032 367.528 -32.5537L462.103 -149.22C540.853 -246.365 682.282 -263.593 776.945 -187.565L796.015 -172.248C841.234 -136.309 869.449 -84.0723 875.782 -25.9009C882.146 34.5712 864.037 94.3468 825.128 142.345ZM420.143 9.70473C360.569 83.1951 369.648 189.454 440.645 246.475C511.642 303.496 617.903 289.874 677.477 216.384L772.052 99.7177C799.606 65.7284 812.244 23.9314 807.755 -18.7304C803.526 -58.9071 783.984 -94.6993 752.966 -119.612L733.666 -135.112C667.954 -187.889 569.781 -175.354 514.489 -107.146L420.143 9.70473Z"/>
</mask>
<path d="M825.128 142.345L730.553 259.011C647.334 361.668 498.002 379.754 398.055 299.481C298.109 219.208 284.309 70.1032 367.528 -32.5537L462.103 -149.22C540.853 -246.365 682.282 -263.593 776.945 -187.565L796.015 -172.248C841.234 -136.309 869.449 -84.0723 875.782 -25.9009C882.146 34.5712 864.037 94.3468 825.128 142.345ZM420.143 9.70473C360.569 83.1951 369.648 189.454 440.645 246.475C511.642 303.496 617.903 289.874 677.477 216.384L772.052 99.7177C799.606 65.7284 812.244 23.9314 807.755 -18.7304C803.526 -58.9071 783.984 -94.6993 752.966 -119.612L733.666 -135.112C667.954 -187.889 569.781 -175.354 514.489 -107.146L420.143 9.70473Z" stroke="url(#paint1_linear_329_1169)" stroke-width="4" mask="url(#path-2-inside-2_329_1169)"/>
<mask id="path-3-inside-3_329_1169" fill="white">
<path d="M795.153 214.002C804.572 244.955 806.29 277.952 798.059 310.886C785.391 362.679 751.513 407.964 705.811 435.231L702.991 436.851C520.854 539.42 290.379 479.782 187.422 302.389C84.4657 124.995 147.026 -100.563 324.814 -207.091L308.078 -110.481C202.862 -14.3692 173.459 142.87 246.386 268.524C330.704 413.803 520.602 462.422 670.507 377.346C700.975 359.168 723.317 329.344 731.982 294.802C735.521 280.875 736.013 266.999 734.267 253.389L759.647 238.813C772.465 231.451 784.031 223.109 795.153 214.002Z"/>
</mask>
<path d="M795.153 214.002C804.572 244.955 806.29 277.952 798.059 310.886C785.391 362.679 751.513 407.964 705.811 435.231L702.991 436.851C520.854 539.42 290.379 479.782 187.422 302.389C84.4657 124.995 147.026 -100.563 324.814 -207.091L308.078 -110.481C202.862 -14.3692 173.459 142.87 246.386 268.524C330.704 413.803 520.602 462.422 670.507 377.346C700.975 359.168 723.317 329.344 731.982 294.802C735.521 280.875 736.013 266.999 734.267 253.389L759.647 238.813C772.465 231.451 784.031 223.109 795.153 214.002Z" stroke="url(#paint2_linear_329_1169)" stroke-width="12" mask="url(#path-3-inside-3_329_1169)"/>
<mask id="path-4-inside-4_329_1169" fill="white">
<path d="M759.794 239.071L629.561 313.868C514.966 379.684 369.135 342.797 304.787 231.926C240.44 121.055 281.243 -23.0207 395.838 -88.8365L526.071 -163.634C634.514 -225.916 772.663 -191.075 833.608 -86.0658L845.886 -64.9111C875.136 -15.1026 882.654 43.789 867.62 100.34C851.788 159.049 813.375 208.298 759.794 239.071ZM429.713 -30.4698C347.676 16.6466 317.894 119.05 363.603 197.807C409.313 276.563 513.353 302.108 595.39 254.991L725.623 180.194C763.565 158.403 790.404 123.958 801.573 82.5402C812.091 43.535 806.744 3.10725 786.774 -31.301L774.348 -52.7106C732.042 -125.605 635.939 -149.252 559.798 -105.522L429.713 -30.4698Z"/>
</mask>
<path d="M759.794 239.071L629.561 313.868C514.966 379.684 369.135 342.797 304.787 231.926C240.44 121.055 281.243 -23.0207 395.838 -88.8365L526.071 -163.634C634.514 -225.916 772.663 -191.075 833.608 -86.0658L845.886 -64.9111C875.136 -15.1026 882.654 43.789 867.62 100.34C851.788 159.049 813.375 208.298 759.794 239.071ZM429.713 -30.4698C347.676 16.6466 317.894 119.05 363.603 197.807C409.313 276.563 513.353 302.108 595.39 254.991L725.623 180.194C763.565 158.403 790.404 123.958 801.573 82.5402C812.091 43.535 806.744 3.10725 786.774 -31.301L774.348 -52.7106C732.042 -125.605 635.939 -149.252 559.798 -105.522L429.713 -30.4698Z" stroke="url(#paint3_linear_329_1169)" stroke-width="12" mask="url(#path-4-inside-4_329_1169)"/>
<path d="M548 96L473.667 173L432 126" stroke="#00F1BF" stroke-width="32" stroke-linecap="round" stroke-linejoin="round"/>
<defs>
<linearGradient id="paint0_linear_329_1169" x1="202.281" y1="-47.7218" x2="782.366" y2="422.522" gradientUnits="userSpaceOnUse">
<stop stop-color="#00F1BF"/>
<stop offset="0.307292" stop-color="#5AB8E1"/>
<stop offset="0.598958" stop-color="#AC85FF"/>
<stop offset="0.822917" stop-color="#AC85FF"/>
</linearGradient>
<linearGradient id="paint1_linear_329_1169" x1="410.813" y1="-85.9501" x2="772.508" y2="207.256" gradientUnits="userSpaceOnUse">
<stop stop-color="#00F1BF"/>
<stop offset="0.307292" stop-color="#5AB8E1"/>
<stop offset="0.598958" stop-color="#AC85FF"/>
<stop offset="0.822917" stop-color="#AC85FF"/>
</linearGradient>
<linearGradient id="paint2_linear_329_1169" x1="247.136" y1="-162.477" x2="619.041" y2="485.066" gradientUnits="userSpaceOnUse">
<stop stop-color="#00F1BF"/>
<stop offset="0.307292" stop-color="#5AB8E1"/>
<stop offset="0.598958" stop-color="#AC85FF"/>
<stop offset="0.822917" stop-color="#AC85FF"/>
</linearGradient>
<linearGradient id="paint3_linear_329_1169" x1="455.444" y1="-123.07" x2="687.335" y2="280.686" gradientUnits="userSpaceOnUse">
<stop stop-color="#00F1BF"/>
<stop offset="0.307292" stop-color="#5AB8E1"/>
<stop offset="0.598958" stop-color="#AC85FF"/>
<stop offset="0.822917" stop-color="#AC85FF"/>
</linearGradient>
</defs>
</svg>
