<svg width="272" height="298" viewBox="0 0 272 298" fill="none" xmlns="http://www.w3.org/2000/svg">
<path d="M357.176 -2.28267C367.741 11.6918 374.873 28.1076 377.125 46.3761L377.126 46.3811C380.917 75.9056 372.419 106.313 354.191 129.708L353.053 131.119C353.052 131.12 353.052 131.121 353.051 131.122C278.849 221.576 146.94 236.879 57.768 164.871C-30.8415 93.3172 -44.0015 -36.1238 25.6373 -127.682L35.8822 -75.9992C0.263818 -3.79374 16.7332 85.1655 80.5091 136.666C154.351 196.294 264.069 183.231 325.612 107.695L325.618 107.687L325.625 107.678C338.049 91.7349 343.788 71.2609 341.317 51.0805C340.369 43.1364 337.901 35.8182 334.358 29.0825L344.272 16.7864C349.205 10.6677 353.377 4.32314 357.176 -2.28267Z" stroke="url(#paint0_linear_1_3512)" stroke-width="2"/>
<path d="M326.682 -160.219L326.686 -160.216C351.812 -140.138 367.497 -110.951 371.018 -78.4298C374.556 -44.6271 364.49 -11.2097 342.847 15.6333L289.846 81.3692C243.539 138.804 160.477 148.887 104.917 104.022C49.3579 59.1566 41.6519 -24.2229 87.9597 -81.6577L140.96 -147.394C184.765 -201.723 263.398 -211.322 315.995 -168.849L326.682 -160.219ZM168.762 -124.943L168.761 -124.942L115.89 -59.1035C82.1821 -17.2962 87.2824 43.2121 127.53 75.7124C167.777 108.213 227.951 100.414 261.659 58.607L314.659 -7.12883C330.262 -26.4811 337.428 -50.2938 334.883 -74.6012C332.486 -97.5007 321.404 -117.912 303.813 -132.117L292.997 -140.852C255.711 -170.961 200.07 -163.774 168.762 -124.943Z" stroke="url(#paint1_linear_1_3512)" stroke-width="2"/>
<path d="M288.376 72.8648C291.59 85.7758 291.877 99.3325 288.515 112.854L288.514 112.861L288.512 112.868C282.737 136.608 267.284 157.387 246.441 169.899L245.143 170.648C160.708 218.446 53.9622 190.61 6.30554 108.052C-40.2507 27.3998 -13.734 -74.7234 64.347 -125.697L57.7745 -87.5521C7.83586 -41.0618 -6.03562 34.5017 28.8922 95.0091C69.4801 165.322 160.807 188.756 232.813 147.668L232.842 147.652L232.87 147.635C247.905 138.616 258.925 123.826 263.202 106.687C264.797 100.374 265.148 94.098 264.567 87.9568L274.828 82.0318C279.666 79.238 284.122 76.1624 288.376 72.8648Z" stroke="url(#paint2_linear_1_3512)" stroke-width="6"/>
<path d="M311.364 -62.9518L311.368 -62.9451L311.372 -62.9385C324.738 -40.0542 328.188 -12.98 321.303 13.0633C314.053 40.0882 296.467 62.7697 271.897 76.9577L210.534 112.392C157.909 142.78 91.0595 125.696 61.6055 74.6712C32.1515 23.6463 50.7834 -42.7997 103.408 -73.1881L164.772 -108.622C214.499 -137.338 277.729 -121.22 305.579 -72.9735L311.364 -62.9518ZM177.664 -86.2891L177.658 -86.2861L116.37 -50.734C116.369 -50.7335 116.368 -50.733 116.367 -50.7325C76.3745 -27.6367 61.7042 22.6713 84.1224 61.5077C106.541 100.345 157.438 112.792 197.433 89.6964L258.796 54.262C277.347 43.5497 290.506 26.5849 295.98 6.17852C301.14 -13.062 298.518 -33.0341 288.708 -50.0298L282.853 -60.1723C262.037 -96.2334 214.879 -107.779 177.664 -86.2891Z" stroke="url(#paint3_linear_1_3512)" stroke-width="6"/>
<path d="M208 29.9346L168.911 69.9346L147 45.519" stroke="#33F4CC" stroke-width="11" stroke-linecap="round" stroke-linejoin="round"/>
<defs>
<linearGradient id="paint0_linear_1_3512" x1="-5.42384" y1="-90.8321" x2="321.056" y2="172.398" gradientUnits="userSpaceOnUse">
<stop stop-color="#00F1BF"/>
<stop offset="0.307292" stop-color="#5AB8E1"/>
<stop offset="0.598958" stop-color="#AC85FF"/>
<stop offset="0.822917" stop-color="#AC85FF"/>
</linearGradient>
<linearGradient id="paint1_linear_1_3512" x1="111.439" y1="-112.372" x2="315.006" y2="51.757" gradientUnits="userSpaceOnUse">
<stop stop-color="#00F1BF"/>
<stop offset="0.307292" stop-color="#5AB8E1"/>
<stop offset="0.598958" stop-color="#AC85FF"/>
<stop offset="0.822917" stop-color="#AC85FF"/>
</linearGradient>
<linearGradient id="paint2_linear_1_3512" x1="31.8434" y1="-110.673" x2="208.509" y2="195.267" gradientUnits="userSpaceOnUse">
<stop stop-color="#00F1BF"/>
<stop offset="0.307292" stop-color="#5AB8E1"/>
<stop offset="0.598958" stop-color="#AC85FF"/>
<stop offset="0.822917" stop-color="#AC85FF"/>
</linearGradient>
<linearGradient id="paint3_linear_1_3512" x1="129.994" y1="-92.0041" x2="240.148" y2="98.7555" gradientUnits="userSpaceOnUse">
<stop stop-color="#00F1BF"/>
<stop offset="0.307292" stop-color="#5AB8E1"/>
<stop offset="0.598958" stop-color="#AC85FF"/>
<stop offset="0.822917" stop-color="#AC85FF"/>
</linearGradient>
</defs>
</svg>
