<svg width="48" height="49" viewBox="0 0 48 49" fill="none" xmlns="http://www.w3.org/2000/svg">
<path d="M47.1014 25.8582L46.0691 27.194C45.7575 27.5947 45.6886 28.129 45.887 28.5986L46.5428 30.153C46.7937 30.744 46.6075 31.4281 46.0975 31.8126L44.7536 32.8327C44.3488 33.1403 44.1423 33.6382 44.2112 34.1402L44.4378 35.8119C44.5229 36.4475 44.1707 37.0587 43.5756 37.3016L42.0132 37.9371C41.5436 38.1273 41.2157 38.5564 41.151 39.0584L40.9405 40.7301C40.8595 41.3657 40.3616 41.8635 39.7261 41.9445L38.0543 42.155C37.5524 42.2198 37.1233 42.5476 36.933 43.0172L36.2975 44.5797C36.0546 45.1707 35.4434 45.5269 34.8079 45.4419L33.1361 45.2152C32.6342 45.1464 32.1363 45.3528 31.8286 45.7576L30.8086 47.1015C30.42 47.6116 29.7359 47.7937 29.1489 47.5468L27.5945 46.891C27.129 46.6927 26.5907 46.7656 26.1899 47.0732L24.8541 48.1054C24.3481 48.4981 23.6438 48.4981 23.1378 48.1054L21.802 47.0732C21.4012 46.7615 20.8669 46.6927 20.3974 46.891L18.843 47.5468C18.252 47.7978 17.5679 47.6116 17.1833 47.1015L16.1633 45.7576C15.8556 45.3528 15.3577 45.1464 14.8558 45.2152L13.184 45.4419C12.5485 45.5269 11.9373 45.1747 11.6944 44.5797L11.0589 43.0172C10.8686 42.5476 10.4395 42.2198 9.9376 42.155L8.26581 41.9445C7.63029 41.8635 7.1324 41.3657 7.05144 40.7301L6.84095 39.0584C6.77619 38.5564 6.44831 38.1273 5.97875 37.9371L4.41626 37.3016C3.82527 37.0587 3.46905 36.4475 3.55406 35.8119L3.78074 34.1402C3.84955 33.6382 3.64311 33.1403 3.23832 32.8327L1.89442 31.8126C1.38438 31.424 1.20223 30.7399 1.44915 30.153L2.10491 28.5986C2.30326 28.1331 2.23039 27.5947 1.92275 27.194L0.890539 25.8582C0.497892 25.3522 0.497892 24.6478 0.890539 24.1418L1.92275 22.806C2.23444 22.4053 2.30326 21.871 2.10491 21.4014L1.44915 19.847C1.19818 19.256 1.38438 18.5719 1.89442 18.1874L3.23832 17.1673C3.64311 16.8597 3.84955 16.3618 3.78074 15.8598L3.55406 14.1881C3.46905 13.5525 3.82122 12.9413 4.41626 12.6984L5.97875 12.0629C6.44831 11.8727 6.77619 11.4436 6.84095 10.9416L7.05144 9.26986C7.1324 8.63434 7.63029 8.13644 8.26581 8.05549L9.9376 7.845C10.4395 7.78023 10.8686 7.45235 11.0589 6.98279L11.6944 5.4203C11.9373 4.82931 12.5485 4.47309 13.184 4.5581L14.8558 4.78478C15.3577 4.8536 15.8556 4.64715 16.1633 4.24236L17.1833 2.89846C17.5719 2.38843 18.256 2.20627 18.843 2.45319L20.3974 3.10895C20.8629 3.3073 21.4012 3.23444 21.802 2.9268L23.1378 1.89458C23.6438 1.50194 24.3481 1.50194 24.8541 1.89458L26.1899 2.9268C26.5907 3.23849 27.125 3.3073 27.5945 3.10895L29.1489 2.45319C29.7399 2.20222 30.424 2.38843 30.8086 2.89846L31.8286 4.24236C32.1363 4.64715 32.6342 4.8536 33.1361 4.78478L34.8079 4.5581C35.4434 4.47309 36.0546 4.82526 36.2975 5.4203L36.933 6.98279C37.1233 7.45235 37.5524 7.78023 38.0543 7.845L39.7261 8.05549C40.3616 8.13644 40.8595 8.63434 40.9405 9.26986L41.151 10.9416C41.2157 11.4436 41.5436 11.8727 42.0132 12.0629L43.5756 12.6984C44.1666 12.9413 44.5229 13.5525 44.4378 14.1881L44.2112 15.8598C44.1423 16.3618 44.3488 16.8597 44.7536 17.1673L46.0975 18.1874C46.6075 18.576 46.7897 19.2601 46.5428 19.847L45.887 21.4014C45.6886 21.8669 45.7615 22.4053 46.0691 22.806L47.1014 24.1418C47.494 24.6478 47.494 25.3522 47.1014 25.8582Z" fill="#00F1BF"/>
<path d="M24 49C23.5669 49 23.1297 48.8583 22.7694 48.579L21.4336 47.5468C21.2069 47.3727 20.9034 47.3323 20.6402 47.4416L19.0858 48.0973C18.2398 48.4535 17.2602 48.1945 16.7057 47.4618L15.6856 46.1179C15.5115 45.8912 15.2282 45.7738 14.9448 45.8102L13.2731 46.0369C12.3663 46.1584 11.4879 45.6524 11.1398 44.8023L10.5043 43.2398C10.395 42.9727 10.1521 42.7865 9.86877 42.75L8.19699 42.5395C7.28621 42.4262 6.56974 41.7097 6.45639 40.7989L6.2459 39.1231C6.20947 38.8398 6.02327 38.5969 5.75611 38.4876L4.19362 37.8521C3.34356 37.508 2.83757 36.6296 2.95901 35.7188L3.18569 34.0471C3.22617 33.7637 3.10878 33.4803 2.87805 33.3063L1.53415 32.2862C0.801478 31.7317 0.538365 30.7521 0.898628 29.906L1.55439 28.3517C1.66773 28.0885 1.62725 27.7849 1.44914 27.5583L0.416928 26.2225C-0.14573 25.4979 -0.14573 24.4859 0.416928 23.7613L1.44914 22.4255C1.6232 22.1988 1.66368 21.8953 1.55439 21.6321L0.898628 20.0777C0.542413 19.2317 0.801478 18.2521 1.53415 17.6976L2.87805 16.6775C3.10473 16.5034 3.22212 16.2201 3.18569 15.9367L2.95901 14.265C2.83352 13.3542 3.33951 12.4798 4.19362 12.1317L5.75611 11.4962C6.02327 11.3869 6.20947 11.144 6.2459 10.8607L6.45639 9.18484C6.56974 8.27407 7.28621 7.55759 8.19699 7.44425L9.86877 7.23376C10.1521 7.19733 10.395 7.01112 10.5043 6.74396L11.1398 5.18147C11.4839 4.33141 12.3582 3.82138 13.2731 3.94686L14.9448 4.17355C15.2282 4.21402 15.5115 4.09664 15.6856 3.86591L16.7057 2.522C17.2602 1.78933 18.2398 1.52622 19.0858 1.88648L20.6402 2.54224C20.9034 2.65153 21.2069 2.6151 21.4336 2.437L22.7694 1.40478C23.494 0.842124 24.506 0.842124 25.2306 1.40478L26.5664 2.437C26.793 2.61106 27.0966 2.65153 27.3597 2.54224L28.9141 1.88648C29.7602 1.52622 30.7397 1.78933 31.2943 2.522L32.3144 3.86591C32.4884 4.09259 32.7718 4.20998 33.0551 4.17355L34.7269 3.94686C35.6377 3.82138 36.5121 4.32737 36.8602 5.18147L37.4957 6.74396C37.605 7.01112 37.8479 7.19733 38.1312 7.23376L39.807 7.44425C40.7178 7.55759 41.4343 8.27407 41.5476 9.18484L41.7581 10.8607C41.7946 11.144 41.9808 11.3869 42.2479 11.4962L43.8104 12.1317C44.6605 12.4758 45.1665 13.3542 45.045 14.265L44.8183 15.9367C44.7779 16.2201 44.8993 16.5034 45.126 16.6775L46.4699 17.6976C47.2026 18.2521 47.4657 19.2317 47.1054 20.0777L46.4496 21.6321C46.3363 21.8953 46.3768 22.2029 46.5549 22.4296L47.5871 23.7613C48.1498 24.4859 48.1498 25.4979 47.5871 26.2225L46.5549 27.5583C46.3808 27.7849 46.3404 28.0885 46.4496 28.3517L47.1054 29.906C47.4616 30.7521 47.2026 31.7317 46.4699 32.2862L45.126 33.3063C44.8993 33.4803 44.7819 33.7637 44.8183 34.0471L45.045 35.7188C45.1705 36.6296 44.6605 37.504 43.8104 37.8521L42.2479 38.4876C41.9808 38.5969 41.7946 38.8398 41.7581 39.1231L41.5476 40.7949C41.4343 41.7057 40.7178 42.4222 39.807 42.5355L38.1353 42.746C37.8519 42.7824 37.605 42.9686 37.4997 43.2358L36.8642 44.7983C36.5201 45.6483 35.6418 46.1584 34.731 46.0329L33.0592 45.8062C32.7758 45.7698 32.4925 45.8831 32.3184 46.1138L31.2984 47.4577C30.7438 48.1904 29.7642 48.4535 28.9182 48.0933L27.3638 47.4375C27.1007 47.3242 26.7971 47.3646 26.5704 47.5428L25.2346 48.575C24.8743 48.8543 24.4372 48.9959 24.004 48.9959L24 49ZM20.9479 46.1624C21.385 46.1624 21.8222 46.3041 22.1784 46.5834L23.5142 47.6197C23.8016 47.8423 24.2024 47.8423 24.4857 47.6197L25.8216 46.5874C26.3964 46.1422 27.1655 46.041 27.8334 46.3243L29.3877 46.9801C29.7237 47.1218 30.1083 47.0165 30.3309 46.7291L31.351 45.3852C31.7882 44.8104 32.5046 44.5109 33.2211 44.608L34.8929 44.8347C35.2532 44.8833 35.6013 44.6809 35.7349 44.3449L36.3704 42.7824C36.6416 42.1105 37.2609 41.6369 37.9774 41.5478L39.6492 41.3373C40.0094 41.2928 40.2928 41.0094 40.3373 40.6492L40.5478 38.9733C40.6369 38.2528 41.1145 37.6375 41.7824 37.3663L43.3449 36.7308C43.6809 36.5932 43.8833 36.2491 43.8347 35.8888L43.608 34.2171C43.5109 33.5006 43.8064 32.7841 44.3852 32.3469L45.7291 31.3269C46.0165 31.1083 46.1218 30.7197 45.9801 30.3837L45.3243 28.8293C45.041 28.1614 45.1422 27.3923 45.5874 26.8175L46.6197 25.4817C46.8423 25.1943 46.8423 24.7935 46.6197 24.5102L45.5874 23.1744C45.1422 22.5996 45.041 21.8305 45.3243 21.1626L45.9801 19.6082C46.1218 19.2722 46.0165 18.8877 45.7291 18.665L44.3852 17.645C43.8104 17.2078 43.5109 16.4913 43.608 15.7708L43.8347 14.099C43.8833 13.7387 43.6849 13.3906 43.3449 13.257L41.7824 12.6215C41.1105 12.3503 40.6369 11.731 40.5478 11.0145L40.3373 9.33867C40.2928 8.9784 40.0094 8.69505 39.6492 8.65052L37.9774 8.44003C37.2569 8.35098 36.6416 7.87737 36.3704 7.20542L35.7349 5.64293C35.5972 5.30696 35.2532 5.10456 34.8929 5.15719L33.2211 5.38387C32.5006 5.48102 31.7882 5.18552 31.351 4.60667L30.3309 3.26277C30.1123 2.97537 29.7237 2.87012 29.3877 3.0118L27.8334 3.66756C27.1655 3.95091 26.3964 3.84971 25.8216 3.40444L24.4857 2.37223C24.1983 2.1496 23.7976 2.1496 23.5142 2.37223L22.1784 3.40444C21.6036 3.84971 20.8345 3.95091 20.1666 3.66756L18.6122 3.0118C18.2763 2.87012 17.8917 2.97537 17.6691 3.26277L16.649 4.60667C16.2118 5.18147 15.4954 5.47697 14.7748 5.38387L13.103 5.15719C12.7387 5.10456 12.3947 5.30696 12.2611 5.64698L11.6256 7.20947C11.3544 7.88142 10.735 8.35503 10.0185 8.44408L8.34676 8.65457C7.9865 8.6991 7.70315 8.98245 7.65862 9.34271L7.44813 11.0185C7.35908 11.7391 6.88547 12.3544 6.21352 12.6256L4.65103 13.2611C4.31506 13.3987 4.11266 13.7428 4.16528 14.103L4.39197 15.7748C4.48912 16.4913 4.19362 17.2078 3.61477 17.645L2.27087 18.665C1.98346 18.8836 1.87822 19.2722 2.0199 19.6082L2.67566 21.1626C2.95901 21.8305 2.85781 22.5996 2.41254 23.1744L1.38033 24.5102C1.15769 24.7976 1.15769 25.1983 1.38033 25.4817L2.41254 26.8135C2.85781 27.3842 2.95901 28.1574 2.67566 28.8253L2.0199 30.3797C1.87822 30.7156 1.98346 31.1002 2.27087 31.3228L3.61477 32.3429C4.19362 32.7801 4.48912 33.4965 4.39197 34.2171L4.16528 35.8888C4.11671 36.2491 4.31506 36.5932 4.65103 36.7308L6.21352 37.3663C6.88547 37.6416 7.35908 38.2569 7.44813 38.9733L7.65862 40.6451C7.70315 41.0054 7.9865 41.2887 8.34676 41.3333L10.0185 41.5438C10.7391 41.6369 11.3544 42.1105 11.6256 42.7784L12.2611 44.3409C12.3987 44.6768 12.7468 44.8792 13.103 44.8307L14.7748 44.604C15.4913 44.5068 16.2078 44.8023 16.645 45.3812L17.665 46.7251C17.8836 47.0125 18.2682 47.1177 18.6082 46.976L20.1626 46.3203C20.4136 46.215 20.6767 46.1624 20.9438 46.1624H20.9479Z" fill="#00F1BF"/>
<path d="M20.9236 31.8572L15.5561 26.4896C15.0582 25.9917 15.0703 25.1781 15.5844 24.6924C16.0702 24.235 16.8312 24.239 17.3129 24.7045L20.8062 28.0886L30.5859 18.5315C31.0919 18.0093 31.9298 18.0093 32.4399 18.5315C32.9337 19.0375 32.9297 19.8511 32.4277 20.353L20.9236 31.8572Z" fill="#020A5B"/>
<path d="M24 43.8794C13.5888 43.8794 5.12059 35.4112 5.12059 25C5.12059 14.5888 13.5928 6.12061 24 6.12061C34.4071 6.12061 42.8794 14.5888 42.8794 25C42.8794 35.4112 34.4112 43.8794 24 43.8794ZM24 7.33498C14.2607 7.33498 6.33496 15.2608 6.33496 25C6.33496 34.7393 14.2607 42.665 24 42.665C33.7392 42.665 41.665 34.7393 41.665 25C41.665 15.2608 33.7392 7.33498 24 7.33498Z" fill="#020A5B"/>
</svg>
