<svg width="395" height="115" viewBox="0 0 395 115" fill="none" xmlns="http://www.w3.org/2000/svg">
<g clip-path="url(#clip0_547_173)">
<mask id="mask0_547_173" style="mask-type:luminance" maskUnits="userSpaceOnUse" x="135" y="-114" width="331" height="347">
<path d="M445.511 166.328C445.511 166.328 466.291 73.5148 386.883 41.0787C373.324 35.5404 356.844 31.7623 336.841 30.5071C122.884 17.0809 358.794 -67.573 187.184 -91.3952L190.902 -96.1037C362.512 -72.2815 126.602 12.3723 340.559 25.798C357.161 26.8398 371.337 29.6197 383.43 33.7017C471.233 63.3397 449.228 161.619 449.228 161.619L445.51 166.327L445.511 166.328ZM458.854 149.427C458.854 149.427 479.635 56.6144 400.227 24.1777C386.668 18.6394 370.188 14.8613 350.185 13.606C136.228 0.180376 372.138 -84.4734 200.528 -108.296L204.245 -113.004C375.855 -89.1819 139.945 -4.52813 353.902 8.89754C370.504 9.93935 384.681 12.7192 396.773 16.8012C484.576 46.4393 462.571 144.718 462.571 144.718L458.853 149.427L458.854 149.427ZM410.353 210.857C410.353 210.857 431.134 118.044 351.726 85.6078C338.166 80.0695 321.687 76.2914 301.683 75.0361C87.7266 61.6105 323.636 -23.0434 152.027 -46.8656L155.745 -51.5746C327.354 -27.7524 91.4446 56.9014 305.401 70.3271C322.004 71.3689 336.18 74.1487 348.272 78.2307C436.075 107.869 414.07 206.148 414.07 206.148L410.353 210.856L410.353 210.857ZM393.606 232.068C393.606 232.068 414.388 139.254 334.979 106.818C321.42 101.28 304.94 97.502 284.937 96.2467C70.9805 82.8205 306.89 -1.8333 135.281 -25.6555L138.998 -30.364C310.607 -6.54123 74.698 78.112 288.654 91.5382C305.257 92.5795 319.433 95.3599 331.525 99.4419C419.328 129.08 397.323 227.359 397.323 227.359L393.606 232.067L393.606 232.068ZM427.194 189.527C427.194 189.527 447.975 96.7139 368.567 64.2778C355.007 58.7394 338.528 54.9614 318.524 53.7061C104.567 40.2805 340.477 -44.3734 168.868 -68.1961L172.585 -72.9046C344.195 -49.0824 108.285 35.5714 322.242 48.997C338.844 50.0389 353.021 52.8187 365.113 56.9007C452.916 86.5388 430.911 184.818 430.911 184.818L427.193 189.527L427.194 189.527Z" fill="white"/>
</mask>
<g mask="url(#mask0_547_173)">
<path d="M552.778 29.7084L251.405 -171.901L57.6331 73.4438L359.006 275.054L552.778 29.7084Z" fill="url(#paint0_linear_547_173)"/>
</g>
<rect x="-13.5273" width="409.068" height="123" fill="url(#paint1_linear_547_173)"/>
</g>
<defs>
<linearGradient id="paint0_linear_547_173" x1="220.569" y1="-118.53" x2="364.37" y2="210.046" gradientUnits="userSpaceOnUse">
<stop stop-color="#01EFDE"/>
<stop offset="1" stop-color="#C211FE"/>
</linearGradient>
<linearGradient id="paint1_linear_547_173" x1="122.082" y1="25.6696" x2="297.797" y2="138.887" gradientUnits="userSpaceOnUse">
<stop stop-color="#001948"/>
<stop offset="1" stop-color="#001948" stop-opacity="0"/>
</linearGradient>
<clipPath id="clip0_547_173">
<path d="M0 0H395V115H0V0Z" fill="white"/>
</clipPath>
</defs>
</svg>
