<svg width="304" height="115" viewBox="0 0 304 115" fill="none" xmlns="http://www.w3.org/2000/svg">
<mask id="mask0_234_174" style="mask-type:luminance" maskUnits="userSpaceOnUse" x="44" y="-114" width="331" height="347">
<path d="M354.511 166.328C354.511 166.328 375.291 73.5148 295.883 41.0787C282.324 35.5404 265.844 31.7624 245.841 30.5071C31.8843 17.0808 267.794 -67.573 96.1844 -91.3952L99.9019 -96.1037C271.512 -72.2815 35.6019 12.3723 249.559 25.798C266.161 26.8398 280.337 29.6197 292.43 33.7017C380.233 63.3397 358.228 161.619 358.228 161.619L354.51 166.327L354.511 166.328ZM367.854 149.427C367.854 149.427 388.635 56.6144 309.227 24.1777C295.668 18.6394 279.188 14.8613 259.185 13.606C45.2279 0.180378 281.138 -84.4734 109.528 -108.296L113.245 -113.004C284.855 -89.1819 48.9454 -4.52813 262.902 8.89753C279.504 9.93934 293.681 12.7192 305.773 16.8012C393.576 46.4393 371.571 144.718 371.571 144.718L367.853 149.427L367.854 149.427ZM319.353 210.857C319.353 210.857 340.134 118.044 260.726 85.6078C247.166 80.0695 230.687 76.2914 210.683 75.0361C-3.2734 61.6105 232.636 -23.0434 61.0267 -46.8656L64.7447 -51.5746C236.354 -27.7524 0.444571 56.9014 214.401 70.3271C231.004 71.3689 245.18 74.1487 257.272 78.2307C345.075 107.869 323.07 206.148 323.07 206.148L319.353 210.856L319.353 210.857ZM302.606 232.068C302.606 232.068 323.388 139.254 243.979 106.818C230.42 101.28 213.94 97.502 193.937 96.2467C-20.0195 82.8205 215.89 -1.8333 44.2806 -25.6555L47.9981 -30.364C219.607 -6.54124 -16.302 78.112 197.654 91.5382C214.257 92.5795 228.433 95.3599 240.525 99.4419C328.328 129.08 306.323 227.359 306.323 227.359L302.606 232.067L302.606 232.068ZM336.194 189.527C336.194 189.527 356.975 96.7139 277.567 64.2778C264.007 58.7395 247.528 54.9614 227.524 53.7061C13.5674 40.2805 249.477 -44.3734 77.8679 -68.1961L81.5855 -72.9046C253.195 -49.0824 17.2854 35.5714 231.242 48.997C247.844 50.0389 262.021 52.8187 274.113 56.9007C361.916 86.5388 339.911 184.818 339.911 184.818L336.193 189.527L336.194 189.527Z" fill="white"/>
</mask>
<g mask="url(#mask0_234_174)">
<path d="M461.778 29.7084L160.405 -171.901L-33.3669 73.4438L268.006 275.054L461.778 29.7084Z" fill="url(#paint0_linear_234_174)"/>
</g>
<defs>
<linearGradient id="paint0_linear_234_174" x1="129.569" y1="-118.53" x2="273.37" y2="210.046" gradientUnits="userSpaceOnUse">
<stop stop-color="#01EFDE"/>
<stop offset="1" stop-color="#C211FE"/>
</linearGradient>
</defs>
</svg>
