<svg id="Layer_1" data-name="Layer 1" xmlns="http://www.w3.org/2000/svg" viewBox="0 0 62.11 62.11"><defs><style>.cls-1{fill:#45bea5;fill-opacity:0.1;}.cls-2{fill:#fff;fill-rule:evenodd;isolation:isolate;opacity:0.2;}</style></defs><path class="cls-1" d="M0,55.1V7A7,7,0,0,1,7,0H55.1a7,7,0,0,1,4.95,12L12,60.05A7,7,0,0,1,0,55.1Z"/><path class="cls-2" d="M21.29,8A13.48,13.48,0,0,0,8,21.67a13.87,13.87,0,0,0,3.32,9,11.92,11.92,0,0,1,3.48-3.38A11.09,11.09,0,0,1,17,26.27a7.08,7.08,0,0,1-2.9-5.73,6.86,6.86,0,1,1,13.72,0,7.08,7.08,0,0,1-2.9,5.73A11.09,11.09,0,0,1,27,27.33a11.79,11.79,0,0,1,3.78,3.85,13.8,13.8,0,0,0,3.75-9.51A13.48,13.48,0,0,0,21.29,8Zm8,24.56A10,10,0,0,0,26,29a9.54,9.54,0,0,0-5-1.47h-.06a9.54,9.54,0,0,0-5,1.47,9.86,9.86,0,0,0-3.1,3.13,13,13,0,0,0,16.54.41Zm-18,1a15,15,0,0,0,9.94,3.76A15.48,15.48,0,0,0,36.57,21.67,15.48,15.48,0,0,0,21.29,6,15.48,15.48,0,0,0,6,21.67a15.83,15.83,0,0,0,4.4,11,1,1,0,0,0,.55.81A1.18,1.18,0,0,0,11.35,33.57Zm9.6-8a4.86,4.86,0,1,0-.06,0H21Z"/></svg>