<svg width="27" height="27" viewBox="0 0 27 27" fill="none" xmlns="http://www.w3.org/2000/svg">
<path d="M13.6264 11.6482H25.8324C25.9626 12.3592 26.0296 13.0804 26.0324 13.8032C26.0723 16.0715 25.5458 18.3138 24.5004 20.3272C23.5068 22.2126 21.9896 23.7707 20.1314 24.8142C18.1426 25.9165 15.8979 26.4739 13.6244 26.4302C11.8946 26.4366 10.1816 26.0899 8.59042 25.4112C7.04811 24.7741 5.64683 23.8386 4.46702 22.6584C3.28722 21.4783 2.35212 20.0767 1.71542 18.5342C1.04314 16.9411 0.696777 15.2294 0.696777 13.5002C0.696777 11.771 1.04314 10.0594 1.71542 8.46623C2.35235 6.92355 3.28776 5.52188 4.46791 4.34172C5.64807 3.16156 7.04974 2.22616 8.59242 1.58923C10.1836 0.910529 11.8966 0.563787 13.6264 0.570231C16.849 0.513924 19.964 1.72974 22.2964 3.95423L18.7774 7.33823C18.0954 6.67817 17.2883 6.1612 16.4035 5.81773C15.5187 5.47425 14.5742 5.31122 13.6254 5.33823C12.2142 5.32878 10.8273 5.7061 9.61542 6.42923C8.39166 7.15974 7.37843 8.19534 6.67483 9.43477C5.97123 10.6742 5.60135 12.075 5.60135 13.5002C5.60135 14.9254 5.97123 16.3263 6.67483 17.5657C7.37843 18.8051 8.39166 19.8407 9.61542 20.5712C10.8285 21.2963 12.2172 21.6747 13.6304 21.6652C14.544 21.6761 15.4534 21.5411 16.3244 21.2652C17.0494 21.0436 17.7321 20.7022 18.3444 20.2552C18.8645 19.8587 19.3289 19.3943 19.7254 18.8742C20.078 18.4265 20.3696 17.9338 20.5924 17.4092C20.7669 16.9869 20.894 16.5466 20.9714 16.0962H13.6314L13.6264 11.6482Z" fill="black"/>
</svg>
