<svg width="10000" height="270" viewBox="0 0 10000 270" fill="none" xmlns="http://www.w3.org/2000/svg">
<path d="M0 269.67V0.0200944C0 0.0200944 110.8 -4.4599 184.1 128.98C290.62 322.9 379.23 190.93 409.18 179.57C439.13 168.21 492.81 103.17 580.57 173.38C668.33 243.59 730.28 127.95 810.81 86.6501C891.34 45.3501 757.12 186.8 994.59 160.99C1232.06 135.18 1178.5 60.5 1215.54 43.2901C1296.08 14.3801 1273.36 138.28 1358.02 158.93C1442.68 179.58 1423.06 -86.7899 1669.82 48.4601C1916.58 183.71 1971.81 315.35 2117.91 169.26C2264 23.1701 2209.8 76.3401 2302.72 152.74C2395.64 229.14 2444.68 311.22 2549.48 206.43C2654.27 101.64 2561.87 10.2601 2764.23 100.09C2966.59 189.92 2982.08 193.52 3072.93 122.54C3163.79 51.5601 3150.36 153.77 3220.57 190.94C3290.78 228.11 3375.44 206.43 3453.91 146.54C3532.38 86.6501 3483.85 41.2301 3597.42 105.24C3710.99 169.25 3722.52 232.93 3833 187.5C3943.48 142.07 4061 -38.2799 4147.72 68.0701C4234.44 174.42 4179.73 255.98 4299.49 194.03C4419.25 132.08 4423.38 199.19 4504.95 209.52C4586.52 219.85 4615.94 195.58 4649.49 162.03C4683.04 128.48 4752.74 103.18 4877.66 195.07C5002.58 286.96 5054.21 254.95 5159.52 185.78C5264.83 116.61 5201.85 8.20009 5361.88 108.35C5521.91 208.5 5508.49 215.73 5656.13 98.0301C5803.77 -19.6699 5713.95 230.18 5968.96 184.76C6223.97 139.34 6232.24 95.9701 6315.87 170.31C6399.5 244.65 6514.1 241.03 6598.76 122.56C6683.42 4.09009 6725.75 73.2601 6811.45 158.96C6897.15 244.66 6884.75 156.9 6986.97 84.6201C7089.18 12.3501 7123.25 -4.16991 7241.99 114.56C7360.73 233.29 7319.98 149.46 7456.74 95.9801C7593.5 42.5 7414.5 141.5 7508 187C7608 229.5 7723.89 189.69 7778.87 134.7C7833.85 79.7101 7931.67 -15.5299 8003.95 84.6201C8076.23 184.77 8122.68 329.31 8215.6 189.93C8308.52 50.5501 8439.33 121.76 8524 152.74C8608.67 183.72 8689.5 273.56 8873.28 142.44C9057.06 11.3201 9053.96 108.37 9227.41 163.09C9400.86 217.81 9420.48 125.92 9455.58 90.8201C9490.68 55.7201 9508.24 76.3701 9586.7 168.25C9665.16 260.13 9769.01 194.84 9864 90.8201C9958.99 -13.1999 10000 -0.5 10000 -0.5V269.67H0Z" fill="#E8F2F6"/>
</svg>
