<svg id="logosandtypes_com" xmlns="http://www.w3.org/2000/svg" viewBox="0 0 150 150"><style>.st1{fill:#43a7de}</style><path d="M0 0h150v150H0V0z" fill="none"/><path class="st1" d="M94.2 34.7c-1.2-1.5-3.4-1.7-2.3-4.1.3-.6 2.6-2.5 1.1-2.9-1.2-.3-2.4 2.4-3.9 1.6-1-.5-1.3-2.8-1.2-3.9-.2-1.6-1.3.2-1.4 1-.4 2.1.7 3.3-1.9 3.5-.5 0-2.2-.4-2.5-.2-1.7 1 1.5 1.8 2.4 2.2 2.2 1 1.9 1.8 1.5 4-.3 1.8-.2 4.1 1.4 1.5 1.1-1.8.8-3.5 3.1-2.9 1 .5 6 2.9 3.7.2zm-19.5 67.1c.8-1.2 5.3-.6 6.5-.3 2.8.6 5.1 2.5 7.9 3.2 2.2.6 4.4 1 6.6 1.1 1.3-.1 2.5-.3 3.7-.6 0 0 2.3-.4 1.8-.1-2.2 1.6-5 1.3-7.4 2.4 3.4 2.5 5.5 6.2 6 10.4.3 2.1-.5 5.8 1.5 7 .9.6 9.5 2.3 6.6 5.1-.9.8-.5-.5-1.2-.5s-1.5.1-2.2.2c-.9.2-1.7.3-2.6.3-.2 0-1.3-.6-1.4-.6s-.8 1.3-1.2 1.6c-.8.6-2 .7-2.9 1.1s-1.9 2.2-2.7 1c-.9-1.4 1.8-4.2 2.5-5.1 1.4-1.8 1.9-3.5.8-5.7-1-1.9-2.8-2.9-4.5-4-1.1-.7-3-3.1-4.3-3.3s-.3-.5-.7.7c-.2.7.2 5-.5 5 0 0-2.5-6.1-3.1-6.9-.8-1.1-1.7-2.2-2.6-3.2-.9-.9-2.1-1.5-3-2.3-1.1-1.1-4.6-4.8-3.6-6.5zm48.4-12.7c-.4.5-1.2 2.1-1.8 2.3-.9.3-.6-.3-1.2-.3h-1.3c-1.7-.6-3.1-1.7-4.8-2.4-1.9-.8-4.2-1.1-6.2-1.7s-5.4-1.3-7.4-.9c-1.8.4-1.4 1-.2 1.9s3.1 2.1 4.6 3c2.1 1.2 4.4 1.9 6.8 1.8 2.2 0 4.6-1.1 6.7-1.1 2.9 0 .9 2.8.1 4.2-.4.8-1.7 4.7-2.9 4.3-.7-.2-.3-1.2-.7-1.7-.1-.1-1.1-.4-1.2-.6-.9-.6-1.8-1.4-2.7-2-3.5-2.3-7.8-3.5-12-3.2-2.2 0-1.8.6 0 1.6 2.4 1.2 4.9 2.1 7.5 2.8 1.5.5 3.1 1 4.7 1.3.8.1 2.3.1 3 .5-.8.9 1.1 1.5.7 2.4s-3.4.1-3.4 1c-2.1-1.2-4.5-1.9-6.9-2.1-.6-.1-4.9-.6-5.3.1.2-.4 4.4 1.8 4.9 2 1.6.6 3.4.3 5 .3 1.9 0 3 .8 5 .2 3.8-1.3 4.7-5.2 6.5-8.4.7-1.1 3.8-3.8 2.5-5.3zm12.6-9c0 2.1-.8 4.3-1.2 6.3-.4 1.8-.4 3.7-1.8 4.9-.7.5-1.5.9-2.3 1.3l-.8.5c-.5.7-1 .8-1.4.1-.7-.1-3.5-1.4-3.1.4-.1-.1-1.5-1.1-1.4-1 .9 1.6 1.8 2.8 3.8 2.3-1.9 2-5.3 2.3-6 5.4-.1.4.4.6.3 1.1-.2.6-.5 1.3-.8 1.8-.4 1.2-.6 2.5-1 3.7.7-1.8 2.4-3.4 2.8-5.2 2.4 2.7 4.4-4.4 5.7-5.2-.4.7-1.4 2.8.1 2.8-.2.7-.6 1.3-1.1 1.8 0 0 1.2-.9 1.3-1.1.5-.5.9-1 1.3-1.6.5-1-.4-2-.3-2.8s2.5-2.4 3.4-3.1c-.9 3.2-1.9 6.4-3.1 9.5-.5 1.2-.2.9-1.3 1.5-.6.4-1.3.6-1.9 1-1 .6-1.9 1.4-2.8 2.2-.9.8-1.5 1.8-1.8 3-.1 1 0 2.1.2 3.1.3-.6.6-1.3.8-1.9.3-.6.7-1.2 1.1-1.8 1.6-1.9 3.3-3.7 5.3-5.2-.8 1.3-2.2 2.5-3 3.9-.5.6-.9 1.3-1 2.1.2.6.4 1.2.8 1.7-.2 2-3.4 3.1-4.3 4.5-1 1.7-2.2 3.3-3.6 4.7-.7.6-3.6 2.7-3.6 3.8 0 .5 3.7-2.4 3.6-2.4 1.8-1.3 3.8-2.3 5.4-3.9s2.3-3.9 3.7-5.6c.6-.7 1.4-.9 2-1.8s.7-3 .8-4.1c.3-4.7 2.2-9.9 4-14.4 1.1-3.8 2.4-8.4 1.2-12.3z"/><path class="st1" d="M115.9 115.8c.8 1.2 2.1-.7 3-.3.8-.7-.5-1.6-.7-2.1-.4-1-.6-2.1-1-3.1-.7-1.8-2.5-3-4.5-3-.7 0-1.4.3-2 .8-.7.7-1.2.7-1.7-.1-1-.2-1.9-.9-2.7.4-.7-1.6-2-.6-2.4.3 0-1.7-1.3-.7-1.8 0 0-1.3-.9-.9-1.4 0 .1-.3-.2-1.3-.8-.7-.1.1-.6.1-.7.3s.9 1.8 1.3 1.2c0 .9.4 1.7 1.1.7-.1.9 1 2.8 1.7 1.3-.1 2.7.8 2.2 2.3 3.5.6.5.5 1.1 1.3 1.7l1.2.6c1.2.2 2.4.1 3.5-.3 1.4-.8 2.5-3.1 4.3-1.2zM87.7 124c-1.2-.5-2.3-1.1-3.3-1.9-.5-.5-.8-1.8-1.7-2.1-1.7-.7-1.6-.2-1.7 1.4s.3 2.6-1.1 3.9c-.9.8-2.4 1.3-3.3 2.2-.4.4-1.6 2.4-2.2 2.1-1.1-.6.8-4.1.9-4.8.3-1.8.5-4.9 2.9-5.9.7-.3 1.5.4 2.2-.2.9-.8-.3-1.8-1.1-2.1s-1.1-.2-1.7-.4c-.8-.3-1.6-.6-2.4-1.1-.6-.3-3.7-2.2-2.9-.1-1.9.7-2.5-1.1-3.4-1.8-.7-.5-2.9-1.8-3.2-.3s3.7 4 4.6 5.1c1.1 1.4 1 2.9 1.1 4.6.1 1.9-.5 2.7-.9 4.5-.3 1.3.3 2.7-.3 3.8s-1.7 1.2-2.8 1.7-3.8 2.6-5 1c-1.6-2.3 2.5-3.5 3.7-4.6.8-.8 1.6-2.5-.3-2.7-.6-.1-3 2.1-3.8 2.4 0-.9-.3-1.9-.3-2.7s.6-1.3.8-2.1c.4-1.5-.6-1.8.9-2.8.5-.3 1.8.1 1.8-1-.1-1.4-.8-.5-1.3-.7-.9-.3-2.3-.5-3.3-.9-.7-.3-2.5-1.7-3.5-1.3-2 .7.5 2.7 1.1 3.5 1.2 1.8.8 4.2 1 6.3.2 1.8 0 3.6-.5 5.3-.3 1.1-.8 2.1-1.4 3.1-.9 1-2.7 1-3.2 2.1-.8 1.9 1.9 3.8 3.5 3.8.8-.2 1.6-.5 2.3-.9 1-.4 2-1.1 3.1-1.5 3.6-1.3 7.7-3.6 11.4-3.9 2.2-.2 4 .4 6.2.5 1-.1 2 .1 2.9.7.8.6.6 1.3 1.2 1.8 2 1.8 2.2-3.9 2.4-5.4.1-.9.9-1.2-.2-1.5-.8-.2-1.2.7-1.7 1.1-2.7 1.9-3.7-.3-6.5-.8.4-1 1.7-1 2.3-1.8.2-.2.1-.5-.1-.7-.4-.4-.2-.7.5-.9.5-.6 1.1-1.1 1.8-1.5 1.3-.7 2.7-.6 4-.9.4-.2 2.6-1.3.5-1.6zm14.7-80.7c4.5-7.6 4.1-17.6-3.6-22.9-5.7-3.9-13.2-3.9-19.5-2.1-2.2.6-11.8 3.8-9.8 7.6.6 1.2 2.6 1.1 3.2 2.3.9 1.6-.8 3-2.2 3.7-3.5 1.7-7 .9-10.3-.9-2.8-1.6-5.6-4-8.9-4.1-2.2 0-9.1 2.3-6.5 5.2.6.7 1.6.7 2.3 1.3.4.4.5 1 .9 1.4 1.1 1.2 2.5 2.1 4 2.6 4 1.4 8.2 1.8 12.4 1 3.8-.7 9.2-2.5 11.6-5.7 1.5-2 .1-2.4-.7-4.1-1-2.4 1.2-4.7 3.3-5.6 3-1.4 6.9-1.1 10.1-.6 3.7.6 8 1.8 10.8 4.4 1.4 1.4 2.8 3.8 2 5.7-.6 1-1.3 2-2 3-1.4 2.3-2.5 4.8-3 7.4-.2 1-.5 4.9.9 5.2s4.5-3.9 5-4.8z"/><path class="st1" d="M55.1 23.3c-1.2 1 1.9 2.9 2.9 2.7s.9-1.3 1.4-1.7c.9-.6 2.5-.6 3.7-.9 0 1.8.6 3.1 1.7 1.1.3-.6.3-1.5.7-2 .6-.8 2-1.4 2.8-2.1 2.1-1.9 3.6-4.5 4.2-7.3.2-.9 1-3.6 0-4.5-2-1.8-7 2.5-8.2 3.6s-1.7 2.2-3.3 2c-.6-.1-2.5-1.1-3-.6-.3.2 0 2.8.2 3.3.3.9.2.5.9 1.2-.7.7-1.5 1.1-2.5 1.3-.7 0-1.3-.7-1.9-.7-.9 0-1.9.5-.6 1.3-4.7 1-.9-1-1.5-2.8-.4-1.2-1.9-.8-2.7-1.4-1.1-.8-1-2.7-2.1-3.3s-.8-.1-.6 1.2c.2 1.6.7 3.1 1.5 4.5 1.4 2.5 3.7 4.3 6.4 5.1zm-6.6 31.6c-.6-1.8-4.5-3.8-6.1-4 .2.2.4.4.6.5 0 0-.8-.3-.8-.1l.3.3c-.1 0-.8-.3-.8-.1 0 .1.1.2.2.3-.1-.1-.3-.1-.5 0 0 .1.1.2.2.2-.1 0-.3 0-.4.1l.5.1c-.2 0-.4 0-.6.1l.3.2c-1.9-.6-3.2 1.7-4.7 1.5-.7-.1-1-1.6-1.6-1v3.9c0 .1 1.6-1.2 1.9-1.2 1-.1 1.5 1 2 1.3.1.2.1.4.1.7.2.1.5 0 .7-.2-.2-.1 1.4-.2 1.2-.1-3.2 2.5 1.6.3 1.5.3v1.5c.3-.3.2-1.2.5-1.3.8-.4 2.1-.1 3-.4.7-.3 1.9-.8 2.2-1.5.1 0 .8-1.3.3-1.1zm68.7-19.8c.5 1 .3 2.5 1.8 2.7-2 0-.9-4.5-3.4-2.9.6-.1.8-.3.6-.7-.3-.1-.6 0-.8.4.2-.1.3-.3.4-.5 0 .9-6.9-4-6-4.2-.9.2-.4 3.7-.5 4.4 0 1.2-.7 2.2-1.8 2.7-1.5 1-1.1.3.2.8.7.3.7-.3 1.4.4.4.5.5 1.2.3 1.8-.2.4-2.3 1.4-.6 1.5.2 0 1.2-1 1.7-1.1 1.1-.2 5.9 3.4 5.9 3.4s-.6-4.2-.6-4.5c.2-1.3.4-2.6.8-3.9-.2.1-.5.2-.7.2.3.1.7-.1.8-.5-.1-.4-.8.1-1 .1.4.2 1.1-1 1.5-.1zm-3.9 32.5c1.4-.3 2.5-1.3 2.7-2.7.5-1.4.8-2.8.9-4.3.7 1 2.5 4 2 5.2 2.7-1.3-2.8-7.4-2.8-8.9.8 1.6 4.4 6.7 6.8 4.5-2.3-.6-6.6-3.5-6.8-6.1 1.3 1.1 2.8 2.6 4.5 1.8s1.7-3.6.7-5c0 1.8-1.1 2.5-1.2 4.2-1-.5-2.6-1-3.5-1.6s-1.2-1.5-2.1-2.3c-1.3-1.2-1.2-.8-1.6-2.5-.3-1-1.1-1.7-1.3-2.7 1 0 1.5-.8 2.4-1.1.6-.1 1.2-.1 1.9 0-1.5-1-4.2-1.2-5 .7-.8 1.6.6 3.2 1.6 4.4-2.6-.3-5.3-4.8-5.8-7-2.3 2.4 2.4 6.2 4.2 7-1.7 0-7.4-5.9-8.7-3.2 1.4-.6 4 1.5 5.2 2.2-1.5-.1-3.1.1-4.6.6-1.4.2-2.6 1.3-2.9 2.7 1.3-1.4 2.5-1.2 4.3-1.7-.4 1-.3 1.2-.9 1.7-.5.4-1.3.2-1.8.7-.8.8-.9 2.3-1 3.5-.1.9 1.4 6.5 3.2 4.8-.8 0-1.4-1.8-1.2-2.5.3.3 1.7 1.4 1.6 1.8.4-.5-.6-1.8-.7-2.3-.3-1.2-.5-3.8.4-4.8.4 4.6 4 8.3 8.6 9-1.1.9-3.7.5-4.9.2-.5-.1-1.8-1.1-2.3-.8.6 0 1.5 1.3 1.8 1.7-.7.2-2.4-.5-2.4-1.3-1.8 1.9 4.2 3.5 5 3.4 1.2 0 2.5-.1 3.3-1 .4-.4.4-1.1.7-1.5.6-.7.5-.5 1.7-.9-.7 1.8-.5 3-2 4.1zm27.6 7.7c.8-1.9-.7-3.1-1.5-5.1-.9-2.3-.5-5.2-1.3-7.6-.2-.5-2.1-4.9-1.4-5.4.2.1.5.2.7.3 0-.5.6-.2.9.1l-.1-.3c.4.3.4.2 1 .5v-.3l.3.2c.1-.5.1.1.1-.3.4.2.4-.1.8.3-.7-.7-1.3-1.4-1.9-2.2-.8-.8-1.2-.8-2-1.2-1.3-1.1-2.3-2.5-2.8-4.1-.7-1.9-.3-3.5-2.3-4.6-.9-.5-1.4-.2-2.3-.4-1-.3-1.4-1.7-2.3 0-.5.9.3 1.7.3 2.6 0 2.4-2.7 3.9-2.5 6.8.1 1 .3 1.9.7 2.8.7 1.8.7 1.6-.2 3.3-1.3 2.4-1.6 5.4.2 7.6l.3-.6.1.2.3-.7.1.3.3-.7.1.3c.1-.3.3-.6.3-.9v.2c.1-.3.2-.7.3-1l.1.2c0-.3.1-.7.2-1.1l.1.2c0-.4.1-.8.1-1.2l.3.3c-.1-.6 0-1.1.1-1.7-.2.4 2.3 3.2 2.7 3.7 1.1 1.2 2.6 1.7 3.8 2.8s1.2 1.8.8 3.3c-.5 2.1.2 2.9.5 4.9.4-.3.6-.8.6-1.3l.2.2c0-.4.1-.7.1-1.1l.1.2c.1-.3.2-.7.3-1l.1.2c0-.2.4-1 .2-.7 0-.6.1-1.2.2-1.7 0 1.9.7 4 2.9 4.7l-.1-.5c.7 0 .5-.2.5-.5zm-36.4-56.6c2.5 1.4 6 3.4 7.6 5.7-.9-.5-7.8-5.9-8.4-5.3-.2.2 4.1 3.3 4.3 3.4-.8-.4-6.6-3.2-6.3-4.2-.6 2 6.8 5.1 8.1 6-.4.6-4.2-2.4-4.5-1.7.1-.2 4 2.5 4.2 2.6 1.7.9 4.9 2.3 6.8 2.3-.9.2-1.9 0-2.7-.6-.2.9 2.5 3.1 3 3.6 2 2 4.3 3.2 6.5 4.8 1.6 1.2 1.3 2.8 2.3 4 .8 1 4.8-.1 4.5-1 2.3 1.1 2.3.4.9-1.1 1.1.3.6-2.2.3-2.6s-1.1-.4-1.6-.6c-2.1-1.1-2.8-3.1-4.3-4.8-1.2-1.3-2.5-2.5-3.9-3.5l-1.5-1.2c-1-.5.1-.4-.5.5-.4-1-1.2-1.9-2.1-2.6-.6-.1-1.2.5-1.6.4s-1.3-1.2-1.8-1.6c-1.3-.9-2.7-1.3-4-2.1s-2.8-2.5-4.1-2.8c.8.2 2.8 3.6 3.6 4.2.5.4 4.6 2.6 4.2 3.2-1.1 1.5-10-8.6-10.8-7.8 0 .1.1.3.2.4.1 0-1.4-.5-1.3-.3.5 1.1 1.6 2 2.9 2.7zm25.6 61.9s-2.7-2.4-2.7-1.6c-.1-.3-.7-1-1.1-1 0 .1-.1.3-.2.3-.7-.4-.3-.4-.9-.3-.3 0-.3-1.8-.6-1.2 0-.2-.3-1.4-.4-1.3.2-.3-.2-.7-.2-.4.4-1.4 1-1.4 1.8-2.4-.1.1-.4-1-.5-.9-.7.6-1.2 1.3-1.6 2.1-.5-.3.9-2.4.7-2.8 0 .1-.5-.3-.4-.3-1.9.3-.3 6.3-.5 6.4-.9-.3-1.7-.7-2.5-1.2.2-.9.4-1.8.8-2.7.3-.8 1.5-2.7 1-3.3-.8 1.2-1.5 2.5-2 3.8-.5-1.4 2.1-3.8 1.5-4.8-.1-.2-.7.7-.7.7V69c-.1-.2-1 1.9-1.1 2.1-.2.7-.3 1.4-.3 2.1 0-.2-.4 1.9-.4 1.9 0-.7.2-6.2-.2-6.3s-.5 4.6-.4 4.6c-.8-.1.2-4.7-.4-4.8-.4-.1-.2 1-.3 1 0-.2-.1-.3-.2-.5-.3-.2-.1 3.2-.1 3.4-.4-1-1-2-1.8-2.8.2.3-.9-1-1-1-1 .3-.1 1.1-.4 1.6-.2.3-2-1.5-1.4.3.1.3.6.4.9.8s1.2 1.5 1.5 1.8c1.8 1.9.5 1.1-1.2 1.3-.4.1-3.1 1-1.4 1.2-.2.1-.3.2-.4.3-.2.4 1-.1.9-.1.4.1.9.1 1.3-.1-.3.3 1.6.2 1.6.2.4 0 1.1-.5 1.5-.2-.2 0-.3.1-.3.3.4.1.8.2 1.2.4 0-.3-4.4 0-4.3.2.1.1.3.2.4.2 0 .2-.9.1-.8.4.2.8 3.9-.6 4.1.2-.1-.3-3.9.4-3.8.7.2.1.4.2.6.1-.2 0-.9.1-1 .3.1.1.1.3.2.4-.4.1-1 .1-1.3.2-1.8.5-1 .4-.8 1.4-1.6 2.6.6.8 1.6.6v.2c.5-.1 2.6-1.8 2.9-1.1-.2-.4-6 4.2-3.3 3.5.3.9 2.4-1.3 2.9-1.6s1.5-.7 2.3-1.3c-.1.1 2.8-.3 2.8-.6.2.7-2.3 1.7-2.7 2.1-.1.1-.8.9-.8.9-.1.2-.3 1.3 0 .8.1-.1-1 2.2-.5 2.1.2-.1.3-.2.4-.4.1.1-.3 1.2 0 1.3.7-1.2 1.2-2.4 1.5-3.7 0 .5.7-1 1-.8-.2-.2-1 3.6.1 3.3.4-.1-.1-1.5 0-2.1.2-.8 1.1-1.4 1.1-2.2 0-.3 1.7-1.8 2.2-1.3.2.3.9-.3 1.2-.2-.1.1-.1.2-.1.3.4.3 1.2-.2 1.6-.2.1 0-.4.3-.1.3.9.1 1 .4 2 .2-.3.1 1.4 1.2 1.7 1.2 2.4.7 0-1.6-.2-1.3zm-11.7-4.4c-.9 0-1.9.4-2.7.1.8 0 2.5-.1 2.7-.1zm-71.2 50.1c-.8 0-5.8 1.3-5.1 2.6.2.3 1.5-.3 1.8-.3 1.2-.2 2.4 0 3.5.5 1 .5 5.2 3.1 5-.1-.1-1.8-3.8-2.6-5.2-2.7z"/><path class="st1" d="M48.3 117.4c-2.5.2-3.8-1.5-5.7-2.8-2.4-1.6-5.3-2.5-8.2-2.4-1.8 0-10.9 1.6-8.5 5.3s6.9-3.3 9-3.7c2.5-.5 7.3 3.5 4.1 5s-8.6 1.5-10 5.7c-1.3 4 2.6 7.4 5.9 8.5 2.1.7 4.4.8 6.5.2 1-.3 4.7-1.3 2.3-2.6-1.7-.9-3.6.9-5-1.3-1.3-2 .8-3.6 2.5-4.5 3.6-1.9 8-1.7 11.5-3.8 4.3-2.7-2.4-3.6-4.4-3.6zm4.9-10.2c-1.4-.3-5.5-1.3-4.1 1.3-2.1-.7-4.3-.8-6.5-.3-.9.2-4 1.2-3.7 2.7-.2-1 6-.4 6.8-.2 2.5.8 4.5 1.5 7.2 1.1 1.1-.1 5.6-.7 5.4-2.4-.1-1.3-4.1-2-5.1-2.2zM28.2 44c1.9-2.4 5.3-6.4 8.6-6.4 1.1 0 2.2.6 3.3.6s3.8-1.4 3.6 1c-.6-1-8.5 3.2-3.1 2.7 2-.2 4-.7 6-.9 2.4-.3 2.8.2 4.8 1.7 1.2.9 7.7 7.1 5.3 8.9-.9.7-8.1-3.9-9.4-4.3-1.9-.6-3.9-.8-5.8-.5-1.1 0-2.3.1-3.4.2-1.8.4-2.3 1.7-3.5 3-1.4 1.3-3 2.5-4.6 3.6-1.6 1.1-4.3 2.2-5.6 3.7-.9 1-1.2 2.4-2 3.6-.3.4-3.1 3.5-3.1 3.6 0-1.5 3.2-3.1 3.1-4.6-1.2.5-1.8 1.6-2.8 2.2-.8.5-.8.1-1.6.3-.3-.2 1.3-1.1.6-1.6-.1-.1-1.6 1-1.7 1-.1-1.2 1.7-2.5 2.4-3.4l2.4-3.3c1.1-1.6 2.5-3 .5-3.2-2.8-.2-4.2 3.3-5.7 5.1-1.1 1.3-2.1 2.7-3.1 4.1-.5.8-1.3 3-2.4 2.9.3-2.8 2.6-4.7 3.8-7.1.8-1.8 1.7-3.4 2.9-4.9 1.6-2 2.9-3.7 5.5-4.7 1.8-.9 3.7-1.5 5-3.3zm-9.6 48.4c-.5-1.5-3.5-5.1-2.4-6.4 1.3-1.6 5-.6 6.6-2 2.3-2.1-1.5-1.3-2.3-1.7-2.1-1.3 3.3-2.2 4.4-2.1 1.4.1 2.2 1.2 3.4 1.8 1.4.7 2.6.5 4.2.8 2.4.4 3.8 1.7 5.9 2.5.5.2 1.1.9 1.2 0s-1.2-.9-1.7-1.3c-3-2.5 3.2-1 4.5-.2.7.4 2.2 1.5 1.9 2.4s-1.6 1.2-2.1 1.8-1.4 2.5-.8 3.5 2.7.4 3.7 1.1.5.3 1 1.5c.3.6 1.4 2 1.2 2.6s-3.4 1.2-3.8 1.1c-1.3-.2-2.2-1.4-3.6-1.5s-2.1.7-3.2 1.3c-.8.5-2.5.6-3.1 1.2-1.4 1.1.6 2.9-.6 4.5-1 1.3-4.1 1.3-5.6 1.5-1.2.1-8.3-1.2-6.5-3.7 1-1.4 9.3 1.9 6.8-1.8-1.4-2.1-5.6-3.1-7.8-3-1.7.1-3.4.6-4.7-.8-.8-1.1-1.5-2.4-2.1-3.7.1-1.7 1.3-.6 2.1-.3.6.2 1 .7 1.6.8s1.3-.6 2-.1m8.5-21c-3.9-2.4-8.9-2-12.4 1-.3.3-.5.9-.8 1.2-1.1.9-.5.8-2.2.9-.4 0-4-.6-3.9-.4.1.7 1 1.3 1.3 2 .5 1.1.6 2.4.4 3.6 1-1.1 2.4-2.9 3.9-3.3.3-.1 5.8.5 5.8 0 0 .1-.4.3-.5.3 1.5.3 2.5-.5 3.8-1.1.5-.5 5.9-3.5 4.6-4.2zm11.3 4.4c-1.4-1.9-3.4-1.9-5.4-1.4-.2.1-.4.4-.5.5-.1.2-.4.4-.6.5-.7-.3-1.5-.7-2.2-1.1.5.2.4 3 .3 3.4.5-.5 1.1-.9 1.7-1.2.9.1 1.9.4 2.7.7 0 .1-.1.1-.2.2.8.4 4.9-.6 4.2-1.6zM23.7 65c1.6-2.4 5.5-3.8 8.2-2.2.2.1.5.5.7.7.4.2.4.7.9.8.7.1 2.8-1.5 3.3-1.8-.9.3-.5 4.4-.4 5.1-2.5-2.1-3.7-1.5-6.7-.6-.2.1.3.3.3.3-1.4.8-7.4-1.1-6.3-2.3z"/></svg>